<?xml version="1.0" encoding="UTF-8"?>
<svg id="Camada_2" data-name="Camada 2" xmlns="http://www.w3.org/2000/svg" viewBox="0 0 16.32 16.29">
  <defs>
    <style>
      .cls-1 {
        fill: #ff0d8c;
        stroke-width: 0px;
      }
    </style>
  </defs>
  <path class="cls-1" d="M.42,12.61c-.07,0-.13-.03-.18-.08s-.08-.11-.08-.19c0-.03,0-.07.03-.11L3.25,4c.02-.09.07-.16.15-.22s.17-.1.3-.1h1.39c.13,0,.23.03.29.1.07.06.12.14.15.22l3.08,8.23s.01.08.01.11c0,.08-.02.14-.08.19-.05.05-.11.08-.18.08h-1.11c-.12,0-.21-.03-.26-.08s-.09-.11-.11-.16l-.6-1.56h-3.79l-.6,1.56c-.02.05-.05.1-.11.16s-.14.08-.26.08H.42ZM2.95,9.35h2.9l-1.45-3.94-1.44,3.94Z"/>
  <path class="cls-1" d="M12.36,12.19c-.09,0-.16-.03-.22-.09-.06-.06-.09-.13-.09-.22v-2.49h-2.45c-.09,0-.16-.03-.22-.09-.06-.06-.09-.14-.09-.23v-.66c0-.09.03-.17.09-.22.06-.06.13-.08.22-.08h2.45v-2.42c0-.08.03-.16.09-.22.06-.06.13-.09.22-.09h.74c.09,0,.17.03.22.09s.08.13.08.22v2.42h2.45c.08,0,.16.03.22.08.06.06.09.13.09.22v.66c0,.09-.03.17-.09.23-.06.06-.13.09-.22.09h-2.45v2.49c0,.09-.03.16-.08.22-.06.06-.13.09-.22.09h-.74Z"/>
</svg>