<?xml version="1.0" encoding="UTF-8"?>
<svg id="Camada_2" data-name="Camada 2" xmlns="http://www.w3.org/2000/svg" xmlns:xlink="http://www.w3.org/1999/xlink" viewBox="0 0 369.58 100">
  <defs>
    <style>
      .cls-1 {
        fill: none;
      }

      .cls-1, .cls-2, .cls-3 {
        stroke-width: 0px;
      }

      .cls-2 {
        fill: #b6ff00;
      }

      .cls-4 {
        clip-path: url(#clippath);
      }

      .cls-3 {
        fill: #fff;
      }
    </style>
    <clipPath id="clippath">
      <polygon class="cls-1" points="-1603.05 876.61 -1708.65 480 -1644.23 483.98 -1726.23 224.82 -286.23 224.82 -286.23 876.61 -1603.05 876.61"/>
    </clipPath>
  </defs>
  <g class="cls-4">
    <image width="4846" height="3431" transform="translate(-1555.23 62.82) scale(.34)" xlink:href="../../../../Downloads/ales-nesetril-Im7lZjxeLhg-unsplash.jpg"/>
  </g>
  <g id="Camada_1-2" data-name="Camada 1-2">
    <g>
      <path class="cls-3" d="M213.72,23.93v10.01h37.26c3.39,0,4.91.92,4.91,2.98v3.98c0,2.06-1.52,2.98-4.91,2.98h-37.26v10.01h47.19c3.39,0,4.91.92,4.91,2.98v3.9c0,2.06-1.52,2.98-4.91,2.98h-55.71c-.25,0-.5-.01-.72-.04-1.56-.21-2.26-1.14-2.26-2.94h0V17.05h0c0-1.54.52-2.45,1.64-2.8.38-.12.82-.18,1.33-.18h55.71c3.39,0,4.91.92,4.91,2.98v3.9c0,2.06-1.52,2.98-4.91,2.98h-47.19,0ZM123.45,49.56h5.96c9.3,0,21.01-2.98,21.01-17.46s-11.71-18.03-20.94-18.03h-14.76c-2.06,0-2.98.92-2.98,2.98v43.73c0,2.06.92,2.98,2.98,2.98h5.75c2.06,0,2.98-.92,2.98-2.98v-11.22h0ZM123.45,40.19v-16.26l6.74.07c4.61,0,8.8,2.13,8.8,8.09s-4.19,8.16-8.8,8.16l-6.74-.07ZM183.53,61.48c.92,1.77,1.77,2.27,3.76,2.27h6.81c1.28,0,1.99-.71,1.99-1.63,0-.35-.07-.71-.28-1.14l-8.66-16.04c6.1-2.56,9.16-8.16,9.16-14.84,0-13.49-12-16.04-21.22-16.04h-15.76c-2.06,0-2.98.92-2.98,2.98v43.73c0,2.06.92,2.98,2.98,2.98h5.75c2.06,0,2.98-.92,2.98-2.98v-13.56h5.54c.85,0,1.56,0,2.34-.07l7.6,14.34h0ZM168.06,38.41v-14.69h8.02c4.9,0,8.94,2.06,8.94,7.52,0,5.18-4.05,7.17-8.94,7.17h-8.02ZM312.98,19.89v-2.84c0-2.06-.92-2.98-2.98-2.98h-35.28c-2.06,0-2.98.92-2.98,2.98v4.19c0,2.06.92,2.98,2.98,2.98h22.08l-22.79,28.04c-1.63,2.06-2.2,2.98-2.27,5.68v2.84c0,2.06.92,2.98,2.98,2.98h35.28c2.06,0,2.98-.92,2.98-2.98v-4.19c0-2.06-.92-2.98-2.98-2.98h-22.08l22.79-28.04c1.63-2.06,2.2-2.98,2.27-5.68h0ZM333.45,55.66l21.65.07,2.13,5.61c.71,1.85,1.49,2.41,3.48,2.41h6.67c1.35,0,2.2-.71,2.2-1.85,0-.35-.07-.71-.21-1.14l-18.17-44.29c-.78-1.85-1.63-2.41-3.62-2.41h-6.6c-1.99,0-2.84.57-3.62,2.41l-18.17,44.29c-.21.43-.28.85-.28,1.21,0,1.06.78,1.77,2.27,1.77h6.67c1.92,0,2.77-.57,3.48-2.41l2.13-5.68h0ZM351.4,45.58h-14.27l7.1-18.53,7.17,18.53ZM192.45,99.85c0,.1.05.15.15.15h.73c.1,0,.15-.05.15-.15M117.75,85.74c.08-.07.08-.14,0-.21-.04-.04-.07-.06-.09-.08-.08-.07-.16-.12-.24-.18-.11-.07-.22-.14-.34-.21-.33-.17-.66-.3-1.01-.38-.25-.05-.47-.08-.66-.09h-.35s-.1,0-.17.01h-.09s-.11.01-.11.01c-.3.04-.57.11-.79.2-.31.13-.58.3-.79.51-.24.24-.41.54-.5.89l-.03.13-.02.13c-.01.1-.02.18-.02.25v.13s-.01.09-.01.09v.05s.01.09.01.09l.02.15c.01.08.04.18.08.29,0,.04.02.08.04.13l.07.13c.03.07.08.15.14.25l.09.11s.06.08.09.11c.21.23.48.44.8.63.21.13.5.27.85.43l.11.04.09.04.2.09.42.18c.63.3,1.06.59,1.31.87.14.17.24.36.28.57v.08s.02.07.02.09v.12s.01,0,.01-.02v.05s-.01.11-.01.11c0,.04,0,.08-.01.09v.07s-.02.08-.02.08c-.08.41-.31.72-.7.91-.16.09-.35.15-.58.21-.24.04-.45.05-.62.05h-.08s-.07.01-.07.01h-.16s-.1-.01-.15-.02h-.13c-.14-.04-.31-.07-.5-.12-.26-.07-.51-.18-.75-.31-.1-.06-.2-.12-.28-.18-.07-.04-.12-.09-.17-.14-.07-.06-.14-.05-.2.01l-.51.5c-.08.08-.08.15,0,.22.08.07.17.13.26.21.12.09.26.18.41.26.31.18.64.32.99.42.24.06.46.1.66.13h.09s.09.01.09.01c.07,0,.13.01.17.01h.16s.2.01.2.01c.22,0,.49-.04.79-.09.31-.07.59-.16.84-.29.31-.16.57-.37.77-.63.21-.28.36-.6.43-.96l.02-.14.02-.14s0-.08.01-.12v-.39s-.01-.08-.02-.14l-.03-.14c-.07-.37-.24-.69-.5-.99-.2-.24-.47-.47-.79-.67-.23-.14-.51-.3-.85-.45l-.41-.17-.21-.09-.12-.05-.11-.04c-.31-.14-.57-.27-.75-.38-.24-.14-.43-.29-.57-.44l-.05-.07-.05-.07-.04-.07-.03-.07-.03-.07-.02-.07-.02-.08s-.01-.04-.01-.05l-.02-.07v-.18s-.01-.01-.01-.01v.02-.09s.01-.09.02-.16v-.08s.04-.08.04-.08c.05-.2.14-.35.27-.47.11-.13.27-.23.46-.3.15-.07.34-.11.57-.14h.07s.07-.01.07-.01c.06,0,.11-.01.16-.01h.28c.14,0,.3.03.5.07.27.06.52.15.76.28.08.04.17.09.26.16.07.04.14.09.21.15.07.05.14.05.2-.01l.44-.44-.03.02ZM128.08,93.96c1.28,0,2.38-.46,3.29-1.37s1.38-2.02,1.38-3.3-.46-2.39-1.38-3.3c-.91-.91-2.01-1.37-3.29-1.37s-2.39.46-3.3,1.37c-.91.91-1.37,2.01-1.37,3.3s.46,2.38,1.37,3.3c.91.91,2.01,1.37,3.3,1.37ZM128.08,85.64c1.01,0,1.86.36,2.58,1.08.72.71,1.08,1.57,1.08,2.58s-.36,1.86-1.08,2.58-1.58,1.08-2.58,1.08-1.88-.36-2.59-1.08c-.71-.72-1.06-1.58-1.06-2.58s.35-1.87,1.06-2.58,1.58-1.08,2.59-1.08ZM152.42,93.43c0-.63-.01-1.41-.01-2.35v-1.15c0-.54-.01-.96-.01-1.27v-.33c0-.14,0-.28-.02-.4-.03-.27-.09-.52-.17-.77-.18-.51-.46-.97-.84-1.37s-.83-.69-1.35-.88c-.24-.09-.5-.16-.76-.2h-.09s-.09-.02-.09-.02h-.11s-.38-.01-.38-.01h-.09c-.5.05-.96.18-1.4.4-.38.21-.73.47-1.02.79-.2.22-.37.47-.51.73-.17-.3-.37-.57-.6-.82-.37-.4-.82-.69-1.34-.88-.24-.09-.5-.16-.76-.2h-.09s-.11-.02-.11-.02h-.09s-.38-.01-.38-.01h-.09c-.5.05-.96.18-1.4.4-.4.21-.74.47-1.03.79l-.08.09v-1.24c0-.1-.05-.15-.15-.15h-.71c-.1,0-.15.05-.15.15v9.05c0,.1.05.15.15.15h.71c.1,0,.15-.05.15-.15v-5.01l.02-.44v-.24s.02-.09.02-.09c0-.09.02-.17.03-.24.04-.21.11-.41.21-.6.11-.25.27-.48.46-.69.22-.24.48-.43.77-.58.33-.17.67-.26,1.04-.28h.43s.08.02.08.02h.07c.2.03.39.08.57.15.38.15.72.37.99.66.28.3.49.63.62,1.01.06.18.09.38.12.57,0,.09.01.18.02.29v.33s-.01,2.42-.01,2.42c0,.94-.01,1.72-.01,2.35v.35c0,.1.05.15.15.15h.72c.1,0,.15-.05.14-.15v-3.56s-.01-1.58-.01-1.58v-.31s.01-.09.02-.16v-.08s.01-.06.01-.09c0-.09.02-.17.04-.24.04-.21.11-.41.2-.6.12-.25.28-.48.46-.69.22-.24.48-.43.77-.58.33-.17.68-.26,1.04-.28h.44s.07.02.07.02h.08c.2.03.38.08.56.15.38.15.72.37.99.66.28.3.49.63.62,1.01.07.18.1.38.12.57.01.09.02.18.02.29v.33c0,.38,0,.81-.01,1.27v1.15c0,.94,0,1.72-.01,2.35v.35c0,.1.05.15.15.15h.72c.1,0,.15-.05.15-.15v-.35.02ZM162.61,93.95c1.28,0,2.38-.46,3.29-1.37.92-.92,1.38-2.02,1.38-3.3s-.46-2.39-1.38-3.3c-.91-.91-2.01-1.37-3.29-1.37s-2.39.46-3.3,1.37c-.91.91-1.37,2.01-1.37,3.3s.46,2.38,1.37,3.3c.91.91,2.01,1.37,3.3,1.37ZM162.61,85.63c1.01,0,1.86.36,2.58,1.08.72.71,1.08,1.57,1.08,2.58s-.36,1.86-1.08,2.58c-.72.72-1.58,1.08-2.58,1.08s-1.88-.36-2.59-1.08c-.71-.72-1.06-1.58-1.06-2.58s.35-1.87,1.06-2.58c.72-.72,1.58-1.08,2.59-1.08ZM177.82,85.73c.08-.07.08-.14,0-.21-.04-.04-.07-.06-.09-.08-.08-.07-.16-.12-.24-.18-.11-.07-.22-.14-.34-.21-.32-.17-.66-.3-1.01-.38-.25-.05-.47-.08-.66-.09h-.35s-.1,0-.17.01h-.09s-.11.01-.11.01c-.3.04-.57.11-.79.2-.31.13-.58.3-.79.51-.24.24-.41.54-.5.89l-.03.13-.02.13c-.01.1-.02.18-.02.25v.13s-.01.09-.01.09v.05s.01.09.01.09l.02.15c.01.08.04.18.08.29,0,.04.02.08.04.13l.07.13c.03.07.08.15.14.25l.09.11s.06.08.08.11c.21.23.48.44.8.63.21.13.5.27.85.43l.11.04.09.04.21.09.42.18c.63.3,1.07.59,1.31.87.14.17.24.36.28.57v.08s.02.07.02.09v.12s.01,0,.01-.02v.05s-.01.11-.01.11c0,.04,0,.08-.01.09v.07s-.02.08-.02.08c-.08.41-.31.72-.7.91-.16.09-.35.15-.58.21-.24.04-.45.05-.62.05h-.08s-.07.01-.07.01h-.16s-.1-.01-.15-.02h-.13c-.14-.04-.31-.07-.5-.12-.26-.07-.51-.18-.75-.31-.1-.06-.2-.12-.28-.18-.07-.04-.12-.09-.17-.14-.07-.06-.14-.05-.21.01l-.51.5c-.08.08-.08.15,0,.22.08.07.17.13.26.21.12.09.26.18.41.26.31.18.64.32.99.42.24.06.46.1.66.13h.09s.09.01.09.01c.07,0,.13.01.17.01h.16s.21.01.21.01c.22,0,.49-.04.79-.09.31-.07.6-.16.84-.29.31-.16.57-.37.77-.63.21-.28.36-.6.43-.96l.02-.14.02-.14s0-.08.01-.12v-.39s-.01-.08-.02-.14l-.03-.14c-.07-.37-.24-.69-.5-.99-.2-.24-.47-.47-.79-.67-.23-.14-.51-.3-.85-.45l-.41-.17-.2-.09-.12-.05-.11-.04c-.31-.14-.57-.27-.75-.38-.24-.14-.43-.29-.57-.44l-.05-.07-.05-.07-.04-.07-.03-.07-.03-.07-.02-.07-.02-.08s-.01-.04-.01-.05l-.02-.07v-.18s-.01-.01-.01-.01v.02-.09s.01-.09.02-.16v-.08s.04-.08.04-.08c.05-.2.14-.35.27-.47.11-.13.27-.23.46-.3.15-.07.34-.11.57-.14h.07s.07-.01.07-.01c.06,0,.11-.01.16-.01h.28c.14,0,.3.03.5.07.27.06.52.15.76.28.09.04.17.09.26.16.07.04.14.09.2.15.07.05.14.05.21-.01l.44-.44-.04.02ZM193.48,99.84v-7.68c.44.55.98.98,1.61,1.29.66.33,1.36.49,2.09.49,1.31,0,2.43-.46,3.35-1.38.92-.91,1.38-2.01,1.38-3.3s-.46-2.38-1.38-3.29c-.93-.92-2.05-1.38-3.35-1.38-.74,0-1.44.16-2.09.49-.63.31-1.17.74-1.61,1.29v-1.62c0-.1-.05-.15-.15-.15h-.73c-.1,0-.15.05-.15.15v15.09M194.57,91.85c-.72-.72-1.09-1.58-1.09-2.59s.36-1.86,1.09-2.58,1.6-1.08,2.62-1.08,1.9.36,2.62,1.08,1.08,1.58,1.08,2.58-.36,1.88-1.08,2.59c-.72.71-1.6,1.06-2.62,1.06s-1.9-.35-2.62-1.06ZM210.89,84.64c-1.05,0-1.95.38-2.68,1.16v-1.08c0-.1-.05-.15-.14-.15h-.72c-.1,0-.15.05-.15.15v9.06c0,.1.05.15.15.15h.72c.09,0,.14-.05.14-.15v-5.46c0-.74.26-1.37.79-1.89.52-.52,1.15-.79,1.89-.79.14,0,.27.01.4.03.09.01.15-.02.17-.12l.14-.7c.02-.1-.02-.16-.12-.18-.2-.03-.39-.04-.59-.04h0ZM219.83,93.94c.81,0,1.57-.2,2.27-.59.71-.4,1.28-.93,1.71-1.61.05-.09.03-.16-.05-.21l-.62-.35c-.09-.05-.15-.03-.2.05-.34.53-.78.95-1.33,1.25-.55.31-1.14.46-1.77.46-.83,0-1.58-.25-2.24-.76-.64-.5-1.08-1.14-1.29-1.92l7.72-.68c.08,0,.13-.05.13-.14v-.24c0-1.25-.43-2.33-1.3-3.22-.88-.91-1.93-1.36-3.16-1.37-1.27,0-2.34.44-3.21,1.34-.88.91-1.33,2.01-1.33,3.32s.46,2.4,1.38,3.31c.91.91,2.01,1.37,3.3,1.37h0ZM219.66,85.61c.92,0,1.7.28,2.34.85.64.56,1.01,1.28,1.11,2.17l-6.93.6c0-1.03.34-1.89,1.01-2.59.66-.69,1.48-1.03,2.47-1.03h0ZM234.76,85.72c.08-.07.08-.14,0-.21-.04-.04-.07-.06-.09-.08-.08-.07-.16-.12-.24-.18-.11-.07-.22-.14-.34-.21-.32-.17-.66-.3-1.01-.38-.25-.05-.47-.08-.66-.09h-.35s-.1,0-.17.01h-.09s-.11.01-.11.01c-.3.04-.57.11-.79.2-.31.13-.58.3-.8.51-.24.24-.41.54-.5.89l-.03.13-.02.13c-.01.1-.02.18-.02.25v.13s-.01.09-.01.09v.05s.01.09.01.09l.02.15c.01.08.04.18.08.29,0,.04.02.08.04.13l.07.13c.03.07.08.15.14.25l.09.11s.06.08.09.11c.21.23.48.44.8.63.21.13.5.27.85.43l.11.04.09.04.2.09.42.18c.63.3,1.06.59,1.31.87.14.17.24.36.28.57v.08s.02.07.02.09v.12s.01,0,.01-.02v.05s-.01.11-.01.11c0,.04,0,.08-.01.09v.07s-.02.08-.02.08c-.08.41-.31.72-.7.91-.16.09-.35.15-.58.21-.24.04-.45.05-.62.05h-.08s-.07.01-.07.01h-.16s-.1-.01-.15-.02h-.13c-.14-.04-.31-.07-.5-.12-.26-.07-.51-.18-.75-.31-.1-.06-.2-.12-.28-.18-.07-.04-.12-.09-.17-.14-.07-.06-.14-.05-.21.01l-.51.5c-.08.08-.08.15,0,.22.08.07.17.13.26.21.12.09.26.18.41.26.31.18.64.32.99.42.24.06.46.1.66.13h.09s.09.01.09.01c.07,0,.13.01.17.01h.16s.21.01.21.01c.22,0,.49-.04.79-.09.31-.07.6-.16.84-.29.31-.16.57-.37.77-.63.21-.28.36-.6.43-.96l.02-.14.02-.14s0-.08.01-.12v-.39s-.01-.08-.02-.14l-.03-.14c-.07-.37-.24-.69-.5-.99-.2-.24-.47-.47-.79-.67-.23-.14-.51-.3-.85-.45l-.41-.17-.21-.09-.12-.05-.11-.04c-.31-.14-.57-.27-.75-.38-.24-.14-.43-.29-.57-.44l-.05-.07-.05-.07-.04-.07-.03-.07-.03-.07-.02-.07-.02-.08s-.01-.04-.01-.05l-.02-.07v-.18s-.01-.01-.01-.01v.02-.09s.01-.09.02-.16v-.08s.04-.08.04-.08c.05-.2.14-.35.27-.47.11-.13.27-.23.46-.3.15-.07.34-.11.57-.14h.07s.07-.01.07-.01c.06,0,.11-.01.16-.01h.28c.14,0,.3.03.5.07.27.06.52.15.76.28.09.04.17.09.26.16.07.04.14.09.21.15.07.05.14.05.2-.01l.44-.44-.02.02ZM244.84,93.94c.81,0,1.57-.2,2.27-.59.71-.4,1.28-.93,1.71-1.61.05-.09.03-.16-.05-.21l-.62-.35c-.09-.05-.15-.03-.21.05-.34.53-.77.95-1.33,1.25-.55.31-1.14.46-1.77.46-.83,0-1.58-.25-2.24-.76-.64-.5-1.08-1.14-1.29-1.92l7.72-.68c.09,0,.13-.05.13-.14v-.24c0-1.25-.43-2.33-1.3-3.22-.88-.91-1.93-1.36-3.16-1.37-1.27,0-2.34.44-3.21,1.34-.88.91-1.33,2.01-1.33,3.32s.46,2.4,1.38,3.31c.91.91,2.01,1.37,3.3,1.37h0ZM244.67,85.61c.92,0,1.7.28,2.34.85.64.56,1.01,1.28,1.11,2.17l-6.93.6c0-1.03.34-1.89,1.01-2.59.66-.69,1.48-1.03,2.47-1.03h0ZM262.5,93.44c0-.63,0-1.42-.01-2.37v-2.76c0-.14-.02-.27-.03-.38-.03-.27-.09-.52-.17-.77-.17-.52-.45-.98-.84-1.38-.38-.4-.83-.69-1.35-.88-.24-.09-.5-.16-.76-.2h-.09s-.11-.02-.11-.02h-.09s-.38-.01-.38-.01h-.09c-.5.05-.96.18-1.41.4-.38.21-.73.47-1.03.79l-.07.09v-1.22c0-.1-.05-.15-.15-.15h-.72c-.09,0-.14.05-.14.15v9.07c0,.1.05.15.14.15h.72c.1,0,.15-.05.15-.15v-5.46s.01-.16.01-.16v-.08s.02-.09.02-.09c0-.08.02-.16.03-.24.05-.2.12-.4.21-.6.12-.25.28-.48.46-.68.22-.24.49-.44.79-.59.32-.17.67-.26,1.04-.28h.43s.07.02.07.02h.08c.2.04.39.09.57.15.38.15.72.37.99.66.28.3.49.63.62,1.02.07.18.11.38.13.57,0,.09.01.18.01.29v.33c0,.38,0,.81-.01,1.27v1.15c0,.95,0,1.73-.01,2.37v.35c0,.1.05.15.15.15h.72c.1,0,.15-.05.15-.15v-.35h0ZM274.73,92.45c-.05-.08-.11-.09-.2-.04-.6.37-1.24.55-1.93.55-1.04,0-1.92-.37-2.64-1.12-.72-.75-1.06-1.65-1.02-2.69.04-.96.4-1.78,1.09-2.46.69-.69,1.52-1.04,2.48-1.06.72-.01,1.4.17,2.01.55.08.05.15.04.21-.04l.4-.59c.06-.09.04-.16-.04-.21-.94-.6-1.97-.82-3.09-.68-1.08.14-1.99.6-2.76,1.38-.76.79-1.19,1.73-1.29,2.82-.11,1.26.22,2.38,1,3.37.77.97,1.77,1.54,2.99,1.71v1.03c0,.1.05.15.15.15h.37c.13,0,.23.05.31.15.08.1.1.21.07.34-.04.15-.12.24-.27.28-.11.03-.22.02-.31-.03-.09-.06-.15-.14-.18-.24-.02-.07-.07-.11-.14-.11h-.73c-.11,0-.17.05-.15.16.05.4.24.72.56.97.34.25.72.34,1.13.26.27-.06.51-.19.71-.38.21-.2.34-.44.38-.71.08-.35.03-.68-.15-.99-.17-.3-.41-.5-.72-.62v-.22c.77-.05,1.49-.28,2.15-.7.09-.06.1-.13.04-.21l-.41-.59h0ZM287,93.95c.11,0,.17-.06.15-.17-.08-.62-.14-1.21-.18-1.76-.07-.77-.09-1.43-.09-2,0-.18,0-.4.01-.64v-1.05c0-.4-.04-.74-.09-1.04-.12-.77-.4-1.38-.82-1.82-.56-.57-1.38-.86-2.46-.86-.76,0-1.46.15-2.11.44-.23.11-.44.23-.64.37-.08.06-.15.11-.22.17-.06.04-.11.09-.16.13-.08.07-.08.15,0,.22l.54.49c.07.06.13.06.2,0,.04-.03.08-.06.12-.09.06-.04.11-.08.17-.12.16-.1.33-.19.5-.27.49-.21,1.02-.31,1.61-.31.79,0,1.37.18,1.73.55.4.41.61,1.16.62,2.26h-.16c-.17-.02-.3-.04-.41-.04-.17-.01-.33-.02-.49-.02-.4-.01-.78-.01-1.16.01-.52.04-.99.11-1.4.21-.62.16-1.13.4-1.51.71-.27.21-.48.47-.62.75-.15.28-.24.6-.27.96-.04.76.11,1.38.46,1.88.21.28.47.5.79.68.27.14.57.25.92.31.62.1,1.21.09,1.77-.04.58-.14,1.08-.39,1.5-.74.25-.2.48-.44.68-.72.04.45.08.93.15,1.45.01.09.07.13.15.13h.72v-.02ZM284.71,92.35c-.33.25-.71.43-1.14.53-.42.09-.88.09-1.37.01-.5-.09-.85-.29-1.06-.59-.22-.3-.33-.71-.31-1.22.02-.43.2-.77.51-1.04.27-.22.65-.4,1.14-.51.36-.09.77-.14,1.22-.17.35-.02.72-.03,1.09-.02.26,0,.54.02.84.05.07,0,.15.01.22.02v.63s0,.33,0,.33l-.05.21c-.09.35-.21.66-.37.93-.2.36-.44.65-.73.87h0ZM309.25,78.69c0-.1-.05-.15-.15-.15h-.72c-.09,0-.14.05-.14.15v7.68c-.44-.55-.97-.98-1.6-1.29-.64-.33-1.33-.49-2.06-.49-1.28,0-2.38.46-3.3,1.38-.91.91-1.37,2.01-1.37,3.3s.46,2.38,1.37,3.3c.92.91,2.02,1.37,3.3,1.37.73,0,1.42-.16,2.06-.49.63-.31,1.17-.74,1.6-1.29v1.62c0,.1.05.15.14.15h.72c.1,0,.15-.05.15-.15v-15.1h0ZM301.99,91.86c-.72-.72-1.08-1.58-1.08-2.58s.36-1.88,1.08-2.59c.72-.72,1.58-1.08,2.58-1.08s1.88.36,2.59,1.08,1.08,1.58,1.08,2.59-.36,1.86-1.08,2.58-1.58,1.08-2.59,1.08-1.86-.36-2.58-1.08h0ZM316.89,81.64c0-.2-.07-.37-.21-.51-.14-.14-.31-.21-.51-.21s-.38.07-.51.21c-.14.14-.21.31-.21.51s.07.37.21.51c.14.14.31.21.51.21s.37-.07.51-.21.21-.31.21-.51ZM316.51,93.95c.1,0,.15-.05.15-.15v-9.02c0-.1-.05-.15-.15-.15h-.72c-.09,0-.14.05-.14.15v9.02c0,.1.05.15.14.15h.72ZM327.06,98.96c1.29,0,2.4-.46,3.31-1.38s1.38-2.02,1.38-3.31v-9.51c0-.1-.05-.15-.15-.15h-.72c-.09,0-.14.05-.14.15v1.67c-.13-.17-.27-.33-.42-.47-.92-.92-2.02-1.38-3.31-1.38s-2.4.46-3.32,1.38c-.91.92-1.37,2.02-1.37,3.32s.46,2.4,1.37,3.31c.92.92,2.02,1.38,3.32,1.38s2.4-.46,3.31-1.38c.15-.15.29-.31.42-.47v2.05c0,.85-.25,1.6-.75,2.28-.5.69-1.15,1.14-1.96,1.35-.79.21-1.56.17-2.32-.13-.75-.3-1.33-.77-1.75-1.45-.05-.09-.12-.11-.2-.05l-.62.37c-.09.05-.11.12-.05.21.43.69,1,1.23,1.71,1.62.71.4,1.47.59,2.28.59M327.01,85.61c1.01,0,1.88.36,2.59,1.08s1.08,1.59,1.08,2.6-.36,1.88-1.08,2.59-1.58,1.08-2.59,1.08-1.88-.36-2.6-1.08c-.72-.72-1.08-1.58-1.08-2.59s.36-1.89,1.08-2.6c.72-.72,1.59-1.08,2.6-1.08ZM339.04,81.64c0-.2-.07-.37-.21-.51-.14-.14-.31-.21-.51-.21s-.38.07-.51.21c-.14.14-.21.31-.21.51s.07.37.21.51c.14.14.31.21.51.21s.37-.07.51-.21.21-.31.21-.51ZM338.66,93.95c.1,0,.15-.05.15-.15v-9.02c0-.1-.05-.15-.15-.15h-.72c-.09,0-.14.05-.14.15v9.02c0,.1.05.15.14.15h.72ZM349.83,92.69c-.05-.07-.12-.08-.21-.03-.48.31-.92.37-1.33.16-.45-.23-.67-.68-.67-1.34v-5.85h1.47c.1,0,.15-.05.15-.15v-.72c0-.1-.05-.15-.15-.15h-1.47v-2.66c0-.1-.05-.15-.15-.15h-.72c-.1,0-.15.05-.15.15v2.66s-1.29,0-1.29,0c-.1,0-.15.05-.15.15v.72c0,.1.05.15.15.15h1.3v5.85c0,.51.11.96.32,1.37.22.4.53.69.91.88.3.15.61.22.95.22.5,0,.98-.16,1.44-.47.09-.05.09-.12.03-.21l-.43-.58ZM361.66,93.95c.11,0,.17-.06.15-.17-.08-.62-.14-1.21-.18-1.76-.07-.77-.09-1.43-.09-2,0-.18,0-.4.01-.64v-1.05c0-.4-.04-.74-.09-1.04-.12-.77-.4-1.38-.82-1.82-.56-.57-1.38-.86-2.46-.86-.76,0-1.46.15-2.11.44-.23.11-.44.23-.64.37-.08.06-.15.11-.22.17-.06.04-.11.09-.16.13-.08.07-.08.15,0,.22l.54.49c.07.06.13.06.2,0,.04-.03.08-.06.12-.09.06-.04.11-.08.17-.12.16-.1.33-.19.5-.27.49-.21,1.02-.31,1.61-.31.79,0,1.37.18,1.73.55.4.41.61,1.16.62,2.26h-.16c-.17-.02-.3-.04-.41-.04-.17-.01-.33-.02-.49-.02-.4-.01-.78-.01-1.16.01-.52.04-.99.11-1.4.21-.62.16-1.13.4-1.51.71-.27.21-.48.47-.62.75-.15.28-.24.6-.27.96-.04.76.11,1.38.46,1.88.21.28.47.5.79.68.27.14.57.25.92.31.62.1,1.21.09,1.77-.04.58-.14,1.08-.39,1.5-.74.25-.2.48-.44.68-.72.04.45.09.93.15,1.45.01.09.07.13.15.13h.72v-.02ZM359.37,92.35c-.33.25-.71.43-1.14.53-.42.09-.88.09-1.37.01-.5-.09-.85-.29-1.06-.59-.22-.3-.33-.71-.31-1.22.02-.43.2-.77.51-1.04.27-.22.65-.4,1.14-.51.36-.09.77-.14,1.22-.17.35-.02.72-.03,1.09-.02.26,0,.54.02.84.05.07,0,.15.01.22.02v.63s0,.33,0,.33l-.05.21c-.09.35-.21.66-.37.93-.2.36-.44.65-.73.87h0ZM369.06,93.95c.09,0,.14-.05.14-.15v-15.13c0-.09-.05-.14-.14-.14h-.72c-.1,0-.15.05-.15.14v15.13c0,.1.05.15.15.15h.72Z"/>
      <g>
        <circle class="cls-2" cx="5.8" cy="81.16" r="5.8"/>
        <polygon class="cls-2" points="25.89 63.76 25.29 75.35 96.28 55.18 69.36 33.55 94.33 0 44.91 13.99 45.79 2.38 2.61 14.84 0 71.15 25.89 63.76"/>
      </g>
    </g>
  </g>
</svg>