<svg xmlns="http://www.w3.org/2000/svg" xmlns:xlink="http://www.w3.org/1999/xlink" width="195" height="74.022" viewBox="0 0 195 74.022"><defs><style>.a{fill:none;}.b{fill:#fff;}.c{clip-path:url(#a);}.d{fill:url(#b);}.e{clip-path:url(#c);}.f{fill:url(#d);}.g{clip-path:url(#e);}.h{fill:url(#f);}.i{clip-path:url(#g);}.j{fill:url(#h);}.k{clip-path:url(#i);}.l{fill:url(#j);}</style><clipPath id="a"><path class="a" d="M1713.264-162.938c-9.886,3.175-6.881,12.529,1.354,12.184,14.112-.59,15.87,6.931,16.007,11.981.282,10.294-13.407,13.922-21.58,16.286-21.621,4.2-23.467-6.04-24.258-9.719-.527-7.093,16.348-12.346,16.215-20.358-.527-9.456-10.573-5.042-15.293,0-11.571,12.364-13.711,58.84,14.369,62.912,5.943.861,2.109-10.494,2.109-13.134,0-9.982,11.075-11.558,16.876-13.921,24.652-10.048,25.2-26.486,22.147-34.411-3.664-9.531-12.689-12.509-20.966-12.509a36.107,36.107,0,0,0-6.982.689" transform="translate(-1677.662 163.627)"/></clipPath><linearGradient id="b" x1="-18.278" y1="41.303" x2="-18.267" y2="41.303" gradientUnits="objectBoundingBox"><stop offset="0" stop-color="#105294"/><stop offset="0.004" stop-color="#105294"/><stop offset="0.354" stop-color="#3c6db4"/><stop offset="0.42" stop-color="#3b76ba"/><stop offset="0.642" stop-color="#388fce"/><stop offset="0.842" stop-color="#379fd9"/><stop offset="1" stop-color="#37a5de"/></linearGradient><clipPath id="c"><path class="a" d="M1688.4-133.507a6.9,6.9,0,0,0,6.9,6.9,6.9,6.9,0,0,0,6.9-6.9,6.9,6.9,0,0,0-6.9-6.9,6.894,6.894,0,0,0-6.9,6.9" transform="translate(-1688.403 140.402)"/></clipPath><linearGradient id="d" x1="-98.593" y1="214.784" x2="-98.534" y2="214.784" gradientUnits="objectBoundingBox"><stop offset="0" stop-color="#105294"/><stop offset="0.004" stop-color="#105294"/><stop offset="0.373" stop-color="#3c6db4"/><stop offset="0.436" stop-color="#3b76ba"/><stop offset="0.652" stop-color="#388fce"/><stop offset="0.846" stop-color="#379fd9"/><stop offset="1" stop-color="#37a5de"/></linearGradient><clipPath id="e"><path class="a" d="M1685.186-153.07c-.4,1.535-.774,3.067-1.071,4.613-.163.877-.324,1.753-.443,2.635-.051.441-.128.879-.171,1.322s-.09.884-.125,1.326l-.088,1.328-.027,1.331c0,.885.023,1.772.1,2.658a29.337,29.337,0,0,0,.859,5.076c-.219-7.024,16.353-12.275,16.222-20.246-.226-4.067-2.2-5.577-4.754-5.578-3.389,0-7.8,2.66-10.5,5.537" transform="translate(-1683.261 158.607)"/></clipPath><linearGradient id="f" x1="-57.957" y1="139.742" x2="-57.922" y2="139.742" gradientUnits="objectBoundingBox"><stop offset="0" stop-color="#29885e"/><stop offset="0.535" stop-color="#77be82"/><stop offset="1" stop-color="#98c774"/></linearGradient><clipPath id="g"><path class="a" d="M1710.57-162.936c-9.886,3.187-6.881,12.576,1.354,12.23,14.112-.592,15.87,6.957,16.007,12.026a10.862,10.862,0,0,1-4.158,8.759c1.228-.714,2.438-1.457,3.611-2.251,1.083-.741,2.147-1.509,3.154-2.345a29.03,29.03,0,0,0,2.866-2.665,21.509,21.509,0,0,0,2.422-3.051,17.169,17.169,0,0,0,1.756-3.466,15.664,15.664,0,0,0,.876-3.794,18.38,18.38,0,0,0-.014-3.764c-3.709-9.418-12.672-12.37-20.894-12.37a35.962,35.962,0,0,0-6.98.69" transform="translate(-1704.355 163.626)"/></clipPath><linearGradient id="h" x1="-37.739" y1="81.564" x2="-37.717" y2="81.564" gradientUnits="objectBoundingBox"><stop offset="0" stop-color="#eb5751"/><stop offset="0.545" stop-color="#f28f31"/><stop offset="1" stop-color="#f8ac4f"/></linearGradient><clipPath id="i"><path class="a" d="M1705.728-116.425l-.663.219c-.22.077-.435.167-.652.251l-1.3.5-1.274.557c-.429.175-.841.388-1.256.591s-.837.394-1.232.635-.81.443-1.209.676l-1.169.739c-.388.249-.757.524-1.137.785-.194.129-.373.271-.553.415l-.544.426-.274.212-.26.226-.524.454c-.086.076-.176.149-.259.229l-.249.24-.5.477c-.328.325-.635.669-.952,1.005-.294.353-.611.695-.88,1.069a24.749,24.749,0,0,0-3.532,7.182l-.016.041a22.241,22.241,0,0,0,11.816,5.411c5.943.864,2.109-10.534,2.109-13.184,0-4.806,2.548-7.668,5.838-9.611q-.664.238-1.327.459" transform="translate(-1687.291 116.884)"/></clipPath><linearGradient id="j" x1="-81.061" y1="156.81" x2="-81.012" y2="156.81" xlink:href="#f"/></defs><g transform="translate(-1677.662 163.627)"><path class="b" d="M1742.894-142.716h6.457a8.669,8.669,0,0,1,2.565.354,5.648,5.648,0,0,1,1.963,1.029,4.529,4.529,0,0,1,1.254,1.652,5.337,5.337,0,0,1,.44,2.221v.043a5.434,5.434,0,0,1-.482,2.349,4.782,4.782,0,0,1-1.341,1.705,5.83,5.83,0,0,1-2.038,1.029,9.19,9.19,0,0,1-2.575.343h-2.081v4.29h-4.163Zm6.157,7.466a2.632,2.632,0,0,0,1.737-.536,1.777,1.777,0,0,0,.644-1.438v-.043a1.723,1.723,0,0,0-.644-1.459,2.823,2.823,0,0,0-1.759-.493h-1.973v3.969Z" transform="translate(6.294 2.002)"/><path class="b" d="M1759.847-142.813h4.012l6.394,15.126h-4.463l-1.072-2.7H1758.9l-1.073,2.7h-4.355Zm3.647,9.183-1.673-4.247-1.7,4.247Z" transform="translate(7.308 1.992)"/><path class="b" d="M1769.553-142.716h7.1a8.8,8.8,0,0,1,2.939.429,5.166,5.166,0,0,1,1.952,1.18,4.725,4.725,0,0,1,1.331,3.5v.043a4.767,4.767,0,0,1-.838,2.886,5.246,5.246,0,0,1-2.253,1.748l3.584,5.235h-4.785l-3.025-4.548h-1.845v4.548h-4.161Zm6.929,7.209a2.525,2.525,0,0,0,1.641-.482,1.594,1.594,0,0,0,.59-1.3v-.043a1.571,1.571,0,0,0-.611-1.351,2.707,2.707,0,0,0-1.641-.45h-2.747v3.625Z" transform="translate(8.864 2.002)"/><path class="b" d="M1796.918-127.221l-1.651-1.48a7.74,7.74,0,0,1-2.124.986,8.569,8.569,0,0,1-2.446.343,8.35,8.35,0,0,1-3.218-.61,7.935,7.935,0,0,1-2.553-1.663,7.668,7.668,0,0,1-1.684-2.467,7.53,7.53,0,0,1-.612-3.025v-.044a7.607,7.607,0,0,1,.612-3.034,7.612,7.612,0,0,1,1.705-2.489,8.084,8.084,0,0,1,2.575-1.673,8.352,8.352,0,0,1,3.218-.612,8.356,8.356,0,0,1,3.218.612,7.943,7.943,0,0,1,2.553,1.662,7.661,7.661,0,0,1,1.684,2.468,7.55,7.55,0,0,1,.611,3.025v.041a7.329,7.329,0,0,1-.353,2.287,8.4,8.4,0,0,1-.977,2.027l1.545,1.308Zm-6.178-3.84a4.168,4.168,0,0,0,1.5-.279l-2.081-1.78,2.1-2.359,2.039,1.866a4.357,4.357,0,0,0,.258-1.5v-.044a4.377,4.377,0,0,0-.28-1.554,3.962,3.962,0,0,0-.794-1.3,3.932,3.932,0,0,0-1.223-.89,3.624,3.624,0,0,0-1.565-.332,3.63,3.63,0,0,0-1.567.332,3.692,3.692,0,0,0-1.2.89,4.167,4.167,0,0,0-.772,1.288,4.265,4.265,0,0,0-.28,1.544v.044a4.343,4.343,0,0,0,.28,1.556,4,4,0,0,0,.783,1.3,3.78,3.78,0,0,0,1.212.891,3.675,3.675,0,0,0,1.588.331" transform="translate(10.119 1.974)"/><path class="b" d="M1805.558-127.419a9.524,9.524,0,0,1-2.875-.407,5.621,5.621,0,0,1-2.189-1.255,5.544,5.544,0,0,1-1.384-2.146,8.769,8.769,0,0,1-.482-3.057v-8.432h4.2v8.346a3.375,3.375,0,0,0,.751,2.413,2.661,2.661,0,0,0,2.017.784,2.754,2.754,0,0,0,2.039-.751,3.2,3.2,0,0,0,.751-2.339v-8.453h4.2v8.325a8.743,8.743,0,0,1-.5,3.121,5.755,5.755,0,0,1-1.416,2.178,5.631,5.631,0,0,1-2.21,1.266,9.715,9.715,0,0,1-2.907.407" transform="translate(11.669 2.001)"/><path class="b" d="M1813.069-142.716h12.079v3.519h-7.96v2.3h7.209v3.283h-7.209v2.381h8.067v3.54h-12.186Z" transform="translate(13.067 2.002)"/><path class="b" d="M1742.894-124.465h12.079v3.519h-7.96v2.3h7.209v3.283h-7.209v2.381h8.067v3.541h-12.186Z" transform="translate(6.295 3.749)"/><path class="b" d="M1761.428-109.166a11.619,11.619,0,0,1-3.819-.622,9.534,9.534,0,0,1-3.218-1.867l2.318-2.768a7.756,7.756,0,0,0,4.871,1.8,2.55,2.55,0,0,0,1.3-.266.848.848,0,0,0,.439-.763v-.042a.877.877,0,0,0-.107-.43.981.981,0,0,0-.4-.353,4.547,4.547,0,0,0-.783-.323q-.494-.16-1.266-.352c-.8-.187-1.544-.39-2.23-.613a6.756,6.756,0,0,1-1.792-.858,3.9,3.9,0,0,1-1.2-1.3,3.847,3.847,0,0,1-.44-1.93v-.044a4.633,4.633,0,0,1,.4-1.93,4.27,4.27,0,0,1,1.158-1.524,5.421,5.421,0,0,1,1.835-1,7.691,7.691,0,0,1,2.424-.354,10.837,10.837,0,0,1,3.443.505,8.655,8.655,0,0,1,2.736,1.491l-2.081,2.938a7.864,7.864,0,0,0-2.114-1.115,6.569,6.569,0,0,0-2.092-.366,1.932,1.932,0,0,0-1.126.27.822.822,0,0,0-.375.7v.043a.847.847,0,0,0,.118.451,1.063,1.063,0,0,0,.407.353,4.343,4.343,0,0,0,.795.321q.5.162,1.3.332a18.156,18.156,0,0,1,2.318.655,6.986,6.986,0,0,1,1.759.913,3.649,3.649,0,0,1,1.116,1.3,3.977,3.977,0,0,1,.385,1.813v.044a4.636,4.636,0,0,1-.439,2.058,4.389,4.389,0,0,1-1.234,1.535,5.6,5.6,0,0,1-1.909.967,8.714,8.714,0,0,1-2.489.331" transform="translate(7.403 3.725)"/><path class="b" d="M1767.644-124.465h6.457a8.667,8.667,0,0,1,2.565.354,5.634,5.634,0,0,1,1.962,1.029,4.544,4.544,0,0,1,1.256,1.652,5.355,5.355,0,0,1,.439,2.221v.043a5.436,5.436,0,0,1-.482,2.349,4.781,4.781,0,0,1-1.341,1.705,5.812,5.812,0,0,1-2.038,1.029,9.192,9.192,0,0,1-2.575.343h-2.081v4.291h-4.163ZM1773.8-117a2.626,2.626,0,0,0,1.737-.536,1.776,1.776,0,0,0,.644-1.438v-.043a1.724,1.724,0,0,0-.644-1.459,2.823,2.823,0,0,0-1.759-.493h-1.973V-117Z" transform="translate(8.683 3.749)"/><path class="b" d="M1787.891-109.119a8.348,8.348,0,0,1-3.218-.611,7.915,7.915,0,0,1-2.553-1.662,7.675,7.675,0,0,1-1.684-2.467,7.54,7.54,0,0,1-.612-3.025v-.043a7.612,7.612,0,0,1,.612-3.036,7.605,7.605,0,0,1,1.705-2.488,8.066,8.066,0,0,1,2.575-1.673,8.328,8.328,0,0,1,3.218-.612,8.336,8.336,0,0,1,3.218.612,7.922,7.922,0,0,1,2.553,1.662,7.663,7.663,0,0,1,1.684,2.467,7.554,7.554,0,0,1,.611,3.025v.043a7.628,7.628,0,0,1-.611,3.035,7.609,7.609,0,0,1-1.705,2.489,8.1,8.1,0,0,1-2.575,1.673,8.351,8.351,0,0,1-3.218.611m.043-3.754a3.671,3.671,0,0,0,1.556-.321,3.638,3.638,0,0,0,1.19-.87,4.025,4.025,0,0,0,.773-1.276,4.309,4.309,0,0,0,.279-1.545v-.043a4.395,4.395,0,0,0-.279-1.556,4.032,4.032,0,0,0-.784-1.3,3.639,3.639,0,0,0-1.212-.88,3.735,3.735,0,0,0-1.566-.321,3.74,3.74,0,0,0-1.567.321,3.606,3.606,0,0,0-1.2.869,4.032,4.032,0,0,0-.773,1.277,4.281,4.281,0,0,0-.279,1.545v.043a4.285,4.285,0,0,0,.279,1.545,3.962,3.962,0,0,0,.794,1.287,3.9,3.9,0,0,0,1.223.891,3.646,3.646,0,0,0,1.567.332" transform="translate(9.849 3.721)"/><path class="b" d="M1795.979-124.465h7.1a8.8,8.8,0,0,1,2.939.429,5.178,5.178,0,0,1,1.953,1.18,4.728,4.728,0,0,1,1.33,3.5v.043a4.773,4.773,0,0,1-.837,2.886,5.255,5.255,0,0,1-2.254,1.748l3.583,5.236h-4.785L1801.986-114h-1.845v4.549h-4.161Zm6.929,7.209a2.526,2.526,0,0,0,1.642-.482,1.594,1.594,0,0,0,.59-1.3v-.042a1.571,1.571,0,0,0-.611-1.352,2.709,2.709,0,0,0-1.643-.45h-2.746v3.625Z" transform="translate(11.413 3.749)"/><path class="b" d="M1813.246-120.818h-4.484v-3.647h13.152v3.647h-4.5v11.372h-4.163Z" transform="translate(12.649 3.749)"/><rect class="b" width="4.163" height="15.019" transform="translate(1835.802 -120.716)"/><path class="b" d="M1826.691-124.465h4.634l3.412,9.5,3.433-9.5h4.549l-6.094,15.126h-3.862Z" transform="translate(14.304 3.749)"/><path class="b" d="M1848.828-109.119a8.35,8.35,0,0,1-3.218-.611,7.914,7.914,0,0,1-2.553-1.662,7.675,7.675,0,0,1-1.684-2.467,7.54,7.54,0,0,1-.612-3.025v-.043a7.612,7.612,0,0,1,.612-3.036,7.6,7.6,0,0,1,1.705-2.488,8.066,8.066,0,0,1,2.575-1.673,8.328,8.328,0,0,1,3.218-.612,8.334,8.334,0,0,1,3.218.612,7.922,7.922,0,0,1,2.553,1.662,7.663,7.663,0,0,1,1.684,2.467,7.554,7.554,0,0,1,.611,3.025v.043a7.628,7.628,0,0,1-.611,3.035,7.609,7.609,0,0,1-1.705,2.489,8.1,8.1,0,0,1-2.575,1.673,8.351,8.351,0,0,1-3.218.611m.043-3.754a3.672,3.672,0,0,0,1.556-.321,3.64,3.64,0,0,0,1.19-.87,4.024,4.024,0,0,0,.773-1.276,4.282,4.282,0,0,0,.279-1.545v-.043a4.368,4.368,0,0,0-.279-1.556,4.032,4.032,0,0,0-.784-1.3,3.641,3.641,0,0,0-1.212-.88,3.735,3.735,0,0,0-1.566-.321,3.74,3.74,0,0,0-1.567.321,3.608,3.608,0,0,0-1.2.869,4.009,4.009,0,0,0-.772,1.277,4.255,4.255,0,0,0-.28,1.545v.043a4.26,4.26,0,0,0,.28,1.545,3.959,3.959,0,0,0,.792,1.287,3.9,3.9,0,0,0,1.223.891,3.647,3.647,0,0,0,1.567.332" transform="translate(15.724 3.721)"/><g transform="translate(1677.662 -163.627)"><g class="c"><path class="d" d="M0,0,98.741.146l.144,97.641L.144,97.641Z" transform="matrix(0.434, -0.901, 0.901, 0.434, -35.043, 60.729)"/></g></g><g transform="translate(1689.487 -138.176)"><g class="e"><rect class="f" width="18.614" height="18.614" transform="matrix(0.464, -0.886, 0.886, 0.464, -5.666, 10.824)"/></g></g><g transform="translate(1683.826 -158.1)"><g class="g"><rect class="h" width="31.085" height="28.582" transform="translate(-11.797 18.163) rotate(-56.997)"/></g></g><g transform="translate(1706.915 -163.626)"><g class="i"><rect class="j" width="50.239" height="49.073" transform="matrix(0.832, -0.555, 0.555, 0.832, -19.227, 10.372)"/></g></g><g transform="translate(1688.263 -112.446)"><g class="k"><rect class="l" width="22.866" height="26.181" transform="translate(-3.262 0.459) rotate(-8.005)"/></g></g></g></svg>