<svg xmlns="http://www.w3.org/2000/svg" width="90.75" height="90.75" viewBox="0 0 90.75 90.75"><defs><style>.a{fill:#85b653;}</style></defs><path class="a" d="M25.189,72.238a7.54,7.54,0,0,0,.913.877l.53.448c.345.29.7.562,1.161.892l.573.391c.371.244.751.478,1.281.776l.6.318c.2.106.414.209.718.347l3.5,1.242c.235.058.47.113.887.2l.727.143c.238.043.478.082.723.12a4.984,4.984,0,0,0,.788.052,3.778,3.778,0,0,0,3.782-3.386c.033-.168.061-.335.088-.526.031-.25.051-.511.063-.785l.011-.522a20.824,20.824,0,0,0-.205-2.65l-.766-4.47a3.19,3.19,0,0,1-.037-.4l.125-1.594-.3-.06.031-.176H40.4l.053-.283.021,0,.061-.281.025,0,.084-.349.067.005.189-.585.011,0,.112-.252.021.007.12-.243.006,0,.137-.25.029.012.14-.241.018.008.23-.319h0l.165-.228.257.149.2-.171a20.634,20.634,0,0,1,3.139-2.2l.017-.013a38.815,38.815,0,0,1,5.135-1.985c1.037-.347,2.015-.674,2.871-1.024C72.9,47.318,76.2,33.93,73.141,24.877a1.712,1.712,0,0,0-.18-.335,1.625,1.625,0,0,0-.106-.478c-3.817-9.645-13.178-11.256-18.422-11.358l-.459-.005-1.692.041c-.017,0-.147.007-.278.016l-1.142.087c-.035,0-.231.026-.282.03l-1.089.136s-.308.038-.428.062l0-.009-.663.114,0-.008-.289.057v0l-.6.127c-5.391,1.738-6.753,5.423-6.282,8.051.51,2.854,3.452,5.66,8.011,5.5,3.508-.155,6.253.332,8.153,1.448.139.082.274.165.415.263a6.071,6.071,0,0,1,.527.4c.11.094.219.192.441.4l.284.315a5.872,5.872,0,0,1,.45.6l.213.349c.093.169.179.342.258.509a7.321,7.321,0,0,1,.278.7c.084.244.151.489.21.733a12.744,12.744,0,0,1,.317,2.6l-.044,1.052L60.547,37.3c-.011.032-.113.357-.121.388l-.087.331.263.1-.04.123-.036-.007-.1.283-.3-.082-.49.871.208.128-.071.056.058.075-.028.047-.071-.089-.046.035-.18-.083-.358.462-.005,0-.189.227a1.754,1.754,0,0,0-.3.546l-.266.136a3.534,3.534,0,0,0-.484.36c-3.392,2.937-9.075,4.583-13.246,5.791l-.478.144a40.076,40.076,0,0,1-6.511.794A7.458,7.458,0,0,0,33.955,34h0A7.417,7.417,0,0,0,31,34.616L31.787,34a43.765,43.765,0,0,0,4.085-3.426,2.194,2.194,0,0,0,.271-.229l.174-.181c.029-.025.207-.209.312-.317l.861-.964-.251-.215.02-.033.32.134.826-1.2.215-.376.19-.332-.017-.009c.02-.04.183-.393.188-.412l.075-.188c.033-.086.065-.166.07-.182l.254-.788-.338-.09.323-.019.07-.261c.006-.024.065-.378.064-.411l.036-.449,0-.507-.125-1.154c0-.032-.079-.431-.085-.453s-.066-.255-.072-.255a2.656,2.656,0,0,0-.12-.47l-.09-.266c-.016-.043-.135-.352-.146-.377s-.156-.346-.165-.36l-.442-.73-.106-.146-.224-.276c-.011-.013-.172-.188-.195-.211s-.222-.216-.246-.237l-.238-.206.013-.024-.542-.332c-.024-.015-.161-.09-.3-.165l-.14-.065-.1-.042a4.019,4.019,0,0,0-.4-.159l-.318-.1c-.021-.007-.107-.028-.193-.048l-.518-.1c-.012,0-.2-.026-.355-.043-.017,0-.348-.025-.328-.015-.038,0-.319,0-.5,0-.019,0-.119.005-.219.012l-.174.01c-.011,0-.1.009-.194.02l-.1.013c-.094,0-.672.1-.688.108l-.414.088a.772.772,0,0,0-.174.056h-.435l.018.122a.688.688,0,0,0-.25.066l-.122.043a2.876,2.876,0,0,0-.305.106l.133.351-.234-.313c-.082.03-.191.072-.214.083l-.262.108c-.02.006-.114.046-.2.086l-.115.05c-.02.007-.215.095-.4.183-.011.005-.1.045-.18.087l-.433.223-.006-.007L28.289,19v0l-.491.283-.349.242c-.148.083-.41.245-.483.294l-.4.29a1.117,1.117,0,0,0-.245.163l-.888.693c-.4.331-.792.686-1.167,1.059l-.252.255-.008-.005-.239.255,0,.006-.256.284a1.686,1.686,0,0,0-.311.56,1.7,1.7,0,0,0-.5.453C15.2,33.958,13.231,60.18,25.074,72.143,25.109,72.178,25.151,72.206,25.189,72.238ZM32.58,20.6l.16-.047,0,.009.342-.073.107.3.3-.03c.033,0,.2-.016.221-.017l.376.006.682.133.33.2.46.481.365.853.251-.069.05.144-.008,0,.082.3-.033.013.069.259-.276.1.019.942-.133.675h-.008l-.379.878.242.143-.06.128-.02-.007-.121.235-.288-.121-1.4,1.682-.007,0-.2.191a47.672,47.672,0,0,1-4.023,3.364,41.027,41.027,0,0,0-4,3.346c-.01-.789,0-1.623.032-2.488.067-1.508.192-3.084.372-4.682.1-.9.217-1.809.354-2.714l.26-.268c.292-.289.609-.576.938-.85l.307-.251.134.182v-.291l.067-.054-.067-.12v0l.087-.022.086.069.628-.484a6.891,6.891,0,0,0,.6-.349l.257-.158c.024-.012.19-.11.307-.18l.081-.05.391-.2.344-.165-.069-.138.116.118.465-.2.19-.079.032-.017.009.009.3-.112c.069-.023.149-.052.157-.055l.6-.183Zm16.191-4.3.218-.063L49,16.26l.352-.093.141.317,1.06-.157-.022-.143.055.137,1.512-.122,1.886-.054.388,0c4.285.081,11.933,1.336,15.124,8.8-.074.721-.15,1.331-.272,1.942a14.746,14.746,0,0,1-.683,2.474,15.632,15.632,0,0,1-2.505,4.373,24.4,24.4,0,0,1-1.823,2.007l.011-.589a15.9,15.9,0,0,0-.41-3.335c-.081-.338-.176-.68-.3-1.033a11.122,11.122,0,0,0-.414-1.036c-.121-.26-.25-.519-.386-.755-.086-.159-.179-.308-.315-.526a9.12,9.12,0,0,0-.724-.967c-.131-.161-.272-.314-.4-.448-.034-.043-.256-.259-.259-.259-.153-.147-.315-.294-.478-.432-.255-.212-.528-.419-.805-.608-.182-.127-.381-.249-.616-.391a17.227,17.227,0,0,0-8.732-1.937l-.063,0c-.4,0-.816.009-1.252.026-2.6.136-4.218-1.242-4.47-2.663-.3-1.688,1.193-3.279,3.906-4.152l.317-.1ZM62.195,42.724c.929-.536,1.826-1.112,2.663-1.71A23.824,23.824,0,0,0,69.616,36.6l.092-.116c-2.27,6.379-8.393,11.854-17.5,15.582-.788.322-1.709.629-2.722.967a40.207,40.207,0,0,0-5.448,2.117,25.983,25.983,0,0,0-6.228,2.311A30.808,30.808,0,0,0,34.564,59.4c-.2.127-.392.264-.584.4l-.217.158c-.226.16-.447.326-.788.585l-.992.792c-.168.139-.333.276-.481.407a30.062,30.062,0,0,0-5.161,5.687c-.121.18-.237.358-.351.536-6.236-8.053-7.08-21.625-4.716-31.956.051.42.112.839.183,1.254A15.677,15.677,0,0,0,22.646,41.2c.694,3.239,2.8,13.091,22.346,9.28l.626-.183c4.415-1.277,10.461-3.025,14.477-6.461C60.883,43.445,61.569,43.082,62.195,42.724ZM37.416,62.516l-.022.079c-.006.026-.092.4-.1.429l-.058.326-.16,1.963a6.745,6.745,0,0,0,.068.867l.284,1.708.009,0,.505,3.014a15.354,15.354,0,0,1,.147,1.926l-.008.38c-.008.169-.02.331-.039.471l-.05.3c-.137.685-.2.678-.7.609l-1.42-.263c-.185-.037-.367-.081-.626-.148L34.617,74l-3.408-1.451c-.326-.184-.644-.377-1.042-.638l-.459-.32c-.3-.216-.595-.442-.96-.746l-.121-.1A45.591,45.591,0,0,1,37.416,62.516ZM29.933,41.472A4.025,4.025,0,1,1,33.958,45.5,4.03,4.03,0,0,1,29.933,41.472Zm-3.367,1.012a14.106,14.106,0,0,1-.572-2.085c-.009-.041-.028-.076-.04-.116A1.634,1.634,0,0,0,26.067,40a5.535,5.535,0,0,1,1.528-2.423,7.413,7.413,0,0,0-1.106,3.894A7.493,7.493,0,0,0,26.566,42.484ZM73.355,0H17.382A17.434,17.434,0,0,0,0,17.39V73.36A17.436,17.436,0,0,0,17.387,90.75H73.361A17.437,17.437,0,0,0,90.746,73.36V17.39A17.434,17.434,0,0,0,73.355,0ZM17.389,3.441H73.36A13.984,13.984,0,0,1,87.307,17.39V73.36A13.986,13.986,0,0,1,73.36,87.309H17.389A13.988,13.988,0,0,1,3.441,73.36V17.391A13.988,13.988,0,0,1,17.389,3.441Z" transform="translate(0.004)"/></svg>