<?xml version="1.0" encoding="utf-8"?>
<!-- Generator: Adobe Illustrator 25.4.1, SVG Export Plug-In . SVG Version: 6.00 Build 0)  -->
<svg version="1.1" id="Camada_1" xmlns="http://www.w3.org/2000/svg" xmlns:xlink="http://www.w3.org/1999/xlink" x="0px" y="0px"
	 viewBox="0 0 100 100" style="enable-background:new 0 0 100 100;" xml:space="preserve">
<style type="text/css">
	.st0{fill:#85B653;}
</style>
<path class="st0" d="M69.5,48.2H34.1l13.5-12.9c0.7-0.7,0.7-1.8,0.1-2.5s-1.8-0.7-2.5-0.1l0,0L29.8,47.5c-1.4,1.4-1.4,3.6,0,5
	c0,0,0,0,0,0l15.4,14.7c0.7,0.7,1.8,0.6,2.5-0.1c0.7-0.7,0.6-1.8-0.1-2.5L34.1,51.8h35.4c1,0,1.8-0.8,1.8-1.8
	C71.3,49,70.5,48.2,69.5,48.2L69.5,48.2z"/>
</svg>
