<svg xmlns="http://www.w3.org/2000/svg" width="90.936" height="91.001" viewBox="0 0 90.936 91.001"><defs><style>.a{fill:#85b653;}</style></defs><path class="a" d="M72.46,82.127A45.354,45.354,0,0,1,58.6,89.046a43.98,43.98,0,0,1-12.979,1.948,45.7,45.7,0,0,1-23.09-6.306A45.451,45.451,0,0,1,34.631,1.33,43.931,43.931,0,0,1,50.555.3a2.837,2.837,0,0,1,1.964.939,1.954,1.954,0,0,1,.39,1.478C52.757,4,51.614,4.747,50.07,4.57A41.216,41.216,0,0,0,4.8,39.176C1.435,60.884,16.153,81.846,37.609,85.9A41.231,41.231,0,0,0,85.85,53.579c2.282-11.175.1-21.773-6.471-31.5-.039-.058-.08-.115-.127-.177-.029.349-.068.7-.116,1.044a2.213,2.213,0,0,1-.936,1.5,1.643,1.643,0,0,1-1.319.185c-.695-.18-1.77-1.011-1.826-1.788A70.4,70.4,0,0,1,75,15.624a1.911,1.911,0,0,1,1.962-1.847,1.947,1.947,0,0,1,.2.016c2.155-.014,4.362-.02,6.572,0a2.128,2.128,0,0,1,1.486.6,2.1,2.1,0,0,1-1.44,3.6c-.539.019-1.083.014-1.711.01H81.8c.124.208.233.386.353.555A45.523,45.523,0,0,1,72.46,82.127ZM40.273,11.9a32.437,32.437,0,0,0-12.479,4.56,2.739,2.739,0,0,0-1.345,1.725A1.9,1.9,0,0,0,26.8,19.7c.778,1.072,1.865,1.218,3.228.431.143-.081.285-.166.427-.251s.278-.169.424-.251a29.259,29.259,0,0,1,19.028-3.573A30.154,30.154,0,0,1,75.422,45.342a68.882,68.882,0,0,1-1.2,7.53C70.076,68.157,56.2,77.145,40.49,74.714A29.153,29.153,0,0,1,21.078,62.286a29.479,29.479,0,0,1-4.635-22.843,31.235,31.235,0,0,1,3.748-9.524,2.6,2.6,0,0,0,.322-2.342A1.981,1.981,0,0,0,19.1,26.433c-1.392-.341-2.132.521-2.669,1.408a33.165,33.165,0,0,0-4.724,21.287q.081.762.2,1.52A33.935,33.935,0,0,0,45.361,79.471a34.312,34.312,0,0,0,5.168-.393c17.626-2.426,30.825-19.393,28.823-37.045q-.093-.915-.236-1.824A33.987,33.987,0,0,0,40.273,11.9Zm3.189,27.537a9.175,9.175,0,0,1,3.774-.086,1.678,1.678,0,0,0,1.921-.533c2.587-2.638,5.173-5.215,7.758-7.792l2.41-2.4a9.867,9.867,0,0,1,.945-.892,2.019,2.019,0,0,1,2.842.1l.082.091a1.968,1.968,0,0,1,.088,2.765,22.533,22.533,0,0,1-1.571,1.65L59.38,34.662c-2.412,2.418-4.825,4.836-7.266,7.227a1.527,1.527,0,0,0-.483,1.767,6.129,6.129,0,0,1-2.023,6.778A6.415,6.415,0,0,1,39.1,45.278v-.023a2.692,2.692,0,0,1,.106-.91c.754-1.434.084-2.187-1.106-3.266-1.068-.963-2.089-2.011-3.077-3.024l-.738-.756c-1.5-1.533-1.036-2.667-.384-3.348a1.978,1.978,0,0,1,1.418-.679,3.034,3.034,0,0,1,2.045,1.035c1.491,1.466,3.182,3.128,4.773,4.792A1.236,1.236,0,0,0,43.462,39.437Zm2.091,8.181a2.141,2.141,0,0,0,2.094-2.178,2.139,2.139,0,0,0-2.136-2.1H45.47a2.141,2.141,0,0,0-2.1,2.178A2.188,2.188,0,0,0,45.553,47.618Zm-.032-22.892h.047c1.824-.03,2.075-1.556,2.075-3.2s-.25-3.163-2.063-3.2a1.94,1.94,0,0,0-1.439.491,3.768,3.768,0,0,0-.731,2.769,3.6,3.6,0,0,0,.739,2.638A1.883,1.883,0,0,0,45.521,24.726ZM20.374,43.364a1.726,1.726,0,0,0-.26.008,1.942,1.942,0,0,0-1.319.7,1.888,1.888,0,0,0-.436,1.371,2.084,2.084,0,0,0,0,.209,1.978,1.978,0,0,0,2.018,1.9c.38.03.762.046,1.142.046.434,0,.863-.02,1.281-.06a2.044,2.044,0,0,0,.218-.014,2,2,0,0,0,1.715-2.236,1.949,1.949,0,0,0-1.95-1.917,7.568,7.568,0,0,0-.812-.011l-.342.005-.391-.007C20.937,43.352,20.636,43.345,20.374,43.364Zm49.089,4.247c1.9,0,3.167-.35,3.205-2.054a1.9,1.9,0,0,0-.488-1.443,3.758,3.758,0,0,0-2.766-.731,3.607,3.607,0,0,0-2.643.733,1.9,1.9,0,0,0-.5,1.42C66.3,47.36,67.821,47.611,69.463,47.611ZM44.12,66.713a3.725,3.725,0,0,0-.743,2.773l.005.845a2.374,2.374,0,0,0,.613,1.748,2.023,2.023,0,0,0,1.479.537H45.5a2.04,2.04,0,0,0,2.106-2.311v-.843c0-1.561-.244-3.166-2.055-3.226A1.879,1.879,0,0,0,44.12,66.713ZM57.691,6.048a2.141,2.141,0,0,0,1.586-3.54,2.1,2.1,0,0,0-3.695,1.327v.017a2.146,2.146,0,0,0,2.109,2.2Zm-34.8,19c.052,0,.105,0,.158-.007a2.1,2.1,0,0,0,2.038-2.177,2.084,2.084,0,0,0-2.135-2.008,1.679,1.679,0,0,0-.174,0,1.988,1.988,0,0,0-1.893,2.052,2.1,2.1,0,0,0,0,.286A2.019,2.019,0,0,0,22.887,25.05Z" transform="translate(-0.038 0.007)"/></svg>