<svg xmlns="http://www.w3.org/2000/svg" width="123.078" height="90.742" viewBox="0 0 123.078 90.742"><defs><style>.a{fill:none;}.b{fill:#85b653;}</style></defs><g transform="translate(0.008 -0.124)"><path class="a" d="M74.677,81.195h0Z"/><path class="a" d="M106.174,76.074h0Z"/><path class="a" d="M105.623,76.389h0Z"/><path class="a" d="M105.723,76.312h0Z"/><path class="a" d="M109.321,75.6h0Z"/><path class="a" d="M106.4,76.023h0Z"/><path class="a" d="M109.282,77.768c0,.011,0-.01,0-.05a.633.633,0,0,0-.171-.473,1.3,1.3,0,0,0-.922-.206,1.164,1.164,0,0,1-.916-.382c0,.021-.008.043-.014.064l-.034.1a.543.543,0,0,1-.046.112c-.053.091-.072.121-.1.156l-.269.291-.093.08a1,1,0,0,1,.781,1.019.974.974,0,0,1-.084.324c.058-.009.1-.011.166-.022a3.854,3.854,0,0,0,1.546-.67l.086-.123.388.054-.349-.143Z"/><path class="a" d="M109.565,75.667h0Z"/><path class="a" d="M109.851,75.785h0Z"/><path class="a" d="M66.385,83.948l.294.2a.976.976,0,0,1,.031-.1l-.325-.1Z"/><path class="a" d="M66.85,83.424l.139.15c.016-.017.029-.036.045-.053l-.184-.1Z"/><path class="a" d="M73.489,80.154h0Z"/><path class="a" d="M67.658,80.658h0Z"/><path class="a" d="M73.858,80.355h0Z"/><path class="a" d="M72.905,79.945h0Z"/><path class="a" d="M86.331,58.179c1.2-.453,1.534-1.082,1.336-2.492-.821-5.853-1.527-11.814-2.211-17.579l-.447-3.768c-.176-1.471-.313-2.948-.449-4.426-.258-2.784-.525-5.663-1.059-8.44C81.475,10.91,72.825,4.347,60.927,4.347l-.315,0a21.334,21.334,0,0,0-8.154,1.611C44.6,9.19,40.211,15.181,39.044,24.271c-.9,7.015-1.694,14.164-2.463,21.077q-.615,5.517-1.245,11.031c-.087.757-.021,1.113.615,1.356,1.028.393,2.049.8,3.071,1.213,2.118.847,4.307,1.725,6.51,2.432a3.085,3.085,0,0,0,2.676-.607,3.554,3.554,0,0,0,1.575-2.637c0-.342.007-.684.011-1.027.015-.983.03-2-.044-2.983a1.708,1.708,0,0,0-.613-1.157,20.18,20.18,0,0,1-8.942-16.19c-.169-3.176.952-5.341,3.529-6.8a9.48,9.48,0,0,0,4.123-4.565A2.775,2.775,0,0,1,49.318,23.8a2.03,2.03,0,0,1,1.618.1c1.633.768,1.32,2.114.942,3.059a13.486,13.486,0,0,1-5.616,6.409c-.977.615-1.629,1.1-1.7,2.127A16.22,16.22,0,0,0,54.6,51.16a17.693,17.693,0,0,0,19.264-3.6c3.74-3.731,5.206-8.534,4.482-14.678a4.112,4.112,0,0,0-1.562-2.316A36.921,36.921,0,0,0,61.938,23.8c-1.77-.405-3.6-.7-5.366-.982-1.006-.162-2.013-.323-3.015-.5a1.065,1.065,0,0,1-.238-.029A1.945,1.945,0,0,1,51.787,20a2.072,2.072,0,0,1,2.406-1.723c.8.055,1.64.179,2.456.3l.552.08c9.052,1.287,16.37,4.114,22.372,8.644a7.057,7.057,0,0,1,3.1,4.631c1.038,8.348-1.043,14.542-6.359,18.956-2.473,2.049-3.329,4.027-3.051,7.056a3.812,3.812,0,0,0,.157.808,3.779,3.779,0,0,0,4.717,2.5v0c1.886-.62,3.771-1.355,5.595-2.066C84.594,58.844,85.461,58.506,86.331,58.179Z"/><path class="a" d="M68.895,55.8a62.232,62.232,0,0,1-7.314.861,64.034,64.034,0,0,1-7.424-.87c.38,3.446.029,7.853-5.625,9.267,1.725,4,7.27,7.244,12.694,7.389h.232c5.456.094,11.224-3.222,13.112-7.383C69.038,63.727,68.552,59.518,68.895,55.8Z"/><path class="a" d="M31.229,45.983c1.443-2.51,1.366-5.044,1.284-7.725-.031-.984-.061-2-.01-3-1.639-.005-3.266-.034-4.882-.063-4.062-.072-7.9-.142-11.773.168a6.4,6.4,0,0,0-5,9.195A10.043,10.043,0,0,1,12.087,50a10.088,10.088,0,0,0,.1,1.941,8.97,8.97,0,0,0,6.851,7.517l-.062.26.073-.257a9.192,9.192,0,0,0,9.484-2.918,9.587,9.587,0,0,0,2.125-6.911A7.457,7.457,0,0,1,31.229,45.983Zm-2.146-1.512a1.82,1.82,0,0,1-1.976,1.283,6.783,6.783,0,0,1-1.253-.141c-3.307-.637-6.237-1.1-8.957-1.415-1.952-.226-3.444-.532-3.432-2.2a1.809,1.809,0,0,1,.524-1.353c.553-.53,1.518-.742,3.129-.683h0l.013-.051.316.065h.428l-.019.083c1.371.271,2.775.484,4.138.69,1.713.259,3.486.527,5.208.914a2.587,2.587,0,0,1,1.759,1.113A2.058,2.058,0,0,1,29.083,44.471Z"/><path class="a" d="M31.019,60.135c-.406.322-.911.723-1.373,1.149a1.759,1.759,0,0,0-.42.687,1.783,1.783,0,0,0,1.129,2.251c.617.185,1.252.352,1.888.52.783.206,1.567.412,2.337.657,1.6.511,2.813-.119,4.1-.786.3-.159.614-.32.932-.467l-8.349-4.2Z"/><path class="a" d="M92.526,59.195c-.189-.135-.38-.269-.569-.4a4.437,4.437,0,0,1-2.509,2.441c-1.623.762-3.259,1.548-5,2.386l-1.065.51a27.671,27.671,0,0,1,2.981,1.355,6.835,6.835,0,0,0,7.978-.08l.275-.182a3.79,3.79,0,0,0,1.223-2.561,1.435,1.435,0,0,0-.306-1.18A35.049,35.049,0,0,0,92.526,59.195Z"/><path class="a" d="M110.165,75.988h0Z"/><path class="a" d="M111.437,51.332a24.509,24.509,0,0,0-7.9-4.255c-1.948-.739-1.946-.737-3.182.79a10.145,10.145,0,0,1-.735.824.7.7,0,0,1-.073.091,2.117,2.117,0,0,1-1.468.711,2.078,2.078,0,0,1-1.535-.535c-.952-.76-1.04-1.748-.243-2.922a15.255,15.255,0,0,0,1.456-2.72,2.219,2.219,0,0,1,2.674-1.5,15.875,15.875,0,0,1,1.936.508,32.019,32.019,0,0,1,12.041,5.981,9.025,9.025,0,0,0-.128-5.955,10.435,10.435,0,0,0-5.5-6.091,11.806,11.806,0,0,0-9.16-.465,10.972,10.972,0,0,0-6.453,6.235,9.708,9.708,0,0,0,.325,8.038,15.716,15.716,0,0,1,1.139,3.041c1.032,3.813,4.231,6.3,8.558,6.636a9.263,9.263,0,0,0,9-5.265C112.95,52.813,112.908,52.636,111.437,51.332Z"/><path class="a" d="M100.21,63.764c-.515,2.546-.155,3.4,1.735,4.408a3.813,3.813,0,0,0,4.445-.726l.1-.091a3.023,3.023,0,0,0,.656-3.591Z"/><path class="a" d="M17.765,63.77c.036,1.2.89,1.882,1.865,2.655a8.134,8.134,0,0,1,1.613,1.538c.491-.432.926-.812,1.312-1.149,2.5-2.185,2.689-2.349,2.29-3.044Z"/><path class="a" d="M108.98,31.716c-.492-2.5-2.765-4.065-5.736-3.86h-.028a5.725,5.725,0,0,0-3.967,1.766,3.463,3.463,0,0,0-.851,2.121A17.7,17.7,0,0,1,108.98,31.716Z"/><path class="a" d="M110.478,76.341h0Z"/><path class="b" d="M75.175,81.331l-.332.176.291-.261c-.027-.055-.053-.11-.079-.155l-.1-.163c-.032-.052-.065-.1-.1-.154s-.057-.072-.087-.107c-.048-.061-.1-.118-.147-.172a1.865,1.865,0,0,0-.14-.133c-.04-.038-.079-.076-.124-.113s-.087-.066-.167-.123c-.04-.029-.08-.059-.188-.126l-.188.325.093-.38a1.1,1.1,0,0,0-.113-.063,1.139,1.139,0,0,0-.134-.065c-.068-.033-.136-.064-.214-.093l-.17-.061c-.049-.017-.1-.034-.147-.047l-.455-.108c-.065-.013-.132-.025-.2-.035l-.32-.036a1.158,1.158,0,0,0-.128,0,1.824,1.824,0,0,0-.22-.012h-.3a1.589,1.589,0,0,0-.16.01l-.47.044c-.1.012-.2.029-.345.058-1.012.308-1.276.982-1.2,1.463a1.4,1.4,0,0,0,1.526,1.031,2.344,2.344,0,0,1,1.695.406,1.275,1.275,0,0,1,.354.957,1.089,1.089,0,0,1-.018.222c-.009.046-.02.092-.037.159a1.249,1.249,0,0,1-.1.191,1.271,1.271,0,0,1-.1.146c-.04.047-.081.093-.092.11a6.565,6.565,0,0,1-2.636,1.145,8.431,8.431,0,0,1-.915.121,1.337,1.337,0,0,0,.483-1.018A1.4,1.4,0,0,0,68.061,83.1a1.372,1.372,0,0,0-.194.019l.341-.257c.055-.044.1-.085.146-.125l.284-.266a1.483,1.483,0,0,0,.12-.138l.082-.1a1,1,0,0,0,.079-.126L69,81.97a2.545,2.545,0,0,0,.1-.251,1.067,1.067,0,0,0,.041-.338,1.968,1.968,0,0,0-.045-.318c-.012-.038-.024-.076-.03-.091l-.04-.123-.059-.11c-.025-.043-.051-.084-.088-.136l-.2-.193a.979.979,0,0,0-.109-.063l-.12-.056c-.036-.011-.076-.021-.052-.011l-.291-.052-.167,0a.945.945,0,0,0-.256.036l-.356.108-1.155.759a6.7,6.7,0,0,0-1.323,4.7,5.757,5.757,0,0,0,1.6,4.032l.289.247a3.624,3.624,0,0,0,.332.222c.085.051.171.1.344.182.11.051.216.1.368.149.1.034.206.064.314.092l.1.024c.121.028.246.053.376.071a.912.912,0,0,0,.143.011.726.726,0,0,0,.547-.225c.374-.4.23-1.125.115-1.711a2.511,2.511,0,0,1-.058-.346,1.223,1.223,0,0,1,.03-.256.761.761,0,0,1,.031-.12l.056-.134L69.1,87.9h0l.385.087-.273-.267.355.16.367-.306a11.06,11.06,0,0,1,1.715-.655,5.853,5.853,0,0,0,3.52-2.89,3.327,3.327,0,0,0,.071-2.556Zm-8.5,2.816-.294-.2h0l.325.1A.976.976,0,0,0,66.679,84.147Zm.31-.573-.139-.15h0l.184.1C67.018,83.538,67,83.557,66.989,83.574Zm.669-2.916Zm5.247-.713Zm.584.209Zm.369.2Zm.819.84h0Z"/><path class="b" d="M111,76.567l-.2-.42a1.365,1.365,0,0,0-.122-.169,2.054,2.054,0,0,0-.157-.171c-.037-.037-.075-.073-.115-.106l-.254-.175a1.517,1.517,0,0,0-.192-.1,1.151,1.151,0,0,0-.154-.066l-.124.353h0l.009-.395-1.006-.149-.523.03a2.032,2.032,0,0,0-.227.042,1.032,1.032,0,0,0-.835.849l-.275.125.293-.242-.1-.116-.251.278h0l.157-.359-.1-.053-.412-.072-.537.143-.65.449a4.216,4.216,0,0,0-.847,2.963,3.577,3.577,0,0,0,1.109,2.632l.105.08c.051.038.1.075.207.141a2.593,2.593,0,0,0,.238.126c.064.028.129.057.221.09a2.6,2.6,0,0,0,.278.078,2.161,2.161,0,0,0,.235.042.708.708,0,0,0,.109.008.592.592,0,0,0,.44-.182c.28-.3.179-.8.106-1.167-.016-.077-.031-.142-.033-.174a.658.658,0,0,1,.011-.115l.032-.114-.291-.244h0l.366.13-.292-.236h0l.36.167.106-.077a6.915,6.915,0,0,1,1.032-.39,3.692,3.692,0,0,0,2.222-1.839A2.08,2.08,0,0,0,111,76.567Zm-5.379-.178Zm.1-.077Zm.451-.238Zm.228-.051Zm3.163-.356h0Zm-.244-.066Zm-.109,2.383-.086.123a3.854,3.854,0,0,1-1.546.67c-.062.011-.108.013-.166.022a.974.974,0,0,0,.084-.324,1,1,0,0,0-.781-1.019l.093-.08.269-.291c.024-.035.043-.065.1-.156a.543.543,0,0,0,.046-.112l.034-.1c.006-.021.01-.043.014-.064a1.164,1.164,0,0,0,.916.382,1.3,1.3,0,0,1,.922.206.633.633,0,0,1,.171.473c0,.04,0,.061,0,.05l-.031.127.349.143Zm.639-2.2h0Zm.314.2Zm.313.353h0Z"/><path class="b" d="M118.158,67.75c-1.3-.6-2.593-1.215-3.887-1.829l-1.423-.674a2.588,2.588,0,0,1-.521-4.21,12.754,12.754,0,0,0,4.695-7.357,7.133,7.133,0,0,1,.574-1.549c2.776-5.734,2.114-11.054-1.968-15.814-1.35-1.575-2.239-2.766-2.3-4.889-.123-4.216-3.617-7.228-8.9-7.672a10.127,10.127,0,0,0-8.586,3.212,7.568,7.568,0,0,0-1.85,6.607.774.774,0,0,1-.09.568c-1.187,1.32-2.4,2.619-3.625,3.931l-.452.483-.061-.642c-.207-2.163-.419-4.373-.636-6.58-.069-.716-.133-1.431-.2-2.146-.384-4.3-.781-8.754-2.467-12.98A24.64,24.64,0,0,0,70.67,1.5C62.646-1.076,53.14.02,46.453,4.3,40.034,8.4,36.25,14.379,34.885,22.58c-.318,1.921-.491,3.823-.675,5.838-.073.8-.147,1.613-.232,2.434h-.339c-.421,0-.817,0-1.211,0-1.67.019-3.342.016-5.012.014-3.723,0-7.569-.011-11.343.236a11.016,11.016,0,0,0-8.78,5.435,10.44,10.44,0,0,0-.514,9.77,9.127,9.127,0,0,1,.847,3.683,14.149,14.149,0,0,0,5.241,11.14,3.285,3.285,0,0,1,.464,2.4,2.7,2.7,0,0,1-1.276.741c-.975.3-1.984.575-2.96.837-1.337.359-2.72.729-4.026,1.19A6.842,6.842,0,0,0,.078,72.811c-.111,3.33-.09,6.715-.069,9.987.009,1.391.018,2.782.02,4.126A2.051,2.051,0,0,0,1.8,89.214c.084.011.169.011.231.015A2.1,2.1,0,0,0,4.389,87.1a10.227,10.227,0,0,0,.024-1.183l0-3.994q0-3.995,0-7.986c.01-2.432.719-3.346,3.124-4.069a19.892,19.892,0,0,0,3.157-.894c3.031-1.491,5.359-.9,7.571,1.929a3.249,3.249,0,0,1,.9,2.157c-.009.86-.014,1.287-.02,1.478l.006,2.134c-.008,1.563.756,2.435,2.152,2.456a2.032,2.032,0,0,0,1.539-.539,2.549,2.549,0,0,0,.629-1.88l0-.26c-.016-.181-.036-.438-.065-.8a6.756,6.756,0,0,1,2.865-6.515c1.719-1.3,2.223-1.51,3.909-.516-2.039,2.066-3.092,3.517-3.173,5.394-.034.773-.059,1.549-.08,2.322l-.447.383v.021a4.646,4.646,0,0,0-.779,2.991,3.792,3.792,0,0,0,1.153,2.741c0,1.607,0,3.215.013,4.859A2.124,2.124,0,0,0,29.2,89.213a2.135,2.135,0,0,0,1.884-1.888c.041-.442.045-.889.045-1.336V83.535q0-3.681.007-7.36c.007-2.353.762-3.869,2.307-4.632,2.518-1.24,5.161-2.358,7.716-3.44,1.034-.438,2.067-.875,3.092-1.32a19.907,19.907,0,0,0,17.572,9.778,19.487,19.487,0,0,0,17.01-9.714c.749.316,1.5.639,2.243.962,1.982.856,4.031,1.741,6.107,2.478C90.629,71.5,92.1,73.606,91.96,77.1c-.1,2.508-.067,5.057-.034,7.521.011.82.022,1.638.03,2.415a1.994,1.994,0,0,0,1.778,2.185,1.875,1.875,0,0,0,.358,0,2.222,2.222,0,0,0,1.652-.651A1.8,1.8,0,0,0,96.2,87.18a42.95,42.95,0,0,1,.052-5.333c.2-3.951.409-8.033-1.837-11.847,1.608-1.071,1.691-1.009,3.2.14l.263.2a12.07,12.07,0,0,0,4.213,2.17c2.9.732,5.557-.186,8.133-2.838a1.252,1.252,0,0,1,1.756-.224A44.448,44.448,0,0,0,116,71.358a3.907,3.907,0,0,1,2.684,4.058c-.065,2.7-.048,5.439-.033,8.09,0,.915.011,1.831.013,2.745a3.351,3.351,0,0,0,.763,2.452,1.978,1.978,0,0,0,1.447.546h.046c1.41-.02,2.127-1,2.13-2.914q.006-1.987,0-3.978c0-2.375-.008-4.751.022-7.127A7.662,7.662,0,0,0,118.158,67.75ZM99.249,29.623a5.725,5.725,0,0,1,3.967-1.766h.028c2.971-.205,5.244,1.362,5.736,3.86a17.7,17.7,0,0,0-10.582.028A3.463,3.463,0,0,1,99.249,29.623ZM22.555,66.814c-.386.337-.821.717-1.312,1.149a8.134,8.134,0,0,0-1.613-1.538c-.975-.773-1.829-1.45-1.865-2.655h7.08C25.244,64.465,25.057,64.629,22.555,66.814ZM28.53,56.547a9.192,9.192,0,0,1-9.484,2.918l-.073.257.062-.26a8.97,8.97,0,0,1-6.851-7.517,10.088,10.088,0,0,1-.1-1.941,10.043,10.043,0,0,0-1.237-5.447,6.4,6.4,0,0,1,5-9.195c3.875-.31,7.711-.24,11.773-.168,1.616.029,3.243.058,4.882.063-.051,1-.021,2.017.01,3,.082,2.681.159,5.215-1.284,7.725a7.457,7.457,0,0,0-.574,3.653A9.587,9.587,0,0,1,28.53,56.547Zm10.146,8.066c-1.283.667-2.495,1.3-4.1.786-.77-.245-1.554-.451-2.337-.657-.636-.168-1.271-.335-1.888-.52a1.783,1.783,0,0,1-1.129-2.251,1.759,1.759,0,0,1,.42-.687c.462-.426.967-.827,1.373-1.149l.24-.193,8.349,4.2C39.29,64.293,38.98,64.454,38.676,64.613Zm22.782,7.839h-.232c-5.424-.145-10.969-3.389-12.694-7.389,5.654-1.414,6-5.821,5.625-9.267a64.034,64.034,0,0,0,7.424.87,62.232,62.232,0,0,0,7.314-.861c-.343,3.714.143,7.923,5.675,9.265C72.682,69.23,66.914,72.546,61.458,72.452Zm16.675-11.2v0a3.779,3.779,0,0,1-4.717-2.5,3.812,3.812,0,0,1-.157-.808c-.278-3.029.578-5.007,3.051-7.056,5.316-4.414,7.4-10.608,6.359-18.956a7.057,7.057,0,0,0-3.1-4.631c-6-4.53-13.32-7.357-22.372-8.644l-.552-.08c-.816-.12-1.659-.244-2.456-.3A2.072,2.072,0,0,0,51.787,20a1.945,1.945,0,0,0,1.532,2.282,1.065,1.065,0,0,0,.238.029c1,.182,2.009.343,3.015.5,1.768.283,3.6.577,5.366.982a36.921,36.921,0,0,1,14.844,6.767,4.112,4.112,0,0,1,1.562,2.316c.724,6.144-.742,10.947-4.482,14.678A17.693,17.693,0,0,1,54.6,51.16,16.22,16.22,0,0,1,44.56,35.494c.073-1.027.725-1.512,1.7-2.127a13.486,13.486,0,0,0,5.616-6.409c.378-.945.691-2.291-.942-3.059a2.03,2.03,0,0,0-1.618-.1,2.775,2.775,0,0,0-1.471,1.606,9.48,9.48,0,0,1-4.123,4.565c-2.577,1.464-3.7,3.629-3.529,6.8a20.18,20.18,0,0,0,8.942,16.19,1.708,1.708,0,0,1,.613,1.157c.074.985.059,2,.044,2.983,0,.343-.009.685-.011,1.027a3.554,3.554,0,0,1-1.575,2.637,3.085,3.085,0,0,1-2.676.607c-2.2-.707-4.392-1.585-6.51-2.432-1.022-.411-2.043-.82-3.071-1.213-.636-.243-.7-.6-.615-1.356q.639-5.514,1.245-11.031c.769-6.913,1.565-14.062,2.463-21.077C40.211,15.181,44.6,9.19,52.458,5.956a21.334,21.334,0,0,1,8.154-1.611l.315,0c11.9,0,20.548,6.563,22.574,17.127.534,2.777.8,5.656,1.059,8.44.136,1.478.273,2.955.449,4.426l.447,3.768c.684,5.765,1.39,11.726,2.211,17.579.2,1.41-.14,2.039-1.336,2.492-.87.327-1.737.665-2.6,1C81.9,59.893,80.019,60.628,78.133,61.248Zm17.7,1.411a3.79,3.79,0,0,1-1.223,2.561l-.275.182a6.835,6.835,0,0,1-7.978.08,27.671,27.671,0,0,0-2.981-1.355l1.065-.51c1.746-.838,3.382-1.624,5-2.386a4.437,4.437,0,0,0,2.509-2.441c.189.136.38.27.569.4a35.049,35.049,0,0,1,3,2.284A1.435,1.435,0,0,1,95.835,62.659Zm10.653,4.7-.1.091a3.813,3.813,0,0,1-4.445.726c-1.89-1.01-2.25-1.862-1.735-4.408h6.934A3.023,3.023,0,0,1,106.488,67.355Zm-3.3-7.607c-4.327-.341-7.526-2.823-8.558-6.636a15.716,15.716,0,0,0-1.139-3.041,9.708,9.708,0,0,1-.325-8.038A10.972,10.972,0,0,1,99.618,35.8a11.806,11.806,0,0,1,9.16.465,10.435,10.435,0,0,1,5.5,6.091,9.025,9.025,0,0,1,.128,5.955,32.019,32.019,0,0,0-12.041-5.981,15.875,15.875,0,0,0-1.936-.508,2.219,2.219,0,0,0-2.674,1.5,15.255,15.255,0,0,1-1.456,2.72c-.8,1.174-.709,2.162.243,2.922a2.078,2.078,0,0,0,1.535.535,2.117,2.117,0,0,0,1.468-.711.7.7,0,0,0,.073-.091,10.145,10.145,0,0,0,.735-.824c1.236-1.527,1.234-1.529,3.182-.79a24.509,24.509,0,0,1,7.9,4.255c1.471,1.3,1.513,1.481.75,3.151A9.263,9.263,0,0,1,103.187,59.748Z"/><path class="b" d="M9.8,74.374c-.972.019-2.132.458-2.132,2.451v9.948c0,1.559.764,2.43,2.149,2.454h.058a2.1,2.1,0,0,0,1.527-.556,2.51,2.51,0,0,0,.655-1.833q.03-5.049,0-10.106a2.454,2.454,0,0,0-.648-1.806A2.225,2.225,0,0,0,9.8,74.374Z"/><path class="b" d="M115.409,78.959a2.052,2.052,0,0,0-2.08-2.343,2.2,2.2,0,0,0-1.647.541,2.427,2.427,0,0,0-.654,1.777c-.029,2.633-.029,5.3,0,7.935a2.475,2.475,0,0,0,.661,1.808,2.117,2.117,0,0,0,1.528.552h.086a2.072,2.072,0,0,0,2.106-2.336c.007-.868.005-1.733,0-2.6l0-1.295,0-1.345C115.412,80.754,115.414,79.857,115.409,78.959Z"/><path class="b" d="M44.55,80.142a2.161,2.161,0,0,0-2.109-2.2,2.162,2.162,0,0,0-2.214,2.107c-.066,2.347-.066,4.73,0,7.077a2.159,2.159,0,0,0,2.158,2.127h.035a2.159,2.159,0,0,0,2.127-2.177c.021-.826.016-1.65.013-2.474l0-1,.005-1.052C44.565,81.749,44.57,80.946,44.55,80.142Z"/><path class="b" d="M82.284,78.563a2.007,2.007,0,0,0-1.408-.63,2.812,2.812,0,0,0-.331.018,2.024,2.024,0,0,0-2.01,2.006l0,.1c-.025.811-.019,1.621-.014,2.431l0,1.042,0,1.078c-.005.844-.01,1.688.014,2.534a2.154,2.154,0,0,0,2.15,2.084h.067a2.148,2.148,0,0,0,2.08-2.018c.077-2.4.077-4.826,0-7.2A2,2,0,0,0,82.284,78.563Z"/><path class="b" d="M27.2,41.66c-1.722-.387-3.5-.655-5.208-.914-1.363-.206-2.767-.419-4.138-.69l.019-.083h-.428l-.316-.065-.013.051h0c-1.611-.059-2.576.153-3.129.683a1.809,1.809,0,0,0-.524,1.353c-.012,1.671,1.48,1.977,3.432,2.2,2.72.315,5.65.778,8.957,1.415a6.783,6.783,0,0,0,1.253.141,1.82,1.82,0,0,0,1.976-1.283,2.058,2.058,0,0,0-.12-1.7A2.587,2.587,0,0,0,27.2,41.66Z"/></g></svg>