<svg xmlns="http://www.w3.org/2000/svg" width="93.773" height="90.707" viewBox="0 0 93.773 90.707"><defs><style>.a{fill:#85b653;}</style></defs><g transform="translate(-0.007 0.001)"><path class="a" d="M89.6,25.279a6.583,6.583,0,0,0,4.171-6.143A6.341,6.341,0,0,0,89.666,12.9a.767.767,0,0,1-.488-.909c.024-2.068.048-4.471,0-6.805,0-.066,0-.131,0-.191A5.117,5.117,0,0,0,83.95.008C82.957,0,81.96,0,80.99.009c-.113,0-.229,0-.346,0A5.026,5.026,0,0,0,75.8,5.189c-.008.9-.005,1.8,0,2.7.006,1.545.012,3.143-.04,4.683a2.026,2.026,0,0,1-.62,1.3,46.061,46.061,0,0,1-4.174,3.351A6.379,6.379,0,0,0,68,23.391a20.132,20.132,0,0,1,.029,2.124c0,.031,0,.063,0,.1-4.947-4.532-10.362-6.244-16.531-5.235-6.2,1.016-10.942,4.52-14.088,10.419l-5.183-4.336A14.636,14.636,0,0,0,33.1,17.49a1.089,1.089,0,0,1,.339-.515,6.594,6.594,0,0,0,2.97-6.813A6.251,6.251,0,0,0,31.8,4.933a6.387,6.387,0,0,0-6.987,1.995.584.584,0,0,1-.775.169A14.454,14.454,0,0,0,13.958,7.05a.936.936,0,0,1-.74-.162,6.574,6.574,0,0,0-6.93-1.976,6.258,6.258,0,0,0-4.71,5.3,6.517,6.517,0,0,0,2.958,6.761.9.9,0,0,1,.3.661,12.143,12.143,0,0,0,1.218,9.145c1.114,1.787.8,2.838-.386,4.649A33.684,33.684,0,0,0,.147,44.53c-.776,4.792,1.726,8.726,6.084,9.571,3.583.691,5.937-1.366,7.59-3.234.555-.63,1.054-1.321,1.578-2.052v39.04c0,2.238.6,2.851,2.772,2.851H87.994c2.049,0,2.707-.648,2.707-2.669,0-16.089,0-32.179,0-48.186a2.415,2.415,0,0,0-1.359-2.623.959.959,0,0,1-.14-.475c-.024-3.211-.041-7.014.009-10.82A.942.942,0,0,1,89.6,25.279ZM60.29,37.059l6.518-6.448a12.353,12.353,0,0,1,2.485,6.448ZM45.831,27.09c4.309-3.793,13.236-3.777,17.559.034l-8.824,8.722Zm-5.925,9.982a12.4,12.4,0,0,1,2.667-6.695l6.584,6.695Zm35.8-3.5v3.522H73.63l-.76-3.522Zm-3.535-11.59a1.153,1.153,0,0,1,.431-.727c.886-.754,1.8-1.48,2.8-2.275l.33-.261,0,10.545H72.146l0-1.448C72.139,25.848,72.134,23.88,72.167,21.981Zm12.352-2.95a2.582,2.582,0,0,1,2.58-2.567h.012a2.578,2.578,0,0,1,2.566,2.608,2.554,2.554,0,0,1-2.554,2.522h-.207A2.569,2.569,0,0,1,84.519,19.031Zm.516-6.875a.674.674,0,0,1-.5.739,6.371,6.371,0,0,0-4.116,6.171,6.57,6.57,0,0,0,4.094,6.191,1.128,1.128,0,0,1,.463.448c.042,3.142.039,6.231.036,9.5v1.873l-5.136,0c-.019-.268-.035-.518-.035-.767V6.009c0-1.71.242-1.947,1.993-1.951,1.59-.005,2.549-.005,2.863.309s.316,1.285.316,2.891l0,1.327C85.007,9.754,85,10.924,85.035,12.156Zm1.472,62.031H19.619V66.034H86.506Zm-.019,4.243v8.161h-66.9V78.43ZM19.6,49.462v-8.2H86.468v8.2Zm20.563,5.275A5.021,5.021,0,0,0,41.673,58.3a4.9,4.9,0,0,0,3.579,1.456c4.962.031,9.923.019,14.883.009h.348a5.1,5.1,0,0,0,5.453-5.427c0-.219,0-.44,0-.679H86.481V61.83H19.588V53.671H40.165v0C40.161,54.024,40.157,54.375,40.168,54.737Zm21.41.546c-.245.294-.811.431-1.784.432H46.3c-.972,0-1.539-.138-1.784-.434a2.19,2.19,0,0,1-.157-1.631H61.737A2.2,2.2,0,0,1,61.578,55.283ZM16.75,26.249a.65.65,0,0,1,.537.133c1.222,1.217,2.176,1.224,3.367.054a.781.781,0,0,1,.586-.171,5.3,5.3,0,0,1,2.987,3.111,9.815,9.815,0,0,1-10.2.217.659.659,0,0,1-.168-.458A5.142,5.142,0,0,1,16.75,26.249Zm10.689.176a9.572,9.572,0,0,0-8.422-4.779h-.034a9.533,9.533,0,0,0-8.406,4.78,10.273,10.273,0,1,1,16.862,0ZM10.033,32.158c.025-.036.05-.071.077-.1,8.687,4.447,13.061,4.015,19.847-1.97a20.986,20.986,0,0,1,5.822,5.337,1.166,1.166,0,0,1-.215,1.4,1.186,1.186,0,0,1-.842.323l-4.418,0c-4.093.006-8.185.01-12.24-.02A2.614,2.614,0,0,0,15.3,39.043c-1.181,2.785-2.464,5.506-3.8,8.065a7.367,7.367,0,0,1-2.047,2.224,3.152,3.152,0,0,1-5.192-2.191,10.894,10.894,0,0,1,1.106-6.1c1.047-2.188,2.229-4.364,3.371-6.47C9.179,33.751,9.625,32.931,10.033,32.158ZM28.224,9.348a2.179,2.179,0,0,1,2.065-.565,2.624,2.624,0,0,1,2.1,2.15,2.428,2.428,0,0,1-.867,2.251ZM9.779,9.327l-3.348,3.9a2.4,2.4,0,0,1-.844-2.112,2.584,2.584,0,0,1,2.57-2.354c.052,0,.105,0,.157.005A2.559,2.559,0,0,1,9.779,9.327Z"/><path class="a" d="M15.752,17.569a2.044,2.044,0,0,0-1.509-.542,1.96,1.96,0,0,0-1.923,2,2.034,2.034,0,0,0,2,2.067A2.09,2.09,0,0,0,16.4,19.063v-.088A2.008,2.008,0,0,0,15.752,17.569Zm.143,1.483Z"/><path class="a" d="M23.654,17.023h-.008a2.031,2.031,0,0,0-.1,4.059c.03,0,.059,0,.089,0h.075a2.047,2.047,0,0,0,1.968-2.118v-.09A1.951,1.951,0,0,0,23.654,17.023Z"/></g></svg>