<svg xmlns="http://www.w3.org/2000/svg" width="24.585" height="35.753" viewBox="0 0 24.585 35.753"><defs><style>.a{fill:#fff;}</style></defs><g transform="translate(0)"><path class="a" d="M-500.253,432.633a12.327,12.327,0,0,0-9.51-9.864c-.5-.105-1.013-.181-1.519-.27h-.21a.091.091,0,0,1-.14,0h-.21a2.7,2.7,0,0,1-.978,0h-.21a.09.09,0,0,1-.14,0h-.279c-.032.091-.113.061-.177.067a11.85,11.85,0,0,0-4.71,1.5,12.48,12.48,0,0,0-4.737,16.863c2.909,5.381,5.861,10.739,8.793,16.107a2.118,2.118,0,0,0,1.93,1.217,2.115,2.115,0,0,0,1.966-1.215q4.39-8.037,8.779-16.075A12.245,12.245,0,0,0-500.253,432.633Zm-3.361,7.335c-2.809,5.211-5.669,10.394-8.508,15.588-.059.108-.123.214-.211.366-.21-.381-.4-.721-.585-1.063q-4.091-7.486-8.18-14.974a10.256,10.256,0,0,1,2.956-13.288,9.956,9.956,0,0,1,14.17,2.687A10,10,0,0,1-503.614,439.969Z" transform="translate(524.614 -422.499)"/><path class="a" d="M-441.833,488.347a5.037,5.037,0,0,0-5.04,4.99,5.038,5.038,0,0,0,5,5.067,5.039,5.039,0,0,0,5.057-5.009A5.037,5.037,0,0,0-441.833,488.347Zm-.022,7.821a2.8,2.8,0,0,1-2.782-2.8,2.8,2.8,0,0,1,2.8-2.783,2.8,2.8,0,0,1,2.783,2.8A2.8,2.8,0,0,1-441.855,496.168Z" transform="translate(454.129 -482.201)"/></g></svg>