<svg xmlns="http://www.w3.org/2000/svg" width="85.968" height="90.492" viewBox="0 0 85.968 90.492"><defs><style>.a{fill:#85b653;}</style></defs><g transform="translate(-0.002 -0.008)"><path class="a" d="M32.464,18.221a2.094,2.094,0,0,0-1.579-.532q-8.536-.01-17.072,0a2.184,2.184,0,0,0-1.629.543,1.6,1.6,0,0,0-.412,1.215c.051,1.565,1.455,1.636,2.038,1.636H13.9c2.036-.013,4.071-.012,6.108-.008h5.138q2.844,0,5.691,0A1.718,1.718,0,0,0,32.861,19.5,1.65,1.65,0,0,0,32.464,18.221Z"/><path class="a" d="M55.205,21.083h0c2.1-.01,4.2-.009,6.3-.008h4.163c2.114,0,4.225-.006,6.34.015h.056a2.3,2.3,0,0,0,1.707-.515,1.611,1.611,0,0,0,.426-1.2c0-.765-.375-1.678-2.114-1.678q-8.47-.015-16.939,0a2.177,2.177,0,0,0-1.624.525,1.63,1.63,0,0,0-.412,1.22C53.148,21.079,54.638,21.083,55.205,21.083Z"/><path class="a" d="M32.438,31.574a1.635,1.635,0,0,0,.422-1.208c0-1.674-1.574-1.674-2.091-1.674q-8.469,0-16.933,0a2.225,2.225,0,0,0-1.653.534,1.583,1.583,0,0,0-.413,1.185c.027,1.576,1.441,1.646,2.023,1.646h.085c1.866-.009,3.731-.006,5.6,0l2.8,0,2.8,0c1.865,0,3.732-.005,5.6,0A2.488,2.488,0,0,0,32.438,31.574Z"/><path class="a" d="M53.522,31.567a2.488,2.488,0,0,0,1.76.489c1.866-.009,3.733-.006,5.6,0l2.8,0,2.8,0c1.866,0,3.731-.007,5.6,0h.077c.578,0,2-.065,2.041-1.639a1.591,1.591,0,0,0-.411-1.2,2.232,2.232,0,0,0-1.646-.529q-8.466,0-16.936,0c-.57,0-2.086.009-2.1,1.662A1.631,1.631,0,0,0,53.522,31.567Z"/><path class="a" d="M27.511,73.965c-1.222.017-2.444.012-3.665.01l-1.52,0-1.527,0c-1.22,0-2.44,0-3.659-.006-1.6.01-1.952.894-1.966,1.655a1.617,1.617,0,0,0,.427,1.212,2.035,2.035,0,0,0,1.492.517c1.744.012,3.5.018,5.258.018s3.511-.006,5.254-.018a2.029,2.029,0,0,0,1.5-.55,1.608,1.608,0,0,0,.412-1.21C29.476,74.541,28.75,73.958,27.511,73.965Z"/><path class="a" d="M68.875,73.974c-1.153,0-2.308,0-3.459,0l-1.728,0-1.829,0c-1.163,0-2.327,0-3.49,0a1.665,1.665,0,0,0-1.92,1.574,1.634,1.634,0,0,0,.4,1.249,1.979,1.979,0,0,0,1.462.554c1.766.012,3.544.018,5.324.018s3.556-.006,5.322-.018A1.638,1.638,0,0,0,70.8,75.678C70.8,74.579,70.114,73.974,68.875,73.974Z"/><path class="a" d="M11.823,52.962c.25.54.885,1.408,1.572,1.436a2.111,2.111,0,0,0,1.636-1.329,11.248,11.248,0,0,0-.013-3.808,2.03,2.03,0,0,0-.194-.362,2.265,2.265,0,0,0,.207-.371,11.248,11.248,0,0,0-.013-3.808,2.123,2.123,0,0,0-1.643-1.336c-.614.021-1.279.844-1.572,1.474a4.5,4.5,0,0,0-.056,1.756,4.494,4.494,0,0,0,.076,1.8,3.4,3.4,0,0,0,.274.478,3.607,3.607,0,0,0-.294.508,4.529,4.529,0,0,0-.056,1.755A4.511,4.511,0,0,0,11.823,52.962Z"/><path class="a" d="M53.2,53.162A2.22,2.22,0,0,0,54.706,54.4l.047.01L54.8,54.4a1.876,1.876,0,0,0,1.464-1.139l.016-.063a15.494,15.494,0,0,0,0-4.042.789.789,0,0,0-.1-.274,1.6,1.6,0,0,0,.09-.155l.016-.063a15.529,15.529,0,0,0,0-4.041,2.02,2.02,0,0,0-1.615-1.255h-.03c-.549,0-1.239.73-1.458,1.281a5.541,5.541,0,0,0-.056,1.883,5.8,5.8,0,0,0,.077,2.093,2.384,2.384,0,0,0,.148.243,1.952,1.952,0,0,0-.169.315,5.545,5.545,0,0,0-.056,1.884A5.787,5.787,0,0,0,53.2,53.162Z"/><path class="a" d="M85.967,40.463q.006-14.921,0-29.836c0-.115,0-.231,0-.347,0-.024,0-.048-.006-.072,0-1.371,0-2.744,0-4.115,0-.117,0-.233,0-.352A5.912,5.912,0,0,0,79.89.022c-.886,0-1.776,0-2.667,0l-6.808,0q-8.079,0-16.158-.011h-.014a2.187,2.187,0,0,0-1.614.516,1.621,1.621,0,0,0-.437,1.2c0,1.04.724,1.654,1.991,1.684h1.07q12.018-.01,24.034,0c1.811,0,2.72.43,3.085,1.612A5.8,5.8,0,0,0,79.9,4.556c-.887-.005-1.778,0-2.668,0l-6.675,0q-8.149,0-16.291-.011c-1.705,0-2.064.932-2.064,1.714,0,1.044.724,1.658,1.991,1.684h1.07q12.017-.01,24.034,0c2.435,0,3.247.771,3.281,3.119V79.3c0,2.447-.828,3.274-3.281,3.274l-25.634,0c-2.058,0-4.185.007-6.3-.015-.052,0-.1.006-.159.005a2.542,2.542,0,0,1-2.541-2.554c-.011-.138-.005-.281-.008-.423q.008-34.224,0-68.443c0-.043-.008-.079-.008-.121q0-2.206,0-4.413c0-4.255-2.345-6.6-6.6-6.6Q22.22,0,6.4.013C2.454.013,0,2.467,0,6.418V79.562c0,.067.006.13.008.2v4.355c0,3.937,2.461,6.382,6.422,6.382H34.607a3.231,3.231,0,0,0,2.36-.611,1.449,1.449,0,0,0,.384-1.1c-.029-1.477-1.365-1.68-2.8-1.68q-14.022.009-28.041,0c-1.687,0-2.594-.492-2.937-1.679a7.561,7.561,0,0,0,2.855.521H34.6a3.231,3.231,0,0,0,2.359-.611,1.448,1.448,0,0,0,.385-1.1c-.028-1.476-1.364-1.679-2.8-1.679q-14.024.011-28.041,0c-2.179,0-3.053-.825-3.093-2.907V11.034c0-2.222.858-3.088,3.062-3.088q5.139-.015,10.274-.008h3.346l4.878,0c4.471,0,8.941,0,13.445.007a2.763,2.763,0,0,1,.56-.009,2.6,2.6,0,0,1,2.351,2.306q-.006,34.583.007,69.167V83.95c0,4.163,2.378,6.55,6.515,6.55H79.486c4.059,0,6.482-2.42,6.482-6.462V43.056Q85.968,41.759,85.967,40.463ZM44.826,85.4a7.843,7.843,0,0,0,3.014.558l15.824,0,15.822,0a7.814,7.814,0,0,0,2.9-.514c-.364,1.209-1.285,1.663-3.09,1.663l-25.63,0c-2.057.006-4.185.008-6.3-.015a1.354,1.354,0,0,0-.158,0A2.534,2.534,0,0,1,44.826,85.4ZM41.178,5.125a8.136,8.136,0,0,0-3.128-.574H6.408a7.467,7.467,0,0,0-2.844.523C3.907,3.89,4.8,3.4,6.458,3.394q4.542-.01,9.081,0l4.54,0,4.944,0c4.45,0,8.9,0,13.379.007a2.582,2.582,0,0,1,2.776,1.726Z"/><path class="a" d="M32.465,13.677a2.1,2.1,0,0,0-1.58-.532q-8.536-.011-17.072,0a2.189,2.189,0,0,0-1.63.541,1.6,1.6,0,0,0-.411,1.217c.051,1.571,1.456,1.642,2.038,1.642H13.9c2-.014,4.008-.012,6.01-.009l2.388,0,3.735,0q2.4,0,4.8,0a1.712,1.712,0,0,0,2.027-1.581A1.649,1.649,0,0,0,32.465,13.677Z"/><path class="a" d="M55.209,16.538q2.8-.007,5.6,0l2.8,0,2.389,0c2,0,4.008-.007,6.014.009h.059a2.3,2.3,0,0,0,1.7-.514,1.608,1.608,0,0,0,.426-1.2c0-.766-.375-1.679-2.114-1.679q-8.47-.015-16.939,0a2.183,2.183,0,0,0-1.624.523,1.635,1.635,0,0,0-.412,1.222C53.146,16.381,54.3,16.54,55.209,16.538Z"/><path class="a" d="M30.769,24.161H13.837a2.217,2.217,0,0,0-1.652.528,1.583,1.583,0,0,0-.415,1.186c.029,1.66,1.589,1.652,2.108,1.646,2.036-.013,4.072-.012,6.108-.008h4.367c2.108,0,4.215,0,6.321.012h.066a2.375,2.375,0,0,0,1.7-.482,1.636,1.636,0,0,0,.422-1.208C32.86,24.161,31.286,24.161,30.769,24.161Z"/><path class="a" d="M53.522,27.033a2.408,2.408,0,0,0,1.761.488c2.035-.013,4.071-.012,6.107-.008h4.584c2.036,0,4.07,0,6.1.008h.082c.58,0,2-.067,2.037-1.638a1.59,1.59,0,0,0-.411-1.2,2.2,2.2,0,0,0-1.646-.528q-8.469-.009-16.935,0c-.57,0-2.087,0-2.1,1.663A1.634,1.634,0,0,0,53.522,27.033Z"/><path class="a" d="M27.559,69.427h-.048c-1.223.017-2.446.012-3.665.01l-1.52,0-1.527,0c-1.219,0-2.439.005-3.659-.006h-.029c-1.574,0-1.923.9-1.937,1.655A1.617,1.617,0,0,0,15.6,72.3a2.035,2.035,0,0,0,1.492.517c1.744.012,3.5.017,5.258.017s3.512-.005,5.255-.017a2.039,2.039,0,0,0,1.5-.555,1.606,1.606,0,0,0,.409-1.2C29.479,70.018,28.767,69.427,27.559,69.427Z"/><path class="a" d="M68.875,69.433c-1.153,0-2.308,0-3.459,0l-1.728,0-1.817,0c-1.167,0-2.335.006-3.5,0s-1.857.577-1.92,1.574a1.633,1.633,0,0,0,.4,1.249,1.979,1.979,0,0,0,1.462.554c1.766.012,3.544.017,5.323.017s3.557-.005,5.324-.017A1.641,1.641,0,0,0,70.8,71.137C70.8,70.038,70.114,69.433,68.875,69.433Z"/></g></svg>