<svg id="Camada_1" data-name="Camada 1" xmlns="http://www.w3.org/2000/svg" viewBox="0 0 311 119"><defs><style>.cls-1{fill:#fff;}</style></defs><path class="cls-1" d="M114.59,38h10.14a13.77,13.77,0,0,1,4,.56,8.85,8.85,0,0,1,3.08,1.62,7.15,7.15,0,0,1,2,2.59,8.37,8.37,0,0,1,.69,3.49v.06a8.37,8.37,0,0,1-.76,3.69,7.33,7.33,0,0,1-2.1,2.68,9.05,9.05,0,0,1-3.2,1.62,14.59,14.59,0,0,1-4,.54h-3.26v6.74h-6.54Zm9.67,11.73a4.18,4.18,0,0,0,2.73-.84,2.81,2.81,0,0,0,1-2.26v-.07a2.7,2.7,0,0,0-1-2.29,4.45,4.45,0,0,0-2.76-.78h-3.1v6.24Z"/><path class="cls-1" d="M142.89,37.84h6.3l10,23.75h-7l-1.69-4.25H141.4l-1.68,4.25h-6.84Zm5.73,14.41L146,45.58l-2.66,6.67Z"/><path class="cls-1" d="M160.68,38h11.15a13.64,13.64,0,0,1,4.61.68,8.05,8.05,0,0,1,3.07,1.85A7.43,7.43,0,0,1,181.6,46v.07a7.47,7.47,0,0,1-1.32,4.53,8.31,8.31,0,0,1-3.53,2.75l5.62,8.22h-7.51l-4.75-7.15h-2.9v7.15h-6.54Zm10.88,11.32a3.93,3.93,0,0,0,2.58-.76,2.49,2.49,0,0,0,.92-2v-.07a2.43,2.43,0,0,0-1-2.12,4.2,4.2,0,0,0-2.57-.71h-4.32v5.69Z"/><path class="cls-1" d="M205.72,62.29,203.12,60a12.33,12.33,0,0,1-3.33,1.55,13.86,13.86,0,0,1-3.84.54,13,13,0,0,1-5-1,12.29,12.29,0,0,1-4-2.61,12.12,12.12,0,0,1-2.65-3.88,11.93,11.93,0,0,1-1-4.75V49.8a12.06,12.06,0,0,1,3.64-8.68,12.69,12.69,0,0,1,4-2.63,13.79,13.79,0,0,1,10.11,0,12.56,12.56,0,0,1,4,2.61A12.12,12.12,0,0,1,207.73,45a11.93,11.93,0,0,1,1,4.75v.07a11.79,11.79,0,0,1-.56,3.58,13.39,13.39,0,0,1-1.53,3.19l2.42,2Zm-9.7-6a6.53,6.53,0,0,0,2.36-.43L195.11,53l3.3-3.71,3.2,2.93a6.77,6.77,0,0,0,.4-2.36v-.06a7,7,0,0,0-.44-2.45,6.39,6.39,0,0,0-1.24-2,6.46,6.46,0,0,0-1.92-1.4,5.83,5.83,0,0,0-6.8,1.4,6.47,6.47,0,0,0-1.22,2,6.87,6.87,0,0,0-.44,2.42v.07a7,7,0,0,0,.44,2.44,6.54,6.54,0,0,0,1.23,2,5.83,5.83,0,0,0,1.9,1.4,5.67,5.67,0,0,0,2.5.52Z"/><path class="cls-1" d="M221.82,62a14.64,14.64,0,0,1-4.51-.64A8.41,8.41,0,0,1,211.7,56a13.71,13.71,0,0,1-.76-4.8V38h6.6V51.11a5.3,5.3,0,0,0,1.18,3.79,4.19,4.19,0,0,0,3.17,1.23,4.36,4.36,0,0,0,3.2-1.18,5,5,0,0,0,1.18-3.67V38h6.6V51.08a14.14,14.14,0,0,1-.79,4.9,9.26,9.26,0,0,1-2.23,3.42,9,9,0,0,1-3.47,2A15,15,0,0,1,221.82,62Z"/><path class="cls-1" d="M235.91,38h19v5.53h-12.5v3.6h11.32v5.15H242.37V56H255v5.56H235.91Z"/><path class="cls-1" d="M114.59,69.55h19v5.53h-12.5v3.6h11.32v5.16H121.06v3.74h12.67v5.56H114.59Z"/><path class="cls-1" d="M145.52,93.54a18.27,18.27,0,0,1-6-1,14.94,14.94,0,0,1-5.06-2.93l3.64-4.34a12.23,12.23,0,0,0,7.65,2.83,4,4,0,0,0,2-.42,1.34,1.34,0,0,0,.69-1.2v-.07a1.45,1.45,0,0,0-.17-.67,1.59,1.59,0,0,0-.62-.56,8.13,8.13,0,0,0-1.23-.5c-.52-.17-1.18-.36-2-.56-1.26-.29-2.42-.61-3.5-1a10.41,10.41,0,0,1-2.81-1.35,5.66,5.66,0,0,1-2.58-5.07V76.7a7.31,7.31,0,0,1,.62-3,6.72,6.72,0,0,1,1.82-2.4,8.58,8.58,0,0,1,2.88-1.56,12,12,0,0,1,3.81-.56,17.13,17.13,0,0,1,5.41.79,13.84,13.84,0,0,1,4.3,2.34l-3.27,4.62a12.28,12.28,0,0,0-3.32-1.75,10.54,10.54,0,0,0-3.29-.58,3,3,0,0,0-1.76.43,1.26,1.26,0,0,0-.59,1.1v.06a1.34,1.34,0,0,0,.18.71,1.65,1.65,0,0,0,.64.56,8,8,0,0,0,1.25.5c.53.17,1.21.34,2,.52a29,29,0,0,1,3.64,1,11.48,11.48,0,0,1,2.76,1.43,5.65,5.65,0,0,1,1.75,2,6.36,6.36,0,0,1,.61,2.85v.07a7.37,7.37,0,0,1-.69,3.23,7,7,0,0,1-1.94,2.41,8.66,8.66,0,0,1-3,1.51A13.26,13.26,0,0,1,145.52,93.54Z"/><path class="cls-1" d="M157.38,69.55h10.14a13.65,13.65,0,0,1,4,.56,8.89,8.89,0,0,1,3.09,1.62,7.27,7.27,0,0,1,2,2.59,8.53,8.53,0,0,1,.69,3.49v.07a8.61,8.61,0,0,1-.76,3.68,7.47,7.47,0,0,1-2.11,2.68,9,9,0,0,1-3.2,1.62,14.47,14.47,0,0,1-4,.54h-3.27v6.74h-6.53ZM167,81.28a4.18,4.18,0,0,0,2.73-.84,2.78,2.78,0,0,0,1-2.26v-.07a2.7,2.7,0,0,0-1-2.29,4.38,4.38,0,0,0-2.76-.77h-3.1v6.23Z"/><path class="cls-1" d="M191.1,93.61a13,13,0,0,1-5-1A12.29,12.29,0,0,1,182,90a12,12,0,0,1-3.61-8.63v-.06a12,12,0,0,1,3.64-8.68,12.69,12.69,0,0,1,4-2.63,13.79,13.79,0,0,1,10.11,0,12.51,12.51,0,0,1,4,2.61,12.14,12.14,0,0,1,2.64,3.88,11.73,11.73,0,0,1,1,4.75v.06A12,12,0,0,1,200.19,90a12.75,12.75,0,0,1-4,2.63A13.22,13.22,0,0,1,191.1,93.61Zm.07-5.9a5.71,5.71,0,0,0,4.31-1.87,6.61,6.61,0,0,0,1.21-2,7,7,0,0,0,.44-2.43v-.06a7,7,0,0,0-.44-2.45,6.21,6.21,0,0,0-1.23-2,5.8,5.8,0,0,0-1.9-1.39,6.27,6.27,0,0,0-4.92,0,5.8,5.8,0,0,0-1.89,1.37,6.37,6.37,0,0,0-1.21,2,6.91,6.91,0,0,0-.44,2.42v.07a7,7,0,0,0,.44,2.43,6.33,6.33,0,0,0,1.25,2,6.05,6.05,0,0,0,1.92,1.4,5.78,5.78,0,0,0,2.46.52Z"/><path class="cls-1" d="M206.36,69.55h11.15a13.66,13.66,0,0,1,4.62.68,8,8,0,0,1,3.06,1.85,7.38,7.38,0,0,1,2.09,5.49v.07A7.46,7.46,0,0,1,226,82.17a8.24,8.24,0,0,1-3.54,2.74l5.63,8.22h-7.52L215.79,86h-2.9v7.14h-6.53Zm10.88,11.32a4,4,0,0,0,2.58-.75,2.52,2.52,0,0,0,.93-2V78a2.49,2.49,0,0,0-1-2.12,4.23,4.23,0,0,0-2.58-.71H212.9v5.69Z"/><path class="cls-1" d="M235.5,75.28h-7V69.55h20.65v5.73H242V93.14H235.5Z"/><path class="cls-1" d="M251.3,69.55h6.54V93.14H251.3Z"/><path class="cls-1" d="M259.45,69.55h7.28l5.36,14.93,5.39-14.93h7.14l-9.57,23.76H269Z"/><path class="cls-1" d="M296.44,93.61a13.07,13.07,0,0,1-5.05-1,12.51,12.51,0,0,1-4-2.61,12.14,12.14,0,0,1-2.64-3.88,11.73,11.73,0,0,1-1-4.75v-.06a12,12,0,0,1,3.64-8.68,12.58,12.58,0,0,1,4-2.63,13.79,13.79,0,0,1,10.11,0,12.68,12.68,0,0,1,4,2.61,12.25,12.25,0,0,1,2.64,3.88,11.93,11.93,0,0,1,1,4.75v.07A12,12,0,0,1,305.54,90a12.69,12.69,0,0,1-4,2.63A13.08,13.08,0,0,1,296.44,93.61Zm.07-5.9a5.69,5.69,0,0,0,4.31-1.87,6.44,6.44,0,0,0,1.22-2,6.73,6.73,0,0,0,.43-2.43v-.06A6.8,6.8,0,0,0,302,78.9a6.38,6.38,0,0,0-1.23-2,5.9,5.9,0,0,0-1.9-1.39,6.27,6.27,0,0,0-4.92,0,5.7,5.7,0,0,0-1.89,1.37,6.19,6.19,0,0,0-1.21,2,6.69,6.69,0,0,0-.44,2.42v.07a6.74,6.74,0,0,0,.44,2.43,6.3,6.3,0,0,0,1.24,2,6.21,6.21,0,0,0,1.93,1.4,5.74,5.74,0,0,0,2.45.52Z"/><circle class="cls-1" cx="31.37" cy="53.1" r="10.89"/><path class="cls-1" d="M60.16,22.25c8-.33,13.49,1,17.25,3.2.32.19.64.39.94.6a14.47,14.47,0,0,1,1.27.95c.26.23.52.45.76.69s.23.23.35.35.45.48.66.72a15.35,15.35,0,0,1,1.13,1.52c.16.26.32.52.47.79s.43.8.62,1.21a16.61,16.61,0,0,1,.65,1.65c.19.56.35,1.12.48,1.67a26.77,26.77,0,0,1,.69,5.64c0,.23,0,.45,0,.68v.19c0,.17,0,.35,0,.52a.76.76,0,0,1,0,.15c0,.22,0,.43-.05.64,0,0,0,.1,0,.15s0,.34-.07.5a1.11,1.11,0,0,1,0,.19c0,.2-.07.4-.1.59v0l-.12.58c0,.06,0,.12,0,.18s-.07.3-.11.45,0,.11,0,.16-.11.38-.17.56l-.06.17-.14.41c0,.07,0,.13-.08.19s-.12.32-.19.48l-.06.14-.21.45a1.24,1.24,0,0,1-.1.2l-.18.36a1.62,1.62,0,0,1-.1.18c-.08.16-.17.32-.26.48l-.12.19L83,50.4l-.14.21-.22.34-.19.27-.23.31c0,.08-.11.15-.16.22s-.13.18-.2.26l-.17.22-.34.4-.07.08c.47-.35,1-.71,1.41-1.07,1.49-1.14,3-2.29,4.37-3.47a55.52,55.52,0,0,0,7.66-7.67,32.83,32.83,0,0,0,5.26-9.19,31.65,31.65,0,0,0,1.44-5.23,47.49,47.49,0,0,0,.63-4.75C96.29,6.91,82.76,2.11,70.09,1.87H67.67l-.72,0h-.1l-.68,0h-.11L65.4,2h-.14l-.63,0-.18,0-.58,0-.2,0-.55.05-.24,0-.51.06-.25,0-.5.06-.3,0-.44.06-.32.05-.41.06-.39.07-.33,0L59,2.76l-.24,0-.7.14C42.42,8,47.16,22.8,60.16,22.25Z"/><path class="cls-1" d="M41,87.8c-.47.3-1,.58-1.41.88l-1.4.91-1.37,1c-.46.31-.9.65-1.35,1s-.89.66-1.33,1-.88.68-1.31,1l-.65.52-.64.53c-.43.35-.86.7-1.27,1.07a70.46,70.46,0,0,0-9.26,9.5,45.61,45.61,0,0,0-3.26,4.65l.8.74h0l.07.06.78.67.17.14c.6.49,1.21,1,1.84,1.42l.16.11.81.56.18.12c.65.43,1.31.83,2,1.21l.22.13.85.45.2.11,1.06.52.1,0,1,.43.28.12c.3.13.6.25.91.36l.2.08c.37.14.74.28,1.12.4l.24.08.92.29.33.1,1,.28.16.05,1.2.28.32.07.94.19.36.06c.41.08.83.15,1.25.21,3.08.45,4.5-1.19,5-3.74,0-.24.09-.49.13-.75s.08-.79.1-1.21,0-.56,0-.85a31.14,31.14,0,0,0-.3-4.09l-.06-.46c-.06-.47-.13-.93-.21-1.39,0-.16-.05-.31-.07-.46-.13-.76-.26-1.51-.4-2.23-.08-.43-.15-.85-.23-1.25s-.1-.54-.15-.79c-.12-.64-.22-1.24-.3-1.77,0-.21-.07-.41-.09-.61a8.23,8.23,0,0,1-.1-1.21c0-.25,0-.49,0-.72s0-.16,0-.24,0-.31,0-.46,0-.18,0-.28,0-.27,0-.4l0-.29c0-.12,0-.25,0-.37a2.5,2.5,0,0,1,.05-.29c0-.12,0-.24,0-.35s0-.2.06-.3l.07-.33c0-.11,0-.2.07-.3s0-.22.08-.32,0-.2.08-.29l.09-.3.09-.29c0-.1.06-.19.1-.29a2.47,2.47,0,0,0,.1-.29c0-.09.07-.18.1-.27l.12-.29c0-.09.07-.17.11-.25s.09-.19.13-.29a1.79,1.79,0,0,1,.12-.24l.13-.28.13-.24.15-.27a1.59,1.59,0,0,1,.13-.22,2.54,2.54,0,0,1,.16-.28l.13-.2.18-.28a2.14,2.14,0,0,1,.13-.19l.2-.28.12-.17.21-.28L44,88a3.25,3.25,0,0,1,.23-.29.69.69,0,0,1,.11-.13l.26-.3.08-.09.3-.32,0,0a21,21,0,0,1,4.11-3.3A74.36,74.36,0,0,0,41,87.8Z"/><path class="cls-1" d="M14.05,19.91c-.33,2.09-.6,4.17-.84,6.25-.34,3-.6,6.07-.72,9.1a86.31,86.31,0,0,0,.1,9.1c.13,1.76.33,3.52.62,5.28,1.46-7,12.9-13,19.94-19.9l0,0,.46-.46,0-.05c.14-.15.28-.29.41-.44l.08-.07.38-.42.09-.1c.12-.13.24-.27.35-.41l.1-.1.32-.4.1-.13.3-.38.11-.14.28-.38.11-.15.24-.37.12-.17c.07-.11.15-.23.22-.36S37,25.08,37,25l.2-.36.1-.18a3.91,3.91,0,0,0,.18-.35l.1-.2c.06-.11.11-.23.16-.34l.09-.21c0-.11.09-.23.14-.34s.05-.14.08-.22l.12-.34c0-.07,0-.14.07-.22l.09-.34.06-.22c0-.12.05-.24.08-.35s0-.15,0-.23,0-.23,0-.35,0-.15,0-.22l0-.4c0-.06,0-.13,0-.19s0-.39,0-.59,0-.46,0-.68a1.23,1.23,0,0,0,0-.2c0-.16,0-.31-.05-.46l0-.21-.06-.41a1.89,1.89,0,0,0-.05-.23l-.06-.36-.06-.23a3.18,3.18,0,0,0-.08-.33L38.14,16l-.09-.32c0-.06,0-.13-.07-.2s-.06-.2-.1-.3-.05-.12-.07-.19-.08-.19-.11-.28l-.09-.18-.12-.27-.09-.17c0-.08-.09-.16-.13-.24l-.1-.16L37,13.5c0-.06-.07-.1-.1-.15l-.15-.22a1.34,1.34,0,0,1-.11-.14,1.56,1.56,0,0,1-.16-.2l-.12-.13-.17-.18-.13-.12-.17-.17-.13-.11-.19-.15-.13-.1-.19-.13-.15-.09a1.37,1.37,0,0,0-.2-.13l-.15-.08-.2-.11-.16-.07-.2-.09L34,11.06,33.83,11l-.17-.05-.22-.07-.18,0L33,10.76l-.19,0-.21,0-.2,0-.22,0-.21,0H31.8l-.22,0h-1.1l-.25,0H30l-.25,0-.21,0-.26,0-.2,0-.28.06-.19,0-.29.07-.19,0-.3.07-.17.05-.32.09-.16,0-.33.1-.16,0-.33.12-.15,0-.35.13-.14,0-.35.14-.14.05-.36.16-.12,0-.38.17-.11.05-.39.18-.1.05-.4.2-.09,0-.4.21-.08,0-.42.23-.07,0-.42.24-.06,0-.42.25-.06,0-.43.27,0,0-.44.28,0,0-.43.29,0,0-.44.3,0,0-.44.31h0l-.43.32h0l-.43.33h0l-.44.34h0l-.42.35h0c-.71.59-1.38,1.19-2,1.8h0l-.37.37h0l-.35.37h0l-.07.07C14.36,19.56,14.21,19.73,14.05,19.91Z"/><path class="cls-1" d="M102.52,22.71a32.92,32.92,0,0,1,0,3.44,26.19,26.19,0,0,1-.94,5.63,28.66,28.66,0,0,1-5.24,10.08A41.59,41.59,0,0,1,88,49.58q-2.32,1.65-4.79,3.08c-1.34.76-2.7,1.47-4.09,2.15L79,55l-.09.08h0c-7.32,6.34-19.21,9.58-27.5,12-33.91,6.62-37-9.36-38.27-15.28a29.18,29.18,0,0,1-2.2-7.19,44.74,44.74,0,0,1-.58-9.39,54,54,0,0,1,1.22-9.3c.32-1.44.7-2.86,1.15-4.26-13.33,18-17,65.89,4.18,87.3a35.85,35.85,0,0,1,2.78-4.8A53.39,53.39,0,0,1,28.84,94c.43-.38.87-.73,1.32-1.1l.66-.54.68-.52c.46-.35.91-.69,1.38-1s.92-.68,1.4-1a55.16,55.16,0,0,1,5.87-3.51A45.55,45.55,0,0,1,51.4,82.15a.58.58,0,0,0,.17-.06c5.27-2.68,11.34-4.15,15.61-5.9C105.06,60.71,106.88,35.62,102.52,22.71Z"/></svg>