<svg xmlns="http://www.w3.org/2000/svg" width="27.526" height="27.534" viewBox="0 0 27.526 27.534"><defs><style>.a{fill:#fff;}</style></defs><g transform="translate(0)"><path class="a" d="M-449.4,530.343q-2.994-.626-5.982-1.279a1.015,1.015,0,0,0-1.022.3c-.675.694-1.369,1.368-2.047,2.059a.25.25,0,0,1-.357.056,22.668,22.668,0,0,1-9.73-9.71.3.3,0,0,1,.075-.423c.693-.676,1.37-1.368,2.059-2.047a.944.944,0,0,0,.283-.929q-.663-3.081-1.328-6.162a.853.853,0,0,0-.957-.747,7.4,7.4,0,0,0-5.038,1.959,7.529,7.529,0,0,0-2.467,7.254,13.572,13.572,0,0,0,1.232,3.363,27.743,27.743,0,0,0,12.826,13.212,19.308,19.308,0,0,0,3.9,1.559,5.164,5.164,0,0,1,.873.188h.376a.411.411,0,0,1,.323,0h.538a.07.07,0,0,1,.108,0h.215a.074.074,0,0,1,.046-.025,6.073,6.073,0,0,0,2.718-.753,7.765,7.765,0,0,0,3.754-4.11,7.1,7.1,0,0,0,.474-2.05V531.04A1.066,1.066,0,0,0-449.4,530.343Zm-.927,1.88a6.054,6.054,0,0,1-5.008,4.98,4.131,4.131,0,0,1-.951.071,7.216,7.216,0,0,1-2.911-.7,25.95,25.95,0,0,1-12.927-11.31,19.718,19.718,0,0,1-2.019-4.574,6.023,6.023,0,0,1,4.924-7.447c.181-.026.245.02.282.2q.5,2.376,1.016,4.748a.283.283,0,0,1-.107.3q-1.086,1.082-2.168,2.167a.9.9,0,0,0-.213,1.208,24.279,24.279,0,0,0,11.494,11.484.885.885,0,0,0,1.166-.2q1.1-1.091,2.184-2.188a.325.325,0,0,1,.351-.1q2.319.508,4.644.989C-450.329,531.9-450.285,531.99-450.329,532.223Z" transform="translate(476.06 -511.465)"/></g></svg>