<svg xmlns="http://www.w3.org/2000/svg" width="45.96" height="46.099" viewBox="0 0 45.96 46.099"><defs><style>.a{fill:#fff;}</style></defs><g transform="translate(-1110.035 -1279.252)"><path class="a" d="M1154.45,1294.262c-3.15-8.505-9.5-13.47-18.517-14.777a21.605,21.605,0,0,0-14.708,3.113,22.8,22.8,0,0,0-8.138,30.591.879.879,0,0,1,.08.722c-1.044,3.783-2.075,7.569-3.132,11.438.221-.053.372-.086.522-.125q5.558-1.455,11.114-2.919a1.159,1.159,0,0,1,.9.1,22.338,22.338,0,0,0,14.043,2.277,21.833,21.833,0,0,0,13.773-7.744C1155.993,1310.179,1157.491,1302.475,1154.45,1294.262Zm-13.9,25.277a18.434,18.434,0,0,1-17.286-1.165,1.438,1.438,0,0,0-1.2-.167c-2.151.589-4.311,1.146-6.54,1.735.6-2.22,1.176-4.362,1.781-6.494a1.07,1.07,0,0,0-.141-.971,19.023,19.023,0,0,1,12.987-29.126,18.974,18.974,0,0,1,10.4,36.188Z" transform="translate(0 0)"/><path class="a" d="M1290.432,1465.109c-.115-.056-.229-.112-.344-.167-1.267-.6-2.5-1.275-3.808-1.786a.852.852,0,0,0-1.24.338c-.565.715-1.146,1.416-1.714,2.128a.892.892,0,0,1-1.147.287,15.7,15.7,0,0,1-7.849-6.739.891.891,0,0,1,.081-1.172,17.066,17.066,0,0,0,1.439-1.914,1.024,1.024,0,0,0,.1-1q-.94-2.25-1.876-4.5a1.2,1.2,0,0,0-1.322-.87,5.84,5.84,0,0,1-.863-.009,2.074,2.074,0,0,0-1.6.642,6.316,6.316,0,0,0-2.049,4.7,7.5,7.5,0,0,0,.556,2.886,18.153,18.153,0,0,0,3.037,4.851,22.247,22.247,0,0,0,9.52,7.34,11.249,11.249,0,0,0,5.674,1.027,5.1,5.1,0,0,0,4.353-4.262C1291.544,1465.747,1291.476,1465.62,1290.432,1465.109Z" transform="translate(-146.78 -158.133)"/></g></svg>