<?xml version="1.0" encoding="utf-8"?>
<!-- Generator: Adobe Illustrator 25.4.4, SVG Export Plug-In . SVG Version: 6.00 Build 0)  -->
<svg version="1.1" id="Camada_1" xmlns="http://www.w3.org/2000/svg" xmlns:xlink="http://www.w3.org/1999/xlink" x="0px" y="0px"
	 viewBox="0 0 100 100" style="enable-background:new 0 0 100 100;" xml:space="preserve">
<style type="text/css">
	.st0{clip-path:url(#SVGID_00000145752687528605768570000008778411810586534822_);}
	.st1{fill:#F5F5F5;stroke:#F5F5F5;stroke-width:0.25;}
	.st2{fill:#FFFFFF;}
</style>
<g>
	<g id="Grupo_1544_00000041993475343941888360000008532934935486671501_" transform="translate(-46.792 -46.083)">
		<path id="Caminho_1451_00000181059079499161630370000012180560987431162528_" class="st2" d="M111.6,124c-0.1-0.2-0.2-0.3-0.5-0.3
			c-12.6,0-37.8,0.1-37.8,0.1h0.2c-0.2,0-0.4,0-0.5,0c-0.8-0.1-1.5-0.4-2.1-1c-1-1.2-1-3,0.3-4.3c0.6-0.5,1.4-0.7,2.2-0.7h0
			c8.2,0,16.5,0,24.8,0c0.1,0,0.1,0,0.1,0c0,0,0-0.1,0-0.1c0-1.3,0-2.6,0-3.8c0,0,0-0.1,0-0.1c-0.1,0-0.1,0-0.2,0
			c-2.7,0-5.4,0-8.1,0c-3.9,0-7.9,0-11.8,0c-0.6,0-1.3,0-1.9,0c-1.8-0.1-3.7,0-5.5,0.4l-0.6,0.2V71.7c-0.2-1.7,1.1-3.2,2.7-3.3
			c0.2,0,0.4,0,0.5,0c0.4,0,0.8,0,1.2,0c0.9,0,1.9,0,2.9,0c0.3,0,0.6,0.1,0.9,0.3c0.2,0.3,0.3,0.6,0.3,0.9c0,8.1,0,16.3,0,24.5
			l1.4-1.1c2-1.5,4-3,6-4.6c0.4-0.4,1.1-0.4,1.6,0l0,0c0.6,0.5,1.2,1,1.9,1.4l5.6,4.2c0-8.2,0-16.3,0-24.5c0-0.3,0.1-0.6,0.3-0.9
			c0.2-0.2,0.5-0.3,0.8-0.3l0.7,0c4.5,0,9.1,0,13.7,0c0.8-0.1,1.7,0.2,2.3,0.7c0.6,0.5,1,1.3,1.1,2.1c0,0.1,0,0.3,0,0.4
			c0,3.1,0,6.3,0,9.4c0,2.4,0,4.8,0,7.2c-0.1,0.5,0.2,1,0.6,1.3c1,0.7,2,1.5,2.9,2.2l0.4,0.3c0-1.6,0-3.2,0-4.8c0-5.4,0-11,0-16.4
			c0-2.2-1.3-4.2-3.3-5.3c-0.9-0.5-1.8-0.8-2.7-1H71.5c-0.9,0.1-1.7,0.3-2.4,0.7c-2,1-3.3,2.9-3.5,5v1c0,0,0.3,0.5,0.9,0.8v48.1
			c-0.6,0.3-0.6,0.5-0.9,0.8v0.7c0.6,3.1,3,5.6,6.2,5.8h41.6l-0.2-0.2C112.6,126.2,112.1,125.1,111.6,124z M82.7,68.6
			c0.2-0.2,0.6-0.3,0.9-0.3c1.6,0,3.1,0,4.7,0l1.7,0c0.2,0,0.5,0,0.7,0.2c0.2,0.2,0.3,0.4,0.2,0.7c0,4,0,7.9,0,11.9v4.3l-0.7-0.2
			l-1-0.8c-0.8-0.6-1.5-1.1-2.2-1.7l-0.1-0.1c-0.1-0.1-0.2-0.1-0.3,0c0,0,0,0,0,0l-0.1,0.1c-0.7,0.6-1.5,1.2-2.2,1.7
			c-0.3,0.2-0.6,0.4-0.9,0.7l-0.4,0.3l-0.3-0.3c-0.2-0.2-0.3-0.5-0.2-0.8c0,0,0,0,0-0.1v-4.7c0-3.3,0-6.7,0-10
			C82.4,69.2,82.5,68.9,82.7,68.6z M116,110.4l12.1-1.2L104,89.7v29.4l1.6-1.4c1.9-1.6,3.8-3.3,5.7-4.9c0.2-0.2,0.5-0.4,0.8-0.4
			c0,0,0.1,0,0.1,0c0.4,0.1,0.6,0.5,0.7,0.7c0.9,1.9,1.8,3.9,2.7,5.8c0.9,1.9,1.8,3.8,2.7,5.8c0,0,0,0.1,0,0.1l0,0
			c1.2-0.6,2.4-1.2,3.6-1.7c-0.8-1.6-1.5-3.2-2.3-4.8L116,110.4z M115.4,106.6c-1,0.1-2,0.2-3,0.3h0c-0.2,0-0.4,0.1-0.5,0.2
			c-0.8,0.7-1.6,1.3-2.4,2l-1.7,1.5V98.3l9.9,8L115.4,106.6z"/>
	</g>
</g>
</svg>
