<svg id="Grupo_3845" data-name="Grupo 3845" xmlns="http://www.w3.org/2000/svg" width="167" height="167" viewBox="0 0 167 167">
  <circle id="Elipse_269" data-name="Elipse 269" cx="83.5" cy="83.5" r="83.5" fill="#e4b661"/>
  <path id="Caminho_4379" data-name="Caminho 4379" d="M633.007,230.9a1.176,1.176,0,0,0-1.152,1.152,1.122,1.122,0,0,0,1.152,1.143h1.31v9.362a6.2,6.2,0,0,0,6.157,6.157c.249,0-.166,0,7.308-1.234v7.224a2.721,2.721,0,0,0,2.626,2.71h8.371a1.108,1.108,0,0,0,1.068-1.152,1.25,1.25,0,0,0-1.152-1.234h-8.287a.524.524,0,0,1-.413-.406v-8.617a.892.892,0,0,0-.406-.821.924.924,0,0,0-.6-.233.681.681,0,0,0-.3.068l-8.293,1.394a3.731,3.731,0,0,1-3.772-3.854v-10.5a1.237,1.237,0,0,0-1.15-1.152Z" transform="translate(-571.086 -135.384)" fill="#fff" fill-rule="evenodd"/>
  <path id="Caminho_4376" data-name="Caminho 4376" d="M644.743,199.244a1.133,1.133,0,0,0-.642.193,25.9,25.9,0,0,0-11.51,21.551,21.466,21.466,0,0,0,.333,4.036c-4.523,13.654-4.854,13.57-4.854,15.464a6.367,6.367,0,0,0,1.808,4.527,1.476,1.476,0,0,0,.877.311,1.053,1.053,0,0,0,.766-.311,1.183,1.183,0,0,0,0-1.728,4.424,4.424,0,0,1-.9-4.278l4.6-13.577c.167-.166.167-.408,0-.49a33.759,33.759,0,0,1-.248-3.954,23.764,23.764,0,0,1,10.446-19.74,1.225,1.225,0,0,0,.242-1.486,1.035,1.035,0,0,0-.918-.518" transform="translate(-572.751 -149.31)" fill="#fff" fill-rule="evenodd"/>
  <path id="Caminho_4380" data-name="Caminho 4380" d="M652.657,196.319a25.5,25.5,0,0,0-10.374,2.186,1.222,1.222,0,0,0-.657,1.569,1.1,1.1,0,0,0,1.1.72,1.758,1.758,0,0,0,.456-.062,22.855,22.855,0,0,1,9.622-1.978c15.873.084,27.634,15.236,22.454,31.456A1.172,1.172,0,0,0,676,231.7a1.555,1.555,0,0,0,.351.049,1.036,1.036,0,0,0,1.044-.789,26.651,26.651,0,0,0-6.494-27.182,26.025,26.025,0,0,0-18.248-7.455" transform="translate(-566.815 -150.595)" fill="#fff" fill-rule="evenodd"/>
  <path id="Caminho_4388" data-name="Caminho 4388" d="M669.485,222.133a1.2,1.2,0,0,0-1.027.642c-1.074,1.977-3.716,5.265-3.716,11.353V258.56a.437.437,0,0,1-.416.407H654.009a1.133,1.133,0,0,0-1.157,1.155,1.18,1.18,0,0,0,1.157,1.153h10.318a2.727,2.727,0,0,0,2.642-2.716V234.128c0-5.347,2.4-8.146,3.551-10.282a1.371,1.371,0,0,0-.492-1.568,1.145,1.145,0,0,0-.541-.145" transform="translate(-561.852 -139.242)" fill="#fff" fill-rule="evenodd"/>
  <path id="Caminho_4381" data-name="Caminho 4381" d="M640.78,218.858a.935.935,0,0,0-.559.177l-2.763,1.512a1.349,1.349,0,0,0-.4,1.6,1.243,1.243,0,0,0,1.05.672.783.783,0,0,0,.573-.163l2.762-1.52a1.614,1.614,0,0,0,.321-1.682,1.12,1.12,0,0,0-.982-.593" transform="translate(-568.849 -140.682)" fill="#fff" fill-rule="evenodd"/>
  <path id="Caminho_4391" data-name="Caminho 4391" d="M658.833,219.207a1.312,1.312,0,0,0-1.06.51,1.127,1.127,0,0,0,.416,1.516c2.8,1.516,2.8,1.677,3.3,1.677,1.24-.081,1.649-1.6.665-2.073l-2.8-1.522a1.175,1.175,0,0,0-.513-.108" transform="translate(-559.752 -140.529)" fill="#fff" fill-rule="evenodd"/>
  <path id="Caminho_4382" data-name="Caminho 4382" d="M649.137,215.568a.945.945,0,0,1,1.031.921v.9h-1.155a.911.911,0,0,1-.906-.9.948.948,0,0,1,1.029-.921m8.319,0a.948.948,0,0,1,1.03.921.911.911,0,0,1-.906.9h-1.155v-.9a.945.945,0,0,1,1.031-.921m-3.417,15.674H652.31V219.607h1.729Zm3.7,4.5h-9.051v-2.291h9.051Zm-.082,2.216v1.307h.082a.927.927,0,0,1-.906.983h-7.321a.927.927,0,0,1-.905-.983v-1.307Zm-1.971,4.424a2.424,2.424,0,0,1-2.468,1.968,2.655,2.655,0,0,1-2.558-1.968Zm-2.44-37.114a12.92,12.92,0,0,0-8.76,22.451,5.654,5.654,0,0,1,1.811,4.342v7.2a2.956,2.956,0,0,0,1.977,2.87,4.982,4.982,0,0,0,4.861,4.507,4.847,4.847,0,0,0,4.854-4.507,3.268,3.268,0,0,0,1.895-2.87V231.9a3.159,3.159,0,0,1,.166-1.231,1.117,1.117,0,0,0-.906-1.307.758.758,0,0,0-.18-.014,1.176,1.176,0,0,0-1.14.832c-.083.324-.083.737-.166,1.067h-1.48V219.607h1.155a3.155,3.155,0,1,0,0-6.309h-.166a3.151,3.151,0,0,0-3.208,3.192v.9h-1.729v-.9a3.208,3.208,0,0,0-3.215-3.192h-.242a3.155,3.155,0,0,0,0,6.309h1.147v11.635h-1.4A8.269,8.269,0,0,0,645.887,226a10.712,10.712,0,0,1-3.457-7.866,10.6,10.6,0,0,1,10.7-10.65h.325a10.637,10.637,0,0,1,10.371,10.4v.084a10.364,10.364,0,0,1-3.291,7.7,1.192,1.192,0,0,0,.823,2.01,1.145,1.145,0,0,0,.822-.373,12.635,12.635,0,0,0,.166-18.185,12.464,12.464,0,0,0-8.809-3.853Z" transform="translate(-567.378 -146.661)" fill="#fff" fill-rule="evenodd"/>
  <path id="Caminho_4389" data-name="Caminho 4389" d="M649.617,200.444a1.281,1.281,0,0,0-1.235,1.14v3.171a1.275,1.275,0,0,0,1.235,1.14,1.209,1.209,0,0,0,1.228-1.14v-3.171a1.214,1.214,0,0,0-1.228-1.14" transform="translate(-563.818 -148.782)" fill="#fff" fill-rule="evenodd"/>
  <path id="Caminho_4383" data-name="Caminho 4383" d="M643.049,202.17a.96.96,0,0,0-.544.164,1.026,1.026,0,0,0-.4,1.467l1.508,2.757a1.045,1.045,0,0,0,.923.56.873.873,0,0,0,.5-.15,1.087,1.087,0,0,0,.392-1.543l-1.5-2.682a.938.938,0,0,0-.877-.573" transform="translate(-566.648 -148.023)" fill="#fff" fill-rule="evenodd"/>
  <path id="Caminho_4384" data-name="Caminho 4384" d="M638.049,206.989a.986.986,0,0,0-.921.593,1.05,1.05,0,0,0,.416,1.509c2.721,1.594,2.721,1.849,3.3,1.849a1.169,1.169,0,0,0,.991-.671,1.088,1.088,0,0,0-.409-1.594l-2.8-1.516a1.044,1.044,0,0,0-.569-.17" transform="translate(-568.84 -145.903)" fill="#fff" fill-rule="evenodd"/>
  <path id="Caminho_4385" data-name="Caminho 4385" d="M636.452,213.528a1.1,1.1,0,0,0-1.15,1.1,1.153,1.153,0,0,0,1.15,1.113h3.221a1.138,1.138,0,0,0,1.067-1.113,1.081,1.081,0,0,0-1.067-1.1Z" transform="translate(-569.57 -143.027)" fill="#fff" fill-rule="evenodd"/>
  <path id="Caminho_4392" data-name="Caminho 4392" d="M660.377,213.7a1.117,1.117,0,0,0-1.157,1.074,1.129,1.129,0,0,0,1.157,1.156h3.218a1.109,1.109,0,0,0,1.076-1.156,1.093,1.093,0,0,0-1.076-1.074Z" transform="translate(-559.051 -142.954)" fill="#fff" fill-rule="evenodd"/>
  <path id="Caminho_4393" data-name="Caminho 4393" d="M661.67,207.156a.96.96,0,0,0-.528.148l-2.763,1.525a1.059,1.059,0,0,0-.423,1.531,1.114,1.114,0,0,0,.99.507,1.251,1.251,0,0,0,.521-.108l2.842-1.525a1.143,1.143,0,0,0,.422-1.525,1.357,1.357,0,0,0-1.061-.553" transform="translate(-559.681 -145.829)" fill="#fff" fill-rule="evenodd"/>
  <path id="Caminho_4390" data-name="Caminho 4390" d="M656.581,202.165a1.126,1.126,0,0,0-.989.587l-1.6,2.9a1.133,1.133,0,0,0,.418,1.542,1.056,1.056,0,0,0,.6.171,1.191,1.191,0,0,0,1-.515l1.52-2.9a1.174,1.174,0,0,0-.425-1.621.92.92,0,0,0-.523-.157" transform="translate(-561.417 -148.025)" fill="#fff" fill-rule="evenodd"/>
</svg>
