<?xml version="1.0" encoding="utf-8"?>
<!-- Generator: Adobe Illustrator 25.4.3, SVG Export Plug-In . SVG Version: 6.00 Build 0)  -->
<svg version="1.0" id="Camada_1" xmlns="http://www.w3.org/2000/svg" xmlns:xlink="http://www.w3.org/1999/xlink" x="0px" y="0px"
	 viewBox="0 0 600 400" enable-background="new 0 0 600 400" xml:space="preserve">
<g>
	<g>
		<path fill="#00EDFF" d="M287.786,171.347c-3.122,34.733-31.806,71.028-58.734,95.614c-0.195,0-6.244,23.026-8.195,43.514
			c-0.39,3.318-0.39,6.244-0.39,9.172c0,12.488,2.927,22.245,11.513,22.245c21.269,0,42.733-43.905,54.441-68.101
			c3.122-7.025,5.854-12.684,7.415-14.635c0.976-0.78,2.342-0.976,3.122-0.976c2.341,0,3.708,1.561,4.683,3.707l-6.634,13.465h0.195
			c-16.391,34.928-39.612,83.126-68.296,83.126c-25.367,0-32.001-23.806-32.001-46.051c0-3.512,0-7.22,0.39-10.537v0.195
			c3.122-37.075,30.636-160.008,76.296-160.008C284.664,142.077,288.567,160.224,287.786,171.347z M233.345,250.375
			c10.732-9.562,42.344-46.637,45.075-76.297c0.78-6.634-0.195-16.586-4.098-16.586
			C265.932,157.493,246.809,197.494,233.345,250.375z"/>
		<path fill="#00EDFF" d="M329.724,238.082c-0.976,11.317-4.878,23.61-7.61,31.416c-4.878,14.83-13.464,44.1-15.221,59.71
			c-0.195,5.659,0.195,10.537,2.537,10.537c10.537,0,39.416-49.173,50.734-67.906l-0.195,0.195
			c5.074-15.806,9.172-26.538,10.342-42.344c0.195-1.951-0.195-4.488-0.585-6.439c-0.195-1.366-0.39-2.927-0.39-2.927
			c0.39-5.074,3.707-6.83,12.488-6.83c12.293,0,15.61,10.537,14.44,22.245c-1.366,14.244-6.83,33.173-11.903,50.344
			c-4.683,15.416-9.172,29.66-9.757,39.027c-0.585,5.073,0,15.22,4.293,15.22c12.293,0,49.173-72.394,51.319-76.491l0.585-1.366
			h-0.195c1.171-2.536,1.952-4.292,4.878-4.292c2.537,0,3.903,1.561,4.878,3.707c-1.756,3.122-4.293,7.806-6.439,12.293
			c-15.221,30.636-40.393,81.955-64.588,81.955c-18.148,0-24.002-10.537-24.002-25.562c0-1.561,0-3.902,0-5.659
			c0.196-3.902,0.976-8.39,1.952-12.684c-0.39,0.391-0.585,1.171-0.976,1.562c-13.66,21.074-28.685,44.1-49.759,44.1
			c-13.464,0-18.147-9.952-18.147-24.587c0-2.537,0.195-5.269,0.39-8c1.561-17.172,8-40.783,13.269-60.101
			c4.293-15.611,8.39-30.636,9.171-39.221c0.39-4.098-0.39-6.83-0.976-8.781v0.195c-0.39-1.171-0.39-1.951-0.39-2.927
			c0.195-3.513,3.708-4.683,7.22-4.683c5.074,0,11.318,1.951,13.66,3.318C328.358,217.788,330.504,227.935,329.724,238.082z"/>
		<path fill="#00EDFF" d="M442.061,228.715c0.39-2.146,0.585-4.098,0.585-5.464c0-1.756,0.195-2.927,0.39-3.707
			c0.976-3.318,4.488-3.708,8.195-2.732c10.732,3.903,15.611,8.195,15.611,15.611c0,3.707-0.976,8-2.537,13.269
			c-5.268,16.781-13.659,49.759-16.195,71.418c-0.195,2.537-0.39,5.854-0.39,8.001c0,9.171,1.756,15.22,6.049,15.415
			c7.001,0,18.81-17.625,29.727-36.654c6.121-10.669,11.962-21.779,16.518-30.471c3.318-6.244,5.854-11.123,7.805-14.244
			c1.171-0.585,2.147-0.976,2.927-0.976c1.951,0,3.512,1.561,4.878,3.902l-2.147,4.098c-15.22,31.611-45.661,90.541-68.296,90.541
			c-18.147,0-24.001-15.611-24.001-35.124c0-3.122,0.196-6.439,0.391-9.562c2.146-25.367,9.756-49.954,17.756-74.54l2.732-8.976
			v0.195H442.061z M481.087,191.64c-0.78,8.781-8.976,13.854-16.196,13.854c-6.244,0-11.707-5.073-11.317-15.805
			c0.78-8.391,6.244-17.757,13.659-17.757c3.317,0,7.025,1.951,10.146,6.634C480.307,183.64,481.282,187.933,481.087,191.64z"/>
		<g>
			<path fill="#00EDFF" d="M519.142,234.092c-4.292,8.976-8.976,17.562-13.464,26.538c1.561,0.781,2.927,0.976,8.391,2.147
				l13.269-27.514c1.951,0.195,5.464,0.39,7.415,0.39c1.756,0.195,3.707,0.195,6.049,0.195c-2.342,5.464-4.098,10.732-6.244,16.196
				c-8.658,21.57-10.92,29.546-19.128,62.639c-0.186,0.752,0.378,15.566-4.9,18.196c-0.004,0.002,0.992,3.596,0.997,3.597
				c10.121,2.063,16.317,3.68,25.223,8.43c5.479-18.214,12.288-37.368,18.492-55.007c0.78-2.341,2.342-5.464,3.318-7.805
				c5.268-12.684,14.44-34.539,14.44-47.027c0-5.268-1.366-8.586-4.878-10.146c-3.122-1.171-7.025-1.562-11.708-1.562
				c-1.756,0-3.902,0.196-6.049,0.196c-2.341,0-4.488,0.195-6.634,0.195c-3.512,0-7.61-0.195-10.537-0.781
				c0.39-0.976,0.39-1.366,0.78-2.146c2.732-7.415,8.781-24.001,10.146-37.075c0.78-12.879-4.292-20.098-15.22-20.098
				c-19.513,0-32.587,19.708-34.148,37.465C493.385,217.311,500.019,233.116,519.142,234.092z M517.776,211.847
				c0.976-11.123,11.708-27.124,15.806-27.124c0.585,0,0.976,1.366,0.78,4.098c-0.976,9.952-8.586,27.903-10.732,32.587
				C518.752,220.237,517.191,216.725,517.776,211.847z"/>
			<path fill="#00EDFF" d="M569.932,305.128c-4.818,7.305-9.79,14.025-14.918,20.162c-5.128,6.14-10.103,11.152-14.917,15.034
				c0-4.815,0.892-10.526,2.68-17.132c1.785-6.603,3.962-13.089,6.527-19.463c2.564-6.37,2.932-11.403,5.809-16.531
				c1.126-2.009,0.445-7.298,1.464-8.782c-1.132,0.037,1.836,2.91,0.705,2.951c-7.71,0.281-14.974-0.084-22.64-1.297
				c-3.759-0.594-2.266-5.845-5.713-7.347c-0.78,1.716-4.749,8.699-5.53,10.571c-2.331,5.594-5.215,11.351-7.156,17.565
				c-1.945,6.216-4.467,11.341-5.632,17.555c-0.102,0.545-0.2,1.086-0.293,1.624c-0.906,5.224-1.388,10.11-1.449,14.655
				c-0.004,0.325-0.006,0.648-0.006,0.969c0,2.644,0.9,5.402,2.699,8.275c1.799,2.877,4.148,5.478,7.047,7.809
				c2.895,2.331,6.144,4.276,9.746,5.827c3.599,1.555,7.201,2.331,10.802,2.331c4.665,0,9.681-1.901,15.042-5.711
				c5.361-3.805,10.722-8.817,16.083-15.034c5.361-6.214,10.565-13.286,15.617-21.211c5.048-7.925,9.75-16.003,14.102-24.241
				h-22.843C574.67,297.902,572.262,301.711,569.932,305.128z"/>
		</g>
		<path fill="#00EDFF" d="M261.924,114.893c-6.369-6.364-13.533-11.48-21.49-15.35c-7.963-3.864-16.32-6.823-25.071-8.869
			c-8.757-2.046-17.738-3.411-26.948-4.093c-9.21-0.682-18.249-1.023-27.118-1.023c-4.552,0-8.986,0.118-13.303,0.341
			c-4.323,0.229-8.528,0.57-12.621,1.023c5.458,2.505,10.457,5.404,15.009,8.699c4.546,3.299,6.822,5.857,6.822,7.674
			c-5.458,6.599-11.598,17.514-18.42,32.747c-6.822,15.238-13.42,32.747-19.784,52.53c13.415-0.453,25.637,0.341,36.669,2.388
			c11.027,2.048,18.702,5.235,23.025,9.551c2.729,2.729,4.717,6.199,5.969,10.404c1.247,4.211,1.988,8.303,2.217,12.28
			c0.224,3.981-0.059,7.621-0.853,10.916c-0.8,3.299-1.652,5.404-2.558,6.31c-2.276-2.27-5.917-4.316-10.916-6.139
			c-5.005-1.817-10.916-3.411-17.738-4.775c-6.822-1.365-14.273-2.442-22.343-3.241c-8.075-0.794-16.32-1.076-24.73-0.853
			c-3.411,11.598-6.481,23.425-9.21,35.475c-2.729,12.056-5.117,23.878-7.163,35.475c-2.047,11.598-3.641,22.854-4.776,33.77
			c-1.141,10.916-1.705,21.148-1.705,30.699c-3.838,0-8.41-0.911-13.714-2.729c-5.309-1.823-10.329-4.093-15.068-6.823
			c-4.743-2.729-8.746-5.628-12.018-8.697c-3.273-3.071-4.909-5.858-4.909-8.358c0-14.097,1.354-29.618,4.061-46.562
			c2.708-16.937,6.209-34.282,10.5-52.019c-5.687,2.505-10.462,5.687-14.326,9.551c-2.046,0-3.923-1.194-5.628-3.581
			c-1.705-2.389-2.958-5.341-3.752-8.869c-0.799-3.524-0.911-7.164-0.341-10.916c0.565-3.752,2.218-6.993,4.946-9.722
			c3.182-3.181,7.387-6.139,12.616-8.869c5.223-2.729,11.001-4.999,17.322-6.822c2.255-7.276,4.509-14.326,6.769-21.149
			c2.254-6.822,4.626-13.527,7.11-20.125c-9.327,1.364-18.649,1.992-27.971,1.876c-9.327-0.112-17.738-1.648-25.243-4.606
			c-7.504-2.952-13.591-7.387-18.249-13.303C2.329,133.202,0,125.127,0,114.893c0-8.186,4.205-16.714,12.621-25.583
			c8.41-8.869,20.008-16.996,34.793-24.389c14.78-7.387,32.112-13.527,51.992-18.419c19.88-4.888,41.306-7.334,64.278-7.334
			c18.644,0,34.111,1.482,46.391,4.435c12.28,2.958,22.172,6.369,29.677,10.232c7.504,3.869,13.074,7.846,16.714,11.939
			c3.635,4.094,6.14,7.164,7.505,9.21c2.271,3.411,3.694,7.11,4.263,11.086c0.565,3.981,0.624,7.904,0.171,11.768
			c-0.458,3.869-1.311,7.333-2.558,10.404C264.594,111.312,263.288,113.529,261.924,114.893z M88.64,130.585
			c7.276-17.28,14.098-30.242,20.466-38.887c-9.098,2.276-17.908,5.288-26.436,9.04s-16.032,7.564-22.513,11.427
			c-6.482,3.869-11.715,7.564-15.691,11.086c-3.981,3.528-5.969,6.31-5.969,8.358c0.906,1.14,3.752,1.992,8.528,2.558
			c4.776,0.57,9.946,0.911,15.521,1.023c5.57,0.118,10.857-0.171,15.861-0.853C83.407,133.655,86.817,132.407,88.64,130.585z"/>
	</g>
	<g>
		<path fill="#7673D4" d="M303.951,98.411h10.069c6.104,0,10.307,3.132,10.307,8.483v0.079c0,5.828-5.034,8.84-10.822,8.84h-7.492
			v10.347h-2.062V98.411z M313.624,113.911c5.153,0,8.642-2.696,8.642-6.818v-0.08c0-4.4-3.409-6.699-8.404-6.699h-7.849v13.597
			H313.624z"/>
		<path fill="#7673D4" d="M332.41,98.411h11.654c3.409,0,6.145,1.07,7.81,2.735c1.309,1.308,2.102,3.171,2.102,5.153v0.079
			c0,4.638-3.449,7.294-8.127,7.929l9.157,11.853h-2.616l-8.84-11.496h-9.078v11.496h-2.062L332.41,98.411L332.41,98.411z
			 M343.827,112.801c4.638,0,8.087-2.339,8.087-6.343v-0.08c0-3.726-2.934-6.065-7.968-6.065h-9.475V112.8h9.356V112.801z"/>
		<path fill="#7673D4" d="M361.82,112.365v-0.08c0-7.571,5.59-14.351,13.994-14.351s13.914,6.7,13.914,14.271v0.079
			c0,7.572-5.589,14.351-13.993,14.351S361.82,119.937,361.82,112.365z M387.588,112.365v-0.08c0-6.858-4.995-12.487-11.853-12.487
			s-11.774,5.55-11.774,12.408v0.079c0,6.858,4.995,12.487,11.854,12.487S387.588,119.223,387.588,112.365z"/>
		<path fill="#7673D4" d="M397.493,112.365v-0.08c0-7.492,5.432-14.351,13.717-14.351c4.519,0,7.373,1.348,10.148,3.647
			l-1.348,1.546c-2.181-1.903-4.718-3.33-8.92-3.33c-6.739,0-11.457,5.708-11.457,12.408v0.079c0,7.175,4.479,12.527,11.894,12.527
			c3.527,0,6.818-1.467,8.84-3.171v-7.968h-9.276v-1.903h11.259v10.704c-2.498,2.22-6.383,4.162-10.902,4.162
			C402.687,126.636,397.493,120.174,397.493,112.365z"/>
		<path fill="#7673D4" d="M431.78,98.411h11.654c3.409,0,6.145,1.07,7.81,2.735c1.309,1.308,2.102,3.171,2.102,5.153v0.079
			c0,4.638-3.449,7.294-8.127,7.929l9.157,11.853h-2.616l-8.84-11.496h-9.078v11.496h-2.062L431.78,98.411L431.78,98.411z
			 M443.197,112.801c4.638,0,8.087-2.339,8.087-6.343v-0.08c0-3.726-2.934-6.065-7.968-6.065h-9.475V112.8h9.356V112.801z"/>
		<path fill="#7673D4" d="M472.964,98.213h1.981l12.924,27.948h-2.26l-3.528-7.77h-16.372l-3.528,7.77h-2.141L472.964,98.213z
			 M481.209,116.527l-7.294-16.055l-7.334,16.055H481.209z"/>
		<path fill="#7673D4" d="M495.714,98.411h1.942l11.14,16.412l11.14-16.412h1.942v27.75h-2.062v-24.103l-10.981,15.976h-0.158
			l-10.981-15.976v24.103h-1.981v-27.75H495.714z"/>
		<path fill="#7673D4" d="M542.646,98.213h1.981l12.924,27.948h-2.26l-3.528-7.77h-16.372l-3.528,7.77h-2.141L542.646,98.213z
			 M550.891,116.527l-7.294-16.055l-7.334,16.055H550.891z"/>
	</g>
</g>
</svg>
