<?xml version="1.0" encoding="utf-8"?>
<!-- Generator: Adobe Illustrator 25.4.4, SVG Export Plug-In . SVG Version: 6.00 Build 0)  -->
<svg version="1.1" id="Camada_1" xmlns="http://www.w3.org/2000/svg" xmlns:xlink="http://www.w3.org/1999/xlink" x="0px" y="0px"
	 viewBox="0 0 100 100" style="enable-background:new 0 0 100 100;" xml:space="preserve">
<style type="text/css">
	.st0{clip-path:url(#SVGID_00000070085173977819988310000018143856407894212256_);}
	.st1{fill:#F5F5F5;stroke:#F5F5F5;stroke-width:0.25;}
	.st2{fill:#FFFFFF;}
</style>
<g>
	<g id="Grupo_4122_00000005245582429064223800000012651738274412144782_" transform="translate(-10794.192 11982.577)">
		<path id="Caminho_5422_00000119817522074940603230000015800751792162327171_" class="st2" d="M10843.9-11937.4
			c10,0,17.6-10.5,12.4-21.1c-2.1-4.3-6.6-7-11.5-7h-1.2c-5.6,0-10.8,3.4-12.7,8.7C10827-11946.9,10834.3-11937.4,10843.9-11937.4
			L10843.9-11937.4z M10843.8-11941.6c-6.4-0.1-11.2-6.3-9.1-12.9c1.3-4,5.1-6.6,9.3-6.6h0.1c5.3,0.1,9.6,4.4,9.6,9.7
			C10853.6-11946,10849.2-11941.6,10843.8-11941.6z"/>
		<path id="Caminho_5423_00000116924417204502375630000012182390647415052966_" class="st2" d="M10844.3-11937.2
			c-14.1,0-25.6,11.4-25.6,25.6v6.1c0,3.3,2.6,5.9,5.9,5.9h39.1c3.3,0,5.9-2.7,5.9-5.9v-6.3
			C10869.7-11925.9,10858.3-11937.2,10844.3-11937.2 M10864.4-11906.2c0,0.7-0.6,1.3-1.3,1.3h-38.7c-0.7,0-1.3-0.6-1.3-1.3v-6.2
			c0-11.4,9.2-20.6,20.5-20.6l0,0h0.1c11.4,0,20.6,9.2,20.6,20.6l0,0V-11906.2z"/>
	</g>
</g>
</svg>
