<?xml version="1.0" encoding="utf-8"?>
<!-- Generator: Adobe Illustrator 25.4.4, SVG Export Plug-In . SVG Version: 6.00 Build 0)  -->
<svg version="1.1" id="Camada_1" xmlns="http://www.w3.org/2000/svg" xmlns:xlink="http://www.w3.org/1999/xlink" x="0px" y="0px"
	 viewBox="0 0 100 100" style="enable-background:new 0 0 100 100;" xml:space="preserve">
<style type="text/css">
	.st0{clip-path:url(#SVGID_00000033337487329406964790000015452144797571894659_);}
	.st1{fill:#F5F5F5;stroke:#F5F5F5;stroke-width:0.25;}
	.st2{fill:#FFFFFF;}
</style>
<g>
	<g>
		<defs>
			<rect id="SVGID_1_" x="17" y="16.6" width="66" height="66.9"/>
		</defs>
		<clipPath id="SVGID_00000005236177808848156710000012716955951308833717_">
			<use xlink:href="#SVGID_1_"  style="overflow:visible;"/>
		</clipPath>
		
			<g id="Grupo_1424_00000078734636554265318950000015123702112851530383_" style="clip-path:url(#SVGID_00000005236177808848156710000012716955951308833717_);">
			<path id="Caminho_1572_00000083795545093958690900000004142120055735026867_" class="st1" d="M83,49c0-0.5,0-1.1-0.1-1.6
				c-0.7-4-4.2-7-8.3-6.9c-4.6,0-9.2,0-13.7,0c-0.5,0-0.7-0.1-0.7-0.7c0-4.7,0-9.4,0-14.1c0-0.6,0-1.2-0.1-1.8
				c-0.7-4.1-4.3-7-8.4-6.9c-8.7,0-17.4,0-26.2,0c-0.7,0-1.3,0.1-2,0.2c-3.9,0.8-6.6,4.3-6.5,8.3c0,5.8,0,11.5,0,17.3
				c0,0.6,0,1.1,0.1,1.7c0.7,4,4.2,6.8,8.2,6.8c0.4,0,0.5,0.1,0.5,0.5c0,1.5,0,3,0,4.4c-0.1,1.9,1.3,3.5,3.1,3.9
				c1.3,0.3,2.7-0.2,3.5-1.2l7.1-7.3l0.3,0.2v0.7c0,4.5,0,9,0,13.5c0,0.6,0,1.3,0.1,1.9c0.7,4,4.3,7,8.4,6.8c3.6,0,7.3,0,10.9,0
				c0.4,0,0.8,0.1,1,0.4c2.4,2.4,4.9,4.8,7.3,7.3c0.8,0.9,2.1,1.4,3.3,1.1c1.9-0.3,3.3-1.9,3.3-3.9c0-1.5,0-3,0-4.4
				c0-0.4,0.1-0.5,0.5-0.5c0.6,0,1.3,0,1.9-0.2c3.9-0.9,6.6-4.3,6.4-8.3C83.1,60.5,83.1,54.7,83,49 M40.4,48.2
				c-0.8,0-1.6,0.3-2.1,0.9c-2.5,2.6-5.1,5.1-7.7,7.6c-0.2,0.2-0.5,0.6-0.9,0.4c-0.6-0.2-0.3-0.8-0.4-1.2c-0.1-1.1-0.2-2.2-0.3-3.3
				c0.7-3.3,0.4-4.4-1.7-4.5c-0.9,0-1.9,0-2.8-0.1c-2.4-0.4-4.1-2.5-4.1-4.8c0-6.1,0-12.2,0-18.3c0-2.5,2-4.6,4.5-4.9
				c2.3-0.2,4.6,0,6.8-0.1c2.4,0,4.8,0,7.2,0c4.3,0,8.7,0,13,0c2.6,0,4.6,1.3,5.3,3.6c0.2,0.5,0.2,1,0.2,1.5c0,6,0,12,0,17.9
				c0,2.8-2.2,5.1-5,5.1c0,0,0,0-0.1,0C48.3,48.3,44.3,48.3,40.4,48.2 M79.5,66.2c0.1,2.8-2,5.2-4.8,5.3c-0.2,0-0.3,0-0.5,0
				c-0.6,0-1.2,0-1.8,0c-0.9-0.1-1.7,0.5-1.8,1.4c0,0.1,0,0.3,0,0.4c0,2,0,4,0,6c0,0.3,0.1,0.7-0.4,0.9c-0.4,0.2-0.7-0.1-0.9-0.4
				c-2.5-2.5-5.1-5-7.6-7.6c-0.5-0.6-1.2-0.9-2-0.8c-3.9,0-7.7,0-11.6,0c-2.3,0.1-4.4-1.3-5.1-3.6c-0.1-0.4-0.2-0.9-0.2-1.3
				c0-5,0-10,0-14.9c0-0.3,0.2-0.5,0.5-0.5c2.7,0,5.4,0,8.2,0c4.2,0.1,7.8-3,8.3-7.1c0.1-0.4,0.2-0.5,0.5-0.5c4.7,0,9.3,0,14,0
				c2.8-0.1,5.1,2.1,5.2,4.9c0,0.1,0,0.3,0,0.4c0,2.9,0,5.8,0,8.7c0,2.9,0,8.2,0,8.2"/>
			<path id="Caminho_1573_00000096754111452188335040000004996743650055888811_" class="st1" d="M38,25.4c1.2,0,2.5,0.3,3.6,0.9
				c1.8,1,2.5,3.3,1.6,5.2c-0.5,1.1-1.3,2-2.3,2.7c-1,0.7-1.6,1.8-1.5,3.1c0,0.8-0.3,1.1-1.2,1.2c-0.9,0.1-1.4-0.2-1.5-1
				c-0.4-1.7,0.3-3.5,1.6-4.6c0.5-0.4,1.1-0.9,1.6-1.3c0.6-0.5,0.8-1.3,0.6-2c-0.3-0.7-1-1.1-1.7-1.1c-1-0.2-2.1,0.2-2.7,1.1
				c-0.5,0.8-1.1,1-1.8,0.6c-0.7-0.3-1-1.2-0.7-1.9c0.6-1.7,1.9-2.3,3.5-2.7C37.2,25.4,37.6,25.4,38,25.4"/>
			<path id="Caminho_1574_00000088849962209090610960000012088815458167633308_" class="st1" d="M38.2,42.9c-0.9,0-1.7-0.7-1.7-1.7
				c0-0.9,0.7-1.7,1.7-1.7c0.9,0,1.7,0.7,1.7,1.7c0,0,0,0.1,0,0.1C39.9,42.1,39.1,42.9,38.2,42.9"/>
			<path id="Caminho_1575_00000050630167612144952840000006743615282399525050_" class="st1" d="M61.2,60c-1.5,0-2.6-1.3-2.3-2.8
				c0.2-1,1-1.7,1.9-1.9c1.5-0.2,2.8,0.9,2.8,2.4c0,0,0,0,0,0C63.6,59,62.5,60,61.2,60"/>
			<path id="Caminho_1576_00000077288788747383696560000007296166511205302460_" class="st1" d="M73.4,57.6c0,1.3-1,2.4-2.3,2.4
				c-1.3,0-2.4-1.1-2.4-2.4c0-1.3,1.1-2.4,2.4-2.4C72.4,55.3,73.4,56.4,73.4,57.6"/>
			<path id="Caminho_1577_00000081608881466568653740000002963305844698275007_" class="st1" d="M49,57.6c0-1.3,1.1-2.4,2.4-2.4
				c1.3,0,2.4,1.1,2.4,2.4c0,1.3-1.1,2.4-2.4,2.4l0,0C50,60,49,58.9,49,57.6"/>
		</g>
	</g>
</g>
</svg>
