<svg xmlns="http://www.w3.org/2000/svg" width="167" height="167" viewBox="0 0 167 167">
  <g id="Grupo_3833" data-name="Grupo 3833" transform="translate(0.063 -0.314)">
    <circle id="Elipse_265" data-name="Elipse 265" cx="83.5" cy="83.5" r="83.5" transform="translate(-0.063 0.314)" fill="#2c2789"/>
    <path id="Caminho_4366" data-name="Caminho 4366" d="M148.484,85.716c-2.09,1.405-3.7,2.387-4.475,2.844a102.621,102.621,0,0,1-16.182-11.733,67.334,67.334,0,0,1-11.413-12.9c-3.325-5.256-5.06-10.367-5.06-15.195A17.457,17.457,0,0,1,143.141,38.8a1.155,1.155,0,0,0,.94.429.945.945,0,0,0,.868-.429,17.456,17.456,0,0,1,31.786,9.937,24.056,24.056,0,0,1-.927,5.774,4.826,4.826,0,0,1,1.976.1,25.006,25.006,0,0,0,.754-6.021,19.194,19.194,0,0,0-19.361-19.513,19.885,19.885,0,0,0-15.313,7.27,19.744,19.744,0,0,0-15.242-7.27,19.515,19.515,0,0,0-19.579,19.513q0,7.992,5.419,16.421a67.091,67.091,0,0,0,11.7,13.326,111.668,111.668,0,0,0,17.05,12.382.977.977,0,0,0,.576.218.794.794,0,0,0,.51-.218c.069-.033,2.232-1.238,5.433-3.377a6.647,6.647,0,0,1-1.25-1.627" transform="translate(-67.418 18.686)" fill="#fff"/>
    <path id="Caminho_4367" data-name="Caminho 4367" d="M144.21,32.1a1.086,1.086,0,1,0,0,2.168,13.158,13.158,0,0,1,13.007,12.867,1.065,1.065,0,0,0,1.087,1.081,1.169,1.169,0,0,0,1.087-1.081A15.238,15.238,0,0,0,144.21,32.1" transform="translate(-52.41 20.017)" fill="#fff" fill-rule="evenodd"/>
    <path id="Caminho_4368" data-name="Caminho 4368" d="M122.988,32.1a1.079,1.079,0,1,0,0,2.158,13.2,13.2,0,0,1,10.87,5.686,1.3,1.3,0,0,0,.95.429,1.009,1.009,0,0,0,.582-.212,1.037,1.037,0,0,0,.294-1.51,15.411,15.411,0,0,0-12.7-6.55" transform="translate(-61.749 20.017)" fill="#fff" fill-rule="evenodd"/>
    <path id="Caminho_4369" data-name="Caminho 4369" d="M168.608,47.791a13.352,13.352,0,0,1,13.356,13.366,23.478,23.478,0,0,1-3.994,11.6,51.182,51.182,0,0,1-8.753,9.836A81.7,81.7,0,0,1,156.862,91.7a78.735,78.735,0,0,1-12.412-9,51.663,51.663,0,0,1-8.754-9.891c-2.549-4.031-3.881-7.951-3.881-11.654A13.39,13.39,0,0,1,156.2,53.534a.891.891,0,0,0,.721.33.727.727,0,0,0,.666-.33,13.392,13.392,0,0,1,11.025-5.743M145.06,46.079a14.968,14.968,0,0,0-15.018,14.967A23.3,23.3,0,0,0,134.2,73.641a51.48,51.48,0,0,0,8.976,10.221,85.444,85.444,0,0,0,13.078,9.5.742.742,0,0,0,.442.167.609.609,0,0,0,.391-.167,80.5,80.5,0,0,0,13.128-9.5,51.2,51.2,0,0,0,8.976-10.221,23.263,23.263,0,0,0,4.156-12.595A14.722,14.722,0,0,0,168.5,46.079a15.255,15.255,0,0,0-11.746,5.576,15.139,15.139,0,0,0-11.69-5.576" transform="translate(-58.153 26.186)" fill="#fff" fill-rule="evenodd"/>
    <path id="Caminho_4370" data-name="Caminho 4370" d="M157.017,48.395a.833.833,0,1,0,0,1.662,10.092,10.092,0,0,1,9.976,9.869.817.817,0,0,0,.833.829.9.9,0,0,0,.835-.829,11.689,11.689,0,0,0-11.644-11.531" transform="translate(-46.641 27.208)" fill="#fff" fill-rule="evenodd"/>
    <path id="Caminho_4371" data-name="Caminho 4371" d="M140.739,48.395a.827.827,0,1,0,0,1.655,10.131,10.131,0,0,1,8.337,4.361,1,1,0,0,0,.728.33.779.779,0,0,0,.447-.163.8.8,0,0,0,.226-1.159,11.823,11.823,0,0,0-9.738-5.024" transform="translate(-53.804 27.208)" fill="#fff" fill-rule="evenodd"/>
  </g>
</svg>
