<svg xmlns="http://www.w3.org/2000/svg" width="167" height="167" viewBox="0 0 167 167">
  <g id="Grupo_3836" data-name="Grupo 3836" transform="translate(-0.405 -0.314)">
    <circle id="Elipse_268" data-name="Elipse 268" cx="83.5" cy="83.5" r="83.5" transform="translate(0.405 0.314)" fill="#49ab9d"/>
    <path id="Caminho_4377" data-name="Caminho 4377" d="M685.508,44.861a1.043,1.043,0,0,0-1.058,1.065v14.8a7.89,7.89,0,0,1-7.852,7.865h-6.86a2.081,2.081,0,0,0-1.835,1.273c-1.206,2.975-1.349,5.736-.143,7.937a7.828,7.828,0,0,0,1.764,2.4,5.8,5.8,0,0,1-4.1-1.695c-.706-.708-2.263-2.908-1.7-7.722a1.97,1.97,0,0,0-1.977-2.267H651.142a1.043,1.043,0,0,0-1.062,1.059,1,1,0,0,0,1.062,1.065h5.305v8.074a8.1,8.1,0,0,1-8.061,8.007h-4.668a1.373,1.373,0,0,0-1.412,1.415c-.143,3.325-1.348,5.592-4.74,5.807a6.641,6.641,0,0,0,1.271-6.021,1.493,1.493,0,0,0-1.414-1.2H625.9a8.033,8.033,0,0,1-7.989-8.007V76.451a1.138,1.138,0,0,0-1.064-1.059,1.083,1.083,0,0,0-1.055,1.059v2.267A10.116,10.116,0,0,0,625.9,88.849H637c.135,1.345.135,3.754-2.127,4.462a1.307,1.307,0,0,0,.143,2.552,7.867,7.867,0,0,0,2.12.208c4.177,0,6.932-2.4,7.288-7.222h4.1a10.133,10.133,0,0,0,10.184-10.13V70.645h3.185c-.285,2.267-.357,6.514,2.333,9.28,1.484,1.631,3.6,2.41,6.434,2.41a10.463,10.463,0,0,0,1.412-.071,1.39,1.39,0,0,0,.494-2.624c-4.243-2.48-3.322-6.728-2.473-8.995h6.718a9.892,9.892,0,0,0,9.9-9.917v-14.8a1.362,1.362,0,0,0-1.2-1.065" transform="translate(-567.973 20.205)" fill="#fff" fill-rule="evenodd"/>
    <path id="Caminho_4378" data-name="Caminho 4378" d="M634.325,34.75a9.908,9.908,0,0,0-9.91,9.934V59.373a10.466,10.466,0,0,0-5.946,3.051,10.075,10.075,0,0,0-2.829,7.026v7.092a1.14,1.14,0,0,0,1.064,1.066,1.092,1.092,0,0,0,1.059-1.066V69.45a7.9,7.9,0,0,1,2.336-5.608,8.189,8.189,0,0,1,4.387-2.413v3.616a9.9,9.9,0,0,0,9.91,9.934h12.39a1.038,1.038,0,0,0,1.058-1.061,1.084,1.084,0,0,0-1.058-1.067H634.4a7.9,7.9,0,0,1-7.859-7.872V44.4a7.9,7.9,0,0,1,7.859-7.878h42.4a7.9,7.9,0,0,1,7.86,7.878v1.348a1.144,1.144,0,0,0,1.058,1.067,1.049,1.049,0,0,0,1.064-1.067V44.4a10.171,10.171,0,0,0-10.053-9.653Z" transform="translate(-568.038 15.744)" fill="#fff" fill-rule="evenodd"/>
  </g>
</svg>
