<?xml version="1.0" encoding="utf-8"?>
<!-- Generator: Adobe Illustrator 25.4.4, SVG Export Plug-In . SVG Version: 6.00 Build 0)  -->
<svg version="1.1" id="Camada_1" xmlns="http://www.w3.org/2000/svg" xmlns:xlink="http://www.w3.org/1999/xlink" x="0px" y="0px"
	 viewBox="0 0 100 100" style="enable-background:new 0 0 100 100;" xml:space="preserve">
<style type="text/css">
	.st0{clip-path:url(#SVGID_00000009561817348540903640000014123159428482668178_);}
	.st1{fill:#F5F5F5;stroke:#F5F5F5;stroke-width:0.25;}
	.st2{fill:#FFFFFF;}
</style>
<g>
	<g id="Grupo_1549_00000113311962433458693320000017212679898723672737_" transform="translate(-41.919 -39.911)">
		<path id="Grupo_1203_00000010270147234797295160000012671426254835155091_" class="st2" d="M101.5,62.8H82.3c0,0-0.6-0.6-0.9-0.6
			c-0.9-0.1-1.6-0.8-1.6-1.7c0-0.9,0.6-1.6,1.5-1.7c0.2,0,0.6-0.2,0.6-0.2H121c0.4,0,0.7,0,1.1,0.1c0.7,0.3,1.1,1,1,1.8
			c-0.1,0.7-0.7,1.3-1.5,1.4c-0.3,0-0.6,0-0.9,0L101.5,62.8z M101.4,88.6H82.3c0,0-0.6-0.4-0.9-0.4c-0.9-0.1-1.5-0.8-1.6-1.7
			c0-0.9,0.6-1.6,1.5-1.7c0.3,0,0.8-0.3,0.8-0.3h38.7c0.2,0,0.5,0,0.7,0c0.9,0.1,1.5,0.8,1.6,1.7c0,0.9-0.7,1.6-1.6,1.6
			c-1.1,0-2.2,0-3.3,0L101.4,88.6z M101.5,114.4H82.9c-0.3,0-0.6,0-0.9,0c-0.8-0.1-1.5-0.8-1.5-1.6c0-0.8,0.6-1.6,1.5-1.7
			c0.2,0,0.4,0,0.6,0h37.7c0.4,0,0.7,0,1.1,0.1c0.7,0.3,1.1,1,1,1.8c-0.1,0.7-0.7,1.3-1.5,1.4c-0.3,0-0.6,0-0.9,0
			C113.9,114.4,107.7,114.4,101.5,114.4L101.5,114.4z M92.8,68.7c-3.7,0-7.4,0-11,0c-1,0.1-1.8-0.6-1.9-1.5s0.6-1.8,1.5-1.9
			c0.1,0,0.3,0,0.4,0c2.3,0,4.7,0,7,0h15c1.2,0,1.9,0.5,2,1.5c0.1,1.2-0.7,1.9-1.9,1.9C100.2,68.7,96.5,68.7,92.8,68.7L92.8,68.7z
			 M92.8,91.8c3.7,0,7.4,0,11,0c0.9-0.1,1.8,0.5,1.9,1.5c0.1,0.9-0.5,1.8-1.5,1.9c-0.1,0-0.2,0-0.3,0c-1.5,0-2.9,0-4.4,0H81.8
			c-1.4,0-2.3-1.1-1.9-2.3c0.3-0.8,1.1-1.2,1.9-1.1C85.5,91.8,89.1,91.8,92.8,91.8L92.8,91.8z M92.8,121.2c-3.7,0-7.4,0-11,0
			c-0.9,0.1-1.8-0.6-1.9-1.5c0-0.2,0-0.4,0.1-0.6c0.2-0.7,0.8-1.2,1.5-1.3c0.2,0,0.4,0,0.6,0h21.8c1.3,0,2,0.5,2.1,1.5
			c0.1,0.9-0.5,1.8-1.4,2c-0.2,0-0.3,0-0.5,0C100.2,121.2,96.5,121.2,92.8,121.2z M70,109.4c-0.4-0.2-0.6-0.3-0.6-0.8
			c0-3.8,0-7.6,0-11.4c-0.1-0.4,0.2-0.7,0.6-0.8c3.6-1.3,5.5-5.2,4.2-8.8c-0.7-2-2.2-3.5-4.2-4.2c-0.4-0.1-0.6-0.4-0.6-0.8
			c0-3.8,0-7.6,0-11.4c-0.1-0.4,0.2-0.8,0.6-0.8c2.8-1,4.6-3.6,4.6-6.5c0-3.8-3.1-6.9-6.9-7c-3.8,0-6.9,3.1-7,6.9
			c0,3,1.9,5.6,4.7,6.6c0.5,0.2,0.6,0.4,0.6,0.9c0,3.8,0,7.5,0,11.3c0.1,0.4-0.2,0.8-0.6,0.9c-3.6,1.3-5.4,5.3-4.1,8.8
			c0.7,1.9,2.2,3.4,4.1,4.1c0.4,0.1,0.7,0.5,0.6,0.9c0,3.8,0,7.5,0,11.3c0.1,0.4-0.2,0.8-0.6,0.9c-3.6,1.3-5.4,5.3-4.1,8.9
			c1.3,3.6,5.3,5.4,8.9,4.1c3.6-1.3,5.4-5.3,4.1-8.9C73.5,111.6,71.9,110.1,70,109.4L70,109.4z M64.3,63.6c0-2.1,1.9-3.9,4.1-3.4
			c1.2,0.3,2.3,1.2,2.6,2.5c0.6,2.2-1.1,4.2-3.2,4.3h-0.1C65.8,66.9,64.3,65.5,64.3,63.6L64.3,63.6z M64.2,90.1c0-2.2,2-3.9,4.3-3.4
			c1.3,0.3,2.3,1.3,2.5,2.6c0.5,2.3-1.2,4.3-3.4,4.3l0,0C65.7,93.6,64.2,92,64.2,90.1L64.2,90.1z M67.6,119.4
			c-2.3,0-4.1-2.3-3.1-4.7c0.3-0.9,1-1.6,1.9-1.9c3-1.1,5.7,1.9,4.3,4.9c-0.5,1.1-1.6,1.7-2.8,1.7H67.6z"/>
	</g>
</g>
</svg>
