<svg id="Grupo_1460" data-name="Grupo 1460" xmlns="http://www.w3.org/2000/svg" xmlns:xlink="http://www.w3.org/1999/xlink" width="618" height="508.499" viewBox="0 0 618 508.499">
  <defs>
    <clipPath id="clip-path">
      <rect id="Retângulo_208" data-name="Retângulo 208" width="618" height="508.498" fill="none"/>
    </clipPath>
    <clipPath id="clip-path-3">
      <rect id="Retângulo_164" data-name="Retângulo 164" width="530.677" height="450.728" fill="none"/>
    </clipPath>
    <clipPath id="clip-path-4">
      <path id="Caminho_1478" data-name="Caminho 1478" d="M442.446,325.056c-30.854-3.479-50.086,4.673-65.242,18.794-29.608-10.539-59.053-21.62-89.907-27-66.114-11.519-140.487,7.55-182.1,60.192-20.048,25.477-32.542,57.967-59.268,76.271-1.035.708-2.066,1.357-3.1,2.01-10.376-8.744-17-19.61-19.069-32.378C2.577,290.071,174.137,272.523,78.8,199.563c-91.81-70.241,29.986-209.2,105.334-193.777A126.493,126.493,0,0,0,182.5,58.427c4.617,25.966,17.274,50.687,37.047,68.343,36.506,32.486,88.443,39.6,137.116,43.4,19.344,1.52,38.9,2.718,58.13.163,38.353-5,74.97-24.772,113.052-25.533,63.4,59.921-5.815,189.216-85.4,180.253" transform="translate(-21.932 -4.6)" fill="none"/>
    </clipPath>
    <linearGradient id="linear-gradient" x1="-0.253" y1="0.947" x2="-0.244" y2="0.947" gradientUnits="objectBoundingBox">
      <stop offset="0" stop-color="#fff"/>
      <stop offset="0.109" stop-color="#f9f9f9"/>
      <stop offset="0.241" stop-color="#ebebeb"/>
      <stop offset="0.385" stop-color="#d3d3d2"/>
      <stop offset="0.537" stop-color="#b1b1b0"/>
      <stop offset="0.696" stop-color="#858584"/>
      <stop offset="0.858" stop-color="#51514f"/>
      <stop offset="1" stop-color="#1d1d1b"/>
    </linearGradient>
    <clipPath id="clip-path-5">
      <rect id="Retângulo_166" data-name="Retângulo 166" width="530.25" height="354.783" fill="none"/>
    </clipPath>
    <clipPath id="clip-path-6">
      <path id="Caminho_1479" data-name="Caminho 1479" d="M552.182,122.976c-5.107,57.151-54.974,116.475-109.737,110.282-30.854-3.479-50.086,4.673-65.242,18.794-34.062,31.674-47.535,93.115-125.494,118.919-88,29.063-171.938,24.012-208.878-7.443-10.376-8.744-17-19.61-19.069-32.378C3.281,202.671,163,182.03,87.377,114.881,144.906,132,209.229,125.639,262.034,97.01,298.81,77.018,331.081,46.6,371.985,37.905c35.531-7.55,72.96,2.714,104.252,21.079,28.573,16.84,52.8,40.036,75.945,63.993" transform="translate(-21.932 -35.404)" fill="none"/>
    </clipPath>
    <linearGradient id="linear-gradient-2" x1="-0.068" y1="0.91" x2="-0.061" y2="0.91" gradientUnits="objectBoundingBox">
      <stop offset="0" stop-color="#fff"/>
      <stop offset="0.24" stop-color="#ccc"/>
      <stop offset="0.784" stop-color="#50504e"/>
      <stop offset="1" stop-color="#1d1d1b"/>
    </linearGradient>
    <clipPath id="clip-path-7">
      <rect id="Retângulo_168" data-name="Retângulo 168" width="119.639" height="184.592" fill="none"/>
    </clipPath>
    <clipPath id="clip-path-8">
      <path id="Caminho_1482" data-name="Caminho 1482" d="M57.329,139.71a34.567,34.567,0,0,0,24.959,17.453c14.647,2.042,28.967-5.922,43.447-7.877,1.95,5.783,2.985,11.55,2.3,16.661-3.415,25.648-12.752,36.386-24.426,40.446-10.5,3.71-16.334,1.047-24.542,3.8a219.427,219.427,0,0,0,35.28,45.672.907.907,0,0,1,.295.362c-1.182.8-2.436,1.489-3.634,2.2a222.509,222.509,0,0,1-35.793-46.5c-8.828,4.88-12.884,16.729-33.815,17.684-13.938.621-25.294-10.388-30.886-18.862,1.6-2.07,3.212-4.052,4.808-6.125,6.125,3.025,14.213,6.794,19.98,3.2,9.27-5.735,13.381-2.718,8.657-7.869-4.756-5.1-7.733,2.3-18.941-1a16.559,16.559,0,0,1-3.853-1.827c3.793-4.892,7.6-9.692,11.391-14.583,7.479-9.624,15.351-20.6,15.817-32.311a27.81,27.81,0,0,0-.35-5.52,27.021,27.021,0,0,0-4.529-11C38.7,126.432,30.881,120.828,23.1,116.5a58.02,58.02,0,0,0-14.5-6.054c2.074-8.338,5.911-20.649,10.527-28.617,3.021-5.349,6.4-8.744,9.807-7.845C36.855,76,54.117,82.428,64.171,87.952a55.487,55.487,0,0,1-2.209,5.294c-2.44,5.29-5.425,10.352-7.232,15.849a39.015,39.015,0,0,0,2.6,30.615" transform="translate(-8.608 -73.842)" fill="none"/>
    </clipPath>
    <linearGradient id="linear-gradient-3" x1="0.073" y1="1.1" x2="0.091" y2="1.1" gradientUnits="objectBoundingBox">
      <stop offset="0" stop-color="#fff"/>
      <stop offset="0.283" stop-color="#c2c2c2"/>
      <stop offset="0.936" stop-color="#2c2c2a"/>
      <stop offset="1" stop-color="#1d1d1b"/>
    </linearGradient>
    <clipPath id="clip-path-9">
      <rect id="Retângulo_170" data-name="Retângulo 170" width="144.243" height="48.309" fill="none"/>
    </clipPath>
    <clipPath id="clip-path-10">
      <path id="Caminho_1485" data-name="Caminho 1485" d="M144.212,142.877a2.18,2.18,0,0,1-2.5,1.851l-.064-.024-.04.02c-5.616-1.023-11.331-1.8-17.067-2.523-12.514,1.867-28.864,6.344-42.205,10.922-1.126-.533-2.257-1.067-3.363-1.664-6.392-3.363-12.49-7.71-19.324-9.835a28.728,28.728,0,0,0-3.956-.911c-.207-.012-.43-.068-.637-.084-8.565-1.095-17.166,2.05-24.92,5.9-8.036,4.016-16.179,9.341-20.577,16.872C3.789,162.6,0,161.966,0,161.966s21.879-32.522,55.431-44.5c27.873-9.907,69.111,13.911,82.289,22.293q2.322.31,4.641.625a2.2,2.2,0,0,1,1.851,2.5" transform="translate(0 -115.093)" fill="none"/>
    </clipPath>
    <linearGradient id="linear-gradient-4" x1="0.033" y1="0.781" x2="0.059" y2="0.781" xlink:href="#linear-gradient-3"/>
    <clipPath id="clip-path-11">
      <rect id="Retângulo_172" data-name="Retângulo 172" width="34.581" height="118.041" fill="none"/>
    </clipPath>
    <clipPath id="clip-path-12">
      <path id="Caminho_1488" data-name="Caminho 1488" d="M57.055,210.843a1.771,1.771,0,0,0,1.305-2.161l-.024-.048.008-.036c-1.254-4.458-2.32-9.015-3.339-13.6.549-10.253,2.917-23.805,5.6-34.934-.517-.872-1.035-1.743-1.6-2.591-3.208-4.908-7.184-9.5-9.425-14.862a23.76,23.76,0,0,1-1.039-3.124c-.024-.167-.088-.346-.115-.513-1.54-6.834.346-14.026,2.862-20.585,2.635-6.8,6.312-13.787,12.06-17.915-1.091-4.605-1.891-7.618-1.891-7.618s-24.605,20.167-31.722,48.191c-5.871,23.28,16.526,54.779,24.307,64.785q.424,1.851.856,3.7a1.794,1.794,0,0,0,2.161,1.306" transform="translate(-28.762 -92.86)" fill="none"/>
    </clipPath>
    <linearGradient id="linear-gradient-5" x1="-0.538" y1="1.598" x2="-0.506" y2="1.598" xlink:href="#linear-gradient-3"/>
    <clipPath id="clip-path-13">
      <rect id="Retângulo_174" data-name="Retângulo 174" width="45.843" height="23.827" fill="none"/>
    </clipPath>
    <clipPath id="clip-path-14">
      <path id="Caminho_1492" data-name="Caminho 1492" d="M133.355,102.564a.745.745,0,0,0,1.055.107l.016-.02h.016c1.469-1.282,3.009-2.511,4.569-3.725a89.344,89.344,0,0,1,14.3-4.171c.239-.354.478-.708.7-1.079,1.29-2.105,2.32-4.446,3.956-6.265a9.505,9.505,0,0,1,1-.959c.06-.04.115-.1.175-.135,2.32-1.819,5.4-2.4,8.346-2.627,3.061-.223,6.384-.084,8.991,1.357,1.552-1.246,2.555-2.094,2.555-2.094s-12.108-5.719-24.052-3.371c-9.915,1.962-17.859,16.163-20.259,20.928-.418.334-.836.665-1.254,1a.753.753,0,0,0-.108,1.059" transform="translate(-133.185 -79.017)" fill="none"/>
    </clipPath>
    <linearGradient id="linear-gradient-6" x1="-10.764" y1="6.234" x2="-10.683" y2="6.234" xlink:href="#linear-gradient-3"/>
    <clipPath id="clip-path-15">
      <rect id="Retângulo_176" data-name="Retângulo 176" width="36.725" height="33.936" fill="none"/>
    </clipPath>
    <clipPath id="clip-path-16">
      <path id="Caminho_1495" data-name="Caminho 1495" d="M160.685,110.257a.748.748,0,0,1-1.031-.255l0-.02-.016-.008c-.951-1.7-1.99-3.367-3.049-5.031a89,89,0,0,0-12.044-8.7c-.1-.414-.211-.828-.295-1.246-.505-2.412-.693-4.955-1.62-7.212a9.177,9.177,0,0,0-.621-1.234c-.04-.06-.076-.131-.115-.187-1.576-2.488-4.271-4.06-6.965-5.258-2.8-1.238-5.97-2.217-8.9-1.735-1.047-1.692-1.7-2.822-1.7-2.822s13.294-1.329,23.734,4.876c8.661,5.162,11.375,21.166,12.04,26.448.283.45.565.9.848,1.353a.756.756,0,0,1-.255,1.031" transform="translate(-124.319 -76.43)" fill="none"/>
    </clipPath>
    <linearGradient id="linear-gradient-7" x1="-10.123" y1="4.332" x2="-10.041" y2="4.332" xlink:href="#linear-gradient-3"/>
    <clipPath id="clip-path-17">
      <rect id="Retângulo_178" data-name="Retângulo 178" width="133.483" height="107.536" fill="none"/>
    </clipPath>
    <clipPath id="clip-path-18">
      <path id="Caminho_1509" data-name="Caminho 1509" d="M176.673,94.7v68.753l-66.715,26-66.767-26V136.069a53.665,53.665,0,0,1,13.274.88c5.787,1.1,11.4,2.977,17.134,4.3,8.537,1.982,17.572,2.591,26.058.442a34.878,34.878,0,0,0,10.3-4.41,29.016,29.016,0,0,0,10.356-10.631,40.581,40.581,0,0,0,3.857-11.459l.056-.056c1.875-9.254,2.424-19.005,8.486-26a26.407,26.407,0,0,1,11.236-7.216Z" transform="translate(-43.191 -81.915)" fill="none"/>
    </clipPath>
    <linearGradient id="linear-gradient-8" x1="-1.288" y1="1.697" x2="-1.258" y2="1.697" xlink:href="#linear-gradient-3"/>
    <clipPath id="clip-path-19">
      <rect id="Retângulo_180" data-name="Retângulo 180" width="139.683" height="131.447" fill="none"/>
    </clipPath>
    <clipPath id="clip-path-20">
      <path id="Caminho_1514" data-name="Caminho 1514" d="M242.023,86.733c-6.36,47.475-39.431,82.23-73.839,77.625-1.075-.147-11.857-1.5-12.9-1.727-34.432-4.613-57.175-46.838-50.818-94.317a115.243,115.243,0,0,1,7.339-28.028,41.717,41.717,0,0,1,5.023,3.495c1.7,1.365,3.3,2.826,4.9,4.31.561.533,1.1,1.067,1.664,1.6,1.126,1.071,2.229,2.157,3.379,3.212,1.656,1.532,3.335,3.025,5.142,4.406a48.3,48.3,0,0,0,9.214,5.52A47.26,47.26,0,0,0,147.1,65.1a47.708,47.708,0,0,0,11.6,2.078c6.129.318,12.673-.689,17.341-4.681,2.842-2.42,4.693-5.628,6.388-8.987,1.23-2.484,2.4-5.019,3.833-7.387A24.95,24.95,0,0,1,202.1,34.414a30.179,30.179,0,0,1,7.737-1.087,29.089,29.089,0,0,1,4.991.3,37.722,37.722,0,0,1,10.46,3.1,53.677,53.677,0,0,1,15.332,10.806,113.532,113.532,0,0,1,1.4,39.2" transform="translate(-103.404 -33.319)" fill="none"/>
    </clipPath>
    <linearGradient id="linear-gradient-9" x1="-2.706" y1="2.705" x2="-2.68" y2="2.705" gradientUnits="objectBoundingBox">
      <stop offset="0" stop-color="#fff"/>
      <stop offset="0.049" stop-color="#eaeaea"/>
      <stop offset="0.189" stop-color="#b4b4b3"/>
      <stop offset="0.33" stop-color="#868684"/>
      <stop offset="0.47" stop-color="#60605e"/>
      <stop offset="0.608" stop-color="#424241"/>
      <stop offset="0.743" stop-color="#2d2d2b"/>
      <stop offset="0.875" stop-color="#21211f"/>
      <stop offset="1" stop-color="#1d1d1b"/>
    </linearGradient>
    <clipPath id="clip-path-21">
      <rect id="Retângulo_182" data-name="Retângulo 182" width="18.898" height="18.18" fill="none"/>
    </clipPath>
    <clipPath id="clip-path-22">
      <path id="Caminho_1517" data-name="Caminho 1517" d="M135.1,52.405a9.449,9.449,0,0,1-18.9,0v-.111a3.851,3.851,0,0,1,.772.056,14.819,14.819,0,0,1,4.35,1.1,9.069,9.069,0,0,0,3.526.935,6.034,6.034,0,0,0,2.7-1.047,5.736,5.736,0,0,0,1.321-.935,4.882,4.882,0,0,0,.935-3.307,19.8,19.8,0,0,0-.275-4.02,6.169,6.169,0,0,0-.33-1.433,9.4,9.4,0,0,1,5.895,8.76" transform="translate(-116.204 -43.645)" fill="none"/>
    </clipPath>
    <linearGradient id="linear-gradient-10" x1="-24.474" y1="18.414" x2="-24.264" y2="18.414" xlink:href="#linear-gradient-3"/>
    <clipPath id="clip-path-23">
      <rect id="Retângulo_184" data-name="Retângulo 184" width="18.896" height="18.18" fill="none"/>
    </clipPath>
    <clipPath id="clip-path-24">
      <path id="Caminho_1519" data-name="Caminho 1519" d="M92.621,81.3a9.447,9.447,0,0,1-18.894,0V81.2a3.891,3.891,0,0,1,.772.056,14.845,14.845,0,0,1,4.35,1.1,9.127,9.127,0,0,0,3.526.939,6.047,6.047,0,0,0,2.7-1.047A5.787,5.787,0,0,0,86.4,81.3a4.874,4.874,0,0,0,.939-3.3,19.866,19.866,0,0,0-.279-4.024,5.754,5.754,0,0,0-.33-1.429A9.4,9.4,0,0,1,92.621,81.3" transform="translate(-73.727 -72.547)" fill="none"/>
    </clipPath>
    <linearGradient id="linear-gradient-11" x1="-15.531" y1="12.089" x2="-15.321" y2="12.089" xlink:href="#linear-gradient-3"/>
    <clipPath id="clip-path-26">
      <path id="Caminho_1521" data-name="Caminho 1521" d="M64.778,95.86a9.447,9.447,0,0,1-18.894,0v-.111a3.833,3.833,0,0,1,.768.056,14.969,14.969,0,0,1,4.354,1.1,9.051,9.051,0,0,0,3.526.935,5.973,5.973,0,0,0,2.7-1.047,5.651,5.651,0,0,0,1.321-.935,4.874,4.874,0,0,0,.939-3.3,19.846,19.846,0,0,0-.279-4.024,6.016,6.016,0,0,0-.33-1.433,9.4,9.4,0,0,1,5.895,8.76" transform="translate(-45.884 -87.1)" fill="none"/>
    </clipPath>
    <linearGradient id="linear-gradient-12" x1="-9.666" y1="8.901" x2="-9.455" y2="8.901" xlink:href="#linear-gradient-3"/>
    <clipPath id="clip-path-27">
      <rect id="Retângulo_188" data-name="Retângulo 188" width="74.661" height="65.617" fill="none"/>
    </clipPath>
    <clipPath id="clip-path-28">
      <path id="Caminho_1525" data-name="Caminho 1525" d="M163.864,80.792v41.4L123.737,137.82l-27.805-10.81c-2.312-3.638-4.625-7.367-5.8-11.518A26.192,26.192,0,0,1,94.61,92.832a28.319,28.319,0,0,1,5.572-5.572,32.738,32.738,0,0,1,14.539-6.185c5.664-.9,11.519-.422,16.947-2.078A22.293,22.293,0,0,0,141.958,72.2Z" transform="translate(-89.204 -72.203)" fill="none"/>
    </clipPath>
    <linearGradient id="linear-gradient-13" x1="-4.657" y1="3.37" x2="-4.605" y2="3.37" xlink:href="#linear-gradient-3"/>
    <clipPath id="clip-path-29">
      <rect id="Retângulo_190" data-name="Retângulo 190" width="36.526" height="50.187" fill="none"/>
    </clipPath>
    <clipPath id="clip-path-30">
      <path id="Caminho_1529" data-name="Caminho 1529" d="M125.683,84.262a27.332,27.332,0,0,1-.772,8.211c-.056.107-.056.219-.107.33l-18.731,7.272L91.911,94.567a16.79,16.79,0,0,1-.163-2.316,11.79,11.79,0,0,1,.991-5.122c1.1-2.48,3.359-4.243,4.792-6.555,1.763-2.81,2.2-6.225,2.591-9.477.056-.6.163-1.21.163-1.815a6.509,6.509,0,0,0-.219-1.763,10.616,10.616,0,0,0-1.544-2.81c-2.038-2.866-4.187-5.839-7.327-7.439a9.217,9.217,0,0,0-2.038-.772l16.916-6.611,7.877,3.085c-1.652,1.381-3.252,3.033-3.8,4.9a6.31,6.31,0,0,0,1.54,5.787,11.059,11.059,0,0,0,5.345,3.029c.275.111.549.167.828.275h.056a10.461,10.461,0,0,1,2.587.939,8.342,8.342,0,0,1,3.307,4.076c1.708,3.8,1.759,8.1,1.871,12.283" transform="translate(-89.157 -49.886)" fill="none"/>
    </clipPath>
    <linearGradient id="linear-gradient-14" x1="-9.7" y1="6.175" x2="-9.592" y2="6.175" xlink:href="#linear-gradient-3"/>
    <clipPath id="clip-path-31">
      <rect id="Retângulo_192" data-name="Retângulo 192" width="57.324" height="55.869" fill="none"/>
    </clipPath>
    <clipPath id="clip-path-32">
      <path id="Caminho_1533" data-name="Caminho 1533" d="M108.559,79.683v7.833L99.09,91.254,77.7,99.556,51.285,89.268A27.359,27.359,0,0,1,59,68.229a53.652,53.652,0,0,0,5.262-5.023c.115-.119.235-.354.35-.47,4.092-5.258,3.041-9.819.7-14.261L77.7,43.687,94.418,50.23l.581.235a7.567,7.567,0,0,0-1.516,1.166c-2.806,2.806-3.391,6.9-2.34,10.87a17.864,17.864,0,0,0,4.207,7.717c3.741,3.857,8.653,6.428,13.21,9.465" transform="translate(-51.233 -43.687)" fill="none"/>
    </clipPath>
    <linearGradient id="linear-gradient-15" x1="-3.524" y1="5.989" x2="-3.456" y2="5.989" xlink:href="#linear-gradient-3"/>
    <clipPath id="clip-path-33">
      <rect id="Retângulo_193" data-name="Retângulo 193" width="163.873" height="318.824" fill="none"/>
    </clipPath>
    <clipPath id="clip-path-34">
      <rect id="Retângulo_194" data-name="Retângulo 194" width="4.041" height="0.593" fill="none"/>
    </clipPath>
    <clipPath id="clip-path-35">
      <rect id="Retângulo_196" data-name="Retângulo 196" width="105.649" height="35.57" fill="none"/>
    </clipPath>
    <clipPath id="clip-path-36">
      <path id="Caminho_1540" data-name="Caminho 1540" d="M141.664,30.137V52.649a6.536,6.536,0,0,1-6.555,6.5H41.4a6.428,6.428,0,0,1-5.282-2.671,11.055,11.055,0,0,1,.119-3.654,15.009,15.009,0,0,1,6.846-9.747,23.6,23.6,0,0,1,7.487-2.44,55.914,55.914,0,0,1,19.9.119c.637.115,1.333.231,1.974.406a79.359,79.359,0,0,1,8.064,2.261,107.853,107.853,0,0,0,12.187,3.423,48.709,48.709,0,0,0,22.4-.868c4.119-1.162,8.3-3.017,10.734-6.5a2.973,2.973,0,0,0,.521-.927,14.26,14.26,0,0,0,1.859-7.717c0-2.2-1.047-4.935-1.337-7.256h8.243a6.549,6.549,0,0,1,6.555,6.559" transform="translate(-36.015 -23.578)" fill="none"/>
    </clipPath>
    <linearGradient id="linear-gradient-16" x1="-1.355" y1="11.657" x2="-1.318" y2="11.657" gradientUnits="objectBoundingBox">
      <stop offset="0" stop-color="#fff"/>
      <stop offset="0.064" stop-color="#e8e8e8"/>
      <stop offset="0.256" stop-color="#ababaa"/>
      <stop offset="0.44" stop-color="#787877"/>
      <stop offset="0.611" stop-color="#50504f"/>
      <stop offset="0.766" stop-color="#343432"/>
      <stop offset="0.901" stop-color="#232321"/>
      <stop offset="1" stop-color="#1d1d1b"/>
    </linearGradient>
    <clipPath id="clip-path-37">
      <rect id="Retângulo_198" data-name="Retângulo 198" width="47.416" height="54.137" fill="none"/>
    </clipPath>
    <clipPath id="clip-path-38">
      <path id="Caminho_1556" data-name="Caminho 1556" d="M129.033,78.246a1.162,1.162,0,0,1-.884,1.433,1.177,1.177,0,0,1-1.429-.88l-8.044-33.883c-9.035-3.964-23.634-3.085-34.818-.549a1.824,1.824,0,0,1-1.6-3.14l10.85-9.477a58.083,58.083,0,0,0,11.57.828c3.745-.33,7.546-1.707,10.026-4.406a3.73,3.73,0,0,0,.935-1.158,5.13,5.13,0,0,0,.5-.661,4.992,4.992,0,0,0,.386-.772Z" transform="translate(-81.656 -25.581)" fill="none"/>
    </clipPath>
    <linearGradient id="linear-gradient-17" x1="-5.347" y1="6.437" x2="-5.28" y2="6.437" xlink:href="#linear-gradient-3"/>
    <clipPath id="clip-path-39">
      <rect id="Retângulo_199" data-name="Retângulo 199" width="57.168" height="53.561" fill="none"/>
    </clipPath>
    <clipPath id="clip-path-40">
      <path id="Caminho_1563" data-name="Caminho 1563" d="M121.371,14.146c5.68,16.506-2.6,34.428-18.424,40.116-14.094,5-29.306-1.23-36.589-14.126-.776-5.4-.394-10.854,2.046-15.753A20.209,20.209,0,0,1,85.952,13.413c3.9-.064,7.777.915,11.686.848,6.559-.064,12.673-3.423,15.391-8.378a12.9,12.9,0,0,0,1.266-3.459,31.912,31.912,0,0,1,7.077,11.722" transform="translate(-65.996 -2.424)" fill="none"/>
    </clipPath>
    <linearGradient id="linear-gradient-18" x1="-2.374" y1="6.189" x2="-2.335" y2="6.189" xlink:href="#linear-gradient-16"/>
    <clipPath id="clip-path-41">
      <rect id="Retângulo_200" data-name="Retângulo 200" width="43.196" height="121.832" fill="none"/>
    </clipPath>
    <clipPath id="clip-path-43">
      <rect id="Retângulo_202" data-name="Retângulo 202" width="107.029" height="85.036" fill="none"/>
    </clipPath>
    <clipPath id="clip-path-45">
      <rect id="Retângulo_204" data-name="Retângulo 204" width="69.772" height="49.645" fill="none"/>
    </clipPath>
    <clipPath id="clip-path-46">
      <rect id="Retângulo_205" data-name="Retângulo 205" width="12.707" height="49.487" fill="none"/>
    </clipPath>
    <clipPath id="clip-path-47">
      <rect id="Retângulo_206" data-name="Retângulo 206" width="3.719" height="4.699" fill="none"/>
    </clipPath>
  </defs>
  <g id="Grupo_1421" data-name="Grupo 1421" clip-path="url(#clip-path)">
    <g id="Grupo_1420" data-name="Grupo 1420">
      <g id="Grupo_1419" data-name="Grupo 1419" clip-path="url(#clip-path)">
        <path id="Caminho_1477" data-name="Caminho 1477" d="M552.209,214.761c-5.142,57.155-55.053,116.53-109.752,110.337-30.858-3.506-50.142,4.673-65.338,18.818-34.01,31.674-47.451,93.036-125.414,118.867-88.013,29.1-171.934,24.08-208.866-7.479-10.4-8.649-17.067-19.519-19.053-32.378C3.213,294.475,162.992,273.9,87.369,206.7c-2.571-2.34-5.493-4.677-8.649-7.132C-13.03,129.319,108.758-9.651,184.146,5.776a51.648,51.648,0,0,1,8.3,2.456A167.346,167.346,0,0,1,211.382,17c15.192,8.418,27.232,18.583,39.973,29.222,6.078,5.027,12.275,10.05,19.053,15.077,1.871,1.4,3.857,2.806,5.843,4.207a216.647,216.647,0,0,0,25.716,15.662c3.272,1.636,6.778,3.391,10.4,4.911,30.158,13.791,72.116,24.9,137.339,29.688,36.351,2.571,61.712,13.441,78.074,29.1,19.873,18.7,26.651,44.064,24.43,69.9" transform="translate(65.385 13.679)" fill="#d7d1f5"/>
        <g id="Grupo_1306" data-name="Grupo 1306" transform="translate(87.292 18.309)" opacity="0.5" style="mix-blend-mode: overlay;isolation: isolate">
          <g id="Grupo_1305" data-name="Grupo 1305">
            <g id="Grupo_1304" data-name="Grupo 1304" clip-path="url(#clip-path-3)">
              <g id="Grupo_1303" data-name="Grupo 1303" transform="translate(0 0.001)">
                <g id="Grupo_1302" data-name="Grupo 1302" clip-path="url(#clip-path-4)">
                  <rect id="Retângulo_163" data-name="Retângulo 163" width="470.84" height="608.764" transform="translate(-39.481 450.682) rotate(-89.441)" fill="url(#linear-gradient)"/>
                </g>
              </g>
            </g>
          </g>
        </g>
        <g id="Grupo_1311" data-name="Grupo 1311" transform="translate(87.292 140.91)" opacity="0.5" style="mix-blend-mode: overlay;isolation: isolate">
          <g id="Grupo_1310" data-name="Grupo 1310">
            <g id="Grupo_1309" data-name="Grupo 1309" clip-path="url(#clip-path-5)">
              <g id="Grupo_1308" data-name="Grupo 1308" transform="translate(0 0.001)">
                <g id="Grupo_1307" data-name="Grupo 1307" clip-path="url(#clip-path-6)">
                  <rect id="Retângulo_165" data-name="Retângulo 165" width="604.053" height="458.135" transform="translate(-80.963 5.771) rotate(-9.851)" fill="url(#linear-gradient-2)"/>
                </g>
              </g>
            </g>
          </g>
        </g>
        <path id="Caminho_1480" data-name="Caminho 1480" d="M95.3,146.577c4.307-6.858,11.3-31.73,16.434-28.852,3.706,2.038,14.758,16.717,19.793,31.562,1.958,5.783,2.985,11.546,2.3,16.661-3.411,25.648-12.748,36.382-24.43,40.442-10.5,3.713-16.33,1.051-24.538,3.8a22.527,22.527,0,0,0-2.687,1.079,4.117,4.117,0,0,0-1.162.665c-8.832,4.876-12.892,16.725-33.815,17.684-13.942.621-25.3-10.392-30.886-18.862-3.156-4.836-4.458-8.768-3.208-9.222,1.3-.414,4.287,1.2,8.012,3.1,6.125,3.021,14.217,6.79,19.98,3.2,9.266-5.735,13.381-2.718,8.661-7.869-4.76-5.1-7.733,2.3-18.945-1a16.315,16.315,0,0,1-3.853-1.827c-4.677-2.866-9.306-8.263-12.975-13.923-4.318-6.734-7.093-13.787-6.579-17.314,1.154-7.347,8.657,7.968,20.764,6.3a68.233,68.233,0,0,0,7.558-1.493c5.1-1.417,7.495-3.4,6.675-5.68a4.923,4.923,0,0,0-1.27-1.97c-4.267-4.131-35.539-.362-34.432-14.886,1.138-14.575,6.969-26.516,11.1-20.3,4.187,6.253,10.42,17.266,14.945,13.664,4.509-3.69,3.156-8.438-4.605-12.677-7.817-4.275-15.733-4.275-15.383-10.245a59.231,59.231,0,0,1,1.648-8.167c2.078-8.334,5.914-20.649,10.527-28.613,3.025-5.349,6.4-8.744,9.807-7.845C42.65,76,59.908,82.429,69.962,87.949c4.163,2.277,7.053,4.366,7.658,5.954,2.078,5.485-13.306,11.077-11.2,18.44,2.129,7.307,8.072,12.374,13.282-2.476,5.266-14.81,11.248-23.069,18.874-7.359,7.578,15.757-1.226,27.176-6.4,34.054-5.266,6.894-1.19,16.872,3.12,10.014" transform="translate(19.862 220.062)" fill="#b05cbb"/>
        <path id="Caminho_1481" data-name="Caminho 1481" d="M19.285,80.448l.048.267c2.961,14.484,6.535,30.09,11.359,46.022,6.8,22.906,15.976,46.528,29.031,68.813A219.555,219.555,0,0,0,95,241.226a.919.919,0,0,1,.291.358,2.18,2.18,0,0,1,.115,2.177,1.7,1.7,0,0,1-.378.434,2.1,2.1,0,0,1-2.969.028c-.123-.159-.279-.271-.4-.43a222.447,222.447,0,0,1-35.793-46.5c-11.686-20.016-20.259-41.043-26.842-61.7l-.6-1.815c-1.564-4.892-2.949-9.815-4.283-14.7-3.662-13.031-6.547-25.835-9.011-37.8a2.117,2.117,0,0,1,1.656-2.5,1.46,1.46,0,0,1,.689.016,2.028,2.028,0,0,1,1.807,1.644" transform="translate(44.994 234.703)" fill="#fff"/>
        <g id="Grupo_1316" data-name="Grupo 1316" transform="translate(34.26 293.901)" style="mix-blend-mode: overlay;isolation: isolate">
          <g id="Grupo_1315" data-name="Grupo 1315">
            <g id="Grupo_1314" data-name="Grupo 1314" clip-path="url(#clip-path-7)">
              <g id="Grupo_1313" data-name="Grupo 1313" transform="translate(0.001 0)">
                <g id="Grupo_1312" data-name="Grupo 1312" clip-path="url(#clip-path-8)">
                  <rect id="Retângulo_167" data-name="Retângulo 167" width="220.742" height="204.474" transform="matrix(0.571, -0.821, 0.821, 0.571, -86.91, 124.09)" fill="url(#linear-gradient-3)"/>
                </g>
              </g>
            </g>
          </g>
        </g>
        <path id="Caminho_1483" data-name="Caminho 1483" d="M142.007,142.543c-3.224-1.568-9.58-1.477-17.465-.342-12.51,1.867-28.86,6.344-42.2,10.922-9.118,3.112-16.8,6.281-20.967,8.728C51.28,167.685,24.116,165.214,9.56,163.4,3.789,162.6,0,161.97,0,161.97s21.879-32.526,55.431-44.506c27.873-9.907,69.111,13.911,82.289,22.293,2.778,1.708,4.287,2.786,4.287,2.786" transform="translate(0 342.994)" fill="#ed639e"/>
        <path id="Caminho_1484" data-name="Caminho 1484" d="M113.4,126.6a2.183,2.183,0,0,1-2.5,1.851l-.064-.024-.044.016c-5.612-1.023-11.327-1.8-17.067-2.519-2.6-.322-5.2-.641-7.829-.9-8.35-.832-16.744-1.4-25.123-1.564a191.432,191.432,0,0,0-25.127.955c-2.293.3-4.537.589-6.81.935a80.967,80.967,0,0,0-17.513,4.712.718.718,0,0,1-.553-1.325,75.083,75.083,0,0,1,13.469-4.382c3.721-.856,7.431-1.5,11.172-2.058a183.211,183.211,0,0,1,25.365-1.711c8.506-.135,16.955.207,25.425.836,6.917.529,13.783,1.178,20.7,2.062l4.641.621a2.2,2.2,0,0,1,1.851,2.5" transform="translate(30.816 359.269)" fill="#fff"/>
        <g id="Grupo_1321" data-name="Grupo 1321" transform="translate(0 458.087)" style="mix-blend-mode: overlay;isolation: isolate">
          <g id="Grupo_1320" data-name="Grupo 1320">
            <g id="Grupo_1319" data-name="Grupo 1319" clip-path="url(#clip-path-9)">
              <g id="Grupo_1318" data-name="Grupo 1318" transform="translate(0 0)">
                <g id="Grupo_1317" data-name="Grupo 1317" clip-path="url(#clip-path-10)">
                  <rect id="Retângulo_169" data-name="Retângulo 169" width="154.782" height="107.285" transform="translate(-19.893 0.792) rotate(-22.717)" fill="url(#linear-gradient-4)"/>
                </g>
              </g>
            </g>
          </g>
        </g>
        <path id="Caminho_1486" data-name="Caminho 1486" d="M56.615,209.088C55.1,206.6,54.689,201.458,55,195c.549-10.249,2.925-23.805,5.6-34.934,1.811-7.606,3.789-14.058,5.449-17.608,3.944-8.6-.135-30.36-2.71-41.982-1.095-4.605-1.887-7.618-1.887-7.618S36.85,113.027,29.734,141.051c-5.875,23.28,16.526,54.779,24.3,64.785,1.6,2.113,2.583,3.252,2.583,3.252" transform="translate(85.718 276.736)" fill="#ed639e"/>
        <path id="Caminho_1487" data-name="Caminho 1487" d="M43.054,185.012a1.771,1.771,0,0,0,1.305-2.161l-.024-.044.008-.036c-1.254-4.462-2.32-9.019-3.339-13.6-.458-2.078-.915-4.155-1.329-6.257-1.309-6.687-2.408-13.425-3.184-20.179a155.39,155.39,0,0,1-1.15-20.378c.072-1.871.131-3.71.235-5.572a65.764,65.764,0,0,1,2.472-14.508.584.584,0,0,0-1.114-.346,61.114,61.114,0,0,0-2.511,11.22c-.406,3.069-.645,6.114-.808,9.182a148.7,148.7,0,0,0,.557,20.625c.541,6.882,1.461,13.684,2.619,20.478.955,5.548,2.006,11.049,3.244,16.569l.86,3.7a1.788,1.788,0,0,0,2.161,1.305" transform="translate(99.717 302.567)" fill="#fff"/>
        <g id="Grupo_1326" data-name="Grupo 1326" transform="translate(114.48 369.596)" style="mix-blend-mode: overlay;isolation: isolate">
          <g id="Grupo_1325" data-name="Grupo 1325">
            <g id="Grupo_1324" data-name="Grupo 1324" clip-path="url(#clip-path-11)">
              <g id="Grupo_1323" data-name="Grupo 1323" transform="translate(-0.001)">
                <g id="Grupo_1322" data-name="Grupo 1322" clip-path="url(#clip-path-12)">
                  <rect id="Retângulo_171" data-name="Retângulo 171" width="124.631" height="72.879" transform="translate(-38.492 107.768) rotate(-72.688)" fill="url(#linear-gradient-5)"/>
                </g>
              </g>
            </g>
          </g>
        </g>
        <path id="Caminho_1489" data-name="Caminho 1489" d="M62.035,124.142c.951,4.979,4.537,8.621,7.224,10.734a53.939,53.939,0,0,0-14.8-1.787c-1.867-11.323,7.411-17.668,3.924-24.347-1.942-3.729-16.772.6-14.516,12.422,1.106,5.775,5.576,9.863,8.438,11.956-3.916.084-8.02.37-12.334.7-3.7-9.337,3.053-16.486-1.17-21.548-2.356-2.826-14.233,3.63-10.1,13.322,1.891,4.434,6.038,7.061,8.888,8.406-3.093.239-6.324.466-9.668.653-8.036-5.21-8.338-14.667-15.037-15.582-4.012-.549-8.876,13.525,1.68,18.333,5.067,2.312,10.659,1.158,13.926.088,3.26-.187,6.416-.41,9.441-.645a15.065,15.065,0,0,0-6.265,4.553c-6.468,8.314,3.363,17.592,6.364,15.459,5.369-3.813.681-12.434,6.611-20.506a122.725,122.725,0,0,1,13.142-.346c-3.3,1.134-9.023,3.793-11.809,9.182-5.528,10.7,7.463,19.061,10.388,16.036,5.345-5.524-2.145-14.492,3.483-25.1a36.5,36.5,0,0,1,16.2,4.673c-3.013.111-9.7.908-13.95,5.588-7.666,8.458,2.205,19.284,5.62,17.226,6.253-3.773,1.544-13.835,9.329-22.193a35.588,35.588,0,0,1,5.421,4.215,87.314,87.314,0,0,0,9.294,7.606c-2.838.139-7.22.9-10.332,3.956-6.782,6.667.911,16.143,3.849,14.6,5.206-2.746,2.145-10.89,8.175-17.373a96.127,96.127,0,0,0,14.141,7.952,10.84,10.84,0,0,0-5.544,2.734c-5.238,5.146.7,12.458,2.969,11.264,3.817-2.014,1.883-7.785,5.676-12.653,2.794,1.142,4.577,1.7,4.8,1.763a1.432,1.432,0,1,0,.828-2.742,74.289,74.289,0,0,1-8.967-3.67c-.036-7.224,6.432-10.006,5.071-14.464-.752-2.452-10.121-1.516-10.09,5.827.016,3.471,2.094,6.332,3.574,7.94a93.227,93.227,0,0,1-15.781-9.93c-.163-9.5,8.346-13.119,6.571-18.933-.971-3.176-13.115-1.962-13.071,7.546a14.918,14.918,0,0,0,3.4,8.828c-.868-.752-1.731-1.524-2.591-2.332a35.868,35.868,0,0,0-12.219-7.686c-2.042-10.977,6.925-17.091,3.582-23.5-1.843-3.534-15.9.569-13.763,11.781" transform="translate(24.445 320.189)" fill="#d7d1f5"/>
        <path id="Caminho_1490" data-name="Caminho 1490" d="M133.376,102.081c.673-1.023,2.555-2.109,5.067-3.152a89.516,89.516,0,0,1,14.3-4.171,44.756,44.756,0,0,1,7.678-1.106c3.984-.052,11.526-5.524,15.483-8.6,1.556-1.246,2.559-2.094,2.559-2.094s-12.112-5.723-24.056-3.375c-9.915,1.966-17.855,16.167-20.259,20.932-.517.987-.772,1.568-.772,1.568" transform="translate(397.479 235.478)" fill="#b05cbb"/>
        <path id="Caminho_1491" data-name="Caminho 1491" d="M133.355,97.9a.747.747,0,0,0,1.059.107l.012-.02h.016c1.469-1.282,3.009-2.511,4.569-3.725.708-.549,1.413-1.1,2.141-1.632,2.3-1.708,4.673-3.339,7.1-4.852a65.5,65.5,0,0,1,7.542-4.115c.728-.31,1.437-.617,2.165-.915a27.663,27.663,0,0,1,5.962-1.676.247.247,0,0,0-.068-.49,25.748,25.748,0,0,0-4.72,1.071c-1.242.4-2.444.86-3.638,1.349a62.043,62.043,0,0,0-7.745,3.932c-2.523,1.449-4.943,3.025-7.32,4.689-1.938,1.365-3.841,2.758-5.715,4.227l-1.254.991a.753.753,0,0,0-.108,1.059" transform="translate(396.91 240.145)" fill="#fff"/>
        <g id="Grupo_1331" data-name="Grupo 1331" transform="translate(530.095 314.496)" style="mix-blend-mode: overlay;isolation: isolate">
          <g id="Grupo_1330" data-name="Grupo 1330">
            <g id="Grupo_1329" data-name="Grupo 1329" clip-path="url(#clip-path-13)">
              <g id="Grupo_1328" data-name="Grupo 1328" transform="translate(0.001 0.002)">
                <g id="Grupo_1327" data-name="Grupo 1327" clip-path="url(#clip-path-14)">
                  <rect id="Retângulo_173" data-name="Retângulo 173" width="49.093" height="31.894" transform="translate(-3.669 -1.277) rotate(-8.058)" fill="url(#linear-gradient-6)"/>
                </g>
              </g>
            </g>
          </g>
        </g>
        <path id="Caminho_1493" data-name="Caminho 1493" d="M160.3,109.6c-.291-1.186-1.7-2.838-3.705-4.657a89.179,89.179,0,0,0-12.044-8.7,43.888,43.888,0,0,0-6.85-3.606c-3.729-1.381-8.983-9.051-11.674-13.266-1.043-1.692-1.7-2.822-1.7-2.822s13.294-1.325,23.734,4.876c8.665,5.162,11.375,21.166,12.044,26.448.155,1.1.2,1.731.2,1.731" transform="translate(370.488 227.772)" fill="#ed639e"/>
        <path id="Caminho_1494" data-name="Caminho 1494" d="M150.847,104.768a.745.745,0,0,1-1.031-.255l0-.02-.016-.008c-.951-1.7-1.99-3.363-3.049-5.027-.482-.752-.963-1.5-1.465-2.253-1.6-2.372-3.276-4.7-5.051-6.933a65.358,65.358,0,0,0-5.715-6.392c-.577-.533-1.142-1.063-1.727-1.58a27.287,27.287,0,0,0-5.043-3.574.241.241,0,0,1-.1-.318.245.245,0,0,1,.326-.115,25.852,25.852,0,0,1,4.08,2.583c1.035.792,2.01,1.624,2.969,2.484a62.687,62.687,0,0,1,5.962,6.289c1.887,2.2,3.634,4.494,5.309,6.858,1.365,1.93,2.691,3.873,3.96,5.879.283.454.565.9.848,1.353a.756.756,0,0,1-.255,1.031" transform="translate(380.327 233.261)" fill="#fff"/>
        <g id="Grupo_1336" data-name="Grupo 1336" transform="translate(494.807 304.202)" style="mix-blend-mode: overlay;isolation: isolate">
          <g id="Grupo_1335" data-name="Grupo 1335">
            <g id="Grupo_1334" data-name="Grupo 1334" clip-path="url(#clip-path-15)">
              <g id="Grupo_1333" data-name="Grupo 1333" transform="translate(0 -0.001)">
                <g id="Grupo_1332" data-name="Grupo 1332" clip-path="url(#clip-path-16)">
                  <rect id="Retângulo_175" data-name="Retângulo 175" width="48.311" height="48.976" transform="matrix(0.464, -0.886, 0.886, 0.464, -14.489, 26.448)" fill="url(#linear-gradient-7)"/>
                </g>
              </g>
            </g>
          </g>
        </g>
        <path id="Caminho_1496" data-name="Caminho 1496" d="M152.794,91c1.524,3.288.951,6.9.275,9.246a38.526,38.526,0,0,1,7.849-7.208c-3.63-7.351-11.666-7.168-12.422-12.5-.43-2.973,9.986-6.643,13.6,1.166,1.767,3.813.876,8.052.08,10.456,2.313-1.58,4.816-3.124,7.455-4.732-1.735-6.961-8.641-8.3-8.3-13,.191-2.623,9.779-3.821,11.419,3.526.752,3.363-.569,6.619-1.664,8.585q2.854-1.725,5.891-3.65c2.5-6.372-1.27-11.988,2.241-15.312,2.1-1.994,10.79,4.151,6.663,11.347-1.982,3.451-5.711,5.111-8.052,5.851-1.966,1.25-3.9,2.436-5.747,3.562a10.734,10.734,0,0,1,5.532.032C184.838,90.5,183,99.987,180.365,100c-4.7.024-5.58-6.937-12.386-9.154a86.385,86.385,0,0,0-7.773,5.278c2.384-.716,6.818-1.56,10.687.41,7.662,3.909,3.6,14.177.645,13.64-5.4-.979-4.8-9.31-12.482-13.123a26.018,26.018,0,0,0-7.463,9.465c1.795-1.194,6.014-3.518,10.432-2.567,7.976,1.715,6.758,12.116,3.913,12.342-5.2.418-6.659-7.391-14.663-9A24.947,24.947,0,0,0,149.885,112a64.258,64.258,0,0,1-2.229,8.287,11.346,11.346,0,0,1,7.65-2.006c6.71,1.047,6.193,9.751,3.841,10.078-4.167.577-5.779-5.429-11.98-6.683a69.544,69.544,0,0,1-4.9,10.516,7.711,7.711,0,0,1,4.358-.724c5.182.8,4.78,7.526,2.969,7.777-3.061.422-4.342-3.737-8.569-4.983-1.15,1.831-1.954,2.894-2.058,3.025a1.018,1.018,0,0,1-1.349.247l-.088-.06a1.029,1.029,0,0,1-.187-1.437,52.044,52.044,0,0,0,3.682-5.867c-2.985-4.207-7.9-3.132-8.971-6.289-.585-1.735,5.246-5.095,8.283-.816a8.827,8.827,0,0,1,1.238,6.1,66.093,66.093,0,0,0,5.023-12.342c-3.857-5.588-10.309-4.139-11.706-8.259-.756-2.249,6.8-6.6,10.738-1.063a10.628,10.628,0,0,1,1.708,6.543c.191-.8.37-1.608.529-2.436a25.714,25.714,0,0,1,3.9-9.556c-3.387-7.224-11.144-7.041-11.873-12.155-.4-2.822,9.473-6.3,12.9,1.106" transform="translate(393.416 200.255)" fill="#4435ab"/>
        <path id="Caminho_1497" data-name="Caminho 1497" d="M109.95,40.489a14.625,14.625,0,1,1,14.627-14.623A14.64,14.64,0,0,1,109.95,40.489m0-23.933a9.308,9.308,0,1,0,9.31,9.31,9.321,9.321,0,0,0-9.31-9.31" transform="translate(284.076 33.494)" fill="#4435ab"/>
        <path id="Caminho_1498" data-name="Caminho 1498" d="M132.1,19.562H100.989a2.659,2.659,0,1,1,0-5.317H132.1a2.659,2.659,0,0,1,0,5.317" transform="translate(293.037 42.452)" fill="#d7d1f5"/>
        <path id="Caminho_1499" data-name="Caminho 1499" d="M136.678,16.326H105.566a2.659,2.659,0,0,1,0-5.317h31.113a2.659,2.659,0,0,1,0,5.317" transform="translate(306.677 32.808)" fill="#d7d1f5"/>
        <path id="Caminho_1500" data-name="Caminho 1500" d="M100.989,24.293a2.658,2.658,0,0,1-2.659-2.659V8.528a2.659,2.659,0,0,1,5.317,0V21.634a2.658,2.658,0,0,1-2.659,2.659" transform="translate(293.037 17.49)" fill="#d7d1f5"/>
        <path id="Caminho_1501" data-name="Caminho 1501" d="M126.519,94.254a9.308,9.308,0,1,0,9.306,9.31,9.325,9.325,0,0,0-9.306-9.31" transform="translate(349.287 280.89)" fill="#4435ab"/>
        <path id="Caminho_1502" data-name="Caminho 1502" d="M152.647,101.242H121.535a2.659,2.659,0,1,1,0-5.317h31.113a2.659,2.659,0,1,1,0,5.317" transform="translate(354.267 285.87)" fill="#d7d1f5"/>
        <path id="Caminho_1503" data-name="Caminho 1503" d="M157.224,98.006H126.112a2.659,2.659,0,1,1,0-5.317h31.113a2.659,2.659,0,1,1,0,5.317" transform="translate(367.907 276.226)" fill="#d7d1f5"/>
        <path id="Caminho_1504" data-name="Caminho 1504" d="M53.338,72.628H22.226a2.659,2.659,0,0,1,0-5.318H53.338a2.659,2.659,0,0,1,0,5.318" transform="translate(58.312 200.596)" fill="#4435ab"/>
        <path id="Caminho_1505" data-name="Caminho 1505" d="M57.915,69.392H26.8a2.659,2.659,0,0,1,0-5.317H57.915a2.659,2.659,0,0,1,0,5.317" transform="translate(71.952 190.952)" fill="#4435ab"/>
        <path id="Caminho_1506" data-name="Caminho 1506" d="M109.961,111.128v68.753l-66.771-26V85.126Z" transform="translate(128.713 253.688)" fill="#ed639e"/>
        <path id="Caminho_1507" data-name="Caminho 1507" d="M176.673,104.637l-52.5,20.494L109.958,130.7,43.191,104.637l66.767-26.058,33.99,13.278Z" transform="translate(128.715 234.177)" fill="#4435ab"/>
        <path id="Caminho_1508" data-name="Caminho 1508" d="M126.681,85.126v68.753l-66.715,26V111.128l14.213-5.509.056-.056Z" transform="translate(178.707 253.688)" fill="#f3effe"/>
        <g id="Grupo_1341" data-name="Grupo 1341" transform="translate(171.905 326.033)" opacity="0.5" style="mix-blend-mode: overlay;isolation: isolate">
          <g id="Grupo_1340" data-name="Grupo 1340">
            <g id="Grupo_1339" data-name="Grupo 1339" clip-path="url(#clip-path-17)">
              <g id="Grupo_1338" data-name="Grupo 1338" transform="translate(0.002)">
                <g id="Grupo_1337" data-name="Grupo 1337" clip-path="url(#clip-path-18)">
                  <rect id="Retângulo_177" data-name="Retângulo 177" width="133.482" height="107.535" fill="url(#linear-gradient-8)"/>
                </g>
              </g>
            </g>
          </g>
        </g>
        <path id="Caminho_1510" data-name="Caminho 1510" d="M232.761,118.65c-6.356,47.479-39.431,82.234-73.839,77.625-1.075-.143-11.853-1.5-12.9-1.727-27.256-5.6-39.73-34.329-39.511-70.421a173.892,173.892,0,0,1,1.588-22.169,72.212,72.212,0,0,1,6.03-20.346c6.933-15.2,18.309-28.4,28.9-38.42a181.954,181.954,0,0,1,26.01-20.581s11.308,1.512,12.9,1.723c24.438,3.272,42.989,25.513,49.417,55.121a113.641,113.641,0,0,1,1.4,39.2" transform="translate(317.421 67.378)" fill="#4435ab"/>
        <path id="Caminho_1511" data-name="Caminho 1511" d="M229.127,117.232c-6.356,47.479-39.431,82.234-73.839,77.625-34.432-4.609-57.175-46.838-50.818-94.317a115.166,115.166,0,0,1,7.343-28.024c12.991-32.327,39.308-53.238,66.5-49.6,21.859,2.929,39.013,21.043,46.978,46.042a110.731,110.731,0,0,1,3.841,48.275" transform="translate(308.159 67.068)" fill="#d7d1f5"/>
        <path id="Caminho_1512" data-name="Caminho 1512" d="M200.944,53.426c-7.435-14.559-19.308-24.593-33.684-26.52A39.9,39.9,0,0,0,143.4,31.372c-12.9,6.671-23.992,19.889-30.567,36.816a95.729,95.729,0,0,0-5.954,44.12c2.969,28.661,19.32,51.308,41.672,54.3,27.917,3.737,54.83-24.557,59.989-63.069,2.5-18.679-.573-36.418-7.6-50.114M149.7,158.012c-24.5-3.28-40.749-33.417-36.223-67.2A82.969,82.969,0,0,1,117.879,73c8.951-24.223,28.283-40.168,48.227-37.5,11.156,1.5,20.6,8.577,27.1,19.009,7.865,12.5,11.562,29.815,9.1,48.192-4.525,33.787-28.124,58.588-52.605,55.308" transform="translate(317.051 79.196)" fill="#fff"/>
        <path id="Caminho_1513" data-name="Caminho 1513" d="M160.163,42.773a22.921,22.921,0,0,0-14.293-8.147c-12.92-1.727-25.409,8.9-30.85,24.856a51.388,51.388,0,0,0-2.376,10.078c-2.862,21.341,7.4,40.367,22.87,42.44,15.447,2.07,30.364-13.588,33.226-34.93,1.827-13.648-1.719-26.376-8.577-34.3m-23.5,60.629c-12.036-1.612-20.008-16.418-17.787-33.011a40.129,40.129,0,0,1,2.117-8.641c4.382-11.972,13.907-19.841,23.726-18.528a17.975,17.975,0,0,1,11.606,6.937c5.015,6.185,7.562,15.777,6.181,26.074-2.221,16.593-13.827,28.776-25.843,27.168" transform="translate(334.266 102.641)" fill="#fff"/>
        <g id="Grupo_1346" data-name="Grupo 1346" transform="translate(411.562 132.614)" opacity="0.5" style="mix-blend-mode: overlay;isolation: isolate">
          <g id="Grupo_1345" data-name="Grupo 1345">
            <g id="Grupo_1344" data-name="Grupo 1344" clip-path="url(#clip-path-19)">
              <g id="Grupo_1343" data-name="Grupo 1343" transform="translate(0.001 -0.001)">
                <g id="Grupo_1342" data-name="Grupo 1342" clip-path="url(#clip-path-20)">
                  <rect id="Retângulo_179" data-name="Retângulo 179" width="149.444" height="139.648" transform="translate(-9.036 0.073) rotate(-1.582)" fill="url(#linear-gradient-9)"/>
                </g>
              </g>
            </g>
          </g>
        </g>
        <path id="Caminho_1515" data-name="Caminho 1515" d="M42.883,273.482,38.019,270.9c.7-1.314,71.057-131.042,171.054-108.829,97.068,21.584,126.071-22.265,148.22-116.383l5.357,1.262c-22.46,95.464-53.772,142.947-154.772,120.5-95.925-21.322-164.316,104.761-165,106.035" transform="translate(113.302 136.142)" fill="#f3effe"/>
        <path id="Caminho_1516" data-name="Caminho 1516" d="M135.1,52.942a9.449,9.449,0,0,1-18.9,0V52.83a9.441,9.441,0,0,1,9.421-9.365,9.71,9.71,0,0,1,3.582.716,9.4,9.4,0,0,1,5.895,8.76" transform="translate(346.304 129.532)" fill="#b05cbb"/>
        <g id="Grupo_1351" data-name="Grupo 1351" transform="translate(462.508 173.714)" opacity="0.5" style="mix-blend-mode: overlay;isolation: isolate">
          <g id="Grupo_1350" data-name="Grupo 1350">
            <g id="Grupo_1349" data-name="Grupo 1349" clip-path="url(#clip-path-21)">
              <g id="Grupo_1348" data-name="Grupo 1348" transform="translate(0 0)">
                <g id="Grupo_1347" data-name="Grupo 1347" clip-path="url(#clip-path-22)">
                  <rect id="Retângulo_181" data-name="Retângulo 181" width="18.898" height="18.181" transform="translate(0 0)" fill="url(#linear-gradient-10)"/>
                </g>
              </g>
            </g>
          </g>
        </g>
        <path id="Caminho_1518" data-name="Caminho 1518" d="M92.624,81.843a9.449,9.449,0,0,1-18.9,0v-.111a9.441,9.441,0,0,1,9.421-9.365,9.71,9.71,0,0,1,3.582.716,9.4,9.4,0,0,1,5.895,8.76" transform="translate(219.714 215.661)" fill="#b05cbb"/>
        <g id="Grupo_1356" data-name="Grupo 1356" transform="translate(293.443 288.745)" opacity="0.5" style="mix-blend-mode: overlay;isolation: isolate">
          <g id="Grupo_1355" data-name="Grupo 1355">
            <g id="Grupo_1354" data-name="Grupo 1354" clip-path="url(#clip-path-23)">
              <g id="Grupo_1353" data-name="Grupo 1353" transform="translate(0.001 0.002)">
                <g id="Grupo_1352" data-name="Grupo 1352" clip-path="url(#clip-path-24)">
                  <rect id="Retângulo_183" data-name="Retângulo 183" width="18.894" height="18.177" transform="translate(0 0)" fill="url(#linear-gradient-11)"/>
                </g>
              </g>
            </g>
          </g>
        </g>
        <path id="Caminho_1520" data-name="Caminho 1520" d="M64.781,96.4a9.449,9.449,0,0,1-18.9,0v-.111A9.441,9.441,0,0,1,55.3,86.92a9.711,9.711,0,0,1,3.582.716,9.4,9.4,0,0,1,5.895,8.76" transform="translate(136.738 259.034)" fill="#b05cbb"/>
        <g id="Grupo_1361" data-name="Grupo 1361" transform="translate(182.623 346.672)" opacity="0.5" style="mix-blend-mode: overlay;isolation: isolate">
          <g id="Grupo_1360" data-name="Grupo 1360">
            <g id="Grupo_1359" data-name="Grupo 1359" clip-path="url(#clip-path-23)">
              <g id="Grupo_1358" data-name="Grupo 1358" transform="translate(0.001 -0.002)">
                <g id="Grupo_1357" data-name="Grupo 1357" clip-path="url(#clip-path-26)">
                  <rect id="Retângulo_185" data-name="Retângulo 185" width="18.894" height="18.181" transform="translate(0 0)" fill="url(#linear-gradient-12)"/>
                </g>
              </g>
            </g>
          </g>
        </g>
        <path id="Caminho_1522" data-name="Caminho 1522" d="M127.959,90.035v41.354l-27.805-10.81-12.366-4.816v-41.4L104.4,80.828Z" transform="translate(261.618 221.605)" fill="#ed639e"/>
        <path id="Caminho_1523" data-name="Caminho 1523" d="M168.086,86.1l-40.124,15.674L104.4,92.565,87.787,86.1l40.176-15.674L146.183,77.5Z" transform="translate(261.616 209.871)" fill="#4435ab"/>
        <path id="Caminho_1524" data-name="Caminho 1524" d="M138,74.361v41.4L97.881,131.385V90.035Z" transform="translate(291.698 221.606)" fill="#f3effe"/>
        <g id="Grupo_1366" data-name="Grupo 1366" transform="translate(355.042 287.376)" opacity="0.5" style="mix-blend-mode: overlay;isolation: isolate">
          <g id="Grupo_1365" data-name="Grupo 1365">
            <g id="Grupo_1364" data-name="Grupo 1364" clip-path="url(#clip-path-27)">
              <g id="Grupo_1363" data-name="Grupo 1363" transform="translate(0.001 0.002)">
                <g id="Grupo_1362" data-name="Grupo 1362" clip-path="url(#clip-path-28)">
                  <rect id="Retângulo_187" data-name="Retângulo 187" width="75.957" height="65.617" transform="translate(-1.296)" fill="url(#linear-gradient-13)"/>
                </g>
              </g>
            </g>
          </g>
        </g>
        <path id="Caminho_1526" data-name="Caminho 1526" d="M114.2,63.411V91.949L100.039,86.44l-13.608-5.29V52.613l21.982,8.541Z" transform="translate(257.575 156.794)" fill="#ed639e"/>
        <path id="Caminho_1527" data-name="Caminho 1527" d="M141.962,60.684l-15.976,6.281L114.2,71.538l-5.783-2.261L86.431,60.684l10.8-4.187h.056L114.2,49.886l7.877,3.085Z" transform="translate(257.575 148.668)" fill="#4435ab"/>
        <path id="Caminho_1528" data-name="Caminho 1528" d="M121.172,52.613V81.151l-9.035,3.526L93.407,91.949V63.411L105.2,58.838h.056l2.866-1.158Z" transform="translate(278.365 156.795)" fill="#f3effe"/>
        <g id="Grupo_1371" data-name="Grupo 1371" transform="translate(354.858 198.555)" opacity="0.5" style="mix-blend-mode: overlay;isolation: isolate">
          <g id="Grupo_1370" data-name="Grupo 1370">
            <g id="Grupo_1369" data-name="Grupo 1369" clip-path="url(#clip-path-29)">
              <g id="Grupo_1368" data-name="Grupo 1368" transform="translate(-0.001 -0.002)">
                <g id="Grupo_1367" data-name="Grupo 1367" clip-path="url(#clip-path-30)">
                  <rect id="Retângulo_189" data-name="Retângulo 189" width="36.581" height="50.19" transform="translate(0 0)" fill="url(#linear-gradient-14)"/>
                </g>
              </g>
            </g>
          </g>
        </g>
        <path id="Caminho_1530" data-name="Caminho 1530" d="M81.075,58.751V90.544L54.658,80.256,50.1,78.5V46.711l17.883,7.013Z" transform="translate(149.309 139.205)" fill="#ed639e"/>
        <path id="Caminho_1531" data-name="Caminho 1531" d="M111.932,55.726,94.515,62.5l-3.972,1.52-9.469,3.741L67.983,62.739,50.1,55.726l18.587-7.248,12.386-4.792,16.717,6.547.585.231Z" transform="translate(149.307 130.191)" fill="#4435ab"/>
        <path id="Caminho_1532" data-name="Caminho 1532" d="M88.741,46.711V78.5l-9.469,3.737-21.389,8.3V58.751l9.469-3.741,3.972-1.52Z" transform="translate(172.498 139.206)" fill="#f3effe"/>
        <g id="Grupo_1376" data-name="Grupo 1376" transform="translate(203.915 173.879)" opacity="0.5" style="mix-blend-mode: overlay;isolation: isolate">
          <g id="Grupo_1375" data-name="Grupo 1375">
            <g id="Grupo_1374" data-name="Grupo 1374" clip-path="url(#clip-path-31)">
              <g id="Grupo_1373" data-name="Grupo 1373" transform="translate(-0.001 0.002)">
                <g id="Grupo_1372" data-name="Grupo 1372" clip-path="url(#clip-path-32)">
                  <rect id="Retângulo_191" data-name="Retângulo 191" width="57.74" height="55.869" transform="translate(-0.414 0)" fill="url(#linear-gradient-15)"/>
                </g>
              </g>
            </g>
          </g>
        </g>
        <g id="Grupo_1379" data-name="Grupo 1379" transform="translate(245.672 30.675)" opacity="0.1">
          <g id="Grupo_1378" data-name="Grupo 1378">
            <g id="Grupo_1377" data-name="Grupo 1377" clip-path="url(#clip-path-33)">
              <path id="Caminho_1534" data-name="Caminho 1534" d="M225.012,263.8c-2.105-.7-8.649,1.516-11.57,2.336a13.993,13.993,0,0,1-5.262-2.691c0-.115-.111-.115-.227-.231l.7-.7c-3.972-4.442-7.6-8.768-11.1-13.21-11.1-13.791-20.454-26.882-28.4-36.816-4.911-6.078-9.349-11.22-13.56-14.376-4.561-3.976-13.56-7.948-24.08-11.69l1.52-.115h-1.632c-.239,0-.358-.119-.708-.235a81.91,81.91,0,0,1,.589-9.584c.119-.816.231-1.636.346-2.336.47-2.456.935-4.792,1.52-7.132a10.012,10.012,0,0,1,.47-1.986c.935-3.741,1.986-7.479,3.037-11.22.47-1.52.939-3.041,1.286-4.557.119-.585.35-1.17.474-1.871.462.585.935,1.051,1.4,1.636.824.82,1.52,1.751,2.336,2.571a22.24,22.24,0,0,0,2.921,2.806,8.792,8.792,0,0,0,1.524,1.4,27.8,27.8,0,0,0,3.737,2.691,4.049,4.049,0,0,1,.935.581,36.362,36.362,0,0,0,4.561,1.755c.119,0,.231.115.466.115.115,0,.47-.231.7-.231.346-.235.816-.354,1.516-.7.354-.231.931-.466,1.52-.816s1.166-.7,1.99-1.17c.462-.35,1.051-.7,1.632-1.051,1.051-.7,2.1-1.4,3.272-2.105a6.806,6.806,0,0,1,1.174-.816c6.309-4.326,14.257-10.169,22.086-15.9,3.51-2.456,6.778-5.027,9.934-7.363l3.626-1.755.235,1.286a1.228,1.228,0,0,0,1.516.82,1.063,1.063,0,0,0,.816-1.4l-.577-2.452a8.359,8.359,0,0,0,.812-1.755c-.115-2.921-.812-5.142-2.683-5.958L193.807,77.017v-.231c-3.626-1.52-7.132-3.276-10.4-4.911L170.428,83.214l-10.87,9.465a1.837,1.837,0,0,0,1.636,3.156c11.109-2.571,25.716-3.387,34.83.585l5.493,23.145a10.274,10.274,0,0,0-4.088,5.958c-13.325,7.483-34.361,19.638-41.262,19.168-4.557-3.272-7.829-11.805-15.427-18.7a1.553,1.553,0,0,1,.466-.35,21.419,21.419,0,0,0,5.612-3.741h.115a10.192,10.192,0,0,0,.47-2.571c0-.47.115-1.17.115-1.871a13.178,13.178,0,0,1,.119-2.106,23.909,23.909,0,0,0-.119-2.921v-2.456c0-1.166,0-2.336-.115-3.622,0-.935-.119-1.871-.119-2.921,0-1.286-.115-2.687-.231-4.207a16.171,16.171,0,0,0-.119-2.34c-.466-9.115-1.166-19.164-1.751-28.283l1.636-6.193a38.061,38.061,0,0,0,10.87-6.2c-1.982-1.4-3.968-2.806-5.839-4.207a42.332,42.332,0,0,1-4.8,2.687c0-.115.115-.115.115-.35-4.092-.816-7.71-.115-10.4,3.272l.235.935c-5.843,1.755-9.934,2.105-11.686,1.755l1.051-22.09a33.067,33.067,0,0,0,6.428-1.286C120.055,26.29,108.011,16.121,92.819,7.707a29.206,29.206,0,0,0,1.64,9.349,26.225,26.225,0,0,0,2.567,5.5A30.748,30.748,0,0,0,119.7,38.1l-1.17,23.61.235,1.286c1.174,3.276,4.677,4.792,10.523,4.207a45.262,45.262,0,0,0,9.234-1.986l.7,2.921c-.466,7.483-.935,17.182-1.747,25.831-3.041-2.571-5.381-5.843-9.234-3.387-4.092,2.571-8.068-.935-11.694,6.894-3.5,7.948-.115,13.441,2.691,15.081a11.917,11.917,0,0,0,4.673,1.4h.123l-.123.35a68.9,68.9,0,0,0-11.455,1.17,7,7,0,0,0-3.037.585C99.132,126.693,87.677,161.643,83,187a1.081,1.081,0,0,0,.585.115c-3.741,19.519.7,23.96,4.8,51.427-.354,20.223-10.993,41.963-20.693,69.545l1.051.354a14.583,14.583,0,0,1-3.033,4.673c-1.4.35-2.691,1.871-3.976,3.507-.235,1.17,6.663,5.612,12.151,8.183.7.235,1.29.466,1.871.7.239.115.354.235.585.235a6.915,6.915,0,0,0,1.875.585.873.873,0,0,0,.462.115,3.3,3.3,0,0,0,1.524,0,.875.875,0,0,0,.231-.585,2.571,2.571,0,0,0-.346-1.166.118.118,0,0,0-.123-.119,10.623,10.623,0,0,0-1.747-2.687v-.119a66.393,66.393,0,0,0-4.681-5.493v-.935a20.045,20.045,0,0,1-.115-2.571,16.735,16.735,0,0,1,.466-2.336c.123-.119.123-.235.123-.47l.7.235.239.115c11.8-25.712,25.712-46.986,33.071-62.647a72.393,72.393,0,0,0,4.442-11.805,25.255,25.255,0,0,0,1.055-4.908,5.78,5.78,0,0,1,.115-1.4c.115-1.516.239-3.037.354-4.673v-1.4c0-3.387,0-7.013-.239-10.985,8.422,4.092,17.067,3.972,34.715,8.764,18.233,8.533,33.9,27.117,55.173,46.99l.816-.82a13.9,13.9,0,0,1,3.037,4.792c-.235,1.286.7,3.156,1.64,5.027,1.051.585,7.833-3.857,12.386-7.948,0-.115.115-.115.235-.235a23.433,23.433,0,0,0,1.751-1.751c.235-.119.35-.35.47-.47.354-.466.816-.935,1.051-1.286.119-.35.239-.466.239-.7.115-.235.346-.47.346-.7a.964.964,0,0,0-.585-.35M136.3,102.148a.113.113,0,0,1,.115-.115c0,.115-.115.231-.115.35Z" transform="translate(-61.724 -7.707)"/>
            </g>
          </g>
        </g>
        <g id="Grupo_1382" data-name="Grupo 1382" transform="translate(316.96 208.621)" opacity="0.1">
          <g id="Grupo_1381" data-name="Grupo 1381">
            <g id="Grupo_1380" data-name="Grupo 1380" clip-path="url(#clip-path-34)">
              <path id="Caminho_1535" data-name="Caminho 1535" d="M83.676,52.416c-2.583.326-4.04.593-4.04.593l3.881-.4.159-.2" transform="translate(-79.634 -52.414)"/>
            </g>
          </g>
        </g>
        <path id="Caminho_1536" data-name="Caminho 1536" d="M142.543,30.134V52.65a6.536,6.536,0,0,1-6.555,6.5H42.275a6.435,6.435,0,0,1-5.282-2.667A6.214,6.214,0,0,1,35.72,52.65V30.134a6.513,6.513,0,0,1,6.555-6.555h93.712a6.548,6.548,0,0,1,6.555,6.555" transform="translate(106.451 70.269)" fill="#fff"/>
        <path id="Caminho_1537" data-name="Caminho 1537" d="M63.094,50.072H41.347a4.289,4.289,0,0,1-4.291-4.287V29.173a4.289,4.289,0,0,1,4.291-4.287H63.094a4.286,4.286,0,0,1,4.287,4.287V45.786a4.286,4.286,0,0,1-4.287,4.287" transform="translate(110.432 74.164)" fill="#ed639e"/>
        <path id="Caminho_1538" data-name="Caminho 1538" d="M66.282,30.553H48.16a.964.964,0,0,1-.963-.963V25.852a.965.965,0,0,1,.963-.967H66.282a.965.965,0,0,1,.963.967V29.59a.964.964,0,0,1-.963.963" transform="translate(140.654 74.161)" fill="#b05cbb"/>
        <path id="Caminho_1539" data-name="Caminho 1539" d="M97.02,42.765H49.247a2.052,2.052,0,0,1-2.05-2.05V29.388a2.052,2.052,0,0,1,2.05-2.05H97.02a2.052,2.052,0,0,1,2.05,2.05V40.715a2.052,2.052,0,0,1-2.05,2.05" transform="translate(140.654 81.471)" fill="#b05cbb"/>
        <g id="Grupo_1387" data-name="Grupo 1387" transform="translate(143.345 93.844)" opacity="0.5" style="mix-blend-mode: overlay;isolation: isolate">
          <g id="Grupo_1386" data-name="Grupo 1386">
            <g id="Grupo_1385" data-name="Grupo 1385" clip-path="url(#clip-path-35)">
              <g id="Grupo_1384" data-name="Grupo 1384" transform="translate(0 0)">
                <g id="Grupo_1383" data-name="Grupo 1383" clip-path="url(#clip-path-36)">
                  <rect id="Retângulo_195" data-name="Retângulo 195" width="105.72" height="35.571" transform="translate(-0.072 0)" fill="url(#linear-gradient-16)"/>
                </g>
              </g>
            </g>
          </g>
        </g>
        <path id="Caminho_1541" data-name="Caminho 1541" d="M84.552,31.725,87.04,22.3,76.075,20.7l2.515,10.48Z" transform="translate(226.712 61.7)" fill="#f4d5b5"/>
        <path id="Caminho_1542" data-name="Caminho 1542" d="M66.805,85.123a13.764,13.764,0,0,0-.693,7.164,10.27,10.27,0,0,1-7.893-3.069c1.56-1.8,3.311-3.678,3.546-5.763Z" transform="translate(173.504 248.707)" fill="#f4d5b5"/>
        <path id="Caminho_1543" data-name="Caminho 1543" d="M61.2,84.9c-1.377.322-2.679,1.887-3.98,3.487C56.917,90.2,73,99.49,75.759,98.209c1.333-1.317-4.414-7.618-6.663-10.237A21.087,21.087,0,0,1,61.2,84.9" transform="translate(170.52 253.023)" fill="#f3effe"/>
        <path id="Caminho_1544" data-name="Caminho 1544" d="M66,185.225c15.005-32.776,33.688-58.612,37.521-74.425,3.566-11.63.163-38.993-2.878-60.53L75.731,56.917c-5.723,24.251-.7,26.794,3.745,56.59-.45,20.2-11.077,41.986-20.756,69.537Z" transform="translate(174.994 149.812)" fill="#763e7f"/>
        <path id="Caminho_1545" data-name="Caminho 1545" d="M96.448,72.213a13.747,13.747,0,0,0,6.277,3.522,10.275,10.275,0,0,1-5.99,5.986c-1.011-2.153-2.03-4.513-3.845-5.568Z" transform="translate(276.825 215.205)" fill="#f4d5b5"/>
        <path id="Caminho_1546" data-name="Caminho 1546" d="M93.889,80.989c-.259,1.389.649,3.212,1.588,5.047,1.532,1.015,16.514-9.958,16.458-13-.673-1.751-8.752.971-12.056,1.97a21.086,21.086,0,0,1-5.99,5.986" transform="translate(279.67 215.937)" fill="#f3effe"/>
        <path id="Caminho_1547" data-name="Caminho 1547" d="M178.491,136.652c-23.945-26.946-40.056-54.46-52.98-64.343-9.2-7.952-35.618-15.869-56.554-21.767L65.825,70.693C84.512,93.05,89.236,87.462,118.291,95.406c18.309,8.557,33.959,27.069,55.268,47.033Z" transform="translate(196.168 150.622)" fill="#763e7f"/>
        <path id="Caminho_1548" data-name="Caminho 1548" d="M62.559,106.83c17.62,3.578,30.687.243,47.766-.557-.565-22.48,11.025-36.769,9.974-60.59-2.826-4.617-25.417-12.661-31.276-9.891C78.79,46.479,67.347,81.484,62.559,106.83" transform="translate(186.434 104.977)" fill="#fff"/>
        <path id="Caminho_1549" data-name="Caminho 1549" d="M79.677,38.142c7.7,6.9,10.969,15.523,15.5,18.762,6.878.462,27.889-11.694,41.19-19.148l2.758,5.313c-17.19,12.422-39.181,29.326-43.9,30.118C88.278,71.6,82.085,65.724,76.19,58.158Z" transform="translate(227.057 112.518)" fill="#fff"/>
        <path id="Caminho_1550" data-name="Caminho 1550" d="M69.208,71.226c9.962-2.762,18.6-.808,23.765-2.878,4.1-5.54,5.19-29.791,6.082-45.011l5.962.541c1.194,21.178,3.574,48.812,1.7,53.21-5.087,5-13.373,7.045-22.926,7.924Z" transform="translate(206.249 69.547)" fill="#fff"/>
        <path id="Caminho_1551" data-name="Caminho 1551" d="M72.538,43.82,76.132,34.9l6.094-1.946L79.933,46.359c-2.7.625-5.134-.434-7.4-2.539" transform="translate(216.173 98.196)" fill="#f4d5b5"/>
        <path id="Caminho_1552" data-name="Caminho 1552" d="M72.486,31.992,72.1,48.331c4.478,2.587,13.875,5.926,14.75,3.164,2.09-8.752,1.461-16.151-2.949-21.668Z" transform="translate(214.856 88.889)" fill="#f4d5b5"/>
        <path id="Caminho_1553" data-name="Caminho 1553" d="M86.823,42.154c5.5,1.859,10.225-6.125,6.83-8.637s-5.723-6.527-9.831-3.908-8.02-.935-11.638,6.957-.2,13.473,2.6,15.057c3.8,2.157,8.967,2.01,8.291-.151s-3.988-7.367-3.1-8.923,3.483.621,4.4,2.511,2.448-2.905,2.448-2.905" transform="translate(210.465 85.696)" fill="#36164d"/>
        <path id="Caminho_1554" data-name="Caminho 1554" d="M120.053,53.787c-.442-.215-.88-.438-1.377-.657-9.035-3.968-23.634-3.085-34.818-.549a1.825,1.825,0,0,1-1.6-3.14l10.854-9.477,18.619-16.251.991-.888,2.921,12.4Z" transform="translate(243.346 68.025)" fill="#ed639e"/>
        <path id="Caminho_1555" data-name="Caminho 1555" d="M106.649,87.35a1.158,1.158,0,0,1-.88,1.433,1.182,1.182,0,0,1-1.433-.884L96.293,54.02,92.325,37.272,89.352,24.6l-.167-.6a1.249,1.249,0,0,1,.884-1.433,1.158,1.158,0,0,1,1.433.88l2.643,11.24Z" transform="translate(265.729 67.131)" fill="#4435ab"/>
        <g id="Grupo_1392" data-name="Grupo 1392" transform="translate(324.999 101.816)" opacity="0.5" style="mix-blend-mode: overlay;isolation: isolate">
          <g id="Grupo_1391" data-name="Grupo 1391">
            <g id="Grupo_1390" data-name="Grupo 1390" clip-path="url(#clip-path-37)">
              <g id="Grupo_1389" data-name="Grupo 1389" transform="translate(0.001 0)">
                <g id="Grupo_1388" data-name="Grupo 1388" clip-path="url(#clip-path-38)">
                  <rect id="Retângulo_197" data-name="Retângulo 197" width="59.583" height="63.994" transform="matrix(0.973, -0.232, 0.232, 0.973, -13.018, 2.921)" fill="url(#linear-gradient-17)"/>
                </g>
              </g>
            </g>
          </g>
        </g>
        <path id="Caminho_1557" data-name="Caminho 1557" d="M91.309,42.234a10.413,10.413,0,0,1,4.115-5.982,2.937,2.937,0,0,0,2.424.016c1.823.86,2.507,3.089,2.631,5.99-.541,1.914-1.409,3.208-2.806,3.495l-3.6,1.8Z" transform="translate(272.113 108.036)" fill="#f4d5b5"/>
        <path id="Caminho_1558" data-name="Caminho 1558" d="M95.854,52.249a58.74,58.74,0,0,1-13.676,3.3c-5.807.525-9.333-.9-10.484-4.243l-.187-1.329,1.417-30.285,20.888-7.463,20.331,23.909c2.547,7.415-10.368,13.278-18.289,16.112m-17.592-3.6c2.046.346,7.475-.131,15.343-2.945S106,39.815,107.385,38.243L91.858,20.269,79.377,24.731Z" transform="translate(213.104 36.444)" fill="#4435ab"/>
        <path id="Caminho_1559" data-name="Caminho 1559" d="M124.3,21.371c5.676,16.506-2.6,34.428-18.424,40.116-14.1,5-29.306-1.23-36.589-14.126a31.659,31.659,0,0,1-2.484-5.5c-5.68-16.5,2.6-34.424,18.516-40.132a29.978,29.978,0,0,1,31.9,7.924A31.965,31.965,0,0,1,124.3,21.371" transform="translate(193.748 -0.002)" fill="#ed639e"/>
        <path id="Caminho_1560" data-name="Caminho 1560" d="M82.8,2.933C70.02,7.5,63.4,22.014,67.966,35.288S86.573,55.615,99.345,51.053,118.764,32.044,114.2,18.77,95.568-1.632,82.8,2.933M97.833,46.651C87.421,50.373,75.922,44.6,72.2,33.776c-3.745-10.894,1.7-22.719,12.108-26.44s21.911,2.054,25.656,12.947c3.721,10.822-1.719,22.647-12.131,26.368" transform="translate(198.246 4.625)" fill="#fff"/>
        <path id="Caminho_1561" data-name="Caminho 1561" d="M78.036,4.753l5.763,7.8,8.88-3.172-5.317,7.988,5.763,7.8-9.051-2.858L78.757,30.3l-.275-9.755-9.051-2.858,8.88-3.172Z" transform="translate(206.915 14.163)" fill="#fff"/>
        <g id="Grupo_1397" data-name="Grupo 1397" transform="translate(262.673 9.648)" opacity="0.5" style="mix-blend-mode: overlay;isolation: isolate">
          <g id="Grupo_1396" data-name="Grupo 1396">
            <g id="Grupo_1395" data-name="Grupo 1395" clip-path="url(#clip-path-39)">
              <g id="Grupo_1394" data-name="Grupo 1394" transform="translate(0.001 0)">
                <g id="Grupo_1393" data-name="Grupo 1393" clip-path="url(#clip-path-40)">
                  <path id="Caminho_1562" data-name="Caminho 1562" d="M137.5-.825l25.252,65.136-76.7,17.567L60.807,16.742Z" transform="translate(-81.461 -12.106)" fill="url(#linear-gradient-18)"/>
                </g>
              </g>
            </g>
          </g>
        </g>
        <path id="Caminho_1564" data-name="Caminho 1564" d="M76.075,23.369c2.7-3.375,6.317-4.084,10.468-3.232-.693,2.277-2.579,3.69-5.341,4.474-2.109.641-3.59-.378-5.126-1.242" transform="translate(226.714 59.032)" fill="#f4d5b5"/>
        <g id="Grupo_1400" data-name="Grupo 1400" transform="translate(236.871 229.526)" opacity="0.1">
          <g id="Grupo_1399" data-name="Grupo 1399">
            <g id="Grupo_1398" data-name="Grupo 1398" clip-path="url(#clip-path-41)">
              <path id="Caminho_1565" data-name="Caminho 1565" d="M62.707,162.911a12.864,12.864,0,0,0-.43,6.225c2.229,2.627,7.988,8.931,6.639,10.257-1.142.474-4.41-.677-7.861-2.46,1.883-.2,2.221-1.536.275-5.441a10.866,10.866,0,0,1-.967-2.456,1.573,1.573,0,0,1-.159-.4,14.206,14.206,0,0,1-.505-6.667,6.485,6.485,0,0,1,.131-1.023,28.356,28.356,0,0,1,4.255-9.532c5.126-7.956,40.275-67.487,27.7-93.748,0,0,7.849,5.095,10.607,7.666l.064.052c.513,9.636.314,18.1-1.286,23.375-3.849,15.789-22.536,41.664-37.545,74.413Z" transform="translate(-59.511 -57.667)"/>
            </g>
          </g>
        </g>
        <g id="Grupo_1403" data-name="Grupo 1403" transform="translate(299.061 210.422)" opacity="0.1">
          <g id="Grupo_1402" data-name="Grupo 1402">
            <g id="Grupo_1401" data-name="Grupo 1401" clip-path="url(#clip-path-34)">
              <path id="Caminho_1566" data-name="Caminho 1566" d="M79.179,52.868l-.159.2-3.881.4s1.457-.271,4.04-.593" transform="translate(-75.136 -52.868)"/>
            </g>
          </g>
        </g>
        <g id="Grupo_1406" data-name="Grupo 1406" transform="translate(284.559 211.015)" opacity="0.1">
          <g id="Grupo_1405" data-name="Grupo 1405">
            <g id="Grupo_1404" data-name="Grupo 1404" clip-path="url(#clip-path-43)">
              <path id="Caminho_1567" data-name="Caminho 1567" d="M178.524,130.968c.02,1.365-3,4.35-6.468,7.085.9-3.423-1.879-.939-6.778-2.933-.123-.044-.247-.092-.37-.139a37.824,37.824,0,0,1-5.6-3.053c-.314-.143-.573-.354-.884-.5-5.5-3.717-12.526-10.249-20.514-22.627-11.53-17.958-16.358-27.925-24.756-33.306-8.334-5.325-34.472-21.962-41.656-21.286l1.95-.143,6.834-.581.7-.072,2.714-.219.7-.072,1.6-.1-1.528.155c10.488,3.741,19.519,7.745,24.147,11.729,12.9,9.911,29.047,37.445,52.968,64.355l-.633.78a13.157,13.157,0,0,0,5.528,2.882c3.284-.991,11.387-3.725,12.044-1.95" transform="translate(-71.497 -53.017)"/>
            </g>
          </g>
        </g>
        <g id="Grupo_1409" data-name="Grupo 1409" transform="translate(299.061 210.422)" opacity="0.1">
          <g id="Grupo_1408" data-name="Grupo 1408">
            <g id="Grupo_1407" data-name="Grupo 1407" clip-path="url(#clip-path-34)">
              <path id="Caminho_1568" data-name="Caminho 1568" d="M79.02,53.063l-3.881.4s1.457-.267,4.04-.593Z" transform="translate(-75.136 -52.868)"/>
            </g>
          </g>
        </g>
        <g id="Grupo_1412" data-name="Grupo 1412" transform="translate(286.413 162.667)" opacity="0.1">
          <g id="Grupo_1411" data-name="Grupo 1411">
            <g id="Grupo_1410" data-name="Grupo 1410" clip-path="url(#clip-path-45)">
              <path id="Caminho_1569" data-name="Caminho 1569" d="M141.733,41.093C126.919,52,111.667,63.258,107.81,63.891c-6.448-1.417-12.275-6.647-17.791-13.513-3.093,12.744-8,24-7.682,38.715a2.943,2.943,0,0,0,.677.227l1.6-.1-12.649,1.3a.674.674,0,0,0,.1-.247c.056,0,.052-.064.052-.064.3-.565.983-2,1.859-3.877,3.132-6.563,8.9-19.284,10.488-26.993a37.5,37.5,0,0,0-.824-18.464c.533.541,2.663,2.758,5.624,5.548.454.366.911.8,1.373,1.226,4.458,4.06,10.356,8.8,15.069,10.7,6.141,2.519,24.382-9.158,36.036-17.25" transform="translate(-71.959 -40.869)"/>
            </g>
          </g>
        </g>
        <g id="Grupo_1415" data-name="Grupo 1415" transform="translate(300.944 101.231)" opacity="0.1">
          <g id="Grupo_1414" data-name="Grupo 1414">
            <g id="Grupo_1413" data-name="Grupo 1413" clip-path="url(#clip-path-46)">
              <path id="Caminho_1570" data-name="Caminho 1570" d="M86.362,25.434c1.3,19.6,2.89,41.493,1.27,45.405a21.574,21.574,0,0,1-6.181,4.08l-.064-.052A49.635,49.635,0,0,0,75.8,70.8a.748.748,0,0,1-.187-.1c11.172-.609,10.846-40.287,10.75-45.27" transform="translate(-75.61 -25.434)"/>
            </g>
          </g>
        </g>
        <g id="Grupo_1418" data-name="Grupo 1418" transform="translate(293.202 140.029)" opacity="0.1">
          <g id="Grupo_1417" data-name="Grupo 1417">
            <g id="Grupo_1416" data-name="Grupo 1416" clip-path="url(#clip-path-47)">
              <path id="Caminho_1571" data-name="Caminho 1571" d="M73.666,35.182s2.527,1.918,1.556,4.7c0,0,1.254-.107,1.867-.171s.08-3.5.08-3.5Z" transform="translate(-73.667 -35.182)"/>
            </g>
          </g>
        </g>
      </g>
    </g>
  </g>
</svg>
