<svg xmlns="http://www.w3.org/2000/svg" width="168" height="167" viewBox="0 0 168 167">
  <g id="Grupo_3852" data-name="Grupo 3852" transform="translate(-414 -1549)">
    <ellipse id="Elipse_266" data-name="Elipse 266" cx="84" cy="83.5" rx="84" ry="83.5" transform="translate(414 1549)" fill="#1f7fa0"/>
    <path id="Caminho_4373" data-name="Caminho 4373" d="M158.714,202.115c.274,0,.691.446,3.942,2.448l-2.142,3.443-3.732-2.343c-.14-.209-.274-.412-.14-.619,1.731-2.547,1.591-2.823,1.939-2.894a.377.377,0,0,1,.132-.035m8.145.395a1,1,0,0,1,.5.121l7.739,4.826-6.5,10.333-7.739-4.825a.966.966,0,0,1-.348-1.378c1.109-1.788,3.594-5.716,5.463-8.61a.991.991,0,0,1,.883-.468m24.41,14.246c.831.688,3.873,1.725,4.773,5.376a6.8,6.8,0,0,1-6.734,8.344,6.922,6.922,0,0,1-3.634-1.041l-1.731-1.037Zm-26.331,1.035,3.251,2.066.069.069-11.2,11.232a9.986,9.986,0,0,0-3.111-2.343ZM150.72,230.157a6.5,6.5,0,0,1,2.816.654c5.951,2.969,3.692,12-2.816,12-.144,0-.289-.006-.435-.011a6.327,6.327,0,0,1,.435-12.643m11.315,22.081a2.255,2.255,0,0,1,2.281,2.275V256.3h-5.805v-1.787h-.069a2.237,2.237,0,0,1,2.211-2.275Zm5.463,5.925a3.867,3.867,0,0,1,3.866,3.923v1.725H134.043v-1.725a3.887,3.887,0,0,1,3.941-3.923Zm-8.865-57.951a2.432,2.432,0,0,0-2.06,1.112l-1.725,2.754a2.37,2.37,0,0,0,.831,3.309l3.663,2.344c-.209.55-1.382,1.516-.9,3.165a2.569,2.569,0,0,0,1.243,1.794l3.46,2.135L151.668,228.4a9.264,9.264,0,0,0-1.051-.063,8.276,8.276,0,0,0-8.279,8.263,8.184,8.184,0,0,0,3.454,6.684V248.8a.94.94,0,0,0,.97.96.982.982,0,0,0,.963-.96v-4.479a8.655,8.655,0,0,0,2.809.492,6.559,6.559,0,0,0,1.063-.081V256.37h-3.872v-3.923a.983.983,0,0,0-.963-.966.942.942,0,0,0-.97.966v3.923h-7.877a5.771,5.771,0,0,0-5.735,5.787v2.76a.972.972,0,0,0,.893.96h39.261a1.041,1.041,0,0,0,.97-.96v-2.76a5.836,5.836,0,0,0-5.805-5.787H166.11v-1.788a4.109,4.109,0,0,0-4.145-4.138h-1.381a4.153,4.153,0,0,0-4.145,4.138v1.788h-2.972V244.247a8.2,8.2,0,0,0,4.492-11.37l11.193-11.163,7.054,12.06a2.51,2.51,0,0,0,2.188,1.255,2.323,2.323,0,0,0,2.026-1.117l2.351-3.72,1.729,1.029a9.069,9.069,0,0,0,4.639,1.3,8.916,8.916,0,0,0,8.766-10.937c-1.034-4.548-4.836-5.926-5.6-6.551l2.351-3.715a2.52,2.52,0,0,0-1.939-3.79l-6.217-.487a.692.692,0,0,0-.109-.006.937.937,0,0,0-.929.834.91.91,0,0,0,.9,1.035l6.224.55a.514.514,0,0,1,.412.828c-2.142,3.373-12.371,19.633-14.1,22.388a.65.65,0,0,1-.51.261.528.528,0,0,1-.459-.261l-7.877-13.291-.071-.209,6.914-11.023,5.805.55a.653.653,0,0,0,.105.006.968.968,0,0,0,.035-1.934l-6.223-.485-8.359-5.3a2.972,2.972,0,0,0-1.533-.429,3.045,3.045,0,0,0-2.548,1.389l-.551.966-3.732-2.344a2.41,2.41,0,0,0-1.26-.353" transform="translate(333.106 1399.281)" fill="#fff" fill-rule="evenodd"/>
  </g>
</svg>
