<svg id="Camada_1" data-name="Camada 1" xmlns="http://www.w3.org/2000/svg" xmlns:xlink="http://www.w3.org/1999/xlink" viewBox="0 0 247.25 292.41"><defs><style>.cls-1{fill:#00edff;}.cls-2,.cls-6{isolation:isolate;}.cls-2{opacity:0.5;fill:url(#Gradiente_sem_nome);}.cls-3{fill:#fff;}.cls-4{fill:#f0eff4;}.cls-5{fill:#fbd783;}.cls-6{opacity:0.1;}.cls-7{fill:#3f216b;}.cls-8{fill:#2a195b;}.cls-9{fill:#2c2789;}</style><linearGradient id="Gradiente_sem_nome" x1="-866.76" y1="345.39" x2="-865.76" y2="345.39" gradientTransform="matrix(106.25, 0, 0, -47.81, 92132.06, 16566.9)" gradientUnits="userSpaceOnUse"><stop offset="0" stop-color="#fff"/><stop offset="0.12" stop-color="#e7e7e7"/><stop offset="0.37" stop-color="#ababab"/><stop offset="0.73" stop-color="#4b4b4b"/><stop offset="1"/></linearGradient></defs><g id="Grupo_1200" data-name="Grupo 1200"><g id="Grupo_1147" data-name="Grupo 1147"><g id="Grupo_1142" data-name="Grupo 1142"><path id="Caminho_1280" data-name="Caminho 1280" class="cls-1" d="M149.9,18.29l-4,14.6L134.55,74.7a5.43,5.43,0,0,1-5.93,3.8l-85.32-13a4.11,4.11,0,0,1-3.57-4.57,3.85,3.85,0,0,1,.13-.66l6.33-23.13L55.25,3.86A5.38,5.38,0,0,1,61.14.06l85.32,13a4.06,4.06,0,0,1,3.6,4.47A3.7,3.7,0,0,1,149.9,18.29Z"/><path id="Caminho_1281" data-name="Caminho 1281" class="cls-2" d="M146,32.89,134.55,74.7a5.41,5.41,0,0,1-5.93,3.79l-85.32-13a4.1,4.1,0,0,1-3.57-4.56,3.85,3.85,0,0,1,.13-.66l6.33-23.14c.52-.31,1-.59,1.54-.87,7.2-3.8,15.39-6.6,23.38-5.1C81.87,33.21,90,42.62,100.66,45.08a40,40,0,0,0,8.38.83c6.85.11,13.77-.36,20.21-2.65C135.42,41,140.92,37.16,146,32.89Z"/><path id="Caminho_1282" data-name="Caminho 1282" class="cls-3" d="M100,50.27,61.75,43.08,69.17,9.51l38.7,5.15Z"/><path id="Caminho_1283" data-name="Caminho 1283" class="cls-3" d="M141.43,23.88l-30-4.57.9-3.31,30,4.57Z"/><path id="Caminho_1284" data-name="Caminho 1284" class="cls-3" d="M139.16,32.23l-30-4.57.9-3.31,30,4.57Z"/><path id="Caminho_1285" data-name="Caminho 1285" class="cls-3" d="M136.88,40.59l-30-4.57.9-3.32,30,4.57Z"/><path id="Caminho_1286" data-name="Caminho 1286" class="cls-3" d="M106.15,64.57l-46.24-7,1.27-4.67,46.24,7Z"/><path id="Caminho_1287" data-name="Caminho 1287" class="cls-3" d="M104.46,70.74l-46.24-7L59.49,59l46.25,7Z"/></g><g id="Grupo_1143" data-name="Grupo 1143"><path id="Caminho_1288" data-name="Caminho 1288" class="cls-4" d="M92.13,46.51c-.41.94-.83,1.86-1.28,2.78-5.59,12.14-11.55,23.6-17.64,32l0,.06C69.79,85.92,66.39,89.57,63,91.85c-2.9,1.67-13.39-1.14-22.88-4.51A124.11,124.11,0,0,1,25,81l.72-8.49L34.3,60.7l.06-.08,23.74,16L85.87,42.53Z"/><path id="Caminho_1289" data-name="Caminho 1289" class="cls-5" d="M85.88,42.53a26.4,26.4,0,0,1,2.68-6.67l9.26-4.19c2.26-.93,3.2,1.38,1,2.3l-4.54,2.67c1.5,2,.92,4.57.67,6.76l-2.76,3.1Z"/><path id="Caminho_1290" data-name="Caminho 1290" class="cls-6" d="M90.85,49.29c-5.59,12.14-11.55,23.6-17.64,32l0,.06C69.79,85.92,66.39,89.56,63,91.85c-2.89,1.67-13.38-1.14-22.88-4.51a51.25,51.25,0,0,1,10.08-2.78C75.44,79.94,79.92,62.46,90.85,49.29Z"/></g><ellipse id="Elipse_243" data-name="Elipse 243" class="cls-6" cx="17.39" cy="289.72" rx="17.39" ry="2.69"/><g id="Grupo_1144" data-name="Grupo 1144"><path id="Caminho_1291" data-name="Caminho 1291" class="cls-5" d="M65.82,276a8.29,8.29,0,0,0,.38,4.8c1,2.79-13.48,3.75-13.48,3.75a10.32,10.32,0,0,1,1.52-7.3c2.34-3.45,2.34-5.93,2.34-5.93Z"/><path id="Caminho_1292" data-name="Caminho 1292" class="cls-1" d="M43.81,135.62c2.38,35.88,14.7,49.2,14.7,63.08s-4.83,74.37-4.83,74.37c1.8,2.27,11.51,3.79,14.85,2.39,7-33.94,13.63-73,13.33-84.57A207,207,0,0,0,71.19,133Z"/><path id="Caminho_1293" data-name="Caminho 1293" class="cls-7" d="M51.73,281.82c-2,3.44-2.3,6.63-.9,9.57,11.24.15,22.19.56,32.68.06,0-4-10.7-9.39-16.68-11A17.53,17.53,0,0,1,51.73,281.82Z"/></g><g id="Grupo_1145" data-name="Grupo 1145"><path id="Caminho_1294" data-name="Caminho 1294" class="cls-5" d="M20.61,270.47a8.24,8.24,0,0,0-.6,4.77c.4,2.94-14,.93-14,.93a10.33,10.33,0,0,1,3-6.84c3-2.9,3.5-5.33,3.5-5.33Z"/><path id="Caminho_1295" data-name="Caminho 1295" class="cls-1" d="M27.69,128.59c-5,35.61,4.35,51.17,1.52,64.76S9.32,265.16,9.32,265.16c1.29,2.6,10.5,6.06,14.05,5.37,13.78-31.79,28.22-68.68,30.29-80.07A207,207,0,0,0,55,131.59Z"/><path id="Caminho_1296" data-name="Caminho 1296" class="cls-7" d="M5.62,273.34c-2.63,3-3.6,6-2.83,9.18,11,2.44,21.61,5.07,32,6.72.82-3.95-8.56-11.37-14.08-14.2A17.57,17.57,0,0,1,5.62,273.34Z"/></g><path id="Caminho_1297" data-name="Caminho 1297" class="cls-4" d="M78.47,103.26c0,18.07-1.34,37-2.83,44.69-3.32,1.87-5.3,1.39-11.92,1.87-1.39.11-2.84.11-4.39.11-13.79-.06-32.39-3.69-36.56-7.91,2.78-36.3-.64-72.17,10.16-80.56,8.92-4.76,28.33-2.62,41.69,3.37,2.62,5,3.69,18.44,3.8,33.41C78.47,99.89,78.47,101.55,78.47,103.26Z"/><path id="Caminho_1298" data-name="Caminho 1298" class="cls-5" d="M43.76,58.92c1.92-3.24,2.3-6.9,2.46-11.05H55a37.7,37.7,0,0,0,1.2,12.29C55.31,61.89,44.62,61.2,43.76,58.92Z"/><path id="Caminho_1299" data-name="Caminho 1299" class="cls-5" d="M44.6,51.39c5.28,2.37,10.6,4.83,13.84,2.64,3.66-4.15,7.06-17.19,7.31-24.51L44.63,28Z"/><path id="Caminho_1300" data-name="Caminho 1300" class="cls-6" d="M82.24,288.87c-9.25,1.59-19.35-2.38-22.81-5.11l0-.05a2.2,2.2,0,0,1-.57-.85c-.57-1.42-.29-4,.57-7.49.17-.74.34-1.54.56-2.39,2.73-10.44,8.68-27.46,12.2-47.88,5.45-31.83-1.19-60.88-12.71-75.3a1.84,1.84,0,0,0,.57-.05c2.89-.12,5.67.39,8.28-.18,2.44-.56,5.21-.61,7.37-1.63a190,190,0,0,1,6.2,42.94c.34,11.58-6.3,50.67-13.33,84.6a8.1,8.1,0,0,1-2.67.46,8.44,8.44,0,0,0,.34,4.82c.23-.11.4-.23.62-.34C71.57,281.72,79.35,285.35,82.24,288.87Z"/><path id="Caminho_1301" data-name="Caminho 1301" class="cls-6" d="M54.49,185.21v.06c-.28,1.87-.56,3.63-.85,5.22-2,11.34-16.51,48.22-30.3,80.05a10.78,10.78,0,0,1-2.78,0,9.14,9.14,0,0,0-.56,4.71c.22-.05.45-.17.68-.22,4.31,2.21,11,7.2,13.27,11.17-7.6-1.41-18.21-5.33-20.42-9.41a3,3,0,0,1-.23-2.61c.34-.74,1.14-2.56,2.21-5.11.29-.62.57-1.25.85-2,7.49-17.53,25.7-60.54,29-72.28,3.8-13.34,4.14-20.09,0-30.07A79.23,79.23,0,0,1,54.49,185.21Z"/><g id="Grupo_1146" data-name="Grupo 1146"><path id="Caminho_1302" data-name="Caminho 1302" class="cls-4" d="M131.65,82.31c-3.47,2.4-7,4.75-10.42,7a169.63,169.63,0,0,1-23.68,13.1h0a45.06,45.06,0,0,1-14.17,3.85c-1.17,0-2.83-1.13-4.86-3a75.61,75.61,0,0,1-7.75-8.55A214.29,214.29,0,0,1,55.16,73l6.1-2.56,13.36-5.62.21-.1L87,90.7l41.37-15Z"/><path id="Caminho_1303" data-name="Caminho 1303" class="cls-5" d="M131.64,82.3s5.64-2.66,6.51-6.35c1.08-4.62,1.3-8.88-1.32-9.66s-3.12,7.9-4.24,7.24.08-2.5-1.19-2.82-3.06,5-3.06,5Z"/></g><path id="Caminho_1304" data-name="Caminho 1304" class="cls-8" d="M59.91,36.64c5-.14,11-5.65,6.51-9.81s-24.77-9.45-29.33,7.49C34,46,37.9,50.83,33.49,57.62s-12,12.46-4.15,19.9S51.9,87.4,56.23,81s12.3-11.12,5.52-16.73-6-7.5-3.21-14.94S59.91,36.64,59.91,36.64Z"/><path id="Caminho_1305" data-name="Caminho 1305" class="cls-6" d="M121.23,89.31a167.6,167.6,0,0,1-23.68,13.1h0a45.06,45.06,0,0,1-14.17,3.85c-1.18,0-2.83-1.12-4.86-3-.06,18.07-1.34,37.05-2.84,44.69-3.31,1.87-5.29,1.39-11.92,1.87-1.39.11-2.83.11-4.38.11l.11-.11c15-15,12.35-46.34,11.28-55.11-.16-1.5-.32-2.35-.32-2.35a14.81,14.81,0,0,0,8,5.88C88.78,101.82,104.93,97.49,121.23,89.31Z"/></g><g id="Grupo_1152" data-name="Grupo 1152"><g id="Grupo_1148" data-name="Grupo 1148"><path id="Caminho_1306" data-name="Caminho 1306" class="cls-9" d="M138.52,50.27c.74.72,1.46,1.43,2.21,2.12,9.63,9.26,19.35,17.77,28.08,23.35l.05.05c4.83,3,9.32,5.2,13.32,6.08,3.3.5,12-5.94,19.66-12.53a123.66,123.66,0,0,0,11.82-11.41l-32.46,8L142.9,44.28Z"/><path id="Caminho_1307" data-name="Caminho 1307" class="cls-5" d="M142.89,44.28A26.24,26.24,0,0,0,138,39.05l-10.16-.53c-2.44,0-2.48,2.45,0,2.49l5.2.83c-.66,2.43.81,4.59,1.84,6.54l3.7,1.89Z"/><path id="Caminho_1308" data-name="Caminho 1308" class="cls-6" d="M140.73,52.4c9.63,9.26,19.35,17.77,28.08,23.35l.05,0c4.83,3,9.32,5.2,13.31,6.09,3.3.5,12.06-5.94,19.67-12.54a51.86,51.86,0,0,0-10.4,1.08C166.25,75.31,155.71,60.67,140.73,52.4Z"/></g><ellipse id="Elipse_244" data-name="Elipse 244" class="cls-6" cx="229.87" cy="285.2" rx="17.39" ry="2.69"/><g id="Grupo_1149" data-name="Grupo 1149"><path id="Caminho_1309" data-name="Caminho 1309" class="cls-5" d="M181.43,271.44a8.29,8.29,0,0,1-.38,4.8c-1,2.79,13.48,3.75,13.48,3.75a10.26,10.26,0,0,0-1.51-7.3c-2.35-3.45-2.35-5.93-2.35-5.93Z"/><path id="Caminho_1310" data-name="Caminho 1310" class="cls-3" d="M203.44,131.1c-2.38,35.88-14.7,49.2-14.7,63.08s4.83,74.37,4.83,74.37c-1.8,2.27-11.51,3.79-14.85,2.39-7-33.93-13.63-73-13.33-84.57a207.37,207.37,0,0,1,10.66-57.91Z"/><path id="Caminho_1311" data-name="Caminho 1311" class="cls-7" d="M195.52,277.31c2,3.43,2.3,6.62.9,9.56-11.24.15-22.19.56-32.68.07,0-4,10.71-9.39,16.68-11A17.6,17.6,0,0,0,195.52,277.31Z"/></g><g id="Grupo_1150" data-name="Grupo 1150"><path id="Caminho_1312" data-name="Caminho 1312" class="cls-5" d="M226.64,266a8.26,8.26,0,0,1,.6,4.78c-.4,2.93,14,.92,14,.92a10.26,10.26,0,0,0-3-6.84c-3-2.9-3.5-5.33-3.5-5.33Z"/><path id="Caminho_1313" data-name="Caminho 1313" class="cls-3" d="M219.57,124.07c5,35.61-4.36,51.17-1.53,64.76s19.89,71.81,19.89,71.81c-1.29,2.6-10.5,6.06-14.05,5.37-13.78-31.79-28.22-68.68-30.29-80.07a207,207,0,0,1-1.37-58.87Z"/><path id="Caminho_1314" data-name="Caminho 1314" class="cls-7" d="M241.63,268.82c2.63,2.95,3.6,6,2.83,9.18-11,2.44-21.61,5.07-32,6.72-.82-3.94,8.57-11.37,14.08-14.2A17.57,17.57,0,0,0,241.63,268.82Z"/></g><path id="Caminho_1315" data-name="Caminho 1315" class="cls-9" d="M223.75,139.11c-4.64,4.72-22,7-35.89,6.19-6.65-.47-12.45-1.55-15.78-3.4-2.16-10.83.24-48.73,1.86-68.6.62-7.43,1.08-12.38,1.24-12.45,13.3-6,34.49-8.67,43.46-3.87C229.39,65.33,221,102.84,223.75,139.11Z"/><path id="Caminho_1316" data-name="Caminho 1316" class="cls-5" d="M203.49,54.4c-1.91-3.24-2.3-6.9-2.46-11h-8.81A37.67,37.67,0,0,1,191,55.64C191.94,57.37,202.63,56.68,203.49,54.4Z"/><path id="Caminho_1317" data-name="Caminho 1317" class="cls-5" d="M202.65,46.87c-5.29,2.37-10.6,4.83-13.84,2.64-3.67-4.15-7.07-17.19-7.31-24.51l21.12-1.51Z"/><path id="Caminho_1318" data-name="Caminho 1318" class="cls-8" d="M207.54,46.46c-2.41,2.16-.86,2.42-8.68,3.34-4.66.54-7.92-4.23-7.43-8.33,2.27-1.67,5-3.34,5-5.17.36-1.58-.81-2.56-2.3-3.12a10.4,10.4,0,0,0-2.73,3.41l-1.79-2.06L191,28.75c-5,.59-10.61,1.82-11.7-1-2.62-3.55-1.63-9.21-.31-12.06,7.29-6.58,15.7-2.62,20.34,0,4.69-1.42,7.48,2.85,10.77,5.17C215.6,25.34,215.58,39,207.54,46.46Z"/><path id="Caminho_1319" data-name="Caminho 1319" class="cls-6" d="M165,284.35c9.25,1.59,19.35-2.38,22.81-5.1l.06-.06a2.45,2.45,0,0,0,.57-.85c.56-1.42.28-4-.57-7.49-.17-.74-.34-1.53-.57-2.38-2.72-10.44-8.68-27.47-12.2-47.89-5.45-31.83,1.19-60.88,12.71-75.29a1.85,1.85,0,0,1-.57-.06,48.05,48.05,0,0,1-8.28-1,34.33,34.33,0,0,1-6.92-2.39,207.09,207.09,0,0,0-6.64,44.54c-.34,11.58,6.3,50.67,13.33,84.6a8.1,8.1,0,0,0,2.67.46,8.44,8.44,0,0,1-.34,4.82c-.23-.11-.4-.23-.63-.34C175.68,277.2,167.91,280.83,165,284.35Z"/><path id="Caminho_1320" data-name="Caminho 1320" class="cls-6" d="M192.76,180.69v.06c.28,1.87.56,3.63.85,5.22,2,11.34,16.51,48.22,30.3,80.06a11.75,11.75,0,0,0,2.78,0,9.2,9.2,0,0,1,.57,4.7c-.23-.05-.46-.17-.68-.22-4.32,2.21-11,7.2-13.28,11.17,7.6-1.41,18.21-5.33,20.42-9.41a3,3,0,0,0,.23-2.61c-.34-.74-1.13-2.56-2.21-5.11-.28-.62-.57-1.25-.85-2-7.49-17.54-25.7-60.55-29-72.29-3.8-13.33-4.14-20.09,0-30.07A79.57,79.57,0,0,0,192.76,180.69Z"/><path id="Caminho_1321" data-name="Caminho 1321" class="cls-6" d="M187.86,145.29c-6.65-.46-12.45-1.54-15.78-3.4-2.16-10.82.23-48.72,1.86-68.6,4.95-1.23,10.51,2.63,18.17,11.14C207.19,101.29,197.14,109.25,187.86,145.29Z"/><g id="Grupo_1151" data-name="Grupo 1151"><path id="Caminho_1322" data-name="Caminho 1322" class="cls-9" d="M196.82,96.55c-.13-5.6-14.48-31.48-21.68-35.75-4.73,6.35-5.11,14.5-3.93,20.37l10.07,19-14.92,41.4,6.64,3.31c8.18-11.87,15.68-23.88,20-34.15l0,0C195.23,105.42,196.6,100.64,196.82,96.55Z"/><path id="Caminho_1323" data-name="Caminho 1323" class="cls-5" d="M173,144.89s-2.64,5.65-6.33,6.52c-4.62,1.09-7.27.24-8-2.37s5.46-2.47,4.8-3.59-1.67.49-2-.78,5-3.07,5-3.07Z"/></g></g></g></svg>