<svg id="Camada_1" data-name="Camada 1" xmlns="http://www.w3.org/2000/svg" viewBox="0 0 238 119"><defs><style>.cls-1{fill:#fff;}</style></defs><path class="cls-1" d="M23.19,31.45H2.47v.25c4.26,1.7,3.75,7.93,3.75,11.77V75.62c0,3.83.51,10.14-3.83,11.68v.25h17V87.3c-4.52-2.56-4.43-6-4.43-10.74V38.1a34.14,34.14,0,0,1,6-.52c6.82,0,12.11,3,12.11,10.49,0,8.19-7.93,12.71-15.27,13.14A14.33,14.33,0,0,0,24,62.4c9.64,0,18.76-6.23,18.76-16C42.72,36.82,34.28,31.45,23.19,31.45Zm72.63.25-.09-.25H79.53v.25c4.27,1.62,3.75,7.85,3.75,11.68V69.05c0,3.07.09,5.2-1.79,7.76-2.81,4-7.67,6-12.45,6-8.78,0-13.55-5.29-13.55-16.63V43.38c0-3.83-.52-10.06,3.75-11.68v-.25H43v.25c4.34,1.62,3.75,7.85,3.75,11.68V66.15c0,6.14-.17,11.85,4.35,16.8,3.83,4.18,9.81,6,15.43,6,6,0,13-2,16.72-7v5.63H95.82v-.26C91.47,85.68,92,79.45,92,75.62V43.47c0-3.92-.51-10.15,3.84-11.77Zm49.85,44.76c-5.37,3.08-11.77,5.38-18.16,5.38-13.13,0-21.66-11.17-21.66-23.71,0-12.36,8.18-21,20-21A29.58,29.58,0,0,1,141.58,42V32.21a68.44,68.44,0,0,0-15.52-2.14c-17.49,0-29.93,11.69-29.93,29.34,0,18.25,12.44,29.5,32.57,29.5a30.21,30.21,0,0,0,12.88-2.56l4.35-9.89Z"/><path class="cls-1" d="M182.9,75.62,170.62,60.18c7-1.62,13.56-7.5,13.56-15,0-7.75-6.22-13.72-17.65-13.72h-20.3v.25c4.35,1.62,3.75,7.85,3.75,11.77V75.62c0,3.83.6,10.14-3.75,11.68v.25h16.29V87.3c-4.35-1.54-3.84-7.76-3.84-11.68V37.42a47.29,47.29,0,0,1,5.8-.69c5.72-.25,11,3.33,11,9.47,0,8-7.93,11.17-14.75,12.19l7.84,12L179,83.29c2.56,3.16,5.37,4.27,9.89,4.27h7.85A60,60,0,0,1,182.9,75.62ZM206.28,44c0-5.88,6.14-7.76,11-7.76a19.48,19.48,0,0,1,13.39,5.37V32A42.77,42.77,0,0,0,218,30.08c-10.4,0-21.4,4.1-21.4,14.84,0,18.08,29.34,15.69,29.34,29,0,6-7.34,8.87-12.2,8.87A29.49,29.49,0,0,1,195,75.71l2.47,10.66a44.07,44.07,0,0,0,15.26,2.55c13.3,0,22.85-8.52,22.85-17.65,0-15.78-29.33-15.61-29.33-27.29Z"/></svg>