<?xml version="1.0" encoding="utf-8"?>
<!-- Generator: Adobe Illustrator 25.4.3, SVG Export Plug-In . SVG Version: 6.00 Build 0)  -->
<svg version="1.1" id="Camada_1" xmlns="http://www.w3.org/2000/svg" xmlns:xlink="http://www.w3.org/1999/xlink" x="0px" y="0px"
	 viewBox="0 0 56.2 58.9" style="enable-background:new 0 0 56.2 58.9;" xml:space="preserve">
<style type="text/css">
	.st0{fill:#7673D4;}
</style>
<g id="Grupo_1222" transform="translate(-41.919 -39.911)">
	<path id="Grupo_1203" class="st0" d="M78.3,45.3H61.7c-0.3,0-0.5,0-0.8,0c-0.8-0.1-1.3-0.7-1.4-1.4c0-0.8,0.6-1.4,1.3-1.5
		c0.2,0,0.4,0,0.6,0h33.8c0.3,0,0.7,0,1,0.1c0.6,0.3,1,0.9,0.9,1.6c-0.1,0.7-0.6,1.2-1.3,1.3c-0.3,0-0.5,0-0.8,0L78.3,45.3z
		 M78.3,67.8H61.7c-0.3,0-0.5,0-0.8,0c-0.8-0.1-1.3-0.7-1.4-1.4c0-0.8,0.6-1.4,1.3-1.5c0.2,0,0.5,0,0.7,0h33.5c0.2,0,0.4,0,0.6,0
		c0.8,0.1,1.4,0.7,1.4,1.5c0,0.8-0.6,1.4-1.4,1.5c-1,0-2,0-3,0L78.3,67.8z M78.3,90.4H61.7c-0.3,0-0.5,0-0.8,0
		c-0.8-0.1-1.3-0.7-1.4-1.4c0-0.8,0.6-1.4,1.3-1.5c0.2,0,0.4,0,0.6,0h33.8c0.3,0,0.7,0,1,0.1c0.6,0.3,1,0.9,0.9,1.6
		c-0.1,0.7-0.6,1.2-1.3,1.3c-0.3,0-0.5,0-0.8,0C89.4,90.4,83.9,90.4,78.3,90.4L78.3,90.4z M70.8,51.4c-3.2,0-6.4,0-9.6,0
		c-0.8,0.1-1.6-0.5-1.7-1.3c-0.1-0.8,0.5-1.6,1.3-1.7c0.1,0,0.2,0,0.3,0c2,0,4,0,6.1,0h13c1.1,0,1.7,0.5,1.8,1.3
		c0.1,1-0.6,1.7-1.7,1.7C77.2,51.4,74,51.4,70.8,51.4L70.8,51.4z M70.8,70.9c3.2,0,6.4,0,9.6,0c0.8-0.1,1.6,0.5,1.7,1.3
		c0.1,0.8-0.5,1.6-1.3,1.7c-0.1,0-0.2,0-0.3,0c-1.3,0-2.5,0-3.8,0H61.2c-1.3,0-2-0.9-1.6-2c0.2-0.7,0.9-1.1,1.6-1
		C64.4,70.9,67.6,70.9,70.8,70.9L70.8,70.9z M70.7,96.4c-3.2,0-6.4,0-9.6,0c-0.8,0.1-1.5-0.5-1.6-1.3c0-0.2,0-0.4,0-0.6
		c0.1-0.6,0.7-1.1,1.3-1.1c0.2,0,0.3,0,0.5,0h18.9c1.1,0,1.7,0.4,1.8,1.3c0.1,0.8-0.4,1.6-1.2,1.7c-0.1,0-0.3,0-0.4,0
		C77.2,96.4,74,96.4,70.7,96.4z M51,86.2c-0.4-0.1-0.5-0.3-0.5-0.7c0-3.3,0-6.6,0-9.8c0-0.3,0.2-0.6,0.5-0.7
		c3.1-1.1,4.7-4.5,3.6-7.6c-0.6-1.7-1.9-3-3.6-3.6c-0.3-0.1-0.5-0.4-0.5-0.7c0-3.3,0-6.6,0-9.8c0-0.3,0.2-0.7,0.5-0.7
		c2.4-0.8,4-3.1,4-5.6c0-3.3-2.7-6-6-6c-3.3,0-6,2.7-6,6c0,2.6,1.6,4.9,4,5.7c0.4,0.2,0.5,0.4,0.5,0.8c0,3.3,0,6.5,0,9.8
		c0.1,0.3-0.2,0.7-0.5,0.7c-3.1,1.1-4.7,4.6-3.6,7.7c0.6,1.7,1.9,3,3.6,3.6c0.3,0.1,0.6,0.4,0.5,0.7c0,3.3,0,6.5,0,9.8
		c0.1,0.4-0.2,0.7-0.5,0.8c-3.1,1.1-4.7,4.6-3.6,7.7c1.1,3.1,4.6,4.7,7.7,3.6c3.1-1.1,4.7-4.6,3.6-7.7C54,88.2,52.7,86.8,51,86.2
		L51,86.2z M46,46.9c0-1.7,1.3-3,2.9-3.1c1.7,0,3,1.3,3.1,2.9c0,1.7-1.3,3-2.9,3.1h-0.1C47.3,49.8,46,48.5,46,46.9L46,46.9z
		 M46,69.3c0-1.7,1.4-3,3-3c1.7,0,3,1.4,3,3c0,1.7-1.4,3-3,3h0C47.3,72.3,46,71,46,69.3L46,69.3z M48.9,94.8c-1.6,0-2.9-1.4-2.9-3
		c0-1.6,1.4-2.9,3-2.9c1.6,0,2.9,1.4,2.9,3C51.9,93.5,50.6,94.8,48.9,94.8L48.9,94.8z"/>
</g>
</svg>
