<?xml version="1.0" encoding="utf-8"?>
<!-- Generator: Adobe Illustrator 26.0.3, SVG Export Plug-In . SVG Version: 6.00 Build 0)  -->
<svg version="1.1" id="Camada_1" xmlns="http://www.w3.org/2000/svg" xmlns:xlink="http://www.w3.org/1999/xlink" x="0px" y="0px"
	 viewBox="0 0 1130 1200" style="enable-background:new 0 0 1130 1200;" xml:space="preserve">
<style type="text/css">
	.st0{fill:#10E2E4;}
	.st1{opacity:0.5;fill:url(#SVGID_1_);}
	.st2{fill:#FFFFFF;}
	.st3{fill:#F0EFF4;}
	.st4{fill:#FBD783;}
	.st5{opacity:0.1;}
	.st6{fill:#3F216B;}
	.st7{fill:#2A195B;}
	.st8{fill:#FFE0E0;}
	.st9{fill:#1C1C6A;}
	.st10{fill:#6E6E6E;}
	.st11{fill:#2C2789;}
	.st12{fill:#4066E0;}
</style>
<g>
	<g>
		<g>
			<path class="st0" d="M659.63,171.31l-13.72,50.62L606.4,366.94c-2.47,8.64-11.52,14.54-20.58,13.17l-295.93-45.14
				c-8.92-1.37-14.27-9.47-11.94-18.11l21.95-80.26l31.42-115.38c2.33-8.64,11.52-14.54,20.44-13.17l295.93,45.14
				C656.75,154.57,662.1,162.66,659.63,171.31z"/>
			<linearGradient id="SVGID_1_" gradientUnits="userSpaceOnUse" x1="277.4089" y1="297.388" x2="645.9073" y2="297.388">
				<stop  offset="0" style="stop-color:#FFFFFF"/>
				<stop  offset="0.1198" style="stop-color:#E8E8E8"/>
				<stop  offset="0.3722" style="stop-color:#ABABAB"/>
				<stop  offset="0.7331" style="stop-color:#4B4B4B"/>
				<stop  offset="1" style="stop-color:#000000"/>
			</linearGradient>
			<path class="st1" d="M645.91,221.93L606.4,366.94c-2.47,8.64-11.52,14.54-20.58,13.17l-295.93-45.14
				c-8.92-1.37-14.27-9.47-11.94-18.11l21.95-80.26c1.78-1.1,3.57-2.06,5.35-3.02c24.97-13.17,53.37-22.91,81.08-17.7
				c37.32,7.13,65.44,39.79,102.48,48.29c9.47,2.2,19.34,2.74,29.08,2.88c23.73,0.41,47.74-1.24,70.11-9.19
				C609.41,250.06,628.48,236.75,645.91,221.93z"/>
			<polygon class="st2" points="486.55,282.22 353.86,257.27 379.6,140.85 513.85,158.7 			"/>
			<polygon class="st2" points="630.25,190.69 526.3,174.84 529.43,163.35 633.39,179.2 			"/>
			<polygon class="st2" points="622.35,219.66 518.4,203.81 521.53,192.32 625.49,208.17 			"/>
			<polygon class="st2" points="614.45,248.63 510.5,232.79 513.63,221.3 617.59,237.14 			"/>
			<polygon class="st2" points="507.87,331.81 347.48,307.36 351.89,291.17 512.29,315.62 			"/>
			<polygon class="st2" points="502.03,353.24 341.63,328.79 346.05,312.6 506.44,337.06 			"/>
		</g>
		<g>
			<path class="st3" d="M459.26,269.18c-1.45,3.28-2.9,6.47-4.44,9.65c-19.4,42.09-40.06,81.86-61.2,110.92c0,0,0,0-0.1,0.19
				c-11.78,15.93-23.55,28.57-35.33,36.49c-10.04,5.79-46.43-3.96-79.35-15.64c-21.91-7.72-42.38-16.41-52.61-21.91l2.51-29.44
				l29.93-41.03l0.19-0.29l82.35,55.6l96.34-118.35L459.26,269.18z"/>
			<path class="st4" d="M437.57,255.38c2.44-8.68,5.32-16.71,9.31-23.12l32.11-14.55c7.84-3.21,11.11,4.78,3.27,7.99l-15.73,9.26
				c5.2,7.01,3.18,15.84,2.3,23.46l-9.56,10.76L437.57,255.38z"/>
			<path class="st5" d="M454.82,278.84c-19.4,42.09-40.06,81.86-61.2,110.92c0,0,0,0-0.1,0.19c-11.78,15.93-23.55,28.57-35.33,36.49
				c-10.04,5.79-46.43-3.96-79.35-15.64c9.56-3.86,21.14-7.14,34.95-9.65C401.33,385.12,416.88,324.5,454.82,278.84z"/>
		</g>
		<ellipse class="st5" cx="199.99" cy="1112.75" rx="60.3" ry="9.34"/>
		<g>
			<path class="st4" d="M367.98,1065.04c0,0-2.11,6.98,1.34,16.65c3.45,9.67-46.77,13.02-46.77,13.02s-2.87-13.39,5.26-25.35
				s8.13-20.56,8.13-20.56L367.98,1065.04z"/>
			<path class="st0" d="M291.65,578.26c8.26,124.44,50.98,170.67,50.98,218.82c0,48.14-16.74,257.94-16.74,257.94
				c6.22,7.89,39.93,13.14,51.49,8.29c24.31-117.7,47.26-253.18,46.23-293.33c-1.35-45.22-10.35-123.98-36.98-200.86L291.65,578.26z
				"/>
			<path class="st6" d="M319.12,1085.38c-6.84,11.9-7.96,22.97-3.13,33.18c39,0.52,76.98,1.94,113.35,0.22
				c0-13.99-37.13-32.57-57.85-38.26C355,1090.03,337.54,1091.67,319.12,1085.38z"/>
		</g>
		<g>
			<path class="st4" d="M211.18,1045.99c0,0-3.49,6.4-2.09,16.57c1.4,10.17-48.44,3.21-48.44,3.21s-0.08-13.69,10.32-23.74
				c10.4-10.05,12.15-18.47,12.15-18.47L211.18,1045.99z"/>
			<path class="st0" d="M235.72,553.87c-17.29,123.51,15.11,177.48,5.29,224.61s-68.99,249.1-68.99,249.1
				c4.48,8.99,36.41,21.01,48.72,18.62c47.8-110.27,97.9-238.22,105.08-277.73c7.9-44.55,15.15-123.49,4.75-204.19L235.72,553.87z"
				/>
			<path class="st6" d="M159.19,1055.94c-9.13,10.25-12.48,20.86-9.83,31.85c38.08,8.46,74.97,17.59,110.93,23.33
				c2.85-13.7-29.71-39.46-48.83-49.26C193.37,1067.81,175.94,1065.86,159.19,1055.94z"/>
		</g>
		<path class="st3" d="M411.85,466.03c-0.19,62.67-4.64,128.48-9.83,155c-11.49,6.49-18.35,4.82-41.34,6.49
			c-4.82,0.37-9.83,0.37-15.2,0.37c-47.83-0.19-112.35-12.79-126.82-27.44c9.64-125.89-2.22-250.3,35.23-279.4
			c30.96-16.5,98.26-9.08,144.61,11.68c9.09,17.24,12.79,63.96,13.16,115.88C411.85,454.35,411.85,460.1,411.85,466.03z"/>
		<path class="st4" d="M291.47,312.23c6.65-11.25,7.96-23.93,8.54-38.31h30.55c-0.46,14.02-0.14,28.23,4.16,42.61
			C331.54,322.52,294.47,320.15,291.47,312.23z"/>
		<path class="st4" d="M294.4,286.11c18.31,8.23,36.76,16.75,47.99,9.16c12.71-14.38,24.5-59.61,25.36-85.02L294.5,205L294.4,286.11
			z"/>
		<path class="st5" d="M424.94,1109.82c-32.08,5.51-67.11-8.27-79.11-17.71l-0.2-0.2c-0.79-0.79-1.57-1.77-1.97-2.95
			c-1.97-4.92-0.98-13.78,1.97-25.98c0.59-2.56,1.18-5.31,1.97-8.27c9.45-36.21,30.11-95.25,42.31-166.1
			c18.89-110.4-4.13-211.17-44.08-261.15c0.59,0,1.38,0,1.97-0.2c10.04-0.39,19.68,1.36,28.73-0.6c8.46-1.97,18.07-2.13,25.55-5.67
			c16.14,60.81,20.31,112.75,21.49,148.96c1.18,40.15-21.84,175.74-46.25,293.43c-2.16,0.98-5.51,1.38-9.25,1.57
			c0,0-2.16,7.09,1.18,16.73c0.79-0.39,1.38-0.79,2.17-1.18C387.94,1085.02,414.9,1097.62,424.94,1109.82z"/>
		<path class="st5" d="M328.71,750.26v0.2c-0.98,6.49-1.97,12.6-2.95,18.11c-7.09,39.36-57.27,167.28-105.09,277.69
			c-2.56,0.39-5.9,0.39-9.64,0c-0.39,1.18-3.15,7.08-1.97,16.33c0.79-0.2,1.57-0.59,2.36-0.79c14.96,7.68,37.98,24.99,46.05,38.77
			c-26.37-4.92-63.17-18.5-70.85-32.67c-0.59-0.98-0.98-1.97-1.18-2.95c-0.59-1.97-0.39-4.13,0.39-6.1
			c1.18-2.56,3.94-8.86,7.68-17.71c0.98-2.16,1.97-4.33,2.95-6.89c25.98-60.81,89.15-209.99,100.56-250.72
			c13.19-46.25,14.37-69.67,0.2-104.3C299.78,683.16,319.65,715.23,328.71,750.26z"/>
		<g>
			<path class="st3" d="M596.33,393.35c-12.05,8.34-24.29,16.5-36.15,24.29c-28.92,18.54-56.92,34.67-82.13,45.42c0,0,0,0-0.19,0
				c-18.35,7.79-34.86,12.42-49.13,13.35c-4.08,0-9.83-3.89-16.87-10.38c-7.97-7.23-17.43-17.8-26.88-29.67
				c-22.43-27.44-45.79-61.37-53.95-75.27l21.14-8.9l46.35-19.47l0.74-0.37l42.09,90.11l143.5-52.1L596.33,393.35z"/>
			<path class="st4" d="M596.29,393.31c0,0,19.57-9.21,22.57-22c3.76-16.03,4.49-30.82-4.58-33.51c-9.07-2.7-10.83,27.42-14.7,25.11
				s0.28-8.66-4.13-9.77c-4.4-1.11-10.62,17.3-10.62,17.3L596.29,393.31z"/>
		</g>
		<path class="st7" d="M347.48,234.96c17.32-0.5,38-19.62,22.6-34.02s-85.91-32.78-101.75,25.96
			c-10.89,40.41,2.81,57.27-12.48,80.81s-41.72,43.21-14.4,69.03s78.26,34.27,93.26,11.92c15-22.35,42.66-38.54,19.15-58.01
			c-23.51-19.47-20.85-26.02-11.13-51.82C352.46,253.04,347.48,234.96,347.48,234.96z"/>
		<path class="st5" d="M560.18,417.64c-28.92,18.54-56.92,34.67-82.13,45.42c0,0,0,0-0.19,0c-18.35,7.79-34.86,12.42-49.13,13.35
			c-4.08,0-9.83-3.89-16.87-10.38c-0.19,62.67-4.64,128.48-9.83,155c-11.49,6.49-18.35,4.82-41.34,6.49
			c-4.82,0.37-9.83,0.37-15.2,0.37c0.19-0.19,0.19-0.19,0.37-0.37c52.1-52.1,42.83-160.74,39.12-191.15
			c-0.56-5.19-1.11-8.16-1.11-8.16c6.67,10.01,16.32,16.69,27.81,20.4C447.64,461.02,503.63,446.01,560.18,417.64z"/>
	</g>
	<g>
		<g>
			<path class="st6" d="M620.15,282.21c2.54,2.53,5.05,4.97,7.65,7.37c33.4,32.13,67.13,61.64,97.41,81c0,0,0,0,0.16,0.14
				c16.77,10.54,32.35,18.03,46.2,21.11c11.46,1.74,41.8-20.6,68.2-43.47c17.59-15.18,33.49-30.72,41.01-39.58l-112.59,27.77
				l-132.84-75.12L620.15,282.21z"/>
			<path class="st4" d="M635.32,261.46c-5.43-7.19-11.04-13.63-17.1-18.14l-35.21-1.85c-8.47-0.13-8.6,8.5-0.14,8.63l18.02,2.9
				c-2.29,8.42,2.81,15.91,6.41,22.68l12.82,6.54L635.32,261.46z"/>
			<path class="st5" d="M627.81,289.59c33.4,32.13,67.13,61.64,97.41,81c0,0,0,0,0.16,0.14c16.77,10.54,32.35,18.03,46.2,21.11
				c11.46,1.74,41.8-20.6,68.2-43.47c-10.31-0.11-22.29,1.05-36.06,3.74C716.33,369.08,679.77,318.29,627.81,289.59z"/>
		</g>
		<ellipse class="st5" cx="936.99" cy="1097.08" rx="60.3" ry="9.34"/>
		<g>
			<path class="st4" d="M769,1049.36c0,0,2.11,6.98-1.34,16.65s46.77,13.02,46.77,13.02s2.87-13.39-5.26-25.35
				c-8.13-11.96-8.13-20.56-8.13-20.56L769,1049.36z"/>
			<path class="st2" d="M845.33,562.58c-8.26,124.44-50.98,170.67-50.98,218.82c0,48.14,16.74,257.94,16.74,257.94
				c-6.22,7.89-39.93,13.14-51.49,8.29c-24.31-117.7-47.26-253.18-46.23-293.33c1.35-45.22,10.35-123.98,36.98-200.86L845.33,562.58
				z"/>
			<path class="st6" d="M817.86,1069.7c6.84,11.9,7.96,22.97,3.13,33.18c-39,0.52-76.98,1.94-113.35,0.22
				c0-13.99,37.13-32.57,57.85-38.26C781.98,1074.35,799.44,1076,817.86,1069.7z"/>
		</g>
		<g>
			<path class="st4" d="M925.81,1030.32c0,0,3.49,6.4,2.09,16.57c-1.4,10.17,48.44,3.21,48.44,3.21s0.08-13.69-10.32-23.74
				c-10.4-10.05-12.15-18.47-12.15-18.47L925.81,1030.32z"/>
			<path class="st2" d="M901.26,538.2c17.29,123.51-15.11,177.48-5.29,224.61c9.82,47.13,68.99,249.1,68.99,249.1
				c-4.48,8.99-36.41,21.01-48.72,18.62c-47.8-110.27-97.9-238.22-105.08-277.73c-7.9-44.55-15.15-123.49-4.75-204.19L901.26,538.2z
				"/>
			<path class="st6" d="M977.79,1040.27c9.13,10.25,12.48,20.86,9.83,31.85c-38.08,8.46-74.97,17.59-110.93,23.33
				c-2.85-13.7,29.71-39.46,48.83-49.26C943.62,1052.13,961.04,1050.19,977.79,1040.27z"/>
		</g>
		<path class="st6" d="M915.75,590.37c-16.09,16.36-76.18,24.41-124.47,21.46c-23.07-1.61-43.19-5.37-54.72-11.8
			c-7.51-37.56,0.81-169,6.44-237.94c2.15-25.75,3.76-42.92,4.29-43.19c46.14-20.66,119.64-30.04,150.76-13.41
			C935.34,334.45,906.1,464.55,915.75,590.37z"/>
		<path class="st4" d="M845.52,296.55c-6.65-11.25-7.96-23.93-8.54-38.31h-30.55c0.46,14.02,0.14,28.23-4.16,42.61
			C805.44,306.84,842.51,304.48,845.52,296.55z"/>
		<path class="st4" d="M842.58,270.43c-18.31,8.23-36.76,16.75-47.99,9.16c-12.71-14.38-24.5-59.61-25.36-85.02l73.26-5.24
			L842.58,270.43z"/>
		<path class="st7" d="M859.54,269.01c-8.36,7.51-2.99,8.4-30.11,11.58c-16.15,1.87-27.46-14.67-25.77-28.9
			c7.88-5.79,17.46-11.57,17.46-17.92c1.24-5.48-2.83-8.88-7.99-10.82c-3.55,2.31-6.55,6.88-9.47,11.83l-6.22-7.16l4.82-20.05
			c-17.38,2.05-36.8,6.32-40.57-3.58c-9.09-12.34-5.65-31.97-1.1-41.86c25.29-22.83,54.48-9.09,70.56,0.17
			c16.26-4.94,25.96,9.87,37.36,17.91C887.51,195.75,887.44,243.2,859.54,269.01z"/>
		<path class="st5" d="M712.04,1094.14c32.08,5.51,67.11-8.27,79.11-17.71l0.2-0.2c0.79-0.79,1.57-1.77,1.97-2.95
			c1.97-4.92,0.98-13.78-1.97-25.98c-0.59-2.56-1.18-5.31-1.97-8.27c-9.45-36.21-30.11-95.25-42.31-166.1
			c-18.89-110.4,4.13-211.17,44.08-261.15c-0.59,0-1.38,0-1.97-0.2c-10.04-0.39-19.68-1.57-28.73-3.54
			c-8.46-1.97-16.53-4.72-24.01-8.27c-16.14,60.81-21.84,118.28-23.03,154.49c-1.18,40.15,21.84,175.74,46.25,293.43
			c2.16,0.98,5.51,1.38,9.25,1.57c0,0,2.16,7.09-1.18,16.73c-0.79-0.39-1.38-0.79-2.17-1.18
			C749.04,1069.35,722.08,1081.94,712.04,1094.14z"/>
		<path class="st5" d="M808.28,734.59v0.2c0.98,6.49,1.97,12.6,2.95,18.11c7.09,39.36,57.27,167.28,105.09,277.69
			c2.56,0.39,5.9,0.39,9.64,0c0.39,1.18,3.15,7.08,1.97,16.33c-0.79-0.2-1.57-0.59-2.36-0.79c-14.96,7.68-37.98,24.99-46.05,38.77
			c26.37-4.92,63.17-18.5,70.85-32.67c0.59-0.98,0.98-1.97,1.18-2.95c0.59-1.97,0.39-4.13-0.39-6.1c-1.18-2.56-3.94-8.86-7.68-17.71
			c-0.98-2.16-1.97-4.33-2.95-6.89c-25.98-60.81-89.15-209.99-100.56-250.72c-13.19-46.25-14.37-69.67-0.2-104.3
			C837.2,667.48,817.33,699.56,808.28,734.59z"/>
		<path class="st5" d="M791.28,611.83c-23.07-1.61-43.19-5.37-54.72-11.8c-7.51-37.56,0.81-169,6.44-237.94
			c17.17-4.29,36.48,9.12,63.04,38.63C858.35,459.19,823.47,486.82,791.28,611.83z"/>
		<g>
			<path class="st6" d="M822.38,442.74c-0.46-19.43-50.23-109.2-75.22-123.98c-16.4,22-17.72,50.27-13.61,70.65l34.93,65.92
				l-51.76,143.6l23.02,11.48c28.39-41.16,54.38-82.82,69.48-118.44c0,0,0,0,0.05-0.18C816.86,473.51,821.61,456.95,822.38,442.74z"
				/>
			<path class="st4" d="M739.65,610.42c0,0-9.18,19.59-21.96,22.61c-16.03,3.79-25.22,0.83-27.93-8.23s18.95-8.57,16.64-12.43
				s-5.8,1.69-6.92-2.71s17.28-10.65,17.28-10.65L739.65,610.42z"/>
		</g>
	</g>
</g>
</svg>
