<svg xmlns="http://www.w3.org/2000/svg" xmlns:xlink="http://www.w3.org/1999/xlink" width="357.861" height="353" viewBox="0 0 357.861 353">
  <defs>
    <clipPath id="clip-path">
      <path id="Caminho_4015" data-name="Caminho 4015" d="M244.087,0C185.916.056,125.5,30.417,91.423,82.982c-48,74.053-35.276,179.135,24.23,232.2,30.911,27.567,65.826,33.41,78.561,35.372,78.265,12.055,168.514-32.635,202.395-112.41,22.08-51.99,19.536-116.478-10.062-162.764a161.9,161.9,0,0,0-32.932-37.366C310.442,2.418,261.317.389,248.5.06,247.122.024,245.75.006,244.37,0Z" transform="translate(-62.04 -0.005)" fill="none"/>
    </clipPath>
    <linearGradient id="linear-gradient" x1="0.16" y1="0.829" x2="0.16" y2="0.829" gradientUnits="objectBoundingBox">
      <stop offset="0" stop-color="#dae3fe"/>
      <stop offset="1" stop-color="#e9effd"/>
    </linearGradient>
    <clipPath id="clip-path-2">
      <rect id="Retângulo_952" data-name="Retângulo 952" width="357.861" height="353" fill="none"/>
    </clipPath>
    <clipPath id="clip-path-3">
      <path id="Caminho_4034" data-name="Caminho 4034" d="M757.769,1888.665s-4.039,21.766,24.106,41.8a40.458,40.458,0,0,0,21.118,7.7,35.617,35.617,0,0,1,5.334-20.922c-25.238-5.565-6.225-43.005-5.329-44.455Z" transform="translate(-757.568 -1872.783)" fill="none"/>
    </clipPath>
    <linearGradient id="linear-gradient-2" x1="-1.187" y1="1.545" x2="-1.185" y2="1.545" gradientUnits="objectBoundingBox">
      <stop offset="0" stop-color="#4f52ff"/>
      <stop offset="1" stop-color="#4042e2"/>
    </linearGradient>
    <clipPath id="clip-path-4">
      <path id="Caminho_4035" data-name="Caminho 4035" d="M1150.947,2186.959c-14.664,4.567-24.789,5.4-31.652,3.889a35.617,35.617,0,0,0-5.334,20.922c14.7.965,27.458-6.239,33.227-10.156a4.649,4.649,0,0,1,6.383,1.084c1.493,2.068,2.77,4.682,1.807,6.776-1.9,4.131,2.725,6.931,3.549,5.472s1.375-11.345,1.375-11.345,7.158,12.938,9.969,17.926,8.837,2.515,8.837,2.515-1.025-22.408-8.441-31.471c-4.21-5.145-10-6.257-14.211-6.257a22.481,22.481,0,0,0-5.51.645" transform="translate(-1113.907 -2186.314)" fill="none"/>
    </clipPath>
    <linearGradient id="linear-gradient-3" x1="-2.577" y1="1.236" x2="-2.575" y2="1.236" gradientUnits="objectBoundingBox">
      <stop offset="0" stop-color="#febbba"/>
      <stop offset="1" stop-color="#ff928e"/>
    </linearGradient>
    <clipPath id="clip-path-5">
      <path id="Caminho_4036" data-name="Caminho 4036" d="M304.214,1416.418c-19.967,69.154-.3,147.627-.3,147.627,43.706,16.149,75.046-5.319,75.046-5.319-.209-30.216,43.168-97.588,46.237-109.7s-5.939-22.045-5.939-22.045c-34.62-14.79-60.332-19.111-78.565-19.11-25.634,0-36.484,8.544-36.484,8.544" transform="translate(-295.262 -1407.874)" fill="none"/>
    </clipPath>
    <linearGradient id="linear-gradient-4" x1="0.061" y1="0.9" x2="0.061" y2="0.9" xlink:href="#linear-gradient-2"/>
    <clipPath id="clip-path-6">
      <path id="Caminho_4037" data-name="Caminho 4037" d="M801.175,1236.033a7.354,7.354,0,0,0,1.3,7.858c3.938,4.294,11.926,9.88,24.574,5.058a11.34,11.34,0,0,0,7.146-8.735l4.848-29.267-26.475-1.618Z" transform="translate(-800.575 -1209.328)" fill="none"/>
    </clipPath>
    <linearGradient id="linear-gradient-5" x1="-1.55" y1="3.554" x2="-1.548" y2="3.554" xlink:href="#linear-gradient-3"/>
    <clipPath id="clip-path-7">
      <path id="Caminho_4038" data-name="Caminho 4038" d="M10.762,1604.828a37.148,37.148,0,0,0,17.4,11.412c1.526-21.981,10.58-34.523,17.611-41.037C36.58,1559.413,67.739,1509,67.739,1509l-21.192-34.022s-73.492,87.775-35.784,129.852" transform="translate(0 -1474.976)" fill="none"/>
    </clipPath>
    <linearGradient id="linear-gradient-6" x1="0.38" y1="1.087" x2="0.381" y2="1.087" xlink:href="#linear-gradient-2"/>
    <clipPath id="clip-path-8">
      <path id="Caminho_4039" data-name="Caminho 4039" d="M353.674,1726.476c-1.285,2.081-31.38,51.133-21.981,67.277a1.042,1.042,0,0,0,1.194.476,1.025,1.025,0,0,0,.231-.1,1.042,1.042,0,0,0,.377-1.425c-8.775-15.072,21.645-64.634,21.954-65.132a1.043,1.043,0,0,0-1.775-1.1" transform="translate(-329.878 -1725.982)" fill="none"/>
    </clipPath>
    <linearGradient id="linear-gradient-7" x1="-0.31" y1="1.804" x2="-0.308" y2="1.804" gradientUnits="objectBoundingBox">
      <stop offset="0" stop-color="#09005d"/>
      <stop offset="1" stop-color="#1a0f91"/>
    </linearGradient>
    <clipPath id="clip-path-9">
      <path id="Caminho_4040" data-name="Caminho 4040" d="M304.709,2238.573c-5.639,1.563-10.885,4.367-16.55,5.81-6.291,1.6-12.51,3.482-18.846,4.909-9.856,2.219-22.823,4.762-31.479-2.011-.73-.572-6.6-7.208-7.013-6.969-15.716,9.08-18.772,30.3-18.772,40.592,28.654,15.668,73.717-14.841,85.857-23.757a9.495,9.495,0,0,1,6.924-1.766c4.964.681,13.52,1.6,18.032.581,2.911-.654,6.715,3.43,10.942,7.514,5.358,5.176,11.4,10.352,17.163,5.882,0,0-9.647-32.231-36.174-32.231a37.668,37.668,0,0,0-10.085,1.446" transform="translate(-212.049 -2237.127)" fill="none"/>
    </clipPath>
    <linearGradient id="linear-gradient-8" x1="-0.344" y1="0.755" x2="-0.342" y2="0.755" xlink:href="#linear-gradient-3"/>
    <clipPath id="clip-path-10">
      <path id="Caminho_4041" data-name="Caminho 4041" d="M865.335,922.839c-2.982,7.092,4.667,26.074,4.667,26.074,4.86,12.307,15.474,20.294,29.225,19.45s12.082-8.695,12.733-20.433-6.545-35.044-6.545-35.044-37.1,2.862-40.079,9.954" transform="translate(-864.645 -912.885)" fill="none"/>
    </clipPath>
    <linearGradient id="linear-gradient-9" x1="-1.338" y1="3.305" x2="-1.336" y2="3.305" xlink:href="#linear-gradient-3"/>
    <clipPath id="clip-path-11">
      <path id="Caminho_4042" data-name="Caminho 4042" d="M793.757,725.915l-.681,1a.922.922,0,0,1-1.671-.362.918.918,0,0,0-1.614-.435c-1.9,2.415-6.748,6.146-18.719,7-16.986,1.215-28.74,6.724-30.294,18.2a.922.922,0,0,1-1.5.593c-1.145-.886-3.072-1.457-5.947.46-5,3.333-4.241,13.51,4.863,22.827a.916.916,0,0,1-.207,1.464c-1.948.98-4.969,3.491,1.628,8.023,6.748,4.637,11.042,4.692,12.69,4.461a.922.922,0,0,0,.8-.87l.507-10.264a.922.922,0,0,1,1.023-.871l3.635.405,1.705.19s-5.419-15.2,1.037-17.039,31.466-4.1,37.71-12.191c6.02-7.8,2.688-19.109-3.761-22.89a.847.847,0,0,0-.431-.116.944.944,0,0,0-.772.414" transform="translate(-730.26 -725.501)" fill="none"/>
    </clipPath>
    <linearGradient id="linear-gradient-10" x1="-0.812" y1="2.923" x2="-0.811" y2="2.923" xlink:href="#linear-gradient-7"/>
    <clipPath id="clip-path-12">
      <path id="Caminho_4043" data-name="Caminho 4043" d="M864.038,1059.051c-6.81,3.271,1.529,16.276,6.587,17.379l2.33-6.04s-1.705-11.815-7-11.816a4.411,4.411,0,0,0-1.916.477" transform="translate(-861.472 -1058.574)" fill="none"/>
    </clipPath>
    <linearGradient id="linear-gradient-11" x1="-4.495" y1="9.44" x2="-4.489" y2="9.44" xlink:href="#linear-gradient-3"/>
    <clipPath id="clip-path-13">
      <path id="Caminho_4045" data-name="Caminho 4045" d="M857.455,2504.925l-115.635,1.789a4.914,4.914,0,1,0-.062,9.825c.088,0,.177,0,.266,0l115.635-1.789a4.918,4.918,0,1,0-.036-9.829c-.056,0-.112,0-.168,0" transform="translate(-736.745 -2504.922)" fill="none"/>
    </clipPath>
    <linearGradient id="linear-gradient-12" x1="-0.679" y1="0.855" x2="-0.678" y2="0.855" xlink:href="#linear-gradient-7"/>
    <clipPath id="clip-path-14">
      <path id="Caminho_4046" data-name="Caminho 4046" d="M834.494,1126.762c.119.242,16.975,16.375,37.577,14.627l-.119-1.764c-19.583,1.661-37.344-16.268-37.458-16.5Z" transform="translate(-834.494 -1123.127)" fill="none"/>
    </clipPath>
    <linearGradient id="linear-gradient-13" x1="-2.75" y1="5.251" x2="-2.747" y2="5.251" xlink:href="#linear-gradient-2"/>
    <clipPath id="clip-path-15">
      <path id="Caminho_4047" data-name="Caminho 4047" d="M1116.762,1240.045a2.5,2.5,0,0,0,0,4.965h5.9a2.5,2.5,0,0,0,0-4.965Z" transform="translate(-1114.551 -1240.045)" fill="none"/>
    </clipPath>
    <linearGradient id="linear-gradient-14" x1="-13.903" y1="17.681" x2="-13.891" y2="17.681" xlink:href="#linear-gradient-2"/>
    <clipPath id="clip-path-16">
      <path id="Caminho_4048" data-name="Caminho 4048" d="M862.337,794.547c4.422,1.592,6.981.332,6.981.332s-4.705-25.1,24.317-25.245a.339.339,0,0,0,.077-.668,39.211,39.211,0,0,0-8.63-1.015c-9.807,0-22.487,4.322-22.745,26.6" transform="translate(-862.337 -767.951)" fill="none"/>
    </clipPath>
    <linearGradient id="linear-gradient-15" x1="-2.702" y1="7.01" x2="-2.699" y2="7.01" xlink:href="#linear-gradient-2"/>
    <clipPath id="clip-path-17">
      <path id="Caminho_4049" data-name="Caminho 4049" d="M806.4,954.2c-11.326,2.3-9.933,16.621-9.933,16.621-.816,10.394,2.218,15.546,6.105,18a8.949,8.949,0,0,0,13.7-6.911c.209-2.829.449-5.518.659-6.473.482-2.2.768-21.411-8.875-21.413a8.279,8.279,0,0,0-1.651.174" transform="translate(-796.329 -954.025)" fill="none"/>
    </clipPath>
    <linearGradient id="linear-gradient-16" x1="-2.089" y1="6.004" x2="-2.086" y2="6.004" xlink:href="#linear-gradient-2"/>
    <clipPath id="clip-path-18">
      <path id="Caminho_4050" data-name="Caminho 4050" d="M821.88,986.338c-6.769,15.681,1.542,25.881,5.622,26.094,4.3.224,4.213-20.464,3.3-25.768a3.78,3.78,0,0,0-3.307-3.357,5.15,5.15,0,0,0-5.616,3.032" transform="translate(-819.314 -983.229)" fill="none"/>
    </clipPath>
    <linearGradient id="linear-gradient-17" x1="-3.365" y1="6.808" x2="-3.361" y2="6.808" xlink:href="#linear-gradient-2"/>
    <clipPath id="clip-path-19">
      <path id="Caminho_4051" data-name="Caminho 4051" d="M50.437,2581.66a3.14,3.14,0,0,0-2.625,1.772,6.5,6.5,0,0,0-.716,4.027l1.821,13.474c.36,2.663,1.987,4.586,3.882,4.586h336.85c2.036,0,3.886-1.695,4.74-4.341l3.729-11.557a7.752,7.752,0,0,0-.256-5.374,3.838,3.838,0,0,0-3.3-2.587Z" transform="translate(-47.034 -2581.66)" fill="none"/>
    </clipPath>
    <linearGradient id="linear-gradient-18" x1="-4.065" y1="0.535" x2="-4.062" y2="0.535" xlink:href="#linear-gradient-7"/>
    <clipPath id="clip-path-21">
      <path id="Caminho_4053" data-name="Caminho 4053" d="M1548.178,1448.255l-158.217,9.267a4.235,4.235,0,0,0-3.96,3.715c-1.944,15.883-10.688,80.415-13.191,98.853a4.233,4.233,0,0,0,4.323,4.8l148.338-4.245a4.239,4.239,0,0,0,4.017-3.319l23.075-103.919a4.24,4.24,0,0,0-4.131-5.159c-.085,0-.17,0-.256.007" transform="translate(-1372.771 -1448.248)" fill="none"/>
    </clipPath>
    <linearGradient id="linear-gradient-19" x1="-0.756" y1="1.132" x2="-0.756" y2="1.132" xlink:href="#linear-gradient-7"/>
    <clipPath id="clip-path-22">
      <path id="Caminho_4054" data-name="Caminho 4054" d="M1822.81,2024.032,1799,2025.613a4.891,4.891,0,0,0-4.289,3.255l-21.923,62.225,50.978,1.081,4.245-62.932a4.892,4.892,0,0,0-4.873-5.22c-.11,0-.22,0-.331.011" transform="translate(-1772.791 -2024.021)" fill="none"/>
    </clipPath>
    <linearGradient id="linear-gradient-20" x1="-3.361" y1="1.304" x2="-3.359" y2="1.304" xlink:href="#linear-gradient-7"/>
    <clipPath id="clip-path-24">
      <path id="Caminho_4056" data-name="Caminho 4056" d="M1691.794,2516.553l-79.834,3.424a2.648,2.648,0,0,0,.113,5.293h79.834a2.648,2.648,0,0,0,2.648-2.648V2519.2a2.648,2.648,0,0,0-2.646-2.648c-.038,0-.077,0-.116,0" transform="translate(-1609.425 -2516.55)" fill="none"/>
    </clipPath>
    <linearGradient id="linear-gradient-21" x1="-4.063" y1="0.87" x2="-4.061" y2="0.87" xlink:href="#linear-gradient-7"/>
    <clipPath id="clip-path-26">
      <path id="Caminho_4059" data-name="Caminho 4059" d="M2094.553,785.282a7.637,7.637,0,0,0-7.637,7.637v34.327a7.637,7.637,0,0,0,7.279,7.629l42.927,2.017a7.637,7.637,0,0,0,8-7.629V792.919a7.637,7.637,0,0,0-7.637-7.637Z" transform="translate(-2086.916 -785.282)" fill="none"/>
    </clipPath>
    <linearGradient id="linear-gradient-22" x1="-3.53" y1="3.497" x2="-3.529" y2="3.497" gradientUnits="objectBoundingBox">
      <stop offset="0" stop-color="#ff928e"/>
      <stop offset="1" stop-color="#fe7062"/>
    </linearGradient>
    <clipPath id="clip-path-28">
      <path id="Caminho_4064" data-name="Caminho 4064" d="M1758.01,91.931a8.032,8.032,0,0,0-8.032,8.032v36.1a8.032,8.032,0,0,0,7.656,8.024l45.149,2.121a8.033,8.033,0,0,0,8.41-8.024V99.963a8.032,8.032,0,0,0-8.032-8.032Z" transform="translate(-1749.978 -91.931)" fill="none"/>
    </clipPath>
    <linearGradient id="linear-gradient-23" x1="-2.794" y1="4.441" x2="-2.792" y2="4.441" xlink:href="#linear-gradient-22"/>
  </defs>
  <g id="Grupo_3333" data-name="Grupo 3333" transform="translate(0 -0.004)">
    <g id="Grupo_3276" data-name="Grupo 3276" transform="translate(7.899 0.004)">
      <g id="Grupo_3275" data-name="Grupo 3275" clip-path="url(#clip-path)">
        <rect id="Retângulo_951" data-name="Retângulo 951" width="520.006" height="521.197" transform="matrix(0.659, -0.753, 0.753, 0.659, -198.318, 205.37)" fill="url(#linear-gradient)"/>
      </g>
    </g>
    <g id="Grupo_3278" data-name="Grupo 3278" transform="translate(0 0.004)">
      <g id="Grupo_3277" data-name="Grupo 3277" transform="translate(0 0)" clip-path="url(#clip-path-2)">
        <path id="Caminho_4016" data-name="Caminho 4016" d="M1018.575,886.5a.728.728,0,0,1-.581-.367c-.472-.833-.97-1.665-1.48-2.471a.729.729,0,0,1,1.232-.779c.522.826,1.032,1.677,1.516,2.53a.729.729,0,0,1-.688,1.087" transform="translate(-886.987 -770.174)" fill="#91b3fa"/>
        <path id="Caminho_4017" data-name="Caminho 4017" d="M551.374,1053.058c-1.1-.069-2.234-.2-3.334-.338a.729.729,0,0,1-.63-.817.738.738,0,0,1,.816-.63c1.074.139,2.189.247,3.256.33.791.059,1.6.1,2.408.13a.705.705,0,0,1,.7.753.729.729,0,0,1-.753.7c-.827-.028-1.656-.072-2.467-.133m11.768-.271a.729.729,0,0,1-.032-1.451c1.816-.217,3.65-.521,5.451-.9l.157-.033a.729.729,0,1,1,.3,1.426l-.157.033c-1.843.391-3.721.7-5.58.925a.726.726,0,0,1-.142,0m14.629-3.59a.729.729,0,0,1-.205-1.408c1.769-.672,3.522-1.435,5.211-2.265a.729.729,0,0,1,.643,1.309c-1.729.851-3.525,1.631-5.336,2.319a.722.722,0,0,1-.313.046m13.31-7.042a.729.729,0,0,1-.364-1.324c1.544-1.081,3.057-2.249,4.495-3.472a.729.729,0,0,1,.944,1.111c-1.472,1.252-3.021,2.448-4.6,3.556a.726.726,0,0,1-.472.129m11.18-10.087a.729.729,0,0,1-.5-1.2c1.234-1.425,2.417-2.927,3.516-4.464a.729.729,0,0,1,1.186.848c-1.125,1.574-2.336,3.111-3.6,4.57a.728.728,0,0,1-.606.25m8.4-12.5a.719.719,0,0,1-.275-.077.729.729,0,0,1-.321-.98c.854-1.685,1.638-3.429,2.33-5.183a.729.729,0,0,1,1.357.535c-.708,1.8-1.511,3.582-2.385,5.307a.73.73,0,0,1-.7.4m5.114-14.168a.819.819,0,0,1-.108-.016.73.73,0,0,1-.55-.872c.418-1.844.752-3.727.994-5.6a.721.721,0,0,1,.817-.629.729.729,0,0,1,.63.816c-.248,1.915-.59,3.843-1.018,5.731a.729.729,0,0,1-.764.566m1.488-14.994a.729.729,0,0,1-.674-.709c-.047-1.886-.184-3.793-.409-5.669a.729.729,0,0,1,1.448-.173c.229,1.921.37,3.874.418,5.805a.729.729,0,0,1-.711.747c-.025,0-.049,0-.073,0m-2.213-14.9a.728.728,0,0,1-.648-.533c-.5-1.826-1.1-3.643-1.765-5.4a.729.729,0,1,1,1.363-.516c.683,1.8,1.291,3.661,1.807,5.53a.729.729,0,0,1-.509.9.721.721,0,0,1-.248.024" transform="translate(-477.705 -845.251)" fill="#91b3fa"/>
        <path id="Caminho_4018" data-name="Caminho 4018" d="M456.954,1598.458a.743.743,0,0,1-.15-.027c-.937-.272-1.883-.57-2.811-.887a.729.729,0,1,1,.471-1.38c.907.31,1.831.6,2.747.867a.729.729,0,0,1-.257,1.427" transform="translate(-395.756 -1392.894)" fill="#91b3fa"/>
        <path id="Caminho_4019" data-name="Caminho 4019" d="M173.2,1345.659a.728.728,0,0,1-.594-.391c-.447-.862-.883-1.754-1.3-2.65a.729.729,0,0,1,1.325-.609c.4.876.828,1.747,1.265,2.588a.729.729,0,0,1-.311.983.721.721,0,0,1-.389.08" transform="translate(-149.443 -1170.765)" fill="#91b3fa"/>
        <path id="Caminho_4020" data-name="Caminho 4020" d="M130.18,738.89a.729.729,0,0,1-.646-.525c-.413-1.433-.78-2.9-1.09-4.362q-.128-.6-.244-1.205a.729.729,0,0,1,1.432-.276q.113.589.238,1.179c.3,1.427.662,2.861,1.065,4.261a.729.729,0,0,1-.5.9.718.718,0,0,1-.256.027M127.8,724.26a.729.729,0,0,1-.673-.7c-.077-1.9-.066-3.827.033-5.727a.729.729,0,0,1,.766-.69.741.741,0,0,1,.69.766c-.1,1.855-.107,3.736-.032,5.591a.729.729,0,0,1-.7.758.714.714,0,0,1-.085,0m1.206-14.776a.845.845,0,0,1-.094-.013.73.73,0,0,1-.567-.862c.384-1.862.86-3.729,1.415-5.548a.729.729,0,0,1,1.395.425c-.542,1.776-1.006,3.6-1.381,5.417a.729.729,0,0,1-.767.579m4.728-14.047a.718.718,0,0,1-.26-.069.729.729,0,0,1-.344-.972c.82-1.716,1.729-3.414,2.7-5.047a.729.729,0,1,1,1.252.746c-.95,1.595-1.838,3.253-2.638,4.929a.73.73,0,0,1-.712.413m7.948-12.509a.729.729,0,0,1-.509-1.189c1.2-1.469,2.491-2.9,3.827-4.256a.729.729,0,0,1,1.038,1.024c-1.3,1.323-2.562,2.721-3.737,4.156a.728.728,0,0,1-.619.265m10.706-10.245a.729.729,0,0,1-.383-1.311c1.52-1.137,3.113-2.218,4.736-3.212a.729.729,0,0,1,.762,1.243c-1.584.97-3.14,2.026-4.624,3.136a.726.726,0,0,1-.49.143m12.855-7.366a.729.729,0,0,1-.229-1.4c1.752-.737,3.559-1.4,5.372-1.975a.729.729,0,0,1,.44,1.391c-1.771.56-3.536,1.208-5.246,1.929a.73.73,0,0,1-.336.055m14.251-4.065a.729.729,0,0,1-.06-1.447c1.878-.3,3.793-.516,5.689-.643a.729.729,0,1,1,.1,1.455c-1.852.124-3.722.335-5.557.628a.724.724,0,0,1-.17.007m20.423.186c-.025,0-.05-.005-.075-.009-1.831-.329-3.7-.574-5.543-.73a.729.729,0,0,1,.116-1.453h.007c1.892.16,3.8.412,5.677.747a.729.729,0,0,1-.182,1.445" transform="translate(-110.898 -575.231)" fill="#91b3fa"/>
        <path id="Caminho_4021" data-name="Caminho 4021" d="M767.38,686.178a.75.75,0,0,1-.214-.049c-.885-.35-1.795-.685-2.7-.994a.729.729,0,0,1,.47-1.38c.929.316,1.861.659,2.768,1.017a.729.729,0,0,1-.322,1.405" transform="translate(-666.696 -596.66)" fill="#91b3fa"/>
        <path id="Caminho_4022" data-name="Caminho 4022" d="M313.018,782.689a.736.736,0,0,0-.855.01l-7.238,5.284a39.03,39.03,0,0,0-12.355-2.708l-4.367-7.819a.736.736,0,0,0-.773-.366l-10.581,1.9a.737.737,0,0,0-.6.611l-1.381,8.849a39.034,39.034,0,0,0-10.646,6.828l-8.622-2.443a.736.736,0,0,0-.8.288l-6.142,8.822a.736.736,0,0,0,.01.855l5.284,7.238a39.04,39.04,0,0,0-2.708,12.354l-7.819,4.367a.736.736,0,0,0-.366.773l1.9,10.581a.736.736,0,0,0,.611.6l8.849,1.381a39.032,39.032,0,0,0,6.828,10.646l-2.443,8.623a.737.737,0,0,0,.288.8l8.822,6.142a.736.736,0,0,0,.855-.01L276,861.009a39.034,39.034,0,0,0,12.354,2.708l4.367,7.819a.736.736,0,0,0,.773.366l10.581-1.9a.736.736,0,0,0,.6-.611l1.381-8.849a39.034,39.034,0,0,0,10.646-6.828l8.622,2.443a.736.736,0,0,0,.805-.288l6.142-8.822a.737.737,0,0,0-.01-.855l-5.284-7.238a39.035,39.035,0,0,0,2.708-12.355l7.819-4.367a.736.736,0,0,0,.366-.773l-1.9-10.581a.736.736,0,0,0-.611-.6l-8.849-1.381a39.043,39.043,0,0,0-6.828-10.646l2.443-8.622a.736.736,0,0,0-.288-.805Z" transform="translate(-212.099 -678.136)" fill="#91b3fa"/>
        <path id="Caminho_4023" data-name="Caminho 4023" d="M541.725,1087.15a10.7,10.7,0,0,1-2.979-.661,10.578,10.578,0,1,1,2.979.661m1.4-19.048a8.477,8.477,0,1,0,2.366.526,8.407,8.407,0,0,0-2.366-.526" transform="translate(-464.139 -930.176)" fill="#bdd0fb"/>
        <path id="Caminho_4024" data-name="Caminho 4024" d="M427.176,992.708a27.064,27.064,0,0,1-24.549-22.2,27.216,27.216,0,0,1-.356-6.829,27.065,27.065,0,0,1,22.2-24.547c.186-.033.371-.064.557-.093a27.19,27.19,0,0,1,4.609-.331c.192,0,.383.007.574.014l-.077,2.186a25.009,25.009,0,0,0-5.277.378,24.665,24.665,0,0,0-15.388,9.406q-.319.42-.621.854a24.691,24.691,0,0,0-4.392,12.3,25,25,0,0,0,.327,6.276,24.845,24.845,0,1,0,43.2-20.7l1.648-1.437a27.057,27.057,0,0,1-22.448,44.719" transform="translate(-350.987 -819.186)" fill="#bdd0fb"/>
        <path id="Caminho_4025" data-name="Caminho 4025" d="M1636.528,655.079a.969.969,0,0,1-.794-.528c-.573-1.124-1.2-2.234-1.875-3.3a.971.971,0,0,1,1.641-1.037c.7,1.113,1.365,2.275,1.964,3.453a.97.97,0,0,1-.936,1.408" transform="translate(-1425.694 -567.034)" fill="#91b3fa"/>
        <path id="Caminho_4026" data-name="Caminho 4026" d="M1379.018,822.211a.971.971,0,0,1,0-1.936,41.406,41.406,0,0,0,5.638-.8q.986-.209,1.949-.462a.97.97,0,1,1,.493,1.877q-1.007.266-2.039.484a43.283,43.283,0,0,1-5.9.836.925.925,0,0,1-.143,0m19.467-6.371a.971.971,0,0,1-.447-1.789,40.9,40.9,0,0,0,6.082-4.7.971.971,0,1,1,1.326,1.419,42.923,42.923,0,0,1-6.371,4.921.965.965,0,0,1-.59.147m14.119-14.832a.971.971,0,0,1-.772-1.447,41.232,41.232,0,0,0,3.147-7.016.971.971,0,0,1,1.839.626,43.249,43.249,0,0,1-3.3,7.347.971.971,0,0,1-.917.49m5.44-19.746a.97.97,0,0,1-.9-.988,41.122,41.122,0,0,0-.562-7.669.971.971,0,0,1,1.915-.323,43.1,43.1,0,0,1,.588,8.032.971.971,0,0,1-.991.951l-.053,0" transform="translate(-1202.649 -673.243)" fill="#91b3fa"/>
        <path id="Caminho_4027" data-name="Caminho 4027" d="M1253.257,1140.953a.992.992,0,0,1-.156-.024c-1.285-.31-2.567-.683-3.813-1.11a.971.971,0,1,1,.629-1.837c1.189.407,2.413.764,3.64,1.059a.971.971,0,0,1-.3,1.912" transform="translate(-1089.647 -993.042)" fill="#91b3fa"/>
        <path id="Caminho_4028" data-name="Caminho 4028" d="M1052.185,955.63a.97.97,0,0,1-.791-.521c-.605-1.168-1.165-2.382-1.662-3.609a.971.971,0,1,1,1.8-.729c.475,1.171,1.009,2.329,1.587,3.444a.971.971,0,0,1-.933,1.415" transform="translate(-916.011 -829.183)" fill="#91b3fa"/>
        <path id="Caminho_4029" data-name="Caminho 4029" d="M1026.392,543.805a.971.971,0,0,1-.894-.883,42.849,42.849,0,0,1-.045-6.918q.038-.5.087-1.005a1,1,0,0,1,1.062-.87.971.971,0,0,1,.87,1.062c-.032.319-.059.637-.083.958a40.938,40.938,0,0,0,.043,6.6.969.969,0,0,1-1.04,1.053m3.134-19.9a.972.972,0,0,1-.822-1.346,43.3,43.3,0,0,1,3.734-6.98.971.971,0,0,1,1.621,1.07,41.279,41.279,0,0,0-3.566,6.666.973.973,0,0,1-.967.59m12.038-16.152a.971.971,0,0,1-.544-1.718,42.907,42.907,0,0,1,6.554-4.444.971.971,0,1,1,.936,1.7,40.977,40.977,0,0,0-6.257,4.242.966.966,0,0,1-.689.218m18.18-8.67a.971.971,0,0,1-.123-1.919,43.286,43.286,0,0,1,7.868-.883.95.95,0,0,1,.99.952.97.97,0,0,1-.951.989,41.347,41.347,0,0,0-7.515.844.955.955,0,0,1-.268.017" transform="translate(-894.782 -433.09)" fill="#91b3fa"/>
        <path id="Caminho_4030" data-name="Caminho 4030" d="M1451.45,512.48a.993.993,0,0,1-.285-.065c-1.172-.463-2.378-.876-3.586-1.227a.971.971,0,0,1,.542-1.865c1.265.368,2.53.8,3.758,1.285a.971.971,0,0,1-.429,1.871" transform="translate(-1262.653 -444.439)" fill="#91b3fa"/>
        <path id="Caminho_4031" data-name="Caminho 4031" d="M1156.237,585.161a.5.5,0,0,0-.585.006l-4.952,3.615a26.705,26.705,0,0,0-8.452-1.853l-2.987-5.349a.5.5,0,0,0-.529-.25l-7.238,1.3a.5.5,0,0,0-.409.418l-.945,6.054a26.708,26.708,0,0,0-7.283,4.671l-5.9-1.671a.5.5,0,0,0-.551.2l-4.2,6.035a.5.5,0,0,0,.007.585l3.615,4.952a26.705,26.705,0,0,0-1.853,8.452l-5.349,2.987a.5.5,0,0,0-.25.529l1.3,7.239a.5.5,0,0,0,.418.409l6.053.944a26.7,26.7,0,0,0,4.671,7.283l-1.671,5.9a.5.5,0,0,0,.2.551l6.035,4.2a.5.5,0,0,0,.585-.007l4.952-3.615a26.711,26.711,0,0,0,8.452,1.853l2.987,5.349a.5.5,0,0,0,.529.25l7.239-1.3a.5.5,0,0,0,.408-.418l.945-6.054a26.7,26.7,0,0,0,7.283-4.671l5.9,1.671a.5.5,0,0,0,.551-.2l4.2-6.035a.5.5,0,0,0-.006-.585l-3.615-4.951a26.706,26.706,0,0,0,1.853-8.452l5.349-2.987a.5.5,0,0,0,.25-.528l-1.3-7.238a.5.5,0,0,0-.418-.409l-6.053-.945a26.717,26.717,0,0,0-4.671-7.283l1.671-5.9a.5.5,0,0,0-.2-.551Z" transform="translate(-967.244 -507.306)" fill="#91b3fa"/>
        <path id="Caminho_4032" data-name="Caminho 4032" d="M1307.822,789.318a7.985,7.985,0,0,1-2.709-15.241h0a7.986,7.986,0,1,1,2.708,15.24m-1.509-12.586a5.073,5.073,0,1,0,6.713,2.533,5.079,5.079,0,0,0-6.713-2.533" transform="translate(-1134.839 -674.899)" fill="#bdd0fb"/>
        <path id="Caminho_4033" data-name="Caminho 4033" d="M1229.421,724.684a19.223,19.223,0,0,1-17.437-15.767,19.317,19.317,0,0,1-.253-4.85,19.226,19.226,0,0,1,15.768-17.435,19.279,19.279,0,0,1,4.077-.292l-.1,2.911a16.315,16.315,0,0,0-13.624,6.515c-.037.049-.074.1-.111.149-.075.1-.149.206-.222.311a16.192,16.192,0,0,0-2.879,8.064,16.38,16.38,0,0,0,.214,4.114,16.293,16.293,0,0,0,32.28-1.629,16.369,16.369,0,0,0-3.96-11.939l2.195-1.914a19.218,19.218,0,0,1-15.944,31.763" transform="translate(-1057.399 -598.941)" fill="#bdd0fb"/>
      </g>
    </g>
    <g id="Grupo_3280" data-name="Grupo 3280" transform="translate(96.459 238.459)">
      <g id="Grupo_3279" data-name="Grupo 3279" clip-path="url(#clip-path-3)">
        <rect id="Retângulo_953" data-name="Retângulo 953" width="71.073" height="78.302" transform="translate(-21.822 5.392) rotate(-16.689)" fill="url(#linear-gradient-2)"/>
      </g>
    </g>
    <g id="Grupo_3282" data-name="Grupo 3282" transform="translate(141.83 278.38)">
      <g id="Grupo_3281" data-name="Grupo 3281" clip-path="url(#clip-path-4)">
        <rect id="Retângulo_954" data-name="Retângulo 954" width="56.625" height="74.11" transform="translate(-10.994 37.191) rotate(-74.115)" fill="url(#linear-gradient-3)"/>
      </g>
    </g>
    <g id="Grupo_3284" data-name="Grupo 3284" transform="translate(37.595 179.263)">
      <g id="Grupo_3283" data-name="Grupo 3283" clip-path="url(#clip-path-5)">
        <rect id="Retângulo_955" data-name="Retângulo 955" width="224.398" height="219.219" transform="translate(-94.29 108.274) rotate(-52.436)" fill="url(#linear-gradient-4)"/>
      </g>
    </g>
    <g id="Grupo_3286" data-name="Grupo 3286" transform="translate(101.935 153.983)">
      <g id="Grupo_3285" data-name="Grupo 3285" clip-path="url(#clip-path-6)">
        <rect id="Retângulo_956" data-name="Retângulo 956" width="58.964" height="57.89" transform="matrix(0.602, -0.799, 0.799, 0.602, -21.887, 28.363)" fill="url(#linear-gradient-5)"/>
      </g>
    </g>
    <g id="Grupo_3288" data-name="Grupo 3288" transform="translate(0 187.807)">
      <g id="Grupo_3287" data-name="Grupo 3287" clip-path="url(#clip-path-7)">
        <rect id="Retângulo_957" data-name="Retângulo 957" width="169.7" height="161.174" transform="translate(-95.211 88.761) rotate(-52.436)" fill="url(#linear-gradient-6)"/>
      </g>
    </g>
    <g id="Grupo_3290" data-name="Grupo 3290" transform="translate(42.002 219.767)">
      <g id="Grupo_3289" data-name="Grupo 3289" clip-path="url(#clip-path-8)">
        <rect id="Retângulo_958" data-name="Retângulo 958" width="63.145" height="75.95" transform="translate(-37.178 17.068) rotate(-29.974)" fill="url(#linear-gradient-7)"/>
      </g>
    </g>
    <g id="Grupo_3292" data-name="Grupo 3292" transform="translate(26.999 284.849)">
      <g id="Grupo_3291" data-name="Grupo 3291" clip-path="url(#clip-path-9)">
        <rect id="Retângulo_959" data-name="Retângulo 959" width="114.342" height="150.917" transform="translate(-23.427 48.015) rotate(-63.991)" fill="url(#linear-gradient-8)"/>
      </g>
    </g>
    <g id="Grupo_3294" data-name="Grupo 3294" transform="translate(110.092 116.238)">
      <g id="Grupo_3293" data-name="Grupo 3293" clip-path="url(#clip-path-10)">
        <rect id="Retângulo_960" data-name="Retângulo 960" width="72.422" height="74.364" transform="matrix(0.857, -0.516, 0.516, 0.857, -27.181, 14.987)" fill="url(#linear-gradient-9)"/>
      </g>
    </g>
    <g id="Grupo_3296" data-name="Grupo 3296" transform="translate(92.982 92.379)">
      <g id="Grupo_3295" data-name="Grupo 3295" clip-path="url(#clip-path-11)">
        <rect id="Retângulo_961" data-name="Retângulo 961" width="98.518" height="94.37" transform="translate(-30.37 17.408) rotate(-31.469)" fill="url(#linear-gradient-10)"/>
      </g>
    </g>
    <g id="Grupo_3298" data-name="Grupo 3298" transform="translate(109.688 134.788)">
      <g id="Grupo_3297" data-name="Grupo 3297" clip-path="url(#clip-path-12)">
        <rect id="Retângulo_962" data-name="Retângulo 962" width="22.684" height="23.41" transform="matrix(0.857, -0.516, 0.516, 0.857, -12.135, 4.751)" fill="url(#linear-gradient-11)"/>
      </g>
    </g>
    <g id="Grupo_3300" data-name="Grupo 3300" transform="translate(93.807 318.947)">
      <g id="Grupo_3299" data-name="Grupo 3299" clip-path="url(#clip-path-13)">
        <path id="Caminho_4044" data-name="Caminho 4044" d="M709.3,2282.743l118.523,34.979,14.454-44.569-118.523-34.979Z" transform="translate(-712.796 -2272.138)" fill="url(#linear-gradient-12)"/>
      </g>
    </g>
    <g id="Grupo_3302" data-name="Grupo 3302" transform="translate(106.253 143.007)">
      <g id="Grupo_3301" data-name="Grupo 3301" clip-path="url(#clip-path-14)">
        <rect id="Retângulo_963" data-name="Retângulo 963" width="38.47" height="42.098" transform="translate(-9.578 12.896) rotate(-53.398)" fill="url(#linear-gradient-13)"/>
      </g>
    </g>
    <g id="Grupo_3304" data-name="Grupo 3304" transform="translate(141.912 157.894)">
      <g id="Grupo_3303" data-name="Grupo 3303" clip-path="url(#clip-path-15)">
        <rect id="Retângulo_964" data-name="Retângulo 964" width="10.211" height="11.211" transform="matrix(0.607, -0.794, 0.794, 0.607, -2.396, 3.133)" fill="url(#linear-gradient-14)"/>
      </g>
    </g>
    <g id="Grupo_3306" data-name="Grupo 3306" transform="translate(109.799 97.784)">
      <g id="Grupo_3305" data-name="Grupo 3305" clip-path="url(#clip-path-16)">
        <rect id="Retângulo_965" data-name="Retângulo 965" width="39.247" height="37.038" transform="translate(-8.723 3.023) rotate(-19.117)" fill="url(#linear-gradient-15)"/>
      </g>
    </g>
    <g id="Grupo_3308" data-name="Grupo 3308" transform="translate(101.394 121.476)">
      <g id="Grupo_3307" data-name="Grupo 3307" clip-path="url(#clip-path-17)">
        <rect id="Retângulo_966" data-name="Retângulo 966" width="43.047" height="38.739" transform="matrix(0.536, -0.844, 0.844, 0.536, -17.841, 26.09)" fill="url(#linear-gradient-16)"/>
      </g>
    </g>
    <g id="Grupo_3310" data-name="Grupo 3310" transform="translate(104.321 125.195)">
      <g id="Grupo_3309" data-name="Grupo 3309" clip-path="url(#clip-path-18)">
        <rect id="Retângulo_967" data-name="Retângulo 967" width="28.061" height="33.782" transform="translate(-15.948 5.85) rotate(-26.48)" fill="url(#linear-gradient-17)"/>
      </g>
    </g>
    <g id="Grupo_3312" data-name="Grupo 3312" transform="translate(5.989 328.718)">
      <g id="Grupo_3311" data-name="Grupo 3311" clip-path="url(#clip-path-19)">
        <rect id="Retângulo_968" data-name="Retângulo 968" width="39.809" height="352.495" transform="matrix(0.045, -0.999, 0.999, 0.045, -1.213, 23.811)" fill="url(#linear-gradient-18)"/>
      </g>
    </g>
    <g id="Grupo_3314" data-name="Grupo 3314" transform="translate(0 0.004)">
      <g id="Grupo_3313" data-name="Grupo 3313" transform="translate(0 0)" clip-path="url(#clip-path-2)">
        <path id="Caminho_4052" data-name="Caminho 4052" d="M386.723,2603.024H49.874c-2.106,0-3.916-2.084-4.3-4.955l-1.821-13.475a6.91,6.91,0,0,1,.77-4.3,3.54,3.54,0,0,1,2.994-1.986H391.637a4.231,4.231,0,0,1,3.689,2.839,8.154,8.154,0,0,1,.273,5.679l-3.73,11.558c-.909,2.817-2.929,4.637-5.146,4.637M44.593,2584.48l1.821,13.474c.33,2.444,1.785,4.217,3.459,4.217h336.85c1.84,0,3.541-1.588,4.334-4.046l3.73-11.558a7.277,7.277,0,0,0-.24-5.07,3.416,3.416,0,0,0-2.91-2.334H47.512a2.721,2.721,0,0,0-2.256,1.559,6.042,6.042,0,0,0-.663,3.757" transform="translate(-38.12 -2250.024)" fill="#91b3fa"/>
      </g>
    </g>
    <g id="Grupo_3316" data-name="Grupo 3316" transform="translate(174.79 184.404)">
      <g id="Grupo_3315" data-name="Grupo 3315" clip-path="url(#clip-path-21)">
        <rect id="Retângulo_970" data-name="Retângulo 970" width="210.795" height="174.51" transform="translate(-39.902 15.482) rotate(-21.359)" fill="url(#linear-gradient-19)"/>
      </g>
    </g>
    <g id="Grupo_3318" data-name="Grupo 3318" transform="translate(225.724 257.715)">
      <g id="Grupo_3317" data-name="Grupo 3317" clip-path="url(#clip-path-22)">
        <rect id="Retângulo_971" data-name="Retângulo 971" width="65.634" height="76.162" transform="translate(-10.796 1.755) rotate(-9.236)" fill="url(#linear-gradient-20)"/>
      </g>
    </g>
    <g id="Grupo_3320" data-name="Grupo 3320" transform="translate(0 0.004)">
      <g id="Grupo_3319" data-name="Grupo 3319" transform="translate(0 0)" clip-path="url(#clip-path-2)">
        <path id="Caminho_4055" data-name="Caminho 4055" d="M1820.067,2089.692l-.407-.009-51.566-1.093,22.119-62.781a5.312,5.312,0,0,1,4.663-3.539l23.806-1.58a5.317,5.317,0,0,1,5.657,5.663Zm-50.778-1.929,49.982,1.06,4.217-62.526a4.463,4.463,0,0,0-4.75-4.755l-23.807,1.58a4.46,4.46,0,0,0-3.915,2.971Z" transform="translate(-1542.969 -1763.394)" fill="#91b3fa"/>
      </g>
    </g>
    <g id="Grupo_3322" data-name="Grupo 3322" transform="translate(204.923 320.427)">
      <g id="Grupo_3321" data-name="Grupo 3321" clip-path="url(#clip-path-24)">
        <rect id="Retângulo_973" data-name="Retângulo 973" width="54.191" height="76.34" transform="translate(-4.425 6.1) rotate(-56.76)" fill="url(#linear-gradient-21)"/>
      </g>
    </g>
    <g id="Grupo_3324" data-name="Grupo 3324" transform="translate(0 0.004)">
      <g id="Grupo_3323" data-name="Grupo 3323" transform="translate(0 0)" clip-path="url(#clip-path-2)">
        <path id="Caminho_4057" data-name="Caminho 4057" d="M1688.978,2522.771h-79.834a3.074,3.074,0,0,1-2.921-4.032,3.089,3.089,0,0,1,2.789-2.113l79.834-3.424a3.074,3.074,0,0,1,3.206,3.071v3.424a3.077,3.077,0,0,1-3.074,3.074m0-8.719-.1,0-79.834,3.424a2.232,2.232,0,0,0-2.015,1.527,2.221,2.221,0,0,0,2.11,2.914h79.834a2.224,2.224,0,0,0,2.221-2.221v-3.424a2.222,2.222,0,0,0-2.218-2.221" transform="translate(-1401.572 -2193.202)" fill="#91b3fa"/>
        <path id="Caminho_4058" data-name="Caminho 4058" d="M1451.867,1569.686l-1.052-.132,7.289-57.478a7.484,7.484,0,0,1,6.97-6.526l136.724-8.257.064,1.058-136.724,8.257a6.423,6.423,0,0,0-5.982,5.6Z" transform="translate(-1266.087 -1306.647)" fill="#91b3fa"/>
        <rect id="Retângulo_974" data-name="Retângulo 974" width="12.543" height="1.061" transform="translate(181.078 291.722) rotate(-82.814)" fill="#91b3fa"/>
      </g>
    </g>
    <g id="Grupo_3326" data-name="Grupo 3326" transform="translate(265.72 99.991)">
      <g id="Grupo_3325" data-name="Grupo 3325" clip-path="url(#clip-path-26)">
        <rect id="Retângulo_976" data-name="Retângulo 976" width="73.149" height="75.766" transform="matrix(0.472, -0.882, 0.882, 0.472, -21.559, 40.274)" fill="url(#linear-gradient-22)"/>
      </g>
    </g>
    <g id="Grupo_3328" data-name="Grupo 3328" transform="translate(0 0.004)">
      <g id="Grupo_3327" data-name="Grupo 3327" transform="translate(0 0)" clip-path="url(#clip-path-2)">
        <path id="Caminho_4060" data-name="Caminho 4060" d="M2201.867,906.584h-29.583a4.025,4.025,0,0,1-4.021-4.021V880.93a4.025,4.025,0,0,1,4.021-4.021h29.583a4.025,4.025,0,0,1,4.021,4.021v21.634a4.025,4.025,0,0,1-4.021,4.021m-29.583-27.025a1.372,1.372,0,0,0-1.371,1.371v21.634a1.372,1.372,0,0,0,1.371,1.371h29.583a1.373,1.373,0,0,0,1.371-1.371V880.93a1.372,1.372,0,0,0-1.371-1.371Z" transform="translate(-1892.186 -765.256)" fill="#fff"/>
        <path id="Caminho_4061" data-name="Caminho 4061" d="M2193.515,898.459a1.322,1.322,0,0,1-.767-.244l-16.577-11.756a1.325,1.325,0,0,1,1.533-2.161l15.81,11.212,15.6-11.083a1.325,1.325,0,0,1,1.534,2.16l-16.37,11.627a1.323,1.323,0,0,1-.767.245" transform="translate(-1898.6 -771.491)" fill="#fff"/>
        <path id="Caminho_4062" data-name="Caminho 4062" d="M2178.615,961.805l-.384-2.621.179,1.313-1.11-.722c.307-.493,6.285-10.95,10.229-17.858a1.325,1.325,0,0,1,2.3,1.313s-2.557,4.48-5.12,8.96c-1.282,2.241-2.564,4.482-3.529,6.163-1.924,3.352-1.924,3.352-2.567,3.453" transform="translate(-1900.073 -821.402)" fill="#fff"/>
        <path id="Caminho_4063" data-name="Caminho 4063" d="M2365.957,961.807c-.641-.1-.641-.1-2.563-3.452-.965-1.681-2.248-3.922-3.53-6.163-2.562-4.48-5.12-8.96-5.12-8.96a1.325,1.325,0,0,1,2.3-1.313c3.943,6.907,9.921,17.364,10.229,17.858l-1.109.722Z" transform="translate(-2054.77 -821.404)" fill="#fff"/>
      </g>
    </g>
    <g id="Grupo_3330" data-name="Grupo 3330" transform="translate(222.819 11.709)">
      <g id="Grupo_3329" data-name="Grupo 3329" clip-path="url(#clip-path-28)">
        <rect id="Retângulo_978" data-name="Retângulo 978" width="76.935" height="79.687" transform="translate(-22.675 42.359) rotate(-61.839)" fill="url(#linear-gradient-23)"/>
      </g>
    </g>
    <g id="Grupo_3332" data-name="Grupo 3332" transform="translate(0 0.004)">
      <g id="Grupo_3331" data-name="Grupo 3331" transform="translate(0 0)" clip-path="url(#clip-path-2)">
        <path id="Caminho_4065" data-name="Caminho 4065" d="M1961.387,185.148a55.127,55.127,0,0,1-.787,9.586c-.143.79-.308,1.576-.505,2.355a22.707,22.707,0,0,1-.7,2.3,10.951,10.951,0,0,1-1.052,2.172,4.334,4.334,0,0,1-.789.924,2.251,2.251,0,0,1-.517.334,1.545,1.545,0,0,1-.6.143,1.519,1.519,0,0,1-.61-.113,2.117,2.117,0,0,1-.529-.316,4.115,4.115,0,0,1-.806-.91,10.585,10.585,0,0,1-1.067-2.165,22.239,22.239,0,0,1-.712-2.3c-.2-.778-.366-1.564-.51-2.354-.287-1.58-.482-3.175-.615-4.775s-.2-3.2-.2-4.81c0-.8.018-1.6.046-2.407s.074-1.6.133-2.4c.118-1.6.295-3.2.557-4.781.132-.792.286-1.58.47-2.361a22.765,22.765,0,0,1,.668-2.314c.134-.379.281-.753.448-1.119a8.229,8.229,0,0,1,.574-1.062,3.949,3.949,0,0,1,.789-.915,2.006,2.006,0,0,1,.522-.314,1.462,1.462,0,0,1,.6-.107,1.585,1.585,0,0,1,.592.139,2.307,2.307,0,0,1,.515.323,4.406,4.406,0,0,1,.806.9,10.852,10.852,0,0,1,1.1,2.139,21.956,21.956,0,0,1,.757,2.286c.213.774.394,1.557.55,2.344a50.49,50.49,0,0,1,.879,9.576m-.237,0c0-1.6-.057-3.2-.19-4.791a46.29,46.29,0,0,0-.623-4.752c-.147-.785-.318-1.566-.522-2.338a21.861,21.861,0,0,0-.728-2.28,10.75,10.75,0,0,0-1.07-2.13,4.308,4.308,0,0,0-.78-.89,2.244,2.244,0,0,0-.494-.317,1.474,1.474,0,0,0-.564-.138,1.381,1.381,0,0,0-.569.108,1.924,1.924,0,0,0-.5.307,3.858,3.858,0,0,0-.761.9,8.082,8.082,0,0,0-.555,1.055c-.162.364-.3.737-.432,1.114a22.733,22.733,0,0,0-.638,2.307c-.175.779-.32,1.566-.442,2.356-.244,1.58-.4,3.172-.5,4.768s-.136,3.2-.134,4.794.049,3.2.167,4.792.3,3.184.575,4.758c.137.787.3,1.57.489,2.345a22.022,22.022,0,0,0,.689,2.29,10.442,10.442,0,0,0,1.034,2.141,3.982,3.982,0,0,0,.771.885,1.975,1.975,0,0,0,.494.3,1.356,1.356,0,0,0,.558.107,1.407,1.407,0,0,0,.552-.136,2.118,2.118,0,0,0,.483-.319,4.2,4.2,0,0,0,.756-.9,10.8,10.8,0,0,0,1.019-2.15,22.542,22.542,0,0,0,.681-2.293c.189-.775.348-1.559.484-2.346.272-1.575.452-3.165.572-4.759s.178-3.193.177-4.792" transform="translate(-1702.913 -146.121)" fill="#fff"/>
        <path id="Caminho_4066" data-name="Caminho 4066" d="M1953.191,200.235a2,2,0,0,1-.738-.147,2.554,2.554,0,0,1-.644-.384,4.5,4.5,0,0,1-.9-1.012,10.947,10.947,0,0,1-1.118-2.262,22.651,22.651,0,0,1-.728-2.352c-.192-.75-.361-1.531-.517-2.387-.275-1.515-.478-3.091-.62-4.82-.129-1.571-.2-3.2-.207-4.846,0-.859.021-1.708.047-2.425.031-.815.075-1.63.134-2.421.128-1.738.312-3.316.562-4.823.143-.859.3-1.641.476-2.393a23.131,23.131,0,0,1,.682-2.361c.152-.429.3-.808.464-1.158a8.662,8.662,0,0,1,.607-1.122,4.353,4.353,0,0,1,.885-1.023,2.467,2.467,0,0,1,.644-.386,1.944,1.944,0,0,1,.788-.139,2.03,2.03,0,0,1,.762.179,2.741,2.741,0,0,1,.62.387,4.792,4.792,0,0,1,.894.995,11.21,11.21,0,0,1,1.156,2.233,22.35,22.35,0,0,1,.774,2.336c.208.753.39,1.531.558,2.378a50.542,50.542,0,0,1,.888,9.666v0a55.2,55.2,0,0,1-.794,9.668c-.154.855-.321,1.636-.512,2.389a23.029,23.029,0,0,1-.72,2.353,11.32,11.32,0,0,1-1.1,2.266,4.725,4.725,0,0,1-.878,1.025,2.713,2.713,0,0,1-.625.4,2,2,0,0,1-.787.184h-.054m-.243-35.458a.923.923,0,0,0-.353.073,1.473,1.473,0,0,0-.378.236,3.342,3.342,0,0,0-.665.795,7.607,7.607,0,0,0-.522.993c-.144.323-.28.675-.417,1.076a22.078,22.078,0,0,0-.625,2.258c-.164.73-.307,1.49-.436,2.324-.229,1.478-.392,3.024-.5,4.725-.093,1.454-.136,3.012-.133,4.764,0,1.617.052,3.217.166,4.758.127,1.692.313,3.233.57,4.713.144.827.3,1.584.482,2.313a21.593,21.593,0,0,0,.674,2.241,9.892,9.892,0,0,0,.986,2.045,3.457,3.457,0,0,0,.677.78,1.507,1.507,0,0,0,.375.23.981.981,0,0,0,.368.073.946.946,0,0,0,.374-.093,1.661,1.661,0,0,0,.375-.249,3.687,3.687,0,0,0,.669-.8,10.257,10.257,0,0,0,.972-2.054,22.035,22.035,0,0,0,.666-2.244c.177-.724.333-1.482.477-2.314.253-1.466.438-3.008.566-4.714.117-1.538.177-3.138.176-4.757h0c0-1.613-.06-3.211-.188-4.751a45.532,45.532,0,0,0-.616-4.7c-.153-.82-.322-1.574-.515-2.305a21.348,21.348,0,0,0-.712-2.23,10.2,10.2,0,0,0-1.022-2.036,3.8,3.8,0,0,0-.692-.793,1.782,1.782,0,0,0-.389-.251,1,1,0,0,0-.383-.1h-.027" transform="translate(-1699.721 -142.919)" fill="#fff"/>
        <path id="Caminho_4067" data-name="Caminho 4067" d="M1907.122,184.475a23.474,23.474,0,0,1-.827,6.126,19.752,19.752,0,0,1-2.553,5.617,16.163,16.163,0,0,1-1.95,2.4,13.7,13.7,0,0,1-2.4,1.94,11.548,11.548,0,0,1-2.8,1.285,10.435,10.435,0,0,1-6.09,0,11.556,11.556,0,0,1-2.8-1.283,13.7,13.7,0,0,1-2.4-1.938,16.172,16.172,0,0,1-1.954-2.4,19.783,19.783,0,0,1-2.56-5.619,22.3,22.3,0,0,1-.62-3.037,22.926,22.926,0,0,1,0-6.186,22.294,22.294,0,0,1,.622-3.036,19.774,19.774,0,0,1,2.563-5.615,16.147,16.147,0,0,1,1.954-2.394,13.648,13.648,0,0,1,2.4-1.935,11.6,11.6,0,0,1,2.8-1.279,10.362,10.362,0,0,1,6.08,0,11.588,11.588,0,0,1,2.8,1.281,13.649,13.649,0,0,1,2.4,1.936,16.161,16.161,0,0,1,1.95,2.394,19.751,19.751,0,0,1,2.556,5.613,23.485,23.485,0,0,1,.831,6.124m-.271,0a23.206,23.206,0,0,0-.793-6.059,19.677,19.677,0,0,0-2.472-5.579,16,16,0,0,0-1.906-2.39,13.32,13.32,0,0,0-2.357-1.94,11.366,11.366,0,0,0-2.765-1.283,10.105,10.105,0,0,0-6.02,0,11.363,11.363,0,0,0-2.763,1.285,13.327,13.327,0,0,0-2.354,1.942,15.988,15.988,0,0,0-1.9,2.391,19.643,19.643,0,0,0-2.465,5.577,22.488,22.488,0,0,0-.593,3,23.417,23.417,0,0,0,0,6.106,22.378,22.378,0,0,0,.595,3,19.634,19.634,0,0,0,2.469,5.573,15.965,15.965,0,0,0,1.9,2.388,13.27,13.27,0,0,0,2.353,1.938,11.407,11.407,0,0,0,2.76,1.281,10.032,10.032,0,0,0,6.01,0,11.4,11.4,0,0,0,2.763-1.278,13.294,13.294,0,0,0,2.357-1.937,15.98,15.98,0,0,0,1.906-2.387,19.665,19.665,0,0,0,2.475-5.575,23.2,23.2,0,0,0,.8-6.058" transform="translate(-1640.586 -145.448)" fill="#fff"/>
        <path id="Caminho_4068" data-name="Caminho 4068" d="M1890.355,199.56a11,11,0,0,1-3.18-.473,11.992,11.992,0,0,1-2.916-1.335,14.151,14.151,0,0,1-2.486-2,16.715,16.715,0,0,1-2.01-2.466,20.211,20.211,0,0,1-2.621-5.752,22.9,22.9,0,0,1-.633-3.1,23.392,23.392,0,0,1,0-6.31,22.822,22.822,0,0,1,.635-3.1,20.193,20.193,0,0,1,2.625-5.75,16.628,16.628,0,0,1,2.011-2.463,14.126,14.126,0,0,1,2.485-2,12.047,12.047,0,0,1,2.914-1.33,10.829,10.829,0,0,1,6.349,0,12.053,12.053,0,0,1,2.91,1.332,14.146,14.146,0,0,1,2.482,2,16.652,16.652,0,0,1,2.007,2.464,20.163,20.163,0,0,1,2.618,5.746,23.927,23.927,0,0,1,.848,6.249v.005a23.92,23.92,0,0,1-.844,6.248,20.169,20.169,0,0,1-2.615,5.752,16.624,16.624,0,0,1-2.007,2.467,14.184,14.184,0,0,1-2.482,2.006,12.021,12.021,0,0,1-2.914,1.337,11.019,11.019,0,0,1-3.178.475m0-35.529a9.957,9.957,0,0,0-2.872.439,10.923,10.923,0,0,0-2.649,1.233,12.871,12.871,0,0,0-2.27,1.873,15.545,15.545,0,0,0-1.846,2.321,19.142,19.142,0,0,0-2.405,5.443,22.16,22.16,0,0,0-.58,2.938,22.947,22.947,0,0,0,0,5.985,22.069,22.069,0,0,0,.582,2.938,19.135,19.135,0,0,0,2.409,5.439,15.485,15.485,0,0,0,1.846,2.318,12.849,12.849,0,0,0,2.27,1.871,10.942,10.942,0,0,0,2.646,1.228,9.571,9.571,0,0,0,5.738,0,10.967,10.967,0,0,0,2.65-1.227,12.84,12.84,0,0,0,2.272-1.869,15.569,15.569,0,0,0,1.85-2.317,19.17,19.17,0,0,0,2.415-5.442,23.006,23.006,0,0,0,0-11.87,19.171,19.171,0,0,0-2.411-5.445,15.568,15.568,0,0,0-1.85-2.32,12.889,12.889,0,0,0-2.274-1.872,10.9,10.9,0,0,0-2.65-1.23,9.946,9.946,0,0,0-2.876-.437" transform="translate(-1637.393 -142.244)" fill="#fff"/>
        <path id="Caminho_4069" data-name="Caminho 4069" d="M1862.183,250.678l4.077-.033,4.077-.019,8.153-.015,8.153.017,4.077.02,4.077.036a.012.012,0,0,1,.012.012s-.005.012-.012.012l-4.077.036-4.077.02-8.153.017-8.153-.015-4.077-.019-4.077-.033a.029.029,0,0,1-.018-.008c0-.02.008-.028.018-.028" transform="translate(-1625.062 -218.702)" fill="#fff"/>
        <path id="Caminho_4070" data-name="Caminho 4070" d="M1875.3,248.042l-12.233-.034-4.272-.035-.285-.285v-.209l.011-.457.469-.018,8.154-.052,8.155-.015,12.233.037,4.54.04.012.943-.478.012-8.151.056Z" transform="translate(-1621.872 -215.496)" fill="#fff"/>
        <path id="Caminho_4071" data-name="Caminho 4071" d="M1899.328,196.844c.965-.015,1.929-.022,2.894-.033l2.894-.019c.965-.008,1.929-.007,2.894-.01l2.894-.006,5.789.017,2.894.02c.965.012,1.93.019,2.894.036a.019.019,0,0,1,.012.006c0,.013-.005.018-.012.018-.965.017-1.929.024-2.894.036l-2.894.02-5.789.017-2.894-.005c-.965,0-1.93,0-2.894-.01l-2.894-.019c-.965-.011-1.929-.018-2.894-.033a.018.018,0,0,1-.018-.018.018.018,0,0,1,.018-.018" transform="translate(-1657.477 -171.723)" fill="#fff"/>
        <path id="Caminho_4072" data-name="Caminho 4072" d="M1907.713,194.211l-3.647-.007c-.716,0-1.431,0-2.147-.008l-3.859-.029c-.644-.006-1.288-.012-1.933-.023l-.458-.007-.018-.946.476-.017c.623-.01,1.247-.016,1.87-.023l3.923-.03c.679-.005,1.359-.007,2.039-.008l3.752-.007,9.741.049c.615.007,1.23.013,1.845.024l.474.008-.021.939-.461.012c-.636.011-1.281.018-1.925.025l-3.861.032Z" transform="translate(-1654.284 -168.519)" fill="#fff"/>
        <path id="Caminho_4073" data-name="Caminho 4073" d="M1851.057,304.509l4.431-.033,4.431-.019,8.861-.015,8.862.017,4.431.021,4.431.036a.012.012,0,0,1,.012.012s-.005.012-.012.012l-4.431.036-4.431.02-8.862.017-8.861-.015-4.431-.019-4.431-.033a.018.018,0,0,1,0-.036" transform="translate(-1615.352 -265.679)" fill="#fff"/>
        <path id="Caminho_4074" data-name="Caminho 4074" d="M1865.589,301.877l-13.3-.034-4.894-.037-.018-.95.48-.018,8.863-.052,8.863-.015,13.295.037,4.628.037.281.287-.018.659-.462.012-8.859.056Z" transform="translate(-1612.161 -262.477)" fill="#fff"/>
        <path id="Caminho_4075" data-name="Caminho 4075" d="M1862.183,358.343l4.077-.033,4.077-.019,8.153-.015,8.153.017,4.077.021,4.077.036a.019.019,0,0,1,.012.006c0,.013-.005.018-.012.018l-4.077.036-4.077.021-8.153.017-8.153-.015-4.077-.019-4.077-.033a.018.018,0,0,1,0-.036" transform="translate(-1625.062 -312.658)" fill="#fff"/>
        <path id="Caminho_4076" data-name="Caminho 4076" d="M1875.3,355.708l-12.233-.034-4.272-.034-.285-.285v-.21l.01-.457.469-.017,8.155-.052,8.155-.015,12.233.037,4.54.04.012.943-.478.012-8.151.056Z" transform="translate(-1621.872 -309.454)" fill="#fff"/>
        <path id="Caminho_4077" data-name="Caminho 4077" d="M1926.754,412.408H1903.6a.063.063,0,0,1,0-.126h23.154a.063.063,0,0,1,0,.126" transform="translate(-1661.166 -359.788)" fill="#fff"/>
        <path id="Caminho_4078" data-name="Caminho 4078" d="M1923.562,409.672h-23.154a.53.53,0,0,1,0-1.06h23.154a.53.53,0,0,1,0,1.06" transform="translate(-1657.974 -356.585)" fill="#fff"/>
        <path id="Caminho_4079" data-name="Caminho 4079" d="M1859.859,194.882a18.834,18.834,0,1,1,19.041-18.833,18.959,18.959,0,0,1-19.041,18.833m0-35.994a17.163,17.163,0,1,0,17.369,17.161,17.286,17.286,0,0,0-17.369-17.161" transform="translate(-1606.434 -137.2)" fill="#fff"/>
      </g>
    </g>
  </g>
</svg>
