<?xml version="1.0" encoding="utf-8"?>
<!-- Generator: Adobe Illustrator 26.0.3, SVG Export Plug-In . SVG Version: 6.00 Build 0)  -->
<svg version="1.1" id="Camada_1" xmlns="http://www.w3.org/2000/svg" xmlns:xlink="http://www.w3.org/1999/xlink" x="0px" y="0px"
	 viewBox="0 0 1200 1200" style="enable-background:new 0 0 1200 1200;" xml:space="preserve">
<style type="text/css">
	.st0{fill:#CFCFFF;}
	.st1{opacity:0.5;fill:url(#SVGID_1_);}
	.st2{opacity:0.5;fill:url(#SVGID_00000000192461797282686390000012102891876633392057_);}
	.st3{fill:#2C2789;}
	.st4{fill:#FFFFFF;}
	.st5{fill:url(#SVGID_00000165924553587122162550000013191822424683436960_);}
	.st6{fill:#29ABE2;}
	.st7{fill:url(#SVGID_00000054258298057257984650000017175006796137623171_);}
	.st8{fill:url(#SVGID_00000094582375563725603730000001472520857914266039_);}
	.st9{fill:#C0D5FF;}
	.st10{fill:url(#SVGID_00000097462825719928486590000010314823833065733011_);}
	.st11{fill:url(#SVGID_00000023997492266303958420000003526709863113350814_);}
	.st12{fill:#4435AB;}
	.st13{fill:#F3EFFE;}
	.st14{opacity:0.5;fill:url(#SVGID_00000168834772931254972830000003880069111516888476_);}
	.st15{fill:#7673D4;}
	.st16{opacity:0.5;fill:url(#SVGID_00000160174592918343948750000005673945743691153848_);}
	.st17{opacity:0.5;fill:url(#SVGID_00000009566271629426352570000005841876528318033795_);}
	.st18{opacity:0.5;fill:url(#SVGID_00000129186917392724939720000014164415839411897508_);}
	.st19{opacity:0.5;fill:url(#SVGID_00000104688427783380292440000010765400312202590910_);}
	.st20{opacity:0.5;fill:url(#SVGID_00000044170076889842209600000013985889417584421050_);}
	.st21{opacity:0.5;fill:url(#SVGID_00000109713723338728864570000008426343396962586799_);}
	.st22{opacity:0.5;fill:url(#SVGID_00000160184362033392469830000014059868773657795731_);}
	.st23{opacity:0.1;}
	.st24{opacity:0.5;fill:url(#SVGID_00000055677259910443055800000001953381091513521026_);}
	.st25{fill:#F4D5B5;}
	.st26{fill:#36164D;}
	.st27{opacity:0.5;fill:url(#SVGID_00000004513829289987434540000003813479406094650019_);}
	.st28{opacity:0.5;fill:url(#SVGID_00000054229854425137892250000008338186158013876646_);}
</style>
<g>
	<g>
		<path class="st0" d="M1114.32,517.05c-8.69,96.63-93.07,197.01-185.55,186.53c-52.17-5.93-84.77,7.9-110.46,31.81
			c-57.5,53.55-80.23,157.29-212.03,200.96c-148.79,49.2-290.67,40.71-353.11-12.65c-17.59-14.62-28.85-33-32.21-54.73
			c-34.78-217.16,235.34-251.94,107.49-365.56c-4.35-3.95-9.29-7.9-14.62-12.05c-155.12-118.76,50.78-353.7,178.24-327.62
			c4.74,0.99,9.48,2.37,14.03,4.15c11.66,4.55,22.13,9.49,32.01,14.82c25.69,14.23,46.04,31.42,67.58,49.4
			c10.27,8.5,20.75,16.99,32.21,25.49c3.16,2.37,6.52,4.74,9.88,7.11c12.84,9.09,27.07,17.98,43.47,26.48
			c5.53,2.77,11.46,5.73,17.59,8.3c50.98,23.32,121.92,42.09,232.18,50.19c61.45,4.35,104.33,22.72,132,49.2
			C1106.61,430.5,1118.07,473.38,1114.32,517.05z"/>
		<linearGradient id="SVGID_1_" gradientUnits="userSpaceOnUse" x1="669.6917" y1="325.2321" x2="665.7557" y2="728.6797">
			<stop  offset="0" style="stop-color:#FFFFFF"/>
			<stop  offset="0.1025" style="stop-color:#FAFAFA"/>
			<stop  offset="0.2262" style="stop-color:#EBEBEB"/>
			<stop  offset="0.3607" style="stop-color:#D3D3D3"/>
			<stop  offset="0.5032" style="stop-color:#B1B1B1"/>
			<stop  offset="0.6518" style="stop-color:#858585"/>
			<stop  offset="0.8055" style="stop-color:#4F4F4F"/>
			<stop  offset="0.9607" style="stop-color:#111111"/>
			<stop  offset="1" style="stop-color:#000000"/>
		</linearGradient>
		<path class="st1" d="M928.71,703.57c-52.17-5.88-84.68,7.9-110.3,31.78c-50.05-17.82-99.83-36.55-152-45.65
			c-111.77-19.47-237.5,12.77-307.85,101.76c-33.89,43.07-55.01,98-100.2,128.95c-1.75,1.19-3.49,2.3-5.23,3.4
			c-17.54-14.79-28.75-33.15-32.24-54.74c-35.82-224.64,254.22-254.31,93.04-377.65C158.71,372.66,364.62,137.73,492,163.81
			c-7.26,29.02-7.99,59.61-2.76,88.99c7.81,43.9,29.21,85.69,62.64,115.54c61.72,54.92,149.52,66.95,231.81,73.38
			c32.7,2.57,65.76,4.59,98.27,0.28c64.84-8.45,126.74-41.88,191.12-43.17C1180.26,500.14,1063.26,718.72,928.71,703.57z"/>
		
			<linearGradient id="SVGID_00000008830305229473414580000003500470194605121207_" gradientUnits="userSpaceOnUse" x1="612.1777" y1="374.1761" x2="734.688" y2="1079.7175">
			<stop  offset="0" style="stop-color:#FFFFFF"/>
			<stop  offset="0.2204" style="stop-color:#CBCBCB"/>
			<stop  offset="0.7211" style="stop-color:#4A4A4A"/>
			<stop  offset="1" style="stop-color:#000000"/>
		</linearGradient>
		<path style="opacity:0.5;fill:url(#SVGID_00000008830305229473414580000003500470194605121207_);" d="M1114.23,517.13
			c-8.63,96.62-92.94,196.91-185.52,186.44c-52.17-5.88-84.68,7.9-110.3,31.78c-57.58,53.54-80.36,157.42-212.15,201.04
			c-148.78,49.14-290.68,40.59-353.13-12.58c-17.54-14.79-28.75-33.15-32.24-54.74c-34.62-217.21,235.39-252.11,107.55-365.62
			c97.26,28.93,206,18.19,295.27-30.22c62.18-33.8,116.73-85.23,185.89-99.92c60.06-12.77,123.34,4.59,176.24,35.63
			C1034.14,437.41,1075.11,476.62,1114.23,517.13z"/>
	</g>
	<g>
		<g>
			<g>
				<g>
					<path class="st3" d="M264.9,750.69c7.29-11.6,19.1-53.64,27.79-48.77c6.27,3.44,24.95,28.26,33.47,53.35
						c3.3,9.78,5.04,19.52,3.88,28.17c-5.77,43.36-21.56,61.51-41.3,68.37c-17.76,6.28-27.62,1.77-41.49,6.43
						c-1.53,0.51-2.98,1.08-4.55,1.82c-0.72,0.28-1.36,0.63-1.96,1.13c-14.93,8.25-21.79,28.28-57.17,29.9
						c-23.57,1.05-42.77-17.56-52.22-31.89c-5.33-8.18-7.53-14.82-5.42-15.59c2.2-0.7,7.25,2.03,13.55,5.23
						c10.36,5.11,24.03,11.48,33.78,5.4c15.67-9.69,22.62-4.59,14.64-13.3c-8.04-8.62-13.08,3.89-32.03-1.69
						c-2.05-0.64-4.33-1.7-6.51-3.09c-7.91-4.85-15.74-13.97-21.94-23.54c-7.3-11.38-11.99-23.31-11.12-29.27
						c1.95-12.42,14.64,13.47,35.11,10.66c4.97-0.74,9.24-1.58,12.78-2.52c8.62-2.4,12.67-5.75,11.28-9.6
						c-0.28-1.11-1.09-2.2-2.14-3.33c-7.21-6.99-60.08-0.61-58.21-25.17c1.93-24.64,11.78-44.82,18.77-34.31
						c7.08,10.57,17.61,29.19,25.26,23.1c7.63-6.24,5.34-14.27-7.79-21.43c-13.21-7.23-26.6-7.23-26.01-17.32
						c0.14-2.27,1.16-7.33,2.79-13.81c3.51-14.09,10-34.91,17.8-48.38c5.11-9.04,10.82-14.78,16.58-13.26
						c13.38,3.41,42.56,14.27,59.56,23.61c7.03,3.85,11.92,7.38,12.95,10.06c3.52,9.27-22.49,18.73-18.94,31.17
						c3.61,12.35,13.65,20.92,22.47-4.18c8.9-25.04,19.01-39,31.9-12.45c12.82,26.64-2.06,45.95-10.81,57.57
						C250.72,745.41,257.61,762.28,264.9,750.69z"/>
					<g>
						<path class="st4" d="M178.89,663.64l0.08,0.45c5,24.48,11.05,50.87,19.2,77.81c11.5,38.72,27.01,78.65,49.08,116.33
							c16.06,27.46,35.68,53.58,59.64,77.22c0.27,0.18,0.38,0.4,0.5,0.61c0.75,1.18,0.76,2.5,0.2,3.68
							c-0.18,0.27-0.37,0.53-0.64,0.73c-1.37,1.41-3.61,1.42-5.02,0.05c-0.2-0.27-0.47-0.46-0.67-0.73
							c-24.44-24.1-44.22-50.73-60.51-78.61c-19.76-33.83-34.25-69.39-45.38-104.3l-1.01-3.07c-2.64-8.27-4.98-16.59-7.24-24.86
							c-6.19-22.03-11.07-43.67-15.24-63.89c-0.35-1.95,0.85-3.87,2.8-4.22c0.45-0.08,0.84-0.07,1.17,0.02
							C177.33,660.98,178.62,662.14,178.89,663.64z"/>
					</g>
				</g>
			</g>
			
				<linearGradient id="SVGID_00000084496359844091393960000005283031094444020921_" gradientUnits="userSpaceOnUse" x1="137.3587" y1="419.69" x2="365.5053" y2="419.69" gradientTransform="matrix(0.5713 -0.8207 0.8207 0.5713 -263.955 758.5786)">
				<stop  offset="0" style="stop-color:#FFFFFF"/>
				<stop  offset="0.2563" style="stop-color:#C2C2C2"/>
				<stop  offset="0.8455" style="stop-color:#292929"/>
				<stop  offset="1" style="stop-color:#000000"/>
			</linearGradient>
			<path style="fill:url(#SVGID_00000084496359844091393960000005283031094444020921_);" d="M210.51,739.07
				c8.59,15.56,24.58,27.09,42.2,29.51c24.76,3.46,48.97-10.01,73.45-13.31c3.3,9.78,5.04,19.52,3.88,28.17
				c-5.77,43.36-21.56,61.51-41.3,68.37c-17.76,6.28-27.62,1.77-41.49,6.43c16.06,27.46,35.68,53.58,59.64,77.22
				c0.27,0.18,0.38,0.4,0.5,0.61c-2,1.36-4.11,2.52-6.14,3.73c-24.44-24.1-44.22-50.73-60.51-78.61
				c-14.93,8.25-21.79,28.28-57.17,29.9c-23.57,1.05-42.77-17.56-52.22-31.89c2.7-3.5,5.43-6.85,8.13-10.35
				c10.36,5.11,24.03,11.48,33.78,5.4c15.67-9.69,22.62-4.59,14.64-13.3c-8.04-8.62-13.08,3.89-32.03-1.69
				c-2.05-0.64-4.33-1.7-6.51-3.09c6.41-8.27,12.85-16.38,19.26-24.65c12.64-16.27,25.95-34.83,26.74-54.62
				c0.06-3.11-0.03-6.19-0.59-9.34c-1.15-6.84-3.8-13.01-7.66-18.59c-8.09-12.32-21.31-21.79-34.46-29.11
				c-7.65-4.28-15.85-8.15-24.51-10.23c3.51-14.09,10-34.91,17.8-48.38c5.11-9.04,10.82-14.78,16.58-13.26
				c13.38,3.41,42.56,14.27,59.56,23.61c-1.08,3.06-2.33,5.99-3.74,8.95c-4.12,8.94-9.17,17.51-12.22,26.8
				C200.54,704.18,201.92,723.51,210.51,739.07z"/>
		</g>
		<g>
			<g>
				<path class="st6" d="M310.29,951.7c-5.45-2.65-16.2-2.5-29.52-0.58c-21.15,3.15-48.8,10.72-71.35,18.46
					c-15.42,5.26-28.41,10.62-35.45,14.75c-17.06,9.87-62.99,5.69-87.6,2.62c-9.76-1.36-16.17-2.42-16.17-2.42
					s36.99-54.98,93.71-75.24c47.12-16.75,116.84,23.52,139.12,37.69C307.74,949.87,310.29,951.7,310.29,951.7z"/>
				<path class="st4" d="M314.02,952.26c-0.27,1.99-2.13,3.45-4.22,3.13c0,0,0,0-0.1-0.04l-0.07,0.03
					c-9.49-1.73-19.15-3.05-28.85-4.26c-4.4-0.54-8.8-1.08-13.24-1.52c-14.12-1.41-28.31-2.36-42.48-2.65
					c-14.13-0.21-28.36-0.04-42.48,1.61c-3.87,0.51-7.67,1-11.51,1.58c-10.11,1.68-20.09,4.07-29.61,7.97
					c-0.58,0.24-1.3-0.05-1.54-0.63c-0.31-0.55-0.02-1.27,0.6-1.61c7.33-3.24,15.02-5.61,22.78-7.41
					c6.29-1.44,12.56-2.53,18.89-3.48c14.18-2.11,28.55-2.76,42.88-2.89c14.37-0.23,28.66,0.34,42.98,1.41
					c11.69,0.89,23.3,1.99,34.99,3.48c2.62,0.35,5.23,0.7,7.85,1.06C312.91,948.39,314.37,950.25,314.02,952.26z"/>
			</g>
			
				<linearGradient id="SVGID_00000104680720539075860380000017526464427929515929_" gradientUnits="userSpaceOnUse" x1="-34.4323" y1="780.8134" x2="203.4695" y2="780.8134" gradientTransform="matrix(0.9224 -0.3862 0.3862 0.9224 -193.2299 266.1151)">
				<stop  offset="0" style="stop-color:#FFFFFF"/>
				<stop  offset="0.2563" style="stop-color:#C2C2C2"/>
				<stop  offset="0.8455" style="stop-color:#292929"/>
				<stop  offset="1" style="stop-color:#000000"/>
			</linearGradient>
			<path style="fill:url(#SVGID_00000104680720539075860380000017526464427929515929_);" d="M314.02,952.26
				c-0.27,1.99-2.13,3.45-4.22,3.13c0,0,0,0-0.1-0.04l-0.07,0.03c-9.49-1.73-19.15-3.05-28.85-4.26
				c-21.15,3.15-48.8,10.72-71.35,18.46c-1.91-0.9-3.82-1.81-5.69-2.81c-10.81-5.69-21.12-13.03-32.67-16.63
				c-2.14-0.64-4.42-1.21-6.69-1.54c-0.35-0.02-0.73-0.12-1.08-0.14c-14.48-1.85-29.02,3.47-42.13,9.98
				c-13.58,6.79-27.35,15.79-34.79,28.52c-9.76-1.36-16.17-2.42-16.17-2.42s36.99-54.98,93.71-75.24
				c47.12-16.75,116.84,23.52,139.12,37.69c2.62,0.35,5.23,0.7,7.85,1.06C312.91,948.39,314.37,950.25,314.02,952.26z"/>
		</g>
		<g>
			<g>
				<path class="st6" d="M310.84,952.18c-2.56-4.2-3.26-12.9-2.72-23.81c0.93-17.33,4.94-40.25,9.46-59.06
					c3.07-12.86,6.41-23.77,9.21-29.77c6.67-14.54-0.22-51.33-4.58-70.98c-1.85-7.78-3.2-12.88-3.2-12.88s-41.6,34.09-53.63,81.47
					c-9.93,39.36,27.94,92.61,41.09,109.52C309.17,950.26,310.84,952.18,310.84,952.18z"/>
				<path class="st4" d="M311.58,955.15c1.59-0.37,2.62-1.99,2.21-3.65c0,0,0,0-0.04-0.08l0.02-0.06
					c-2.12-7.54-3.93-15.24-5.65-22.99c-0.77-3.51-1.55-7.02-2.24-10.58c-2.22-11.3-4.07-22.7-5.39-34.12
					c-1.25-11.4-2.2-22.91-1.94-34.45c0.12-3.17,0.22-6.27,0.4-9.42c0.58-8.29,1.75-16.54,4.17-24.53c0.15-0.49-0.14-1.05-0.63-1.2
					c-0.47-0.21-1.03,0.08-1.26,0.61c-2.06,6.17-3.38,12.56-4.24,18.97c-0.68,5.19-1.09,10.34-1.37,15.53
					c-0.62,11.62-0.05,23.28,0.95,34.87c0.91,11.63,2.47,23.13,4.43,34.62c1.61,9.38,3.39,18.68,5.49,28.01
					c0.48,2.09,0.97,4.17,1.45,6.26C308.37,954.55,309.98,955.58,311.58,955.15z"/>
			</g>
			
				<linearGradient id="SVGID_00000148660133282510869640000018044446556050405039_" gradientUnits="userSpaceOnUse" x1="762.3085" y1="443.5497" x2="955.3893" y2="443.5497" gradientTransform="matrix(-0.2976 0.9547 0.9547 0.2976 135.1055 -100.1184)">
				<stop  offset="0" style="stop-color:#FFFFFF"/>
				<stop  offset="0.2563" style="stop-color:#C2C2C2"/>
				<stop  offset="0.8455" style="stop-color:#292929"/>
				<stop  offset="1" style="stop-color:#000000"/>
			</linearGradient>
			<path style="fill:url(#SVGID_00000148660133282510869640000018044446556050405039_);" d="M311.58,955.15
				c1.59-0.37,2.62-1.99,2.21-3.65c0,0,0,0-0.04-0.08l0.02-0.06c-2.12-7.54-3.93-15.24-5.65-22.99c0.93-17.33,4.94-40.25,9.46-59.06
				c-0.88-1.47-1.75-2.95-2.71-4.38c-5.42-8.3-12.15-16.07-15.93-25.12c-0.68-1.68-1.32-3.48-1.76-5.29
				c-0.05-0.28-0.15-0.58-0.2-0.86c-2.6-11.56,0.58-23.71,4.84-34.8c4.45-11.5,10.67-23.31,20.39-30.29
				c-1.85-7.78-3.2-12.88-3.2-12.88s-41.6,34.09-53.63,81.47c-9.93,39.36,27.94,92.61,41.09,109.52c0.48,2.09,0.97,4.17,1.45,6.26
				C308.37,954.55,309.98,955.58,311.58,955.15z"/>
		</g>
		<path class="st9" d="M216.42,882.03c1.61,8.42,7.67,14.57,12.21,18.15c-7.86-2.22-16.15-3.03-25.02-3.02
			c-3.15-19.14,12.53-29.87,6.64-41.16c-3.29-6.3-28.36,1.01-24.54,21c1.87,9.76,9.42,16.67,14.26,20.21
			c-6.62,0.14-13.56,0.63-20.85,1.19c-6.26-15.78,5.16-27.87-1.98-36.43c-3.98-4.78-24.06,6.14-17.07,22.52
			c3.2,7.5,10.21,11.93,15.03,14.21c-5.23,0.4-10.69,0.79-16.34,1.1c-13.59-8.8-14.09-24.79-25.42-26.34
			c-6.79-0.93-15.01,22.86,2.84,31c8.56,3.9,18.02,1.95,23.54,0.14c5.51-0.32,10.85-0.69,15.96-1.09c-3.78,1.55-7.68,3.95-10.59,7.7
			c-10.94,14.06,5.69,29.74,10.76,26.14c9.08-6.45,1.15-21.02,11.18-34.67c7.95-0.54,15.32-0.87,22.22-0.59
			c-5.58,1.92-15.26,6.41-19.97,15.52c-9.34,18.08,12.62,32.22,17.56,27.11c9.04-9.34-3.63-24.5,5.89-42.43
			c9.94,0.74,18.94,2.96,27.39,7.9c-5.09,0.19-16.4,1.53-23.58,9.45c-12.96,14.3,3.73,32.6,9.5,29.12
			c10.57-6.37,2.61-23.39,15.78-37.52c3.12,1.98,6.17,4.3,9.16,7.13c5.19,4.9,10.51,9.15,15.71,12.86
			c-4.8,0.24-12.21,1.52-17.47,6.69c-11.46,11.27,1.54,27.29,6.5,24.67c8.81-4.64,3.63-18.41,13.82-29.37
			c8.94,6.08,17.34,10.46,23.91,13.45c-3.13,0.63-6.63,1.92-9.38,4.62c-8.85,8.7,1.19,21.06,5.02,19.04
			c6.46-3.4,3.19-13.17,9.6-21.39c4.73,1.93,7.74,2.87,8.12,2.98c1.2,0.37,2.46-0.25,2.93-1.38c0.03-0.08,0.06-0.16,0.08-0.24
			c0.39-1.28-0.34-2.63-1.62-3.02c-0.13-0.04-6.24-1.94-15.16-6.2c-0.06-12.21,10.88-16.92,8.57-24.46
			c-1.27-4.14-17.11-2.56-17.05,9.85c0.03,5.87,3.54,10.71,6.04,13.42c-7.72-3.85-17.18-9.34-26.67-16.78
			c-0.28-16.07,14.11-22.18,11.1-32.01c-1.64-5.37-22.17-3.31-22.09,12.76c0.03,6.05,2.93,11.27,5.74,14.92
			c-1.47-1.27-2.93-2.58-4.38-3.95c-6.57-6.21-13.44-10.28-20.66-12.99c-3.46-18.56,11.7-28.89,6.05-39.73
			C236.57,856.14,212.8,863.08,216.42,882.03z"/>
	</g>
	<g>
		<g>
			<g>
				<path class="st3" d="M967.67,701.53c1.14-1.73,4.32-3.56,8.57-5.33c6.76-2.77,16.2-5.38,24.17-7.05
					c5.45-1.15,10.2-1.85,12.99-1.87c6.73-0.09,19.49-9.34,26.17-14.54c2.63-2.11,4.32-3.54,4.32-3.54s-20.47-9.67-40.66-5.7
					c-16.76,3.32-30.19,27.33-34.25,35.39C968.1,700.55,967.67,701.53,967.67,701.53z"/>
				<path class="st4" d="M966.68,702.35c0.43,0.54,1.23,0.64,1.79,0.18c0,0,0,0,0.02-0.03l0.03,0c2.48-2.17,5.09-4.24,7.72-6.3
					c1.2-0.93,2.39-1.86,3.62-2.76c3.9-2.88,7.9-5.64,12.01-8.2c4.11-2.53,8.32-4.97,12.75-6.95c1.23-0.53,2.43-1.05,3.66-1.55
					c3.26-1.27,6.61-2.32,10.08-2.84c0.21-0.03,0.37-0.24,0.34-0.45c0-0.22-0.22-0.38-0.46-0.37c-2.72,0.33-5.39,0.98-7.98,1.81
					c-2.1,0.68-4.13,1.45-6.15,2.28c-4.53,1.86-8.86,4.18-13.09,6.65c-4.26,2.45-8.35,5.11-12.37,7.93
					c-3.28,2.31-6.49,4.66-9.66,7.14c-0.71,0.56-1.41,1.12-2.12,1.68C966.33,701.02,966.22,701.82,966.68,702.35z"/>
			</g>
			
				<linearGradient id="SVGID_00000152971063281566758460000015903108888285501368_" gradientUnits="userSpaceOnUse" x1="203.0592" y1="738.6385" x2="284.3463" y2="738.6385" gradientTransform="matrix(-0.9901 0.1402 0.1402 0.9901 1142.1892 -85.0688)">
				<stop  offset="0" style="stop-color:#FFFFFF"/>
				<stop  offset="0.2563" style="stop-color:#C2C2C2"/>
				<stop  offset="0.8455" style="stop-color:#292929"/>
				<stop  offset="1" style="stop-color:#000000"/>
			</linearGradient>
			<path style="fill:url(#SVGID_00000152971063281566758460000015903108888285501368_);" d="M966.68,702.35
				c0.43,0.54,1.23,0.64,1.79,0.18c0,0,0,0,0.02-0.03l0.03,0c2.48-2.17,5.09-4.24,7.72-6.3c6.76-2.77,16.2-5.38,24.17-7.05
				c0.4-0.6,0.81-1.2,1.18-1.82c2.18-3.56,3.92-7.52,6.68-10.59c0.52-0.56,1.09-1.13,1.69-1.62c0.1-0.07,0.19-0.16,0.29-0.23
				c3.93-3.08,9.13-4.06,14.11-4.44c5.18-0.38,10.79-0.15,15.2,2.29c2.63-2.11,4.32-3.54,4.32-3.54s-20.47-9.67-40.66-5.7
				c-16.76,3.32-30.19,27.33-34.25,35.39c-0.71,0.56-1.41,1.12-2.12,1.68C966.33,701.02,966.22,701.82,966.68,702.35z"/>
		</g>
		<g>
			<g>
				<path class="st6" d="M967.55,701.22c-0.49-2.01-2.87-4.79-6.27-7.88c-5.43-4.87-13.42-10.48-20.36-14.71
					c-4.73-2.9-8.96-5.15-11.58-6.1c-6.3-2.33-15.19-15.3-19.73-22.42c-1.77-2.86-2.88-4.77-2.88-4.77s22.48-2.24,40.13,8.24
					c14.64,8.73,19.23,35.79,20.35,44.71C967.47,700.15,967.55,701.22,967.55,701.22z"/>
				<path class="st4" d="M968.21,702.32c-0.58,0.36-1.37,0.19-1.74-0.43c0,0,0,0-0.01-0.04l-0.02-0.01
					c-1.61-2.87-3.36-5.69-5.15-8.5c-0.81-1.27-1.63-2.54-2.48-3.81c-2.7-4.01-5.54-7.95-8.54-11.73c-3.02-3.76-6.16-7.45-9.66-10.8
					c-0.98-0.9-1.93-1.8-2.92-2.68c-2.64-2.29-5.44-4.39-8.53-6.04c-0.19-0.1-0.27-0.35-0.17-0.54c0.08-0.2,0.33-0.28,0.55-0.19
					c2.44,1.22,4.74,2.72,6.9,4.37c1.75,1.34,3.4,2.75,5.02,4.2c3.64,3.27,6.93,6.89,10.08,10.63c3.19,3.72,6.14,7.6,8.97,11.59
					c2.31,3.26,4.54,6.55,6.7,9.94c0.48,0.76,0.95,1.53,1.43,2.29C968.99,701.19,968.82,701.97,968.21,702.32z"/>
			</g>
			
				<linearGradient id="SVGID_00000101104985996847201460000015236336498378474393_" gradientUnits="userSpaceOnUse" x1="829.6934" y1="535.0867" x2="910.7846" y2="535.0867" gradientTransform="matrix(0.8858 0.4641 -0.4641 0.8858 417.4981 -208.7219)">
				<stop  offset="0" style="stop-color:#FFFFFF"/>
				<stop  offset="0.2563" style="stop-color:#C2C2C2"/>
				<stop  offset="0.8455" style="stop-color:#292929"/>
				<stop  offset="1" style="stop-color:#000000"/>
			</linearGradient>
			<path style="fill:url(#SVGID_00000101104985996847201460000015236336498378474393_);" d="M968.21,702.32
				c-0.58,0.36-1.37,0.19-1.74-0.43c0,0,0,0-0.01-0.04l-0.02-0.01c-1.61-2.87-3.36-5.69-5.15-8.5
				c-5.43-4.87-13.42-10.48-20.36-14.71c-0.18-0.7-0.36-1.4-0.5-2.1c-0.86-4.07-1.17-8.38-2.74-12.19c-0.3-0.7-0.64-1.42-1.05-2.09
				c-0.07-0.1-0.13-0.22-0.2-0.32c-2.66-4.2-7.22-6.86-11.78-8.89c-4.74-2.09-10.09-3.75-15.05-2.93c-1.77-2.86-2.88-4.77-2.88-4.77
				s22.48-2.24,40.13,8.24c14.64,8.73,19.23,35.79,20.35,44.71c0.48,0.76,0.95,1.53,1.43,2.29
				C968.99,701.19,968.82,701.97,968.21,702.32z"/>
		</g>
		<path class="st12" d="M993.63,623.24c2.57,5.56,1.62,11.66,0.47,15.63c3.64-4.57,8.12-8.49,13.27-12.18
			c-6.15-12.43-19.72-12.12-21.01-21.14c-0.72-5.03,16.89-11.23,23,1.97c2.98,6.45,1.48,13.61,0.14,17.68c3.9-2.67,8.14-5.29,12.6-8
			c-2.94-11.77-14.61-14.03-14.03-21.98c0.32-4.43,16.53-6.46,19.3,5.97c1.27,5.68-0.96,11.19-2.81,14.51
			c3.21-1.95,6.54-4,9.95-6.17c4.22-10.78-2.15-20.27,3.79-25.89c3.55-3.37,18.24,7.02,11.27,19.18c-3.35,5.84-9.65,8.64-13.61,9.89
			c-3.33,2.11-6.59,4.12-9.72,6.02c2.84-0.67,6.11-0.9,9.36,0.06c12.21,3.61,9.09,19.64,4.64,19.66
			c-7.96,0.04-9.43-11.73-20.94-15.48c-4.84,3-9.26,5.88-13.15,8.92c4.04-1.21,11.53-2.64,18.07,0.69
			c12.96,6.61,6.1,23.97,1.1,23.06c-9.14-1.66-8.1-15.74-21.1-22.19c-5.47,4.57-9.77,9.61-12.61,16c3.04-2.01,10.16-5.95,17.63-4.34
			c13.49,2.9,11.42,20.48,6.62,20.87c-8.8,0.7-11.26-12.49-24.8-15.21c-0.99,2.45-1.79,5.07-2.35,7.96
			c-0.97,5.01-2.29,9.69-3.77,14.01c2.89-1.86,7.72-4.2,12.93-3.39c11.35,1.77,10.48,16.49,6.5,17.04
			c-7.05,0.98-9.78-9.18-20.26-11.3c-2.66,7.26-5.71,13.3-8.28,17.77c2.08-0.94,4.65-1.65,7.37-1.22
			c8.76,1.36,8.09,12.73,5.02,13.15c-5.17,0.71-7.34-6.32-14.49-8.42c-1.94,3.09-3.3,4.89-3.47,5.11c-0.54,0.71-1.53,0.88-2.28,0.42
			c-0.05-0.03-0.1-0.07-0.15-0.1c-0.76-0.58-0.9-1.67-0.32-2.43c0.06-0.08,2.81-3.73,6.22-9.92c-5.05-7.12-13.37-5.29-15.17-10.63
			c-0.99-2.93,8.87-8.62,14.01-1.39c2.43,3.42,2.41,7.69,2.09,10.31c2.88-5.46,6.08-12.59,8.5-20.86c-6.53-9.45-17.44-7-19.79-13.96
			c-1.28-3.8,11.49-11.16,18.15-1.79c2.5,3.52,2.99,7.76,2.89,11.06c0.32-1.35,0.63-2.72,0.9-4.12c1.23-6.35,3.52-11.57,6.58-16.15
			c-5.73-12.22-18.84-11.9-20.07-20.55C971.14,616.6,987.83,610.73,993.63,623.24z"/>
	</g>
	<g>
		<g>
			<path class="st12" d="M736.35,255.93c-13.64,0-24.73-11.09-24.73-24.73s11.09-24.73,24.73-24.73s24.73,11.09,24.73,24.73
				S749.99,255.93,736.35,255.93z M736.35,215.46c-8.68,0-15.74,7.06-15.74,15.74c0,8.68,7.06,15.74,15.74,15.74
				s15.74-7.06,15.74-15.74C752.09,222.52,745.03,215.46,736.35,215.46z"/>
		</g>
		<g>
			<path class="st9" d="M788.95,235.69h-52.6c-2.48,0-4.5-2.01-4.5-4.5s2.01-4.5,4.5-4.5h52.6c2.48,0,4.5,2.01,4.5,4.5
				S791.44,235.69,788.95,235.69z"/>
		</g>
		<g>
			<path class="st9" d="M819.75,213.92h-52.6c-2.49,0-4.5-2.01-4.5-4.5s2.01-4.5,4.5-4.5h52.6c2.49,0,4.5,2.01,4.5,4.5
				S822.23,213.92,819.75,213.92z"/>
		</g>
		<g>
			<path class="st9" d="M736.35,201.49c-2.48,0-4.5-2.01-4.5-4.5v-22.16c0-2.49,2.01-4.5,4.5-4.5c2.49,0,4.5,2.01,4.5,4.5V197
				C740.85,199.48,738.84,201.49,736.35,201.49z"/>
		</g>
	</g>
	<g>
		<g>
			<path class="st12" d="M874.6,765.07c-8.68,0-15.74,7.06-15.74,15.74s7.06,15.74,15.74,15.74s15.74-7.06,15.74-15.74
				S883.28,765.07,874.6,765.07z"/>
		</g>
		<g>
			<path class="st9" d="M927.2,785.3h-52.6c-2.49,0-4.5-2.01-4.5-4.5c0-2.48,2.01-4.5,4.5-4.5h52.6c2.48,0,4.5,2.01,4.5,4.5
				C931.7,783.29,929.69,785.3,927.2,785.3z"/>
		</g>
		<g>
			<path class="st9" d="M958,763.53h-52.6c-2.48,0-4.5-2.01-4.5-4.5c0-2.49,2.01-4.5,4.5-4.5H958c2.48,0,4.5,2.01,4.5,4.5
				C962.49,761.52,960.48,763.53,958,763.53z"/>
		</g>
	</g>
	<g>
		<g>
			<path class="st12" d="M258.97,592.76h-52.6c-2.49,0-4.5-2.01-4.5-4.5c0-2.48,2.01-4.5,4.5-4.5h52.6c2.49,0,4.5,2.01,4.5,4.5
				C263.47,590.75,261.46,592.76,258.97,592.76z"/>
		</g>
		<g>
			<path class="st12" d="M289.77,570.99h-52.6c-2.49,0-4.5-2.01-4.5-4.5s2.01-4.5,4.5-4.5h52.6c2.49,0,4.5,2.01,4.5,4.5
				S292.25,570.99,289.77,570.99z"/>
		</g>
	</g>
</g>
<g>
	<g>
		<g>
			<g>
				<polygon class="st6" points="473.71,747.61 473.71,863.84 360.84,819.88 360.84,703.65 				"/>
				<polygon class="st12" points="586.5,703.65 497.74,738.29 473.71,747.7 360.84,703.65 473.71,659.6 531.18,682.04 				"/>
				<path class="st13" d="M586.5,703.65v116.23l-112.79,43.96V747.61l24.03-9.31c0.09-0.09,0.09-0.09,0.09-0.09L586.5,703.65z"/>
			</g>
			
				<linearGradient id="SVGID_00000053546653005779627740000005790514561084531330_" gradientUnits="userSpaceOnUse" x1="360.8354" y1="772.9413" x2="586.5009" y2="772.9413">
				<stop  offset="0" style="stop-color:#FFFFFF"/>
				<stop  offset="0.2563" style="stop-color:#C2C2C2"/>
				<stop  offset="0.8455" style="stop-color:#292929"/>
				<stop  offset="1" style="stop-color:#000000"/>
			</linearGradient>
			<path style="opacity:0.5;fill:url(#SVGID_00000053546653005779627740000005790514561084531330_);" d="M586.5,703.65v116.23
				l-112.79,43.96l-112.88-43.96v-46.29c7.54-0.47,15.09,0.09,22.45,1.49c9.78,1.86,19.28,5.03,28.96,7.26
				c14.44,3.35,29.71,4.38,44.05,0.74c6.15-1.58,12.11-4,17.42-7.45c7.26-4.47,13.41-10.52,17.51-17.97
				c3.26-5.96,5.12-12.57,6.52-19.37c0.09-0.09,0.09-0.09,0.09-0.09c3.17-15.65,4.1-32.13,14.34-43.96c5.03-5.68,11.73-9.69,19-12.2
				L586.5,703.65z"/>
		</g>
		<g>
			<g>
				<path class="st3" d="M1000.35,445.35c-10.75,80.26-66.66,139.02-124.83,131.23c-1.82-0.24-20.04-2.54-21.8-2.92
					c-46.08-9.46-67.16-58.04-66.8-119.05c0.06-12.09,0.97-24.61,2.69-37.48c1.61-11.99,5.22-23.49,10.19-34.4
					c11.72-25.69,30.95-48.01,48.86-64.95c23.04-21.81,43.98-34.8,43.98-34.8s19.11,2.56,21.8,2.92
					c41.31,5.53,72.67,43.13,83.54,93.19C1002.45,399.54,1003.46,422.06,1000.35,445.35z"/>
				<g>
					<path class="st15" d="M978.55,442.43c-10.75,80.26-66.66,139.02-124.83,131.23c-58.21-7.79-96.66-79.19-85.91-159.45
						c2.26-16.9,6.5-32.82,12.41-47.38c21.96-54.65,66.46-90,112.42-83.85c36.95,4.95,65.96,35.57,79.42,77.84
						C979.83,385.05,982.47,413.14,978.55,442.43z"/>
					<g>
						<path class="st4" d="M945.93,355.06c-12.57-24.62-32.64-41.58-56.95-44.83c-13.88-1.86-27.65,0.96-40.33,7.55
							c-21.82,11.28-40.56,33.63-51.68,62.24c-4.45,11.39-7.69,23.75-9.44,36.83c-1.74,12.97-1.88,25.68-0.62,37.75
							c5.01,48.46,32.66,86.74,70.45,91.8c47.2,6.32,92.7-41.51,101.42-106.63C963.01,408.21,957.81,378.22,945.93,355.06z
							 M859.31,531.87c-41.42-5.55-68.89-56.49-61.24-113.61c1.43-10.65,3.96-20.74,7.43-30.11c15.14-40.95,47.82-67.9,81.54-63.39
							c18.86,2.53,34.82,14.5,45.81,32.14c13.3,21.12,19.55,50.4,15.39,81.47C940.59,495.49,900.69,537.42,859.31,531.87z"/>
					</g>
					<g>
						<path class="st4" d="M906.09,376.69c-6.5-7.53-14.75-12.52-24.16-13.78c-21.84-2.92-42.96,15.03-52.16,42.02
							c-1.86,5.34-3.22,11.07-4.02,17.03c-4.83,36.08,12.5,68.25,38.66,71.75c26.12,3.5,51.34-22.97,56.17-59.05
							C923.68,411.59,917.68,390.08,906.09,376.69z M866.36,479.19c-20.35-2.72-33.82-27.76-30.07-55.81
							c0.69-5.16,1.9-10.06,3.58-14.61c7.41-20.24,23.5-33.54,40.11-31.32c7.74,1.04,14.45,5.3,19.62,11.73
							c8.48,10.46,12.78,26.68,10.45,44.08C906.3,461.31,886.67,481.91,866.36,479.19z"/>
					</g>
				</g>
				
					<linearGradient id="SVGID_00000028301679881938945830000009025739578357200810_" gradientUnits="userSpaceOnUse" x1="882.8912" y1="386.9728" x2="887.8806" y2="567.5878">
					<stop  offset="0" style="stop-color:#FFFFFF"/>
					<stop  offset="0.1027" style="stop-color:#CFCFCF"/>
					<stop  offset="0.2347" style="stop-color:#999999"/>
					<stop  offset="0.368" style="stop-color:#6A6A6A"/>
					<stop  offset="0.4999" style="stop-color:#444444"/>
					<stop  offset="0.63" style="stop-color:#262626"/>
					<stop  offset="0.7578" style="stop-color:#111111"/>
					<stop  offset="0.8824" style="stop-color:#040404"/>
					<stop  offset="1" style="stop-color:#000000"/>
				</linearGradient>
				<path style="opacity:0.5;fill:url(#SVGID_00000028301679881938945830000009025739578357200810_);" d="M1000.35,445.35
					c-10.75,80.26-66.66,139.02-124.83,131.23c-1.82-0.24-20.04-2.54-21.8-2.92c-58.21-7.79-96.66-79.19-85.91-159.45
					c2.26-16.9,6.5-32.82,12.41-47.38c2.99,1.73,5.82,3.78,8.49,5.91c2.87,2.31,5.57,4.78,8.27,7.28c0.95,0.9,1.87,1.8,2.82,2.71
					c1.9,1.81,3.76,3.65,5.71,5.42c2.8,2.59,5.64,5.12,8.69,7.45c4.83,3.68,10.07,6.82,15.58,9.34c3.27,1.51,6.66,2.78,10.1,3.83
					c6.36,1.96,12.96,3.18,19.61,3.51c10.36,0.54,21.42-1.16,29.32-7.91c4.8-4.09,7.93-9.52,10.8-15.2
					c2.08-4.2,4.06-8.48,6.48-12.48c0.91-1.54,1.88-3,2.96-4.41c5.88-7.72,14.41-12.87,23.81-15.38c4.23-1.17,8.67-1.8,13.08-1.84
					c2.82-0.07,5.65,0.09,8.44,0.5c6.14,0.86,12.07,2.69,17.68,5.25c9.62,4.36,18.38,10.82,25.92,18.27
					C1002.45,399.54,1003.46,422.06,1000.35,445.35z"/>
			</g>
			<g>
				<path class="st13" d="M334.26,823.36l-8.22-4.37c1.18-2.22,120.13-221.54,289.18-183.98c164.1,36.49,213.14-37.65,250.58-196.76
					l9.06,2.14C836.89,601.77,783.95,682.04,613.2,644.1C451.03,608.05,335.41,821.21,334.26,823.36z"/>
			</g>
			<g>
				<path class="st3" d="M884.07,439.34c0,8.85-7.17,15.93-16.02,15.93c-8.85,0-15.93-7.08-15.93-15.93c0-0.09,0-0.09,0-0.19
					c0.09-8.75,7.17-15.83,15.93-15.83c2.14,0,4.19,0.47,6.05,1.21C879.98,426.86,884.07,432.63,884.07,439.34z"/>
				
					<linearGradient id="SVGID_00000121973744977919436730000012289187932796970375_" gradientUnits="userSpaceOnUse" x1="852.1288" y1="439.8983" x2="884.074" y2="439.8983">
					<stop  offset="0" style="stop-color:#FFFFFF"/>
					<stop  offset="0.2563" style="stop-color:#C2C2C2"/>
					<stop  offset="0.8455" style="stop-color:#292929"/>
					<stop  offset="1" style="stop-color:#000000"/>
				</linearGradient>
				<path style="opacity:0.5;fill:url(#SVGID_00000121973744977919436730000012289187932796970375_);" d="M884.07,439.34
					c0,8.85-7.17,15.93-16.02,15.93c-8.85,0-15.93-7.08-15.93-15.93c0-0.09,0-0.09,0-0.19c0.37,0,0.84,0,1.3,0.09
					c2.51,0.19,5.03,0.93,7.36,1.86c1.96,0.75,3.91,1.68,5.96,1.58c1.68-0.09,3.17-0.93,4.56-1.77c0.84-0.47,1.58-0.93,2.24-1.58
					c1.3-1.49,1.58-3.54,1.58-5.59c0.09-2.24-0.09-4.56-0.47-6.8c-0.09-0.84-0.28-1.68-0.56-2.42
					C879.98,426.86,884.07,432.63,884.07,439.34z"/>
			</g>
			<g>
				<path class="st3" d="M598.25,633.81c0,8.85-7.17,15.93-16.02,15.93s-15.93-7.08-15.93-15.93c0-0.09,0-0.09,0-0.19
					c0.09-8.75,7.17-15.83,15.93-15.83c2.14,0,4.19,0.47,6.05,1.21C594.15,621.33,598.25,627.11,598.25,633.81z"/>
				
					<linearGradient id="SVGID_00000069393549823406511340000007126145516950231733_" gradientUnits="userSpaceOnUse" x1="566.3072" y1="634.3705" x2="598.2524" y2="634.3705">
					<stop  offset="0" style="stop-color:#FFFFFF"/>
					<stop  offset="0.2563" style="stop-color:#C2C2C2"/>
					<stop  offset="0.8455" style="stop-color:#292929"/>
					<stop  offset="1" style="stop-color:#000000"/>
				</linearGradient>
				<path style="opacity:0.5;fill:url(#SVGID_00000069393549823406511340000007126145516950231733_);" d="M598.25,633.81
					c0,8.85-7.17,15.93-16.02,15.93s-15.93-7.08-15.93-15.93c0-0.09,0-0.09,0-0.19c0.37,0,0.84,0,1.3,0.09
					c2.51,0.19,5.03,0.93,7.36,1.86c1.96,0.75,3.91,1.68,5.96,1.58c1.68-0.09,3.17-0.93,4.56-1.77c0.84-0.47,1.58-0.93,2.24-1.58
					c1.3-1.49,1.58-3.54,1.58-5.59c0.09-2.24-0.09-4.56-0.47-6.8c-0.09-0.84-0.28-1.68-0.56-2.42
					C594.15,621.33,598.25,627.11,598.25,633.81z"/>
			</g>
			<g>
				<path class="st3" d="M410.9,731.74c0,8.85-7.17,15.93-16.02,15.93c-8.85,0-15.93-7.08-15.93-15.93c0-0.09,0-0.09,0-0.19
					c0.09-8.75,7.17-15.83,15.93-15.83c2.14,0,4.19,0.47,6.05,1.21C406.8,719.26,410.9,725.04,410.9,731.74z"/>
				
					<linearGradient id="SVGID_00000077315174984535625340000016489927582539734671_" gradientUnits="userSpaceOnUse" x1="378.9565" y1="732.3002" x2="410.9017" y2="732.3002">
					<stop  offset="0" style="stop-color:#FFFFFF"/>
					<stop  offset="0.2563" style="stop-color:#C2C2C2"/>
					<stop  offset="0.8455" style="stop-color:#292929"/>
					<stop  offset="1" style="stop-color:#000000"/>
				</linearGradient>
				<path style="opacity:0.5;fill:url(#SVGID_00000077315174984535625340000016489927582539734671_);" d="M410.9,731.74
					c0,8.85-7.17,15.93-16.02,15.93c-8.85,0-15.93-7.08-15.93-15.93c0-0.09,0-0.09,0-0.19c0.37,0,0.84,0,1.3,0.09
					c2.51,0.19,5.03,0.93,7.36,1.86c1.96,0.75,3.91,1.68,5.96,1.58c1.68-0.09,3.17-0.93,4.56-1.77c0.84-0.47,1.58-0.93,2.24-1.58
					c1.3-1.49,1.58-3.54,1.58-5.59c0.09-2.24-0.09-4.56-0.47-6.8c-0.09-0.84-0.28-1.68-0.56-2.42
					C406.8,719.26,410.9,725.04,410.9,731.74z"/>
			</g>
		</g>
		<g>
			<g>
				<polygon class="st6" points="728.83,657.71 728.83,727.62 681.82,709.34 660.92,701.2 660.92,631.21 689.01,642.15 				"/>
				<polygon class="st12" points="796.67,631.21 728.83,657.71 689.01,642.15 660.92,631.21 728.83,604.72 759.64,616.69 				"/>
				<polygon class="st13" points="796.67,631.21 796.67,701.2 728.83,727.62 728.83,657.71 				"/>
			</g>
			
				<linearGradient id="SVGID_00000174566656358470944420000007999051377497554090_" gradientUnits="userSpaceOnUse" x1="670.4465" y1="672.1537" x2="796.6661" y2="672.1537">
				<stop  offset="0" style="stop-color:#FFFFFF"/>
				<stop  offset="0.2563" style="stop-color:#C2C2C2"/>
				<stop  offset="0.8455" style="stop-color:#292929"/>
				<stop  offset="1" style="stop-color:#000000"/>
			</linearGradient>
			<path style="opacity:0.5;fill:url(#SVGID_00000174566656358470944420000007999051377497554090_);" d="M796.67,631.21v69.99
				l-67.84,26.42l-47.01-18.28c-3.91-6.15-7.82-12.45-9.82-19.47c-3.75-13.01-0.56-27.53,7.58-38.31c2.63-3.51,5.83-6.7,9.42-9.42
				c7.1-5.43,15.72-9.02,24.58-10.45c9.58-1.52,19.47-0.72,28.65-3.51c6.78-2.08,12.77-6.15,17.4-11.49L796.67,631.21z"/>
		</g>
		<g>
			<g>
				<polygon class="st6" points="698.73,503.13 698.73,551.37 674.79,542.06 651.79,533.12 651.79,484.88 688.95,499.31 				"/>
				<polygon class="st12" points="745.67,484.78 718.66,495.4 698.73,503.13 688.95,499.31 651.79,484.78 670.04,477.7 
					670.14,477.7 698.73,466.53 712.05,471.74 				"/>
				<polygon class="st13" points="745.67,484.88 745.67,533.12 730.39,539.08 698.73,551.37 698.73,503.13 718.66,495.4 
					718.75,495.4 723.6,493.44 				"/>
			</g>
			
				<linearGradient id="SVGID_00000061435935935616040870000005226462715764479396_" gradientUnits="userSpaceOnUse" x1="670.1358" y1="508.9504" x2="731.8855" y2="508.9504">
				<stop  offset="0" style="stop-color:#FFFFFF"/>
				<stop  offset="0.2563" style="stop-color:#C2C2C2"/>
				<stop  offset="0.8455" style="stop-color:#292929"/>
				<stop  offset="1" style="stop-color:#000000"/>
			</linearGradient>
			<path style="opacity:0.5;fill:url(#SVGID_00000061435935935616040870000005226462715764479396_);" d="M731.88,524.64
				c0,4.66,0.09,9.41-1.3,13.88c-0.09,0.19-0.09,0.37-0.19,0.56l-31.67,12.29l-23.94-9.31c-0.19-1.3-0.28-2.61-0.28-3.91
				c0-2.89,0.37-5.96,1.68-8.66c1.86-4.19,5.68-7.17,8.1-11.08c2.98-4.75,3.73-10.52,4.38-16.02c0.09-1.02,0.28-2.05,0.28-3.07
				s-0.09-1.96-0.37-2.98c-0.56-1.77-1.58-3.26-2.61-4.75c-3.45-4.84-7.08-9.87-12.39-12.57c-1.12-0.56-2.24-1.02-3.45-1.3
				l28.59-11.18l13.32,5.22c-2.79,2.33-5.49,5.12-6.43,8.29c-1.02,3.35,0.28,7.08,2.61,9.78c2.33,2.61,5.68,4.19,9.03,5.12
				c0.47,0.19,0.93,0.28,1.4,0.47h0.09c1.49,0.37,3.07,0.84,4.38,1.58c2.61,1.49,4.38,4.1,5.59,6.89
				C731.61,510.3,731.7,517.57,731.88,524.64z"/>
		</g>
		<g>
			<g>
				<polygon class="st6" points="459.7,465.52 459.7,519.26 415.04,501.87 407.33,498.91 407.33,445.16 437.57,457.02 				"/>
				<polygon class="st12" points="511.86,445.16 482.42,456.62 475.7,459.19 459.7,465.52 437.57,457.02 407.33,445.16 
					438.75,432.91 459.7,424.81 487.96,435.88 488.94,436.27 				"/>
				<polygon class="st13" points="511.86,445.16 511.86,498.91 495.86,505.23 459.7,519.26 459.7,465.52 475.7,459.19 
					482.42,456.62 				"/>
			</g>
			
				<linearGradient id="SVGID_00000080888535177170482490000011411866120376753808_" gradientUnits="userSpaceOnUse" x1="414.9525" y1="472.0362" x2="511.8639" y2="472.0362">
				<stop  offset="0" style="stop-color:#FFFFFF"/>
				<stop  offset="0.2563" style="stop-color:#C2C2C2"/>
				<stop  offset="0.8455" style="stop-color:#292929"/>
				<stop  offset="1" style="stop-color:#000000"/>
			</linearGradient>
			<path style="opacity:0.5;fill:url(#SVGID_00000080888535177170482490000011411866120376753808_);" d="M511.86,485.67v13.24
				l-16.01,6.32l-36.16,14.03l-44.66-17.39c-0.79-13.04,3.75-26.48,13.04-35.57c2.96-2.77,6.32-5.34,8.89-8.5
				c0.2-0.2,0.4-0.59,0.59-0.79c6.92-8.89,5.14-16.6,1.19-24.11l20.95-8.1l28.26,11.07l0.99,0.39c-0.99,0.59-1.78,1.19-2.57,1.98
				c-4.74,4.74-5.73,11.66-3.95,18.38c1.19,4.74,3.75,9.48,7.11,13.04C495.86,476.19,504.16,480.53,511.86,485.67z"/>
		</g>
	</g>
	<path class="st23" d="M761.6,615.65c-3.56-1.19-14.62,2.57-19.56,3.95c-3.56-0.99-6.52-2.57-8.89-4.55c0-0.2-0.2-0.2-0.4-0.39
		l1.19-1.19c-6.72-7.51-12.84-14.82-18.77-22.33c-18.77-23.32-34.58-45.45-48.02-62.24c-8.3-10.28-15.81-18.97-22.92-24.3
		c-7.71-6.72-22.92-13.44-40.71-19.76l2.57-0.2h-2.77c-0.4,0-0.59-0.2-1.19-0.4c0-5.73,0.39-11.07,0.99-16.2
		c0.2-1.38,0.39-2.77,0.59-3.95c0.79-4.15,1.58-8.1,2.57-12.05c0.2-1.19,0.4-2.37,0.79-3.36c1.58-6.32,3.36-12.65,5.14-18.97
		c0.79-2.57,1.58-5.14,2.17-7.71c0.2-0.99,0.59-1.98,0.79-3.16c0.79,0.99,1.58,1.78,2.37,2.77c1.38,1.38,2.57,2.96,3.95,4.35
		c1.58,1.78,3.16,3.36,4.94,4.74c0.79,0.79,1.58,1.78,2.57,2.37c1.98,1.78,4.15,3.16,6.32,4.54c0.59,0.2,0.99,0.59,1.58,0.99
		c2.57,1.19,5.14,2.17,7.71,2.96c0.2,0,0.4,0.2,0.79,0.2c0.2,0,0.79-0.4,1.19-0.4c0.59-0.4,1.38-0.59,2.57-1.19
		c0.59-0.4,1.58-0.79,2.57-1.38c0.99-0.59,1.98-1.19,3.36-1.98c0.79-0.59,1.78-1.19,2.77-1.78c1.78-1.19,3.56-2.37,5.53-3.56
		c0.59-0.59,1.38-0.99,1.98-1.38c10.67-7.31,24.11-17.19,37.35-26.87c5.93-4.15,11.46-8.5,16.8-12.45l6.13-2.96l0.39,2.17
		c0.4,0.99,1.38,1.78,2.57,1.38c0.99-0.2,1.78-1.19,1.38-2.37l-0.99-4.15c0.59-0.99,0.99-1.78,1.38-2.96
		c-0.2-4.94-1.38-8.69-4.55-10.08l-16.99-71.93v-0.4c-6.13-2.57-12.05-5.53-17.59-8.3l-21.93,19.17l-18.38,16.01
		c-2.37,2.17-0.4,5.93,2.77,5.34c18.77-4.35,43.47-5.73,58.88,0.99l9.29,39.12c-3.56,2.37-5.73,5.93-6.92,10.08
		c-22.53,12.65-58.09,33.2-69.75,32.41c-7.71-5.53-13.24-19.96-26.08-31.62c0.2-0.2,0.4-0.4,0.79-0.59
		c3.56-1.78,6.92-3.75,9.49-6.32h0.2c0.4-0.99,0.59-2.37,0.79-4.35c0-0.79,0.2-1.98,0.2-3.16s0-2.17,0.2-3.56
		c0-1.58,0-3.36-0.2-4.94v-4.15c0-1.98,0-3.95-0.2-6.13c0-1.58-0.2-3.16-0.2-4.94c0-2.17-0.2-4.54-0.4-7.11c0-1.19,0-2.57-0.2-3.95
		c-0.79-15.41-1.98-32.41-2.96-47.82l2.77-10.47c6.52-2.57,13.44-6.13,18.38-10.47c-3.36-2.37-6.72-4.74-9.88-7.11
		c-2.17,1.38-4.74,2.96-8.1,4.54c0-0.2,0.2-0.2,0.2-0.59c-6.92-1.38-13.04-0.2-17.59,5.53l0.4,1.58c-9.88,2.96-16.8,3.56-19.76,2.96
		l1.78-37.35c3.56-0.4,7.11-0.99,10.87-2.17c-21.54-17.98-41.89-35.17-67.58-49.4c0,5.34,0.99,10.47,2.77,15.81
		c1.19,3.36,2.57,6.52,4.35,9.29c8.1,14.62,22.53,24.11,38.33,26.28L581.59,274l0.4,2.17c1.98,5.53,7.9,8.1,17.78,7.11
		c4.54-0.4,9.88-1.58,15.61-3.36l1.19,4.94c-0.79,12.65-1.58,29.05-2.96,43.67c-5.14-4.35-9.09-9.88-15.61-5.73
		c-6.92,4.35-13.63-1.58-19.76,11.66c-5.93,13.44-0.2,22.72,4.54,25.49c2.57,1.38,5.34,2.17,7.9,2.37h0.2l-0.2,0.59
		c-5.93,0.2-12.45,0.59-19.36,1.98c-2.17,0-3.95,0.4-5.14,0.99c-17.39,17.98-36.75,77.06-44.66,119.94c0.4,0.2,0.59,0.2,0.99,0.2
		c-6.32,33,1.19,40.51,8.1,86.94c-0.59,34.19-18.57,70.94-34.98,117.57l1.78,0.59c-0.99,2.77-2.96,5.53-5.14,7.9
		c-2.37,0.59-4.55,3.16-6.72,5.93c-0.4,1.98,11.26,9.48,20.55,13.83c1.19,0.4,2.17,0.79,3.16,1.19c0.39,0.2,0.59,0.4,0.99,0.4
		c1.19,0.59,2.17,0.79,3.16,0.99c0.4,0.2,0.59,0.2,0.79,0.2c1.19,0.2,1.98,0.2,2.57,0c0.2-0.2,0.39-0.59,0.39-0.99
		c0-0.59-0.2-1.19-0.59-1.98c0,0,0-0.2-0.2-0.2c-0.59-1.38-1.58-2.96-2.96-4.55c0-0.2,0-0.2,0-0.2c-2.57-3.56-5.93-7.11-7.9-9.29
		v-1.58c-0.2-1.58-0.2-2.96-0.2-4.35c0.2-1.38,0.4-2.57,0.79-3.95c0.2-0.2,0.2-0.4,0.2-0.79l1.19,0.39l0.4,0.2
		c19.96-43.47,43.47-79.43,55.92-105.91c3.36-7.51,6.13-14.23,7.51-19.96c0.79-2.37,1.38-5.14,1.78-8.3c0-0.79,0-1.58,0.2-2.37
		c0.2-2.57,0.4-5.14,0.59-7.9v-2.37c0-5.73,0-11.86-0.39-18.57c14.23,6.92,28.85,6.72,58.69,14.82
		c30.83,14.42,57.3,45.84,93.27,79.44l1.38-1.38c2.17,1.98,3.75,4.94,5.14,8.1c-0.39,2.17,1.19,5.34,2.77,8.5
		c1.78,0.99,13.24-6.52,20.95-13.44c0-0.2,0.2-0.2,0.4-0.39c0.99-0.99,2.17-1.98,2.96-2.96c0.39-0.2,0.59-0.59,0.79-0.79
		c0.59-0.79,1.38-1.58,1.78-2.17c0.2-0.59,0.4-0.79,0.4-1.19c0.2-0.39,0.59-0.79,0.59-1.19C762.39,616.05,762,615.65,761.6,615.65z
		 M611.62,342.37c0,0,0-0.2,0.2-0.2c0,0.2-0.2,0.4-0.2,0.59C611.62,342.57,611.62,342.57,611.62,342.37z"/>
	<path class="st23" d="M612.9,483.55c-4.37,0.55-6.83,1-6.83,1l6.56-0.67C612.63,483.88,612.72,483.77,612.9,483.55z"/>
	<g>
		<g>
			<path class="st4" d="M491.16,300.59v38.06c0,6.08-5,10.99-11.09,10.99H321.65c-3.73,0-6.97-1.77-8.93-4.51
				c-1.37-1.77-2.16-4.02-2.16-6.47v-38.06c0-6.18,4.9-11.09,11.09-11.09h158.43C486.16,289.51,491.16,294.41,491.16,300.59z"/>
			<path class="st6" d="M369.75,340.88h-49.11c-0.6,0-1.08-0.48-1.08-1.08v-40.43c0-0.6,0.48-1.08,1.08-1.08l49.11,0
				c0.6,0,1.08,0.48,1.08,1.08v40.43C370.83,340.4,370.35,340.88,369.75,340.88z"/>
			<path class="st3" d="M421.45,307.88h-33.41c-0.13,0-0.24-0.11-0.24-0.24v-9.09c0-0.13,0.11-0.24,0.24-0.24l33.41,0
				c0.13,0,0.24,0.11,0.24,0.24v9.09C421.69,307.77,421.58,307.88,421.45,307.88z"/>
			<path class="st3" d="M474.97,340.88h-86.67c-0.28,0-0.52-0.23-0.52-0.52v-25.05c0-0.28,0.23-0.52,0.52-0.52h86.67
				c0.28,0,0.51,0.23,0.51,0.52v25.05C475.49,340.65,475.26,340.88,474.97,340.88z"/>
		</g>
		
			<linearGradient id="SVGID_00000129189280868603601380000013835988137167133361_" gradientUnits="userSpaceOnUse" x1="312.5519" y1="319.5726" x2="491.1616" y2="319.5726">
			<stop  offset="0" style="stop-color:#FFFFFF"/>
			<stop  offset="0.126" style="stop-color:#CFCFCF"/>
			<stop  offset="0.3053" style="stop-color:#919191"/>
			<stop  offset="0.4774" style="stop-color:#5D5D5D"/>
			<stop  offset="0.6373" style="stop-color:#353535"/>
			<stop  offset="0.7826" style="stop-color:#181818"/>
			<stop  offset="0.9082" style="stop-color:#060606"/>
			<stop  offset="1" style="stop-color:#000000"/>
		</linearGradient>
		<path style="opacity:0.5;fill:url(#SVGID_00000129189280868603601380000013835988137167133361_);" d="M491.16,300.59v38.06
			c0,6.08-5,10.99-11.09,10.99H321.65c-3.73,0-6.97-1.77-8.93-4.51c-0.29-2.06-0.2-4.12,0.2-6.18c0.88-4.81,3.24-9.22,6.67-12.56
			c1.47-1.57,3.14-2.84,4.9-3.92c3.83-2.16,8.24-3.34,12.65-4.12c11.09-1.96,22.56-1.86,33.65,0.2c1.08,0.2,2.26,0.39,3.33,0.69
			c4.61,0.98,9.12,2.35,13.64,3.83c6.77,2.16,13.54,4.41,20.6,5.79c12.46,2.45,25.6,1.96,37.87-1.47
			c6.96-1.96,14.03-5.1,18.15-10.99c0.39-0.49,0.69-0.98,0.88-1.57c2.35-3.92,3.24-8.44,3.14-13.05c0-3.73-1.77-8.34-2.26-12.26
			h13.93C486.16,289.51,491.16,294.41,491.16,300.59z"/>
	</g>
	<g>
		<g>
			<polygon class="st25" points="596.44,288.79 600.64,272.86 582.11,270.16 586.36,287.88 			"/>
			<g>
				<g>
					<path class="st25" d="M476.48,695.22c-1.45,3.55-1.8,7.61-1.17,12.11c-5.31,0.19-9.72-1.62-13.35-5.18
						c2.64-3.03,5.6-6.22,5.99-9.75L476.48,695.22z"/>
					<path class="st13" d="M461.96,702.15c-2.32,0.55-4.53,3.19-6.73,5.9c-0.52,3.06,26.67,18.76,31.34,16.6
						c2.25-2.23-7.47-12.88-11.26-17.31C470.18,706.25,465.55,704.7,461.96,702.15z"/>
				</g>
				<path class="st3" d="M477.64,697.26c25.37-55.41,56.95-99.09,63.43-125.82c6.03-19.66,0.27-65.92-4.87-102.33l-42.12,11.24
					c-9.67,40.99-1.18,45.3,6.34,95.67c-0.76,34.16-18.73,70.98-35.09,117.56L477.64,697.26z"/>
			</g>
			<g>
				<g>
					<path class="st25" d="M701.27,616.76c2.67,2.76,6.24,4.71,10.61,5.95c-1.96,4.94-5.4,8.25-10.13,10.12
						c-1.71-3.64-3.43-7.63-6.5-9.41L701.27,616.76z"/>
					<path class="st13" d="M701.75,632.83c-0.44,2.35,1.09,5.43,2.68,8.53c2.59,1.71,27.92-16.84,27.82-21.98
						c-1.13-2.96-14.79,1.64-20.38,3.33C708.83,626.97,705.54,630.58,701.75,632.83z"/>
				</g>
				<path class="st3" d="M703.61,616.51c-40.48-45.56-67.72-92.07-89.57-108.78c-15.56-13.45-60.21-26.83-95.61-36.8l-5.3,34.07
					c31.59,37.8,39.58,28.35,88.7,41.78c30.95,14.47,57.4,45.76,93.43,79.51L703.61,616.51z"/>
			</g>
			<path class="st4" d="M491.16,488.94c29.79,6.04,51.88,0.4,80.75-0.94c-0.96-38.01,18.63-62.17,16.86-102.44
				c-4.78-7.81-42.97-21.41-52.88-16.71C518.6,386.9,499.26,446.08,491.16,488.94z"/>
			<path class="st4" d="M588.78,385.56c13.01,11.67,18.55,26.24,26.2,31.72c11.63,0.78,47.15-19.77,69.63-32.37l4.67,8.98
				c-29.06,21.01-66.24,49.58-74.21,50.92c-11.75-2.68-22.22-12.62-32.18-25.41L588.78,385.56z"/>
			<path class="st4" d="M535.9,368.84c16.84-4.67,31.43-1.36,40.18-4.86c6.93-9.37,8.77-50.37,10.28-76.1l10.08,0.91
				c2.02,35.8,6.04,82.52,2.87,89.95c-8.6,8.45-22.61,11.91-38.75,13.4L535.9,368.84z"/>
			<path class="st25" d="M558.31,370.94l6.08-15.09l10.3-3.29l-3.87,22.67C566.24,376.3,562.13,374.51,558.31,370.94z"/>
			<path class="st25" d="M555.99,335.21l-0.66,27.62c7.57,4.37,23.46,10.02,24.93,5.35c3.53-14.8,2.47-27.31-4.98-36.63
				L555.99,335.21z"/>
			<path class="st26" d="M572.81,347c9.3,3.14,17.28-10.36,11.55-14.6c-5.74-4.25-9.68-11.04-16.62-6.61
				c-6.94,4.43-13.56-1.58-19.67,11.76c-6.11,13.35-0.33,22.77,4.38,25.45c6.42,3.65,15.16,3.4,14.02-0.26
				c-1.14-3.65-6.74-12.45-5.24-15.09c1.51-2.63,5.89,1.05,7.45,4.25C570.23,355.1,572.81,347,572.81,347z"/>
			<g>
				<path class="st6" d="M684.57,336.79c-0.74-0.37-1.49-0.75-2.33-1.12c-15.27-6.71-39.95-5.22-58.86-0.93
					c-3.07,0.65-5.03-3.17-2.7-5.31l18.35-16.02l31.48-27.47l1.68-1.49l4.94,20.96L684.57,336.79z"/>
				<g>
					<path class="st12" d="M699.75,392.02c0.28,1.12-0.37,2.14-1.49,2.42c-1.02,0.28-2.14-0.37-2.42-1.49l-13.6-57.28l-6.71-28.31
						l-5.03-21.42l-0.28-1.02c-0.19-1.12,0.47-2.14,1.49-2.42c1.12-0.28,2.14,0.37,2.42,1.49l4.47,19L699.75,392.02z"/>
				</g>
				
					<linearGradient id="SVGID_00000167371378279497336570000007140458881890563726_" gradientUnits="userSpaceOnUse" x1="648.2568" y1="313.8445" x2="654.7429" y2="341.0366">
					<stop  offset="0" style="stop-color:#FFFFFF"/>
					<stop  offset="0.2563" style="stop-color:#C2C2C2"/>
					<stop  offset="0.8455" style="stop-color:#292929"/>
					<stop  offset="1" style="stop-color:#000000"/>
				</linearGradient>
				<path style="opacity:0.5;fill:url(#SVGID_00000167371378279497336570000007140458881890563726_);" d="M699.75,392.02
					c0.28,1.12-0.37,2.14-1.49,2.42c-1.02,0.28-2.14-0.37-2.42-1.49l-13.6-57.28c-15.27-6.71-39.95-5.22-58.86-0.93
					c-3.07,0.65-5.03-3.17-2.7-5.31l18.35-16.02c6.52,0.84,12.95,1.86,19.56,1.4c6.33-0.56,12.76-2.89,16.95-7.45
					c0.65-0.56,1.21-1.21,1.58-1.96c0.37-0.37,0.56-0.75,0.84-1.12c0.28-0.47,0.47-0.84,0.65-1.3L699.75,392.02z"/>
			</g>
			<path class="st25" d="M684.61,384.9c1.24-4.19,3.37-7.7,6.96-10.11c1.58,0.72,2.87,0.48,4.1,0.02c3.09,1.46,4.24,5.23,4.45,10.13
				c-0.92,3.23-2.38,5.42-4.75,5.91l-6.09,3.03L684.61,384.9z"/>
			<g>
				<g>
					<path class="st12" d="M592.53,280.79c-8.44,3.01-16.65,4.99-23.12,5.58c-9.82,0.89-15.78-1.53-17.73-7.17l-0.32-2.25l2.4-51.2
						l35.31-12.62l34.37,40.42C627.76,266.09,605.93,276.01,592.53,280.79z M562.79,274.71c3.46,0.58,12.64-0.22,25.94-4.98
						c13.29-4.75,20.96-9.96,23.3-12.62l-26.25-30.39l-21.1,7.54L562.79,274.71z"/>
				</g>
				<path class="st6" d="M607.91,166.98c9.6,27.9-4.39,58.2-31.15,67.82c-23.83,8.46-49.54-2.08-61.86-23.88
					c-1.66-2.9-3.06-6-4.2-9.3c-9.6-27.9,4.39-58.2,31.3-67.85c19.35-7,40.36-0.97,53.94,13.4
					C601.14,152.61,605.26,159.28,607.91,166.98z"/>
				<path class="st4" d="M545.34,143.63c-21.59,7.72-32.79,32.26-25.07,54.7s31.46,34.37,53.05,26.65
					c21.59-7.72,32.83-32.14,25.11-54.58S566.93,135.91,545.34,143.63z M570.76,217.54c-17.6,6.29-37.04-3.47-43.33-21.77
					c-6.34-18.42,2.86-38.41,20.47-44.7c17.6-6.29,37.04,3.47,43.37,21.89C597.56,191.25,588.36,211.25,570.76,217.54z"/>
				<polygon class="st4" points="551.95,162.83 561.7,176.01 576.71,170.65 567.72,184.16 577.46,197.34 562.16,192.51 
					553.17,206.02 552.7,189.52 537.4,184.69 552.42,179.33 				"/>
				
					<linearGradient id="SVGID_00000172413542413786035920000006549735908185931708_" gradientUnits="userSpaceOnUse" x1="539.5599" y1="135.4519" x2="565.3276" y2="202.4478" gradientTransform="matrix(1.0627 0.1048 -0.0387 0.9141 -15.1725 -13.2398)">
					<stop  offset="0" style="stop-color:#FFFFFF"/>
					<stop  offset="0.126" style="stop-color:#CFCFCF"/>
					<stop  offset="0.3053" style="stop-color:#919191"/>
					<stop  offset="0.4774" style="stop-color:#5D5D5D"/>
					<stop  offset="0.6373" style="stop-color:#353535"/>
					<stop  offset="0.7826" style="stop-color:#181818"/>
					<stop  offset="0.9082" style="stop-color:#060606"/>
					<stop  offset="1" style="stop-color:#000000"/>
				</linearGradient>
				<path style="opacity:0.5;fill:url(#SVGID_00000172413542413786035920000006549735908185931708_);" d="M607.91,166.98
					c9.6,27.9-4.39,58.2-31.15,67.82c-23.83,8.46-49.54-2.08-61.86-23.88c-1.31-9.13-0.67-18.35,3.46-26.63
					c5.11-10.24,16.3-18.28,29.66-18.54c6.6-0.11,13.15,1.54,19.76,1.43c11.09-0.11,21.43-5.79,26.02-14.16
					c1.04-1.82,1.67-3.84,2.14-5.84C601.14,152.61,605.26,159.28,607.91,166.98z"/>
			</g>
			<path class="st25" d="M582.11,270.16c4.56-5.71,10.68-6.9,17.7-5.47c-1.17,3.85-4.37,6.24-9.03,7.56
				C587.2,273.34,584.71,271.62,582.11,270.16z"/>
		</g>
		<g>
			<path class="st23" d="M476.07,696.81c-1.09,3.13-1.33,6.67-0.73,10.53c3.77,4.44,13.51,15.1,11.23,17.34
				c-1.93,0.8-7.45-1.14-13.29-4.16c3.18-0.33,3.75-2.6,0.46-9.19c-0.75-1.43-1.29-2.78-1.63-4.15c-0.13-0.29-0.25-0.48-0.27-0.68
				c-1.18-3.7-1.46-7.39-0.85-11.27c0.04-0.61,0.09-1.11,0.22-1.73c1-4.93,3.38-10.19,7.19-16.11
				c8.67-13.45,68.09-114.09,46.83-158.49c0,0,13.27,8.61,17.93,12.96l0.11,0.09c0.87,16.29,0.53,30.6-2.18,39.52
				c-6.51,26.7-38.1,70.44-63.47,125.8L476.07,696.81z"/>
			<path class="st23" d="M582.64,486.59c-0.18,0.22-0.27,0.33-0.27,0.33l-6.56,0.67C575.8,487.59,578.27,487.14,582.64,486.59z"/>
			<path class="st23" d="M732.23,619.38c0.04,2.31-5.07,7.35-10.93,11.98c1.52-5.78-3.18-1.58-11.46-4.95
				c-0.21-0.08-0.42-0.16-0.63-0.24c-2.74-1.23-5.92-2.81-9.47-5.16c-0.53-0.25-0.97-0.6-1.49-0.85
				c-9.29-6.28-21.17-17.32-34.68-38.25c-19.5-30.36-27.66-47.21-41.85-56.31c-14.09-9.01-58.28-37.14-70.42-35.99l3.29-0.24
				l11.56-0.98l1.19-0.12l4.59-0.37l1.19-0.12l2.7-0.18l-2.59,0.27c17.73,6.32,33,13.1,40.83,19.83
				c21.82,16.76,49.1,63.3,89.55,108.8l-1.07,1.32c2.44,2.26,5.62,3.85,9.34,4.87C717.42,621,731.12,616.38,732.23,619.38z"/>
			<path class="st23" d="M582.37,486.92l-6.56,0.67c0,0,2.47-0.45,6.83-1C582.46,486.81,582.37,486.92,582.37,486.92z"/>
			<path class="st23" d="M672.38,406.23c-25.04,18.45-50.83,37.47-57.35,38.54c-10.9-2.4-20.75-11.24-30.08-22.84
				c-5.23,21.54-13.52,40.58-12.98,65.45c0.42,0.16,0.74,0.33,1.14,0.38l2.7-0.18l-21.38,2.19c0,0,0.09-0.11,0.16-0.42
				c0.1-0.01,0.09-0.11,0.09-0.11c0.5-0.96,1.66-3.39,3.15-6.55c5.29-11.1,15.05-32.6,17.73-45.64c3.3-16.82-0.81-29.46-1.39-31.21
				c0.9,0.91,4.5,4.66,9.5,9.38c0.77,0.62,1.55,1.35,2.32,2.07c7.54,6.86,17.51,14.89,25.47,18.09
				C621.84,439.66,652.68,419.91,672.38,406.23z"/>
			<path class="st23" d="M597.17,301.99c2.19,33.14,4.88,70.15,2.15,76.76c-2.93,2.81-6.41,5.08-10.45,6.9l-0.11-0.09
				c-2.67-2.54-8.15-6-9.45-6.87c-0.21-0.08-0.32-0.17-0.32-0.17C597.88,377.49,597.33,310.42,597.17,301.99z"/>
			<path class="st23" d="M565.9,367.58c0,0,4.27,3.24,2.63,7.94c0,0,2.12-0.18,3.16-0.29c1.04-0.11,0.14-5.92,0.14-5.92
				L565.9,367.58z"/>
		</g>
	</g>
</g>
</svg>
