<svg xmlns="http://www.w3.org/2000/svg" width="85.895" height="68.829" viewBox="0 0 85.895 68.829">
  <g id="Grupo_3069" data-name="Grupo 3069" transform="translate(612.323 -44.248)">
    <path id="Caminho_3889" data-name="Caminho 3889" d="M-553.613,106.726c-.068-.072-.245-.107-.544-.107q-18.69.016-37.379.016c-.462,0-.959-.005-1.457-.048a6.213,6.213,0,0,1-5.248-4.365,6.314,6.314,0,0,1,1.844-6.489,6.865,6.865,0,0,1,4.677-1.579q10.885.006,21.789,0A13.847,13.847,0,0,0-567.582,94a10.514,10.514,0,0,0,8.758-10.564,10.37,10.37,0,0,0-9.222-10.2c-3.648-.282-7.378-.233-10.987-.187-1.989.027-4.047.053-6.072.024a.336.336,0,0,0-.168.025.861.861,0,0,0-.024.277l.007.765c.01.9.019,1.839-.019,2.759a.67.67,0,0,0,.059.412c.05.053.194.079.427.079,3.7-.021,7.406-.017,11.108-.017h3.193a18.585,18.585,0,0,1,2.017.106,6.2,6.2,0,0,1,1.841.555,6.17,6.17,0,0,1,3.172,3.542,6.171,6.171,0,0,1-.262,4.747,6.2,6.2,0,0,1-6,3.541q-11.039.008-22.109,0a10.74,10.74,0,0,0-7.726,2.98,10.5,10.5,0,0,0-2.478,11.482,10.363,10.363,0,0,0,9.4,6.576c4.46.048,9,.038,13.392.026q2.846-.006,5.689-.008l14.338.006c.641,0,1.291,0,1.944,0,1.094,0,2.2,0,3.293.023.289.005.382-.037.417-.073.051-.052.071-.194.061-.422a30.278,30.278,0,0,1,0-3.217C-553.525,106.961-553.548,106.795-553.613,106.726Z" fill="#7673d4"/>
    <path id="Caminho_1460" data-name="Caminho 1460" d="M-584.428,57.668A13.1,13.1,0,0,0-595.7,46.331a13.276,13.276,0,0,0-13.332,7.258,29.325,29.325,0,0,0-1.291,4.046v3.2c.115.045.136.143.151.252a12.345,12.345,0,0,0,3.448,7.117c3,3.059,6.052,6.068,9.063,9.118.337.341.485.193.733-.056,2.93-2.942,5.894-5.851,8.8-8.821A12.708,12.708,0,0,0-584.428,57.668Zm-13,5.523a4.053,4.053,0,0,1-3.984-4.043,4.051,4.051,0,0,1,4.058-4.044h0a4.051,4.051,0,0,1,3.984,4.042,4.057,4.057,0,0,1-4.066,4.045Z" fill="none" stroke="#7673d4" stroke-width="4"/>
    <path id="Caminho_1461" data-name="Caminho 1461" d="M-529.61,87.728c-2.2-5.175-6.387-7.661-11.934-7.93a10.493,10.493,0,0,0-2.553.263c-4.946,1.166-8.362,4.115-9.842,8.994a12.332,12.332,0,0,0,3.019,12.694c2.937,3.115,6.037,6.078,9.052,9.121.271.274.407.279.679,0,3.069-3.1,6.263-6.088,9.2-9.307A12.221,12.221,0,0,0-529.61,87.728Zm-11.954,9.02a4.069,4.069,0,0,1-4.067-4.045,4.069,4.069,0,0,1,4.065-4.048,4.058,4.058,0,0,1,3.984,4.047,4.059,4.059,0,0,1-3.982,4.046Z" fill="none" stroke="#7673d4" stroke-width="4"/>
  </g>
</svg>
