<svg xmlns="http://www.w3.org/2000/svg" width="150" height="150" viewBox="0 0 150 150">
  <g id="Grupo_1439" data-name="Grupo 1439" transform="translate(-140 -5562.273)">
    <g id="Grupo_75" data-name="Grupo 75" transform="translate(-932 4306.273)">
      <circle id="Elipse_3" data-name="Elipse 3" cx="75" cy="75" r="75" transform="translate(1072 1256)" fill="#fff"/>
    </g>
    <g id="Grupo_1265" data-name="Grupo 1265" transform="translate(-486.346 5808.334)">
      <path id="Caminho_1459" data-name="Caminho 1459" d="M725.39-32.033c-6.857,0-13.714.055-20.57-.019a11.455,11.455,0,0,1-10.37-7.255,11.625,11.625,0,0,1,2.734-12.667,11.791,11.791,0,0,1,8.51-3.285q11.92.006,23.84,0a6.438,6.438,0,0,0,6.211-3.664,6.425,6.425,0,0,0-4.906-9.145,18.869,18.869,0,0,0-2.145-.113c-5.135,0-10.271-.012-15.406.018-.657,0-.82-.174-.793-.81.053-1.26.021-2.524.012-3.786,0-.346,0-.6.481-.594,6.137.087,12.288-.3,18.409.176,5.661.438,10.061,5.5,10.178,11.257a11.655,11.655,0,0,1-9.668,11.654,16.085,16.085,0,0,1-2.57.166q-11.748.007-23.5,0A7.1,7.1,0,0,0,701-48.461a6.507,6.507,0,0,0-1.908,6.713,6.424,6.424,0,0,0,5.421,4.513c.513.044,1.031.052,1.547.052q20.139,0,40.279-.017c.773,0,.978.192.932.946a32.731,32.731,0,0,0,0,3.441c.029.628-.123.827-.789.816-2.581-.043-5.164-.018-7.746-.018H725.39Z" transform="translate(-28.461 -104.034)" fill="#7673d4"/>
      <path id="Caminho_1460" data-name="Caminho 1460" d="M685.25-193.723A14.121,14.121,0,0,0,673.1-205.94a14.307,14.307,0,0,0-14.367,7.821,31.586,31.586,0,0,0-1.392,4.359v3.443c.124.049.146.154.163.271a13.3,13.3,0,0,0,3.716,7.669c3.233,3.3,6.522,6.539,9.766,9.825.363.368.523.208.79-.061,3.158-3.17,6.351-6.305,9.479-9.5A13.7,13.7,0,0,0,685.25-193.723Zm-14.013,5.952a4.367,4.367,0,0,1-4.294-4.356,4.365,4.365,0,0,1,4.377-4.358,4.368,4.368,0,0,1,4.293,4.356A4.372,4.372,0,0,1,671.237-187.771Z" fill="#7673d4"/>
      <path id="Caminho_1461" data-name="Caminho 1461" d="M962.774-29.766c-2.373-5.576-6.883-8.256-12.86-8.546a11.325,11.325,0,0,0-2.751.283c-5.33,1.257-9.011,4.435-10.606,9.692a13.287,13.287,0,0,0,3.254,13.679c3.165,3.357,6.505,6.55,9.754,9.829.292.295.439.3.732,0,3.307-3.342,6.749-6.56,9.915-10.03A13.172,13.172,0,0,0,962.774-29.766Zm-12.882,9.72a4.384,4.384,0,0,1-4.382-4.359,4.385,4.385,0,0,1,4.38-4.362,4.373,4.373,0,0,1,4.293,4.361A4.374,4.374,0,0,1,949.892-20.046Z" transform="translate(-218.453 -131.563)" fill="#7673d4"/>
    </g>
  </g>
</svg>
