<?xml version="1.0" encoding="utf-8"?>
<!-- Generator: Adobe Illustrator 25.4.4, SVG Export Plug-In . SVG Version: 6.00 Build 0)  -->
<svg version="1.1" id="Camada_1" xmlns="http://www.w3.org/2000/svg" xmlns:xlink="http://www.w3.org/1999/xlink" x="0px" y="0px"
	 viewBox="0 0 100 100" style="enable-background:new 0 0 100 100;" xml:space="preserve">
<style type="text/css">
	.st0{clip-path:url(#SVGID_00000128445140452730955290000012416033795940494782_);}
	.st1{fill:#F5F5F5;stroke:#F5F5F5;stroke-width:0.25;}
	.st2{fill:#FFFFFF;}
</style>
<g>
	<path id="Caminho_5435_00000005952066843123709540000004975363592077694623_" class="st2" d="M78.5,34.5L78.5,34.5
		c3.3-0.9,5.8-3.6,6.5-6.9c0-0.1,0-0.1,0-0.2c0-0.3,0.1-0.5,0.2-0.7v-1.8c0,0-0.2-0.4-0.1-0.7c0,0,0-0.1,0-0.1
		c-0.8-4.4-4.6-7.5-9.1-7.6c-0.3,0-0.6,0-0.9,0s-0.6,0.1-0.9,0.1c-5,0.9-8.3,5.7-7.5,10.7c0.1,0.2,0.1,0.5-0.1,0.7
		c-0.1,0.3-0.3,0.4-0.6,0.5c-3.7,1.8-7.6,3.8-11.6,5.8c-0.2,0.1-0.4,0.2-0.7,0.2c0,0,0,0-0.1,0c-0.3,0-0.6-0.2-0.8-0.4
		c-1.6-1.7-3.7-2.7-6-2.4h-0.1c-0.4-0.5-1.2,0-1.2,0h0c0,0-1.8-0.1-2.7,0.2c-3.5,1.2-5.9,4.5-6,8.2c-0.3,5.1,3.6,9.5,8.8,9.8
		c0.6,0,1.2,0,1.8-0.1c0.7-0.2,1.5,0.1,1.9,0.9c1.8,2.8,3.6,5.5,5.1,7.7c0.2,0.2,0.3,0.5,0.3,0.8c0,0.3-0.1,0.6-0.4,0.8
		c0,0-0.1,0.1-0.1,0.1c-1.9,1.9-2.9,4.6-2.6,7.3c0.1,0.7-0.1,1.1-0.6,1.3c0,0,0,0,0,0c-0.1,0-0.2,0.1-0.4,0.1l-1.8,0.3
		c-1.6,0.3-3.3,0.5-4.9,0.8l-2.8,0.5c-2,0.3-3.9,0.7-5.8,1l-1,0.2c-0.3,0.1-0.7,0.1-1,0c-0.3-0.1-0.6-0.4-0.7-0.8
		c0-0.1,0-0.1-0.1-0.2c-0.9-2.3-2.7-4.1-5-5c-0.6-0.2-1.1-0.4-1.7-0.5c-0.1,0-0.3-0.1-0.4-0.1c-0.1,0-0.3,0-0.4-0.1
		c-0.2,0-0.5,0-0.7,0c-0.1,0-0.1,0-0.2,0c-0.3,0-0.5,0-0.8,0c0,0-0.1,0-0.1,0c-0.2,0-0.4,0.1-0.6,0.1c-0.1,0-0.2,0-0.3,0
		c0,0-0.1,0-0.1,0c-0.6,0.1-1.1,0.3-1.6,0.5c-4.7,2-7,7.4-5,12.2c1.9,4.7,7.3,7,12,5.1c2.7-1.1,4.7-3.4,5.5-6.2
		c0.1-0.5,0.6-0.9,1.1-1c6.1-1,12.3-2,18.4-3.1l0.1,0c0.6-0.2,1.2,0,1.7,0.5c3.5,3.8,9.4,4,13.2,0.5c3.8-3.5,4-9.4,0.5-13.2
		c-0.8-0.9-2.8-3.3-2.8-3.3h0c0,0-0.4,1.1-0.7,1c-1.4-0.5-3-0.7-4.5-0.5c-0.2,0-0.3,0-0.5,0.1c0,0,0,0.4,0,0.4h0c-0.1,0-0.2,0-0.3,0
		c-0.4,0-0.8-0.3-0.9-0.6c-2-3-3.8-5.7-5.4-8.2c-0.2-0.2-0.2-0.4-0.2-0.6c0-0.3,0.2-0.6,0.4-0.8c2.2-2.1,3.1-5.2,2.6-8.1
		c-0.1-0.5,0.2-1.1,0.7-1.2c3.8-1.9,7.7-3.9,11.6-5.8c0.5-0.3,1.1-0.2,1.5,0.3c2.4,2.5,6,3.5,9.3,2.4 M27.9,77.8L27.9,77.8
		c-0.8,0.8-1.7,1.3-2.8,1.5c-0.1,0-0.1,0-0.2,0c-0.1,0-0.2,0-0.3,0c-0.2,0-0.4,0-0.5,0H24c-0.2,0-0.4,0-0.5,0
		c-3.4-0.3-5.7-3.7-4.6-7.1c0.6-2,2.5-3.5,4.5-3.7c3.6-0.4,6.4,2.6,6,5.9C29.3,75.8,28.8,76.9,27.9,77.8 M57.2,63
		c1-1,2.3-1.5,3.7-1.6l0,0l0.4,0c3,0.1,5.3,2.7,5.1,5.6c-0.1,2.7-2.2,4.9-4.9,5.1c-0.2,0-0.4,0-0.5,0H61c-0.4,0-0.7,0-1.1-0.1
		c-2.9-0.6-4.8-3.4-4.2-6.4C56,64.7,56.5,63.8,57.2,63 M46.8,46.2c-0.2,0-0.4,0-0.5,0h-0.1c-0.1,0-0.2,0-0.2,0s-0.2,0-0.3,0
		c-4-0.4-6.5-5-3.6-8.9c0.9-1.2,2.3-1.8,3.7-1.8h0.6c2,0,3.8,1.1,4.6,2.8C52.8,42,50.4,45.8,46.8,46.2 M75.8,30.9
		c-0.2,0-0.4,0-0.5,0c-4-0.4-6.5-5-3.6-8.9c0.9-1.2,2.3-1.8,3.7-1.8H76c2,0,3.8,1.1,4.6,2.8c1.8,3.7-0.7,7.5-4.2,7.9
		C76.2,30.9,76.1,30.9,75.8,30.9L75.8,30.9z"/>
</g>
</svg>
