<?xml version="1.0" encoding="utf-8"?>
<!-- Generator: Adobe Illustrator 25.4.4, SVG Export Plug-In . SVG Version: 6.00 Build 0)  -->
<svg version="1.1" id="Camada_1" xmlns="http://www.w3.org/2000/svg" xmlns:xlink="http://www.w3.org/1999/xlink" x="0px" y="0px"
	 viewBox="0 0 100 100" style="enable-background:new 0 0 100 100;" xml:space="preserve">
<style type="text/css">
	.st0{clip-path:url(#SVGID_00000041269372263398874160000003772005437297229187_);}
	.st1{fill:#F5F5F5;stroke:#F5F5F5;stroke-width:0.25;}
	.st2{fill:#FFFFFF;}
</style>
<g>
	<g id="Grupo_4123_00000183233105193593830680000012287135362343010488_" transform="translate(-10774.038 11683.98)">
		<path id="Caminho_5424_00000170244198528086737350000007921660155662075069_" class="st2" d="M10870.1-11617.7v-2.2l-0.1,0.4
			c0-0.2-0.1-0.4-0.1-0.6l0-0.1c-2.4-10.1-12.5-16.4-22.6-14c-2.1,0.5-4,1.3-5.8,2.4l-0.1,0.1l-0.1-0.1c-9.9-8.9-25-8.7-34.7,0.5
			l-0.1,0.1c-0.1,0.1-0.3,0.2-0.4,0.1c0,0,0,0,0,0l-0.1-0.1c-8.4-4.7-19-2.3-24.6,5.5c-3.8,5.2-3.7,11.2-3.3,16.3
			c0.2,2.2,2.1,3.8,4.8,3.4h7.2c2.9,0.4,5.8,0.4,8.7,1h0c0.4,2.2,2.8,4.2,5.7,4.1c6.5,0,13,0,19.5,0c6.7,0,13.3,0,19.9,0
			c3.1,0.1,5.6-2.2,5.8-5.3c0,0,0,0,0,0c0-0.2-0.5-0.6-0.5-0.6v-0.3h0.6c3.2,0.2,6.5,0.2,9.7,1h5.9c1.3-0.7,2.7-1.2,3.7-2.1
			c0.6-0.6,1-1.4,1.4-2.1l-0.2-0.2V-11617.7L10870.1-11617.7z M10845-11607.9c0,0.2,0,0.4,0,0.6v0.8c0,1.2-0.3,1.4-1.4,1.4h-38.9
			c-0.4,0.1-0.9-0.1-1.2-0.3c-0.2-0.3-0.3-0.8-0.3-1.2c0-1,0-2,0-2.9c0-1.5,0-3.1,0.1-4.6c0.6-8.7,6.6-16.1,15-18.5
			c11.1-3.3,22.7,3,26,14.1l0.1,0.4c0.7,3,0.9,6,0.7,9.1C10845-11608.7,10845-11608.3,10845-11607.9 M10847.7-11622.6
			c-0.8-2.1-1.9-4-3.3-5.8c6.7-3.9,15.3-1.6,19.3,5.1c1.1,1.9,1.8,4.1,2,6.3c0.1,1.2,0.1,2.4-0.6,3.6v1.4h1v0.4
			c-0.3,0.1-0.3,0.2-0.3,0.3c-0.1,0-0.2,0.1-0.4,0c-2,0-3.9,0-5.9,0.3h-2.1h-2.1c-1.9-0.3-3.8-0.3-5.7-0.3
			C10849.8-11615.2,10849.2-11619.1,10847.7-11622.6 M10798.6-11610.4c0,0.1,0,0.2,0,0.4c-0.1,0-0.2,0-0.4,0h-15.2
			c-0.2,0-0.4,0-0.5,0c0-0.2,0-0.3,0-0.5c0-0.7,0-1.3,0-2c-0.1-1.9,0-3.8,0.4-5.6c2-7.6,9.9-12.2,17.5-10.2c1,0.3,1.9,0.6,2.8,1.1
			c-1.3,1.9-2.3,3.9-3.1,6.1C10798.9-11617.8,10798.4-11614.1,10798.6-11610.4"/>
		<path id="Caminho_5425_00000055665516554056909860000009412090462851394194_" class="st2" d="M10823.7-11639L10823.7-11639
			c6,0,11.6-3.8,13.4-9.6c3-9.6-4.1-18.4-13.3-18.4l0,0l0,0c-6,0-11.6,3.8-13.4,9.6C10807.4-11647.9,10814.5-11639.1,10823.7-11639
			 M10814.1-11652.5c0.1-5.3,4.4-9.5,9.7-9.5h0.1c5.3,0.1,9.5,4.4,9.5,9.6c-0.1,5.4-4.4,9.7-9.8,9.7
			C10818.3-11642.8,10814-11647.2,10814.1-11652.5"/>
		<path id="Caminho_5426_00000145744726247501925620000004358961919614142636_" class="st2" d="M10852.1-11635h-0.4
			c6.3-0.1,11.4-5.2,11.4-11.5c-0.1-6.3-5.2-11.4-11.6-11.5h-0.2c-4.6,0-8.8,2.7-10.4,7c-3.1,8.2,2.9,16,10.7,16 M10851.5-11639.2
			l0-0.8l0,0c-4.8-0.1-8.3-5.3-5.3-10.4c1-1.7,2.9-2.6,4.8-2.6h0.8c2.5,0,4.8,1.5,5.7,3.8c1.9,4.8-1.6,9.3-6.1,9.2h-0.1
			L10851.5-11639.2z"/>
		<path id="Caminho_5427_00000093895254796189308390000007145444321682327427_" class="st2" d="M10797.1-11634L10797.1-11634
			c4.5,0,8.6-2.7,10.3-7c3.2-8.3-2.8-16.1-10.6-16h-0.2c-4.6,0-8.8,2.7-10.4,7c-3.2,8.3,2.9,16,10.7,16 M10790.3-11645.6
			c0-3.6,2.9-6.4,6.5-6.4h0.1c3.5,0.1,6.4,2.9,6.4,6.5c0,3.6-3,6.5-6.6,6.5h0C10793.1-11639.1,10790.2-11642,10790.3-11645.6"/>
	</g>
</g>
</svg>
