<svg xmlns="http://www.w3.org/2000/svg" width="167" height="167" viewBox="0 0 167 167">
  <g id="Grupo_3835" data-name="Grupo 3835" transform="translate(-0.171 -0.186)">
    <circle id="Elipse_267" data-name="Elipse 267" cx="83.5" cy="83.5" r="83.5" transform="translate(0.171 0.186)" fill="#f4aaa7"/>
    <path id="Caminho_4374" data-name="Caminho 4374" d="M166.278,374.893l6.094,2.062a1.153,1.153,0,0,0,.278.03.844.844,0,0,0,.708-.3l1.972-1.437L188.764,392.9l-1.97,1.61c-.091-.089-.271-.264-.362-.264l-23.463-12.725.895-1.348a1.139,1.139,0,0,0-.271-1.61,1.684,1.684,0,0,0-.663-.151,1.1,1.1,0,0,0-.947.512l-2.423,3.936a.8.8,0,0,0-.264.542v9.678a3.746,3.746,0,0,1-3.671,3.672,3.692,3.692,0,0,1-3.678-3.672V383.5l2.061-8.6Zm-26.864-3.762,1.791.986-14.873,25.624-1.79-.986Zm3.762,22.4a2.279,2.279,0,0,1,1.972.986,2.4,2.4,0,0,1-.542,3.5l-7.883,5.818a2.749,2.749,0,0,1-1.467.428,2.415,2.415,0,0,1-2.023-1.054,2.552,2.552,0,0,1,.533-3.492l7.974-5.735a2.26,2.26,0,0,1,1.437-.451m4.476,5.644a2.281,2.281,0,0,1,1.79,1.077,2.356,2.356,0,0,1-.533,3.409l-6.094,4.659a2.49,2.49,0,0,1-1.376.421,2.575,2.575,0,0,1-1.49-4.635l5.913-4.207c.271-.182.444-.362.624-.453a4.465,4.465,0,0,1,1.166-.271m4.393,5.931a2.664,2.664,0,0,1,1.964.881,2.39,2.39,0,0,1-.535,3.5L149,412.793a3.375,3.375,0,0,1-1.407.414,1.368,1.368,0,0,1-.391-.053,1.708,1.708,0,0,1-1.519-.986,2.479,2.479,0,0,1,.533-3.5l4.213-2.95.18-.18a2.557,2.557,0,0,1,1.437-.437m-11.2-28.055L143,378.2a.677.677,0,0,0,.467.218.342.342,0,0,0,.157-.037l5.289-.715,1.881.806-1.077,4.478v9.858a5.91,5.91,0,1,0,11.819,0V383.5l.27-.362,23.472,12.817a2.683,2.683,0,0,1,.986,3.581,2.312,2.312,0,0,1-2.077,1.324,2.468,2.468,0,0,1-1.241-.339l-12.984-6.991a1.345,1.345,0,0,0-.64-.18,1.133,1.133,0,0,0-.979.631,1.174,1.174,0,0,0,.453,1.521l10.923,5.915a2.583,2.583,0,0,1,.986,3.4,2.451,2.451,0,0,1-2.159,1.294,2.776,2.776,0,0,1-1.242-.308l-11.021-6.089a1.435,1.435,0,0,0-.571-.127,1.239,1.239,0,0,0-1.039.571,1.183,1.183,0,0,0,.451,1.618l8.953,4.922a2.334,2.334,0,0,1,.986,3.319,2.386,2.386,0,0,1-2.152,1.355,2.59,2.59,0,0,1-1.159-.28l-9.4-5.2a.988.988,0,0,0-.549-.157,1.337,1.337,0,0,0-1.068.61,1.284,1.284,0,0,0,.451,1.61l7.343,3.852a2.6,2.6,0,0,1,.986,3.41,2.5,2.5,0,0,1-2.16,1.324,2.544,2.544,0,0,1-1.241-.339L161,413.417a4.626,4.626,0,0,0-1.075-2.95,4.674,4.674,0,0,0-3.4-1.881v-.362a5.3,5.3,0,0,0-.9-3.581,5.063,5.063,0,0,0-3.5-1.882V402.4a4.461,4.461,0,0,0-.9-3.582,5.056,5.056,0,0,0-3.491-1.881v-.362a4.464,4.464,0,0,0-.895-3.583,4.741,4.741,0,0,0-3.731-1.806,4.412,4.412,0,0,0-2.717.911l-7.883,5.735-2.776-1.528Zm15.542,33.661a2.75,2.75,0,0,1,2.016.918,3.1,3.1,0,0,1,.444,1.882,2.562,2.562,0,0,1-.986,1.708l-2.594,1.881a2.526,2.526,0,0,1-1.5.49,2.386,2.386,0,0,1-1.993-1.032,2.474,2.474,0,0,1,.624-3.491l2.414-1.791.091-.091a2.624,2.624,0,0,1,1.482-.474m-35.778-52.874a1.318,1.318,0,0,0-1.084.572,1.258,1.258,0,0,0,.453,1.61l17.2,9.859L122.3,395.5l-1.157-.624a1.32,1.32,0,0,0-.656-.189,1.155,1.155,0,0,0-.963.542,1.269,1.269,0,0,0,.453,1.618l5.912,3.492a1.162,1.162,0,0,0,.579.166,1.263,1.263,0,0,0,1.03-.61l.9-1.438,2.423,1.257a5.068,5.068,0,0,0,.355,4.93,4.733,4.733,0,0,0,3.851,1.972,8.141,8.141,0,0,0,1.437-.271,4.844,4.844,0,0,0,.895,2.776,4.66,4.66,0,0,0,3.762,1.972,8.9,8.9,0,0,0,1.52-.271,4.414,4.414,0,0,0,.9,2.688,4.567,4.567,0,0,0,3.136,1.881c.182,0,.535.18.715.18a8.992,8.992,0,0,0,1.528-.271,4.227,4.227,0,0,0,.895,2.7,4.577,4.577,0,0,0,3.129,1.881c.182,0,.542.173.722.173a5.368,5.368,0,0,0,2.867-.895l2.5-1.972a3.643,3.643,0,0,0,1.348-1.521l4.657,2.6a4.54,4.54,0,0,0,2.234.542,6.847,6.847,0,0,0,1.346-.18,4.629,4.629,0,0,0,2.776-2.243,5.481,5.481,0,0,0,.542-2.866c.355,0,.535.18.895.18a4.452,4.452,0,0,0,4.116-2.506,5.208,5.208,0,0,0,.631-2.777c.264,0,.535.091.895.091a4.732,4.732,0,0,0,4.116-2.423,5.122,5.122,0,0,0,.54-2.868c.355,0,.535.182.895.182a7.132,7.132,0,0,0,1.34-.271,4.629,4.629,0,0,0,3.136-5.825,2.373,2.373,0,0,0-.353-.806l2.054-1.43.986,1.34a1.3,1.3,0,0,0,1,.421,1.281,1.281,0,0,0,.617-.15l3.129-2.506a1.7,1.7,0,0,0,.362-1.882,1.282,1.282,0,0,0-1-.421,1.147,1.147,0,0,0-.61.15l-2.243,1.791-17.911-23.39,10.208-6.63a1.12,1.12,0,0,0,.362-1.52,1.218,1.218,0,0,0-1-.542,1.1,1.1,0,0,0-.617.182l-11.194,7.171a1.373,1.373,0,0,0-.355,1.7l2.054,2.686-1.428,1.077-5.824-1.882c-.18,0-.27-.089-.36-.089H153.114a1.071,1.071,0,0,0-1.077.895l-.8,3.048-1.881-.806a1.307,1.307,0,0,0-.535-.091l-5.288.535-1.791-.986,1.7-2.95a1.152,1.152,0,0,0-.444-1.528l-21.853-12.725a1.2,1.2,0,0,0-.535-.121" transform="translate(-74.555 -303.424)" fill="#fff" fill-rule="evenodd"/>
  </g>
</svg>
