<?xml version="1.0" encoding="utf-8"?>
<!-- Generator: Adobe Illustrator 25.4.4, SVG Export Plug-In . SVG Version: 6.00 Build 0)  -->
<svg version="1.1" id="Camada_1" xmlns="http://www.w3.org/2000/svg" xmlns:xlink="http://www.w3.org/1999/xlink" x="0px" y="0px"
	 viewBox="0 0 100 100" style="enable-background:new 0 0 100 100;" xml:space="preserve">
<style type="text/css">
	.st0{clip-path:url(#SVGID_00000036213397528644617620000014647108047073438110_);}
	.st1{fill:#F5F5F5;stroke:#F5F5F5;stroke-width:0.25;}
	.st2{fill:#FFFFFF;}
	.st3{fill:#FFFFFF;stroke:#FFFFFF;stroke-width:0.25;}
</style>
<g>
	<path id="Caminho_5436_00000026144171209080338260000013338850575585992595_" class="st3" d="M78.9,75c0.2,0.2,0.4,0.4,0.7,0.5
		c0.9,0.3,1.9-0.1,2.2-1c3.3-7.1,0.2-15.6-6.9-18.9c-2.6-1.2-5.4-1.6-8.2-1.1c-0.3,0-0.6,0-0.8-0.2c-1.1-1.1-2.2-2.2-3.4-3.3
		l-1.2-1.2l0.4-0.4c0.1-0.1,0.2-0.2,0.3-0.3l20.1-20.1c1.2-1.2,1.2-2,0-3.1c-2.7-2.7-5.5-5.5-8.2-8.2c-0.1-0.2-0.3-0.3-0.4-0.4
		c-0.8-0.6-1.9-0.4-2.5,0.4c0,0,0,0,0,0C64.4,24.3,57.6,31,50.9,37.8c-0.2,0.2-0.3,0.4-0.5,0.7l-0.2,0.3L50,38.4
		c-0.4-0.4-0.7-0.7-1-1.1c-0.7-0.7-1.4-1.5-2.2-2.1c-1-0.8-1.5-2.2-1.3-3.5c0.4-7.8-5.5-14.5-13.4-14.9c-2.3-0.1-4.6,0.3-6.7,1.3
		c-0.3,0.1-0.6,0.3-0.8,0.6c-0.6,0.7-0.5,1.8,0.2,2.4c2.1,2.1,4.2,4.2,6.3,6.3c0.2,0.1,0.3,0.3,0.5,0.4l0.3,0.2l-3.6,3.6l-6.7-6.7
		c-0.1-0.1-0.2-0.2-0.3-0.3c-0.2-0.2-0.4-0.4-0.7-0.5c-0.9-0.3-1.8,0.1-2.1,1c-0.4,1-0.7,1.9-0.9,2.9c-0.1,0.4-0.2,0.8-0.3,1.3
		c0,0.1-0.1,0.2-0.1,0.4l-0.3,0.2v2.7c0.3,0.2,0.3,0.4,0.4,0.6c0.1,0.5,0.2,1,0.3,1.5c1.8,7.1,8.7,11.7,15.9,10.5
		c0.3,0,0.6,0,0.8,0.2c1.1,1.1,2.2,2.2,3.3,3.3l1.2,1.2l-0.4,0.4c-0.1,0.1-0.2,0.3-0.4,0.4c-4.7,4.7-9.5,9.5-14.3,14.3
		c-0.4,0.4-0.7,0.8-0.9,1.4c-1.4,3.4-2.7,6.7-4.1,10.1l-1.6,3.9c-0.1,0.1-0.1,0.2-0.2,0.4l0.7,0.1v0.9c-0.5,0.5,0,1,0.5,0.7h0.9
		L21,82c1.2-0.5,2.4-1,3.6-1.5c1.1-0.4,2.2-0.9,3.3-1.3c2-0.8,3.9-1.6,5.9-2.4c0.4-0.2,0.9-0.5,1.2-0.8c4.8-4.8,9.5-9.5,14.3-14.3
		c0.2-0.2,0.3-0.4,0.4-0.5L50,61l0.4,0.3c0.1,0.1,0.2,0.1,0.2,0.2l0.8,0.8c1,1,2.1,2.1,3.1,3.1c0.2,0.3,0.4,0.6,0.3,1l0,0.3
		c-1,7.8,4.5,14.9,12.3,15.9c0.1,0,0.3,0.1,0.4,0.6h2.7l1.1-0.8c0.9-0.2,1.8-0.5,2.8-0.7c0.8-0.1,1.5-0.7,1.8-1.5
		c0.1-0.9-0.3-1.7-1-2.2c-1.6-1.4-3.1-3-4.5-4.4c-0.6-0.6-1.2-1.2-1.8-1.8l-0.2-0.2l3.5-3.5l5.7,5.7C78,74.2,78.5,74.6,78.9,75
		 M72.5,21.1l6.1,6.1l-0.2,0.2l0,0l0.2,0.2l-6.1,6.1l-6.3-6.3L72.5,21.1z M63.7,29.9l6.3,6.3l-11,11l-6.3-6.3L63.7,29.9z M21.9,78
		l3.4-8.5l5.1,5.1L21.9,78z M33.6,72.6l-6.3-6.3l13.9-13.9l6.3,6.3L33.6,72.6z M72.9,64.2c-0.8-0.6-1.8-0.4-2.4,0.3c0,0,0,0,0,0
		c-1.9,1.9-3.7,3.7-5.5,5.5c-0.1,0.1-0.3,0.2-0.4,0.4c-0.6,0.8-0.4,1.8,0.3,2.4l5.3,5.3c0.1,0.1,0.2,0.2,0.3,0.3l0.5,0.5l-0.4,0.1
		c-1.5,0.3-3,0.2-4.4-0.2c-5.7-1.5-9.1-7.2-7.8-12.9c0.2-0.8,0-1.7-0.7-2.3c-7.2-7.1-14.4-14.4-21.6-21.6c-0.6-0.7-1.5-0.9-2.4-0.7
		c-5.8,1.3-11.6-2.3-12.9-8.1c-0.2-1-0.3-2-0.3-3.1c0-0.2,0-0.5,0.1-0.7c0-0.1,0-0.3,0.1-0.4l0.1-0.5l0.6,0.5
		c0.1,0.1,0.3,0.2,0.4,0.3c1.8,1.8,3.5,3.5,5.3,5.3c0.1,0.1,0.2,0.2,0.3,0.3c0.8,0.6,1.8,0.4,2.4-0.3c1.9-1.9,3.7-3.7,5.6-5.6
		c0.1-0.1,0.2-0.2,0.3-0.3c0.6-0.7,0.5-1.8-0.3-2.4L30,21.3c-0.1-0.1-0.2-0.2-0.3-0.3l-0.5-0.5l0.4-0.1c1.5-0.3,3-0.2,4.4,0.2
		c5.7,1.5,9.1,7.2,7.8,12.9c-0.2,0.8,0,1.7,0.7,2.3c7.2,7.2,14.5,14.4,21.6,21.6c0.6,0.6,1.5,0.9,2.3,0.7c1-0.2,2.1-0.3,3.1-0.3
		c6,0.4,10.5,5.5,10.1,11.4c0,0,0,0,0,0c0,0.2,0,0.5-0.1,0.7c0,0.1,0,0.3-0.1,0.4l-0.2,0l0,0l-0.2,0.2l-0.2-0.2
		c-0.1-0.1-0.2-0.2-0.3-0.3c-1.8-1.8-3.6-3.6-5.4-5.4C73.1,64.5,73,64.3,72.9,64.2"/>
</g>
</svg>
