<svg xmlns="http://www.w3.org/2000/svg" width="150" height="150" viewBox="0 0 150 150">
  <g id="Grupo_1269" data-name="Grupo 1269" transform="translate(-140 -4168)">
    <g id="Grupo_1267" data-name="Grupo 1267" transform="translate(-932 2912)">
      <g id="Grupo_1268" data-name="Grupo 1268">
        <circle id="Elipse_3" data-name="Elipse 3" cx="75" cy="75" r="75" transform="translate(1072 1256)" fill="#fff"/>
      </g>
    </g>
    <g id="Grupo_1266" data-name="Grupo 1266" transform="translate(-534.305 3995.88)">
      <path id="Caminho_1462" data-name="Caminho 1462" d="M758.376,212.12a5.4,5.4,0,0,1,2.144,1.126,4.467,4.467,0,0,1,1.308,3.492c-.036,1.579-.008,1.58-1.6,1.58q-10.295,0-20.589,0a6.212,6.212,0,0,0-6.605,6.577c0,4.476-.011,8.953.013,13.429,0,.538-.132.752-.668.655a1.335,1.335,0,0,0-1.16.43q-4.166,3.6-8.358,7.174a2.076,2.076,0,0,1-3.536-.93,3.178,3.178,0,0,1-.061-.751c0-1.813-.014-3.627.006-5.44,0-.389-.1-.516-.492-.489a4.172,4.172,0,0,1-4.378-3.215c-.007-.034-.064-.057-.1-.085V215.426a3.713,3.713,0,0,1,3.443-3.306Z" fill="#7673d4"/>
      <path id="Caminho_1463" data-name="Caminho 1463" d="M714.3,530.309c.243-.276.186-.639.264-.96a10.464,10.464,0,0,1,3.808-5.882c.3-.238.489-.3.832.029a11.59,11.59,0,0,0,16.393-.031c.329-.312.5-.233.779-.013a10.255,10.255,0,0,1,4.075,7.778c.058,1.052.029,2.11.012,3.165a2.052,2.052,0,0,1-2.144,2.108q-10.941.011-21.882.006a2.332,2.332,0,0,1-2.137-1.517v-3.443a1.053,1.053,0,0,0,0-.826Z" transform="translate(0 -253.863)" fill="#7673d4"/>
      <path id="Caminho_1464" data-name="Caminho 1464" d="M714.3,563.8a.613.613,0,0,1,0,.827Z" transform="translate(0 -286.942)" fill="#7673d4"/>
      <path id="Caminho_1465" data-name="Caminho 1465" d="M871.473,295.039c-3.6,0-7.2.011-10.807-.013-.508,0-.649.108-.638.631.038,1.743,0,3.488.021,5.232a2.123,2.123,0,0,1-3.71,1.675c-2.707-2.34-5.437-4.655-8.136-7a1.987,1.987,0,0,0-1.474-.531c-1.238.038-2.478.022-3.717.009a4.116,4.116,0,0,1-4.172-4.193c0-.655-.294-1.531.125-1.9.362-.322,1.22-.1,1.859-.1q9.017,0,18.034,0a8.276,8.276,0,0,0,8.619-8.611c0-3.809.012-7.619-.013-11.428,0-.512.115-.638.632-.635,4.635.023,9.27.009,13.9.015a4.134,4.134,0,0,1,4.343,4.374q.008,9.053,0,18.106a4.141,4.141,0,0,1-4.41,4.378Q876.7,295.044,871.473,295.039Z" transform="translate(-101.528 -45.729)" fill="#7673d4"/>
      <path id="Caminho_1466" data-name="Caminho 1466" d="M851.6,268.182c3.625,0,7.25.011,10.875-.013.507,0,.641.108.638.63-.026,3.878-.006,7.756-.017,11.633a4.118,4.118,0,0,1-4.3,4.276c-6.585.007-13.169,0-19.753.013-.464,0-.612-.086-.61-.586.022-4.566.01-9.132.015-13.7a2.08,2.08,0,0,1,2.277-2.254Q846.159,268.176,851.6,268.182Z" transform="translate(-101.276 -45.731)" fill="#7673d4"/>
      <path id="Caminho_1467" data-name="Caminho 1467" d="M968.269,536.517q-5.335,0-10.67,0a2.119,2.119,0,0,1-2.412-2.4,18.1,18.1,0,0,1,.411-5.327,10.564,10.564,0,0,1,3.69-5.34c.294-.23.464-.263.779.036a11.6,11.6,0,0,0,16.4,0c.3-.29.473-.283.777-.042a10.273,10.273,0,0,1,4.091,7.845c.051,1.007.021,2.019.012,3.029a2.071,2.071,0,0,1-2.2,2.192Q973.708,536.526,968.269,536.517Z" transform="translate(-196.532 -253.873)" fill="#7673d4"/>
      <path id="Caminho_1468" data-name="Caminho 1468" d="M759.388,445.652a7.573,7.573,0,1,1-7.581-7.548A7.586,7.586,0,0,1,759.388,445.652Z" transform="translate(-24.426 -184.384)" fill="#7673d4"/>
      <path id="Caminho_1469" data-name="Caminho 1469" d="M992.7,453.251a7.574,7.574,0,1,1,7.591-7.538A7.592,7.592,0,0,1,992.7,453.251Z" transform="translate(-220.985 -184.383)" fill="#7673d4"/>
    </g>
  </g>
</svg>
