<?xml version="1.0" encoding="utf-8"?>
<!-- Generator: Adobe Illustrator 26.0.2, SVG Export Plug-In . SVG Version: 6.00 Build 0)  -->
<svg version="1.1" id="Grupo_1429" xmlns="http://www.w3.org/2000/svg" xmlns:xlink="http://www.w3.org/1999/xlink" x="0px" y="0px"
	 viewBox="0 0 74.2 74.3" style="enable-background:new 0 0 74.2 74.3;" xml:space="preserve">
<style type="text/css">
	.st0{fill:none;}
	.st1{fill:#7673D4;}
</style>
<g>
	<rect x="-0.4" y="-0.4" class="st0" width="75" height="75"/>
</g>
<g>
	<path class="st1" d="M37.8,0h-1.3c-1,0.5-1.5,1.6-1.4,2.7c0.1,1.2,0.1,2.4,0,3.6c0,0.6,0,1.2,0,1.7v0.1c0,0.5,0.2,1,0.6,1.4
		c0.4,0.4,0.9,0.6,1.4,0.5c0.5,0,1-0.2,1.4-0.6s0.6-0.9,0.5-1.4c0-0.6,0-1.2,0-1.7c0-1.2,0-2.4,0-3.6C39.3,1.6,38.8,0.5,37.8,0z"/>
	<path class="st1" d="M6.3,39.1c0.6,0,1.1,0,1.7,0h0.1c0.5,0,1-0.2,1.4-0.6c0.4-0.4,0.6-0.9,0.5-1.4c0-0.5-0.2-1-0.6-1.4
		c-0.4-0.4-0.9-0.6-1.4-0.5c-0.6,0-1.2,0-1.7,0c-1.2,0-2.4,0-3.6,0C1.6,35,0.5,35.5,0,36.5v1.3c0.5,1,1.6,1.5,2.7,1.4
		C3.9,39,5.2,39.1,6.3,39.1z"/>
	<path class="st1" d="M69.3,35.2h-3.2c-1,0-1.8,0.9-1.9,1.9c0,1.1,0.8,2,1.9,2c2.1,0,4.2,0,6.3,0c1,0,1.9-0.9,1.9-1.9
		c0-0.5-0.2-1-0.5-1.4c-0.4-0.4-0.8-0.6-1.4-0.6c-0.7,0-1.4,0-2,0L69.3,35.2l0-0.4c0,0,0,0,0,0l0,0V35.2z"/>
	<path class="st1" d="M55.8,56.9c-0.3,0.7-0.2,1.6,0.4,2.1c1.4,1.5,2.9,3,4.4,4.4c0.8,0.7,2,0.7,2.8,0C63.8,63,64,62.5,64,62
		c0-0.5-0.2-1-0.6-1.4c-1.2-1.3-2.5-2.5-3.8-3.8L59,56.2c-0.3-0.3-0.7-0.5-1.1-0.5v0c-0.1,0-0.1,0-0.2,0
		C56.9,55.7,56.2,56.1,55.8,56.9z"/>
	<path class="st1" d="M18.6,16.7c0-0.5-0.1-0.9-0.4-1.3l-0.5-0.5c-1.4-1.4-2.8-2.8-4.2-4.2c-0.3-0.3-0.8-0.4-1.2-0.4
		c-0.4,0-0.9,0.2-1.3,0.5c-0.8,0.7-0.9,1.9-0.2,2.8c1.4,1.5,2.9,3,4.6,4.6c0.5,0.5,1.3,0.6,2,0.3C18.1,18.1,18.6,17.4,18.6,16.7
		l0.4,0c0,0,0,0,0,0L18.6,16.7z"/>
	<path class="st1" d="M56.2,15.2c-0.7,0.8-0.7,1.9,0,2.7c0.4,0.4,0.8,0.6,1.4,0.6c0.5,0,1-0.2,1.4-0.5c1.2-1.2,2.4-2.4,3.6-3.6
		l0.8-0.8c0.3-0.4,0.5-0.9,0.5-1.4h0c0-0.7-0.5-1.4-1.2-1.7c-0.3-0.1-0.6-0.2-0.9-0.2c-0.5,0-0.9,0.2-1.3,0.5
		C59.2,12.2,57.7,13.7,56.2,15.2z"/>
	<path class="st1" d="M13.5,63.5c1.5-1.4,3-2.9,4.6-4.6c0.5-0.6,0.6-1.4,0.3-2.1c-0.3-0.7-1-1.1-1.7-1.1l0,0c0,0-0.1,0-0.1,0
		c-0.5,0-0.9,0.2-1.2,0.5l-0.4,0.4c-1.4,1.4-2.8,2.8-4.2,4.2c-0.7,0.7-0.6,1.9,0.1,2.6C11.6,64.1,12.7,64.2,13.5,63.5z"/>
	<path class="st1" d="M28.3,69.9c0.4,2.6,2.6,4.4,5.2,4.4c0.8,0,1.7,0,2.5,0c0.4,0,0.8,0,1.2,0l1.3,0c0.9,0,1.8,0,2.7,0
		c2.8,0,5-2.2,5-5c0-2.3,0-4.5,0-6.8c0-0.7,0.1-1.5,0.2-2.2c0.6-2.6,2.1-4.9,4.3-6.4c8-6.4,10.3-17.6,5.6-26.6l0,0
		c-3.8-7.4-11.4-11.6-19.2-11.6c-3.3,0-6.7,0.8-9.8,2.4C19,22.3,14.4,31.3,15.9,40.5c0.8,5.5,3.8,10.4,8.2,13.7
		c1.7,1.4,3,3.3,3.6,5.4c0.4,2,0.5,4,0.4,5.9C28.1,67,28.1,68.5,28.3,69.9z M42.2,67.6c0,0.4,0,0.9,0,1.3h0c0,0.9-0.5,1.4-1.4,1.4
		c-1,0-2.1,0-3.1,0c-1.4,0-2.8,0-4.1,0c0,0-0.1,0-0.1,0c-0.2,0-0.5-0.1-0.7-0.3c-0.3-0.2-0.4-0.5-0.5-0.8C32,68,32,66.8,32.1,65.5
		c0-0.2,0.1-0.4,0.2-0.5c0.2-0.2,0.5-0.2,0.6-0.1c1.1,0,2.2,0,3.2,0l2.2,0c1,0,2,0,3,0c0.2,0,0.5,0,0.7,0.2s0.2,0.5,0.2,0.7
		C42.2,66.4,42.2,67,42.2,67.6z M26,50.7c-3.6-2.8-5.9-7-6.3-11.5c-1.2-9.6,5.7-18.3,15.3-19.5c9.3-1.1,17.8,5.2,19.4,14.4
		c1.2,6.8-1,12.5-6.6,17.1l-0.2-0.3l0,0l0,0l0.2,0.3c-2.9,2.3-4.8,5.5-5.4,9.1c-0.1,0.7-0.6,0.7-0.9,0.7l-5.5,0c-1,0-2.1,0-3.1,0
		c-0.6,0-0.8-0.2-0.9-0.8C31.2,56.4,29.1,53,26,50.7z"/>
	<path class="st1" d="M36.5,26.8c0.4,0.4,0.9,0.6,1.4,0.6c0.6,0,1.2,0.1,1.8,0.2c4.1,0.9,7.1,4.6,7.1,8.8c0,1.2,1,2,2,2
		c1.1,0,1.9-0.9,1.9-2c0-0.6,0-1.3-0.1-1.9c-0.9-6.1-6.1-10.8-12.3-11l-0.4,0c0,0,0,0,0,0c-1.1,0-2,0.9-2,2
		C35.9,26,36.2,26.5,36.5,26.8z"/>
</g>
</svg>
