<svg xmlns="http://www.w3.org/2000/svg" width="66.372" height="67.215" viewBox="0 0 66.372 67.215">
  <g id="Grupo_1220" data-name="Grupo 1220" transform="translate(-46.792 -46.083)">
    <path id="Caminho_1451" data-name="Caminho 1451" d="M-185.945,1143.876a.458.458,0,0,0-.483-.343c-13.468.023-26.867.027-40.268.018l-.189,0c-.193,0-.385,0-.579-.009a3.177,3.177,0,0,1-2.194-1.092,3.178,3.178,0,0,1-.778-2.323,3.2,3.2,0,0,1,3.415-2.971q13.191.005,26.43.013c.064,0,.112,0,.147-.006,0-.032,0-.076,0-.133-.047-1.378-.047-2.736,0-4.036,0-.049,0-.089,0-.119a.783.783,0,0,0-.161-.005q-4.327.012-8.655.006c-4.2,0-8.408,0-12.612.023-.683.005-1.365-.013-2.049-.034a20.307,20.307,0,0,0-5.875.414l-.67.181V1088.4a3.228,3.228,0,0,1,3.5-3.515q.621,0,1.239.005c1.01.006,2.056.014,3.076-.022a1.244,1.244,0,0,1,.959.275,1.28,1.28,0,0,1,.306.979c-.021,8.6-.026,17.316-.016,25.917l1.528-1.143q3.232-2.417,6.448-4.856a1.208,1.208,0,0,1,1.667-.021l.045.045c.652.515,1.32,1.012,1.987,1.508l5.93,4.439q0-12.974-.011-25.95a1.217,1.217,0,0,1,.286-.908,1.2,1.2,0,0,1,.893-.284l1.685.006c4.821.02,9.805.041,14.705-.018a3.407,3.407,0,0,1,2.473.828,3.427,3.427,0,0,1,1.188,2.357,3.447,3.447,0,0,1,0,.506c-.036,3.544-.034,7.182-.031,10.7,0,2.732,0,5.464-.012,8.2a1.6,1.6,0,0,0,.683,1.495c1.085.8,2.131,1.658,3.143,2.486l.464.38c0-1.8,0-3.638,0-5.477.01-6.111.02-12.428-.035-18.638a7.006,7.006,0,0,0-3.5-5.96,10.314,10.314,0,0,0-2.952-1.118h-43.546a6.524,6.524,0,0,0-2.628.807,7.345,7.345,0,0,0-3.777,5.653l0,.653a1.883,1.883,0,0,1,.067.851q0,25.641,0,51.283a1.887,1.887,0,0,1-.067.85v.712a7.285,7.285,0,0,0,6.337,6.405l44.3,0-.184-.391C-184.86,1146.25-185.415,1145.067-185.945,1143.876Zm-30.9-58.73a1.225,1.225,0,0,1,.928-.282c1.677.026,3.351.021,5.024.018l1.848-.005a.945.945,0,0,1,.737.223.98.98,0,0,1,.255.718c-.011,4.214-.01,8.428-.009,12.7v4.566l-.766-.191-1.121-.834c-.825-.613-1.6-1.191-2.369-1.8l-.079-.077a.237.237,0,0,0-.335-.031l-.084.08c-.776.633-1.592,1.233-2.382,1.814-.325.24-.652.479-.976.722l-.39.291-.325-.362a1.052,1.052,0,0,1-.242-.873c0-.026.006-.052.006-.077l0-5q0-5.328-.016-10.656A1.259,1.259,0,0,1-216.845,1085.146Zm35.563,44.2,12.9-1.308-25.642-20.669v31.345l1.692-1.453c2.025-1.737,4.05-3.474,6.055-5.235a1.333,1.333,0,0,1,.833-.407.755.755,0,0,1,.156.016c.428.089.625.5.754.775q1.454,3.081,2.924,6.15t2.925,6.153c.018.039.033.069.047.094l.052-.025c1.246-.635,2.526-1.249,3.809-1.828-.829-1.705-1.645-3.419-2.461-5.132Zm-.335-4.263c-1.1.115-2.138.224-3.178.314l-.018,0a.9.9,0,0,0-.559.231c-.827.725-1.658,1.436-2.518,2.171l-1.863,1.6v-13.094l10.584,8.527Z" transform="translate(281.551 -1034.528)" fill="#7673d4"/>
  </g>
</svg>
