<?xml version="1.0" encoding="utf-8"?>
<!-- Generator: Adobe Illustrator 26.0.2, SVG Export Plug-In . SVG Version: 6.00 Build 0)  -->
<svg version="1.1" id="Grupo_1428" xmlns="http://www.w3.org/2000/svg" xmlns:xlink="http://www.w3.org/1999/xlink" x="0px" y="0px"
	 viewBox="0 0 75 75.7" style="enable-background:new 0 0 75 75.7;" xml:space="preserve">
<style type="text/css">
	.st0{fill:none;}
	.st1{fill:#7673D4;}
</style>
<g>
	<path class="st0" d="M71.3,55.9h-0.1v-9.7c0-3.3,0-6.6,0-9.9c0-0.1,0-0.3,0-0.4c0-1.5-0.7-2.9-1.8-3.9c-1.1-1-2.5-1.6-4-1.5
		c-3.2,0-6.5,0-9.6,0c-2.1,0-4.2,0-6.3,0c0,0,0,0,0,0c-0.3,0-0.4,0.1-0.5,0.4c-0.6,4.7-4.6,8.2-9.4,8.2c-0.1,0-0.1,0-0.2,0
		c-3.1,0-6.2,0-9.3,0c-0.2,0-0.3,0-0.4,0.1c-0.1,0.1-0.1,0.2-0.1,0.4c0,5.7,0,11.3,0,17c0,0.5,0.1,1,0.2,1.4c0.8,2.5,3.1,4.1,5.7,4
		c4.9,0,9,0,13.2,0c0,0,0.1,0,0.1,0c0.8,0,1.7,0.4,2.2,1c2,2,4,4,5.9,5.9c0.9,0.9,1.8,1.8,2.7,2.7l0.1,0.1c0.3,0.3,0.5,0.5,0.8,0.3
		c0.3-0.1,0.3-0.4,0.3-0.7c0-0.1,0-0.1,0-0.2c0-1,0-2,0-3.1c0-1.3,0-2.5,0-3.8c0-0.1,0-0.3,0-0.5c0.1-1.1,1.1-1.9,2.2-1.7
		c0.2,0,0.4,0,0.7,0c0.5,0,0.9,0,1.4,0c0.2,0,0.4,0,0.5,0c1.5-0.1,2.9-0.7,3.9-1.9s1.5-2.6,1.4-4.1L71.3,55.9
		C71.3,55.9,71.3,55.9,71.3,55.9L71.3,55.9z M39.2,49C39.2,49,39.2,49,39.2,49c-1.6,0-2.8-1.3-2.8-2.8c0-1.5,1.3-2.8,2.8-2.8
		c0.8,0,1.5,0.3,2,0.8c0.5,0.5,0.8,1.3,0.8,2C42.1,47.8,40.8,49,39.2,49z M50.4,49L50.4,49c-0.8,0-1.5-0.3-2-0.9
		c-0.5-0.5-0.8-1.3-0.8-2c0-0.8,0.3-1.5,0.9-2s1.2-0.8,2-0.8c1.6,0,2.8,1.3,2.8,2.9C53.3,47.8,52,49,50.4,49z M61.7,49
		c-0.8,0-1.5-0.3-2-0.8c-0.5-0.5-0.8-1.2-0.8-2c0-0.8,0.3-1.5,0.8-2c0.5-0.5,1.2-0.8,2-0.8c0,0,0,0,0,0c1.5,0,2.8,1.3,2.8,2.8
		C64.5,47.7,63.2,49,61.7,49z"/>
	<polygon class="st0" points="75,36.4 75,36.4 75,36.4 	"/>
	<path class="st0" d="M39.6,35.2L39.6,35.2c1.6,0,3-0.6,4-1.7s1.6-2.5,1.6-4c0-4.2,0-8.3,0-12.5c0-2.6,0-5.1,0-7.7
		c0-0.6-0.1-1.1-0.3-1.7c-0.8-2.5-2.9-4-5.8-4H24.5c-0.9,0-1.8,0-2.7,0c-1.8,0-3.6,0-5.4,0c-0.8,0-1.7,0-2.5,0c-1.7,0-3.5,0-5.2,0.1
		C6,4.1,3.9,6.4,3.8,9.2c0,6.8,0,13.7,0,20.5c0.1,2.6,2,4.9,4.5,5.3c1,0.1,2.1,0.2,3.1,0.1c1.7,0,2.4,0.7,2.4,2.4v6.7
		c0,0.1,0,0.1,0,0.2c0,0.4,0,0.6,0.3,0.7c0.3,0.1,0.5,0,0.7-0.3c0,0,0.1-0.1,0.1-0.1l1.9-1.9c2.2-2.2,4.5-4.4,6.7-6.7
		c0.6-0.7,1.5-1.1,2.5-1C30.9,35.2,35.6,35.2,39.6,35.2z M19.5,14.9c-0.8-0.4-1.2-1.4-0.8-2.3c0.8-2.2,2.7-2.8,4.1-3.1
		c0.4-0.1,0.9-0.2,1.3-0.2v0c1.4,0,2.9,0.3,4.1,1c2.1,1.2,3,3.9,1.8,6c-0.6,1.2-1.5,2.3-2.7,3.1c-1.1,0.7-1.7,2-1.7,3.4
		c0,1-0.4,1.4-1.5,1.5c-0.1,0-0.3,0-0.4,0c-0.9,0-1.4-0.4-1.5-1.2c-0.4-2,0.3-4,1.9-5.3c0.6-0.5,1.2-1,1.8-1.5
		c0.6-0.5,0.9-1.4,0.6-2.2c-0.3-0.7-1-1.2-1.8-1.2c-1.2-0.2-2.3,0.3-3,1.2C21.1,15.2,20.4,15.4,19.5,14.9z M26,27.5
		c0,1.1-0.9,2-2.1,2v0c0,0,0,0,0,0c-1.1,0-2-0.9-2.1-2c0-0.6,0.2-1.1,0.6-1.5c0.4-0.4,0.9-0.6,1.4-0.6c0,0,0,0,0,0
		C25,25.4,26,26.3,26,27.5L26,27.5z"/>
	<path class="st1" d="M75.1,36.4L75.1,36.4c0-0.6,0-1.2-0.1-1.8c-0.8-4.6-4.8-7.9-9.4-7.9c-0.1,0-0.1,0-0.2,0l-3.7,0
		c-3.9,0-7.9,0-11.9,0c-0.3,0-0.5,0-0.5-0.1c-0.1-0.1-0.1-0.2-0.1-0.5c0-5.5,0-11.1,0-16c0-0.7,0-1.4-0.1-2.1c-0.8-4.6-4.8-8-9.4-8
		c-0.1,0-0.2,0-0.3,0c-9.9,0-19.7,0-29.6,0c0,0-0.1,0-0.1,0c-0.8,0-1.5,0.1-2.3,0.2c-4.5,1-7.6,5-7.5,9.6c0,6.5,0,13.1,0,19.6
		c0,0.7,0,1.3,0.2,2c0.8,4.5,4.7,7.8,9.3,7.8c0,0,0.1,0,0.1,0c0.2,0,0.3,0,0.4,0.1c0.1,0.1,0.1,0.2,0.1,0.4c0,1.7,0,3.4,0,5.1
		c-0.1,2.2,1.4,4.1,3.6,4.5c1.5,0.3,3.1-0.2,4.1-1.3l8-8.2l0.1,0.1v0.7c0,5.1,0,10.2,0,15.3c0,0.7,0,1.5,0.1,2.2
		c0.8,4.5,4.8,7.9,9.4,7.9c0.1,0,0.2,0,0.2,0l3.1,0c3,0,6.2,0,9.3,0c0.4,0,0.8,0.1,1.1,0.5c2.8,2.8,5.5,5.5,8.3,8.2
		c0.8,0.9,2,1.4,3.1,1.4c0.2,0,0.5,0,0.7-0.1c2.3-0.3,3.9-2.3,3.8-4.5c0-1.8,0-3.5,0-5.1c0-0.2,0-0.3,0.1-0.4
		c0.1-0.1,0.2-0.1,0.4-0.1c0.7,0,1.5,0,2.2-0.2c4.4-1,7.6-5,7.4-9.5C75.1,49.5,75.1,42.9,75.1,36.4z M23.7,36.2
		c-2.2,2.2-4.5,4.5-6.7,6.7l-1.9,1.9c0,0-0.1,0.1-0.1,0.1c-0.2,0.3-0.4,0.4-0.7,0.3c-0.3-0.1-0.3-0.4-0.3-0.7c0-0.1,0-0.1,0-0.2
		v-6.7c0-1.7-0.7-2.4-2.4-2.4c-1,0.1-2.1,0-3.1-0.1c-2.6-0.5-4.5-2.7-4.5-5.3c0-6.8,0-13.7,0-20.5c0-2.8,2.2-5.1,5-5.4
		c1.7-0.1,3.5-0.1,5.2-0.1c0.8,0,1.7,0,2.5,0c1.8,0,3.6,0,5.4,0c0.9,0,1.8,0,2.7,0h14.6c2.9,0,5,1.5,5.8,4c0.2,0.5,0.3,1.1,0.3,1.7
		c0,2.6,0,5.1,0,7.7c0,4.2,0,8.3,0,12.5c0,1.5-0.6,2.9-1.6,4s-2.4,1.6-3.9,1.7h-0.1c-4,0-8.7,0-13.4,0
		C25.3,35.1,24.3,35.5,23.7,36.2z M71.2,56c0.1,1.5-0.4,2.9-1.4,4.1s-2.4,1.8-3.9,1.9c-0.2,0-0.3,0-0.5,0c-0.5,0-0.9,0-1.4,0
		c-0.2,0-0.5,0-0.7,0c-1.1-0.1-2.1,0.6-2.2,1.7c0,0.2,0,0.3,0,0.5c0,1.3,0,2.5,0,3.8c0,1,0,2,0,3.1c0,0.1,0,0.1,0,0.2
		c0,0.4,0,0.6-0.3,0.7c-0.3,0.1-0.5,0-0.8-0.3l-0.1-0.1c-0.9-0.9-1.8-1.8-2.7-2.7c-1.9-1.9-3.9-3.9-5.9-5.9c-0.6-0.6-1.4-1-2.2-1
		c0,0-0.1,0-0.1,0c-4.2,0-8.3,0-13.2,0c-2.6,0.1-4.9-1.5-5.7-4c-0.2-0.5-0.2-0.9-0.2-1.4c0-5.7,0-11.3,0-17c0-0.2,0-0.3,0.1-0.4
		c0.1-0.1,0.2-0.1,0.4-0.1c3.1,0,6.2,0,9.3,0c0.1,0,0.1,0,0.2,0c4.7,0,8.7-3.5,9.4-8.2c0.1-0.4,0.1-0.4,0.5-0.4c0,0,0,0,0,0
		c2.1,0,4.2,0,6.3,0c3.1,0,6.4,0,9.6,0c1.5-0.1,2.9,0.5,4,1.5c1.1,1,1.7,2.4,1.8,3.9c0,0.1,0,0.3,0,0.4c0,3.3,0,6.6,0,9.9L71.2,56
		l0.1,0l0,0c0,0,0,0,0,0L71.2,56z M75,36.4L75,36.4L75,36.4L75,36.4z"/>
	<path class="st1" d="M24.7,13c0.8,0,1.5,0.5,1.8,1.2c0.3,0.8,0,1.7-0.6,2.2c-0.6,0.5-1.1,1-1.8,1.5c-1.6,1.3-2.3,3.3-1.9,5.3
		c0.1,0.8,0.6,1.2,1.5,1.2c0.1,0,0.2,0,0.4,0c1.1-0.1,1.6-0.5,1.5-1.5c-0.1-1.3,0.6-2.6,1.7-3.4c1.1-0.8,2-1.9,2.7-3.1
		c1.1-2.2,0.3-4.9-1.8-6c-1.3-0.7-2.7-1-4.1-1v0c-0.5,0-0.9,0.1-1.3,0.2c-1.4,0.3-3.3,0.9-4.1,3.1c-0.4,0.8,0,1.9,0.8,2.3
		c0.9,0.5,1.6,0.3,2.2-0.7C22.3,13.2,23.5,12.7,24.7,13z"/>
	<path class="st1" d="M23.9,25.4C23.9,25.4,23.9,25.4,23.9,25.4c-0.6,0-1.1,0.2-1.5,0.6c-0.4,0.4-0.6,0.9-0.6,1.5c0,1.1,0.9,2,2.1,2
		c0,0,0,0,0,0v0c1.1,0,2-0.9,2.1-2v-0.1C26,26.3,25,25.4,23.9,25.4z"/>
	<path class="st1" d="M50.5,43.4c-0.8,0-1.5,0.3-2,0.8s-0.8,1.2-0.9,2c0,0.8,0.3,1.5,0.8,2c0.5,0.5,1.2,0.8,2,0.9h0
		c1.6,0,2.8-1.2,2.9-2.8C53.3,44.7,52.1,43.4,50.5,43.4z"/>
	<path class="st1" d="M61.7,43.3C61.7,43.3,61.7,43.3,61.7,43.3c-0.8,0-1.5,0.3-2,0.8c-0.5,0.5-0.8,1.2-0.8,2c0,0.8,0.3,1.5,0.8,2
		c0.5,0.5,1.2,0.8,2,0.8c1.5,0,2.8-1.3,2.8-2.8C64.5,44.7,63.3,43.4,61.7,43.3z"/>
	<path class="st1" d="M39.3,43.4c-1.5,0-2.8,1.3-2.8,2.8c0,1.5,1.2,2.8,2.8,2.8c0,0,0,0,0,0c1.5,0,2.8-1.3,2.8-2.8
		c0-0.8-0.3-1.5-0.8-2C40.7,43.7,40,43.4,39.3,43.4z"/>
</g>
</svg>
