<svg xmlns="http://www.w3.org/2000/svg" width="76.152" height="70.272" viewBox="0 0 76.152 70.272">
  <g id="Grupo_1218" data-name="Grupo 1218" transform="translate(-40.623 -44.874)">
    <path id="Caminho_1453" data-name="Caminho 1453" d="M66.681,1107.753a9.164,9.164,0,0,1,8.7-12.038c.291.006.546.013.817.036a2.18,2.18,0,0,1,1.734.993,1.691,1.691,0,0,1,.047,1.578,1.851,1.851,0,0,1-2.084,1.035,5.536,5.536,0,1,0,4.761,7.073c.022-.076.041-.153.06-.231.028-.114.057-.227.092-.337a1.77,1.77,0,0,1,2.134-1.28,1.741,1.741,0,0,1,1.112.749,1.721,1.721,0,0,1,.25,1.3c-.006.034-.015.071-.025.108a8.785,8.785,0,0,1-6.091,6.8,9.111,9.111,0,0,1-11.5-5.786Zm46.242-8.372a6.628,6.628,0,0,0-.677-.011H100.982c-3.9,0-7.8,0-11.658.006a1.82,1.82,0,0,0-1.976,2.324c.166.586.656,1.286,2.057,1.286h23.24c.09,0,.177,0,.253-.01a1.8,1.8,0,0,0,.026-3.6Zm-.187,6.973c-.085,0-.17,0-.256,0h-23a4.442,4.442,0,0,0-.642.024,1.7,1.7,0,0,0-.233.047,1.8,1.8,0,0,0-1.268,2.218,1.834,1.834,0,0,0,1.733,1.336,1.69,1.69,0,0,0,.216-.014h11.555c3.95.006,7.9.006,11.822,0a1.8,1.8,0,0,0,1.406-.53,1.817,1.817,0,0,0,.531-1.3A1.836,1.836,0,0,0,112.736,1106.353Zm-9.044,20.66q-7.154,0-14.311,0a2.216,2.216,0,0,0-1.629.58,1.718,1.718,0,0,0-.469,1.27c.022,1.1.8,1.76,2.093,1.76H96.5c2.374,0,4.745,0,7.088,0,.067.006.135.009.2.009a2.319,2.319,0,0,0,1.067-.265,1.824,1.824,0,0,0-1.163-3.359Zm-14.323-3.375h6.391l2.874,0q1.759,0,3.519,0a2.25,2.25,0,0,0,1.653-.6,1.67,1.67,0,0,0,.465-1.236,1.88,1.88,0,0,0-2.1-1.778q-6.389,0-12.784,0a2.232,2.232,0,0,0-1.631.584,1.724,1.724,0,0,0-.471,1.265C87.3,1122.961,88.1,1123.638,89.369,1123.638Zm-13.329-20.5c-.2.25-.428.536-.607.537-.1-.016-.356-.312-.491-.473a5.579,5.579,0,0,0-.411-.446,1.844,1.844,0,0,0-2.632.026,1.805,1.805,0,0,0,.086,2.537c.771.81,1.482,1.519,2.15,2.142a1.626,1.626,0,0,0,.2.2,1.735,1.735,0,0,0,1.11.4c.057,0,.114,0,.172-.008a1.71,1.71,0,0,0,1.158-.6q2.325-2.3,4.632-4.622l2.294-2.3a1.744,1.744,0,0,0,.487-.693l.062.031.05-.512a1.809,1.809,0,0,0-.647-1.574,1.787,1.787,0,0,0-1.324-.408,1.768,1.768,0,0,0-1.2.624l-.905.906q-1.909,1.913-3.826,3.817A4.715,4.715,0,0,0,76.039,1103.142Zm52.016,31.441-.024.006.008.009c.3.275.579.564.863.852l.831.836c1.269,1.272,2.536,2.543,3.814,3.8a2.715,2.715,0,0,1,.71,1.1l.019.114v1.154l-.09.1c-1.231,1.377-2.566,2.685-3.857,3.949q-.694.68-1.386,1.366a1.793,1.793,0,0,1-2.683-.165l-5.707-5.7c-.054-.054-.109-.107-.167-.162l-1.521,4.753c-.021.065-.039.13-.058.2a3.7,3.7,0,0,1-.12.378,1.753,1.753,0,0,1-1.68,1.237h-.019c-.03,0-.061,0-.091,0a1.73,1.73,0,0,1-1.659-1.307l-.514-1.586c-.5-1.531-1.01-3.113-1.475-4.684-.117-.4-.21-.461-.666-.461q-22.892.016-45.792.012a7.311,7.311,0,0,1-7.417-5.463,8.319,8.319,0,0,1-.247-2.183q0-22.923,0-45.858a7.346,7.346,0,0,1,7.655-7.657q3.951-.012,7.9,0l3.948,0q19.589,0,39.178,0a7.4,7.4,0,0,1,7.49,5.176,8.184,8.184,0,0,1,.328,2.479q.006,8.347,0,16.71c0,.1-.011.2-.018.3v6.4c0,.01,0,.019,0,.03,0,.029,0,.062,0,.095,0,.006,0,.011,0,.018v6.066a1.819,1.819,0,0,1,.02.531l0,6.145c0,1.211.006,2.422-.012,3.632l-.356,0h0l.348.069a.284.284,0,0,0,.062.212.288.288,0,0,0,.195.109c1.622.49,3.175.987,4.727,1.485l2.035.651a1.927,1.927,0,0,1,1.433,1.168.43.43,0,0,1,.082.053l.128.208v1.148l-.13,0a1.905,1.905,0,0,1-1.348,1.183c-1.045.38-2.123.7-3.164,1.015l-1.139.346C128.35,1134.5,128.2,1134.545,128.056,1134.583Zm-5.49-1.349a2.06,2.06,0,0,1,1.512-1.387c.732-.233,1.466-.456,2.275-.7l.026-.008-13.841-4.4,4.429,13.892v0l.789-2.515a1.886,1.886,0,0,1,1.076-1.305,1.951,1.951,0,0,1,.725-.14,1.929,1.929,0,0,1,1.526.743c1.073,1.078,2.178,2.183,3.284,3.289q1.6,1.6,3.206,3.215a1.215,1.215,0,0,0,.137.125c.01-.013.041-.04.086-.087.54-.561,1.1-1.1,1.7-1.667l.5-.476c-.133-.106-.264-.216-.391-.328q-3.194-3.171-6.34-6.334A2.039,2.039,0,0,1,122.565,1133.234Zm-.5-28.97c0-.012-.006-.024-.008-.036a6.158,6.158,0,0,1-.037-.847l0-2.021c0-2.5-.006-5,.011-7.5,0-.27-.027-.33-.035-.342s-.055-.041-.306-.041q-29.331.024-58.657.005a.769.769,0,0,0-.278.026,2.079,2.079,0,0,0-.016.235l.015,39.177a3.666,3.666,0,0,0,3.9,3.84h45.278c-.032-.11-.063-.213-.1-.318q-1.829-5.768-3.673-11.527a2,2,0,0,1,.333-2.236,2.05,2.05,0,0,1,2.32-.3c1.25.394,2.555.81,3.861,1.225q3.567,1.133,7.127,2.281c.1.033.175.052.221.062a1.662,1.662,0,0,0,.008-.2c-.03-2.969-.021-5.948-.009-8.725a2.759,2.759,0,0,1,.041-.4v-5.918a1.837,1.837,0,0,1-.035-.36,1.806,1.806,0,0,1,.035-.369ZM62.73,1089.529c-.016.264.027.318.028.318s.067.047.382.047q14.61-.013,29.221-.013H122c-.017-.5,0-1,.021-1.493a8.389,8.389,0,0,0-.279-3.2c-.69-1.942-2.53-2.349-3.951-2.349H66.91q-.414,0-.834.039a3.645,3.645,0,0,0-3.324,3.585c-.009.408,0,.815,0,1.221C62.759,1088.288,62.765,1088.91,62.73,1089.529Zm-.354-.02h0Zm19.463,29.279a9.143,9.143,0,0,1-6.448,15.594h-.035a9.146,9.146,0,0,1-.04-18.291h.072A9.085,9.085,0,0,1,81.839,1118.787Zm-6.514,11.978v.016l0-.018a5.529,5.529,0,0,0,.055-11.058h-.03a5.53,5.53,0,0,0-.03,11.06Zm-7.947-42.613h.045a1.8,1.8,0,1,0-1.767-1.873v.039A1.78,1.78,0,0,0,67.378,1088.152Zm5.017,0h.025a1.806,1.806,0,0,0,1.8-1.778v0a1.825,1.825,0,0,0-1.778-1.822h-.024a1.8,1.8,0,0,0-.025,3.6Zm5.273,0h.013a1.8,1.8,0,0,0,.014-3.6h-.015a1.8,1.8,0,0,0-.012,3.6Z" transform="translate(-18.001 -1033.843)" fill="#7673d4" stroke="rgba(0,0,0,0)" stroke-miterlimit="10" stroke-width="1"/>
  </g>
</svg>
