<svg xmlns="http://www.w3.org/2000/svg" xmlns:xlink="http://www.w3.org/1999/xlink" width="135.927" height="297.745" viewBox="0 0 135.927 297.745">
  <defs>
    <linearGradient id="linear-gradient" x1="1" y1="0.5" x2="0" y2="0.5" gradientUnits="objectBoundingBox">
      <stop offset="0" stop-color="#fff"/>
      <stop offset="1"/>
    </linearGradient>
  </defs>
  <g id="Grupo_1181" data-name="Grupo 1181" transform="translate(0.001 -52.255)">
    <g id="Grupo_1176" data-name="Grupo 1176" transform="translate(31.907 69.881)">
      <path id="Caminho_1385" data-name="Caminho 1385" d="M1796.178,783.633l27.269,5.9,12.772-40.943,7.06,1.324c-.957,21.23-3.236,41.876-9.878,51.587-3.428,4.278-19.225,4.746-27.315,3.849Z" transform="translate(-1796.178 -737.432)" fill="#f0eff4"/>
      <path id="Caminho_1386" data-name="Caminho 1386" d="M1801.049,749.131s4.59-4.293,4.129-7.953c-.491-3.9-8.489-5.506-10.633-3.935s1.437,5.513.265,5.987-1.891-1.533-2.886-.736,2.066,5.313,2.066,5.313Z" transform="translate(-1753.948 -736.647)" fill="#fbd783"/>
    </g>
    <g id="Grupo_1177" data-name="Grupo 1177" transform="translate(40.211 195.386)">
      <path id="Caminho_1387" data-name="Caminho 1387" d="M1827.2,1019.733a8.069,8.069,0,0,0,.376,4.676c.968,2.716-13.136,3.656-13.136,3.656a10.036,10.036,0,0,1,1.478-7.119c2.284-3.358,2.284-5.776,2.284-5.776Z" transform="translate(-1805.764 -880.445)" fill="#fbd783"/>
      <path id="Caminho_1388" data-name="Caminho 1388" d="M1798.022,873.545c2.32,34.951,14.32,47.935,14.32,61.457s-4.7,72.445-4.7,72.445c1.746,2.216,11.214,3.692,14.462,2.328,6.829-33.057,13.275-71.109,12.984-82.385a201.607,201.607,0,0,0-10.388-56.415Z" transform="translate(-1798.022 -870.975)" fill="#211139"/>
      <path id="Caminho_1389" data-name="Caminho 1389" d="M1798.021,1026.073c-1.922,3.342-2.236,6.451-.878,9.32,10.955.145,21.621.543,31.837.061,0-3.93-10.429-9.149-16.248-10.746A17.111,17.111,0,0,1,1798.021,1026.073Z" transform="translate(-1790.307 -881.072)" fill="#211139"/>
    </g>
    <g id="Grupo_1178" data-name="Grupo 1178" transform="translate(-0.001 191.108)">
      <path id="Caminho_1390" data-name="Caminho 1390" d="M1876.085,1013.886a8.068,8.068,0,0,0-.586,4.654c.394,2.856-13.606.9-13.606.9a10.039,10.039,0,0,1,2.9-6.668c2.921-2.822,3.414-5.188,3.414-5.188Z" transform="translate(-1858.476 -875.669)" fill="#fbd783"/>
      <path id="Caminho_1391" data-name="Caminho 1391" d="M1842.341,866.4c-4.855,34.69,4.244,49.848,1.487,63.086s-19.376,69.963-19.376,69.963c1.257,2.526,10.225,5.9,13.683,5.228,13.426-30.97,27.5-66.908,29.512-78a201.614,201.614,0,0,0,1.336-57.349Z" transform="translate(-1817.84 -866.396)" fill="#211139"/>
      <path id="Caminho_1392" data-name="Caminho 1392" d="M1850.085,1017.32c-2.564,2.88-3.505,5.86-2.761,8.944,10.7,2.376,21.056,4.942,31.156,6.552.8-3.848-8.345-11.084-13.715-13.834A17.112,17.112,0,0,1,1850.085,1017.32Z" transform="translate(-1847.077 -876.308)" fill="#211139"/>
    </g>
    <path id="Caminho_1393" data-name="Caminho 1393" d="M1803.2,876.231c6.675,6.831,40.255,8.442,50.316,2.681,3.663-18.4,2.133-48.626,0-80.221-12.711-6.239-36.387-7.236-45.337-2.469C1797.649,804.35,1805.843,840.885,1803.2,876.231Z" transform="translate(-1782.744 -670.482)" fill="#f0eff4"/>
    <path id="Caminho_1394" data-name="Caminho 1394" d="M1823.992,793.174a21.066,21.066,0,0,0,2.584-10.146H1836.6a15.183,15.183,0,0,0,1.1,11.284C1836.862,795.9,1824.788,795.272,1823.992,793.174Z" transform="translate(-1784.682 -669.813)" fill="#fbd783"/>
    <path id="Caminho_1395" data-name="Caminho 1395" d="M1836.323,786.845c5.516-1.168,11.112-2.291,12.4-5.876,1.739-5.278-3.2-17.5-8.335-23.483l-17.482,10.95Z" transform="translate(-1795.044 -668.135)" fill="#fbd783"/>
    <path id="Caminho_1396" data-name="Caminho 1396" d="M1839.172,785.316c2.96.3,2.139,4.017,8.435.46,3.747-2.124,3.582-7.428,1-10.207-2.589-.008-5.541.253-6.534-1.1-1.121-.977-.783-2.341.019-3.562a9.515,9.515,0,0,1,3.874,1.051l.21-2.5-4.162-3.535c4.037-2.276,9.222-3.676,8.481-6.381,3.665-2-2.213-13.159-4.731-14.561-6.109,5.26-11.326,10.123-16.424,11.356-4.251,1.484-1.83,10.054-3.012,13.555C1824.689,776.171,1829.173,784.155,1839.172,785.316Z" transform="translate(-1800.511 -667.313)" fill="#2a195b"/>
    <path id="Caminho_1397" data-name="Caminho 1397" d="M1820.75,1023.756c-9.01,1.548-18.848-2.322-22.22-4.975l-.055-.054a2.2,2.2,0,0,1-.552-.83c-.553-1.382-.276-3.869.552-7.3.166-.718.332-1.492.553-2.322,2.653-10.17,8.457-26.752,11.884-46.651,5.306-31.008-1.161-59.309-12.382-73.349a1.888,1.888,0,0,0,.553-.055,46.623,46.623,0,0,0,8.07-1,33.42,33.42,0,0,0,6.744-2.321,201.825,201.825,0,0,1,6.466,43.39c.332,11.275-6.135,49.359-12.989,82.413a7.852,7.852,0,0,1-2.6.442,8.2,8.2,0,0,0,.332,4.7c.222-.11.387-.221.608-.332C1810.359,1016.791,1817.931,1020.329,1820.75,1023.756Z" transform="translate(-1743.104 -676.504)" opacity="0.1"/>
    <path id="Caminho_1398" data-name="Caminho 1398" d="M1866.9,924.029v.055c-.276,1.824-.552,3.537-.829,5.085-1.99,11.054-16.084,46.982-29.516,77.992a11.03,11.03,0,0,1-2.709,0,8.925,8.925,0,0,0-.552,4.588c.22-.055.442-.166.663-.221,4.2,2.155,10.667,7.02,12.934,10.889-7.406-1.382-17.743-5.2-19.9-9.176a2.966,2.966,0,0,1-.221-2.543c.332-.718,1.105-2.486,2.155-4.974.277-.607.553-1.216.83-1.934,7.3-17.08,25.039-58.977,28.244-70.419,3.7-12.99,4.034-19.568.055-29.3A77.684,77.684,0,0,1,1866.9,924.029Z" transform="translate(-1816.281 -677.763)" opacity="0.1"/>
    <g id="Grupo_1179" data-name="Grupo 1179" transform="translate(69.038 107.518)">
      <path id="Caminho_1399" data-name="Caminho 1399" d="M1745.181,798.1l21.089,18.266,30.857-29.788,5.558,4.55c-11.03,18.165-22.939,35.184-33.425,40.515-5.061,2.108-19.143-5.064-25.811-9.734Z" transform="translate(-1743.449 -777.564)" fill="#f0eff4"/>
      <path id="Caminho_1400" data-name="Caminho 1400" d="M1740.923,790.5s6.087-1.563,7.439-5c1.442-3.657-4.805-8.9-7.439-8.555s-1.387,5.526-2.642,5.379-.923-2.253-2.179-2.031-.737,5.653-.737,5.653Z" transform="translate(-1681.687 -776.93)" fill="#fbd783"/>
    </g>
    <path id="Caminho_1401" data-name="Caminho 1401" d="M1817.668,810.663c-7.406,10.557-14.924,19.069-21.778,22.552-4.311,1.824-15.255-3.151-22.5-7.573,1,21.668,1.105,41.068-1.547,54.335v.055c-3.317,1.934-9.231,3.04-15.919,3.371a10.5,10.5,0,0,1,1.327-1.547c2.21-2.377,3.758-7.628,4.808-14.316,3.207-20.4,1.825-53.671,1.825-53.671s2.6,1.935,6.578,4.367c.829.5,1.657,1.05,2.6,1.6,5.8,3.317,13.377,7.076,19.788,8.015C1802.136,829.179,1808.326,821.22,1817.668,810.663Z" transform="translate(-1701.053 -671.628)" opacity="0.1"/>
    <path id="Caminho_1402" data-name="Caminho 1402" d="M1661.941,654.366l34.834-24.708c1.165-.721,2.908-.191,4.613,1.23a3.093,3.093,0,0,1,1.568.6,8.266,8.266,0,0,1,2.253,2.48c1.1,1.829,1.489,3.728,1.044,4.817.465,2.149.165,3.95-1,4.671l-41.107,21.675-19.642,10.339c-3.152,1.942-6.9-4.16-3.75-6.1l12.552-8.88a.167.167,0,0,0-.081-.069l-.013.031Z" transform="translate(-1591.561 -577.082)" opacity="0.1"/>
    <g id="Grupo_1180" data-name="Grupo 1180" transform="translate(49.832 55.596)">
      <path id="Caminho_1403" data-name="Caminho 1403" d="M1695.163,639.74l-55.873,39.921c-3.144,1.954.627,8.043,3.772,6.089l19.6-10.411,41.026-21.828-3.685-5.945-.589-.963Z" transform="translate(-1638.108 -639.415)" fill="#6c38b8"/>
      <path id="Caminho_1404" data-name="Caminho 1404" d="M1635.908,639.141c-1.881,1.16-1.515,5.184.823,8.991a16.509,16.509,0,0,0,1.6,2.132c2.137,2.421,4.579,3.553,6.1,2.647,1.163-.726,1.456-2.528.983-4.675a14.169,14.169,0,0,0-1.838-4.329,16.221,16.221,0,0,0-1.571-2.12,9.15,9.15,0,0,0-1.486-1.433C1638.815,638.939,1637.071,638.415,1635.908,639.141Z" transform="translate(-1578.853 -638.817)" fill="#10e2e4"/>
      <path id="Caminho_1405" data-name="Caminho 1405" d="M1636.427,643.148a1.236,1.236,0,0,0-.861.159c-1.163.726-.953,3.166.5,5.491a6.7,6.7,0,0,0,.627.869c1.379,1.789,3.047,2.68,4.066,2.042a1.47,1.47,0,0,0,.563-.678c.441-1.09.048-2.988-1.062-4.813a8.262,8.262,0,0,0-2.262-2.471A3.1,3.1,0,0,0,1636.427,643.148Z" transform="translate(-1574.754 -641.61)" fill="#7673d4"/>
      <path id="Caminho_1406" data-name="Caminho 1406" d="M1701.806,639.141l-55.873,39.921c-3.144,1.954.627,8.043,3.772,6.089l19.6-10.412a43.483,43.483,0,0,1,5.653-9.6,32.441,32.441,0,0,1,18.284-11.271c3.808-.816,8.082-1.082,10.985-3.605a3.669,3.669,0,0,0,.438-.366,9.541,9.541,0,0,0,1.981-2.931l.038-.093a18.372,18.372,0,0,0,1.221-5.086,7.157,7.157,0,0,0,.084-.835,3.1,3.1,0,0,0-1.57-.6C1704.714,638.939,1702.969,638.415,1701.806,639.141Z" transform="translate(-1644.751 -638.817)" opacity="0.5" fill="url(#linear-gradient)" style="mix-blend-mode: overlay;isolation: isolate"/>
    </g>
  </g>
</svg>
