<svg xmlns="http://www.w3.org/2000/svg" xmlns:xlink="http://www.w3.org/1999/xlink" width="247.254" height="292.411" viewBox="0 0 247.254 292.411">
  <defs>
    <linearGradient id="linear-gradient" y1="0.5" x2="1" y2="0.5" gradientUnits="objectBoundingBox">
      <stop offset="0" stop-color="#fff"/>
      <stop offset="0.12" stop-color="#e7e7e7"/>
      <stop offset="0.372" stop-color="#ababab"/>
      <stop offset="0.733" stop-color="#4b4b4b"/>
      <stop offset="1"/>
    </linearGradient>
  </defs>
  <g id="Grupo_1200" data-name="Grupo 1200" transform="translate(-1536.024 -687.116)">
    <path id="Caminho_1279" data-name="Caminho 1279" d="M1784.627,893.9c-2.352-11.225,3.581-23.787,2.94-47.841a13.178,13.178,0,0,0,2.78-1.871c-.375-5.4-.589-10.8-.589-16.143-.107-30.629,4.6-58.852-4.543-66.015-3.581-1.871-9.14-2.566-15.288-2.352,0-.053.107-.107.161-.214a15.058,15.058,0,0,1-1.818-4.971c4.6-.642,3.8-1.123,5.88-2.94,8.018-7.484,8.018-21.114,2.566-25.6-3.314-2.352-6.094-6.628-10.8-5.185-4.6-2.673-13.043-6.628-20.313-.053-1.336,2.886-2.3,8.5.321,12.08a2.865,2.865,0,0,0,2.62,1.657c1.015,7.323,3.849,16.731,6.842,20.152a5.849,5.849,0,0,0,3.207.8,26.267,26.267,0,0,1-.962,5.291c.054.161.267.215.427.321a75.577,75.577,0,0,0-16.3,4.918c0-.054,0-.054-.053-.054-.267.427-.535.855-.8,1.229l-31.431-17.746a.052.052,0,0,0-.053-.054l3.1-11.332,3.955-14.592a4.019,4.019,0,0,0-3.42-5.238l-85.311-12.989a5.3,5.3,0,0,0-5.88,3.8l-5.184,18.976c-5.613.695-10.958,3.795-12.99,11.492-3.153,11.653.8,16.464-3.634,23.252-3.261,5.025-8.232,9.461-7.43,14.432l-.374.481-.7,8.5c.161.107.482.267.7.374-.107.749-.161,1.5-.267,2.3-1.5,15.555-1.016,36.883-2.62,58.318a11.14,11.14,0,0,0,3.528,2.191c-.909,24.909,5.292,37.738,2.886,49.177-1.176,5.56-4.65,18.5-8.445,31.912h21.22q.481-1.2.963-2.406c5.559-14.646,9.728-26.673,10.744-32.393.16-.962.32-2.085.481-3.1.106-.749.214-1.337.321-2.139v-.053c.107-.695.214-1.5.32-2.245,2.138,5.88,3.742,10.8,3.742,15.769,0,4.81-.588,15.073-1.336,26.566h20.632c1.657-10.21,2.94-19.243,3.581-25.872a80.079,80.079,0,0,0,.428-8.5c0-.855-.054-1.817-.107-2.726-.054-.642-.054-1.283-.108-1.978,0-.374-.053-.748-.053-1.176a188.979,188.979,0,0,0-5.506-35.332c0-.108-.053-.214-.053-.321a14.214,14.214,0,0,1-.374-1.443,169.567,169.567,0,0,0,1.978-18.442c.214-3.849.427-7.965.588-12.241.161-4.6.214-9.3.267-14,2.031,1.87,3.688,2.993,4.864,2.993a44.862,44.862,0,0,0,14.165-3.849h.054a168.324,168.324,0,0,0,23.679-13.1c3.421-2.245,6.949-4.6,10.424-7a21.165,21.165,0,0,0,2.886-1.818c1.55-1.123,3.154-2.727,3.581-4.544,1.123-4.6,1.337-8.82-1.283-9.622l3.8-14,.107.107c9.621,9.247,19.35,17.747,28.063,23.359h.053c.642.428,1.23.749,1.818,1.123a34.6,34.6,0,0,0,.534,4.276l1.871,3.528c-.962,13.844-1.925,30.949-1.871,43.4l-2.94,8.125-1.924,5.345,5.078,2.566-5.078-2.512s-5.291,1.764-4.971,3.047,1.336-.321,2.031.8c.642,1.069-5.613.962-4.81,3.581.748,2.62,3.421,3.42,8.018,2.352a7.512,7.512,0,0,0,3.688-2.513c-.107.588-.213,1.123-.32,1.711-.268,1.176-.534,2.352-.749,3.474-.374,1.71-.641,3.367-.908,5.025-.267,1.39-.481,2.779-.695,4.115s-.375,2.62-.588,3.9c-.161,1.39-.321,2.726-.481,4.062-.054.588-.107,1.122-.16,1.71-.214,1.5-.322,2.993-.428,4.384a1.33,1.33,0,0,0-.053.427c-.267,3.207-.481,6.147-.535,8.66a69.362,69.362,0,0,0,.482,8.5c.695,7.644,2.245,18.334,4.276,30.415h20.206c-.909-13.257-1.6-25.712-1.6-31.11,0-4.972,1.6-9.89,3.742-15.769.053.749.16,1.6.267,2.3v.054c.107.695.214,1.336.321,2.031.16,1.069.32,2.191.534,3.154,1.176,6.575,6.468,21.649,13.417,39.342h20.74C1790.133,915.438,1785.91,900.044,1784.627,893.9ZM1653.56,795.756l-8.339-17.8a21.125,21.125,0,0,0,1.069-1.871l43.244,6.628Z" transform="translate(-11.294 -3.956)" opacity="0.1"/>
    <g id="Grupo_1147" data-name="Grupo 1147" transform="translate(1536.024 687.116)">
      <g id="Grupo_1142" data-name="Grupo 1142" transform="translate(39.706)">
        <path id="Caminho_1280" data-name="Caminho 1280" d="M1697.133,705.407l-3.956,14.6-11.392,41.808a5.435,5.435,0,0,1-5.933,3.8l-85.317-13.013a4.1,4.1,0,0,1-3.441-5.221l6.329-23.139,9.057-33.265a5.389,5.389,0,0,1,5.894-3.8l85.317,13.013A4.055,4.055,0,0,1,1697.133,705.407Z" transform="translate(-1586.937 -687.116)" fill="#00edff"/>
        <path id="Caminho_1281" data-name="Caminho 1281" d="M1693.177,728.677l-11.392,41.808a5.435,5.435,0,0,1-5.933,3.8l-85.317-13.013a4.1,4.1,0,0,1-3.441-5.221l6.329-23.139c.514-.316,1.028-.593,1.543-.87,7.2-3.8,15.386-6.606,23.376-5.1,10.758,2.057,18.867,11.47,29.547,13.923a39.667,39.667,0,0,0,8.385.831c6.843.118,13.765-.356,20.212-2.65C1682.656,736.786,1688.154,732.949,1693.177,728.677Z" transform="translate(-1586.937 -695.79)" opacity="0.5" fill="url(#linear-gradient)" style="mix-blend-mode: overlay;isolation: isolate"/>
        <path id="Caminho_1282" data-name="Caminho 1282" d="M1653.455,740.069l-38.255-7.194,7.42-33.565,38.707,5.148Z" transform="translate(-1593.159 -689.8)" fill="#fff"/>
        <path id="Caminho_1283" data-name="Caminho 1283" d="M1708.918,715.51l-29.97-4.569.9-3.312,29.97,4.569Z" transform="translate(-1607.191 -691.631)" fill="#fff"/>
        <path id="Caminho_1284" data-name="Caminho 1284" d="M1706,726.221l-29.97-4.569.9-3.312,29.97,4.569Z" transform="translate(-1606.548 -693.989)" fill="#fff"/>
        <path id="Caminho_1285" data-name="Caminho 1285" d="M1703.077,736.932l-29.97-4.569.9-3.312,29.97,4.569Z" transform="translate(-1605.905 -696.347)" fill="#fff"/>
        <path id="Caminho_1286" data-name="Caminho 1286" d="M1659.083,766.6l-46.243-7.05,1.272-4.667,46.243,7.05Z" transform="translate(-1592.639 -702.033)" fill="#fff"/>
        <path id="Caminho_1287" data-name="Caminho 1287" d="M1656.922,774.521l-46.243-7.05,1.272-4.667,46.243,7.05Z" transform="translate(-1592.164 -703.777)" fill="#fff"/>
      </g>
      <g id="Grupo_1143" data-name="Grupo 1143" transform="translate(24.947 31.454)">
        <path id="Caminho_1288" data-name="Caminho 1288" d="M1635.2,745.63c-.418.946-.835,1.865-1.28,2.783-5.594,12.135-11.55,23.6-17.645,31.979l-.028.055c-3.395,4.593-6.79,8.239-10.186,10.52-2.895,1.671-13.387-1.141-22.878-4.508a125.03,125.03,0,0,1-15.169-6.318l.724-8.489,8.629-11.828.055-.083,23.741,16.031,27.776-34.122Z" transform="translate(-1568.012 -730.575)" fill="#f0eff4"/>
        <path id="Caminho_1289" data-name="Caminho 1289" d="M1646.145,738.525a26.156,26.156,0,0,1,2.684-6.667l9.259-4.195c2.259-.925,3.2,1.379.944,2.3l-4.534,2.671c1.5,2.02.917,4.566.662,6.763l-2.756,3.1Z" transform="translate(-1585.211 -727.448)" fill="#fbd783"/>
        <path id="Caminho_1290" data-name="Caminho 1290" d="M1638.2,750.322c-5.594,12.135-11.55,23.6-17.646,31.979l-.028.055c-3.395,4.593-6.79,8.238-10.186,10.52-2.895,1.671-13.388-1.141-22.879-4.508a51.712,51.712,0,0,1,10.075-2.783C1622.781,780.965,1627.262,763.486,1638.2,750.322Z" transform="translate(-1572.293 -732.484)" opacity="0.1"/>
      </g>
      <ellipse id="Elipse_243" data-name="Elipse 243" cx="17.385" cy="2.694" rx="17.385" ry="2.694" transform="translate(0 287.023)" opacity="0.1"/>
      <g id="Grupo_1144" data-name="Grupo 1144" transform="translate(43.813 132.98)">
        <path id="Caminho_1291" data-name="Caminho 1291" d="M1616.684,1039.646a8.284,8.284,0,0,0,.384,4.8c.995,2.788-13.483,3.754-13.483,3.754a10.3,10.3,0,0,1,1.517-7.307c2.344-3.447,2.344-5.929,2.344-5.929Z" transform="translate(-1594.677 -896.666)" fill="#fbd783"/>
        <path id="Caminho_1292" data-name="Caminho 1292" d="M1592.2,860.269c2.381,35.877,14.7,49.206,14.7,63.086s-4.826,74.365-4.826,74.365c1.792,2.275,11.51,3.789,14.845,2.389,7.01-33.933,13.627-72.994,13.329-84.568a206.975,206.975,0,0,0-10.663-57.91Z" transform="translate(-1592.203 -857.631)" fill="#00edff"/>
        <path id="Caminho_1293" data-name="Caminho 1293" d="M1601.86,1048.092c-1.973,3.431-2.3,6.623-.9,9.567,11.245.149,22.194.558,32.68.062,0-4.034-10.705-9.391-16.678-11.031A17.568,17.568,0,0,1,1601.86,1048.092Z" transform="translate(-1593.943 -899.248)" fill="#3f216b"/>
      </g>
      <g id="Grupo_1145" data-name="Grupo 1145" transform="translate(2.535 128.588)">
        <path id="Caminho_1294" data-name="Caminho 1294" d="M1558.339,1032.1a8.28,8.28,0,0,0-.6,4.777c.4,2.932-13.966.925-13.966.925a10.3,10.3,0,0,1,2.975-6.845c3-2.9,3.5-5.326,3.5-5.326Z" transform="translate(-1540.264 -890.22)" fill="#fbd783"/>
        <path id="Caminho_1295" data-name="Caminho 1295" d="M1566.341,852c-4.985,35.609,4.355,51.17,1.525,64.758s-19.89,71.818-19.89,71.818c1.291,2.592,10.5,6.057,14.046,5.367,13.783-31.791,28.226-68.682,30.294-80.073a206.96,206.96,0,0,0,1.37-58.868Z" transform="translate(-1541.189 -851.999)" fill="#00edff"/>
        <path id="Caminho_1296" data-name="Caminho 1296" d="M1542.362,1037.605c-2.631,2.956-3.6,6.015-2.834,9.182,10.979,2.439,21.614,5.073,31.982,6.726.823-3.95-8.565-11.378-14.078-14.2A17.569,17.569,0,0,1,1542.362,1037.605Z" transform="translate(-1539.274 -892.856)" fill="#3f216b"/>
      </g>
      <path id="Caminho_1297" data-name="Caminho 1297" d="M1620.918,806.99c-.053,18.067-1.336,37.043-2.833,44.688-3.314,1.87-5.291,1.39-11.919,1.87-1.39.108-2.833.108-4.383.108-13.791-.054-32.393-3.689-36.562-7.911,2.779-36.3-.642-72.162,10.156-80.555,8.927-4.757,28.33-2.619,41.693,3.368,2.62,4.971,3.688,18.441,3.8,33.408C1620.918,803.623,1620.918,805.28,1620.918,806.99Z" transform="translate(-1542.45 -703.729)" fill="#f0eff4"/>
      <path id="Caminho_1298" data-name="Caminho 1298" d="M1592.134,759.548c1.916-3.243,2.3-6.9,2.463-11.045h8.808a37.749,37.749,0,0,0,1.2,12.285C1603.688,762.515,1593,761.833,1592.134,759.548Z" transform="translate(-1548.375 -700.629)" fill="#fbd783"/>
      <path id="Caminho_1299" data-name="Caminho 1299" d="M1593.217,746.409c5.28,2.373,10.6,4.831,13.837,2.64,3.664-4.145,7.063-17.185,7.313-24.511l-21.121-1.511Z" transform="translate(-1548.614 -695.021)" fill="#fbd783"/>
      <path id="Caminho_1300" data-name="Caminho 1300" d="M1634.779,1017.743c-9.248,1.589-19.347-2.382-22.809-5.106l-.056-.056a2.255,2.255,0,0,1-.568-.852c-.567-1.419-.284-3.972.568-7.489.17-.738.34-1.533.567-2.383,2.723-10.44,8.681-27.462,12.2-47.887,5.447-31.831-1.192-60.881-12.71-75.293a1.921,1.921,0,0,0,.568-.057c2.894-.113,5.674.393,8.284-.175,2.44-.567,5.209-.614,7.365-1.635a190.089,190.089,0,0,1,6.2,42.946c.341,11.575-6.3,50.667-13.334,84.6a8.064,8.064,0,0,1-2.667.454,8.4,8.4,0,0,0,.341,4.823c.227-.113.4-.227.625-.34C1624.113,1010.594,1631.886,1014.225,1634.779,1017.743Z" transform="translate(-1552.539 -728.872)" opacity="0.1"/>
      <path id="Caminho_1301" data-name="Caminho 1301" d="M1594.214,918.82v.057c-.284,1.872-.568,3.631-.851,5.22-2.043,11.348-16.512,48.228-30.3,80.059a11.332,11.332,0,0,1-2.78,0,9.148,9.148,0,0,0-.568,4.709c.227-.056.454-.17.681-.227,4.313,2.213,10.951,7.206,13.278,11.178-7.6-1.419-18.213-5.334-20.427-9.419a3.046,3.046,0,0,1-.227-2.609c.341-.738,1.135-2.553,2.213-5.107.283-.624.567-1.249.851-1.987,7.49-17.531,25.7-60.54,28.993-72.285,3.8-13.333,4.142-20.086.057-30.072A79.71,79.71,0,0,1,1594.214,918.82Z" transform="translate(-1539.719 -733.611)" opacity="0.1"/>
      <g id="Grupo_1146" data-name="Grupo 1146" transform="translate(55.162 64.722)">
        <path id="Caminho_1302" data-name="Caminho 1302" d="M1683.248,787.693c-3.475,2.405-7,4.756-10.424,7a168.357,168.357,0,0,1-23.68,13.1h-.053a44.869,44.869,0,0,1-14.166,3.849c-1.175,0-2.832-1.123-4.864-2.994a76.055,76.055,0,0,1-7.75-8.552,216.137,216.137,0,0,1-15.555-21.7l6.093-2.566,13.363-5.612.214-.108,12.133,25.978,41.373-15.02Z" transform="translate(-1606.756 -770.106)" fill="#f0eff4"/>
        <path id="Caminho_1303" data-name="Caminho 1303" d="M1703.891,788.111s5.643-2.656,6.507-6.343c1.083-4.622,1.3-8.884-1.32-9.661s-3.122,7.9-4.237,7.239.079-2.5-1.19-2.817-3.061,4.986-3.061,4.986Z" transform="translate(-1627.412 -770.536)" fill="#fbd783"/>
      </g>
      <path id="Caminho_1304" data-name="Caminho 1304" d="M1603.248,730.152c4.994-.144,10.955-5.657,6.517-9.809s-24.77-9.45-29.334,7.485c-3.14,11.652.81,16.512-3.6,23.3s-12.027,12.456-4.152,19.9,22.563,9.88,26.888,3.436,12.3-11.112,5.52-16.724-6.009-7.5-3.207-14.939S1603.248,730.152,1603.248,730.152Z" transform="translate(-1543.341 -693.508)" fill="#2a195b"/>
      <path id="Caminho_1305" data-name="Caminho 1305" d="M1674,801.635a168.346,168.346,0,0,1-23.68,13.1h-.053a44.865,44.865,0,0,1-14.166,3.849c-1.175,0-2.832-1.123-4.864-2.994-.053,18.067-1.336,37.043-2.833,44.687-3.313,1.87-5.291,1.39-11.919,1.87-1.39.107-2.833.107-4.383.107l.107-.107c15.02-15.021,12.348-46.344,11.279-55.11-.161-1.5-.321-2.352-.321-2.352a14.834,14.834,0,0,0,8.018,5.88C1641.555,814.143,1657.7,809.814,1674,801.635Z" transform="translate(-1552.771 -712.325)" opacity="0.1"/>
    </g>
    <g id="Grupo_1152" data-name="Grupo 1152" transform="translate(1661.988 699.169)">
      <g id="Grupo_1148" data-name="Grupo 1148" transform="translate(0 26.466)">
        <path id="Caminho_1306" data-name="Caminho 1306" d="M1713.644,749.88c.734.729,1.457,1.433,2.206,2.126,9.631,9.263,19.355,17.771,28.083,23.352l.047.042c4.835,3.039,9.326,5.2,13.319,6.086,3.3.5,12.051-5.94,19.663-12.534a124.928,124.928,0,0,0,11.824-11.41l-32.461,8.008-38.3-21.657Z" transform="translate(-1701.087 -738.133)" fill="#2c2789"/>
        <path id="Caminho_1307" data-name="Caminho 1307" d="M1714.473,742.271a26.152,26.152,0,0,0-4.929-5.231l-10.151-.533c-2.441-.039-2.48,2.45-.039,2.489l5.2.836c-.66,2.427.81,4.586,1.847,6.539l3.7,1.885Z" transform="translate(-1697.543 -736.507)" fill="#fbd783"/>
        <path id="Caminho_1308" data-name="Caminho 1308" d="M1716.473,754.3c9.63,9.263,19.355,17.771,28.083,23.352l.047.042c4.835,3.039,9.326,5.2,13.319,6.086,3.3.5,12.051-5.94,19.663-12.534a51.73,51.73,0,0,0-10.4,1.079C1742,777.215,1731.455,762.571,1716.473,754.3Z" transform="translate(-1701.711 -740.423)" opacity="0.1"/>
      </g>
      <ellipse id="Elipse_244" data-name="Elipse 244" cx="17.385" cy="2.694" rx="17.385" ry="2.694" transform="translate(86.519 270.451)" opacity="0.1"/>
      <g id="Grupo_1149" data-name="Grupo 1149" transform="translate(37.778 116.408)">
        <path id="Caminho_1309" data-name="Caminho 1309" d="M1768.548,1033.851a8.282,8.282,0,0,1-.385,4.8c-.994,2.788,13.484,3.754,13.484,3.754a10.307,10.307,0,0,0-1.517-7.308c-2.344-3.447-2.344-5.928-2.344-5.928Z" transform="translate(-1750.856 -890.872)" fill="#fbd783"/>
        <path id="Caminho_1310" data-name="Caminho 1310" d="M1786.146,854.474c-2.382,35.878-14.7,49.206-14.7,63.086s4.826,74.365,4.826,74.365c-1.793,2.275-11.511,3.789-14.846,2.39-7.009-33.934-13.627-72.995-13.328-84.568a206.961,206.961,0,0,1,10.662-57.911Z" transform="translate(-1746.448 -851.836)" fill="#fff"/>
        <path id="Caminho_1311" data-name="Caminho 1311" d="M1777.765,1042.3c1.973,3.43,2.295,6.622.9,9.566-11.246.149-22.194.558-32.682.063,0-4.033,10.706-9.391,16.679-11.031A17.57,17.57,0,0,0,1777.765,1042.3Z" transform="translate(-1745.985 -893.453)" fill="#3f216b"/>
      </g>
      <g id="Grupo_1150" data-name="Grupo 1150" transform="translate(64.768 112.016)">
        <path id="Caminho_1312" data-name="Caminho 1312" d="M1826.639,1026.306a8.282,8.282,0,0,1,.6,4.778c-.4,2.932,13.965.925,13.965.925a10.3,10.3,0,0,0-2.974-6.845c-3-2.9-3.5-5.327-3.5-5.327Z" transform="translate(-1790.729 -884.426)" fill="#fbd783"/>
        <path id="Caminho_1313" data-name="Caminho 1313" d="M1809.428,846.205c4.985,35.609-4.355,51.169-1.525,64.758s19.889,71.818,19.889,71.818c-1.291,2.593-10.5,6.057-14.046,5.367-13.783-31.791-28.226-68.681-30.294-80.073a207,207,0,0,1-1.371-58.868Z" transform="translate(-1780.593 -846.205)" fill="#fff"/>
        <path id="Caminho_1314" data-name="Caminho 1314" d="M1837.617,1031.811c2.632,2.955,3.6,6.015,2.833,9.181-10.978,2.438-21.614,5.072-31.981,6.725-.823-3.949,8.566-11.377,14.078-14.2A17.569,17.569,0,0,0,1837.617,1031.811Z" transform="translate(-1786.718 -887.062)" fill="#3f216b"/>
      </g>
      <path id="Caminho_1315" data-name="Caminho 1315" d="M1808.1,841.612c-4.64,4.717-21.965,7.038-35.886,6.187-6.651-.464-12.451-1.547-15.777-3.4-2.166-10.828.232-48.725,1.856-68.6.619-7.424,1.083-12.374,1.238-12.451,13.3-5.955,34.493-8.662,43.465-3.867C1813.743,767.828,1805.313,805.339,1808.1,841.612Z" transform="translate(-1710.317 -714.555)" fill="#2c2789"/>
      <path id="Caminho_1316" data-name="Caminho 1316" d="M1793.438,753.754c-1.916-3.244-2.3-6.9-2.464-11.045h-8.807a37.719,37.719,0,0,1-1.2,12.284C1781.884,756.72,1792.57,756.039,1793.438,753.754Z" transform="translate(-1715.908 -711.407)" fill="#fbd783"/>
      <path id="Caminho_1317" data-name="Caminho 1317" d="M1789.9,740.615c-5.28,2.372-10.6,4.83-13.836,2.639-3.665-4.145-7.064-17.185-7.313-24.511l21.121-1.511Z" transform="translate(-1713.219 -705.798)" fill="#fbd783"/>
      <path id="Caminho_1318" data-name="Caminho 1318" d="M1793.717,736.977c-2.409,2.164-.861,2.421-8.68,3.339-4.657.539-7.918-4.229-7.43-8.332,2.271-1.67,5.033-3.336,5.033-5.166.358-1.58-.816-2.562-2.3-3.119a10.357,10.357,0,0,0-2.729,3.412l-1.793-2.064,1.389-5.781c-5.011.591-10.609,1.821-11.695-1.033-2.621-3.557-1.631-9.218-.318-12.068,7.293-6.581,15.707-2.62,20.344.048,4.689-1.425,7.485,2.847,10.772,5.165C1801.778,715.856,1801.759,729.536,1793.717,736.977Z" transform="translate(-1712.142 -702.571)" fill="#2a195b"/>
      <path id="Caminho_1319" data-name="Caminho 1319" d="M1747.613,1011.5c9.248,1.589,19.348-2.383,22.809-5.107l.057-.056a2.252,2.252,0,0,0,.568-.851c.567-1.419.283-3.972-.568-7.49-.17-.738-.341-1.532-.568-2.383-2.723-10.439-8.681-27.462-12.2-47.887-5.447-31.83,1.192-60.881,12.709-75.293a1.923,1.923,0,0,1-.567-.057,47.857,47.857,0,0,1-8.284-1.021,34.33,34.33,0,0,1-6.922-2.383,207.179,207.179,0,0,0-6.639,44.54c-.34,11.575,6.3,50.668,13.334,84.6a8.092,8.092,0,0,0,2.667.453,8.409,8.409,0,0,1-.34,4.823c-.227-.114-.4-.227-.625-.341C1758.28,1004.349,1750.508,1007.981,1747.613,1011.5Z" transform="translate(-1708.565 -739.2)" opacity="0.1"/>
      <path id="Caminho_1320" data-name="Caminho 1320" d="M1783.19,913.026v.056c.284,1.872.567,3.632.851,5.22,2.043,11.348,16.511,48.228,30.3,80.059a11.334,11.334,0,0,0,2.781,0,9.16,9.16,0,0,1,.567,4.709c-.227-.056-.454-.17-.681-.227-4.312,2.213-10.95,7.206-13.277,11.178,7.6-1.419,18.213-5.334,20.426-9.418a3.041,3.041,0,0,0,.227-2.61c-.34-.737-1.135-2.553-2.212-5.107-.284-.624-.568-1.248-.852-1.985-7.489-17.532-25.7-60.541-28.993-72.286-3.8-13.333-4.142-20.085-.057-30.071A79.738,79.738,0,0,0,1783.19,913.026Z" transform="translate(-1716.396 -744.389)" opacity="0.1"/>
      <path id="Caminho_1321" data-name="Caminho 1321" d="M1772.211,853.035c-6.651-.464-12.451-1.546-15.777-3.4-2.166-10.828.232-48.725,1.856-68.6,4.95-1.238,10.518,2.63,18.175,11.138C1791.546,809.029,1781.492,816.995,1772.211,853.035Z" transform="translate(-1710.317 -719.793)" opacity="0.1"/>
      <g id="Grupo_1151" data-name="Grupo 1151" transform="translate(32.558 48.751)">
        <path id="Caminho_1322" data-name="Caminho 1322" d="M1779.805,800.826c-.134-5.6-14.481-31.483-21.687-35.744-4.728,6.342-5.108,14.494-3.924,20.369l10.072,19.005-14.922,41.4,6.636,3.311c8.184-11.867,15.679-23.877,20.032-34.147l.015-.052C1778.214,809.7,1779.585,804.921,1779.805,800.826Z" transform="translate(-1741.504 -765.082)" fill="#2c2789"/>
        <path id="Caminho_1323" data-name="Caminho 1323" d="M1753.742,871.976s-2.645,5.648-6.33,6.518c-4.62,1.092-7.271.24-8.053-2.373s5.463-2.469,4.8-3.583-1.673.488-1.994-.781,4.981-3.07,4.981-3.07Z" transform="translate(-1739.291 -787.888)" fill="#fbd783"/>
      </g>
    </g>
  </g>
</svg>
