<svg id="Grupo_3044" data-name="Grupo 3044" xmlns="http://www.w3.org/2000/svg" xmlns:xlink="http://www.w3.org/1999/xlink" width="634.646" height="95.007" viewBox="0 0 634.646 95.007">
  <defs>
    <clipPath id="clip-path">
      <rect id="Retângulo_827" data-name="Retângulo 827" width="634.646" height="95.007" fill="none"/>
    </clipPath>
  </defs>
  <rect id="Retângulo_823" data-name="Retângulo 823" width="0.508" height="66.868" transform="translate(297.168 7.836)" fill="#fff"/>
  <path id="Caminho_3845" data-name="Caminho 3845" d="M528.752,39.045H538.4v1.714h-7.6v5.551h6.114v1.714H530.8v6.446h7.675v1.714h-9.722Z" transform="translate(-217.047 -16.028)" fill="#fff"/>
  <g id="Grupo_3043" data-name="Grupo 3043">
    <g id="Grupo_3042" data-name="Grupo 3042" clip-path="url(#clip-path)">
      <path id="Caminho_3846" data-name="Caminho 3846" d="M548.191,55.092l.282-1.918a9.157,9.157,0,0,0,4.553,1.356c2,0,3.505-1.049,3.505-2.993,0-1.868-1.714-2.482-4.3-3.838-2.072-1.074-3.684-2.225-3.684-4.656,0-3.018,2.329-4.6,5.322-4.6a7.424,7.424,0,0,1,4.221,1.1l-.332,1.894a6.631,6.631,0,0,0-3.813-1.228c-2.1,0-3.325,1.2-3.325,2.609,0,1.484,1.049,2.226,3.275,3.351s4.809,2.354,4.809,5.3c0,2.917-2.353,4.835-5.577,4.835a10.312,10.312,0,0,1-4.937-1.2" transform="translate(-225.026 -15.778)" fill="#fff"/>
      <path id="Caminho_3847" data-name="Caminho 3847" d="M569.408,47.6c0-5.757,3.479-9.159,8.545-9.159a11.646,11.646,0,0,1,4.707,1L582.3,41.38A9.265,9.265,0,0,0,578.08,40.3c-4.17,0-6.5,2.764-6.5,7.292,0,4.247,2.661,6.8,6.728,6.8a8.83,8.83,0,0,0,4.3-1.1l.282,1.868a11.689,11.689,0,0,1-4.963,1.125c-5.244,0-8.519-3.351-8.519-8.7" transform="translate(-233.736 -15.778)" fill="#fff"/>
      <path id="Caminho_3848" data-name="Caminho 3848" d="M595.745,47.29c0-4.579,2.431-8.851,7.829-8.851,5.423,0,7.879,4.067,7.879,8.826,0,4.886-2.456,9.03-7.879,9.03-5.449,0-7.829-4.246-7.829-9m13.482-.025c0-4.093-1.868-7.01-5.653-7.01-3.812,0-5.6,3.172-5.6,7.035,0,4.068,1.792,7.214,5.6,7.214,3.786,0,5.653-3.1,5.653-7.24" transform="translate(-244.547 -15.779)" fill="#fff"/>
      <path id="Caminho_3849" data-name="Caminho 3849" d="M627.374,39.045h2.047V54.5h7.93v1.688h-9.977Z" transform="translate(-257.53 -16.028)" fill="#fff"/>
      <path id="Caminho_3850" data-name="Caminho 3850" d="M656.942,51.274h-6.7l-1.868,4.912h-2.123l6.8-17.141h1.305l6.728,17.141h-2.3Zm-6.037-1.74h5.4l-2.661-7.112Z" transform="translate(-265.278 -16.028)" fill="#fff"/>
      <path id="Caminho_3851" data-name="Caminho 3851" d="M684.214,39.045h5.475c6.447,0,8.724,3.71,8.724,8.546,0,4.425-2.456,8.6-8.519,8.6h-5.679Zm2.047,15.426h2.993c4.937,0,6.984-3.12,6.984-6.881,0-4.094-2-6.831-6.8-6.831h-3.172Z" transform="translate(-280.862 -16.028)" fill="#fff"/>
      <path id="Caminho_3852" data-name="Caminho 3852" d="M713.284,39.045h9.644v1.714h-7.6v5.551h6.114v1.714H715.33v6.446h7.675v1.714h-9.722Z" transform="translate(-292.795 -16.028)" fill="#fff"/>
      <path id="Caminho_3853" data-name="Caminho 3853" d="M741.923,45.237c0-6.874,3.907-10.212,9.555-10.212a11.439,11.439,0,0,1,5.277,1.2l-.57,3.166a9.609,9.609,0,0,0-4.536-1.2c-4.535,0-6.018,3.223-6.018,6.732,0,3.965,1.854,6.847,6.275,6.847a9.337,9.337,0,0,0,4.593-1.227l.513,3.052a11.811,11.811,0,0,1-5.59,1.341c-5.847,0-9.5-3.536-9.5-9.7" transform="translate(-304.551 -14.377)" fill="#fff"/>
      <path id="Caminho_3854" data-name="Caminho 3854" d="M770.234,44.98c0-5.619,2.767-9.955,8.786-9.955,6.189,0,8.87,4.421,8.87,9.927,0,5.733-2.824,9.983-8.87,9.983-6.076,0-8.786-4.364-8.786-9.954m13.948-.028c0-4.593-1.74-6.732-5.162-6.732-3.48,0-5.078,2.424-5.078,6.76,0,4.278,1.6,6.76,5.078,6.76,3.423,0,5.162-2.054,5.162-6.788" transform="translate(-316.173 -14.377)" fill="#fff"/>
      <path id="Caminho_3855" data-name="Caminho 3855" d="M804.591,35.7h4.022l5.677,12.722,5.5-12.722h3.994V54.813h-3.538V43.233l-5.191,11.58h-1.712l-5.191-11.638V54.813h-3.566Z" transform="translate(-330.276 -14.655)" fill="#fff"/>
      <path id="Caminho_3856" data-name="Caminho 3856" d="M842.776,47.967V35.7h3.68v11.61c0,2.4.941,4.564,4.25,4.564,3.052,0,4.307-1.912,4.307-4.308V35.7h3.68V48.224c0,4.507-3.566,6.988-8.044,6.988-4.136,0-7.872-2.168-7.872-7.245" transform="translate(-345.95 -14.655)" fill="#fff"/>
      <path id="Caminho_3857" data-name="Caminho 3857" d="M875.393,35.7h3.937l7.987,11.467V35.7h3.594V54.813h-2.624l-9.271-13.549V54.813h-3.622Z" transform="translate(-359.339 -14.655)" fill="#fff"/>
      <rect id="Retângulo_824" data-name="Retângulo 824" width="3.651" height="19.111" transform="translate(535.025 21.047)" fill="#fff"/>
      <path id="Caminho_3858" data-name="Caminho 3858" d="M918.173,45.237c0-6.874,3.907-10.212,9.555-10.212a11.439,11.439,0,0,1,5.277,1.2l-.57,3.166a9.609,9.609,0,0,0-4.536-1.2c-4.535,0-6.018,3.223-6.018,6.732,0,3.965,1.854,6.847,6.275,6.847a9.337,9.337,0,0,0,4.593-1.227l.513,3.052a11.81,11.81,0,0,1-5.59,1.341c-5.847,0-9.5-3.536-9.5-9.7" transform="translate(-376.9 -14.377)" fill="#fff"/>
      <path id="Caminho_3859" data-name="Caminho 3859" d="M957.51,50.193h-6.674l-1.826,4.621h-3.736L953.059,35.7h2.226l7.758,19.111h-3.708Zm-5.533-2.938h4.364l-2.167-5.506Z" transform="translate(-388.024 -14.655)" fill="#fff"/>
      <path id="Caminho_3860" data-name="Caminho 3860" d="M985.15,54.849c-4.963-.57-7.986-3.993-7.986-9.613,0-6.874,3.907-10.212,9.555-10.212a11.439,11.439,0,0,1,5.277,1.2l-.57,3.166a9.6,9.6,0,0,0-4.536-1.2c-4.535,0-6.018,3.223-6.018,6.731,0,3.965,1.854,6.846,6.275,6.846a9.337,9.337,0,0,0,4.593-1.227l.513,3.052a11.5,11.5,0,0,1-5.106,1.341L986.12,56.19c1.768.087,2.852.884,2.852,2.2,0,1.512-1.455,2.853-4.022,2.853a5.341,5.341,0,0,1-2.424-.571l.542-1.4a3.418,3.418,0,0,0,1.626.456c.57,0,1.112-.228,1.112-.741,0-.714-.856-.941-2.253-.941l-.314-.742Z" transform="translate(-401.115 -14.377)" fill="#fff"/>
      <path id="Caminho_3861" data-name="Caminho 3861" d="M1016.5,45.943h-6.674L1008,50.563h-3.736l7.786-19.111h2.226l7.758,19.111h-3.708Zm1.112-20.28c-.427,2.4-1.112,3.851-2.482,3.851-1.084,0-2.823-1.17-3.736-1.17-.542,0-.856.429-1.112,1.112l-1.227-.256c.428-2.4,1.112-3.851,2.482-3.851,1.084,0,2.823,1.169,3.736,1.169.542,0,.856-.427,1.112-1.112ZM1010.968,43h4.364l-2.167-5.506Z" transform="translate(-412.24 -10.405)" fill="#fff"/>
      <path id="Caminho_3862" data-name="Caminho 3862" d="M1036.156,44.98c0-5.619,2.767-9.955,8.786-9.955,6.189,0,8.87,4.421,8.87,9.927,0,5.733-2.823,9.983-8.87,9.983-6.075,0-8.786-4.364-8.786-9.954m13.948-.028c0-4.593-1.74-6.732-5.163-6.732-3.48,0-5.077,2.424-5.077,6.76,0,4.278,1.6,6.76,5.077,6.76,3.423,0,5.163-2.054,5.163-6.788" transform="translate(-425.331 -14.377)" fill="#fff"/>
      <path id="Caminho_3863" data-name="Caminho 3863" d="M1067.854,68.861a5.417,5.417,0,0,0,1.54-3.48,6.865,6.865,0,0,0-.4-2.2h3.68a5.132,5.132,0,0,1,.314,1.741c0,1.568-.856,3.48-3.137,5.219Z" transform="translate(-438.343 -25.937)" fill="#fff"/>
      <path id="Caminho_3864" data-name="Caminho 3864" d="M538.172,105H531.5l-1.826,4.621h-3.736l7.786-19.111h2.226l7.758,19.111H540Zm-5.533-2.938H537l-2.167-5.506Z" transform="translate(-215.891 -37.155)" fill="#fff"/>
      <path id="Caminho_3865" data-name="Caminho 3865" d="M558.6,109.624V90.513h6.3c3.48,0,6.275,1.2,6.275,5.392a4.962,4.962,0,0,1-4.421,5.02,3.438,3.438,0,0,1,2.2,1.826l2,3.537c.428.713.77.97,1.312.97h.8v2.367a9.556,9.556,0,0,1-2.339.228,3.194,3.194,0,0,1-2.938-1.939l-2.824-5.077a1.652,1.652,0,0,0-1.768-1.056h-.913v7.844Zm3.68-10.981h2.281c2.4,0,2.91-1.255,2.91-2.6,0-1.911-1.2-2.225-3.138-2.225H562.28Z" transform="translate(-229.299 -37.155)" fill="#fff"/>
      <path id="Caminho_3866" data-name="Caminho 3866" d="M597.877,90.513v3.338h-5.99v15.774h-3.68V93.851h-5.99V90.513Z" transform="translate(-238.994 -37.155)" fill="#fff"/>
      <path id="Caminho_3867" data-name="Caminho 3867" d="M612.607,90.513h11.21v3.309h-7.53v4.164h6.047v3.2h-6.047v5.134h7.673v3.309H612.607Z" transform="translate(-251.469 -37.155)" fill="#fff"/>
      <path id="Caminho_3868" data-name="Caminho 3868" d="M639.332,109.746a11.634,11.634,0,0,1-5.477-1.455l.456-3.109a10.105,10.105,0,0,0,4.964,1.541c1.8,0,2.938-1.027,2.938-2.339,0-3.594-7.958-3.308-7.958-9.014,0-3.565,2.653-5.533,5.962-5.533a10.34,10.34,0,0,1,4.963,1.227l-.542,3.109a7.824,7.824,0,0,0-4.137-1.227c-1.54,0-2.738.685-2.738,1.968,0,3.052,8.1,2.995,8.1,8.985,0,3.452-2.653,5.847-6.532,5.847" transform="translate(-260.191 -36.877)" fill="#fff"/>
      <path id="Caminho_3869" data-name="Caminho 3869" d="M666.809,90.513h11.21v3.309h-7.53v4.164h6.047v3.2h-6.047v5.134h7.673v3.309H666.809Z" transform="translate(-273.718 -37.155)" fill="#fff"/>
      <path id="Caminho_3870" data-name="Caminho 3870" d="M699.33,90.513h6.7c7.187,0,9.669,3.88,9.669,9.526,0,4.935-2.367,9.585-9.127,9.585H699.33Zm3.651,15.8h2.625c4.478,0,6.246-2.482,6.246-6.276,0-3.279-1.169-6.218-6.1-6.218h-2.768Z" transform="translate(-287.068 -37.155)" fill="#fff"/>
      <path id="Caminho_3871" data-name="Caminho 3871" d="M730.834,90.513h11.21v3.309h-7.53v4.164h6.047v3.2h-6.047v5.134h7.673v3.309H730.834Z" transform="translate(-300 -37.155)" fill="#fff"/>
      <path id="Caminho_3872" data-name="Caminho 3872" d="M757.6,109.746a11.634,11.634,0,0,1-5.477-1.455l.456-3.109a10.105,10.105,0,0,0,4.964,1.541c1.8,0,2.937-1.027,2.937-2.339,0-3.594-7.958-3.308-7.958-9.014,0-3.565,2.653-5.533,5.962-5.533a10.34,10.34,0,0,1,4.963,1.227l-.542,3.109a7.823,7.823,0,0,0-4.137-1.227c-1.54,0-2.738.685-2.738,1.968,0,3.052,8.1,2.995,8.1,8.985,0,3.452-2.653,5.847-6.532,5.847" transform="translate(-308.74 -36.877)" fill="#fff"/>
      <rect id="Retângulo_825" data-name="Retângulo 825" width="3.651" height="19.111" transform="translate(457.367 53.358)" fill="#fff"/>
      <path id="Caminho_3873" data-name="Caminho 3873" d="M785.713,100.048c0-6.389,3.536-10.212,9.954-10.212a12.572,12.572,0,0,1,5.676,1.255l-.656,3.137A9.982,9.982,0,0,0,795.839,93c-3.879,0-6.389,2.111-6.389,7.046,0,3.452,1.94,6.532,6.389,6.532a7.286,7.286,0,0,0,2.311-.371v-3.651h-3.28v-3.2h6.9v9.3a18.582,18.582,0,0,1-6.276,1.084c-5.761,0-9.783-3.423-9.783-9.7" transform="translate(-322.527 -36.877)" fill="#fff"/>
      <path id="Caminho_3874" data-name="Caminho 3874" d="M817.943,90.513h3.937l7.987,11.467V90.513h3.594v19.111h-2.624l-9.271-13.549v13.549h-3.622Z" transform="translate(-335.757 -37.155)" fill="#fff"/>
      <path id="Caminho_3875" data-name="Caminho 3875" d="M862.345,93.856h9.67v1.714h-7.624v5.653h6.319v1.74h-6.319V111h-2.047Z" transform="translate(-353.983 -38.527)" fill="#fff"/>
      <path id="Caminho_3876" data-name="Caminho 3876" d="M890.741,106.085h-6.7L882.17,111h-2.123l6.8-17.141h1.305L894.885,111h-2.3Zm-6.037-1.74h5.4l-2.662-7.112Z" transform="translate(-361.25 -38.527)" fill="#fff"/>
      <path id="Caminho_3877" data-name="Caminho 3877" d="M908.466,93.856h2.456l6.063,13.968L923.1,93.856h2.277V111H923.33V98.026L917.574,111h-1.279l-5.782-13.072V111h-2.047Z" transform="translate(-372.916 -38.527)" fill="#fff"/>
      <path id="Caminho_3878" data-name="Caminho 3878" d="M942.786,93.856h9.644v1.714h-7.6v5.551h6.114v1.714h-6.114v6.446h7.675V111h-9.722Z" transform="translate(-387.003 -38.527)" fill="#fff"/>
      <path id="Caminho_3879" data-name="Caminho 3879" d="M962.094,102.408c0-5.757,3.479-9.159,8.545-9.159a11.645,11.645,0,0,1,4.707,1l-.358,1.945a9.257,9.257,0,0,0-4.221-1.075c-4.17,0-6.5,2.764-6.5,7.292,0,4.247,2.662,6.8,6.729,6.8a8.836,8.836,0,0,0,4.3-1.1l.282,1.868a11.69,11.69,0,0,1-4.963,1.125c-5.244,0-8.519-3.351-8.519-8.7" transform="translate(-394.929 -38.278)" fill="#fff"/>
      <path id="Caminho_3880" data-name="Caminho 3880" d="M987.78,102.1c0-4.579,2.431-8.851,7.829-8.851,5.423,0,7.879,4.067,7.879,8.826,0,4.886-2.456,9.03-7.879,9.03-5.449,0-7.829-4.246-7.829-9m13.482-.025c0-4.093-1.868-7.01-5.653-7.01-3.812,0-5.6,3.172-5.6,7.035,0,4.068,1.792,7.214,5.6,7.214,3.786,0,5.653-3.1,5.653-7.24" transform="translate(-405.473 -38.278)" fill="#fff"/>
      <path id="Caminho_3881" data-name="Caminho 3881" d="M1016.937,109.9l.282-1.918a9.157,9.157,0,0,0,4.553,1.356c2,0,3.5-1.049,3.5-2.993,0-1.868-1.714-2.482-4.3-3.838-2.072-1.074-3.684-2.225-3.684-4.656,0-3.018,2.329-4.6,5.322-4.6a7.421,7.421,0,0,1,4.22,1.1l-.332,1.894a6.628,6.628,0,0,0-3.813-1.228c-2.1,0-3.325,1.2-3.325,2.609,0,1.484,1.049,2.226,3.275,3.351s4.809,2.354,4.809,5.3c0,2.917-2.353,4.835-5.576,4.835a10.312,10.312,0,0,1-4.937-1.2" transform="translate(-417.442 -38.278)" fill="#fff"/>
      <path id="Caminho_3882" data-name="Caminho 3882" d="M340.706,41.538v-.226C340.706,18.84,355.007,0,377.592,0S414.25,18.613,414.25,41.085v.226c0,22.471-14.186,41.311-36.885,41.311S340.706,64.01,340.706,41.538m51.413,0v-.226c0-12.6-6.015-21.791-14.754-21.791s-14.527,8.852-14.527,21.564v.226c0,12.711,5.9,21.791,14.754,21.791s14.527-8.966,14.527-21.564" transform="translate(-139.856)" fill="#db4152"/>
      <path id="Caminho_3883" data-name="Caminho 3883" d="M321.952,23.889H285.18V5.389h61.172v16.57L311.284,84.834H287Z" transform="translate(-117.063 -2.212)" fill="#db4152"/>
      <path id="Caminho_3884" data-name="Caminho 3884" d="M10.211,61.516a5.264,5.264,0,0,1-1.1,1.862,4.389,4.389,0,0,1-1.683,1.115,6.021,6.021,0,0,1-2.132.368A5.627,5.627,0,0,1,2.083,64,6.991,6.991,0,0,1,0,61.822l1.4-1.2a6.554,6.554,0,0,0,1.679,1.825,3.819,3.819,0,0,0,2.242.625,3.119,3.119,0,0,0,2.4-1.041,4.4,4.4,0,0,0,.956-3.075V47.463H10.61V58.931a7.662,7.662,0,0,1-.4,2.585" transform="translate(0 -19.483)" fill="#fff"/>
      <path id="Caminho_3885" data-name="Caminho 3885" d="M41.383,59.2a8.87,8.87,0,0,1-1.789,2.83,8.506,8.506,0,0,1-2.769,1.948,9.251,9.251,0,0,1-7.143.012,8.438,8.438,0,0,1-4.533-4.741,9.264,9.264,0,0,1-.625-3.394,9.108,9.108,0,0,1,.637-3.394,8.849,8.849,0,0,1,1.789-2.83,8.516,8.516,0,0,1,2.769-1.948,9.252,9.252,0,0,1,7.143-.012A8.443,8.443,0,0,1,41.4,52.415a9.279,9.279,0,0,1,.625,3.394,9.117,9.117,0,0,1-.637,3.394m-1.875-6.114a6.722,6.722,0,0,0-3.553-3.773,6.451,6.451,0,0,0-2.708-.564,6.58,6.58,0,0,0-2.708.551,6.384,6.384,0,0,0-2.12,1.507,7.033,7.033,0,0,0-1.384,2.242,7.5,7.5,0,0,0-.5,2.757,7.6,7.6,0,0,0,.5,2.769,6.722,6.722,0,0,0,3.553,3.773,6.447,6.447,0,0,0,2.708.564A6.573,6.573,0,0,0,36,62.364a6.39,6.39,0,0,0,2.12-1.507,7.041,7.041,0,0,0,1.384-2.242,7.511,7.511,0,0,0,.5-2.757,7.611,7.611,0,0,0-.5-2.769" transform="translate(-10.067 -19.278)" fill="#fff"/>
      <path id="Caminho_3886" data-name="Caminho 3886" d="M72.955,64.616,67.981,57.95h-4.9v6.666H61.144V47.463h7.375a8.314,8.314,0,0,1,2.561.368,5.779,5.779,0,0,1,1.948,1.042,4.645,4.645,0,0,1,1.249,1.618,4.889,4.889,0,0,1,.442,2.1,5.083,5.083,0,0,1-.343,1.924,4.394,4.394,0,0,1-.968,1.471,5.417,5.417,0,0,1-1.483,1.042,6.857,6.857,0,0,1-1.862.588l5.268,7ZM71.628,50.149a5.172,5.172,0,0,0-3.242-.9H63.08v6.984h5.281a6.052,6.052,0,0,0,1.769-.246,4.314,4.314,0,0,0,1.4-.7,3.21,3.21,0,0,0,.921-1.119,3.314,3.314,0,0,0,.332-1.5,3.008,3.008,0,0,0-1.155-2.52" transform="translate(-25.099 -19.483)" fill="#fff"/>
      <path id="Caminho_3887" data-name="Caminho 3887" d="M103.816,47.463H105.7V64.616h-1.543L93.084,50.55V64.616H91.2V47.463H93.01L103.816,61.21Z" transform="translate(-37.435 -19.483)" fill="#fff"/>
      <path id="Caminho_3888" data-name="Caminho 3888" d="M138.987,64.53H136.9L134.895,60h-9.336l-2.034,4.533H121.54l7.817-17.276h1.813Zm-8.748-15-3.921,8.748h7.817Z" transform="translate(-49.891 -19.397)" fill="#fff"/>
      <path id="Caminho_3889" data-name="Caminho 3889" d="M156.872,47.463h1.936V62.827h9.654v1.789h-11.59Z" transform="translate(-64.394 -19.483)" fill="#fff"/>
      <rect id="Retângulo_826" data-name="Retângulo 826" width="1.936" height="17.152" transform="translate(107.817 27.981)" fill="#fff"/>
      <path id="Caminho_3890" data-name="Caminho 3890" d="M195.619,52.665a2.189,2.189,0,0,0,.71.9,5.2,5.2,0,0,0,1.421.736,17,17,0,0,0,2.328.625,10.1,10.1,0,0,1,4.227,1.767,3.83,3.83,0,0,1,1.36,3.117,4.6,4.6,0,0,1-.436,2.013,4.545,4.545,0,0,1-1.2,1.546,5.39,5.39,0,0,1-1.843.982,7.726,7.726,0,0,1-2.353.343,10.272,10.272,0,0,1-3.761-.664,10.618,10.618,0,0,1-3.247-2.056l1.2-1.421a10.108,10.108,0,0,0,2.72,1.825,7.811,7.811,0,0,0,3.161.6,4.411,4.411,0,0,0,2.781-.81,2.574,2.574,0,0,0,1.042-2.135,2.857,2.857,0,0,0-.2-1.092,2.187,2.187,0,0,0-.688-.871,4.872,4.872,0,0,0-1.363-.712,17.41,17.41,0,0,0-2.223-.614,17.851,17.851,0,0,1-2.567-.736A6.367,6.367,0,0,1,194.887,55a3.687,3.687,0,0,1-1.056-1.375,4.623,4.623,0,0,1-.344-1.865,4.274,4.274,0,0,1,.417-1.889,4.39,4.39,0,0,1,1.176-1.484,5.73,5.73,0,0,1,1.789-.982,6.863,6.863,0,0,1,2.254-.356,9.525,9.525,0,0,1,3.3.52,9.99,9.99,0,0,1,2.732,1.563l-1.127,1.494A8.381,8.381,0,0,0,201.61,49.2a7.375,7.375,0,0,0-2.536-.44,4.83,4.83,0,0,0-1.507.22,3.831,3.831,0,0,0-1.152.59,2.532,2.532,0,0,0-.735.884,2.44,2.44,0,0,0-.258,1.1,2.953,2.953,0,0,0,.2,1.1" transform="translate(-79.153 -19.312)" fill="#fff"/>
      <path id="Caminho_3891" data-name="Caminho 3891" d="M229.533,59.911h-.1l-6.249-9.165V64.616H221.3V47.463h1.96l6.248,9.361,6.249-9.361h1.96V64.616h-1.936V50.722Z" transform="translate(-90.841 -19.483)" fill="#fff"/>
      <path id="Caminho_3892" data-name="Caminho 3892" d="M272.949,59.2a8.869,8.869,0,0,1-1.789,2.83,8.506,8.506,0,0,1-2.769,1.948,9.251,9.251,0,0,1-7.143.012,8.438,8.438,0,0,1-4.533-4.741,9.264,9.264,0,0,1-.625-3.394,9.108,9.108,0,0,1,.637-3.394,8.849,8.849,0,0,1,1.789-2.83,8.516,8.516,0,0,1,2.769-1.948,9.252,9.252,0,0,1,7.143-.012,8.443,8.443,0,0,1,4.533,4.741,9.279,9.279,0,0,1,.625,3.394,9.117,9.117,0,0,1-.637,3.394m-1.875-6.114a6.722,6.722,0,0,0-3.553-3.773,6.451,6.451,0,0,0-2.708-.564,6.585,6.585,0,0,0-2.708.551,6.387,6.387,0,0,0-2.119,1.507,7.034,7.034,0,0,0-1.384,2.242,7.5,7.5,0,0,0-.5,2.757,7.6,7.6,0,0,0,.5,2.769,6.722,6.722,0,0,0,3.553,3.773,6.447,6.447,0,0,0,2.708.564,6.573,6.573,0,0,0,2.708-.551,6.39,6.39,0,0,0,2.12-1.507,7.041,7.041,0,0,0,1.384-2.242,7.511,7.511,0,0,0,.5-2.757,7.611,7.611,0,0,0-.5-2.769" transform="translate(-105.122 -19.278)" fill="#fff"/>
      <path id="Caminho_3893" data-name="Caminho 3893" d="M144.36,89.03h7.351c4.337,0,7.131,2.23,7.131,6.028v.05c0,4.043-3.112,6.175-7.376,6.175h-2.352v4.9H144.36Zm7.008,8.527c1.691,0,2.72-.882,2.72-2.23v-.049c0-1.47-1.029-2.254-2.745-2.254h-2.23v4.533Z" transform="translate(-59.258 -36.546)" fill="#fff"/>
      <path id="Caminho_3894" data-name="Caminho 3894" d="M171.96,98.66V89.03h4.827v9.532c0,2.475,1.25,3.651,3.161,3.651s3.162-1.127,3.162-3.529V89.03h4.827v9.507c0,5.538-3.161,7.964-8.037,7.964s-7.939-2.475-7.939-7.841" transform="translate(-70.588 -36.546)" fill="#fff"/>
      <path id="Caminho_3895" data-name="Caminho 3895" d="M202.844,97.416v-.049a8.811,8.811,0,0,1,9.042-8.919,8.4,8.4,0,0,1,7.278,3.577l-3.578,2.77a4.591,4.591,0,0,0-3.749-2.01,4.242,4.242,0,0,0-4.092,4.533v.049c0,2.573,1.691,4.582,4.092,4.582a4.683,4.683,0,0,0,3.871-2.083l3.578,2.549a9.03,9.03,0,0,1-16.441-5" transform="translate(-83.265 -36.307)" fill="#fff"/>
      <path id="Caminho_3896" data-name="Caminho 3896" d="M234.185,89.03H242.3c2.622,0,4.435.686,5.587,1.862a5.319,5.319,0,0,1,1.519,3.995v.049a5.424,5.424,0,0,1-3.528,5.268l4.092,5.979h-5.489l-3.455-5.2h-2.083v5.2h-4.754Zm7.89,8.234c1.617,0,2.548-.784,2.548-2.034v-.049c0-1.348-.98-2.034-2.573-2.034h-3.111v4.117Z" transform="translate(-96.13 -36.546)" fill="#fff"/>
      <path id="Caminho_3897" data-name="Caminho 3897" d="M261.868,103.43l2.646-3.161a8.839,8.839,0,0,0,5.563,2.058c1.274,0,1.96-.441,1.96-1.176V101.1c0-.71-.564-1.1-2.892-1.642-3.651-.833-6.469-1.862-6.469-5.39v-.049c0-3.186,2.524-5.489,6.64-5.489a10.8,10.8,0,0,1,7.057,2.279L274,94.168a8.6,8.6,0,0,0-4.8-1.691c-1.151,0-1.715.49-1.715,1.1v.049c0,.784.588,1.128,2.965,1.666,3.945.858,6.4,2.132,6.4,5.342v.049c0,3.5-2.769,5.587-6.934,5.587a11.984,11.984,0,0,1-8.037-2.842" transform="translate(-107.494 -36.341)" fill="#fff"/>
      <path id="Caminho_3898" data-name="Caminho 3898" d="M427.55,150.882l-1.884.4-1.552-2.228-4.8,1.024-.521,2.672-1.826.39,2.281-11.168,1.652-.353Zm-7.044-6.95-.872,4.428,3.492-.746Z" transform="translate(-171.163 -58.133)" fill="#db4152"/>
      <path id="Caminho_3899" data-name="Caminho 3899" d="M438.415,132.816l1.566-.9,5.175,8.988-1.32.76-8.628-3.547,3.681,6.4-1.566.9-5.175-8.988,1.46-.841,8.384,3.448Z" transform="translate(-177.392 -54.149)" fill="#db4152"/>
      <path id="Caminho_3900" data-name="Caminho 3900" d="M460.734,123.849a5.22,5.22,0,0,1,.519,1.981,5.4,5.4,0,0,1-1.434,3.973,5.546,5.546,0,0,1-1.781,1.348,5.142,5.142,0,0,1-4,.183,5.575,5.575,0,0,1-3.083-2.775,5.215,5.215,0,0,1-.519-1.982,5.407,5.407,0,0,1,1.434-3.973,5.546,5.546,0,0,1,1.781-1.348,5.146,5.146,0,0,1,4-.184,5.577,5.577,0,0,1,3.083,2.776m-3.767-1.009a3.634,3.634,0,0,0-1.361-.248,3.453,3.453,0,0,0-1.343.3,3.583,3.583,0,0,0-1.9,2.1,3.349,3.349,0,0,0-.155,1.346,3.6,3.6,0,0,0,.389,1.317,4.066,4.066,0,0,0,2.125,1.913,3.623,3.623,0,0,0,1.361.249,3.45,3.45,0,0,0,1.343-.3,3.586,3.586,0,0,0,1.9-2.1,3.358,3.358,0,0,0,.155-1.346,3.611,3.611,0,0,0-.39-1.317,4.071,4.071,0,0,0-2.125-1.914" transform="translate(-184.894 -49.568)" fill="#db4152"/>
      <path id="Caminho_3901" data-name="Caminho 3901" d="M464.161,111.448a1.082,1.082,0,0,0,.541-.152,3,3,0,0,0,.659-.517q.363-.357.855-.941a11.683,11.683,0,0,1,1.062-1.088,3.629,3.629,0,0,1,1.019-.658,2.44,2.44,0,0,1,1.039-.185,2.764,2.764,0,0,1,1.109.317,3.063,3.063,0,0,1,1.056.836,2.788,2.788,0,0,1,.534,1.116,3.346,3.346,0,0,1,.019,1.314,5.127,5.127,0,0,1-.487,1.428,6.548,6.548,0,0,1-1.4,1.868,6.259,6.259,0,0,1-2.031,1.25l-.671-1.566a6.369,6.369,0,0,0,1.579-.913,4.2,4.2,0,0,0,1.1-1.405,2.256,2.256,0,0,0,.285-1.357,1.123,1.123,0,0,0-.637-.877,1.238,1.238,0,0,0-.493-.14,1,1,0,0,0-.524.135,2.967,2.967,0,0,0-.632.48,12.088,12.088,0,0,0-.835.9,12.4,12.4,0,0,1-1.048,1.127,3.763,3.763,0,0,1-1.017.7,2.353,2.353,0,0,1-1.069.211,2.952,2.952,0,0,1-1.2-.347,2.849,2.849,0,0,1-.987-.792,2.905,2.905,0,0,1-.526-1.08,3.223,3.223,0,0,1-.048-1.271,4.521,4.521,0,0,1,.447-1.365,5.942,5.942,0,0,1,1.221-1.684,6.1,6.1,0,0,1,1.636-1.092l.791,1.493a6.389,6.389,0,0,0-1.341.9,3.821,3.821,0,0,0-.877,1.134,1.915,1.915,0,0,0-.235,1.275,1.1,1.1,0,0,0,.587.793,1.262,1.262,0,0,0,.523.147" transform="translate(-189.387 -43.391)" fill="#db4152"/>
    </g>
  </g>
</svg>
