<svg xmlns="http://www.w3.org/2000/svg" xmlns:xlink="http://www.w3.org/1999/xlink" width="110" height="110" viewBox="0 0 110 110">
  <defs>
    <clipPath id="clip-path">
      <rect id="Retângulo_849" data-name="Retângulo 849" width="62.627" height="52.76" fill="none"/>
    </clipPath>
  </defs>
  <g id="Grupo_3067" data-name="Grupo 3067" transform="translate(-1108 -3661.916)">
    <circle id="Elipse_2" data-name="Elipse 2" cx="55" cy="55" r="55" transform="translate(1108 3661.916)" fill="#fff"/>
    <g id="Grupo_3066" data-name="Grupo 3066" transform="translate(1132.182 3690.578)">
      <g id="Grupo_3065" data-name="Grupo 3065" clip-path="url(#clip-path)">
        <path id="Caminho_3971" data-name="Caminho 3971" d="M116.793,30.038a.888.888,0,1,0-1.069,1.417,12.362,12.362,0,0,1,.729,18.742.888.888,0,0,0,1.185,1.322,14.137,14.137,0,0,0-.844-21.482" transform="translate(-59.551 -15.413)" fill="#db4152"/>
        <path id="Caminho_3972" data-name="Caminho 3972" d="M115.985,51.461a11.055,11.055,0,0,0-.595-12.072.887.887,0,0,0-1.418,1.067,9.284,9.284,0,0,1,.489,10.093.888.888,0,0,0,1.524.912" transform="translate(-58.736 -20.148)" fill="#db4152"/>
        <path id="Caminho_3973" data-name="Caminho 3973" d="M2.446,32.75h13.02l33.142-8.286V59.382L16.058,47.545l-.592-1.183H6.178A3.732,3.732,0,0,1,2.446,42.63Z" transform="translate(-1.263 -12.627)" fill="#5e73ea"/>
        <path id="Caminho_3974" data-name="Caminho 3974" d="M49.418,0a3.258,3.258,0,0,0-3.253,3.22L14.921,14.379a2.864,2.864,0,0,0-1.673,1.6H5.272a.87.87,0,0,0-.094-.195c-.129-.2-3.128-4.828-.066-8.4a.875.875,0,0,0,.084-.12A3.265,3.265,0,1,0,3.981,6.049a.892.892,0,0,0-.217.179C.892,9.58,2.073,13.872,3.331,16.151A4.558,4.558,0,0,0,0,20.533v9.239a4.559,4.559,0,0,0,4.554,4.554H7.122c.284,2.769,3.884,15.812,5.567,17.495a4.77,4.77,0,0,0,3.264.939c1.966,0,4.158-.6,5.093-1.53,1.943-1.944-.083-4.475-1.71-6.509A10.979,10.979,0,0,1,17.552,41.5l.627.06c.046,0,.092,0,.137,0a2.048,2.048,0,0,0,2.029-2.31L20.157,37.8l26.007,9.288a3.254,3.254,0,0,0,6.509-.035V3.255A3.259,3.259,0,0,0,49.418,0M6.806,2.959a1.48,1.48,0,1,1-1.48,1.48,1.481,1.481,0,0,1,1.48-1.48m8.713,13.092L46.163,5.107V45.2L15.519,34.254a1.092,1.092,0,0,1-.723-1.026V17.077a1.091,1.091,0,0,1,.723-1.026M1.776,29.772V20.533a2.781,2.781,0,0,1,2.778-2.778H13.02v14.8H4.554a2.781,2.781,0,0,1-2.778-2.778m18.015,20.2c-1.074,1.074-5.1,1.334-5.847.592C12.809,49.431,9.182,37.088,8.9,34.326h4.351a2.865,2.865,0,0,0,1.673,1.6l.408.146a12.431,12.431,0,0,0,2.62,9.757c2.249,2.811,2.384,3.6,1.841,4.144M18.354,37.7l.231,1.784a.269.269,0,0,1-.072.221.308.308,0,0,1-.191.087L17.09,39.67a10.377,10.377,0,0,1-.044-2.984l1.4.5a.879.879,0,0,0-.087.511M50.9,47.05a1.48,1.48,0,1,1-2.959,0V3.255a1.48,1.48,0,1,1,2.959,0Z" fill="#182089"/>
        <path id="Caminho_3975" data-name="Caminho 3975" d="M9.45,44.588h4.735a.888.888,0,0,0,0-1.776H9.45a.888.888,0,1,0,0,1.776" transform="translate(-4.419 -22.098)" fill="#182089"/>
        <path id="Caminho_3976" data-name="Caminho 3976" d="M14.185,50.152H9.45a.888.888,0,0,0,0,1.776h4.735a.888.888,0,1,0,0-1.776" transform="translate(-4.42 -25.887)" fill="#182089"/>
        <path id="Caminho_3977" data-name="Caminho 3977" d="M14.185,57.491H9.45a.888.888,0,0,0,0,1.776h4.735a.888.888,0,0,0,0-1.776" transform="translate(-4.42 -29.675)" fill="#182089"/>
      </g>
    </g>
  </g>
</svg>
