<svg id="Grupo_3051" data-name="Grupo 3051" xmlns="http://www.w3.org/2000/svg" xmlns:xlink="http://www.w3.org/1999/xlink" width="845" height="177.153" viewBox="0 0 845 177.153">
  <defs>
    <clipPath id="clip-path">
      <rect id="Retângulo_828" data-name="Retângulo 828" width="845" height="177.153" fill="none"/>
    </clipPath>
  </defs>
  <g id="Grupo_3046" data-name="Grupo 3046">
    <g id="Grupo_3045" data-name="Grupo 3045" clip-path="url(#clip-path)">
      <path id="Caminho_3902" data-name="Caminho 3902" d="M467.564,74.342v-.4C467.564,33.72,493.16,0,533.582,0s65.61,33.311,65.61,73.532v.4c0,40.218-25.39,73.937-66.016,73.937s-65.611-33.311-65.611-73.532m92.018,0v-.4c0-22.548-10.766-39-26.407-39s-26,15.843-26,38.6v.4c0,22.75,10.563,39,26.407,39s26-16.047,26-38.6" transform="translate(-87.347)" fill="#db4152"/>
      <path id="Caminho_3903" data-name="Caminho 3903" d="M461.334,40.1H395.52V6.992H505.005V36.648L442.24,149.181H398.77Z" transform="translate(-73.888 -1.306)" fill="#db4152"/>
    </g>
  </g>
  <text id="JORNALISMO" transform="translate(19.558 79.491)" fill="#fff" font-size="43" font-family="Gotham-Book, Gotham"><tspan x="0" y="0">JORNALISMO</tspan></text>
  <text id="_" data-name=" " transform="translate(325.239 79.491)" fill="#fff" font-size="43" font-family="Gotham-Black, Gotham" font-weight="800"><tspan x="0" y="0"> </tspan></text>
  <text id="PUCRS" transform="translate(170.293 123.348)" fill="#fff" font-size="43" font-family="Gotham-Black, Gotham" font-weight="800"><tspan x="0" y="0">PUCRS</tspan></text>
  <g id="Grupo_3048" data-name="Grupo 3048">
    <g id="Grupo_3047" data-name="Grupo 3047" clip-path="url(#clip-path)">
      <text id="_2" data-name=" " transform="translate(440.689 169.18) rotate(4.015)" fill="#db4152" font-size="26" font-family="Gotham-Medium, Gotham" font-weight="500"><tspan x="0" y="0"> </tspan></text>
      <text id="_3" data-name=" " transform="translate(449.674 169.769) rotate(-1.184)" fill="#db4152" font-size="26" font-family="Gotham-Medium, Gotham" font-weight="500"><tspan x="0" y="0"> </tspan></text>
      <text id="A" transform="translate(459.904 169.999) rotate(-12.082)" fill="#db4152" font-size="26" font-family="Gotham-Medium, Gotham" font-weight="500"><tspan x="0" y="0">A</tspan></text>
    </g>
  </g>
  <text id="N" transform="translate(483.885 164.308) rotate(-30.007)" fill="#db4152" font-size="26" font-family="Gotham-Medium, Gotham" font-weight="500"><tspan x="0" y="0">N</tspan></text>
  <text id="O" transform="translate(505.026 151.482) rotate(-48.135)" fill="#db4152" font-size="26" font-family="Gotham-Medium, Gotham" font-weight="500"><tspan x="0" y="0">O</tspan></text>
  <text id="S" transform="translate(521.465 132) rotate(-63.435)" fill="#db4152" font-size="26" font-family="Gotham-Medium, Gotham" font-weight="500"><tspan x="0" y="0">S</tspan></text>
  <text id="Histórias_" data-name="Histórias " transform="translate(576.322 57.904)" fill="#fff" font-size="27" font-family="Gotham-Bold, Gotham" font-weight="700"><tspan x="0" y="0" letter-spacing="-0.025em">H</tspan><tspan y="0" letter-spacing="-0.024em">i</tspan><tspan y="0" letter-spacing="-0.035em">s</tspan><tspan y="0" letter-spacing="-0.04em">t</tspan><tspan y="0" letter-spacing="-0.024em">óri</tspan><tspan y="0" letter-spacing="-0.025em">a</tspan><tspan y="0" letter-spacing="-0.024em">s</tspan><tspan y="0"> </tspan></text>
  <text id="e_" data-name="e " transform="translate(702.525 57.904)" fill="#fff" font-size="27" font-family="Gotham-Book, Gotham"><tspan x="0" y="0" letter-spacing="-0.025em">e</tspan><tspan y="0"> </tspan></text>
  <text id="compromissos_" data-name="compromissos " transform="translate(576.322 91.693)" fill="#fff" font-size="27" font-family="Gotham-Bold, Gotham" font-weight="700"><tspan x="0" y="0" letter-spacing="-0.039em">c</tspan><tspan y="0" letter-spacing="-0.024em">o</tspan><tspan y="0" letter-spacing="-0.025em">m</tspan><tspan y="0" letter-spacing="-0.024em">p</tspan><tspan y="0" letter-spacing="-0.04em">r</tspan><tspan y="0" letter-spacing="-0.024em">o</tspan><tspan y="0" letter-spacing="-0.025em">m</tspan><tspan y="0" letter-spacing="-0.024em">i</tspan><tspan y="0" letter-spacing="-0.034em">s</tspan><tspan y="0" letter-spacing="-0.025em">s</tspan><tspan y="0" letter-spacing="-0.024em">o</tspan><tspan y="0" letter-spacing="-0.025em">s</tspan><tspan y="0"> </tspan></text>
  <g id="Grupo_3050" data-name="Grupo 3050">
    <g id="Grupo_3049" data-name="Grupo 3049" clip-path="url(#clip-path)">
      <text id="que_nos_conectam" data-name="que nos conectam" transform="translate(576.322 125.482)" fill="#fff" font-size="27" font-family="Gotham-Book, Gotham"><tspan x="0" y="0" letter-spacing="-0.024em">qu</tspan><tspan y="0" letter-spacing="-0.025em">e</tspan><tspan y="0" xml:space="preserve" letter-spacing="-0.024em"> no</tspan><tspan y="0" letter-spacing="-0.044em">s</tspan><tspan y="0" letter-spacing="-0.024em"> </tspan><tspan y="0" letter-spacing="-0.039em">c</tspan><tspan y="0" letter-spacing="-0.025em">o</tspan><tspan y="0" letter-spacing="-0.024em">n</tspan><tspan y="0" letter-spacing="-0.025em">e</tspan><tspan y="0" letter-spacing="-0.024em">cta</tspan><tspan y="0">m</tspan></text>
      <line id="Linha_14" data-name="Linha 14" y2="117.878" transform="translate(555.255 25.057)" fill="#fff"/>
      <line id="Linha_15" data-name="Linha 15" y2="117.878" transform="translate(555.255 25.057)" fill="none" stroke="#fff" stroke-width="1.092"/>
    </g>
  </g>
</svg>
