<svg id="linkedin" xmlns="http://www.w3.org/2000/svg" width="59.47" height="56.845" viewBox="0 0 59.47 56.845">
  <path id="Caminho_1177" data-name="Caminho 1177" d="M7.212-.668C2.851-.668,0,2.2,0,5.959c0,3.681,2.766,6.626,7.045,6.626h.083c4.446,0,7.213-2.945,7.213-6.626C14.257,2.2,11.574-.668,7.212-.668Zm0,0" transform="translate(0 0.668)" fill="#fff"/>
  <path id="Caminho_1178" data-name="Caminho 1178" d="M8.109,198.313H20.858v38.354H8.109Zm0,0" transform="translate(-7.356 -179.823)" fill="#fff"/>
  <path id="Caminho_1179" data-name="Caminho 1179" d="M245.453,188.625c-6.877,0-11.489,6.462-11.489,6.462v-5.562H221.215V227.88h12.748V206.461a8.738,8.738,0,0,1,.42-3.111,6.979,6.979,0,0,1,6.541-4.662c4.613,0,6.458,3.517,6.458,8.673V227.88H260.13V205.888c0-11.781-6.29-17.263-14.677-17.263Zm0,0" transform="translate(-200.659 -171.035)" fill="#fff"/>
</svg>
