<svg xmlns="http://www.w3.org/2000/svg" xmlns:xlink="http://www.w3.org/1999/xlink" width="85.2" height="85.036" viewBox="0 0 85.2 85.036">
  <defs>
    <clipPath id="clip-path">
      <rect id="Ret창ngulo_790" data-name="Ret창ngulo 790" width="85.2" height="85.036" fill="none"/>
    </clipPath>
  </defs>
  <g id="Grupo_2964" data-name="Grupo 2964" clip-path="url(#clip-path)">
    <path id="Caminho_3801" data-name="Caminho 3801" d="M7.963,321.454a2.988,2.988,0,0,1,1.112.531,2.52,2.52,0,0,1,.721.9,3.492,3.492,0,0,1,.323,1.2,3.253,3.253,0,0,1-.312,1.88,3.98,3.98,0,0,1-1.121,1.306l-.754-.734a3.732,3.732,0,0,0,.942-1.056,2.209,2.209,0,0,0,.232-1.314,1.8,1.8,0,0,0-.718-1.316,2.48,2.48,0,0,0-1.789-.382l-6.5.612L0,321.975l6.481-.611a4.308,4.308,0,0,1,1.482.09" transform="translate(0 -277.932)" fill="#fff"/>
    <path id="Caminho_3802" data-name="Caminho 3802" d="M11.813,227.779a5.026,5.026,0,0,1,1.386,1.308,4.878,4.878,0,0,1,.79,1.767,5.361,5.361,0,0,1-.758,4.028,4.811,4.811,0,0,1-3.129,2.053,5.208,5.208,0,0,1-1.96-.007,5.132,5.132,0,0,1-1.825-.719A5.034,5.034,0,0,1,4.931,234.9a4.9,4.9,0,0,1-.79-1.767,5.362,5.362,0,0,1,.758-4.028,4.814,4.814,0,0,1,3.129-2.053,5.218,5.218,0,0,1,1.96.007,5.133,5.133,0,0,1,1.825.719m-3.611.409a3.858,3.858,0,0,0-1.408.555,3.918,3.918,0,0,0-1.077,1.048,3.74,3.74,0,0,0-.6,1.467,3.817,3.817,0,0,0,.018,1.585,3.665,3.665,0,0,0,.613,1.355,3.991,3.991,0,0,0,1.1,1.018,4.215,4.215,0,0,0,1.483.575,4.269,4.269,0,0,0,1.6.01,3.837,3.837,0,0,0,1.408-.556,3.9,3.9,0,0,0,1.077-1.047,3.744,3.744,0,0,0,.6-1.467A3.809,3.809,0,0,0,13,231.146a3.661,3.661,0,0,0-.613-1.354,4,4,0,0,0-1.1-1.018A4.221,4.221,0,0,0,9.8,228.2a4.276,4.276,0,0,0-1.6-.01" transform="translate(-3.478 -196.305)" fill="#fff"/>
    <path id="Caminho_3803" data-name="Caminho 3803" d="M38.089,150.291l-4.693.663-1.363,2.46,3.309,1.833-.538.972L26.288,151.5l2.051-3.7a4.8,4.8,0,0,1,.9-1.184,3.31,3.31,0,0,1,1.059-.691,2.637,2.637,0,0,1,1.151-.182,2.75,2.75,0,0,1,1.163.355,2.856,2.856,0,0,1,.86.7,2.492,2.492,0,0,1,.461.891,3.114,3.114,0,0,1,.105,1.031,3.977,3.977,0,0,1-.226,1.1l4.943-.718Zm-7.552-3.314a3,3,0,0,0-1.348,1.381l-1.475,2.663,3.468,1.921,1.468-2.651a3.541,3.541,0,0,0,.37-.955,2.5,2.5,0,0,0,.041-.9,1.822,1.822,0,0,0-.3-.77,1.861,1.861,0,0,0-.652-.579,1.7,1.7,0,0,0-1.573-.114" transform="translate(-22.737 -126.049)" fill="#fff"/>
    <path id="Caminho_3804" data-name="Caminho 3804" d="M80.545,68.982l.781-.75,6.745,7.023-.639.613L77.318,74.512l5.531,5.758-.781.75L75.323,74l.751-.721,9.877,1.333Z" transform="translate(-65.148 -59.015)" fill="#fff"/>
    <path id="Caminho_3805" data-name="Caminho 3805" d="M183.393,37.2l-1.07.532-2.178-1.791-4.8,2.384.1,2.824-1.02.507-.348-10.778.931-.463Zm-8.283-5.389.2,5.448,4.017-2Z" transform="translate(-150.566 -26.304)" fill="#fff"/>
    <path id="Caminho_3806" data-name="Caminho 3806" d="M240.436,7.408l1.094-.194,1.523,8.588,5.455-.967.177,1L242.135,17Z" transform="translate(-207.957 -6.24)" fill="#fff"/>
    <rect id="Ret창ngulo_789" data-name="Ret창ngulo 789" width="9.737" height="1.111" transform="translate(42.473 9.737) rotate(-89.568)" fill="#fff"/>
    <path id="Caminho_3807" data-name="Caminho 3807" d="M340.84,6.943a1.246,1.246,0,0,0,.3.577,2.991,2.991,0,0,0,.72.568,9.815,9.815,0,0,0,1.242.607,5.828,5.828,0,0,1,2.186,1.452,2.164,2.164,0,0,1,.424,1.887,2.564,2.564,0,0,1-1.311,1.8,3.128,3.128,0,0,1-1.146.342,4.484,4.484,0,0,1-1.362-.07,5.947,5.947,0,0,1-2.045-.786,6.114,6.114,0,0,1-1.6-1.5l.832-.659a5.8,5.8,0,0,0,1.331,1.318,4.532,4.532,0,0,0,1.714.685,2.554,2.554,0,0,0,1.655-.143,1.456,1.456,0,0,0,.82-1.074,1.588,1.588,0,0,0,.009-.63,1.24,1.24,0,0,0-.291-.562,2.809,2.809,0,0,0-.689-.548,10.047,10.047,0,0,0-1.184-.588,10.367,10.367,0,0,1-1.364-.7,3.667,3.667,0,0,1-.906-.76,2.094,2.094,0,0,1-.444-.883A2.591,2.591,0,0,1,339.74,6.2a2.4,2.4,0,0,1,.442-1.007,2.5,2.5,0,0,1,.825-.7,3.3,3.3,0,0,1,1.115-.348,3.972,3.972,0,0,1,1.308.052,5.518,5.518,0,0,1,1.8.655,5.754,5.754,0,0,1,1.367,1.173l-.8.708a4.829,4.829,0,0,0-1.2-1.059,4.26,4.26,0,0,0-1.379-.527,2.81,2.81,0,0,0-.873-.044,2.21,2.21,0,0,0-.713.2,1.45,1.45,0,0,0-.511.41,1.376,1.376,0,0,0-.266.587,1.671,1.671,0,0,0-.011.637" transform="translate(-292.556 -3.562)" fill="#fff"/>
    <path id="Caminho_3808" data-name="Caminho 3808" d="M406.78,29.911l-.049-.027-.656-6.284L402.3,30.511l-.95-.519,4.665-8.547.987.539.6,6.382,5.693-2.947.987.539L409.623,34.5l-.975-.532,3.778-6.923Z" transform="translate(-347.137 -18.548)" fill="#fff"/>
    <path id="Caminho_3809" data-name="Caminho 3809" d="M492.885,101.684a5.034,5.034,0,0,1-1.884.294,4.884,4.884,0,0,1-1.88-.459A5.363,5.363,0,0,1,486.4,98.45a4.816,4.816,0,0,1,.3-3.732,5.21,5.21,0,0,1,1.207-1.544,5.126,5.126,0,0,1,1.686-1,5.026,5.026,0,0,1,1.884-.294,4.9,4.9,0,0,1,1.88.459,5.364,5.364,0,0,1,2.717,3.068,4.815,4.815,0,0,1-.3,3.732,5.225,5.225,0,0,1-1.207,1.544,5.132,5.132,0,0,1-1.686,1m1.889-3.1a3.838,3.838,0,0,0,.424-1.453,3.91,3.91,0,0,0-.167-1.493,3.738,3.738,0,0,0-.789-1.376,3.813,3.813,0,0,0-1.263-.958,3.673,3.673,0,0,0-1.447-.345,4,4,0,0,0-1.48.247,4.216,4.216,0,0,0-1.364.82,4.263,4.263,0,0,0-.988,1.256,3.856,3.856,0,0,0-.424,1.453,3.9,3.9,0,0,0,.168,1.494,3.742,3.742,0,0,0,.788,1.376,3.809,3.809,0,0,0,1.263.957,3.66,3.66,0,0,0,1.446.346,3.986,3.986,0,0,0,1.48-.247,4.236,4.236,0,0,0,1.364-.82,4.279,4.279,0,0,0,.987-1.257" transform="translate(-420.487 -79.466)" fill="#fff"/>
    <path id="Caminho_3810" data-name="Caminho 3810" d="M536.622,169.568l-2.286-5.108-2.451,1.1,2.027,4.53-1.409.631-2.027-4.531-3.619,1.62-.7-1.566,8.888-3.977,2.986,6.674Z" transform="translate(-455.082 -140.345)" fill="#fff"/>
    <path id="Caminho_3811" data-name="Caminho 3811" d="M549.663,246.58l-.291-1.8,2.162-1.36-.742-4.595-2.482-.625-.282-1.749L558.4,239.16l.256,1.582Zm6.84-6.331-4.114-1.045.54,3.345Z" transform="translate(-473.998 -204.507)" fill="#fff"/>
    <path id="Caminho_3812" data-name="Caminho 3812" d="M550.57,323.97l.01-.055,5.024-2.248-6.851-1.2.3-1.69,9.591,1.677-.317,1.814-5.051,2.157,4.02,3.743-.317,1.815-9.592-1.677.3-1.69,6.879,1.2Z" transform="translate(-473.441 -275.718)" fill="#fff"/>
    <path id="Caminho_3813" data-name="Caminho 3813" d="M523.422,412.068l2.591-4.929-2.216-1.165-2.3,4.368-1.366-.719,2.3-4.368-2.3-1.21-2.623,4.991-1.367-.718,3.421-6.509,8.619,4.531-3.389,6.447Z" transform="translate(-446.416 -347.531)" fill="#fff"/>
    <path id="Caminho_3814" data-name="Caminho 3814" d="M474.069,475.115a5.279,5.279,0,0,1,.228-1.019,4.545,4.545,0,0,1,.476-1,6.249,6.249,0,0,1,.788-.989,5.048,5.048,0,0,1,1.665-1.168,4.835,4.835,0,0,1,3.738-.052,5.341,5.341,0,0,1,2.841,2.725,4.876,4.876,0,0,1,.1,3.776,5.176,5.176,0,0,1-1.138,1.754,6.326,6.326,0,0,1-.933.81,5.042,5.042,0,0,1-.933.517,4.789,4.789,0,0,1-.94.285,6.655,6.655,0,0,1-.958.113l-.141-1.678a5.545,5.545,0,0,0,1.5-.294,3.286,3.286,0,0,0,1.284-.852,3.121,3.121,0,0,0,.707-1.125,3.234,3.234,0,0,0,.185-1.256,3.307,3.307,0,0,0-.318-1.244,3.746,3.746,0,0,0-.807-1.108,3.81,3.81,0,0,0-1.143-.768,3.376,3.376,0,0,0-1.265-.281,3.181,3.181,0,0,0-1.253.228,3.111,3.111,0,0,0-1.1.749,3.276,3.276,0,0,0-.827,1.351,6.094,6.094,0,0,0-.221,1.564l-1.572.028a6.327,6.327,0,0,1,.035-1.069" transform="translate(-409.993 -406.978)" fill="#fff"/>
    <path id="Caminho_3815" data-name="Caminho 3815" d="M409.908,525.177a4.891,4.891,0,0,1,.147-1.924,5.14,5.14,0,0,1,.889-1.75,5.216,5.216,0,0,1,1.618-1.369,5.308,5.308,0,0,1,2.009-.672,4.86,4.86,0,0,1,3.64,1.03,5.184,5.184,0,0,1,1.9,3.4,4.88,4.88,0,0,1-.146,1.924,5.147,5.147,0,0,1-.889,1.75,5.231,5.231,0,0,1-1.618,1.369,5.309,5.309,0,0,1-2.009.672,4.858,4.858,0,0,1-3.64-1.03,5.185,5.185,0,0,1-1.9-3.4m3.06,2.024a3.407,3.407,0,0,0,1.142.628,3.378,3.378,0,0,0,3.646-1.174,3.183,3.183,0,0,0,.554-1.155,3.385,3.385,0,0,0,.058-1.292,3.789,3.789,0,0,0-1.313-2.342,3.394,3.394,0,0,0-1.141-.628,3.378,3.378,0,0,0-3.646,1.174,3.178,3.178,0,0,0-.553,1.155,3.393,3.393,0,0,0-.058,1.292,3.784,3.784,0,0,0,1.313,2.342" transform="translate(-354.505 -449.262)" fill="#fff"/>
    <path id="Caminho_3816" data-name="Caminho 3816" d="M346.338,555.722a1.027,1.027,0,0,0-.433-.306,2.909,2.909,0,0,0-.773-.176q-.48-.054-1.2-.07a11.179,11.179,0,0,1-1.434-.135,3.444,3.444,0,0,1-1.093-.357,2.286,2.286,0,0,1-.752-.651,2.563,2.563,0,0,1-.422-1,2.847,2.847,0,0,1-.006-1.264,2.616,2.616,0,0,1,.511-1.048,3.165,3.165,0,0,1,.962-.789,4.9,4.9,0,0,1,1.347-.487,6.276,6.276,0,0,1,2.211-.082,5.963,5.963,0,0,1,2.129.747l-.761,1.415a6.029,6.029,0,0,0-1.612-.616,4.024,4.024,0,0,0-1.691.027,2.167,2.167,0,0,0-1.175.592,1.053,1.053,0,0,0-.271.983,1.177,1.177,0,0,0,.188.443.955.955,0,0,0,.411.3,2.86,2.86,0,0,0,.73.178,11.614,11.614,0,0,0,1.163.079,11.854,11.854,0,0,1,1.456.1,3.578,3.578,0,0,1,1.123.329,2.211,2.211,0,0,1,.789.656,2.742,2.742,0,0,1,.455,1.083,2.644,2.644,0,0,1,0,1.188,2.726,2.726,0,0,1-.488,1.022,3.074,3.074,0,0,1-.913.785,4.321,4.321,0,0,1-1.277.479,5.7,5.7,0,0,1-1.97.1,5.817,5.817,0,0,1-1.779-.552l.637-1.459a6.068,6.068,0,0,0,1.462.448,3.66,3.66,0,0,0,1.36-.027,1.833,1.833,0,0,0,1.084-.58,1.029,1.029,0,0,0,.24-.9,1.167,1.167,0,0,0-.2-.47" transform="translate(-294.204 -475.098)" fill="#fff"/>
    <path id="Caminho_3817" data-name="Caminho 3817" d="M272.656,566.307l-4.212-.227c-2.485-.134-4.018-1.485-3.9-3.638l0-.028c.123-2.293,1.971-3.4,4.415-3.273l1.348.073.149-2.779,2.724.147Zm-3.756-5.051c-.969-.052-1.585.416-1.627,1.18l0,.028c-.045.834.521,1.31,1.5,1.363l1.278.069.138-2.571Z" transform="translate(-228.801 -481.271)" fill="#fff"/>
    <path id="Caminho_3818" data-name="Caminho 3818" d="M186.542,544.445l-1.831,5.15-2.61-.928,1.812-5.1c.47-1.323.018-2.193-1.015-2.56a1.727,1.727,0,0,0-2.38,1.279l-1.836,5.163-2.61-.928,1.807-5.085c1.053-2.961,3.223-3.651,5.86-2.713s3.822,2.85,2.8,5.72" transform="translate(-152.289 -465.613)" fill="#fff"/>
    <path id="Caminho_3819" data-name="Caminho 3819" d="M114.789,504.957l-.016.022a5.032,5.032,0,0,1-7.19.934,4.838,4.838,0,0,1-2.122-4.131l2.585-.024a2.644,2.644,0,0,0,1.037,2.2,2.419,2.419,0,0,0,3.423-.649l.017-.022a2.418,2.418,0,0,0-.318-3.489,2.7,2.7,0,0,0-2.487-.388l-.774-2.389a5.194,5.194,0,0,1,5.845,7.932" transform="translate(-91.215 -429.648)" fill="#fff"/>
    <path id="Caminho_3820" data-name="Caminho 3820" d="M55.175,442.7l-2.76-3.746a4.328,4.328,0,0,1-1.05-3.208,3,3,0,0,1,1.307-2.047l.023-.016a3.08,3.08,0,0,1,3.608-.145l1.339-3.9,1.868,2.535-1.2,3.345.017.023.692.939,2.373-1.75,1.618,2.2Zm1.077-6.417c-.55-.747-1.225-.913-1.8-.492l-.022.016c-.616.454-.6,1.138-.054,1.874l1.059,1.437,1.881-1.387Z" transform="translate(-44.396 -371.6)" fill="#fff"/>
    <path id="Caminho_3821" data-name="Caminho 3821" d="M25.9,385.723l-2.214-.792a5.1,5.1,0,0,0-.026-3.4c-.257-.684-.63-.966-1.021-.819l-.026.01c-.378.142-.472.523-.29,1.881.293,2.128.314,3.847-1.562,4.55l-.026.01c-1.694.635-3.426-.262-4.256-2.474a6.24,6.24,0,0,1-.211-4.246l2.264.608a4.968,4.968,0,0,0,.069,2.917c.232.619.606.824.932.7l.026-.01c.417-.156.481-.54.288-1.925-.339-2.291-.156-3.861,1.55-4.5l.026-.01c1.863-.7,3.528.374,4.368,2.613a6.923,6.923,0,0,1,.109,4.885" transform="translate(-13.829 -326.95)" fill="#fff"/>
    <path id="Caminho_3822" data-name="Caminho 3822" d="M256.4,215.9v-.079c0-7.844,4.992-14.421,12.876-14.421s12.8,6.5,12.8,14.342v.079c0,7.844-4.952,14.421-12.876,14.421s-12.8-6.5-12.8-14.342m17.947,0v-.079c0-4.4-2.1-7.607-5.15-7.607s-5.071,3.09-5.071,7.528v.079c0,4.437,2.06,7.607,5.15,7.607s5.071-3.13,5.071-7.528" transform="translate(-221.769 -174.197)" fill="#db4152"/>
    <path id="Caminho_3823" data-name="Caminho 3823" d="M184.653,216.07H171.817v-6.458h21.354V215.4l-12.242,21.948h-8.478Z" transform="translate(-148.607 -181.297)" fill="#db4152"/>
    <path id="Caminho_3824" data-name="Caminho 3824" d="M376.281,420.379l-.658.141-.542-.778-1.674.357-.182.933-.637.136.8-3.9.577-.123Zm-2.459-2.426-.3,1.546,1.219-.26Z" transform="translate(-322.258 -360.797)" fill="#db4152"/>
    <path id="Caminho_3825" data-name="Caminho 3825" d="M397.9,402.674l.547-.315,1.806,3.138-.461.265-3.012-1.238,1.285,2.232-.547.315-1.806-3.138.51-.294,2.926,1.2Z" transform="translate(-342.255 -348.007)" fill="#db4152"/>
    <path id="Caminho_3826" data-name="Caminho 3826" d="M427.149,386.439a1.822,1.822,0,0,1,.181.692,1.886,1.886,0,0,1-.5,1.387,1.938,1.938,0,0,1-.622.47,1.8,1.8,0,0,1-1.4.064,1.946,1.946,0,0,1-1.076-.969,1.817,1.817,0,0,1-.181-.692,1.886,1.886,0,0,1,.5-1.387,1.934,1.934,0,0,1,.622-.47,1.816,1.816,0,0,1,.7-.174,1.836,1.836,0,0,1,.7.11,1.947,1.947,0,0,1,1.076.969m-1.315-.352a1.267,1.267,0,0,0-.475-.087,1.2,1.2,0,0,0-.469.1,1.251,1.251,0,0,0-.665.734,1.172,1.172,0,0,0-.054.47,1.257,1.257,0,0,0,.136.46,1.419,1.419,0,0,0,.742.668,1.265,1.265,0,0,0,.475.087,1.207,1.207,0,0,0,.469-.1,1.251,1.251,0,0,0,.665-.734,1.171,1.171,0,0,0,.054-.47,1.261,1.261,0,0,0-.136-.46,1.422,1.422,0,0,0-.742-.668" transform="translate(-366.336 -333.304)" fill="#db4152"/>
    <path id="Caminho_3827" data-name="Caminho 3827" d="M441.2,364.438a.379.379,0,0,0,.189-.053,1.046,1.046,0,0,0,.23-.18q.127-.125.3-.328a4.048,4.048,0,0,1,.371-.38,1.261,1.261,0,0,1,.356-.23A.849.849,0,0,1,443,363.2a.963.963,0,0,1,.387.111,1.069,1.069,0,0,1,.368.292.972.972,0,0,1,.186.389,1.164,1.164,0,0,1,.007.459,1.792,1.792,0,0,1-.17.5,2.283,2.283,0,0,1-.488.652,2.187,2.187,0,0,1-.709.436l-.234-.547a2.219,2.219,0,0,0,.551-.319,1.467,1.467,0,0,0,.383-.49.79.79,0,0,0,.1-.474.392.392,0,0,0-.223-.306.434.434,0,0,0-.172-.049.352.352,0,0,0-.183.047,1.036,1.036,0,0,0-.22.168,4.207,4.207,0,0,0-.292.315,4.3,4.3,0,0,1-.366.393,1.31,1.31,0,0,1-.355.245.822.822,0,0,1-.373.074,1.028,1.028,0,0,1-.419-.121.994.994,0,0,1-.344-.277,1.012,1.012,0,0,1-.184-.377,1.125,1.125,0,0,1-.017-.444,1.576,1.576,0,0,1,.156-.477,2.077,2.077,0,0,1,.426-.588,2.137,2.137,0,0,1,.571-.381l.276.521a2.229,2.229,0,0,0-.468.314,1.335,1.335,0,0,0-.306.4.668.668,0,0,0-.082.445.385.385,0,0,0,.2.277.439.439,0,0,0,.183.051" transform="translate(-380.754 -313.474)" fill="#db4152"/>
  </g>
</svg>
