<?xml version="1.0" encoding="utf-8"?>
<!-- Generator: Adobe Illustrator 15.0.0, SVG Export Plug-In . SVG Version: 6.00 Build 0)  -->
<!DOCTYPE svg PUBLIC "-//W3C//DTD SVG 1.0//EN" "http://www.w3.org/TR/2001/REC-SVG-20010904/DTD/svg10.dtd">
<svg version="1.0" id="Camada_1" xmlns="http://www.w3.org/2000/svg" xmlns:xlink="http://www.w3.org/1999/xlink" x="0px" y="0px"
	 width="383px" height="443px" viewBox="0 0 383 443" enable-background="new 0 0 383 443" xml:space="preserve">
<g>
	<defs>
		<rect id="SVGID_1_" x="-120" y="-89" width="614" height="618"/>
	</defs>
	<clipPath id="SVGID_2_">
		<use xlink:href="#SVGID_1_"  overflow="visible"/>
	</clipPath>
	<path clip-path="url(#SVGID_2_)" fill-rule="evenodd" clip-rule="evenodd" fill="#FFFFFF" d="M258.785,126.819
		c6.503-2.384,36.342-4.908,36.342,13.495c0,5.739-3.978,9.534-9.783,9.655c-12.881,0.281-7.606-15.082-8.038-15.082
		c-30.837,0-18.403,66.853-17.134,77.354c-0.281,8.358-5.115,10.991-11.203,11.286c-5.405,0.134-8.296-2.384-9.833-6.723
		c-2.217-6.12-2.74-65.729,27.515-85.552c-8.288,0-33.028,16.627-43.7,49.695c0.706,1.532,1.113,18.268,0.15,24.695
		c-0.275,8.836-2.492,14.662-10.507,14.662c-6.519,0-11.194-4.854-10.373-14.662c1.521-17.594,7.732-68.922-9.981-77.177
		c-18.785,7.108-9.808,72.854-9.808,77.177c0.299,6.844-1.229,14.662-11.037,14.662c-10.639,0-10.381-6.827-10.531-14.795
		c0-6.853,0.416-18.84,0.972-24.563c-14.508-35.175-35.395-49.815-43.409-49.815c30.288,19.943,29.449,79.552,27.215,85.672
		c-1.503,4.339-4.269,6.856-9.667,6.723c-6.07-0.428-11.078-3.509-11.203-11.444c1.121-10.344,13.412-77.196-17.431-77.196
		c-0.408,0,4.982,15.363-7.981,15.082c-5.847-0.121-9.842-3.916-9.842-9.655c0-18.403,29.849-16.045,36.375-13.495
		c15.065,5.543,29.176,21.758,37.323,41.029c3.329-19.845,14.823-42.873,29.024-45.373c14.293,2.363,25.338,25.528,29.225,45.079
		C229.204,149.687,239.685,135.443,258.785,126.819 M97.614,59.14l-8.098-5.855l10.017,0.008l3.073-9.475l3.18,9.475l9.95-0.008
		l-8.016,5.855l3.007,9.426l-8.105-5.772L94.5,68.565L97.614,59.14z M277.521,59.14l-8.106-5.855l10.032,0.008l3.09-9.475
		l3.172,9.475l9.941-0.008l-8.031,5.855l3.015,9.426l-8.097-5.772l-8.122,5.772L277.521,59.14z M253.337,79.765l-3.113,9.404
		l8.121-5.787l8.081,5.787l-2.957-9.404l7.989-5.893l-9.949,0.024l-3.164-9.459l-3.098,9.459l-10.022-0.024L253.337,79.765z
		 M253.337,38.12l-3.113,9.417l8.121-5.775l8.081,5.775l-2.957-9.417l7.989-5.893l-9.949,0.024l-3.164-9.471l-3.098,9.471
		l-10.022-0.024L253.337,38.12z M221.405,87.708l-8.088-5.876l10.022,0.018l3.073-9.447l3.181,9.447l9.933-0.018l-7.989,5.876
		l2.998,9.421l-8.097-5.805l-8.122,5.805L221.405,87.708z M221.405,29.906l-8.088-5.846l10.022,0.008l3.073-9.459l3.181,9.459
		l9.933-0.008l-7.989,5.846l2.998,9.436l-8.097-5.789l-8.122,5.789L221.405,29.906z M121.813,79.765l-3.113,9.404l8.122-5.787
		l8.098,5.787l-3.007-9.404l8.022-5.893l-9.94,0.024l-3.173-9.459l-3.089,9.459l-10.032-0.024L121.813,79.765z M121.813,38.12
		l-3.113,9.417l8.122-5.775l8.098,5.775l-3.007-9.417l8.022-5.893l-9.94,0.024l-3.173-9.471l-3.089,9.471l-10.032-0.024
		L121.813,38.12z M153.738,87.708l-8.105-5.876l10.016,0.018l3.089-9.447l3.147,9.447l9.967-0.018l-8.014,5.876l3.006,9.421
		l-8.106-5.805l-8.121,5.805L153.738,87.708z M153.738,29.906l-8.105-5.846l10.016,0.008l3.089-9.459l3.147,9.459l9.967-0.008
		l-8.014,5.846l3.006,9.436l-8.106-5.789l-8.121,5.789L153.738,29.906z M187.58,90.568l-8.113-5.85l10.023,0.016l3.081-9.446
		l3.173,9.446l9.957-0.016l-8.031,5.85l3.016,9.439l-8.106-5.789l-8.088,5.789L187.58,90.568z M187.58,26.187l-8.113-5.864h10.023
		l3.081-9.459l3.173,9.459h9.957l-8.031,5.864l3.016,9.417l-8.106-5.755l-8.088,5.755L187.58,26.187z M327.06,410.062
		c5.88,0.096,9.309,0.113,10.363,0.113l0.963-0.018c-0.763-2.241-1.734-4.891-2.955-7.877c-1.213-2.978-2.177-5.277-2.924-6.843
		L327.06,410.062z M309.411,431.377l0.1-2.601c0.433-0.124,1.287-0.336,2.491-0.548c1.918-0.378,3.089-0.706,3.521-1.034
		c0.416-0.27,0.922-1.017,1.496-2.18l7.59-20.06l8.927-23.586c0.806,0.033,1.604,0.066,2.342,0.066h1.721l0.307,0.66l6.544,15.621
		c1.495,3.293,2.815,6.499,3.978,9.646c1.188,3.131,2.201,5.664,3.065,7.642c0.481,1.212,1.179,2.985,2.034,5.336
		c0.481,1.295,1.146,2.901,2.067,4.854c0.516,1.067,0.914,1.69,1.113,1.86c0.474,0.386,1.246,0.631,2.242,0.764
		c1.005,0.138,2.093,0.411,3.297,0.868c0.092,0.822,0.166,1.461,0.166,1.86c0,0.2-0.008,0.469-0.033,0.831
		c-1.868,0-3.902-0.083-6.129-0.259c-2.209-0.194-4.244-0.27-6.021-0.27c-1.969,0-3.396,0.017-4.277,0.075l-6.386,0.36l-1.853,0.067
		c0-0.922,0.059-1.732,0.149-2.575l4.153-0.872c1.254-0.323,1.95-0.572,2.176-0.785c0.257-0.235,0.373-0.53,0.373-0.858
		c0-0.313-0.074-0.665-0.191-1.018l-1.503-3.699l-2.965-7.45l-14.334-0.05c-0.54,1.213-1.619,4.198-3.297,8.944
		c-0.448,1.295-0.706,2.23-0.706,2.707c0,0.665,0.183,1.13,0.532,1.4c0.589,0.485,1.685,0.826,3.321,1.025
		c0.191,0.042,1.088,0.179,2.657,0.432c0.025,0.905,0.042,1.528,0.042,1.864c0,0.286-0.017,0.598-0.083,0.9
		c-1.553,0-5.265-0.24-11.104-0.672l-1.554,0.278c-1.877,0.337-3.629,0.453-5.272,0.453H309.411z M267.265,380.201
		c-0.199,0.504-0.49,1.463-0.872,2.921c-1.378,4.911-2.426,8.209-3.238,9.845c0.324,0.395,1.054,0.872,2.234,1.486
		c0.265,0,0.755-0.402,1.378-1.221c2.126-2.791,3.754-4.518,4.842-5.148c0.789-0.444,2.375-0.689,4.725-0.689
		c4.277,0,6.818,0.058,7.582,0.149c0.241,0.063,0.416,0.104,0.532,0.204c0.125,0.137,0.224,0.285,0.257,0.506
		c0.158,0.868,0.241,3.214,0.241,7.184l0.19,14.313c0,6.647-0.115,11.469-0.273,14.5c-0.041,0.78-0.191,1.412-0.457,1.894
		c-0.979,0.49-2.798,1.067-5.414,1.706c-1.545,0.345-2.558,0.885-3.114,1.632v0.316l0.041,0.847c0.025,0.22,0.067,0.498,0.083,0.884
		c0.424,0,1.354-0.041,2.782-0.152c3.637-0.3,5.872-0.453,6.628-0.453c4.708,0,7.989,0.091,9.766,0.286
		c1.835,0.167,4.028,0.278,6.61,0.278c0.332,0,0.781,0,1.354-0.054c0.074-0.42,0.1-0.731,0.1-0.972c0-0.203-0.083-0.751-0.208-1.687
		c-0.573-0.216-1.237-0.411-1.993-0.598c-1.661-0.361-2.565-0.581-2.773-0.581c-1.071-0.158-1.811-0.332-2.201-0.502
		c-0.324-0.868-0.49-2.18-0.49-3.958l0.075-4.938l-0.142-12.008v-11.142l-0.058-5.074c0-0.648,0.091-1.42,0.216-2.433
		c1.071-0.092,1.952-0.149,2.649-0.149c4.691,0,7.375,0.091,7.964,0.212c0.391,0.1,0.739,0.294,1.021,0.631
		c0.217,0.19,0.698,1.233,1.486,3.109c0.748,1.869,1.479,3.294,2.118,4.303c0.771-0.092,1.678-0.303,2.707-0.606
		c0.092-0.516,0.125-1.075,0.125-1.731l0.05-1.911l-0.05-3.375c0-3.551-0.018-6.158-0.018-7.877c-0.53-0.05-0.912-0.066-1.137-0.066
		l-1.645,0.066c-0.183,0.395-0.316,0.686-0.433,0.917c-0.373,0.984-0.714,1.607-1.054,1.819l-2.193,0.345H295.65l-8.496-0.058
		l-4.551,0.023l-0.755,0.108c-1.495,0.024-3.223,0.063-5.15,0.063c-3.064,0-4.8-0.063-5.14-0.171
		c-0.374-0.377-0.931-1.187-1.596-2.399c-0.073-0.091-0.207-0.312-0.397-0.595H267.265z M255.729,383.425
		c0.257,0.854,0.481,2.143,0.697,3.928c0.29,2.566,0.424,4.609,0.424,6.033c0,0.453-0.059,0.942-0.134,1.5l-0.397,0.107
		l-2.666-0.203l-0.465-0.066c-1.139-3.323-2.209-5.602-3.314-6.806c-1.9-2.002-4.151-3.031-6.71-3.031
		c-2.482,0-4.385,0.681-5.838,1.976c-1.445,1.305-2.184,2.933-2.184,4.809c0,1.624,0.738,3.173,2.142,4.685
		c1.396,1.49,4.393,2.923,8.978,4.293c1.504,0.469,3.355,1.179,5.522,2.213c2.143,0.977,3.795,2.094,4.933,3.265
		c1.487,1.582,2.518,3.081,3.091,4.533c0.53,1.45,0.838,3.276,0.838,5.453c0,2.366-0.44,4.722-1.287,7.018
		c-0.498,1.204-1.263,2.35-2.3,3.451c-0.739,0.751-1.919,1.632-3.506,2.652c-1.561,1.026-3.229,1.781-4.899,2.201
		c-1.694,0.49-3.861,0.702-6.52,0.702c-1.76,0-3.845-0.254-6.253-0.76l-4.518-1.313c-1.263-0.361-2.068-0.68-2.367-0.967
		c-0.125-0.1-0.249-0.328-0.341-0.714v-0.419c0-0.279-0.074-1.998-0.19-5.188c-0.042-1.665-0.05-2.803-0.05-3.483v-1.445
		l3.413-0.066c1.221,2.79,2.01,4.493,2.333,5.05c0.79,1.328,1.637,2.346,2.583,3.155c0.93,0.78,2.052,1.388,3.372,1.864
		c1.271,0.515,2.716,0.71,4.235,0.71c1.354,0,2.849-0.29,4.477-0.867c1.619-0.574,2.939-1.516,3.937-2.837
		c0.996-1.337,1.47-2.753,1.47-4.285c0-1.869-0.863-3.616-2.574-5.198c-1.088-0.977-3.895-2.321-8.496-3.937
		c-4.626-1.645-7.798-3.115-9.584-4.377c-1.777-1.295-3.188-3.014-4.21-5.19c-1.03-2.172-1.545-4.261-1.545-6.22
		c0-4.057,1.428-7.45,4.277-10.249c2.849-2.818,7.084-4.227,12.614-4.227c1.229,0,2.99,0.229,5.323,0.657
		C251.485,382.096,253.387,382.598,255.729,383.425 M196.683,431.435v-2.749c0.507-0.133,1.369-0.386,2.491-0.647
		c1.627-0.44,2.831-0.826,3.654-1.263c0.423-0.781,0.689-1.859,0.689-3.247l-0.042-4.468l0.05-8.662l-0.008-2.043
		c0.148-4.991,0.224-7.557,0.224-7.707l-0.075-5.065l0.117-2.019l-0.191-4.335l-0.05-1.623c0-0.254-0.066-0.677-0.232-1.205
		c-1.029-0.494-2.716-0.81-4.999-0.926c-0.591-0.025-0.988-0.066-1.329-0.124l-0.101-3.343l10.73,0.48
		c1.337,0.034,2.168,0.034,2.467,0.034c1.494,0,3.87-0.079,7.134-0.27c1.827-0.116,2.948-0.204,3.438-0.245
		c0.023,0.49,0.023,0.876,0.023,1.221c0,0.411,0,1-0.065,1.657c-0.997,0.361-2.134,0.705-3.431,1.021
		c-1.286,0.308-2.357,0.619-3.163,0.955c-0.149,0.682-0.217,1.604-0.217,2.873c0,1.068,0.025,1.936,0.083,2.625
		c-0.058,4.256-0.083,7.582-0.083,9.87l0.025,10.021l-0.125,5.065l0.1,7.6l-0.05,1.42c0,0.194,0.05,0.489,0.133,0.858
		c1.529,0.328,2.94,0.558,4.169,0.71c0.233,0.018,0.989,0.125,2.31,0.274c0.107,0.768,0.133,1.408,0.133,1.919
		c0,0.245-0.009,0.714-0.025,1.279c-0.323,0-0.556,0-0.756,0.058c-0.779,0.054-1.27,0.054-1.395,0.054
		c-0.149,0-0.49-0.054-0.955-0.111c-0.35-0.042-2.043-0.233-5.033-0.528l-6.627-0.07c-1.329,0-3.271,0.12-5.755,0.365
		C198.26,431.317,197.189,431.377,196.683,431.435 M160.059,404.544c1.195,0.05,2.076,0.065,2.623,0.065
		c4.262,0,7.275-0.771,9.054-2.329c1.768-1.516,2.657-3.592,2.657-6.157c0-1.596-0.191-3.099-0.631-4.477
		c-0.449-1.425-0.988-2.441-1.646-3.139c-0.929-0.997-2.142-1.72-3.638-2.243c-1.104-0.369-2.897-0.577-5.314-0.577
		c-1.163,0-2.143,0.083-2.973,0.208l-0.025,0.718l0.025,5.141l-0.075,3.072l0.05,4.145c-0.05,1.155-0.083,2.67-0.107,4.506V404.544z
		 M143.133,429.089c0.673-0.378,1.611-0.648,2.907-0.818c1.27-0.149,2.408-0.42,3.463-0.781c0.108-0.507,0.199-0.9,0.215-1.129
		c0.075-0.357,0.092-1.553,0.092-3.625l-0.058-8.43l0.141-4.563l-0.042-3.55l0.042-2.035c0.092-2.753,0.125-5.336,0.125-7.753
		c0-5.215-0.058-8.569-0.167-10.044l-2.217-0.465c-2.051-0.125-3.396-0.254-4.086-0.387l-0.058-2.279l0.133-0.411
		c1.271-0.221,2.417-0.303,3.471-0.303c0.582,0,1.729-0.017,3.488-0.026c1.802,0.108,2.791,0.226,2.939,0.226l1.985-0.133
		l4.685-0.237c2.947-0.295,6.021-0.419,9.285-0.419c5.123,0,9.209,1.287,12.232,3.936c3.049,2.646,4.559,5.664,4.559,9.09
		c0,2.55-0.813,4.863-2.449,6.969c-1.653,2.084-4.152,3.633-7.592,4.683c0.316,0.565,0.724,1.171,1.214,1.886
		c1.046,1.499,1.901,2.804,2.558,3.828l6.021,9.866c1.52,2.592,2.466,4.103,2.947,4.551c0.457,0.437,1.412,0.943,2.873,1.445
		c1.105,0.432,1.97,0.851,2.575,1.304c0.166,0.415,0.241,0.818,0.241,1.13c0,0.236-0.017,0.523-0.042,0.876h-1.013l-0.747,0.041
		l-1.978-0.245h-1.535c-0.789-0.148-1.779-0.207-2.94-0.207l-3.771-0.037c-0.299,0-1.154,0.078-2.633,0.277
		c-0.681,0.06-1.238,0.117-1.62,0.171l-1.27-2.5c-1.056-1.893-1.794-3.325-2.201-4.223c-1.113-2.467-3.031-6.353-5.697-11.739
		c-1.262-2.482-2.126-3.898-2.649-4.206c-0.73-0.522-2.018-0.802-3.844-0.802c-0.49,0-1.347,0.042-2.551,0.075
		c-0.074,0.727-0.107,1.632-0.107,2.637l0.133,8.396l-0.176,7.134c0.707,0.415,1.621,0.751,2.759,0.988
		c1.942,0.395,3.62,0.88,5.016,1.437c0,1.237-0.058,2.18-0.157,2.803c-0.457,0-0.757-0.054-0.914-0.054l-1.504,0.095
		c-5.397-0.489-8.587-0.718-9.592-0.718c-0.656,0-1.121,0.021-1.396,0.037l-5.198,0.328c-1.554,0.2-2.998,0.258-4.311,0.258h-1.603
		c-0.066-0.602-0.1-1.018-0.1-1.183C143.017,429.965,143.075,429.569,143.133,429.089 M106.218,410.062
		c5.863,0.096,9.285,0.113,10.349,0.113l0.946-0.018c-0.756-2.241-1.735-4.891-2.939-7.877c-1.204-2.978-2.151-5.277-2.915-6.843
		L106.218,410.062z M88.554,431.377l0.091-2.601c0.457-0.124,1.279-0.336,2.492-0.548c1.926-0.378,3.122-0.706,3.537-1.034
		c0.392-0.27,0.914-1.017,1.521-2.18l7.572-20.06l8.878-23.586c0.848,0.033,1.62,0.066,2.375,0.066h1.712l0.331,0.66l6.528,15.621
		c1.47,3.293,2.815,6.499,3.986,9.646c1.154,3.131,2.191,5.664,3.04,7.642c0.49,1.212,1.194,2.985,2.067,5.336
		c0.44,1.295,1.154,2.901,2.06,4.854c0.499,1.067,0.896,1.69,1.138,1.86c0.44,0.386,1.188,0.631,2.209,0.764
		c1.013,0.138,2.093,0.411,3.265,0.868c0.133,0.822,0.206,1.461,0.206,1.86c0,0.2-0.016,0.469-0.049,0.831
		c-1.869,0-3.896-0.083-6.112-0.259c-2.234-0.194-4.261-0.27-6.038-0.27c-1.969,0-3.389,0.017-4.302,0.075l-6.361,0.36l-1.811,0.067
		c0-0.922,0.025-1.732,0.101-2.575l4.16-0.872c1.263-0.323,1.984-0.572,2.176-0.785c0.258-0.235,0.366-0.53,0.366-0.858
		c0-0.313-0.052-0.665-0.192-1.018l-1.486-3.699l-2.965-7.45l-14.35-0.05c-0.516,1.213-1.629,4.198-3.265,8.944
		c-0.474,1.295-0.715,2.23-0.715,2.707c0,0.665,0.167,1.13,0.516,1.4c0.59,0.485,1.693,0.826,3.321,1.025
		c0.217,0.042,1.113,0.179,2.658,0.432c0.018,0.905,0.018,1.528,0.018,1.864c0,0.286,0,0.598-0.06,0.9
		c-1.553,0-5.257-0.24-11.095-0.672l-1.553,0.278c-1.86,0.337-3.63,0.453-5.299,0.453H88.554z M20.588,431.377l0.124-2.601
		c3.139-0.369,5.116-1.024,5.963-1.935c0.573-0.581,0.98-2.163,1.287-4.713l0.507-13.471l0.54-13.772
		c0.041-0.802,0.066-1.313,0.066-1.5c0-3.542-0.199-5.638-0.606-6.184c-0.424-0.548-2.018-1.096-4.825-1.635
		c-0.697-0.133-1.237-0.258-1.645-0.37c-0.058-0.631-0.058-1.157-0.058-1.599v-1.179c0.896-0.075,2.01-0.101,3.246-0.101
		l10.996,0.396c0.241,0.02,0.615,0.062,1.056,0.079l1.744,0.058c0.397,0.515,0.821,1.179,1.27,2.026
		c0.922,1.836,2.143,4.525,3.663,8.089l0.415,1.018l5.872,12.863c0.132,0.32,0.314,0.752,0.605,1.342
		c0.383,0.889,0.772,1.781,1.146,2.608c0.407,0.805,0.83,1.698,1.287,2.689c0.407,0.993,0.821,1.853,1.236,2.625
		c0.35-0.599,0.69-1.288,1.03-2.019c0.973-2.338,1.969-4.459,2.898-6.395c1.662-3.418,3.912-8.712,6.744-15.771
		c0.465-1.159,1.203-2.878,2.251-5.141c1.005-2.313,1.586-3.518,1.686-3.616c0.232-0.222,0.697-0.32,1.354-0.32
		c0.249,0,0.655,0,1.162-0.033c1.305-0.059,2.865-0.137,4.7-0.221c2.633,0,4.743-0.074,6.337-0.236
		c1.586-0.125,2.483-0.183,2.691-0.183c0.249,0,0.539,0.008,0.88,0.075c0.05,0.344,0.05,0.631,0.05,0.813l-0.066,1.162
		c0,0.229,0,0.548-0.05,1.019c-2.351,0.344-4.276,0.892-5.73,1.59c-1.054,0.515-1.553,1.121-1.553,1.877v0.581l0.631,11.594
		c0.092,1.063,0.274,6.328,0.623,15.829c0.083,2.104,0.208,4.825,0.474,8.072c0.041,0.402,0.074,0.706,0.074,0.922
		c0.034,0.623,0.175,1.021,0.383,1.212c0.249,0.171,2.482,0.893,6.743,2.172c0.033,0.411,0.033,0.71,0.033,0.901
		c0,0.548,0,1.079-0.033,1.614c-0.681,0-2.367-0.124-5.108-0.469c-2.724-0.245-5.29-0.397-7.64-0.397
		c-3.654,0-7.158,0.152-10.597,0.431c-0.457,0.084-0.88,0.107-1.32,0.141l0.074-2.632c1.021-0.415,2.392-0.73,4.103-1.009
		c1.18-0.22,1.943-0.558,2.276-1.042c0.332-0.49,0.498-1.778,0.498-4.017c0-0.835,0-1.548-0.033-2.213
		c-0.133-2.624-0.2-6.336-0.225-11.041l-0.664-13.387c-0.066-1.894-0.166-3.223-0.259-3.945l-9.342,21.676
		c-0.225,0.485-0.59,1.229-1.021,2.213c-0.581,1.229-0.963,2.068-1.162,2.542c-1.937,4.667-3.256,8.237-3.995,10.729
		c-0.232,0.615-0.515,1.438-0.922,2.455l-2.882-0.034l-2.034-5.805c-0.582-1.532-1.628-3.82-3.09-6.909
		c-0.855-1.765-1.512-3.247-1.993-4.34c-0.232-0.465-0.399-0.809-0.482-1.013l-0.456-0.968c-0.017-0.141-0.042-0.27-0.116-0.361
		l-5.572-12.174l-3.431-7.434l-0.29,17.959l-0.274,11.64c0,1.909,0.374,3.289,1.063,4.103c0.724,0.834,2.243,1.532,4.609,2.097
		l1.812,0.461v2.778c-1.453-0.024-3.031-0.117-4.692-0.329c-1.661-0.199-3.87-0.277-6.619-0.277
		C27.414,431.04,24.948,431.144,20.588,431.377 M286.174,345.355c0.532-0.125,0.532-0.125,0.947-0.262v0.137
		c1.428,1.528,3.33,2.65,5.523,2.65c3.479,0,6.386-2.368,7.191-5.444c48.284-6.844,43.027-67.547,60.334-70.778
		c-9.566-0.839-15.064,6.716-20.496,16.896c0.448-17.735-8.039-35.735-9.409-44.102c-1.379-4.727,5.273-8.63,9.559-4.888
		c2.5,3.342,3.04,6.008,1.503,11.854c3.605,0.972,7.483-7.37,2.102-12.972c-5.655-6.977-17.175-4.613-17.291,4.608
		c3.713,21.634,14.086,39.785,7.034,56.382c-0.813,2.084-1.661,4.347-1.785,5.021c6.652-29.014-31.8-67.402-32.911-79.406
		c-1.229-8.089,11.635-9.6,4.841,3.496c4.685-0.282,7.316-5.315,6.361-8.791c-0.273-3.491-3.745-6.016-7.316-6.016
		c-3.886,0.418-7.499,3.482-8.188,6.564c-1.221,5.452,2.923,16.904,12.184,30.283c13.678,19.537,24.341,42.99,18.246,58.481
		c-4.146-26.944-25.172-24.689-36.525-42.965c-7.981-13.133,15.14-19.984,7.217,0.698c10.921-2.392,6.494-15.762-1.785-17.469
		c-4.435-0.826-10.382,2.246-11.627,8.508c-1.387,4.729,1.794,14.513,13.139,23.889c-19.25-1.549-30.005,14.928-18.679,21.758
		c0-23.593,42.763-15.766,43.567,8.098c-20.479-30.849-44.405,2.641-25.736,10.037c5.414,0.858,8.711-0.689,10.522-3.903
		c0.266-0.428-8.72,1.254-9.269-5.166c0-3.343,3.313-5.606,5.689-5.437c6.885,0.283,15.895,16.341-2.774,28.628
		c-1.387-1.54-3.479-2.661-5.696-2.661c-3.571,0-6.619,2.661-7.151,6.124c-31.417-3.463-25.039-56.511-24.756-75.233
		c0.39-19.806-23.652-18.968-23.262-2.794c0,14.803,11.087,67.746,28.775,77.338c-24.897-2.093-41.781-39.082-41.781-78.019
		c0-15.206-13.52-15.339-18.229-8.223c0-0.149,0.15-0.149,0.15-0.295l-0.316,0.295l0.166,0.112c-0.44,0.582-0.715,1.262-0.972,1.96
		c-2.633,5.461-7.873,15.497-12.59,27.078v14.11c0.398,1.681,0.398,2.669,0.398,2.669c4.011,15.053,5.813,29.308,5.813,29.308
		c1.254,10.306-3.87,12.964-6.212,13.649v5.174c17.273-3.501,11.75-33.224,2.209-58.615c2.2-6.424,5.688-14.803,10.514-22.319
		C208.725,288.986,225.317,350.653,286.174,345.355 M192.68,346.34v-5.174h-0.142c-6.485-0.523-6.61-9.484-6.062-13.649
		c0,0,0.787-14.255,4.675-29.308c0,0,0.556-1.549,1.246-3.915c0.141,0.386,0.141,0.825,0.282,1.246v-14.11l-0.282,0.573
		c-5.382-13.4-11.054-24.57-14.634-29.305c-4.742-7.125-18.138-6.862-18.138,8.223c0,39.069-17,76.047-41.881,78.015
		c17.813-9.492,28.868-62.539,28.868-77.326c0.307-16.185-23.777-17.02-23.362,2.804c0.416,18.84,6.777,72.555-25.18,75.369
		c-0.407,0.121-0.54-0.148-0.672,0c-0.549-3.625-3.605-6.303-7.201-6.303c-2.217,0-4.261,1.138-5.663,2.678
		c-18.653-12.295-9.692-28.355-2.625-28.634c2.184-0.121,5.531,2.113,5.664,5.451c-0.689,6.42-9.684,4.747-9.409,5.174
		c1.951,3.224,5.248,4.721,10.655,3.896c18.693-7.374-5.407-40.885-25.712-10.012c0.673-23.889,43.55-31.694,43.426-8.126
		c11.303-6.844,0.681-23.312-18.553-21.779c11.202-9.348,14.399-19.117,12.979-23.863c-1.071-6.279-7.167-9.36-11.444-8.5
		c-8.437,1.656-12.722,15.056-1.942,17.452c-7.74-20.674,15.354-13.815,7.184-0.706c-11.162,18.287-32.355,16.037-36.351,42.99
		c-6.236-15.519,4.401-38.958,18.122-58.457c9.251-13.43,13.553-24.883,12.174-30.317c-0.722-3.073-4.302-6.149-8.171-6.565
		c-3.58,0-6.91,2.525-7.185,6.008c-0.997,3.494,1.495,8.51,6.204,8.796c-6.776-13.109,6.079-11.601,4.983-3.508
		c-1.122,12.024-39.698,50.393-32.913,79.442c-0.282-0.71-0.971-2.943-1.811-5.033c-7.183-16.612,3.331-34.775,6.936-56.385
		c-0.15-9.218-11.652-11.614-17.299-4.604c-5.373,5.577-1.37,13.943,2.209,12.976c-1.503-5.846-0.947-8.525,1.527-11.867
		c4.152-3.767,10.779,0.138,9.542,4.866c-1.535,8.38-9.948,26.397-9.542,44.136c-5.249-10.173-10.937-17.738-20.338-16.896
		c17.308,3.354,11.908,63.922,60.159,70.748c0.997,3.081,3.879,5.436,7.192,5.436c2.209,0,4.302-1.1,5.672-2.641v-0.121
		c0.416,0.121,0.98,0.121,1.388,0.246c63.066,6,78.969-59.737,81.594-81.782c5.673,7.558,9.56,16.904,11.91,23.872
		c-9.843,25.832-17.433,55.958,1.636,58.628C192.538,346.477,192.68,346.34,192.68,346.34 M239.427,236.064
		c0-5.157,4.137-9.347,9.401-9.347c5.116,0,9.384,4.189,9.384,9.347c0,5.303-4.268,9.509-9.384,9.509
		C243.563,245.573,239.427,241.367,239.427,236.064 M203.741,233.282c0-5.285,4.277-9.468,9.385-9.468
		c5.141,0,9.409,4.183,9.409,9.468c0,5.166-4.269,9.33-9.409,9.33C208.019,242.612,203.741,238.448,203.741,233.282 M161.57,234.263
		c0-5.157,4.135-9.347,9.393-9.347c5.115,0,9.276,4.189,9.276,9.347c0,5.303-4.161,9.492-9.276,9.492
		C165.705,243.755,161.57,239.565,161.57,234.263 M126.731,236.505c0-5.187,4.276-9.359,9.393-9.359
		c5.115,0,9.409,4.173,9.409,9.359c0,5.29-4.294,9.501-9.409,9.501C131.008,246.006,126.731,241.795,126.731,236.505"/>
</g>
</svg>
