<?xml version="1.0" encoding="utf-8"?>
<!-- Generator: Adobe Illustrator 15.0.0, SVG Export Plug-In . SVG Version: 6.00 Build 0)  -->
<!DOCTYPE svg PUBLIC "-//W3C//DTD SVG 1.0//EN" "http://www.w3.org/TR/2001/REC-SVG-20010904/DTD/svg10.dtd">
<svg version="1.0" id="Camada_1" xmlns="http://www.w3.org/2000/svg" xmlns:xlink="http://www.w3.org/1999/xlink" x="0px" y="0px"
	 width="847.598px" height="217.971px" viewBox="0 0 847.598 217.971" enable-background="new 0 0 847.598 217.971"
	 xml:space="preserve">
<path fill="#FFFFFF" d="M93.968,14.297H22.54v0.887c14.696,5.863,12.936,27.331,12.936,40.564v110.814
	c0,13.206,1.76,34.96-13.223,40.251v0.887h58.492v-0.887c-15.582-8.809-15.292-20.582-15.292-37.027V37.225
	c6.76-1.173,13.52-1.772,20.582-1.772c23.514,0,41.738,10.294,41.738,36.16c0,28.218-27.342,43.803-52.615,45.262
	c6.76,3.231,14.109,4.118,21.456,4.118c33.217,0,64.668-21.469,64.668-55.263C161.282,32.821,132.177,14.297,93.968,14.297
	 M344.299,15.184l-0.3-0.887H288.15v0.887c14.695,5.577,12.935,27.045,12.935,40.251v88.485c0,10.574,0.3,17.924-6.173,26.752
	c-9.695,13.813-26.446,20.563-42.913,20.563c-30.274,0-46.728-18.217-46.728-57.322V55.435c0-13.206-1.773-34.674,12.923-40.251
	v-0.887h-55.846v0.887c14.991,5.577,12.933,27.045,12.933,40.251v78.478c0,21.182-0.587,40.857,14.995,57.922
	c13.222,14.406,33.804,20.555,53.204,20.555c20.569,0,44.67-7.035,57.605-24.1v19.41h43.214v-0.887
	c-14.995-5.576-13.236-27.045-13.236-40.251V55.748C331.063,42.229,329.304,20.761,344.299,15.184 M516.136,169.48
	c-18.51,10.601-40.564,18.522-62.606,18.522c-45.259,0-74.664-38.505-74.664-81.708c0-42.624,28.218-72.301,68.787-72.301
	c19.39,0,38.206,6.464,54.371,16.751V16.929c-17.338-4.091-35.567-7.349-53.492-7.349c-60.26,0-103.169,40.278-103.169,101.118
	c0,62.9,42.91,101.691,112.286,101.691c15.271,0,30.57-2.344,44.376-8.809l14.991-34.101H516.136z"/>
<path fill="#FFFFFF" d="M644.473,166.561l-42.324-53.204c24.101-5.604,46.729-25.873,46.729-51.745
	c0-26.733-21.455-47.315-60.841-47.315h-69.955v0.886c14.999,5.578,12.939,27.046,12.939,40.565v110.813
	c0,13.207,2.06,34.961-12.939,40.252v0.887h56.137v-0.887c-14.979-5.291-13.22-26.732-13.22-40.252V34.879
	c6.756-1.172,13.22-2.058,19.982-2.372c19.696-0.859,37.919,11.467,37.919,32.649c0,27.619-27.331,38.48-50.845,42.024
	l27.031,41.431l35.867,44.396c8.815,10.861,18.51,14.693,34.088,14.693h27.046C675.336,197.118,656.813,181.827,644.473,166.561
	 M725.035,57.494c0-20.269,21.155-26.732,37.913-26.732c16.465,0,34.688,6.749,46.155,18.503V16.07
	c-14.112-4.431-29.104-6.49-43.797-6.49c-35.867,0-73.773,14.119-73.773,51.145c0,62.32,101.105,54.091,101.105,99.946
	c0,20.583-25.279,30.563-42.03,30.563c-22.927,0-47.028-9.408-64.365-24.387l8.516,36.732c16.758,6.178,34.681,8.809,52.618,8.809
	c45.849,0,78.764-29.391,78.764-60.84C826.141,97.179,725.035,97.772,725.035,57.494"/>
</svg>
