<?xml version="1.0" encoding="utf-8"?>
<!-- Generator: Adobe Illustrator 15.0.0, SVG Export Plug-In . SVG Version: 6.00 Build 0)  -->
<!DOCTYPE svg PUBLIC "-//W3C//DTD SVG 1.0//EN" "http://www.w3.org/TR/2001/REC-SVG-20010904/DTD/svg10.dtd">
<svg version="1.0" xmlns="http://www.w3.org/2000/svg" xmlns:xlink="http://www.w3.org/1999/xlink" x="0px" y="0px"
	 width="346.666px" height="152.667px" viewBox="0 0 346.666 152.667" enable-background="new 0 0 346.666 152.667"
	 xml:space="preserve">
<g id="Mono_Branco_c_x2F__sub" display="none">
	<g display="inline">
		<g>
			<path fill="#FFFFFF" d="M31.981,79.876c-0.904-0.776-1.488-1.914-1.488-3.199c0-0.953,0.326-1.824,0.859-2.532
				c-4.637-6.685-7.988-14.318-9.703-22.548c-3.887,7.394-6.094,15.805-6.094,24.736c0,12.064,4.016,23.188,10.775,32.117
				c-0.039-0.885-0.064-1.771-0.064-2.666C26.267,96.536,28.325,87.764,31.981,79.876z"/>
			<path fill="#FFFFFF" d="M54.546,96.621c-2.303-0.043-4.152-1.913-4.152-4.225c0-0.131,0.023-0.255,0.037-0.383
				c-5.205-3.135-9.918-7.004-13.984-11.477c-0.527,0.234-1.107,0.373-1.723,0.373c-0.236,0-0.461-0.033-0.688-0.069
				c-3.52,7.597-5.518,16.036-5.518,24.944c0,1.918,0.104,3.811,0.283,5.68c9.762,11.113,24.066,18.137,40.023,18.137
				c3.248,0,6.422-0.307,9.512-0.864C67.22,121.027,58.735,109.775,54.546,96.621z"/>
			<path fill="#FFFFFF" d="M52.606,88.699c-0.625-3.516-0.977-7.123-0.977-10.815c0-7.537,1.379-14.751,3.861-21.437
				c-0.115-0.082-0.219-0.175-0.324-0.266c-6.926,4.618-12.84,10.636-17.322,17.659c0.686,0.753,1.109,1.741,1.109,2.837
				c0,0.907-0.289,1.742-0.775,2.434c3.811,4.176,8.207,7.807,13.061,10.77C51.601,89.392,52.065,88.992,52.606,88.699z"/>
			<path fill="#FFFFFF" d="M113.251,92.458c0.066,0.299,0.107,0.607,0.107,0.927c0,2.168-1.637,3.935-3.736,4.182
				c-0.959,6.767-3.016,13.181-5.986,19.064c8.703-7.526,14.953-17.812,17.361-29.507C118.56,89.091,115.968,90.872,113.251,92.458z
				"/>
			<path fill="#FFFFFF" d="M105.901,96.097c-7.305,3.043-15.297,4.756-23.691,4.756c-8.84,0-17.24-1.895-24.857-5.252
				c-0.191,0.166-0.395,0.313-0.619,0.441c4.277,13.336,13.133,24.628,24.711,32.041c6.416-1.559,12.379-4.277,17.656-7.93
				c4.236-6.844,7.105-14.613,8.281-22.922C106.806,96.968,106.308,96.576,105.901,96.097z"/>
			<path fill="#FFFFFF" d="M117.046,53.702c-6.842-3.812-14.512-6.308-22.662-7.164c-0.094,0.238-0.209,0.466-0.338,0.682
				c10.049,11.003,16.207,25.616,16.207,41.655c0,0.15-0.008,0.297-0.01,0.447c0.748,0.205,1.416,0.599,1.936,1.144
				c3.348-1.96,6.5-4.222,9.396-6.773c0.33-2.407,0.516-4.86,0.516-7.358C122.091,68.239,120.278,60.572,117.046,53.702z"/>
			<path fill="#FFFFFF" d="M92.218,48.663c-0.59,0.314-1.246,0.513-1.959,0.519c-1.916,0.015-3.525-1.255-4.059-2.998
				c-8.693,0.32-16.912,2.49-24.268,6.152c0.055,0.268,0.088,0.542,0.088,0.824c0.02,2.338-1.859,4.246-4.195,4.265
				c-0.113,0.002-0.221-0.023-0.33-0.03c-2.348,6.465-3.623,13.434-3.566,20.703c0.027,3.515,0.381,6.948,0.998,10.291
				c2.252,0.078,4.066,1.906,4.084,4.182c0.006,0.464-0.082,0.902-0.217,1.321c7.262,3.077,15.246,4.765,23.623,4.697
				c8.055-0.063,15.725-1.737,22.719-4.702c-0.039-0.225-0.074-0.453-0.074-0.691c-0.016-1.941,1.283-3.568,3.063-4.082
				c0-0.151,0.006-0.301,0.006-0.453C108.005,73.214,101.974,59.184,92.218,48.663z"/>
			<path fill="#FFFFFF" d="M75.675,35.916c-0.775,0.928-1.928,1.531-3.232,1.531c-0.775,0-1.492-0.223-2.117-0.588
				c-3.713,3.906-6.902,8.307-9.457,13.102c0.07,0.071,0.137,0.148,0.207,0.225c7.678-3.751,16.238-5.945,25.281-6.202
				c0.068-0.267,0.156-0.523,0.273-0.767C83.272,40.4,79.599,37.949,75.675,35.916z"/>
			<path fill="#FFFFFF" d="M84.981,25.568c-3.086,1.69-5.998,3.656-8.725,5.845c0.258,0.548,0.418,1.155,0.418,1.802
				c0,0.229-0.031,0.449-0.068,0.668c4.113,2.123,7.973,4.67,11.488,7.624c0.67-0.45,1.479-0.714,2.348-0.714
				c2.084,0,3.805,1.506,4.156,3.485c7.338,0.771,14.293,2.821,20.643,5.933C108.688,38.591,97.909,29.679,84.981,25.568z"/>
			<path fill="#FFFFFF" d="M72.442,28.983c0.865,0,1.664,0.262,2.336,0.706c2.268-1.822,4.666-3.49,7.182-4.986
				c-4.201-1.067-8.602-1.637-13.135-1.637c-7.133,0-13.93,1.41-20.146,3.951c7.172,0.035,14.055,1.3,20.459,3.587
				C69.911,29.624,71.097,28.983,72.442,28.983z"/>
			<path fill="#FFFFFF" d="M68.212,33.214c0-0.174,0.027-0.346,0.051-0.516c-6.221-2.211-12.902-3.433-19.873-3.433
				c-1.672,0-3.32,0.093-4.957,0.229c-8.244,4.479-15.172,11.072-20.059,19.05c1.439,8.882,4.859,17.099,9.77,24.212
				c0.488-0.197,1.021-0.311,1.58-0.311c0.428,0,0.838,0.083,1.23,0.202c4.654-7.3,10.775-13.567,17.973-18.364
				c-0.127-0.405-0.215-0.826-0.215-1.274c0-2.337,1.895-4.231,4.232-4.231c0.326,0,0.641,0.045,0.945,0.115
				c2.662-4.998,5.982-9.594,9.855-13.66C68.417,34.631,68.212,33.951,68.212,33.214z"/>
		</g>
		<g>
			<g>
				<path fill="#FFFFFF" d="M172.673,77.63l-0.125,0.315c-0.748,1.876-1.494,3.345-2.215,4.365c-0.688,0.97-1.631,1.701-2.805,2.176
					c-1.201,0.486-2.855,0.733-4.916,0.733h-4.891c-2.674,0-4.605-0.444-5.744-1.32c-1.098-0.846-1.654-2.437-1.654-4.729V37.759
					c0-2.233,0.553-3.77,1.645-4.564c1.143-0.834,2.475-1.282,3.959-1.33l0.482-0.016v-1.64h-19.145v1.64l0.484,0.016
					c1.529,0.048,2.865,0.506,3.967,1.359c1.061,0.82,1.598,2.346,1.598,4.535v42.838c0,1.833-0.49,3.265-1.457,4.254
					c-0.977,1-2.063,1.486-3.322,1.486h-1.27v1.617h34.645l2.387-10.324H172.673z"/>
				<path fill="#FFFFFF" d="M211.95,78.054l-0.115,0.337c-0.496,1.437-1.115,2.676-1.842,3.685c-0.703,0.978-1.68,1.752-2.9,2.304
					c-1.238,0.558-2.854,0.841-4.803,0.841h-8.436c-1.895,0-3.102-0.467-3.584-1.389c-0.537-1.027-0.809-2.271-0.809-3.698V60.488
					h10.4c0.979,0,1.922,0.075,2.889,0.23c0.42,0,0.92,0.117,1.488,0.348c0.551,0.226,1.125,0.701,1.709,1.413
					c0.584,0.714,0.988,1.769,1.201,3.134l0.066,0.422h1.508V52.167h-1.533l-0.045,0.452c-0.211,2.21-1.018,3.574-2.465,4.171
					c-1.551,0.64-3.34,0.964-5.318,0.964h-9.9V32.982h11.324c6.094,0,9.057,2.181,9.057,6.666v0.5h1.539v-9.938h-34.824v1.655h1.271
					c1.779,0,2.982,0.552,3.676,1.686c0.73,1.203,1.102,2.646,1.102,4.286v42.761c0,2.044-0.523,3.522-1.559,4.395
					c-1.055,0.894-2.139,1.346-3.219,1.346h-1.271v1.617h34.725l2.186-9.9H211.95z"/>
				<path fill="#FFFFFF" d="M271.245,86.337c-1.314,0-2.508-0.125-3.545-0.372c-1-0.237-2.215-0.936-3.613-2.077
					c-1.416-1.154-3.014-3.067-4.752-5.688l-14.176-21.205l11.91-16.236c0.238-0.384,1.287-1.687,3.127-3.886
					c1.592-2.037,2.986-3.356,4.143-3.924c1.176-0.576,2.393-0.942,3.615-1.088l0.441-0.053v-1.6h-15.834v1.628l0.473,0.026
					c1.66,0.094,2.764,0.449,3.188,1.027c0.461,0.631,0.693,1.231,0.693,1.786c0,1.173-0.785,2.878-2.33,5.06l-10.939,14.908
					l-9.885-14.881c-1.252-1.965-1.887-3.599-1.887-4.855c0-0.721,0.277-1.373,0.848-1.99c0.561-0.604,1.711-0.959,3.42-1.055
					l0.471-0.026v-1.628h-21.418v1.616l0.459,0.037c1.764,0.146,3.363,0.647,4.754,1.49c1.391,0.842,3.164,2.922,5.271,6.186
					l13.871,20.937L225.911,79.28c-0.096,0.145-0.615,0.803-2.551,3.119c-2.141,2.615-4.771,3.941-7.824,3.941l-0.764-0.015v1.629
					h17.988v-1.63l-0.83,0.018c-1.658,0-2.744-0.356-3.225-1.06c-0.557-0.808-0.838-1.542-0.838-2.182
					c0-1.373,0.705-3.023,2.1-4.908l11.174-15.44l11.115,16.769c0.996,1.528,1.5,2.784,1.5,3.733c0,0.615-0.25,1.299-0.744,2.033
					c-0.451,0.674-1.512,1.027-3.154,1.05l-0.492,0.007v1.61h22.379v-1.617H271.245z"/>
				<path fill="#FFFFFF" d="M288.931,33.18c1.086-0.873,2.432-1.315,4.002-1.315h0.5v-1.655h-18.988v1.655h0.5
					c1.527,0,2.859,0.408,3.961,1.213c1.053,0.771,1.588,2.27,1.588,4.451v43.068c0,2.064-0.541,3.547-1.607,4.406
					c-1.096,0.886-2.422,1.334-3.941,1.334h-0.5v1.617h18.988v-1.617h-0.5c-1.439,0-2.711-0.45-3.891-1.376
					c-1.125-0.885-1.695-2.354-1.695-4.364V37.529C287.347,35.488,287.88,34.025,288.931,33.18z"/>
				<path fill="#FFFFFF" d="M327.491,64.349c-2.33-2.292-5.633-4.62-9.814-6.917c-2.49-1.387-4.479-2.543-5.91-3.436
					c-1.43-0.89-2.684-1.859-3.729-2.881c-1.023-0.999-1.809-2.166-2.332-3.469c-0.525-1.308-0.793-2.832-0.793-4.533
					c0-2.191,0.447-4.161,1.332-5.854c0.875-1.681,2.137-3.027,3.746-4.003c1.605-0.975,3.475-1.469,5.557-1.469
					c3.182,0,5.777,0.994,7.715,2.953c1.951,1.978,3.117,4.312,3.461,6.937l0.057,0.435h1.557V28.978h-1.502l-0.1,0.371
					c-0.324,1.221-0.869,1.361-1.25,1.361c-0.613,0-1.096-0.086-1.502-0.283c-2.658-0.859-5.289-1.296-7.82-1.296
					c-3.359,0-6.412,0.768-9.07,2.281c-2.662,1.516-4.744,3.554-6.193,6.058c-1.451,2.505-2.186,5.168-2.186,7.916
					c0,2.37,0.416,4.506,1.236,6.35c0.818,1.834,1.938,3.447,3.324,4.797c1.369,1.328,2.738,2.426,4.072,3.262
					c1.314,0.827,3.301,1.966,6.076,3.483c3.891,2.073,6.822,4.121,8.717,6.089c1.836,1.91,2.768,4.418,2.768,7.454
					c0,1.466-0.322,2.955-0.959,4.424c-0.627,1.442-1.773,2.688-3.408,3.704c-1.645,1.023-3.883,1.542-6.65,1.542
					c-3.693,0-6.867-1.039-9.436-3.088c-2.566-2.049-4.322-5.129-5.215-9.155l-0.088-0.392h-1.557v15.215h1.559l0.086-0.393
					c0.34-1.551,0.537-2.167,0.646-2.414c0.039-0.089,0.119-0.275,0.6-0.275c0.127,0,0.482,0.047,1.361,0.336
					c1.867,0.907,3.734,1.625,5.553,2.132c1.834,0.51,3.967,0.769,6.338,0.769c3.795,0,7.027-0.748,9.609-2.223
					c2.584-1.478,4.547-3.401,5.832-5.721c1.281-2.312,1.932-4.746,1.932-7.234C331.11,69.972,329.892,66.709,327.491,64.349z"/>
			</g>
			<g>
				<path fill="#FFFFFF" d="M143.931,116.926c0-0.028,0-0.057,0-0.084c0-0.551-0.18-1.057-0.539-1.52
					c-0.359-0.462-0.941-0.693-1.744-0.693s-1.43,0.355-1.883,1.064s-0.678,1.718-0.678,3.024s0.23,2.317,0.691,3.03
					c0.463,0.715,1.111,1.071,1.947,1.071c0.834,0,1.678-0.373,2.527-1.12c0.27,0.168,0.451,0.383,0.545,0.645
					c-0.393,0.401-0.873,0.726-1.441,0.973c-0.57,0.247-1.217,0.371-1.939,0.371s-1.355-0.238-1.896-0.714
					c-0.99-0.868-1.484-2.263-1.484-4.187c0-1.643,0.348-2.886,1.043-3.73s1.547-1.268,2.555-1.268s1.809,0.27,2.4,0.806
					c0.594,0.536,0.891,1.141,0.891,1.813c0,0.391-0.184,0.588-0.547,0.588C144.247,116.997,144.099,116.973,143.931,116.926z"/>
				<path fill="#FFFFFF" d="M148.13,122.19l-0.016,0.49c0.318-0.019,0.604-0.028,0.855-0.028h3.863c0,0.187-0.01,0.327-0.027,0.42
					c-0.037,0.299-0.248,0.448-0.631,0.448h-4.438c-0.178,0-0.318-0.059-0.42-0.175c-0.104-0.116-0.154-0.278-0.154-0.483v-8.82
					l0.084-0.084h5.377c0.018,0.104,0.027,0.238,0.027,0.406s-0.023,0.318-0.07,0.448c-1.484,0-2.973,0-4.467,0l0.016,0.854v2.604
					l0.826-0.014h2.953c0.027,0.14,0.043,0.279,0.043,0.42c0,0.14-0.016,0.279-0.043,0.42h-2.953c-0.355,0-0.631-0.005-0.826-0.014
					V122.19z"/>
				<path fill="#FFFFFF" d="M161.653,113.917l0.084,0.069v9.534c-0.168,0.027-0.375,0.042-0.623,0.042
					c-0.246,0-0.445-0.015-0.594-0.042l-3.5-6.454c-0.281-0.513-0.602-1.152-0.967-1.918h-0.041c0.055,1.681,0.084,2.66,0.084,2.94
					v5.432c-0.188,0.027-0.346,0.042-0.477,0.042s-0.279-0.015-0.447-0.042v-9.563c0.168-0.027,0.371-0.041,0.607-0.041
					c0.238,0,0.441,0.014,0.609,0.041l3.486,6.455c0.047,0.084,0.373,0.732,0.98,1.945v0.014h0.041
					c-0.047-1.119-0.07-2.16-0.07-3.121v-4.69c0-0.233,0.033-0.399,0.1-0.497c0.064-0.098,0.199-0.146,0.404-0.146H161.653z"/>
				<path fill="#FFFFFF" d="M167.911,114.812l-0.756-0.015v8.723c-0.141,0.027-0.305,0.042-0.496,0.042s-0.357-0.015-0.498-0.042
					v-8.723l-0.742,0.015h-1.82c-0.027-0.14-0.041-0.277-0.041-0.413c0-0.135,0.014-0.282,0.041-0.441h6.105
					c0.047,0.141,0.07,0.275,0.07,0.406c0,0.299-0.201,0.448-0.604,0.448H167.911z"/>
				<path fill="#FFFFFF" d="M171.649,113.958l2.799-0.041c0.961,0,1.703,0.244,2.227,0.734c0.521,0.49,0.783,1.164,0.783,2.023
					c0,0.635-0.162,1.176-0.49,1.623c-0.326,0.449-0.779,0.757-1.357,0.925c0.383,0.131,0.695,0.504,0.938,1.12l0.742,1.932
					c0.205,0.523,0.402,0.854,0.588,0.994c-0.131,0.225-0.359,0.336-0.686,0.336c-0.188,0-0.328-0.051-0.428-0.154
					c-0.098-0.102-0.193-0.271-0.285-0.504l-0.842-2.184c-0.168-0.439-0.361-0.768-0.58-0.987s-0.549-0.329-0.986-0.329h-1.514
					v4.074c-0.139,0.027-0.307,0.042-0.504,0.042c-0.195,0-0.359-0.015-0.488-0.042v-9.479L171.649,113.958z M172.558,114.743v3.863
					c0.803-0.019,1.434-0.027,1.891-0.027c0.719,0,1.227-0.185,1.525-0.554c0.299-0.368,0.449-0.823,0.449-1.364
					c0-0.542-0.15-0.994-0.449-1.358s-0.855-0.546-1.672-0.546S172.903,114.751,172.558,114.743z"/>
				<path fill="#FFFFFF" d="M179.39,118.732c0-0.831,0.123-1.614,0.365-2.353c0.242-0.736,0.615-1.33,1.119-1.777
					c0.607-0.541,1.365-0.813,2.275-0.813s1.66,0.271,2.248,0.813c0.504,0.447,0.877,1.041,1.119,1.777
					c0.242,0.738,0.363,1.521,0.363,2.353c0,1.876-0.494,3.257-1.482,4.144c-0.588,0.542-1.338,0.813-2.248,0.813
					s-1.668-0.271-2.275-0.813C179.886,121.989,179.39,120.608,179.39,118.732z M180.56,117.304
					c-0.08,0.448-0.119,0.924-0.119,1.428s0.039,0.979,0.119,1.429c0.08,0.447,0.215,0.884,0.406,1.309s0.471,0.761,0.84,1.008
					c0.369,0.248,0.814,0.371,1.338,0.371c0.521,0,0.967-0.123,1.336-0.371c0.369-0.247,0.646-0.583,0.834-1.008
					c0.186-0.425,0.318-0.861,0.398-1.309c0.078-0.449,0.119-0.925,0.119-1.429s-0.041-0.978-0.119-1.421
					c-0.08-0.443-0.213-0.877-0.398-1.303c-0.188-0.424-0.465-0.76-0.834-1.008c-0.369-0.246-0.814-0.371-1.336-0.371
					c-0.523,0-0.969,0.125-1.338,0.371c-0.369,0.248-0.648,0.582-0.84,1.002S180.64,116.856,180.56,117.304z"/>
				<path fill="#FFFFFF" d="M198.823,116.345c0.195,0.667,0.293,1.47,0.293,2.407c0,0.938-0.098,1.738-0.293,2.401
					c-0.197,0.663-0.574,1.232-1.135,1.708c-0.27,0.233-0.629,0.411-1.078,0.532c-0.447,0.122-0.83,0.183-1.146,0.183
					c-0.318,0-1.289-0.02-2.912-0.057l-0.084-0.084v-9.395l0.084-0.084c0.811-0.027,1.744-0.041,2.799-0.041
					c0.393,0,0.813,0.061,1.26,0.182c0.449,0.121,0.809,0.299,1.078,0.531C198.249,115.106,198.626,115.678,198.823,116.345z
					 M193.46,122.722l1.877,0.014c0.457,0,0.855-0.081,1.197-0.245c0.34-0.163,0.605-0.371,0.797-0.623s0.346-0.564,0.463-0.938
					s0.193-0.729,0.23-1.064s0.057-0.709,0.057-1.119c0-0.411-0.02-0.787-0.057-1.127c-0.037-0.342-0.113-0.695-0.23-1.064
					s-0.271-0.68-0.463-0.932s-0.457-0.459-0.797-0.623c-0.342-0.162-0.74-0.244-1.197-0.244l-1.877-0.014V122.722z"/>
				<path fill="#FFFFFF" d="M202.462,122.19l-0.014,0.49c0.316-0.019,0.602-0.028,0.854-0.028h3.865c0,0.187-0.01,0.327-0.029,0.42
					c-0.037,0.299-0.246,0.448-0.629,0.448h-4.439c-0.176,0-0.316-0.059-0.42-0.175c-0.102-0.116-0.152-0.278-0.152-0.483v-8.82
					l0.084-0.084h5.375c0.02,0.104,0.027,0.238,0.027,0.406s-0.023,0.318-0.068,0.448c-1.484,0-2.975,0-4.467,0l0.014,0.854v2.604
					l0.826-0.014h2.955c0.027,0.14,0.041,0.279,0.041,0.42c0,0.14-0.014,0.279-0.041,0.42h-2.955c-0.355,0-0.631-0.005-0.826-0.014
					V122.19z"/>
				<path fill="#FFFFFF" d="M212.78,123.52v-9.563c0.121-0.027,0.283-0.041,0.484-0.041c0.199,0,0.369,0.014,0.51,0.041v9.563
					c-0.141,0.027-0.309,0.042-0.504,0.042S212.911,123.547,212.78,123.52z"/>
				<path fill="#FFFFFF" d="M223.126,116.345c0.197,0.667,0.295,1.47,0.295,2.407c0,0.938-0.098,1.738-0.295,2.401
					c-0.195,0.663-0.574,1.232-1.133,1.708c-0.271,0.233-0.631,0.411-1.078,0.532c-0.449,0.122-0.832,0.183-1.148,0.183
					c-0.318,0-1.287-0.02-2.912-0.057l-0.084-0.084v-9.395l0.084-0.084c0.813-0.027,1.746-0.041,2.801-0.041
					c0.391,0,0.811,0.061,1.26,0.182c0.447,0.121,0.807,0.299,1.078,0.531C222.552,115.106,222.931,115.678,223.126,116.345z
					 M217.765,122.722l1.875,0.014c0.459,0,0.857-0.081,1.197-0.245c0.342-0.163,0.607-0.371,0.799-0.623s0.346-0.564,0.461-0.938
					c0.117-0.373,0.195-0.729,0.232-1.064s0.055-0.709,0.055-1.119c0-0.411-0.018-0.787-0.055-1.127
					c-0.037-0.342-0.115-0.695-0.232-1.064c-0.115-0.369-0.27-0.68-0.461-0.932s-0.457-0.459-0.799-0.623
					c-0.34-0.162-0.738-0.244-1.197-0.244l-1.875-0.014V122.722z"/>
				<path fill="#FFFFFF" d="M225.856,123.52v-9.563c0.121-0.027,0.281-0.041,0.482-0.041s0.371,0.014,0.512,0.041v9.563
					c-0.141,0.027-0.309,0.042-0.504,0.042C226.149,123.562,225.987,123.547,225.856,123.52z"/>
				<path fill="#FFFFFF" d="M229.259,118.732c0-0.831,0.121-1.614,0.363-2.353c0.244-0.736,0.617-1.33,1.121-1.777
					c0.605-0.541,1.365-0.813,2.275-0.813s1.658,0.271,2.246,0.813c0.504,0.447,0.877,1.041,1.121,1.777
					c0.242,0.738,0.363,1.521,0.363,2.353c0,1.876-0.494,3.257-1.484,4.144c-0.588,0.542-1.336,0.813-2.246,0.813
					s-1.67-0.271-2.275-0.813C229.753,121.989,229.259,120.608,229.259,118.732z M230.429,117.304
					c-0.08,0.448-0.119,0.924-0.119,1.428s0.039,0.979,0.119,1.429c0.078,0.447,0.213,0.884,0.404,1.309s0.473,0.761,0.84,1.008
					c0.369,0.248,0.814,0.371,1.338,0.371s0.969-0.123,1.338-0.371c0.367-0.247,0.645-0.583,0.832-1.008s0.32-0.861,0.398-1.309
					c0.08-0.449,0.119-0.925,0.119-1.429s-0.039-0.978-0.119-1.421c-0.078-0.443-0.211-0.877-0.398-1.303
					c-0.188-0.424-0.465-0.76-0.832-1.008c-0.369-0.246-0.814-0.371-1.338-0.371s-0.969,0.125-1.338,0.371
					c-0.367,0.248-0.648,0.582-0.84,1.002S230.507,116.856,230.429,117.304z"/>
				<path fill="#FFFFFF" d="M238.933,123.506l0.742-9.549c0.158-0.027,0.375-0.041,0.65-0.041s0.492,0.014,0.65,0.041l1.666,5.026
					c0.309,0.905,0.5,1.573,0.574,2.002h0.07c0.074-0.429,0.266-1.097,0.574-2.002l1.666-5.026c0.178-0.027,0.393-0.041,0.645-0.041
					s0.471,0.014,0.658,0.041l0.742,9.549c-0.16,0.047-0.32,0.07-0.484,0.07c-0.162,0-0.324-0.015-0.482-0.043l-0.406-5.936
					c-0.027-0.393-0.064-1.26-0.111-2.604h-0.07l-2.283,7.027c-0.148,0.027-0.314,0.042-0.496,0.042s-0.344-0.015-0.482-0.042
					l-2.283-7.027h-0.068c-0.01,0.232-0.027,0.67-0.051,1.309s-0.043,1.07-0.063,1.295l-0.406,5.936
					c-0.158,0.028-0.326,0.043-0.504,0.043S239.054,123.553,238.933,123.506z"/>
				<path fill="#FFFFFF" d="M254.962,120.986L253.954,121h-1.877l-0.994-0.015l-0.84,2.548c-0.121,0.028-0.264,0.043-0.426,0.043
					c-0.164,0-0.33-0.023-0.498-0.07l-0.027-0.043l3.205-9.506c0.15-0.027,0.346-0.041,0.588-0.041c0.244,0,0.42,0.014,0.533,0.041
					l3.219,9.506c-0.148,0.094-0.324,0.141-0.523,0.141c-0.201,0-0.344-0.035-0.428-0.105c-0.084-0.069-0.158-0.203-0.225-0.398
					L254.962,120.986z M251.364,120.131l0.826-0.014h1.65c0.01,0,0.131,0.003,0.365,0.008c0.232,0.004,0.391,0.006,0.475,0.006
					l-0.924-2.785c-0.299-0.887-0.535-1.652-0.713-2.297h-0.07c-0.15,0.57-0.303,1.102-0.463,1.597L251.364,120.131z"/>
				<path fill="#FFFFFF" d="M257.915,122.638c0.029-0.317,0.188-0.583,0.477-0.798c0.924,0.644,1.857,0.966,2.801,0.966
					c0.672,0,1.209-0.142,1.609-0.427c0.402-0.285,0.602-0.675,0.602-1.17c0-0.756-0.514-1.357-1.539-1.806l-1.639-0.714
					c-1.24-0.541-1.861-1.316-1.861-2.324c0-0.719,0.273-1.327,0.818-1.826c0.547-0.5,1.27-0.75,2.17-0.75s1.818,0.225,2.752,0.672
					c0.018,0.328-0.113,0.603-0.393,0.826c-0.84-0.429-1.584-0.644-2.232-0.644s-1.164,0.151-1.547,0.455s-0.574,0.698-0.574,1.183
					c0,0.616,0.467,1.125,1.4,1.526l1.582,0.687c1.391,0.597,2.086,1.432,2.086,2.506c0,0.812-0.279,1.463-0.834,1.953
					c-0.555,0.489-1.4,0.734-2.533,0.734C259.925,123.688,258.878,123.338,257.915,122.638z"/>
				<path fill="#FFFFFF" d="M276.241,116.345c0.195,0.667,0.293,1.47,0.293,2.407c0,0.938-0.098,1.738-0.293,2.401
					c-0.197,0.663-0.574,1.232-1.135,1.708c-0.27,0.233-0.629,0.411-1.078,0.532c-0.447,0.122-0.83,0.183-1.146,0.183
					c-0.318,0-1.289-0.02-2.912-0.057l-0.084-0.084v-9.395l0.084-0.084c0.811-0.027,1.744-0.041,2.799-0.041
					c0.393,0,0.813,0.061,1.26,0.182c0.449,0.121,0.809,0.299,1.078,0.531C275.667,115.106,276.044,115.678,276.241,116.345z
					 M270.878,122.722l1.877,0.014c0.457,0,0.855-0.081,1.197-0.245c0.34-0.163,0.605-0.371,0.797-0.623s0.346-0.564,0.463-0.938
					s0.193-0.729,0.23-1.064s0.057-0.709,0.057-1.119c0-0.411-0.02-0.787-0.057-1.127c-0.037-0.342-0.113-0.695-0.23-1.064
					s-0.271-0.68-0.463-0.932s-0.457-0.459-0.797-0.623c-0.342-0.162-0.74-0.244-1.197-0.244l-1.877-0.014V122.722z"/>
				<path fill="#FFFFFF" d="M283.353,120.986L282.345,121h-1.875l-0.994-0.015l-0.84,2.548c-0.121,0.028-0.264,0.043-0.428,0.043
					s-0.328-0.023-0.496-0.07l-0.029-0.043l3.207-9.506c0.148-0.027,0.344-0.041,0.588-0.041c0.242,0,0.42,0.014,0.531,0.041
					l3.221,9.506c-0.15,0.094-0.324,0.141-0.525,0.141s-0.344-0.035-0.428-0.105c-0.084-0.069-0.158-0.203-0.223-0.398
					L283.353,120.986z M279.755,120.131l0.826-0.014h1.652c0.01,0,0.131,0.003,0.363,0.008c0.234,0.004,0.393,0.006,0.477,0.006
					l-0.924-2.785c-0.299-0.887-0.537-1.652-0.715-2.297h-0.07c-0.148,0.57-0.303,1.102-0.461,1.597L279.755,120.131z"/>
				<path fill="#FFFFFF" d="M290.452,113.958l2.645-0.041c0.916,0,1.652,0.256,2.213,0.77s0.84,1.248,0.84,2.205
					s-0.277,1.693-0.834,2.212c-0.555,0.519-1.295,0.776-2.219,0.776h-1.736v3.641c-0.139,0.027-0.307,0.042-0.504,0.042
					c-0.195,0-0.359-0.015-0.488-0.042v-9.479L290.452,113.958z M291.36,114.743v4.312c0.393-0.009,0.965-0.015,1.717-0.015
					c0.75,0,1.275-0.212,1.574-0.637c0.299-0.424,0.447-0.931,0.447-1.52c0-0.588-0.148-1.089-0.447-1.504
					c-0.299-0.416-0.836-0.623-1.609-0.623C292.267,114.756,291.706,114.751,291.36,114.743z"/>
				<path fill="#FFFFFF" d="M304.872,113.958v6.314c0,1.111-0.309,1.958-0.926,2.541c-0.615,0.584-1.43,0.875-2.441,0.875
					c-1.014,0-1.828-0.294-2.443-0.882c-0.617-0.588-0.924-1.433-0.924-2.534V114l0.084-0.084h0.406c0.205,0,0.34,0.049,0.404,0.146
					c0.066,0.098,0.1,0.264,0.1,0.497v5.698c0,0.84,0.207,1.484,0.623,1.932c0.414,0.448,1,0.672,1.756,0.672
					s1.342-0.224,1.758-0.672c0.414-0.447,0.623-1.092,0.623-1.932v-6.301c0.131-0.027,0.295-0.041,0.496-0.041
					S304.749,113.93,304.872,113.958z"/>
				<path fill="#FFFFFF" d="M313.019,116.926c0-0.028,0-0.057,0-0.084c0-0.551-0.18-1.057-0.539-1.52
					c-0.359-0.462-0.939-0.693-1.742-0.693s-1.432,0.355-1.883,1.064c-0.453,0.709-0.68,1.718-0.68,3.024s0.23,2.317,0.693,3.03
					c0.461,0.715,1.111,1.071,1.945,1.071c0.836,0,1.678-0.373,2.527-1.12c0.271,0.168,0.453,0.383,0.547,0.645
					c-0.393,0.401-0.873,0.726-1.443,0.973c-0.568,0.247-1.215,0.371-1.938,0.371c-0.725,0-1.357-0.238-1.898-0.714
					c-0.988-0.868-1.484-2.263-1.484-4.187c0-1.643,0.348-2.886,1.045-3.73c0.693-0.845,1.547-1.268,2.555-1.268
					s1.807,0.27,2.4,0.806c0.592,0.536,0.889,1.141,0.889,1.813c0,0.391-0.182,0.588-0.545,0.588
					C313.337,116.997,313.187,116.973,313.019,116.926z"/>
				<path fill="#FFFFFF" d="M316.337,113.958l2.801-0.041c0.961,0,1.703,0.244,2.225,0.734c0.523,0.49,0.785,1.164,0.785,2.023
					c0,0.635-0.164,1.176-0.49,1.623c-0.326,0.449-0.779,0.757-1.357,0.925c0.381,0.131,0.695,0.504,0.938,1.12l0.742,1.932
					c0.205,0.523,0.4,0.854,0.588,0.994c-0.131,0.225-0.359,0.336-0.686,0.336c-0.188,0-0.33-0.051-0.428-0.154
					c-0.098-0.102-0.193-0.271-0.287-0.504l-0.84-2.184c-0.168-0.439-0.361-0.768-0.582-0.987c-0.219-0.22-0.547-0.329-0.986-0.329
					h-1.512v4.074c-0.141,0.027-0.309,0.042-0.504,0.042s-0.359-0.015-0.49-0.042v-9.479L316.337,113.958z M317.247,114.743v3.863
					c0.803-0.019,1.432-0.027,1.891-0.027c0.719,0,1.227-0.185,1.525-0.554c0.299-0.368,0.447-0.823,0.447-1.364
					c0-0.542-0.148-0.994-0.447-1.358s-0.857-0.546-1.674-0.546S317.593,114.751,317.247,114.743z"/>
				<path fill="#FFFFFF" d="M323.825,122.638c0.029-0.317,0.188-0.583,0.477-0.798c0.924,0.644,1.857,0.966,2.801,0.966
					c0.672,0,1.209-0.142,1.609-0.427c0.402-0.285,0.602-0.675,0.602-1.17c0-0.756-0.514-1.357-1.539-1.806l-1.639-0.714
					c-1.24-0.541-1.861-1.316-1.861-2.324c0-0.719,0.273-1.327,0.818-1.826c0.547-0.5,1.27-0.75,2.17-0.75s1.818,0.225,2.752,0.672
					c0.018,0.328-0.113,0.603-0.393,0.826c-0.84-0.429-1.584-0.644-2.232-0.644s-1.164,0.151-1.547,0.455s-0.574,0.698-0.574,1.183
					c0,0.616,0.467,1.125,1.4,1.526l1.582,0.687c1.391,0.597,2.086,1.432,2.086,2.506c0,0.812-0.279,1.463-0.834,1.953
					c-0.555,0.489-1.4,0.734-2.533,0.734C325.835,123.688,324.788,123.338,323.825,122.638z"/>
			</g>
			<g>
				<rect x="137.437" y="99.651" fill="#FFFFFF" width="193.5" height="1"/>
			</g>
		</g>
	</g>
</g>
<g id="Mono_Preto_c_x2F__sub" display="none">
	<g display="inline">
		<g>
			<path d="M31.981,79.876c-0.904-0.776-1.488-1.914-1.488-3.199c0-0.953,0.326-1.824,0.859-2.532
				c-4.637-6.685-7.988-14.318-9.703-22.548c-3.887,7.394-6.094,15.805-6.094,24.736c0,12.064,4.016,23.188,10.775,32.117
				c-0.039-0.885-0.064-1.771-0.064-2.666C26.267,96.536,28.325,87.764,31.981,79.876z"/>
			<path d="M54.546,96.621c-2.303-0.043-4.152-1.913-4.152-4.225c0-0.131,0.023-0.255,0.037-0.383
				c-5.205-3.135-9.918-7.004-13.984-11.477c-0.527,0.234-1.107,0.373-1.723,0.373c-0.236,0-0.461-0.033-0.688-0.069
				c-3.52,7.597-5.518,16.036-5.518,24.944c0,1.918,0.104,3.811,0.283,5.68c9.762,11.113,24.066,18.137,40.023,18.137
				c3.248,0,6.422-0.307,9.512-0.864C67.22,121.027,58.735,109.775,54.546,96.621z"/>
			<path d="M52.606,88.699c-0.625-3.516-0.977-7.123-0.977-10.815c0-7.537,1.379-14.751,3.861-21.437
				c-0.115-0.082-0.219-0.175-0.324-0.266c-6.926,4.618-12.84,10.636-17.322,17.659c0.686,0.753,1.109,1.741,1.109,2.837
				c0,0.907-0.289,1.742-0.775,2.434c3.811,4.176,8.207,7.807,13.061,10.77C51.601,89.392,52.065,88.992,52.606,88.699z"/>
			<path d="M113.251,92.458c0.066,0.299,0.107,0.607,0.107,0.927c0,2.168-1.637,3.935-3.736,4.182
				c-0.959,6.767-3.016,13.181-5.986,19.064c8.703-7.526,14.953-17.812,17.361-29.507C118.56,89.091,115.968,90.872,113.251,92.458z
				"/>
			<path d="M105.901,96.097c-7.305,3.043-15.297,4.756-23.691,4.756c-8.84,0-17.24-1.895-24.857-5.252
				c-0.191,0.166-0.395,0.313-0.619,0.441c4.277,13.336,13.133,24.628,24.711,32.041c6.416-1.559,12.379-4.277,17.656-7.93
				c4.236-6.844,7.105-14.613,8.281-22.922C106.806,96.968,106.308,96.576,105.901,96.097z"/>
			<path d="M117.046,53.702c-6.842-3.812-14.512-6.308-22.662-7.164c-0.094,0.238-0.209,0.466-0.338,0.682
				c10.049,11.003,16.207,25.616,16.207,41.655c0,0.15-0.008,0.297-0.01,0.447c0.748,0.205,1.416,0.599,1.936,1.144
				c3.348-1.96,6.5-4.222,9.396-6.773c0.33-2.407,0.516-4.86,0.516-7.358C122.091,68.239,120.278,60.572,117.046,53.702z"/>
			<path d="M92.218,48.663c-0.59,0.314-1.246,0.513-1.959,0.519c-1.916,0.015-3.525-1.255-4.059-2.998
				c-8.693,0.32-16.912,2.49-24.268,6.152c0.055,0.268,0.088,0.542,0.088,0.824c0.02,2.338-1.859,4.246-4.195,4.265
				c-0.113,0.002-0.221-0.023-0.33-0.03c-2.348,6.465-3.623,13.434-3.566,20.703c0.027,3.515,0.381,6.948,0.998,10.291
				c2.252,0.078,4.066,1.906,4.084,4.182c0.006,0.464-0.082,0.902-0.217,1.321c7.262,3.077,15.246,4.765,23.623,4.697
				c8.055-0.063,15.725-1.737,22.719-4.702c-0.039-0.225-0.074-0.453-0.074-0.691c-0.016-1.941,1.283-3.568,3.063-4.082
				c0-0.151,0.006-0.301,0.006-0.453C108.005,73.214,101.974,59.184,92.218,48.663z"/>
			<path d="M75.675,35.916c-0.775,0.928-1.928,1.531-3.232,1.531c-0.775,0-1.492-0.223-2.117-0.588
				c-3.713,3.906-6.902,8.307-9.457,13.102c0.07,0.071,0.137,0.148,0.207,0.225c7.678-3.751,16.238-5.945,25.281-6.202
				c0.068-0.267,0.156-0.523,0.273-0.767C83.272,40.4,79.599,37.949,75.675,35.916z"/>
			<path d="M84.981,25.568c-3.086,1.69-5.998,3.656-8.725,5.845c0.258,0.548,0.418,1.155,0.418,1.802
				c0,0.229-0.031,0.449-0.068,0.668c4.113,2.123,7.973,4.67,11.488,7.624c0.67-0.45,1.479-0.714,2.348-0.714
				c2.084,0,3.805,1.506,4.156,3.485c7.338,0.771,14.293,2.821,20.643,5.933C108.688,38.591,97.909,29.679,84.981,25.568z"/>
			<path d="M72.442,28.983c0.865,0,1.664,0.262,2.336,0.706c2.268-1.822,4.666-3.49,7.182-4.986
				c-4.201-1.067-8.602-1.637-13.135-1.637c-7.133,0-13.93,1.41-20.146,3.951c7.172,0.035,14.055,1.3,20.459,3.587
				C69.911,29.624,71.097,28.983,72.442,28.983z"/>
			<path d="M68.212,33.214c0-0.174,0.027-0.346,0.051-0.516c-6.221-2.211-12.902-3.433-19.873-3.433
				c-1.672,0-3.32,0.093-4.957,0.229c-8.244,4.479-15.172,11.072-20.059,19.05c1.439,8.882,4.859,17.099,9.77,24.212
				c0.488-0.197,1.021-0.311,1.58-0.311c0.428,0,0.838,0.083,1.23,0.202c4.654-7.3,10.775-13.567,17.973-18.364
				c-0.127-0.405-0.215-0.826-0.215-1.274c0-2.337,1.895-4.231,4.232-4.231c0.326,0,0.641,0.045,0.945,0.115
				c2.662-4.998,5.982-9.594,9.855-13.66C68.417,34.631,68.212,33.951,68.212,33.214z"/>
		</g>
		<g>
			<g>
				<path d="M172.673,77.63l-0.125,0.315c-0.748,1.876-1.494,3.345-2.215,4.365c-0.688,0.97-1.631,1.701-2.805,2.176
					c-1.201,0.486-2.855,0.733-4.916,0.733h-4.891c-2.674,0-4.605-0.444-5.744-1.32c-1.098-0.846-1.654-2.437-1.654-4.729V37.759
					c0-2.233,0.553-3.77,1.645-4.564c1.143-0.834,2.475-1.282,3.959-1.33l0.482-0.016v-1.64h-19.145v1.64l0.484,0.016
					c1.529,0.048,2.865,0.506,3.967,1.359c1.061,0.82,1.598,2.346,1.598,4.535v42.838c0,1.833-0.49,3.265-1.457,4.254
					c-0.977,1-2.063,1.486-3.322,1.486h-1.27v1.617h34.645l2.387-10.324H172.673z"/>
				<path d="M211.95,78.054l-0.115,0.337c-0.496,1.437-1.115,2.676-1.842,3.685c-0.703,0.978-1.68,1.752-2.9,2.304
					c-1.238,0.558-2.854,0.841-4.803,0.841h-8.436c-1.895,0-3.102-0.467-3.584-1.389c-0.537-1.027-0.809-2.271-0.809-3.698V60.488
					h10.4c0.979,0,1.922,0.075,2.889,0.23c0.42,0,0.92,0.117,1.488,0.348c0.551,0.226,1.125,0.701,1.709,1.413
					c0.584,0.714,0.988,1.769,1.201,3.134l0.066,0.422h1.508V52.167h-1.533l-0.045,0.452c-0.211,2.21-1.018,3.574-2.465,4.171
					c-1.551,0.64-3.34,0.964-5.318,0.964h-9.9V32.982h11.324c6.094,0,9.057,2.181,9.057,6.666v0.5h1.539v-9.938h-34.824v1.655h1.271
					c1.779,0,2.982,0.552,3.676,1.686c0.73,1.203,1.102,2.646,1.102,4.286v42.761c0,2.044-0.523,3.522-1.559,4.395
					c-1.055,0.894-2.139,1.346-3.219,1.346h-1.271v1.617h34.725l2.186-9.9H211.95z"/>
				<path d="M271.245,86.337c-1.314,0-2.508-0.125-3.545-0.372c-1-0.237-2.215-0.936-3.613-2.077
					c-1.416-1.154-3.014-3.067-4.752-5.688l-14.176-21.205l11.91-16.236c0.238-0.384,1.287-1.687,3.127-3.886
					c1.592-2.037,2.986-3.356,4.143-3.924c1.176-0.576,2.393-0.942,3.615-1.088l0.441-0.053v-1.6h-15.834v1.628l0.473,0.026
					c1.66,0.094,2.764,0.449,3.188,1.027c0.461,0.631,0.693,1.231,0.693,1.786c0,1.173-0.785,2.878-2.33,5.06l-10.939,14.908
					l-9.885-14.881c-1.252-1.965-1.887-3.599-1.887-4.855c0-0.721,0.277-1.373,0.848-1.99c0.561-0.604,1.711-0.959,3.42-1.055
					l0.471-0.026v-1.628h-21.418v1.616l0.459,0.037c1.764,0.146,3.363,0.647,4.754,1.49c1.391,0.842,3.164,2.922,5.271,6.186
					l13.871,20.937L225.911,79.28c-0.096,0.145-0.615,0.803-2.551,3.119c-2.141,2.615-4.771,3.941-7.824,3.941l-0.764-0.015v1.629
					h17.988v-1.63l-0.83,0.018c-1.658,0-2.744-0.356-3.225-1.06c-0.557-0.808-0.838-1.542-0.838-2.182
					c0-1.373,0.705-3.023,2.1-4.908l11.174-15.44l11.115,16.769c0.996,1.528,1.5,2.784,1.5,3.733c0,0.615-0.25,1.299-0.744,2.033
					c-0.451,0.674-1.512,1.027-3.154,1.05l-0.492,0.007v1.61h22.379v-1.617H271.245z"/>
				<path d="M288.931,33.18c1.086-0.873,2.432-1.315,4.002-1.315h0.5v-1.655h-18.988v1.655h0.5c1.527,0,2.859,0.408,3.961,1.213
					c1.053,0.771,1.588,2.27,1.588,4.451v43.068c0,2.064-0.541,3.547-1.607,4.406c-1.096,0.886-2.422,1.334-3.941,1.334h-0.5v1.617
					h18.988v-1.617h-0.5c-1.439,0-2.711-0.45-3.891-1.376c-1.125-0.885-1.695-2.354-1.695-4.364V37.529
					C287.347,35.488,287.88,34.025,288.931,33.18z"/>
				<path d="M327.491,64.349c-2.33-2.292-5.633-4.62-9.814-6.917c-2.49-1.387-4.479-2.543-5.91-3.436
					c-1.43-0.89-2.684-1.859-3.729-2.881c-1.023-0.999-1.809-2.166-2.332-3.469c-0.525-1.308-0.793-2.832-0.793-4.533
					c0-2.191,0.447-4.161,1.332-5.854c0.875-1.681,2.137-3.027,3.746-4.003c1.605-0.975,3.475-1.469,5.557-1.469
					c3.182,0,5.777,0.994,7.715,2.953c1.951,1.978,3.117,4.312,3.461,6.937l0.057,0.435h1.557V28.978h-1.502l-0.1,0.371
					c-0.324,1.221-0.869,1.361-1.25,1.361c-0.613,0-1.096-0.086-1.502-0.283c-2.658-0.859-5.289-1.296-7.82-1.296
					c-3.359,0-6.412,0.768-9.07,2.281c-2.662,1.516-4.744,3.554-6.193,6.058c-1.451,2.505-2.186,5.168-2.186,7.916
					c0,2.37,0.416,4.506,1.236,6.35c0.818,1.834,1.938,3.447,3.324,4.797c1.369,1.328,2.738,2.426,4.072,3.262
					c1.314,0.827,3.301,1.966,6.076,3.483c3.891,2.073,6.822,4.121,8.717,6.089c1.836,1.91,2.768,4.418,2.768,7.454
					c0,1.466-0.322,2.955-0.959,4.424c-0.627,1.442-1.773,2.688-3.408,3.704c-1.645,1.023-3.883,1.542-6.65,1.542
					c-3.693,0-6.867-1.039-9.436-3.088c-2.566-2.049-4.322-5.129-5.215-9.155l-0.088-0.392h-1.557v15.215h1.559l0.086-0.393
					c0.34-1.551,0.537-2.167,0.646-2.414c0.039-0.089,0.119-0.275,0.6-0.275c0.127,0,0.482,0.047,1.361,0.336
					c1.867,0.907,3.734,1.625,5.553,2.132c1.834,0.51,3.967,0.769,6.338,0.769c3.795,0,7.027-0.748,9.609-2.223
					c2.584-1.478,4.547-3.401,5.832-5.721c1.281-2.312,1.932-4.746,1.932-7.234C331.11,69.972,329.892,66.709,327.491,64.349z"/>
			</g>
			<g>
				<path d="M143.931,116.926c0-0.028,0-0.057,0-0.084c0-0.551-0.18-1.057-0.539-1.52c-0.359-0.462-0.941-0.693-1.744-0.693
					s-1.43,0.355-1.883,1.064s-0.678,1.718-0.678,3.024s0.23,2.317,0.691,3.03c0.463,0.715,1.111,1.071,1.947,1.071
					c0.834,0,1.678-0.373,2.527-1.12c0.27,0.168,0.451,0.383,0.545,0.645c-0.393,0.401-0.873,0.726-1.441,0.973
					c-0.57,0.247-1.217,0.371-1.939,0.371s-1.355-0.238-1.896-0.714c-0.99-0.868-1.484-2.263-1.484-4.187
					c0-1.643,0.348-2.886,1.043-3.73s1.547-1.268,2.555-1.268s1.809,0.27,2.4,0.806c0.594,0.536,0.891,1.141,0.891,1.813
					c0,0.391-0.184,0.588-0.547,0.588C144.247,116.997,144.099,116.973,143.931,116.926z"/>
				<path d="M148.13,122.19l-0.016,0.49c0.318-0.019,0.604-0.028,0.855-0.028h3.863c0,0.187-0.01,0.327-0.027,0.42
					c-0.037,0.299-0.248,0.448-0.631,0.448h-4.438c-0.178,0-0.318-0.059-0.42-0.175c-0.104-0.116-0.154-0.278-0.154-0.483v-8.82
					l0.084-0.084h5.377c0.018,0.104,0.027,0.238,0.027,0.406s-0.023,0.318-0.07,0.448c-1.484,0-2.973,0-4.467,0l0.016,0.854v2.604
					l0.826-0.014h2.953c0.027,0.14,0.043,0.279,0.043,0.42c0,0.14-0.016,0.279-0.043,0.42h-2.953c-0.355,0-0.631-0.005-0.826-0.014
					V122.19z"/>
				<path d="M161.653,113.917l0.084,0.069v9.534c-0.168,0.027-0.375,0.042-0.623,0.042c-0.246,0-0.445-0.015-0.594-0.042l-3.5-6.454
					c-0.281-0.513-0.602-1.152-0.967-1.918h-0.041c0.055,1.681,0.084,2.66,0.084,2.94v5.432c-0.188,0.027-0.346,0.042-0.477,0.042
					s-0.279-0.015-0.447-0.042v-9.563c0.168-0.027,0.371-0.041,0.607-0.041c0.238,0,0.441,0.014,0.609,0.041l3.486,6.455
					c0.047,0.084,0.373,0.732,0.98,1.945v0.014h0.041c-0.047-1.119-0.07-2.16-0.07-3.121v-4.69c0-0.233,0.033-0.399,0.1-0.497
					c0.064-0.098,0.199-0.146,0.404-0.146H161.653z"/>
				<path d="M167.911,114.812l-0.756-0.015v8.723c-0.141,0.027-0.305,0.042-0.496,0.042s-0.357-0.015-0.498-0.042v-8.723
					l-0.742,0.015h-1.82c-0.027-0.14-0.041-0.277-0.041-0.413c0-0.135,0.014-0.282,0.041-0.441h6.105
					c0.047,0.141,0.07,0.275,0.07,0.406c0,0.299-0.201,0.448-0.604,0.448H167.911z"/>
				<path d="M171.649,113.958l2.799-0.041c0.961,0,1.703,0.244,2.227,0.734c0.521,0.49,0.783,1.164,0.783,2.023
					c0,0.635-0.162,1.176-0.49,1.623c-0.326,0.449-0.779,0.757-1.357,0.925c0.383,0.131,0.695,0.504,0.938,1.12l0.742,1.932
					c0.205,0.523,0.402,0.854,0.588,0.994c-0.131,0.225-0.359,0.336-0.686,0.336c-0.188,0-0.328-0.051-0.428-0.154
					c-0.098-0.102-0.193-0.271-0.285-0.504l-0.842-2.184c-0.168-0.439-0.361-0.768-0.58-0.987s-0.549-0.329-0.986-0.329h-1.514
					v4.074c-0.139,0.027-0.307,0.042-0.504,0.042c-0.195,0-0.359-0.015-0.488-0.042v-9.479L171.649,113.958z M172.558,114.743v3.863
					c0.803-0.019,1.434-0.027,1.891-0.027c0.719,0,1.227-0.185,1.525-0.554c0.299-0.368,0.449-0.823,0.449-1.364
					c0-0.542-0.15-0.994-0.449-1.358s-0.855-0.546-1.672-0.546S172.903,114.751,172.558,114.743z"/>
				<path d="M179.39,118.732c0-0.831,0.123-1.614,0.365-2.353c0.242-0.736,0.615-1.33,1.119-1.777
					c0.607-0.541,1.365-0.813,2.275-0.813s1.66,0.271,2.248,0.813c0.504,0.447,0.877,1.041,1.119,1.777
					c0.242,0.738,0.363,1.521,0.363,2.353c0,1.876-0.494,3.257-1.482,4.144c-0.588,0.542-1.338,0.813-2.248,0.813
					s-1.668-0.271-2.275-0.813C179.886,121.989,179.39,120.608,179.39,118.732z M180.56,117.304
					c-0.08,0.448-0.119,0.924-0.119,1.428s0.039,0.979,0.119,1.429c0.08,0.447,0.215,0.884,0.406,1.309s0.471,0.761,0.84,1.008
					c0.369,0.248,0.814,0.371,1.338,0.371c0.521,0,0.967-0.123,1.336-0.371c0.369-0.247,0.646-0.583,0.834-1.008
					c0.186-0.425,0.318-0.861,0.398-1.309c0.078-0.449,0.119-0.925,0.119-1.429s-0.041-0.978-0.119-1.421
					c-0.08-0.443-0.213-0.877-0.398-1.303c-0.188-0.424-0.465-0.76-0.834-1.008c-0.369-0.246-0.814-0.371-1.336-0.371
					c-0.523,0-0.969,0.125-1.338,0.371c-0.369,0.248-0.648,0.582-0.84,1.002S180.64,116.856,180.56,117.304z"/>
				<path d="M198.823,116.345c0.195,0.667,0.293,1.47,0.293,2.407c0,0.938-0.098,1.738-0.293,2.401
					c-0.197,0.663-0.574,1.232-1.135,1.708c-0.27,0.233-0.629,0.411-1.078,0.532c-0.447,0.122-0.83,0.183-1.146,0.183
					c-0.318,0-1.289-0.02-2.912-0.057l-0.084-0.084v-9.395l0.084-0.084c0.811-0.027,1.744-0.041,2.799-0.041
					c0.393,0,0.813,0.061,1.26,0.182c0.449,0.121,0.809,0.299,1.078,0.531C198.249,115.106,198.626,115.678,198.823,116.345z
					 M193.46,122.722l1.877,0.014c0.457,0,0.855-0.081,1.197-0.245c0.34-0.163,0.605-0.371,0.797-0.623s0.346-0.564,0.463-0.938
					s0.193-0.729,0.23-1.064s0.057-0.709,0.057-1.119c0-0.411-0.02-0.787-0.057-1.127c-0.037-0.342-0.113-0.695-0.23-1.064
					s-0.271-0.68-0.463-0.932s-0.457-0.459-0.797-0.623c-0.342-0.162-0.74-0.244-1.197-0.244l-1.877-0.014V122.722z"/>
				<path d="M202.462,122.19l-0.014,0.49c0.316-0.019,0.602-0.028,0.854-0.028h3.865c0,0.187-0.01,0.327-0.029,0.42
					c-0.037,0.299-0.246,0.448-0.629,0.448h-4.439c-0.176,0-0.316-0.059-0.42-0.175c-0.102-0.116-0.152-0.278-0.152-0.483v-8.82
					l0.084-0.084h5.375c0.02,0.104,0.027,0.238,0.027,0.406s-0.023,0.318-0.068,0.448c-1.484,0-2.975,0-4.467,0l0.014,0.854v2.604
					l0.826-0.014h2.955c0.027,0.14,0.041,0.279,0.041,0.42c0,0.14-0.014,0.279-0.041,0.42h-2.955c-0.355,0-0.631-0.005-0.826-0.014
					V122.19z"/>
				<path d="M212.78,123.52v-9.563c0.121-0.027,0.283-0.041,0.484-0.041c0.199,0,0.369,0.014,0.51,0.041v9.563
					c-0.141,0.027-0.309,0.042-0.504,0.042S212.911,123.547,212.78,123.52z"/>
				<path d="M223.126,116.345c0.197,0.667,0.295,1.47,0.295,2.407c0,0.938-0.098,1.738-0.295,2.401
					c-0.195,0.663-0.574,1.232-1.133,1.708c-0.271,0.233-0.631,0.411-1.078,0.532c-0.449,0.122-0.832,0.183-1.148,0.183
					c-0.318,0-1.287-0.02-2.912-0.057l-0.084-0.084v-9.395l0.084-0.084c0.813-0.027,1.746-0.041,2.801-0.041
					c0.391,0,0.811,0.061,1.26,0.182c0.447,0.121,0.807,0.299,1.078,0.531C222.552,115.106,222.931,115.678,223.126,116.345z
					 M217.765,122.722l1.875,0.014c0.459,0,0.857-0.081,1.197-0.245c0.342-0.163,0.607-0.371,0.799-0.623s0.346-0.564,0.461-0.938
					c0.117-0.373,0.195-0.729,0.232-1.064s0.055-0.709,0.055-1.119c0-0.411-0.018-0.787-0.055-1.127
					c-0.037-0.342-0.115-0.695-0.232-1.064c-0.115-0.369-0.27-0.68-0.461-0.932s-0.457-0.459-0.799-0.623
					c-0.34-0.162-0.738-0.244-1.197-0.244l-1.875-0.014V122.722z"/>
				<path d="M225.856,123.52v-9.563c0.121-0.027,0.281-0.041,0.482-0.041s0.371,0.014,0.512,0.041v9.563
					c-0.141,0.027-0.309,0.042-0.504,0.042C226.149,123.562,225.987,123.547,225.856,123.52z"/>
				<path d="M229.259,118.732c0-0.831,0.121-1.614,0.363-2.353c0.244-0.736,0.617-1.33,1.121-1.777
					c0.605-0.541,1.365-0.813,2.275-0.813s1.658,0.271,2.246,0.813c0.504,0.447,0.877,1.041,1.121,1.777
					c0.242,0.738,0.363,1.521,0.363,2.353c0,1.876-0.494,3.257-1.484,4.144c-0.588,0.542-1.336,0.813-2.246,0.813
					s-1.67-0.271-2.275-0.813C229.753,121.989,229.259,120.608,229.259,118.732z M230.429,117.304
					c-0.08,0.448-0.119,0.924-0.119,1.428s0.039,0.979,0.119,1.429c0.078,0.447,0.213,0.884,0.404,1.309s0.473,0.761,0.84,1.008
					c0.369,0.248,0.814,0.371,1.338,0.371s0.969-0.123,1.338-0.371c0.367-0.247,0.645-0.583,0.832-1.008s0.32-0.861,0.398-1.309
					c0.08-0.449,0.119-0.925,0.119-1.429s-0.039-0.978-0.119-1.421c-0.078-0.443-0.211-0.877-0.398-1.303
					c-0.188-0.424-0.465-0.76-0.832-1.008c-0.369-0.246-0.814-0.371-1.338-0.371s-0.969,0.125-1.338,0.371
					c-0.367,0.248-0.648,0.582-0.84,1.002S230.507,116.856,230.429,117.304z"/>
				<path d="M238.933,123.506l0.742-9.549c0.158-0.027,0.375-0.041,0.65-0.041s0.492,0.014,0.65,0.041l1.666,5.026
					c0.309,0.905,0.5,1.573,0.574,2.002h0.07c0.074-0.429,0.266-1.097,0.574-2.002l1.666-5.026c0.178-0.027,0.393-0.041,0.645-0.041
					s0.471,0.014,0.658,0.041l0.742,9.549c-0.16,0.047-0.32,0.07-0.484,0.07c-0.162,0-0.324-0.015-0.482-0.043l-0.406-5.936
					c-0.027-0.393-0.064-1.26-0.111-2.604h-0.07l-2.283,7.027c-0.148,0.027-0.314,0.042-0.496,0.042s-0.344-0.015-0.482-0.042
					l-2.283-7.027h-0.068c-0.01,0.232-0.027,0.67-0.051,1.309s-0.043,1.07-0.063,1.295l-0.406,5.936
					c-0.158,0.028-0.326,0.043-0.504,0.043S239.054,123.553,238.933,123.506z"/>
				<path d="M254.962,120.986L253.954,121h-1.877l-0.994-0.015l-0.84,2.548c-0.121,0.028-0.264,0.043-0.426,0.043
					c-0.164,0-0.33-0.023-0.498-0.07l-0.027-0.043l3.205-9.506c0.15-0.027,0.346-0.041,0.588-0.041c0.244,0,0.42,0.014,0.533,0.041
					l3.219,9.506c-0.148,0.094-0.324,0.141-0.523,0.141c-0.201,0-0.344-0.035-0.428-0.105c-0.084-0.069-0.158-0.203-0.225-0.398
					L254.962,120.986z M251.364,120.131l0.826-0.014h1.65c0.01,0,0.131,0.003,0.365,0.008c0.232,0.004,0.391,0.006,0.475,0.006
					l-0.924-2.785c-0.299-0.887-0.535-1.652-0.713-2.297h-0.07c-0.15,0.57-0.303,1.102-0.463,1.597L251.364,120.131z"/>
				<path d="M257.915,122.638c0.029-0.317,0.188-0.583,0.477-0.798c0.924,0.644,1.857,0.966,2.801,0.966
					c0.672,0,1.209-0.142,1.609-0.427c0.402-0.285,0.602-0.675,0.602-1.17c0-0.756-0.514-1.357-1.539-1.806l-1.639-0.714
					c-1.24-0.541-1.861-1.316-1.861-2.324c0-0.719,0.273-1.327,0.818-1.826c0.547-0.5,1.27-0.75,2.17-0.75s1.818,0.225,2.752,0.672
					c0.018,0.328-0.113,0.603-0.393,0.826c-0.84-0.429-1.584-0.644-2.232-0.644s-1.164,0.151-1.547,0.455s-0.574,0.698-0.574,1.183
					c0,0.616,0.467,1.125,1.4,1.526l1.582,0.687c1.391,0.597,2.086,1.432,2.086,2.506c0,0.812-0.279,1.463-0.834,1.953
					c-0.555,0.489-1.4,0.734-2.533,0.734C259.925,123.688,258.878,123.338,257.915,122.638z"/>
				<path d="M276.241,116.345c0.195,0.667,0.293,1.47,0.293,2.407c0,0.938-0.098,1.738-0.293,2.401
					c-0.197,0.663-0.574,1.232-1.135,1.708c-0.27,0.233-0.629,0.411-1.078,0.532c-0.447,0.122-0.83,0.183-1.146,0.183
					c-0.318,0-1.289-0.02-2.912-0.057l-0.084-0.084v-9.395l0.084-0.084c0.811-0.027,1.744-0.041,2.799-0.041
					c0.393,0,0.813,0.061,1.26,0.182c0.449,0.121,0.809,0.299,1.078,0.531C275.667,115.106,276.044,115.678,276.241,116.345z
					 M270.878,122.722l1.877,0.014c0.457,0,0.855-0.081,1.197-0.245c0.34-0.163,0.605-0.371,0.797-0.623s0.346-0.564,0.463-0.938
					s0.193-0.729,0.23-1.064s0.057-0.709,0.057-1.119c0-0.411-0.02-0.787-0.057-1.127c-0.037-0.342-0.113-0.695-0.23-1.064
					s-0.271-0.68-0.463-0.932s-0.457-0.459-0.797-0.623c-0.342-0.162-0.74-0.244-1.197-0.244l-1.877-0.014V122.722z"/>
				<path d="M283.353,120.986L282.345,121h-1.875l-0.994-0.015l-0.84,2.548c-0.121,0.028-0.264,0.043-0.428,0.043
					s-0.328-0.023-0.496-0.07l-0.029-0.043l3.207-9.506c0.148-0.027,0.344-0.041,0.588-0.041c0.242,0,0.42,0.014,0.531,0.041
					l3.221,9.506c-0.15,0.094-0.324,0.141-0.525,0.141s-0.344-0.035-0.428-0.105c-0.084-0.069-0.158-0.203-0.223-0.398
					L283.353,120.986z M279.755,120.131l0.826-0.014h1.652c0.01,0,0.131,0.003,0.363,0.008c0.234,0.004,0.393,0.006,0.477,0.006
					l-0.924-2.785c-0.299-0.887-0.537-1.652-0.715-2.297h-0.07c-0.148,0.57-0.303,1.102-0.461,1.597L279.755,120.131z"/>
				<path d="M290.452,113.958l2.645-0.041c0.916,0,1.652,0.256,2.213,0.77s0.84,1.248,0.84,2.205s-0.277,1.693-0.834,2.212
					c-0.555,0.519-1.295,0.776-2.219,0.776h-1.736v3.641c-0.139,0.027-0.307,0.042-0.504,0.042c-0.195,0-0.359-0.015-0.488-0.042
					v-9.479L290.452,113.958z M291.36,114.743v4.312c0.393-0.009,0.965-0.015,1.717-0.015c0.75,0,1.275-0.212,1.574-0.637
					c0.299-0.424,0.447-0.931,0.447-1.52c0-0.588-0.148-1.089-0.447-1.504c-0.299-0.416-0.836-0.623-1.609-0.623
					C292.267,114.756,291.706,114.751,291.36,114.743z"/>
				<path d="M304.872,113.958v6.314c0,1.111-0.309,1.958-0.926,2.541c-0.615,0.584-1.43,0.875-2.441,0.875
					c-1.014,0-1.828-0.294-2.443-0.882c-0.617-0.588-0.924-1.433-0.924-2.534V114l0.084-0.084h0.406c0.205,0,0.34,0.049,0.404,0.146
					c0.066,0.098,0.1,0.264,0.1,0.497v5.698c0,0.84,0.207,1.484,0.623,1.932c0.414,0.448,1,0.672,1.756,0.672
					s1.342-0.224,1.758-0.672c0.414-0.447,0.623-1.092,0.623-1.932v-6.301c0.131-0.027,0.295-0.041,0.496-0.041
					S304.749,113.93,304.872,113.958z"/>
				<path d="M313.019,116.926c0-0.028,0-0.057,0-0.084c0-0.551-0.18-1.057-0.539-1.52c-0.359-0.462-0.939-0.693-1.742-0.693
					s-1.432,0.355-1.883,1.064c-0.453,0.709-0.68,1.718-0.68,3.024s0.23,2.317,0.693,3.03c0.461,0.715,1.111,1.071,1.945,1.071
					c0.836,0,1.678-0.373,2.527-1.12c0.271,0.168,0.453,0.383,0.547,0.645c-0.393,0.401-0.873,0.726-1.443,0.973
					c-0.568,0.247-1.215,0.371-1.938,0.371c-0.725,0-1.357-0.238-1.898-0.714c-0.988-0.868-1.484-2.263-1.484-4.187
					c0-1.643,0.348-2.886,1.045-3.73c0.693-0.845,1.547-1.268,2.555-1.268s1.807,0.27,2.4,0.806
					c0.592,0.536,0.889,1.141,0.889,1.813c0,0.391-0.182,0.588-0.545,0.588C313.337,116.997,313.187,116.973,313.019,116.926z"/>
				<path d="M316.337,113.958l2.801-0.041c0.961,0,1.703,0.244,2.225,0.734c0.523,0.49,0.785,1.164,0.785,2.023
					c0,0.635-0.164,1.176-0.49,1.623c-0.326,0.449-0.779,0.757-1.357,0.925c0.381,0.131,0.695,0.504,0.938,1.12l0.742,1.932
					c0.205,0.523,0.4,0.854,0.588,0.994c-0.131,0.225-0.359,0.336-0.686,0.336c-0.188,0-0.33-0.051-0.428-0.154
					c-0.098-0.102-0.193-0.271-0.287-0.504l-0.84-2.184c-0.168-0.439-0.361-0.768-0.582-0.987c-0.219-0.22-0.547-0.329-0.986-0.329
					h-1.512v4.074c-0.141,0.027-0.309,0.042-0.504,0.042s-0.359-0.015-0.49-0.042v-9.479L316.337,113.958z M317.247,114.743v3.863
					c0.803-0.019,1.432-0.027,1.891-0.027c0.719,0,1.227-0.185,1.525-0.554c0.299-0.368,0.447-0.823,0.447-1.364
					c0-0.542-0.148-0.994-0.447-1.358s-0.857-0.546-1.674-0.546S317.593,114.751,317.247,114.743z"/>
				<path d="M323.825,122.638c0.029-0.317,0.188-0.583,0.477-0.798c0.924,0.644,1.857,0.966,2.801,0.966
					c0.672,0,1.209-0.142,1.609-0.427c0.402-0.285,0.602-0.675,0.602-1.17c0-0.756-0.514-1.357-1.539-1.806l-1.639-0.714
					c-1.24-0.541-1.861-1.316-1.861-2.324c0-0.719,0.273-1.327,0.818-1.826c0.547-0.5,1.27-0.75,2.17-0.75s1.818,0.225,2.752,0.672
					c0.018,0.328-0.113,0.603-0.393,0.826c-0.84-0.429-1.584-0.644-2.232-0.644s-1.164,0.151-1.547,0.455s-0.574,0.698-0.574,1.183
					c0,0.616,0.467,1.125,1.4,1.526l1.582,0.687c1.391,0.597,2.086,1.432,2.086,2.506c0,0.812-0.279,1.463-0.834,1.953
					c-0.555,0.489-1.4,0.734-2.533,0.734C325.835,123.688,324.788,123.338,323.825,122.638z"/>
			</g>
			<g>
				<rect x="137.437" y="99.651" width="193.5" height="1"/>
			</g>
		</g>
	</g>
</g>
<g id="Orignal_c_x2F__lettering" display="none">
	<g display="inline">
		<g>
			<linearGradient id="SVGID_1_" gradientUnits="userSpaceOnUse" x1="3.6943" y1="106.6709" x2="72.7544" y2="16.0001">
				<stop  offset="0" style="stop-color:#09829A"/>
				<stop  offset="1" style="stop-color:#49B697"/>
			</linearGradient>
			<path fill="url(#SVGID_1_)" d="M31.981,79.876c-0.904-0.776-1.488-1.914-1.488-3.199c0-0.953,0.326-1.824,0.859-2.532
				c-4.637-6.685-7.988-14.318-9.703-22.548c-3.887,7.394-6.094,15.805-6.094,24.736c0,12.064,4.016,23.188,10.775,32.117
				c-0.039-0.885-0.064-1.771-0.064-2.666C26.267,96.536,28.325,87.764,31.981,79.876z"/>
			<linearGradient id="SVGID_2_" gradientUnits="userSpaceOnUse" x1="36.0078" y1="131.2813" x2="105.0624" y2="40.6178">
				<stop  offset="0" style="stop-color:#09829A"/>
				<stop  offset="1" style="stop-color:#49B697"/>
			</linearGradient>
			<path fill="url(#SVGID_2_)" d="M54.546,96.621c-2.303-0.043-4.152-1.913-4.152-4.225c0-0.131,0.023-0.255,0.037-0.383
				c-5.205-3.135-9.918-7.004-13.984-11.477c-0.527,0.234-1.107,0.373-1.723,0.373c-0.236,0-0.461-0.033-0.688-0.069
				c-3.52,7.597-5.518,16.036-5.518,24.944c0,1.918,0.104,3.811,0.283,5.68c9.762,11.113,24.066,18.137,40.023,18.137
				c3.248,0,6.422-0.307,9.512-0.864C67.22,121.027,58.735,109.775,54.546,96.621z"/>
			<linearGradient id="SVGID_3_" gradientUnits="userSpaceOnUse" x1="17.6523" y1="117.3022" x2="86.7118" y2="26.6323">
				<stop  offset="0" style="stop-color:#09829A"/>
				<stop  offset="1" style="stop-color:#49B697"/>
			</linearGradient>
			<path fill="url(#SVGID_3_)" d="M52.606,88.699c-0.625-3.516-0.977-7.123-0.977-10.815c0-7.537,1.379-14.751,3.861-21.437
				c-0.115-0.082-0.219-0.175-0.324-0.266c-6.926,4.618-12.84,10.636-17.322,17.659c0.686,0.753,1.109,1.741,1.109,2.837
				c0,0.907-0.289,1.742-0.775,2.434c3.811,4.176,8.207,7.807,13.061,10.77C51.601,89.392,52.065,88.992,52.606,88.699z"/>
			<linearGradient id="SVGID_4_" gradientUnits="userSpaceOnUse" x1="69.415" y1="156.731" x2="138.4758" y2="66.0594">
				<stop  offset="0" style="stop-color:#09829A"/>
				<stop  offset="1" style="stop-color:#49B697"/>
			</linearGradient>
			<path fill="url(#SVGID_4_)" d="M113.251,92.458c0.066,0.299,0.107,0.607,0.107,0.927c0,2.168-1.637,3.935-3.736,4.182
				c-0.959,6.767-3.016,13.181-5.986,19.064c8.703-7.526,14.953-17.812,17.361-29.507C118.56,89.091,115.968,90.872,113.251,92.458z
				"/>
			<linearGradient id="SVGID_5_" gradientUnits="userSpaceOnUse" x1="51.3564" y1="142.9692" x2="120.4113" y2="52.3054">
				<stop  offset="0" style="stop-color:#09829A"/>
				<stop  offset="1" style="stop-color:#49B697"/>
			</linearGradient>
			<path fill="url(#SVGID_5_)" d="M105.901,96.097c-7.305,3.043-15.297,4.756-23.691,4.756c-8.84,0-17.24-1.895-24.857-5.252
				c-0.191,0.166-0.395,0.313-0.619,0.441c4.277,13.336,13.133,24.628,24.711,32.041c6.416-1.559,12.379-4.277,17.656-7.93
				c4.236-6.844,7.105-14.613,8.281-22.922C106.806,96.968,106.308,96.576,105.901,96.097z"/>
			<linearGradient id="SVGID_6_" gradientUnits="userSpaceOnUse" x1="49.6611" y1="141.6812" x2="118.7199" y2="51.0121">
				<stop  offset="0" style="stop-color:#09829A"/>
				<stop  offset="1" style="stop-color:#49B697"/>
			</linearGradient>
			<path fill="url(#SVGID_6_)" d="M117.046,53.702c-6.842-3.812-14.512-6.308-22.662-7.164c-0.094,0.238-0.209,0.466-0.338,0.682
				c10.049,11.003,16.207,25.616,16.207,41.655c0,0.15-0.008,0.297-0.01,0.447c0.748,0.205,1.416,0.599,1.936,1.144
				c3.348-1.96,6.5-4.222,9.396-6.773c0.33-2.407,0.516-4.86,0.516-7.358C122.091,68.239,120.278,60.572,117.046,53.702z"/>
			<linearGradient id="SVGID_7_" gradientUnits="userSpaceOnUse" x1="37.8604" y1="132.6934" x2="106.9197" y2="42.0236">
				<stop  offset="0" style="stop-color:#09829A"/>
				<stop  offset="1" style="stop-color:#49B697"/>
			</linearGradient>
			<path fill="url(#SVGID_7_)" d="M92.218,48.663c-0.59,0.314-1.246,0.513-1.959,0.519c-1.916,0.015-3.525-1.255-4.059-2.998
				c-8.693,0.32-16.912,2.49-24.268,6.152c0.055,0.268,0.088,0.542,0.088,0.824c0.02,2.338-1.859,4.246-4.195,4.265
				c-0.113,0.002-0.221-0.023-0.33-0.03c-2.348,6.465-3.623,13.434-3.566,20.703c0.027,3.515,0.381,6.948,0.998,10.291
				c2.252,0.078,4.066,1.906,4.084,4.182c0.006,0.464-0.082,0.902-0.217,1.321c7.262,3.077,15.246,4.765,23.623,4.697
				c8.055-0.063,15.725-1.737,22.719-4.702c-0.039-0.225-0.074-0.453-0.074-0.691c-0.016-1.941,1.283-3.568,3.063-4.082
				c0-0.151,0.006-0.301,0.006-0.453C108.005,73.214,101.974,59.184,92.218,48.663z"/>
			<linearGradient id="SVGID_8_" gradientUnits="userSpaceOnUse" x1="18.8594" y1="118.2188" x2="87.9176" y2="27.5504">
				<stop  offset="0" style="stop-color:#09829A"/>
				<stop  offset="1" style="stop-color:#49B697"/>
			</linearGradient>
			<path fill="url(#SVGID_8_)" d="M75.675,35.916c-0.775,0.928-1.928,1.531-3.232,1.531c-0.775,0-1.492-0.223-2.117-0.588
				c-3.713,3.906-6.902,8.307-9.457,13.102c0.07,0.071,0.137,0.148,0.207,0.225c7.678-3.751,16.238-5.945,25.281-6.202
				c0.068-0.267,0.156-0.523,0.273-0.767C83.272,40.4,79.599,37.949,75.675,35.916z"/>
			<linearGradient id="SVGID_9_" gradientUnits="userSpaceOnUse" x1="30.2041" y1="126.8672" x2="99.266" y2="36.194">
				<stop  offset="0" style="stop-color:#09829A"/>
				<stop  offset="1" style="stop-color:#49B697"/>
			</linearGradient>
			<path fill="url(#SVGID_9_)" d="M84.981,25.568c-3.086,1.69-5.998,3.656-8.725,5.845c0.258,0.548,0.418,1.155,0.418,1.802
				c0,0.229-0.031,0.449-0.068,0.668c4.113,2.123,7.973,4.67,11.488,7.624c0.67-0.45,1.479-0.714,2.348-0.714
				c2.084,0,3.805,1.506,4.156,3.485c7.338,0.771,14.293,2.821,20.643,5.933C108.688,38.591,97.909,29.679,84.981,25.568z"/>
			<linearGradient id="SVGID_10_" gradientUnits="userSpaceOnUse" x1="3.7461" y1="106.7007" x2="72.8001" y2="16.0379">
				<stop  offset="0" style="stop-color:#09829A"/>
				<stop  offset="1" style="stop-color:#49B697"/>
			</linearGradient>
			<path fill="url(#SVGID_10_)" d="M72.442,28.983c0.865,0,1.664,0.262,2.336,0.706c2.268-1.822,4.666-3.49,7.182-4.986
				c-4.201-1.067-8.602-1.637-13.135-1.637c-7.133,0-13.93,1.41-20.146,3.951c7.172,0.035,14.055,1.3,20.459,3.587
				C69.911,29.624,71.097,28.983,72.442,28.983z"/>
			<linearGradient id="SVGID_11_" gradientUnits="userSpaceOnUse" x1="-0.6553" y1="103.3579" x2="68.4039" y2="12.6883">
				<stop  offset="0" style="stop-color:#09829A"/>
				<stop  offset="1" style="stop-color:#49B697"/>
			</linearGradient>
			<path fill="url(#SVGID_11_)" d="M68.212,33.214c0-0.174,0.027-0.346,0.051-0.516c-6.221-2.211-12.902-3.433-19.873-3.433
				c-1.672,0-3.32,0.093-4.957,0.229c-8.244,4.479-15.172,11.072-20.059,19.05c1.439,8.882,4.859,17.099,9.77,24.212
				c0.488-0.197,1.021-0.311,1.58-0.311c0.428,0,0.838,0.083,1.23,0.202c4.654-7.3,10.775-13.567,17.973-18.364
				c-0.127-0.405-0.215-0.826-0.215-1.274c0-2.337,1.895-4.231,4.232-4.231c0.326,0,0.641,0.045,0.945,0.115
				c2.662-4.998,5.982-9.594,9.855-13.66C68.417,34.631,68.212,33.951,68.212,33.214z"/>
		</g>
		<g>
			<path fill="#A8A8A7" d="M172.673,77.63l-0.125,0.315c-0.748,1.876-1.494,3.345-2.215,4.365c-0.688,0.97-1.631,1.701-2.805,2.176
				c-1.201,0.486-2.855,0.733-4.916,0.733h-4.891c-2.674,0-4.605-0.444-5.744-1.32c-1.098-0.846-1.654-2.437-1.654-4.729V37.759
				c0-2.233,0.553-3.77,1.645-4.564c1.143-0.834,2.475-1.282,3.959-1.33l0.482-0.016v-1.64h-19.145v1.64l0.484,0.016
				c1.529,0.048,2.865,0.506,3.967,1.359c1.061,0.82,1.598,2.346,1.598,4.535v42.838c0,1.833-0.49,3.265-1.457,4.254
				c-0.977,1-2.063,1.486-3.322,1.486h-1.27v1.617h34.645l2.387-10.324H172.673z"/>
			<path fill="#A8A8A7" d="M211.95,78.054l-0.115,0.337c-0.496,1.437-1.115,2.676-1.842,3.685c-0.703,0.978-1.68,1.752-2.9,2.304
				c-1.238,0.558-2.854,0.841-4.803,0.841h-8.436c-1.895,0-3.102-0.467-3.584-1.389c-0.537-1.027-0.809-2.271-0.809-3.698V60.488
				h10.4c0.979,0,1.922,0.075,2.889,0.23c0.42,0,0.92,0.117,1.488,0.348c0.551,0.226,1.125,0.701,1.709,1.413
				c0.584,0.714,0.988,1.769,1.201,3.134l0.066,0.422h1.508V52.167h-1.533l-0.045,0.452c-0.211,2.21-1.018,3.574-2.465,4.171
				c-1.551,0.64-3.34,0.964-5.318,0.964h-9.9V32.982h11.324c6.094,0,9.057,2.181,9.057,6.666v0.5h1.539v-9.938h-34.824v1.655h1.271
				c1.779,0,2.982,0.552,3.676,1.686c0.73,1.203,1.102,2.646,1.102,4.286v42.761c0,2.044-0.523,3.522-1.559,4.395
				c-1.055,0.894-2.139,1.346-3.219,1.346h-1.271v1.617h34.725l2.186-9.9H211.95z"/>
			<path fill="#A8A8A7" d="M271.245,86.337c-1.314,0-2.508-0.125-3.545-0.372c-1-0.237-2.215-0.936-3.613-2.077
				c-1.416-1.154-3.014-3.067-4.752-5.688l-14.176-21.205l11.91-16.236c0.238-0.384,1.287-1.687,3.127-3.886
				c1.592-2.037,2.986-3.356,4.143-3.924c1.176-0.576,2.393-0.942,3.615-1.088l0.441-0.053v-1.6h-15.834v1.628l0.473,0.026
				c1.66,0.094,2.764,0.449,3.188,1.027c0.461,0.631,0.693,1.231,0.693,1.786c0,1.173-0.785,2.878-2.33,5.06l-10.939,14.908
				l-9.885-14.881c-1.252-1.965-1.887-3.599-1.887-4.855c0-0.721,0.277-1.373,0.848-1.99c0.561-0.604,1.711-0.959,3.42-1.055
				l0.471-0.026v-1.628h-21.418v1.616l0.459,0.037c1.764,0.146,3.363,0.647,4.754,1.49c1.391,0.842,3.164,2.922,5.271,6.186
				l13.871,20.937L225.911,79.28c-0.096,0.145-0.615,0.803-2.551,3.119c-2.141,2.615-4.771,3.941-7.824,3.941l-0.764-0.015v1.629
				h17.988v-1.63l-0.83,0.018c-1.658,0-2.744-0.356-3.225-1.06c-0.557-0.808-0.838-1.542-0.838-2.182c0-1.373,0.705-3.023,2.1-4.908
				l11.174-15.44l11.115,16.769c0.996,1.528,1.5,2.784,1.5,3.733c0,0.615-0.25,1.299-0.744,2.033
				c-0.451,0.674-1.512,1.027-3.154,1.05l-0.492,0.007v1.61h22.379v-1.617H271.245z"/>
			<path fill="#A8A8A7" d="M288.931,33.18c1.086-0.873,2.432-1.315,4.002-1.315h0.5v-1.655h-18.988v1.655h0.5
				c1.527,0,2.859,0.408,3.961,1.213c1.053,0.771,1.588,2.27,1.588,4.451v43.068c0,2.064-0.541,3.547-1.607,4.406
				c-1.096,0.886-2.422,1.334-3.941,1.334h-0.5v1.617h18.988v-1.617h-0.5c-1.439,0-2.711-0.45-3.891-1.376
				c-1.125-0.885-1.695-2.354-1.695-4.364V37.529C287.347,35.488,287.88,34.025,288.931,33.18z"/>
			<path fill="#A8A8A7" d="M327.491,64.349c-2.33-2.292-5.633-4.62-9.814-6.917c-2.49-1.387-4.479-2.543-5.91-3.436
				c-1.43-0.89-2.684-1.859-3.729-2.881c-1.023-0.999-1.809-2.166-2.332-3.469c-0.525-1.308-0.793-2.832-0.793-4.533
				c0-2.191,0.447-4.161,1.332-5.854c0.875-1.681,2.137-3.027,3.746-4.003c1.605-0.975,3.475-1.469,5.557-1.469
				c3.182,0,5.777,0.994,7.715,2.953c1.951,1.978,3.117,4.312,3.461,6.937l0.057,0.435h1.557V28.978h-1.502l-0.1,0.371
				c-0.324,1.221-0.869,1.361-1.25,1.361c-0.613,0-1.096-0.086-1.502-0.283c-2.658-0.859-5.289-1.296-7.82-1.296
				c-3.359,0-6.412,0.768-9.07,2.281c-2.662,1.516-4.744,3.554-6.193,6.058c-1.451,2.505-2.186,5.168-2.186,7.916
				c0,2.37,0.416,4.506,1.236,6.35c0.818,1.834,1.938,3.447,3.324,4.797c1.369,1.328,2.738,2.426,4.072,3.262
				c1.314,0.827,3.301,1.966,6.076,3.483c3.891,2.073,6.822,4.121,8.717,6.089c1.836,1.91,2.768,4.418,2.768,7.454
				c0,1.466-0.322,2.955-0.959,4.424c-0.627,1.442-1.773,2.688-3.408,3.704c-1.645,1.023-3.883,1.542-6.65,1.542
				c-3.693,0-6.867-1.039-9.436-3.088c-2.566-2.049-4.322-5.129-5.215-9.155l-0.088-0.392h-1.557v15.215h1.559l0.086-0.393
				c0.34-1.551,0.537-2.167,0.646-2.414c0.039-0.089,0.119-0.275,0.6-0.275c0.127,0,0.482,0.047,1.361,0.336
				c1.867,0.907,3.734,1.625,5.553,2.132c1.834,0.51,3.967,0.769,6.338,0.769c3.795,0,7.027-0.748,9.609-2.223
				c2.584-1.478,4.547-3.401,5.832-5.721c1.281-2.312,1.932-4.746,1.932-7.234C331.11,69.972,329.892,66.709,327.491,64.349z"/>
		</g>
		<g>
			<path fill="#575756" d="M143.931,116.926c0-0.028,0-0.057,0-0.084c0-0.551-0.18-1.057-0.539-1.52
				c-0.359-0.462-0.941-0.693-1.744-0.693s-1.43,0.355-1.883,1.064s-0.678,1.718-0.678,3.024s0.23,2.317,0.691,3.03
				c0.463,0.715,1.111,1.071,1.947,1.071c0.834,0,1.678-0.373,2.527-1.12c0.27,0.168,0.451,0.383,0.545,0.645
				c-0.393,0.401-0.873,0.726-1.441,0.973c-0.57,0.247-1.217,0.371-1.939,0.371s-1.355-0.238-1.896-0.714
				c-0.99-0.868-1.484-2.263-1.484-4.187c0-1.643,0.348-2.886,1.043-3.73s1.547-1.268,2.555-1.268s1.809,0.27,2.4,0.806
				c0.594,0.536,0.891,1.141,0.891,1.813c0,0.391-0.184,0.588-0.547,0.588C144.247,116.997,144.099,116.973,143.931,116.926z"/>
			<path fill="#575756" d="M148.13,122.19l-0.016,0.49c0.318-0.019,0.604-0.028,0.855-0.028h3.863c0,0.187-0.01,0.327-0.027,0.42
				c-0.037,0.299-0.248,0.448-0.631,0.448h-4.438c-0.178,0-0.318-0.059-0.42-0.175c-0.104-0.116-0.154-0.278-0.154-0.483v-8.82
				l0.084-0.084h5.377c0.018,0.104,0.027,0.238,0.027,0.406s-0.023,0.318-0.07,0.448c-1.484,0-2.973,0-4.467,0l0.016,0.854v2.604
				l0.826-0.014h2.953c0.027,0.14,0.043,0.279,0.043,0.42c0,0.14-0.016,0.279-0.043,0.42h-2.953c-0.355,0-0.631-0.005-0.826-0.014
				V122.19z"/>
			<path fill="#575756" d="M161.653,113.917l0.084,0.069v9.534c-0.168,0.027-0.375,0.042-0.623,0.042
				c-0.246,0-0.445-0.015-0.594-0.042l-3.5-6.454c-0.281-0.513-0.602-1.152-0.967-1.918h-0.041c0.055,1.681,0.084,2.66,0.084,2.94
				v5.432c-0.188,0.027-0.346,0.042-0.477,0.042s-0.279-0.015-0.447-0.042v-9.563c0.168-0.027,0.371-0.041,0.607-0.041
				c0.238,0,0.441,0.014,0.609,0.041l3.486,6.455c0.047,0.084,0.373,0.732,0.98,1.945v0.014h0.041
				c-0.047-1.119-0.07-2.16-0.07-3.121v-4.69c0-0.233,0.033-0.399,0.1-0.497c0.064-0.098,0.199-0.146,0.404-0.146H161.653z"/>
			<path fill="#575756" d="M167.911,114.812l-0.756-0.015v8.723c-0.141,0.027-0.305,0.042-0.496,0.042s-0.357-0.015-0.498-0.042
				v-8.723l-0.742,0.015h-1.82c-0.027-0.14-0.041-0.277-0.041-0.413c0-0.135,0.014-0.282,0.041-0.441h6.105
				c0.047,0.141,0.07,0.275,0.07,0.406c0,0.299-0.201,0.448-0.604,0.448H167.911z"/>
			<path fill="#575756" d="M171.649,113.958l2.799-0.041c0.961,0,1.703,0.244,2.227,0.734c0.521,0.49,0.783,1.164,0.783,2.023
				c0,0.635-0.162,1.176-0.49,1.623c-0.326,0.449-0.779,0.757-1.357,0.925c0.383,0.131,0.695,0.504,0.938,1.12l0.742,1.932
				c0.205,0.523,0.402,0.854,0.588,0.994c-0.131,0.225-0.359,0.336-0.686,0.336c-0.188,0-0.328-0.051-0.428-0.154
				c-0.098-0.102-0.193-0.271-0.285-0.504l-0.842-2.184c-0.168-0.439-0.361-0.768-0.58-0.987s-0.549-0.329-0.986-0.329h-1.514v4.074
				c-0.139,0.027-0.307,0.042-0.504,0.042c-0.195,0-0.359-0.015-0.488-0.042v-9.479L171.649,113.958z M172.558,114.743v3.863
				c0.803-0.019,1.434-0.027,1.891-0.027c0.719,0,1.227-0.185,1.525-0.554c0.299-0.368,0.449-0.823,0.449-1.364
				c0-0.542-0.15-0.994-0.449-1.358s-0.855-0.546-1.672-0.546S172.903,114.751,172.558,114.743z"/>
			<path fill="#575756" d="M179.39,118.732c0-0.831,0.123-1.614,0.365-2.353c0.242-0.736,0.615-1.33,1.119-1.777
				c0.607-0.541,1.365-0.813,2.275-0.813s1.66,0.271,2.248,0.813c0.504,0.447,0.877,1.041,1.119,1.777
				c0.242,0.738,0.363,1.521,0.363,2.353c0,1.876-0.494,3.257-1.482,4.144c-0.588,0.542-1.338,0.813-2.248,0.813
				s-1.668-0.271-2.275-0.813C179.886,121.989,179.39,120.608,179.39,118.732z M180.56,117.304c-0.08,0.448-0.119,0.924-0.119,1.428
				s0.039,0.979,0.119,1.429c0.08,0.447,0.215,0.884,0.406,1.309s0.471,0.761,0.84,1.008c0.369,0.248,0.814,0.371,1.338,0.371
				c0.521,0,0.967-0.123,1.336-0.371c0.369-0.247,0.646-0.583,0.834-1.008c0.186-0.425,0.318-0.861,0.398-1.309
				c0.078-0.449,0.119-0.925,0.119-1.429s-0.041-0.978-0.119-1.421c-0.08-0.443-0.213-0.877-0.398-1.303
				c-0.188-0.424-0.465-0.76-0.834-1.008c-0.369-0.246-0.814-0.371-1.336-0.371c-0.523,0-0.969,0.125-1.338,0.371
				c-0.369,0.248-0.648,0.582-0.84,1.002S180.64,116.856,180.56,117.304z"/>
			<path fill="#575756" d="M198.823,116.345c0.195,0.667,0.293,1.47,0.293,2.407c0,0.938-0.098,1.738-0.293,2.401
				c-0.197,0.663-0.574,1.232-1.135,1.708c-0.27,0.233-0.629,0.411-1.078,0.532c-0.447,0.122-0.83,0.183-1.146,0.183
				c-0.318,0-1.289-0.02-2.912-0.057l-0.084-0.084v-9.395l0.084-0.084c0.811-0.027,1.744-0.041,2.799-0.041
				c0.393,0,0.813,0.061,1.26,0.182c0.449,0.121,0.809,0.299,1.078,0.531C198.249,115.106,198.626,115.678,198.823,116.345z
				 M193.46,122.722l1.877,0.014c0.457,0,0.855-0.081,1.197-0.245c0.34-0.163,0.605-0.371,0.797-0.623s0.346-0.564,0.463-0.938
				s0.193-0.729,0.23-1.064s0.057-0.709,0.057-1.119c0-0.411-0.02-0.787-0.057-1.127c-0.037-0.342-0.113-0.695-0.23-1.064
				s-0.271-0.68-0.463-0.932s-0.457-0.459-0.797-0.623c-0.342-0.162-0.74-0.244-1.197-0.244l-1.877-0.014V122.722z"/>
			<path fill="#575756" d="M202.462,122.19l-0.014,0.49c0.316-0.019,0.602-0.028,0.854-0.028h3.865c0,0.187-0.01,0.327-0.029,0.42
				c-0.037,0.299-0.246,0.448-0.629,0.448h-4.439c-0.176,0-0.316-0.059-0.42-0.175c-0.102-0.116-0.152-0.278-0.152-0.483v-8.82
				l0.084-0.084h5.375c0.02,0.104,0.027,0.238,0.027,0.406s-0.023,0.318-0.068,0.448c-1.484,0-2.975,0-4.467,0l0.014,0.854v2.604
				l0.826-0.014h2.955c0.027,0.14,0.041,0.279,0.041,0.42c0,0.14-0.014,0.279-0.041,0.42h-2.955c-0.355,0-0.631-0.005-0.826-0.014
				V122.19z"/>
			<path fill="#575756" d="M212.78,123.52v-9.563c0.121-0.027,0.283-0.041,0.484-0.041c0.199,0,0.369,0.014,0.51,0.041v9.563
				c-0.141,0.027-0.309,0.042-0.504,0.042S212.911,123.547,212.78,123.52z"/>
			<path fill="#575756" d="M223.126,116.345c0.197,0.667,0.295,1.47,0.295,2.407c0,0.938-0.098,1.738-0.295,2.401
				c-0.195,0.663-0.574,1.232-1.133,1.708c-0.271,0.233-0.631,0.411-1.078,0.532c-0.449,0.122-0.832,0.183-1.148,0.183
				c-0.318,0-1.287-0.02-2.912-0.057l-0.084-0.084v-9.395l0.084-0.084c0.813-0.027,1.746-0.041,2.801-0.041
				c0.391,0,0.811,0.061,1.26,0.182c0.447,0.121,0.807,0.299,1.078,0.531C222.552,115.106,222.931,115.678,223.126,116.345z
				 M217.765,122.722l1.875,0.014c0.459,0,0.857-0.081,1.197-0.245c0.342-0.163,0.607-0.371,0.799-0.623s0.346-0.564,0.461-0.938
				c0.117-0.373,0.195-0.729,0.232-1.064s0.055-0.709,0.055-1.119c0-0.411-0.018-0.787-0.055-1.127
				c-0.037-0.342-0.115-0.695-0.232-1.064c-0.115-0.369-0.27-0.68-0.461-0.932s-0.457-0.459-0.799-0.623
				c-0.34-0.162-0.738-0.244-1.197-0.244l-1.875-0.014V122.722z"/>
			<path fill="#575756" d="M225.856,123.52v-9.563c0.121-0.027,0.281-0.041,0.482-0.041s0.371,0.014,0.512,0.041v9.563
				c-0.141,0.027-0.309,0.042-0.504,0.042C226.149,123.562,225.987,123.547,225.856,123.52z"/>
			<path fill="#575756" d="M229.259,118.732c0-0.831,0.121-1.614,0.363-2.353c0.244-0.736,0.617-1.33,1.121-1.777
				c0.605-0.541,1.365-0.813,2.275-0.813s1.658,0.271,2.246,0.813c0.504,0.447,0.877,1.041,1.121,1.777
				c0.242,0.738,0.363,1.521,0.363,2.353c0,1.876-0.494,3.257-1.484,4.144c-0.588,0.542-1.336,0.813-2.246,0.813
				s-1.67-0.271-2.275-0.813C229.753,121.989,229.259,120.608,229.259,118.732z M230.429,117.304
				c-0.08,0.448-0.119,0.924-0.119,1.428s0.039,0.979,0.119,1.429c0.078,0.447,0.213,0.884,0.404,1.309s0.473,0.761,0.84,1.008
				c0.369,0.248,0.814,0.371,1.338,0.371s0.969-0.123,1.338-0.371c0.367-0.247,0.645-0.583,0.832-1.008s0.32-0.861,0.398-1.309
				c0.08-0.449,0.119-0.925,0.119-1.429s-0.039-0.978-0.119-1.421c-0.078-0.443-0.211-0.877-0.398-1.303
				c-0.188-0.424-0.465-0.76-0.832-1.008c-0.369-0.246-0.814-0.371-1.338-0.371s-0.969,0.125-1.338,0.371
				c-0.367,0.248-0.648,0.582-0.84,1.002S230.507,116.856,230.429,117.304z"/>
			<path fill="#575756" d="M238.933,123.506l0.742-9.549c0.158-0.027,0.375-0.041,0.65-0.041s0.492,0.014,0.65,0.041l1.666,5.026
				c0.309,0.905,0.5,1.573,0.574,2.002h0.07c0.074-0.429,0.266-1.097,0.574-2.002l1.666-5.026c0.178-0.027,0.393-0.041,0.645-0.041
				s0.471,0.014,0.658,0.041l0.742,9.549c-0.16,0.047-0.32,0.07-0.484,0.07c-0.162,0-0.324-0.015-0.482-0.043l-0.406-5.936
				c-0.027-0.393-0.064-1.26-0.111-2.604h-0.07l-2.283,7.027c-0.148,0.027-0.314,0.042-0.496,0.042s-0.344-0.015-0.482-0.042
				l-2.283-7.027h-0.068c-0.01,0.232-0.027,0.67-0.051,1.309s-0.043,1.07-0.063,1.295l-0.406,5.936
				c-0.158,0.028-0.326,0.043-0.504,0.043S239.054,123.553,238.933,123.506z"/>
			<path fill="#575756" d="M254.962,120.986L253.954,121h-1.877l-0.994-0.015l-0.84,2.548c-0.121,0.028-0.264,0.043-0.426,0.043
				c-0.164,0-0.33-0.023-0.498-0.07l-0.027-0.043l3.205-9.506c0.15-0.027,0.346-0.041,0.588-0.041c0.244,0,0.42,0.014,0.533,0.041
				l3.219,9.506c-0.148,0.094-0.324,0.141-0.523,0.141c-0.201,0-0.344-0.035-0.428-0.105c-0.084-0.069-0.158-0.203-0.225-0.398
				L254.962,120.986z M251.364,120.131l0.826-0.014h1.65c0.01,0,0.131,0.003,0.365,0.008c0.232,0.004,0.391,0.006,0.475,0.006
				l-0.924-2.785c-0.299-0.887-0.535-1.652-0.713-2.297h-0.07c-0.15,0.57-0.303,1.102-0.463,1.597L251.364,120.131z"/>
			<path fill="#575756" d="M257.915,122.638c0.029-0.317,0.188-0.583,0.477-0.798c0.924,0.644,1.857,0.966,2.801,0.966
				c0.672,0,1.209-0.142,1.609-0.427c0.402-0.285,0.602-0.675,0.602-1.17c0-0.756-0.514-1.357-1.539-1.806l-1.639-0.714
				c-1.24-0.541-1.861-1.316-1.861-2.324c0-0.719,0.273-1.327,0.818-1.826c0.547-0.5,1.27-0.75,2.17-0.75s1.818,0.225,2.752,0.672
				c0.018,0.328-0.113,0.603-0.393,0.826c-0.84-0.429-1.584-0.644-2.232-0.644s-1.164,0.151-1.547,0.455s-0.574,0.698-0.574,1.183
				c0,0.616,0.467,1.125,1.4,1.526l1.582,0.687c1.391,0.597,2.086,1.432,2.086,2.506c0,0.812-0.279,1.463-0.834,1.953
				c-0.555,0.489-1.4,0.734-2.533,0.734C259.925,123.688,258.878,123.338,257.915,122.638z"/>
			<path fill="#575756" d="M276.241,116.345c0.195,0.667,0.293,1.47,0.293,2.407c0,0.938-0.098,1.738-0.293,2.401
				c-0.197,0.663-0.574,1.232-1.135,1.708c-0.27,0.233-0.629,0.411-1.078,0.532c-0.447,0.122-0.83,0.183-1.146,0.183
				c-0.318,0-1.289-0.02-2.912-0.057l-0.084-0.084v-9.395l0.084-0.084c0.811-0.027,1.744-0.041,2.799-0.041
				c0.393,0,0.813,0.061,1.26,0.182c0.449,0.121,0.809,0.299,1.078,0.531C275.667,115.106,276.044,115.678,276.241,116.345z
				 M270.878,122.722l1.877,0.014c0.457,0,0.855-0.081,1.197-0.245c0.34-0.163,0.605-0.371,0.797-0.623s0.346-0.564,0.463-0.938
				s0.193-0.729,0.23-1.064s0.057-0.709,0.057-1.119c0-0.411-0.02-0.787-0.057-1.127c-0.037-0.342-0.113-0.695-0.23-1.064
				s-0.271-0.68-0.463-0.932s-0.457-0.459-0.797-0.623c-0.342-0.162-0.74-0.244-1.197-0.244l-1.877-0.014V122.722z"/>
			<path fill="#575756" d="M283.353,120.986L282.345,121h-1.875l-0.994-0.015l-0.84,2.548c-0.121,0.028-0.264,0.043-0.428,0.043
				s-0.328-0.023-0.496-0.07l-0.029-0.043l3.207-9.506c0.148-0.027,0.344-0.041,0.588-0.041c0.242,0,0.42,0.014,0.531,0.041
				l3.221,9.506c-0.15,0.094-0.324,0.141-0.525,0.141s-0.344-0.035-0.428-0.105c-0.084-0.069-0.158-0.203-0.223-0.398
				L283.353,120.986z M279.755,120.131l0.826-0.014h1.652c0.01,0,0.131,0.003,0.363,0.008c0.234,0.004,0.393,0.006,0.477,0.006
				l-0.924-2.785c-0.299-0.887-0.537-1.652-0.715-2.297h-0.07c-0.148,0.57-0.303,1.102-0.461,1.597L279.755,120.131z"/>
			<path fill="#575756" d="M290.452,113.958l2.645-0.041c0.916,0,1.652,0.256,2.213,0.77s0.84,1.248,0.84,2.205
				s-0.277,1.693-0.834,2.212c-0.555,0.519-1.295,0.776-2.219,0.776h-1.736v3.641c-0.139,0.027-0.307,0.042-0.504,0.042
				c-0.195,0-0.359-0.015-0.488-0.042v-9.479L290.452,113.958z M291.36,114.743v4.312c0.393-0.009,0.965-0.015,1.717-0.015
				c0.75,0,1.275-0.212,1.574-0.637c0.299-0.424,0.447-0.931,0.447-1.52c0-0.588-0.148-1.089-0.447-1.504
				c-0.299-0.416-0.836-0.623-1.609-0.623C292.267,114.756,291.706,114.751,291.36,114.743z"/>
			<path fill="#575756" d="M304.872,113.958v6.314c0,1.111-0.309,1.958-0.926,2.541c-0.615,0.584-1.43,0.875-2.441,0.875
				c-1.014,0-1.828-0.294-2.443-0.882c-0.617-0.588-0.924-1.433-0.924-2.534V114l0.084-0.084h0.406c0.205,0,0.34,0.049,0.404,0.146
				c0.066,0.098,0.1,0.264,0.1,0.497v5.698c0,0.84,0.207,1.484,0.623,1.932c0.414,0.448,1,0.672,1.756,0.672
				s1.342-0.224,1.758-0.672c0.414-0.447,0.623-1.092,0.623-1.932v-6.301c0.131-0.027,0.295-0.041,0.496-0.041
				S304.749,113.93,304.872,113.958z"/>
			<path fill="#575756" d="M313.019,116.926c0-0.028,0-0.057,0-0.084c0-0.551-0.18-1.057-0.539-1.52
				c-0.359-0.462-0.939-0.693-1.742-0.693s-1.432,0.355-1.883,1.064c-0.453,0.709-0.68,1.718-0.68,3.024s0.23,2.317,0.693,3.03
				c0.461,0.715,1.111,1.071,1.945,1.071c0.836,0,1.678-0.373,2.527-1.12c0.271,0.168,0.453,0.383,0.547,0.645
				c-0.393,0.401-0.873,0.726-1.443,0.973c-0.568,0.247-1.215,0.371-1.938,0.371c-0.725,0-1.357-0.238-1.898-0.714
				c-0.988-0.868-1.484-2.263-1.484-4.187c0-1.643,0.348-2.886,1.045-3.73c0.693-0.845,1.547-1.268,2.555-1.268
				s1.807,0.27,2.4,0.806c0.592,0.536,0.889,1.141,0.889,1.813c0,0.391-0.182,0.588-0.545,0.588
				C313.337,116.997,313.187,116.973,313.019,116.926z"/>
			<path fill="#575756" d="M316.337,113.958l2.801-0.041c0.961,0,1.703,0.244,2.225,0.734c0.523,0.49,0.785,1.164,0.785,2.023
				c0,0.635-0.164,1.176-0.49,1.623c-0.326,0.449-0.779,0.757-1.357,0.925c0.381,0.131,0.695,0.504,0.938,1.12l0.742,1.932
				c0.205,0.523,0.4,0.854,0.588,0.994c-0.131,0.225-0.359,0.336-0.686,0.336c-0.188,0-0.33-0.051-0.428-0.154
				c-0.098-0.102-0.193-0.271-0.287-0.504l-0.84-2.184c-0.168-0.439-0.361-0.768-0.582-0.987c-0.219-0.22-0.547-0.329-0.986-0.329
				h-1.512v4.074c-0.141,0.027-0.309,0.042-0.504,0.042s-0.359-0.015-0.49-0.042v-9.479L316.337,113.958z M317.247,114.743v3.863
				c0.803-0.019,1.432-0.027,1.891-0.027c0.719,0,1.227-0.185,1.525-0.554c0.299-0.368,0.447-0.823,0.447-1.364
				c0-0.542-0.148-0.994-0.447-1.358s-0.857-0.546-1.674-0.546S317.593,114.751,317.247,114.743z"/>
			<path fill="#575756" d="M323.825,122.638c0.029-0.317,0.188-0.583,0.477-0.798c0.924,0.644,1.857,0.966,2.801,0.966
				c0.672,0,1.209-0.142,1.609-0.427c0.402-0.285,0.602-0.675,0.602-1.17c0-0.756-0.514-1.357-1.539-1.806l-1.639-0.714
				c-1.24-0.541-1.861-1.316-1.861-2.324c0-0.719,0.273-1.327,0.818-1.826c0.547-0.5,1.27-0.75,2.17-0.75s1.818,0.225,2.752,0.672
				c0.018,0.328-0.113,0.603-0.393,0.826c-0.84-0.429-1.584-0.644-2.232-0.644s-1.164,0.151-1.547,0.455s-0.574,0.698-0.574,1.183
				c0,0.616,0.467,1.125,1.4,1.526l1.582,0.687c1.391,0.597,2.086,1.432,2.086,2.506c0,0.812-0.279,1.463-0.834,1.953
				c-0.555,0.489-1.4,0.734-2.533,0.734C325.835,123.688,324.788,123.338,323.825,122.638z"/>
		</g>
		<g>
			<rect x="137.437" y="99.651" fill="#575756" width="193.5" height="1"/>
		</g>
	</g>
</g>
<g id="Mono_Branco" display="none">
	<g display="inline">
		<g>
			<path fill="#FFFFFF" d="M32.148,79.876c-0.904-0.776-1.488-1.914-1.488-3.199c0-0.953,0.326-1.824,0.859-2.532
				c-4.637-6.685-7.988-14.318-9.703-22.548c-3.887,7.394-6.094,15.805-6.094,24.736c0,12.064,4.016,23.188,10.775,32.117
				c-0.039-0.885-0.064-1.771-0.064-2.666C26.434,96.536,28.492,87.764,32.148,79.876z"/>
			<path fill="#FFFFFF" d="M54.713,96.621c-2.303-0.043-4.152-1.913-4.152-4.225c0-0.131,0.023-0.255,0.037-0.383
				c-5.205-3.135-9.918-7.004-13.984-11.477c-0.527,0.234-1.107,0.373-1.723,0.373c-0.236,0-0.461-0.033-0.688-0.069
				c-3.52,7.597-5.518,16.036-5.518,24.944c0,1.918,0.104,3.811,0.283,5.68c9.762,11.113,24.066,18.137,40.023,18.137
				c3.248,0,6.422-0.307,9.512-0.864C67.387,121.027,58.902,109.775,54.713,96.621z"/>
			<path fill="#FFFFFF" d="M52.773,88.699c-0.625-3.516-0.977-7.123-0.977-10.815c0-7.537,1.379-14.751,3.861-21.437
				c-0.115-0.082-0.219-0.175-0.324-0.266c-6.926,4.618-12.84,10.636-17.322,17.659c0.686,0.753,1.109,1.741,1.109,2.837
				c0,0.907-0.289,1.742-0.775,2.434c3.811,4.176,8.207,7.807,13.061,10.77C51.768,89.392,52.232,88.992,52.773,88.699z"/>
			<path fill="#FFFFFF" d="M113.418,92.458c0.066,0.299,0.107,0.607,0.107,0.927c0,2.168-1.637,3.935-3.736,4.182
				c-0.959,6.767-3.016,13.181-5.986,19.064c8.703-7.526,14.953-17.812,17.361-29.507C118.727,89.091,116.135,90.872,113.418,92.458
				z"/>
			<path fill="#FFFFFF" d="M106.068,96.097c-7.305,3.043-15.297,4.756-23.691,4.756c-8.84,0-17.24-1.895-24.857-5.252
				c-0.191,0.166-0.395,0.313-0.619,0.441c4.277,13.336,13.133,24.628,24.711,32.041c6.416-1.559,12.379-4.277,17.656-7.93
				c4.236-6.844,7.105-14.613,8.281-22.922C106.973,96.968,106.475,96.576,106.068,96.097z"/>
			<path fill="#FFFFFF" d="M117.213,53.702c-6.842-3.812-14.512-6.308-22.662-7.164c-0.094,0.238-0.209,0.466-0.338,0.682
				c10.049,11.003,16.207,25.616,16.207,41.655c0,0.15-0.008,0.297-0.01,0.447c0.748,0.205,1.416,0.599,1.936,1.144
				c3.348-1.96,6.5-4.222,9.396-6.773c0.33-2.407,0.516-4.86,0.516-7.358C122.258,68.239,120.445,60.572,117.213,53.702z"/>
			<path fill="#FFFFFF" d="M92.385,48.663c-0.59,0.314-1.246,0.513-1.959,0.519c-1.916,0.015-3.525-1.255-4.059-2.998
				c-8.693,0.32-16.912,2.49-24.268,6.152c0.055,0.268,0.088,0.542,0.088,0.824c0.02,2.338-1.859,4.246-4.195,4.265
				c-0.113,0.002-0.221-0.023-0.33-0.03c-2.348,6.465-3.623,13.434-3.566,20.703c0.027,3.515,0.381,6.948,0.998,10.291
				c2.252,0.078,4.066,1.906,4.084,4.182c0.006,0.464-0.082,0.902-0.217,1.321c7.262,3.077,15.246,4.765,23.623,4.697
				c8.055-0.063,15.725-1.737,22.719-4.702c-0.039-0.225-0.074-0.453-0.074-0.691c-0.016-1.941,1.283-3.568,3.063-4.082
				c0-0.151,0.006-0.301,0.006-0.453C108.172,73.214,102.141,59.184,92.385,48.663z"/>
			<path fill="#FFFFFF" d="M75.842,35.916c-0.775,0.928-1.928,1.531-3.232,1.531c-0.775,0-1.492-0.223-2.117-0.588
				c-3.713,3.906-6.902,8.307-9.457,13.102c0.07,0.071,0.137,0.148,0.207,0.225c7.678-3.751,16.238-5.945,25.281-6.202
				c0.068-0.267,0.156-0.523,0.273-0.767C83.439,40.4,79.766,37.949,75.842,35.916z"/>
			<path fill="#FFFFFF" d="M85.148,25.568c-3.086,1.69-5.998,3.656-8.725,5.845c0.258,0.548,0.418,1.155,0.418,1.802
				c0,0.229-0.031,0.449-0.068,0.668c4.113,2.123,7.973,4.67,11.488,7.624c0.67-0.45,1.479-0.714,2.348-0.714
				c2.084,0,3.805,1.506,4.156,3.485c7.338,0.771,14.293,2.821,20.643,5.933C108.855,38.591,98.076,29.679,85.148,25.568z"/>
			<path fill="#FFFFFF" d="M72.609,28.983c0.865,0,1.664,0.262,2.336,0.706c2.268-1.822,4.666-3.49,7.182-4.986
				c-4.201-1.067-8.602-1.637-13.135-1.637c-7.133,0-13.93,1.41-20.146,3.951c7.172,0.035,14.055,1.3,20.459,3.587
				C70.078,29.624,71.264,28.983,72.609,28.983z"/>
			<path fill="#FFFFFF" d="M68.379,33.214c0-0.174,0.027-0.346,0.051-0.516c-6.221-2.211-12.902-3.433-19.873-3.433
				c-1.672,0-3.32,0.093-4.957,0.229c-8.244,4.479-15.172,11.072-20.059,19.05c1.439,8.882,4.859,17.099,9.77,24.212
				c0.488-0.197,1.021-0.311,1.58-0.311c0.428,0,0.838,0.083,1.23,0.202c4.654-7.3,10.775-13.567,17.973-18.364
				c-0.127-0.405-0.215-0.826-0.215-1.274c0-2.337,1.895-4.231,4.232-4.231c0.326,0,0.641,0.045,0.945,0.115
				c2.662-4.998,5.982-9.594,9.855-13.66C68.584,34.631,68.379,33.951,68.379,33.214z"/>
		</g>
		<g>
			<path fill="#FFFFFF" d="M172.507,94.862l-0.126,0.315c-0.748,1.876-1.493,3.345-2.215,4.365c-0.687,0.97-1.63,1.701-2.805,2.176
				c-1.201,0.486-2.855,0.733-4.915,0.733h-4.892c-2.673,0-4.605-0.444-5.744-1.32c-1.098-0.846-1.654-2.437-1.654-4.729V54.991
				c0-2.233,0.553-3.77,1.645-4.564c1.143-0.834,2.475-1.282,3.959-1.33l0.483-0.016v-1.64h-19.146v1.64l0.484,0.016
				c1.53,0.048,2.865,0.506,3.968,1.359c1.06,0.82,1.597,2.346,1.597,4.535v42.838c0,1.833-0.49,3.265-1.456,4.254
				c-0.977,1-2.063,1.486-3.322,1.486h-1.271v1.617h34.645l2.388-10.324H172.507z"/>
			<path fill="#FFFFFF" d="M211.784,95.286l-0.116,0.337c-0.495,1.437-1.115,2.676-1.842,3.685c-0.702,0.978-1.679,1.752-2.9,2.304
				c-1.237,0.558-2.853,0.841-4.802,0.841h-8.437c-1.895,0-3.101-0.467-3.584-1.389c-0.536-1.027-0.809-2.271-0.809-3.698V77.719
				h10.4c0.979,0,1.923,0.075,2.89,0.23c0.419,0,0.92,0.117,1.487,0.348c0.551,0.226,1.125,0.701,1.709,1.413
				c0.584,0.714,0.988,1.769,1.202,3.134l0.066,0.422h1.507V69.398h-1.533l-0.044,0.452c-0.212,2.21-1.019,3.574-2.466,4.171
				c-1.55,0.64-3.339,0.964-5.317,0.964h-9.901V50.213h11.325c6.094,0,9.056,2.181,9.056,6.666v0.5h1.539v-9.938h-34.823v1.655
				h1.271c1.78,0,2.983,0.552,3.676,1.686c0.731,1.203,1.103,2.646,1.103,4.286v42.761c0,2.044-0.524,3.522-1.559,4.395
				c-1.056,0.894-2.14,1.346-3.22,1.346h-1.271v1.617h34.725l2.186-9.9H211.784z"/>
			<path fill="#FFFFFF" d="M271.079,103.569c-1.315,0-2.508-0.125-3.545-0.372c-1-0.237-2.216-0.936-3.613-2.077
				c-1.416-1.154-3.015-3.067-4.753-5.688l-14.175-21.205l11.91-16.236c0.238-0.384,1.287-1.687,3.127-3.886
				c1.592-2.037,2.985-3.356,4.142-3.924c1.177-0.576,2.394-0.942,3.616-1.088l0.44-0.053v-1.6h-15.833v1.628l0.472,0.026
				c1.661,0.094,2.764,0.449,3.188,1.027c0.46,0.631,0.693,1.231,0.693,1.786c0,1.173-0.785,2.878-2.33,5.06l-10.939,14.908
				l-9.885-14.881c-1.252-1.965-1.887-3.599-1.887-4.855c0-0.721,0.277-1.373,0.848-1.99c0.561-0.604,1.711-0.959,3.419-1.055
				l0.472-0.026v-1.628h-21.418v1.616l0.459,0.037c1.763,0.146,3.362,0.647,4.753,1.49c1.391,0.842,3.164,2.922,5.272,6.186
				l13.871,20.937l-13.639,18.805c-0.096,0.145-0.616,0.803-2.552,3.119c-2.14,2.615-4.771,3.941-7.823,3.941l-0.765-0.015v1.629
				h17.989v-1.63l-0.83,0.018c-1.659,0-2.745-0.356-3.226-1.06c-0.556-0.808-0.837-1.542-0.837-2.182c0-1.373,0.705-3.023,2.1-4.908
				l11.173-15.44l11.116,16.769c0.995,1.528,1.499,2.784,1.499,3.733c0,0.615-0.25,1.299-0.743,2.033
				c-0.452,0.674-1.513,1.027-3.154,1.05l-0.493,0.007v1.61h22.38v-1.617H271.079z"/>
			<path fill="#FFFFFF" d="M288.765,50.412c1.085-0.873,2.432-1.315,4.002-1.315h0.5v-1.655h-18.989v1.655h0.5
				c1.527,0,2.86,0.408,3.961,1.213c1.054,0.771,1.588,2.27,1.588,4.451v43.068c0,2.064-0.541,3.547-1.607,4.406
				c-1.096,0.886-2.422,1.334-3.941,1.334h-0.5v1.617h18.989v-1.617h-0.5c-1.439,0-2.712-0.45-3.891-1.376
				c-1.125-0.885-1.695-2.354-1.695-4.364V54.76C287.181,52.719,287.714,51.256,288.765,50.412z"/>
			<path fill="#FFFFFF" d="M327.325,81.581c-2.33-2.292-5.633-4.62-9.814-6.917c-2.49-1.387-4.479-2.543-5.91-3.436
				c-1.43-0.89-2.685-1.859-3.729-2.881c-1.023-0.999-1.808-2.166-2.331-3.469c-0.526-1.308-0.794-2.832-0.794-4.533
				c0-2.191,0.448-4.161,1.332-5.854c0.876-1.681,2.137-3.027,3.746-4.003c1.605-0.975,3.476-1.469,5.557-1.469
				c3.183,0,5.778,0.994,7.715,2.953c1.952,1.978,3.117,4.312,3.461,6.937l0.058,0.435h1.556V46.209h-1.501l-0.1,0.371
				c-0.325,1.221-0.869,1.361-1.25,1.361c-0.613,0-1.096-0.086-1.503-0.283c-2.658-0.859-5.289-1.296-7.82-1.296
				c-3.359,0-6.411,0.768-9.069,2.281c-2.662,1.516-4.745,3.554-6.193,6.058c-1.451,2.505-2.187,5.168-2.187,7.916
				c0,2.37,0.416,4.506,1.237,6.35c0.818,1.834,1.937,3.447,3.324,4.797c1.368,1.328,2.738,2.426,4.071,3.262
				c1.315,0.827,3.302,1.966,6.077,3.483c3.891,2.073,6.822,4.121,8.716,6.089c1.837,1.91,2.769,4.418,2.769,7.454
				c0,1.466-0.322,2.955-0.959,4.424c-0.627,1.442-1.773,2.688-3.408,3.704c-1.646,1.023-3.883,1.542-6.65,1.542
				c-3.693,0-6.868-1.039-9.436-3.088s-4.322-5.129-5.216-9.155l-0.087-0.392h-1.557v15.215h1.558l0.086-0.393
				c0.34-1.551,0.538-2.167,0.646-2.414c0.039-0.089,0.119-0.275,0.6-0.275c0.128,0,0.482,0.047,1.361,0.336
				c1.867,0.907,3.735,1.625,5.554,2.132c1.834,0.51,3.967,0.769,6.337,0.769c3.795,0,7.027-0.748,9.609-2.223
				c2.584-1.478,4.547-3.401,5.833-5.721c1.281-2.312,1.931-4.746,1.931-7.234C330.943,87.204,329.726,83.941,327.325,81.581z"/>
		</g>
	</g>
</g>
<g id="Mono_Preto" display="none">
	<g display="inline">
		<g>
			<path d="M32.148,79.876c-0.904-0.776-1.488-1.914-1.488-3.199c0-0.953,0.326-1.824,0.859-2.532
				c-4.637-6.685-7.988-14.318-9.703-22.548c-3.887,7.394-6.094,15.805-6.094,24.736c0,12.064,4.016,23.188,10.775,32.117
				c-0.039-0.885-0.064-1.771-0.064-2.666C26.434,96.536,28.492,87.764,32.148,79.876z"/>
			<path d="M54.713,96.621c-2.303-0.043-4.152-1.913-4.152-4.225c0-0.131,0.023-0.255,0.037-0.383
				c-5.205-3.135-9.918-7.004-13.984-11.477c-0.527,0.234-1.107,0.373-1.723,0.373c-0.236,0-0.461-0.033-0.688-0.069
				c-3.52,7.597-5.518,16.036-5.518,24.944c0,1.918,0.104,3.811,0.283,5.68c9.762,11.113,24.066,18.137,40.023,18.137
				c3.248,0,6.422-0.307,9.512-0.864C67.387,121.027,58.902,109.775,54.713,96.621z"/>
			<path d="M52.773,88.699c-0.625-3.516-0.977-7.123-0.977-10.815c0-7.537,1.379-14.751,3.861-21.437
				c-0.115-0.082-0.219-0.175-0.324-0.266c-6.926,4.618-12.84,10.636-17.322,17.659c0.686,0.753,1.109,1.741,1.109,2.837
				c0,0.907-0.289,1.742-0.775,2.434c3.811,4.176,8.207,7.807,13.061,10.77C51.768,89.392,52.232,88.992,52.773,88.699z"/>
			<path d="M113.418,92.458c0.066,0.299,0.107,0.607,0.107,0.927c0,2.168-1.637,3.935-3.736,4.182
				c-0.959,6.767-3.016,13.181-5.986,19.064c8.703-7.526,14.953-17.812,17.361-29.507C118.727,89.091,116.135,90.872,113.418,92.458
				z"/>
			<path d="M106.068,96.097c-7.305,3.043-15.297,4.756-23.691,4.756c-8.84,0-17.24-1.895-24.857-5.252
				c-0.191,0.166-0.395,0.313-0.619,0.441c4.277,13.336,13.133,24.628,24.711,32.041c6.416-1.559,12.379-4.277,17.656-7.93
				c4.236-6.844,7.105-14.613,8.281-22.922C106.973,96.968,106.475,96.576,106.068,96.097z"/>
			<path d="M117.213,53.702c-6.842-3.812-14.512-6.308-22.662-7.164c-0.094,0.238-0.209,0.466-0.338,0.682
				c10.049,11.003,16.207,25.616,16.207,41.655c0,0.15-0.008,0.297-0.01,0.447c0.748,0.205,1.416,0.599,1.936,1.144
				c3.348-1.96,6.5-4.222,9.396-6.773c0.33-2.407,0.516-4.86,0.516-7.358C122.258,68.239,120.445,60.572,117.213,53.702z"/>
			<path d="M92.385,48.663c-0.59,0.314-1.246,0.513-1.959,0.519c-1.916,0.015-3.525-1.255-4.059-2.998
				c-8.693,0.32-16.912,2.49-24.268,6.152c0.055,0.268,0.088,0.542,0.088,0.824c0.02,2.338-1.859,4.246-4.195,4.265
				c-0.113,0.002-0.221-0.023-0.33-0.03c-2.348,6.465-3.623,13.434-3.566,20.703c0.027,3.515,0.381,6.948,0.998,10.291
				c2.252,0.078,4.066,1.906,4.084,4.182c0.006,0.464-0.082,0.902-0.217,1.321c7.262,3.077,15.246,4.765,23.623,4.697
				c8.055-0.063,15.725-1.737,22.719-4.702c-0.039-0.225-0.074-0.453-0.074-0.691c-0.016-1.941,1.283-3.568,3.063-4.082
				c0-0.151,0.006-0.301,0.006-0.453C108.172,73.214,102.141,59.184,92.385,48.663z"/>
			<path d="M75.842,35.916c-0.775,0.928-1.928,1.531-3.232,1.531c-0.775,0-1.492-0.223-2.117-0.588
				c-3.713,3.906-6.902,8.307-9.457,13.102c0.07,0.071,0.137,0.148,0.207,0.225c7.678-3.751,16.238-5.945,25.281-6.202
				c0.068-0.267,0.156-0.523,0.273-0.767C83.439,40.4,79.766,37.949,75.842,35.916z"/>
			<path d="M85.148,25.568c-3.086,1.69-5.998,3.656-8.725,5.845c0.258,0.548,0.418,1.155,0.418,1.802
				c0,0.229-0.031,0.449-0.068,0.668c4.113,2.123,7.973,4.67,11.488,7.624c0.67-0.45,1.479-0.714,2.348-0.714
				c2.084,0,3.805,1.506,4.156,3.485c7.338,0.771,14.293,2.821,20.643,5.933C108.855,38.591,98.076,29.679,85.148,25.568z"/>
			<path d="M72.609,28.983c0.865,0,1.664,0.262,2.336,0.706c2.268-1.822,4.666-3.49,7.182-4.986
				c-4.201-1.067-8.602-1.637-13.135-1.637c-7.133,0-13.93,1.41-20.146,3.951c7.172,0.035,14.055,1.3,20.459,3.587
				C70.078,29.624,71.264,28.983,72.609,28.983z"/>
			<path d="M68.379,33.214c0-0.174,0.027-0.346,0.051-0.516c-6.221-2.211-12.902-3.433-19.873-3.433
				c-1.672,0-3.32,0.093-4.957,0.229c-8.244,4.479-15.172,11.072-20.059,19.05c1.439,8.882,4.859,17.099,9.77,24.212
				c0.488-0.197,1.021-0.311,1.58-0.311c0.428,0,0.838,0.083,1.23,0.202c4.654-7.3,10.775-13.567,17.973-18.364
				c-0.127-0.405-0.215-0.826-0.215-1.274c0-2.337,1.895-4.231,4.232-4.231c0.326,0,0.641,0.045,0.945,0.115
				c2.662-4.998,5.982-9.594,9.855-13.66C68.584,34.631,68.379,33.951,68.379,33.214z"/>
		</g>
		<g>
			<path d="M172.507,94.862l-0.126,0.315c-0.748,1.876-1.493,3.345-2.215,4.365c-0.687,0.97-1.63,1.701-2.805,2.176
				c-1.201,0.486-2.855,0.733-4.915,0.733h-4.892c-2.673,0-4.605-0.444-5.744-1.32c-1.098-0.846-1.654-2.437-1.654-4.729V54.991
				c0-2.233,0.553-3.77,1.645-4.564c1.143-0.834,2.475-1.282,3.959-1.33l0.483-0.016v-1.64h-19.146v1.64l0.484,0.016
				c1.53,0.048,2.865,0.506,3.968,1.359c1.06,0.82,1.597,2.346,1.597,4.535v42.838c0,1.833-0.49,3.265-1.456,4.254
				c-0.977,1-2.063,1.486-3.322,1.486h-1.271v1.617h34.645l2.388-10.324H172.507z"/>
			<path d="M211.784,95.286l-0.116,0.337c-0.495,1.437-1.115,2.676-1.842,3.685c-0.702,0.978-1.679,1.752-2.9,2.304
				c-1.237,0.558-2.853,0.841-4.802,0.841h-8.437c-1.895,0-3.101-0.467-3.584-1.389c-0.536-1.027-0.809-2.271-0.809-3.698V77.719
				h10.4c0.979,0,1.923,0.075,2.89,0.23c0.419,0,0.92,0.117,1.487,0.348c0.551,0.226,1.125,0.701,1.709,1.413
				c0.584,0.714,0.988,1.769,1.202,3.134l0.066,0.422h1.507V69.398h-1.533l-0.044,0.452c-0.212,2.21-1.019,3.574-2.466,4.171
				c-1.55,0.64-3.339,0.964-5.317,0.964h-9.901V50.213h11.325c6.094,0,9.056,2.181,9.056,6.666v0.5h1.539v-9.938h-34.823v1.655
				h1.271c1.78,0,2.983,0.552,3.676,1.686c0.731,1.203,1.103,2.646,1.103,4.286v42.761c0,2.044-0.524,3.522-1.559,4.395
				c-1.056,0.894-2.14,1.346-3.22,1.346h-1.271v1.617h34.725l2.186-9.9H211.784z"/>
			<path d="M271.079,103.569c-1.315,0-2.508-0.125-3.545-0.372c-1-0.237-2.216-0.936-3.613-2.077
				c-1.416-1.154-3.015-3.067-4.753-5.688l-14.175-21.205l11.91-16.236c0.238-0.384,1.287-1.687,3.127-3.886
				c1.592-2.037,2.985-3.356,4.142-3.924c1.177-0.576,2.394-0.942,3.616-1.088l0.44-0.053v-1.6h-15.833v1.628l0.472,0.026
				c1.661,0.094,2.764,0.449,3.188,1.027c0.46,0.631,0.693,1.231,0.693,1.786c0,1.173-0.785,2.878-2.33,5.06l-10.939,14.908
				l-9.885-14.881c-1.252-1.965-1.887-3.599-1.887-4.855c0-0.721,0.277-1.373,0.848-1.99c0.561-0.604,1.711-0.959,3.419-1.055
				l0.472-0.026v-1.628h-21.418v1.616l0.459,0.037c1.763,0.146,3.362,0.647,4.753,1.49c1.391,0.842,3.164,2.922,5.272,6.186
				l13.871,20.937l-13.639,18.805c-0.096,0.145-0.616,0.803-2.552,3.119c-2.14,2.615-4.771,3.941-7.823,3.941l-0.765-0.015v1.629
				h17.989v-1.63l-0.83,0.018c-1.659,0-2.745-0.356-3.226-1.06c-0.556-0.808-0.837-1.542-0.837-2.182c0-1.373,0.705-3.023,2.1-4.908
				l11.173-15.44l11.116,16.769c0.995,1.528,1.499,2.784,1.499,3.733c0,0.615-0.25,1.299-0.743,2.033
				c-0.452,0.674-1.513,1.027-3.154,1.05l-0.493,0.007v1.61h22.38v-1.617H271.079z"/>
			<path d="M288.765,50.412c1.085-0.873,2.432-1.315,4.002-1.315h0.5v-1.655h-18.989v1.655h0.5c1.527,0,2.86,0.408,3.961,1.213
				c1.054,0.771,1.588,2.27,1.588,4.451v43.068c0,2.064-0.541,3.547-1.607,4.406c-1.096,0.886-2.422,1.334-3.941,1.334h-0.5v1.617
				h18.989v-1.617h-0.5c-1.439,0-2.712-0.45-3.891-1.376c-1.125-0.885-1.695-2.354-1.695-4.364V54.76
				C287.181,52.719,287.714,51.256,288.765,50.412z"/>
			<path d="M327.325,81.581c-2.33-2.292-5.633-4.62-9.814-6.917c-2.49-1.387-4.479-2.543-5.91-3.436
				c-1.43-0.89-2.685-1.859-3.729-2.881c-1.023-0.999-1.808-2.166-2.331-3.469c-0.526-1.308-0.794-2.832-0.794-4.533
				c0-2.191,0.448-4.161,1.332-5.854c0.876-1.681,2.137-3.027,3.746-4.003c1.605-0.975,3.476-1.469,5.557-1.469
				c3.183,0,5.778,0.994,7.715,2.953c1.952,1.978,3.117,4.312,3.461,6.937l0.058,0.435h1.556V46.209h-1.501l-0.1,0.371
				c-0.325,1.221-0.869,1.361-1.25,1.361c-0.613,0-1.096-0.086-1.503-0.283c-2.658-0.859-5.289-1.296-7.82-1.296
				c-3.359,0-6.411,0.768-9.069,2.281c-2.662,1.516-4.745,3.554-6.193,6.058c-1.451,2.505-2.187,5.168-2.187,7.916
				c0,2.37,0.416,4.506,1.237,6.35c0.818,1.834,1.937,3.447,3.324,4.797c1.368,1.328,2.738,2.426,4.071,3.262
				c1.315,0.827,3.302,1.966,6.077,3.483c3.891,2.073,6.822,4.121,8.716,6.089c1.837,1.91,2.769,4.418,2.769,7.454
				c0,1.466-0.322,2.955-0.959,4.424c-0.627,1.442-1.773,2.688-3.408,3.704c-1.646,1.023-3.883,1.542-6.65,1.542
				c-3.693,0-6.868-1.039-9.436-3.088s-4.322-5.129-5.216-9.155l-0.087-0.392h-1.557v15.215h1.558l0.086-0.393
				c0.34-1.551,0.538-2.167,0.646-2.414c0.039-0.089,0.119-0.275,0.6-0.275c0.128,0,0.482,0.047,1.361,0.336
				c1.867,0.907,3.735,1.625,5.554,2.132c1.834,0.51,3.967,0.769,6.337,0.769c3.795,0,7.027-0.748,9.609-2.223
				c2.584-1.478,4.547-3.401,5.833-5.721c1.281-2.312,1.931-4.746,1.931-7.234C330.943,87.204,329.726,83.941,327.325,81.581z"/>
		</g>
	</g>
</g>
<g id="Original">
	<g>
		<g>
			<path fill="#FFFFFF" d="M32.148,79.876c-0.904-0.776-1.488-1.914-1.488-3.199c0-0.953,0.326-1.824,0.859-2.532
				c-4.637-6.685-7.988-14.318-9.703-22.548c-3.887,7.394-6.094,15.805-6.094,24.736c0,12.064,4.016,23.188,10.775,32.117
				c-0.039-0.885-0.064-1.771-0.064-2.666C26.434,96.536,28.492,87.764,32.148,79.876z"/>
			<path fill="#FFFFFF" d="M54.713,96.621c-2.303-0.043-4.152-1.913-4.152-4.225c0-0.131,0.023-0.255,0.037-0.383
				c-5.205-3.135-9.918-7.004-13.984-11.477c-0.527,0.234-1.107,0.373-1.723,0.373c-0.236,0-0.461-0.033-0.688-0.069
				c-3.52,7.597-5.518,16.036-5.518,24.944c0,1.918,0.104,3.811,0.283,5.68c9.762,11.113,24.066,18.137,40.023,18.137
				c3.248,0,6.422-0.307,9.512-0.864C67.387,121.027,58.902,109.775,54.713,96.621z"/>
			<path fill="#FFFFFF" d="M52.773,88.699c-0.625-3.516-0.977-7.123-0.977-10.815c0-7.537,1.379-14.751,3.861-21.437
				c-0.115-0.082-0.219-0.175-0.324-0.266c-6.926,4.618-12.84,10.636-17.322,17.659c0.686,0.753,1.109,1.741,1.109,2.837
				c0,0.907-0.289,1.742-0.775,2.434c3.811,4.176,8.207,7.807,13.061,10.77C51.768,89.392,52.232,88.992,52.773,88.699z"/>
			<path fill="#FFFFFF" d="M113.418,92.458c0.066,0.299,0.107,0.607,0.107,0.927c0,2.168-1.637,3.935-3.736,4.182
				c-0.959,6.767-3.016,13.181-5.986,19.064c8.703-7.526,14.953-17.812,17.361-29.507C118.727,89.091,116.135,90.872,113.418,92.458
				z"/>
			<path fill="#FFFFFF" d="M106.068,96.097c-7.305,3.043-15.297,4.756-23.691,4.756c-8.84,0-17.24-1.895-24.857-5.252
				c-0.191,0.166-0.395,0.313-0.619,0.441c4.277,13.336,13.133,24.628,24.711,32.041c6.416-1.559,12.379-4.277,17.656-7.93
				c4.236-6.844,7.105-14.613,8.281-22.922C106.973,96.968,106.475,96.576,106.068,96.097z"/>
			<path fill="#FFFFFF" d="M117.213,53.702c-6.842-3.812-14.512-6.308-22.662-7.164c-0.094,0.238-0.209,0.466-0.338,0.682
				c10.049,11.003,16.207,25.616,16.207,41.655c0,0.15-0.008,0.297-0.01,0.447c0.748,0.205,1.416,0.599,1.936,1.144
				c3.348-1.96,6.5-4.222,9.396-6.773c0.33-2.407,0.516-4.86,0.516-7.358C122.258,68.239,120.445,60.572,117.213,53.702z"/>
			<path fill="#FFFFFF" d="M92.385,48.663c-0.59,0.314-1.246,0.513-1.959,0.519c-1.916,0.015-3.525-1.255-4.059-2.998
				c-8.693,0.32-16.912,2.49-24.268,6.152c0.055,0.268,0.088,0.542,0.088,0.824c0.02,2.338-1.859,4.246-4.195,4.265
				c-0.113,0.002-0.221-0.023-0.33-0.03c-2.348,6.465-3.623,13.434-3.566,20.703c0.027,3.515,0.381,6.948,0.998,10.291
				c2.252,0.078,4.066,1.906,4.084,4.182c0.006,0.464-0.082,0.902-0.217,1.321c7.262,3.077,15.246,4.765,23.623,4.697
				c8.055-0.063,15.725-1.737,22.719-4.702c-0.039-0.225-0.074-0.453-0.074-0.691c-0.016-1.941,1.283-3.568,3.063-4.082
				c0-0.151,0.006-0.301,0.006-0.453C108.172,73.214,102.141,59.184,92.385,48.663z"/>
			<path fill="#FFFFFF" d="M75.842,35.916c-0.775,0.928-1.928,1.531-3.232,1.531c-0.775,0-1.492-0.223-2.117-0.588
				c-3.713,3.906-6.902,8.307-9.457,13.102c0.07,0.071,0.137,0.148,0.207,0.225c7.678-3.751,16.238-5.945,25.281-6.202
				c0.068-0.267,0.156-0.523,0.273-0.767C83.439,40.4,79.766,37.949,75.842,35.916z"/>
			<path fill="#FFFFFF" d="M85.148,25.568c-3.086,1.69-5.998,3.656-8.725,5.845c0.258,0.548,0.418,1.155,0.418,1.802
				c0,0.229-0.031,0.449-0.068,0.668c4.113,2.123,7.973,4.67,11.488,7.624c0.67-0.45,1.479-0.714,2.348-0.714
				c2.084,0,3.805,1.506,4.156,3.485c7.338,0.771,14.293,2.821,20.643,5.933C108.855,38.591,98.076,29.679,85.148,25.568z"/>
			<path fill="#FFFFFF" d="M72.609,28.983c0.865,0,1.664,0.262,2.336,0.706c2.268-1.822,4.666-3.49,7.182-4.986
				c-4.201-1.067-8.602-1.637-13.135-1.637c-7.133,0-13.93,1.41-20.146,3.951c7.172,0.035,14.055,1.3,20.459,3.587
				C70.078,29.624,71.264,28.983,72.609,28.983z"/>
			<path fill="#FFFFFF" d="M68.379,33.214c0-0.174,0.027-0.346,0.051-0.516c-6.221-2.211-12.902-3.433-19.873-3.433
				c-1.672,0-3.32,0.093-4.957,0.229c-8.244,4.479-15.172,11.072-20.059,19.05c1.439,8.882,4.859,17.099,9.77,24.212
				c0.488-0.197,1.021-0.311,1.58-0.311c0.428,0,0.838,0.083,1.23,0.202c4.654-7.3,10.775-13.567,17.973-18.364
				c-0.127-0.405-0.215-0.826-0.215-1.274c0-2.337,1.895-4.231,4.232-4.231c0.326,0,0.641,0.045,0.945,0.115
				c2.662-4.998,5.982-9.594,9.855-13.66C68.584,34.631,68.379,33.951,68.379,33.214z"/>
		</g>
		<g>
			<path fill="#FFFFFF" d="M172.507,94.862l-0.126,0.315c-0.748,1.876-1.493,3.345-2.215,4.365c-0.687,0.97-1.63,1.701-2.805,2.176
				c-1.201,0.486-2.855,0.733-4.915,0.733h-4.892c-2.673,0-4.605-0.444-5.744-1.32c-1.098-0.846-1.654-2.437-1.654-4.729V54.991
				c0-2.233,0.553-3.77,1.645-4.564c1.143-0.834,2.475-1.282,3.959-1.33l0.483-0.016v-1.64h-19.146v1.64l0.484,0.016
				c1.53,0.048,2.865,0.506,3.968,1.359c1.06,0.82,1.597,2.346,1.597,4.535v42.838c0,1.833-0.49,3.265-1.456,4.254
				c-0.977,1-2.063,1.486-3.322,1.486h-1.271v1.617h34.645l2.388-10.324H172.507z"/>
			<path fill="#FFFFFF" d="M211.784,95.286l-0.116,0.337c-0.495,1.437-1.115,2.676-1.842,3.685c-0.702,0.978-1.679,1.752-2.9,2.304
				c-1.237,0.558-2.853,0.841-4.802,0.841h-8.437c-1.895,0-3.101-0.467-3.584-1.389c-0.536-1.027-0.809-2.271-0.809-3.698V77.719
				h10.4c0.979,0,1.923,0.075,2.89,0.23c0.419,0,0.92,0.117,1.487,0.348c0.551,0.226,1.125,0.701,1.709,1.413
				c0.584,0.714,0.988,1.769,1.202,3.134l0.066,0.422h1.507V69.398h-1.533l-0.044,0.452c-0.212,2.21-1.019,3.574-2.466,4.171
				c-1.55,0.64-3.339,0.964-5.317,0.964h-9.901V50.213h11.325c6.094,0,9.056,2.181,9.056,6.666v0.5h1.539v-9.938h-34.823v1.655
				h1.271c1.78,0,2.983,0.552,3.676,1.686c0.731,1.203,1.103,2.646,1.103,4.286v42.761c0,2.044-0.524,3.522-1.559,4.395
				c-1.056,0.894-2.14,1.346-3.22,1.346h-1.271v1.617h34.725l2.186-9.9H211.784z"/>
			<path fill="#FFFFFF" d="M271.079,103.569c-1.315,0-2.508-0.125-3.545-0.372c-1-0.237-2.216-0.936-3.613-2.077
				c-1.416-1.154-3.015-3.067-4.753-5.688l-14.175-21.205l11.91-16.236c0.238-0.384,1.287-1.687,3.127-3.886
				c1.592-2.037,2.985-3.356,4.142-3.924c1.177-0.576,2.394-0.942,3.616-1.088l0.44-0.053v-1.6h-15.833v1.628l0.472,0.026
				c1.661,0.094,2.764,0.449,3.188,1.027c0.46,0.631,0.693,1.231,0.693,1.786c0,1.173-0.785,2.878-2.33,5.06l-10.939,14.908
				l-9.885-14.881c-1.252-1.965-1.887-3.599-1.887-4.855c0-0.721,0.277-1.373,0.848-1.99c0.561-0.604,1.711-0.959,3.419-1.055
				l0.472-0.026v-1.628h-21.418v1.616l0.459,0.037c1.763,0.146,3.362,0.647,4.753,1.49c1.391,0.842,3.164,2.922,5.272,6.186
				l13.871,20.937l-13.639,18.805c-0.096,0.145-0.616,0.803-2.552,3.119c-2.14,2.615-4.771,3.941-7.823,3.941l-0.765-0.015v1.629
				h17.989v-1.63l-0.83,0.018c-1.659,0-2.745-0.356-3.226-1.06c-0.556-0.808-0.837-1.542-0.837-2.182c0-1.373,0.705-3.023,2.1-4.908
				l11.173-15.44l11.116,16.769c0.995,1.528,1.499,2.784,1.499,3.733c0,0.615-0.25,1.299-0.743,2.033
				c-0.452,0.674-1.513,1.027-3.154,1.05l-0.493,0.007v1.61h22.38v-1.617H271.079z"/>
			<path fill="#FFFFFF" d="M288.765,50.412c1.085-0.873,2.432-1.315,4.002-1.315h0.5v-1.655h-18.989v1.655h0.5
				c1.527,0,2.86,0.408,3.961,1.213c1.054,0.771,1.588,2.27,1.588,4.451v43.068c0,2.064-0.541,3.547-1.607,4.406
				c-1.096,0.886-2.422,1.334-3.941,1.334h-0.5v1.617h18.989v-1.617h-0.5c-1.439,0-2.712-0.45-3.891-1.376
				c-1.125-0.885-1.695-2.354-1.695-4.364V54.76C287.181,52.719,287.714,51.256,288.765,50.412z"/>
			<path fill="#FFFFFF" d="M327.325,81.581c-2.33-2.292-5.633-4.62-9.814-6.917c-2.49-1.387-4.479-2.543-5.91-3.436
				c-1.43-0.89-2.685-1.859-3.729-2.881c-1.023-0.999-1.808-2.166-2.331-3.469c-0.526-1.308-0.794-2.832-0.794-4.533
				c0-2.191,0.448-4.161,1.332-5.854c0.876-1.681,2.137-3.027,3.746-4.003c1.605-0.975,3.476-1.469,5.557-1.469
				c3.183,0,5.778,0.994,7.715,2.953c1.952,1.978,3.117,4.312,3.461,6.937l0.058,0.435h1.556V46.209h-1.501l-0.1,0.371
				c-0.325,1.221-0.869,1.361-1.25,1.361c-0.613,0-1.096-0.086-1.503-0.283c-2.658-0.859-5.289-1.296-7.82-1.296
				c-3.359,0-6.411,0.768-9.069,2.281c-2.662,1.516-4.745,3.554-6.193,6.058c-1.451,2.505-2.187,5.168-2.187,7.916
				c0,2.37,0.416,4.506,1.237,6.35c0.818,1.834,1.937,3.447,3.324,4.797c1.368,1.328,2.738,2.426,4.071,3.262
				c1.315,0.827,3.302,1.966,6.077,3.483c3.891,2.073,6.822,4.121,8.716,6.089c1.837,1.91,2.769,4.418,2.769,7.454
				c0,1.466-0.322,2.955-0.959,4.424c-0.627,1.442-1.773,2.688-3.408,3.704c-1.646,1.023-3.883,1.542-6.65,1.542
				c-3.693,0-6.868-1.039-9.436-3.088s-4.322-5.129-5.216-9.155l-0.087-0.392h-1.557v15.215h1.558l0.086-0.393
				c0.34-1.551,0.538-2.167,0.646-2.414c0.039-0.089,0.119-0.275,0.6-0.275c0.128,0,0.482,0.047,1.361,0.336
				c1.867,0.907,3.735,1.625,5.554,2.132c1.834,0.51,3.967,0.769,6.337,0.769c3.795,0,7.027-0.748,9.609-2.223
				c2.584-1.478,4.547-3.401,5.833-5.721c1.281-2.312,1.931-4.746,1.931-7.234C330.943,87.204,329.726,83.941,327.325,81.581z"/>
		</g>
	</g>
</g>
</svg>
