<?xml version="1.0" encoding="UTF-8"?>
<svg xmlns="http://www.w3.org/2000/svg" version="1.1" viewBox="0 0 180 22.16">
  <defs>
    <style>
      .cls-1 {
        fill: #fff4e4;
      }
    </style>
  </defs>
  <!-- Generator: Adobe Illustrator 28.7.1, SVG Export Plug-In . SVG Version: 1.2.0 Build 142)  -->
  <g>
    <g id="Content">
      <g id="Camada_4">
        <g>
          <path class="cls-1" d="M8.5,16.9c-.06,0-.13-.02-.22-.07l-.22-.11L.64,11.66c-.22-.15-.38-.29-.48-.44S0,10.9,0,10.69v-.55c0-.2.05-.38.15-.53s.26-.29.48-.44l7.42-5.07c.06-.03.13-.07.22-.11.09-.04.16-.07.22-.07.12,0,.22.04.31.12s.13.19.13.32v1.67c0,.21-.05.37-.15.48-.1.12-.23.22-.4.31l-5.33,3.58,5.33,3.6c.16.1.29.21.4.32.1.11.15.27.15.47v1.67c0,.13-.04.24-.13.32-.09.08-.19.12-.31.12Z"/>
          <path class="cls-1" d="M18.12,17.47c-.85,0-1.56-.15-2.12-.44-.56-.29-1.03-.67-1.39-1.12v.81c0,.15-.05.27-.14.37s-.22.15-.38.15h-1.73c-.15,0-.27-.05-.37-.15s-.15-.23-.15-.37V2.2c0-.15.05-.27.15-.37s.23-.15.37-.15h1.87c.16,0,.29.05.38.15s.14.23.14.37v4.87c.37-.42.82-.77,1.37-1.04.55-.27,1.22-.41,2.01-.41s1.45.13,2.02.4c.57.26,1.05.63,1.44,1.11s.68,1.03.89,1.66c.21.63.31,1.31.33,2.04.01.26.02.5.02.71s0,.45-.02.71c-.03.76-.15,1.46-.35,2.1-.21.64-.5,1.19-.88,1.66-.38.47-.86.83-1.43,1.09-.57.26-1.24.38-2.02.38ZM17.31,15.13c.63,0,1.12-.14,1.47-.41.35-.27.61-.63.77-1.06s.26-.92.29-1.45c.01-.44.01-.88,0-1.32-.03-.53-.12-1.01-.29-1.45s-.42-.79-.77-1.06c-.35-.27-.84-.41-1.47-.41-.58,0-1.06.13-1.43.4-.37.26-.64.6-.83,1-.19.4-.29.82-.31,1.26-.02.26-.02.55-.02.85s0,.58.02.84c.03.45.13.9.3,1.33.17.43.44.79.81,1.07.37.28.86.42,1.46.42Z"/>
          <path class="cls-1" d="M25.78,17.26c-.15,0-.27-.05-.37-.15-.1-.1-.15-.23-.15-.37V6.39c0-.16.05-.29.15-.4.1-.1.23-.15.37-.15h1.78c.15,0,.27.05.38.15.11.1.16.23.16.4v.9c.34-.47.77-.83,1.31-1.08.53-.25,1.15-.37,1.86-.37h.9c.16,0,.29.05.38.15.1.1.14.23.14.37v1.58c0,.15-.05.27-.14.37-.09.1-.22.15-.38.15h-1.71c-.7,0-1.25.19-1.64.58-.39.39-.58.93-.58,1.64v6.04c0,.15-.05.27-.15.37s-.23.15-.4.15h-1.91Z"/>
          <path class="cls-1" d="M38.65,17.47c-.89,0-1.67-.2-2.32-.6s-1.15-.97-1.5-1.71c-.35-.74-.53-1.61-.53-2.62v-6.17c0-.15.05-.27.15-.37.1-.1.23-.15.37-.15h1.93c.16,0,.29.05.38.15.09.1.14.23.14.37v6.04c0,1.81.8,2.72,2.39,2.72.76,0,1.36-.24,1.81-.72.45-.48.67-1.15.67-2v-6.04c0-.15.05-.27.15-.37.1-.1.23-.15.37-.15h1.93c.15,0,.27.05.37.15.1.1.15.23.15.37v10.36c0,.15-.05.27-.15.37s-.23.15-.37.15h-1.78c-.16,0-.29-.05-.38-.15-.09-.1-.14-.23-.14-.37v-.9c-.4.51-.89.92-1.47,1.21s-1.32.44-2.2.44Z"/>
          <path class="cls-1" d="M48.57,17.26c-.15,0-.27-.05-.37-.15-.1-.1-.15-.23-.15-.37V6.37c0-.15.05-.27.15-.37.1-.1.23-.15.37-.15h1.8c.15,0,.27.05.37.15.1.1.15.23.15.37v.9c.38-.47.87-.86,1.46-1.17.59-.31,1.33-.47,2.21-.47s1.67.2,2.33.6c.66.4,1.17.97,1.53,1.7.36.73.54,1.61.54,2.63v6.17c0,.15-.05.27-.15.37-.1.1-.23.15-.37.15h-1.93c-.15,0-.27-.05-.37-.15s-.15-.23-.15-.37v-6.04c0-.85-.21-1.51-.63-2s-1.02-.72-1.81-.72-1.37.24-1.82.72c-.45.48-.68,1.15-.68,2v6.04c0,.15-.05.27-.15.37s-.23.15-.37.15h-1.93Z"/>
          <path class="cls-1" d="M66.79,17.47c-1.17,0-2.15-.2-2.95-.61-.8-.41-1.41-.99-1.82-1.73-.42-.75-.65-1.62-.71-2.61-.01-.26-.02-.59-.02-.97s0-.7.02-.97c.06-1.01.3-1.88.74-2.62s1.05-1.31,1.84-1.72c.8-.41,1.77-.61,2.91-.61s2.11.21,2.91.61,1.41.98,1.84,1.72c.43.74.68,1.61.73,2.62.01.26.02.59.02.97s0,.7-.02.97c-.06,1-.3,1.87-.71,2.61-.42.75-1.02,1.32-1.82,1.73-.8.41-1.78.61-2.95.61ZM66.79,15.3c.78,0,1.38-.25,1.8-.74.42-.49.66-1.21.7-2.16.01-.22.02-.51.02-.86s0-.64-.02-.86c-.04-.95-.28-1.67-.7-2.16-.42-.49-1.03-.74-1.8-.74s-1.38.25-1.8.74c-.42.49-.66,1.21-.7,2.16-.01.22-.02.51-.02.86s0,.64.02.86c.04.95.28,1.67.7,2.16.42.49,1.02.74,1.8.74Z"/>
          <path class="cls-1" d="M74.98,18.48c-.15,0-.27-.05-.37-.14-.1-.1-.15-.22-.15-.38v-1.45c0-.15.05-.27.15-.37.1-.1.23-.15.37-.15h12.89c.16,0,.29.05.38.15.09.1.14.23.14.37v1.45c0,.16-.05.29-.14.38-.1.1-.22.14-.38.14h-12.89Z"/>
          <path class="cls-1" d="M96.18,22.08c-1.07,0-1.95-.14-2.63-.42-.69-.28-1.23-.61-1.63-1.01-.39-.4-.68-.79-.84-1.17-.17-.39-.26-.69-.27-.91-.02-.15.03-.27.14-.38.11-.11.24-.16.38-.16h1.91c.15,0,.26.03.35.1.09.07.16.19.22.36.09.19.2.39.35.61.15.22.37.41.67.56s.71.23,1.24.23c.56,0,1.02-.08,1.41-.24.38-.16.67-.43.87-.81.2-.38.3-.91.3-1.58v-1.49c-.35.42-.8.77-1.35,1.03-.55.26-1.23.4-2.03.4s-1.45-.13-2.03-.38c-.58-.26-1.06-.61-1.44-1.08-.38-.46-.67-1.01-.87-1.64-.2-.63-.31-1.32-.34-2.09-.01-.4-.01-.79,0-1.19.03-.73.14-1.41.34-2.04.2-.63.49-1.18.87-1.66.38-.48.86-.85,1.44-1.11.58-.26,1.26-.4,2.03-.4.83,0,1.54.16,2.11.47.57.31,1.04.71,1.41,1.17v-.88c0-.16.05-.29.15-.4.1-.1.23-.15.37-.15h1.78c.15,0,.27.05.37.15.1.1.15.23.15.4l.02,10.58c0,1.05-.2,1.96-.59,2.72-.4.76-.99,1.35-1.79,1.77-.8.42-1.82.63-3.06.63ZM96.07,14.86c.6,0,1.08-.13,1.45-.4s.64-.61.81-1.03c.18-.42.28-.86.31-1.3.01-.19.02-.43.02-.72s0-.53-.02-.7c-.03-.45-.13-.89-.31-1.31-.18-.42-.45-.76-.81-1.03s-.85-.41-1.45-.41-1.08.14-1.45.41c-.37.27-.63.63-.78,1.06-.15.44-.25.92-.27,1.45-.03.35-.03.71,0,1.08.03.51.12.99.27,1.44.15.45.41.8.78,1.06.37.26.85.4,1.45.4Z"/>
          <path class="cls-1" d="M107.86,17.47c-.76,0-1.45-.15-2.06-.45s-1.1-.7-1.46-1.21-.54-1.07-.54-1.7c0-1.02.42-1.84,1.25-2.45.83-.61,1.92-1.01,3.27-1.22l3.01-.44v-.46c0-.61-.15-1.09-.46-1.43s-.83-.51-1.58-.51c-.53,0-.95.11-1.28.32-.33.21-.57.49-.74.84-.12.19-.29.29-.5.29h-1.73c-.16,0-.28-.04-.36-.13-.08-.09-.12-.21-.12-.35.01-.23.11-.52.3-.86s.46-.66.83-.98.86-.58,1.46-.8c.6-.22,1.32-.33,2.17-.33.92,0,1.7.11,2.34.34.64.23,1.15.53,1.53.91.38.38.66.83.83,1.34.18.51.26,1.05.26,1.62v6.89c0,.15-.05.27-.15.37s-.23.15-.37.15h-1.78c-.16,0-.29-.05-.38-.15s-.14-.23-.14-.37v-.86c-.19.26-.45.52-.77.77-.32.25-.71.45-1.17.6s-1.01.23-1.64.23ZM108.61,15.39c.51,0,.98-.11,1.39-.33.42-.22.75-.56.99-1.02s.36-1.04.36-1.75v-.46l-2.2.35c-.86.13-1.51.34-1.93.64s-.64.65-.64,1.08c0,.32.1.6.3.82.2.23.45.4.76.5.31.11.63.16.97.16Z"/>
          <path class="cls-1" d="M117.04,17.26c-.16,0-.29-.05-.38-.15-.1-.1-.14-.23-.14-.37v-1.25c0-.13.03-.26.1-.38.07-.12.14-.23.21-.32l5.62-6.65h-5.23c-.15,0-.27-.05-.37-.14-.1-.1-.15-.22-.15-.38v-1.23c0-.15.05-.27.15-.37.1-.1.23-.15.37-.15h8.32c.16,0,.29.05.38.15.1.1.14.23.14.37v1.34c0,.13-.03.25-.09.35-.06.1-.13.21-.22.31l-5.49,6.61h5.73c.15,0,.27.05.37.14.1.1.15.22.15.38v1.23c0,.15-.05.27-.15.37s-.23.15-.37.15h-8.96Z"/>
          <path class="cls-1" d="M133.66,17.47c-1.17,0-2.15-.2-2.95-.61-.8-.41-1.41-.99-1.82-1.73-.42-.75-.65-1.62-.71-2.61-.01-.26-.02-.59-.02-.97s0-.7.02-.97c.06-1.01.3-1.88.74-2.62s1.05-1.31,1.84-1.72c.8-.41,1.77-.61,2.91-.61s2.11.21,2.91.61,1.41.98,1.84,1.72c.43.74.68,1.61.73,2.62.01.26.02.59.02.97s0,.7-.02.97c-.06,1-.3,1.87-.71,2.61-.42.75-1.02,1.32-1.82,1.73-.8.41-1.78.61-2.95.61ZM133.66,15.3c.78,0,1.38-.25,1.8-.74.42-.49.66-1.21.7-2.16.01-.22.02-.51.02-.86s0-.64-.02-.86c-.04-.95-.28-1.67-.7-2.16-.42-.49-1.03-.74-1.8-.74s-1.38.25-1.8.74c-.42.49-.66,1.21-.7,2.16-.01.22-.02.51-.02.86s0,.64.02.86c.04.95.28,1.67.7,2.16.42.49,1.02.74,1.8.74Z"/>
          <path class="cls-1" d="M142.15,17.26c-.15,0-.27-.05-.37-.15s-.15-.23-.15-.37V2.2c0-.15.05-.27.15-.37s.23-.15.37-.15h1.82c.15,0,.27.05.37.15s.15.23.15.37v14.53c0,.15-.05.27-.15.37s-.23.15-.37.15h-1.82Z"/>
          <path class="cls-1" d="M150.74,17.47c-.76,0-1.45-.15-2.06-.45s-1.1-.7-1.46-1.21-.54-1.07-.54-1.7c0-1.02.42-1.84,1.25-2.45.83-.61,1.92-1.01,3.27-1.22l3.01-.44v-.46c0-.61-.15-1.09-.46-1.43s-.83-.51-1.58-.51c-.53,0-.95.11-1.28.32-.33.21-.57.49-.74.84-.12.19-.29.29-.5.29h-1.73c-.16,0-.28-.04-.36-.13-.08-.09-.12-.21-.12-.35.01-.23.11-.52.3-.86s.46-.66.83-.98.86-.58,1.46-.8c.6-.22,1.32-.33,2.17-.33.92,0,1.7.11,2.34.34.64.23,1.15.53,1.53.91.38.38.66.83.83,1.34.18.51.26,1.05.26,1.62v6.89c0,.15-.05.27-.15.37s-.23.15-.37.15h-1.78c-.16,0-.29-.05-.38-.15s-.14-.23-.14-.37v-.86c-.19.26-.45.52-.77.77-.32.25-.71.45-1.17.6s-1.01.23-1.64.23ZM151.48,15.39c.51,0,.98-.11,1.39-.33.42-.22.75-.56.99-1.02s.36-1.04.36-1.75v-.46l-2.2.35c-.86.13-1.51.34-1.93.64s-.64.65-.64,1.08c0,.32.1.6.3.82.2.23.45.4.76.5.31.11.63.16.97.16Z"/>
          <path class="cls-1" d="M159.5,19.1c-.12,0-.22-.04-.31-.13s-.13-.2-.13-.33c0-.06.01-.14.04-.24L166.59.46c.04-.1.12-.2.22-.31.1-.1.25-.15.44-.15h1.43c.12,0,.22.04.32.13.1.09.14.2.14.33,0,.06-.02.14-.07.24l-7.49,17.94c-.04.09-.12.19-.22.3-.1.11-.26.16-.46.16h-1.41Z"/>
          <path class="cls-1" d="M171.5,16.9c-.12,0-.22-.04-.31-.12-.09-.08-.13-.19-.13-.34v-1.65c0-.22.05-.38.15-.49s.23-.21.4-.3l5.33-3.6-5.33-3.58c-.16-.1-.29-.21-.4-.32s-.15-.27-.15-.47v-1.67c0-.15.04-.26.13-.33.09-.07.19-.11.31-.11.07,0,.15.02.24.06s.16.08.22.12l7.4,5.07c.22.15.38.29.48.43.1.14.15.32.15.54v.53c0,.22-.05.4-.15.55s-.26.29-.48.44l-7.4,5.07-.22.11c-.09.04-.17.07-.24.07Z"/>
        </g>
      </g>
    </g>
  </g>
</svg>