<?xml version="1.0" encoding="UTF-8"?>
<svg xmlns="http://www.w3.org/2000/svg" version="1.1" viewBox="0 0 40 36">
  <defs>
    <style>
      .cls-1 {
        fill: #00e8fc;
      }
    </style>
  </defs>
  <!-- Generator: Adobe Illustrator 28.7.1, SVG Export Plug-In . SVG Version: 1.2.0 Build 142)  -->
  <g>
    <g id="Content">
      <g id="Camada_4">
        <path class="cls-1" d="M32.13,2c.32.08.64.15.95.26,2.06.68,3.5,2.58,3.51,4.76.02,5.19.03,10.37,0,15.56-.02,2.85-2.31,5.02-5.23,5.03-6.04,0-12.08,0-18.12,0-.31,0-.55.08-.79.28-2.19,1.84-4.39,3.68-6.59,5.51-.25.21-.53.42-.83.54-.62.25-1.4-.1-1.65-.96,0-8.83,0-17.66,0-26.48.02-.06.06-.11.07-.18.37-2,1.53-3.33,3.42-4.03.32-.12.65-.18.98-.27,8.09,0,16.18,0,24.28,0ZM5.94,29.98c.17-.14.27-.21.36-.29,1.65-1.37,3.3-2.74,4.93-4.12.43-.36.89-.53,1.45-.53,6.16,0,12.32,0,18.48,0,1.86,0,2.88-1.03,2.88-2.9,0-4.89,0-9.79,0-14.68,0-1.87-1.02-2.9-2.88-2.9-7.45,0-14.9,0-22.36,0-1.84,0-2.87,1.03-2.88,2.87,0,7.35,0,14.69,0,22.04v.52Z"/>
      </g>
    </g>
  </g>
</svg>