<?xml version="1.0" encoding="UTF-8"?>
<svg xmlns="http://www.w3.org/2000/svg" version="1.1" viewBox="0 0 78 78">
  <defs>
    <style>
      .cls-1 {
        fill: #00e8fc;
      }
    </style>
  </defs>
  <!-- Generator: Adobe Illustrator 28.7.1, SVG Export Plug-In . SVG Version: 1.2.0 Build 142)  -->
  <g>
    <g id="Content">
      <g id="Camada_4">
        <path class="cls-1" d="M51.97,3c.88.2,1.8.33,2.65.63,5.13,1.77,8.36,5.33,9.23,10.68.87,5.33-1.05,9.7-5.31,13.02-.15.12-.3.22-.52.39,4.09,2.97,6.22,6.93,6.01,12-.13,3.17-1.36,5.94-3.46,8.33-4.36,4.96-13.15,6.38-19.28,1.05-.01.3-.04.54-.04.78,0,3.8.02,7.59,0,11.39-.04,6.48-4.28,11.83-10.56,13.37-.59.14-1.18.25-1.78.37h-2.81c-.15-.05-.3-.11-.45-.14-5.15-.88-8.84-3.68-10.72-8.55-1.87-4.85-1.01-9.4,2.26-13.43.8-.98,1.82-1.78,2.73-2.66-7.85-5.17-7.94-17.25.1-22.52-.15-.12-.3-.23-.44-.34-3.99-3.05-5.95-7.09-5.49-12.09.48-5.23,3.28-8.98,8.06-11.14,1.24-.56,2.63-.77,3.95-1.14,8.63,0,17.25,0,25.88,0ZM36.78,7.44c-.2-.02-.31-.03-.42-.03-3,0-6,0-9,0-.51,0-1.03.06-1.54.16-4.79.95-7.82,5.1-7.33,10.03.44,4.43,4.42,7.9,9.1,7.92,2.84,0,5.67,0,8.51,0,.22,0,.45,0,.69,0V7.44ZM41.3,7.41v18.11c.28,0,.51,0,.74,0,2.79,0,5.58,0,8.37,0,.61,0,1.22-.05,1.82-.15,4.31-.73,7.59-4.76,7.42-9.1-.18-4.62-3.63-8.44-8.11-8.76-2.57-.18-5.15-.08-7.73-.1-.82,0-1.63,0-2.51,0ZM36.78,30.01c-3.54,0-7.01,0-10.47,0-.34,0-.69.11-1.03.2-4.51,1.15-7.32,5.32-6.77,10.05.49,4.27,4.34,7.7,8.8,7.77,3,.05,6,.01,9,0,.16,0,.31-.04.49-.06v-17.97ZM36.89,52.52c-.32-.02-.45-.03-.59-.03-3.02,0-6.04-.04-9.06.01-2.96.05-5.32,1.35-7.07,3.7-2.23,3-2.34,7.03-.35,10.16,1.99,3.12,5.76,4.77,9.34,4.1,3.81-.72,7.02-3.61,7.42-7.29.38-3.5.23-7.05.32-10.65ZM50.43,48.05c5.14,0,9.23-4.01,9.22-9.05,0-5.02-4.06-9.02-9.16-9.04-5.17-.02-9.23,3.95-9.24,9.02-.01,5.08,4.03,9.07,9.18,9.08Z"/>
      </g>
    </g>
  </g>
</svg>