<?xml version="1.0" encoding="UTF-8"?>
<svg xmlns="http://www.w3.org/2000/svg" version="1.1" viewBox="0 0 24 24">
  <defs>
    <style>
      .cls-1 {
        fill: #fff4e4;
      }
    </style>
  </defs>
  <!-- Generator: Adobe Illustrator 28.7.1, SVG Export Plug-In . SVG Version: 1.2.0 Build 142)  -->
  <g>
    <g id="Content">
      <g id="Camada_4">
        <path class="cls-1" d="M0,12.57v-1.27c.01-.07.03-.13.04-.2.14-1.86.67-3.6,1.64-5.19C3.58,2.78,6.33.87,9.94.19c.45-.08.91-.13,1.36-.19h1.41c.4.05.81.09,1.2.15,2.49.42,4.66,1.48,6.46,3.26,2.72,2.7,3.92,5.99,3.57,9.8-.23,2.53-1.2,4.78-2.9,6.67-2.86,3.18-6.44,4.51-10.68,4-1.71-.21-3.3-.81-4.75-1.74-.15-.09-.27-.11-.43-.05-1.38.45-2.76.89-4.14,1.33-.07.02-.14.04-.23.06.03-.1.05-.16.07-.23.44-1.31.87-2.62,1.32-3.92.07-.2.06-.35-.07-.54-1-1.43-1.64-3.01-1.94-4.72C.1,13.58.06,13.07,0,12.57ZM15.89,18.77c.39-.08.73-.1,1.05-.21,1.69-.59,2.26-1.4,2.31-2.98,0-.24-.09-.4-.3-.5-.89-.43-1.78-.86-2.68-1.28-.46-.21-.73-.13-1.03.28-.23.31-.46.63-.7.94-.37.47-.62.53-1.18.3-2.01-.82-3.49-2.24-4.6-4.07-.14-.24-.13-.46.05-.67.19-.22.37-.44.58-.65.45-.45.62-.93.25-1.5,0,0,0-.01,0-.02-.36-.84-.71-1.68-1.08-2.52-.06-.13-.19-.28-.32-.31-.64-.15-1.28-.16-1.83.26-.5.39-.86.9-1.08,1.5-.44,1.18-.3,2.33.19,3.46.36.83.88,1.56,1.41,2.28.9,1.22,1.93,2.31,3.13,3.25,1.29,1.01,2.76,1.64,4.31,2.1.52.15,1.06.24,1.55.34Z"/>
      </g>
    </g>
  </g>
</svg>