<?xml version="1.0" encoding="UTF-8"?>
<svg xmlns="http://www.w3.org/2000/svg" version="1.1" viewBox="0 0 40 36">
  <defs>
    <style>
      .cls-1 {
        fill: #00e8fc;
      }
    </style>
  </defs>
  <!-- Generator: Adobe Illustrator 28.7.1, SVG Export Plug-In . SVG Version: 1.2.0 Build 142)  -->
  <g>
    <g id="Content">
      <g id="Camada_4">
        <path class="cls-1" d="M39.04,7.51v20.98s-.04.06-.05.1c-.49,1.9-1.65,2.8-3.61,2.8-8.38,0-16.75,0-25.13,0-1.98,0-3.96.01-5.95,0-1.27-.01-2.27-.58-2.9-1.69-.21-.37-.31-.8-.45-1.21,0-6.99,0-13.99,0-20.98.02-.03.04-.06.05-.1.54-1.96,1.65-2.8,3.68-2.8,8.08,0,16.16,0,24.23,0,2.25,0,4.51-.02,6.76,0,1.42.01,2.45.7,3.06,1.98.14.29.2.61.3.91ZM35.14,6.95s-.04-.05-.05-.08H4.9c.05.14.14.2.22.28,4.6,4.62,9.21,9.23,13.81,13.85.72.72,1.41.72,2.12,0,3.31-3.32,6.61-6.64,9.93-9.95,1.38-1.38,2.77-2.74,4.15-4.1ZM4.83,29.13h30.34c-3.22-3.19-6.39-6.33-9.58-9.49-.07.07-.17.16-.27.25-.93.93-1.85,1.87-2.78,2.79-1.46,1.45-3.63,1.45-5.09,0-.56-.56-1.12-1.12-1.68-1.69-.46-.46-.93-.92-1.37-1.37-3.19,3.16-6.36,6.3-9.58,9.5ZM3.2,27.44c3.16-3.13,6.35-6.29,9.55-9.46-3.19-3.16-6.38-6.33-9.55-9.47v18.93ZM36.79,27.46V8.55c-3.16,3.13-6.35,6.29-9.55,9.46,3.2,3.17,6.39,6.33,9.55,9.46Z"/>
      </g>
    </g>
  </g>
</svg>