<?xml version="1.0" encoding="UTF-8"?>
<svg id="Content" xmlns="http://www.w3.org/2000/svg" version="1.1" viewBox="0 0 95 95">
  <!-- Generator: Adobe Illustrator 29.0.0, SVG Export Plug-In . SVG Version: 2.1.0 Build 186)  -->
  <defs>
    <style>
      .st0 {
        fill: #22272e;
      }

      .st1 {
        fill: none;
        stroke: #63737a;
        stroke-linecap: round;
        stroke-linejoin: round;
        stroke-width: 5.43px;
      }

      .st2 {
        fill: #ffe779;
      }

      .st3 {
        fill: #f96e46;
      }

      .st4 {
        fill: #6dafa7;
      }
    </style>
  </defs>
  <g id="Camada_4">
    <g>
      <circle class="st3" cx="47.5" cy="47.5" r="45.09"/>
      <g>
        <g>
          <path class="st0" d="M72.67,73.62l-49.29,11.33c-2.15.5-4.3-.83-4.8-2.98L4.61,21.43c-.5-2.15.83-4.3,2.98-4.8L56.88,5.31c2.15-.5,4.3.83,4.8,2.98l13.89,60.53c.58,2.15-.74,4.3-2.89,4.8Z"/>
          <g>
            <path class="st2" d="M51.92,22.67l-32.09,7.36c-1.08.25-2.07-.41-2.32-1.49h0c-.25-1.08.41-2.07,1.49-2.32l32.09-7.36c1.08-.25,2.07.41,2.32,1.49h0c.17.99-.5,2.07-1.49,2.32Z"/>
            <line class="st1" x1="19.75" y1="38.55" x2="55.64" y2="30.28"/>
            <line class="st1" x1="21.15" y1="44.59" x2="57.04" y2="36.32"/>
            <path class="st2" d="M42.57,68.41l-13.23,3.06c-1.08.25-2.07-.41-2.32-1.49l-3.06-13.23c-.25-1.08.41-2.07,1.49-2.32l13.23-3.06c1.08-.25,2.07.41,2.32,1.49l3.06,13.23c.17.99-.5,2.07-1.49,2.32Z"/>
            <line class="st1" x1="45.88" y1="49.63" x2="59.36" y2="46.49"/>
            <line class="st1" x1="47.37" y1="56.17" x2="60.93" y2="53.11"/>
            <line class="st1" x1="48.86" y1="62.78" x2="57.04" y2="60.88"/>
          </g>
        </g>
        <path class="st4" d="M41.5,10.76l-17.53,4.05c-1.24.25-2.32-.83-2.07-2.07l.17-.83c.17-.66.66-1.16,1.32-1.32l16.79-3.89c.66-.17,1.32.08,1.74.58l.5.66c.83,1.08.33,2.56-.91,2.81Z"/>
      </g>
    </g>
  </g>
</svg>