<?xml version="1.0" encoding="UTF-8"?>
<svg xmlns="http://www.w3.org/2000/svg" version="1.1" viewBox="0 0 24 24">
  <defs>
    <style>
      .cls-1 {
        fill: #fff4e4;
      }
    </style>
  </defs>
  <!-- Generator: Adobe Illustrator 28.7.1, SVG Export Plug-In . SVG Version: 1.2.0 Build 142)  -->
  <g>
    <g id="Content">
      <g id="Camada_4">
        <path class="cls-1" d="M24,12.89c-.04.38-.08.76-.13,1.13-.23,1.69-.81,3.26-1.73,4.7-1.13,1.78-2.62,3.19-4.49,4.18-.57.3-1.17.55-1.78.78-.52.2-.89-.08-.89-.65,0-1.03.01-2.06.01-3.09,0-.57-.06-1.14-.33-1.66-.12-.23-.28-.44-.43-.67.42-.07.85-.13,1.27-.23,1.19-.28,2.25-.78,3.03-1.77.56-.72.85-1.55,1-2.44.12-.73.16-1.47.06-2.21-.11-.87-.45-1.65-1.02-2.32-.12-.14-.13-.26-.08-.44.29-.96.18-1.91-.17-2.84-.03-.07-.18-.13-.26-.12-.38.06-.79.09-1.14.24-.6.26-1.16.6-1.75.89-.11.06-.27.09-.39.06-1.87-.46-3.74-.45-5.61,0-.11.03-.27,0-.36-.06-.69-.43-1.39-.84-2.19-1.04-.25-.06-.51-.08-.76-.1-.12-.01-.19.05-.23.18-.33.95-.42,1.91-.11,2.89.02.07,0,.19-.05.24-1.02,1.18-1.25,2.56-1.09,4.05.08.74.23,1.46.55,2.14.52,1.12,1.38,1.86,2.51,2.32.67.27,1.37.42,2.08.51.08.01.15.03.21.04-.16.28-.33.55-.47.82-.08.15-.14.32-.15.49-.03.25-.16.36-.38.43-.75.23-1.48.3-2.2-.11-.39-.22-.68-.54-.92-.92-.26-.43-.59-.81-1.03-1.06-.34-.19-.7-.33-1.09-.25-.11.02-.25.09-.29.18-.03.06.08.2.15.29.06.07.14.13.22.18.69.42,1.1,1.07,1.39,1.8.48,1.15,1.39,1.69,2.59,1.76.47.03.95-.04,1.44-.07,0,.02.02.08.02.14,0,.57.02,1.14.02,1.71,0,.63-.37.89-.97.68-2.65-.95-4.74-2.62-6.24-4.99-.96-1.52-1.54-3.18-1.73-4.96-.03-.27-.06-.54-.09-.81v-1.31c.01-.06.04-.12.04-.18.08-1.27.35-2.5.86-3.67C2.77,3.5,5.99,1,10.59.37,13.28,0,15.83.56,18.15,1.98c3.1,1.9,4.99,4.66,5.66,8.24.08.45.13.91.19,1.36v1.31Z"/>
      </g>
    </g>
  </g>
</svg>