<?xml version="1.0" encoding="UTF-8"?>
<svg id="Content" xmlns="http://www.w3.org/2000/svg" version="1.1" viewBox="0 0 95 95">
  <!-- Generator: Adobe Illustrator 29.0.0, SVG Export Plug-In . SVG Version: 2.1.0 Build 186)  -->
  <defs>
    <style>
      .st0 {
        fill: #fff;
      }

      .st1 {
        fill: #22272e;
      }

      .st2 {
        fill: #f4c2c9;
      }

      .st3 {
        fill: #b0d7c0;
      }

      .st4 {
        fill: #63737a;
      }

      .st5 {
        fill: none;
        stroke: #63737a;
        stroke-linecap: round;
        stroke-linejoin: round;
        stroke-width: 1.8px;
      }

      .st6 {
        fill: #ffe779;
      }

      .st7 {
        fill: #f96e46;
      }
    </style>
  </defs>
  <g id="Camada_4">
    <g>
      <circle class="st7" cx="48.5" cy="47.5" r="45.09"/>
      <g>
        <path class="st4" d="M68.21,76.8l-62.15-3.48c-1.59-.09-2.75-1.46-2.62-3.05L8.76,15.98c.17-1.8,1.63-3.18,3.39-3.35l65.16-4.98c1.76-.13,3.22,1.37,2.96,3.13l-8.16,62.79c-.26,1.89-1.93,3.31-3.91,3.22Z"/>
        <path class="st1" d="M66.49,76.8l-62.45-3.48c-1.59-.09-2.79-1.46-2.62-3.05L6.74,15.72c.17-1.8,1.63-3.22,3.43-3.35l65.46-5.02c1.76-.13,3.22,1.37,3,3.13l-8.2,63.09c-.3,1.89-2.02,3.31-3.95,3.22Z"/>
        <g>
          <polygon class="st0" points="65.33 49.88 64.43 56.97 55.59 56.79 56.4 49.84 65.33 49.88"/>
          <polygon class="st2" points="47.56 49.8 46.75 56.62 37.73 56.49 38.46 49.8 47.56 49.8"/>
          <polygon class="st3" points="55.59 56.79 54.73 63.7 45.93 63.4 46.75 56.62 55.59 56.79"/>
          <path class="st4" d="M20.09,19.11l-7.34.43c-.26,0-.47-.21-.47-.47l.13-1.24c.04-.34.34-.64.69-.69l7.38-.47c.26,0,.52.21.47.47l-.13,1.29c-.09.39-.34.64-.73.69Z"/>
          <g>
            <path class="st3" d="M24.73,33.92l-12.96.39c-.52,0-.94-.43-.9-.99l.69-6.78c.04-.6.56-1.03,1.12-1.07l13.05-.64c.56-.04.99.43.9.99l-.77,7.04c0,.56-.52,1.03-1.12,1.07Z"/>
            <path class="st6" d="M44.73,33.32l-14.21.43c-.51,0-.94-.43-.9-.99l.77-7.17c.04-.6.56-1.03,1.12-1.07l14.34-.69c.56-.04.99.43.9.99l-.86,7.43c-.09.6-.56,1.03-1.16,1.07Z"/>
            <path class="st2" d="M66.49,32.67l-15.67.47c-.56,0-.94-.43-.9-.99l.9-7.55c.09-.6.56-1.03,1.12-1.07l15.75-.77c.56-.04.99.43.9.99l-.99,7.85c-.04.6-.56,1.03-1.12,1.07Z"/>
          </g>
          <g>
            <path class="st5" d="M28.03,69.63l32.53,1.46c1.16.04,2.19-.82,2.36-1.97l3.61-28.41c.17-1.37-.9-2.58-2.27-2.53l-33.26.64c-1.16.04-2.1.9-2.23,2.02l-2.88,26.31c-.17,1.24.82,2.4,2.15,2.49Z"/>
            <line class="st5" x1="28.46" y1="43.15" x2="66.23" y2="42.76"/>
            <line class="st5" x1="39.23" y1="43.32" x2="36.19" y2="69.97"/>
            <line class="st5" x1="48.33" y1="43.23" x2="45.11" y2="70.4"/>
            <line class="st5" x1="57.22" y1="43.19" x2="53.87" y2="70.79"/>
            <line class="st5" x1="38.5" y1="49.8" x2="65.33" y2="49.88"/>
            <line class="st5" x1="37.73" y1="56.49" x2="64.43" y2="56.97"/>
            <line class="st5" x1="36.96" y1="63.15" x2="63.53" y2="63.96"/>
          </g>
          <path class="st4" d="M66.75,14.9c-.09.6-.56,1.12-1.03,1.16-.52.04-.86-.43-.77-1.03.09-.6.56-1.12,1.03-1.16.52,0,.86.43.77,1.03Z"/>
          <path class="st4" d="M62.54,15.2c-.09.6-.52,1.12-1.03,1.12-.52.04-.86-.43-.77-1.03.09-.6.52-1.12,1.03-1.12.52-.04.86.43.77,1.03Z"/>
          <path class="st4" d="M58.42,15.46c-.09.6-.52,1.07-1.03,1.12-.47.04-.82-.43-.77-.99.09-.6.52-1.07,1.03-1.12.52-.09.82.39.77.99Z"/>
        </g>
      </g>
    </g>
  </g>
</svg>