<?xml version="1.0" encoding="UTF-8"?>
<svg xmlns="http://www.w3.org/2000/svg" version="1.1" viewBox="0 0 24 24">
  <defs>
    <style>
      .cls-1 {
        fill: #fff4e4;
      }
    </style>
  </defs>
  <!-- Generator: Adobe Illustrator 28.7.1, SVG Export Plug-In . SVG Version: 1.2.0 Build 142)  -->
  <g>
    <g id="Content">
      <g id="Camada_4">
        <path class="cls-1" d="M11.25,0h1.5c.06.01.12.03.18.04,1.87.14,3.62.68,5.21,1.66,3.1,1.91,5.01,4.65,5.67,8.24.08.44.12.88.18,1.32v1.5c-.02.15-.04.31-.06.46-.26,2.37-1.12,4.5-2.63,6.35-1.88,2.3-4.29,3.72-7.22,4.25-.44.08-.89.12-1.34.19h-1.5c-.29-.04-.59-.07-.88-.11-2.21-.31-4.2-1.16-5.93-2.58-2.29-1.89-3.72-4.29-4.25-7.22-.08-.44-.13-.89-.19-1.34v-1.5c.02-.15.04-.31.06-.46.28-2.54,1.24-4.79,2.93-6.71C4.86,1.98,7.18.67,9.96.18c.43-.07.86-.12,1.29-.18ZM13.05,18.13c0-.76,0-1.49,0-2.22,0-.99,0-1.98.02-2.97.01-.54.3-.95.73-1.24.85-.57,1.91-.19,2.19.79.09.33.12.68.12,1.02.01,1.46,0,2.92,0,4.38v.24h2.91c0-.08,0-.14,0-.2,0-1.6,0-3.2,0-4.8,0-.32-.02-.64-.06-.96-.2-1.72-1.23-2.81-2.89-3-1.19-.14-2.21.23-2.92,1.25-.02.03-.06.06-.12.13,0-.36,0-.67,0-.98,0-.17-.05-.23-.22-.23-.84,0-1.67,0-2.51,0-.06,0-.12.01-.18.02v8.77h2.91ZM8.5,18.13c0-.06.01-.1.01-.14,0-2.82,0-5.64,0-8.46,0-.18-.08-.2-.23-.2-.83,0-1.66,0-2.48,0-.07,0-.14.01-.2.02v8.77h2.9ZM5.42,6.63c0,.89.68,1.52,1.63,1.52.96,0,1.65-.64,1.65-1.51,0-.89-.68-1.53-1.63-1.53-.97,0-1.66.62-1.66,1.52Z"/>
      </g>
    </g>
  </g>
</svg>