<?xml version="1.0" encoding="UTF-8"?>
<svg xmlns="http://www.w3.org/2000/svg" version="1.1" viewBox="0 0 78 78">
  <defs>
    <style>
      .cls-1 {
        fill: #00e8fc;
      }
    </style>
  </defs>
  <!-- Generator: Adobe Illustrator 28.7.1, SVG Export Plug-In . SVG Version: 1.2.0 Build 142)  -->
  <g>
    <g id="Content">
      <g id="Camada_4">
        <path class="cls-1" d="M45.57,2.36c1.5.9,1.71,1.45,1.27,3.21-1.96,7.76-3.91,15.53-5.86,23.29-.02.06-.02.13-.04.27.25.01.48.03.72.03,5.08,0,10.16,0,15.24,0,.93,0,1.72.2,2.21,1.06.49.86.25,1.64-.25,2.43-8.07,12.81-16.13,25.62-24.19,38.43-.53.84-1.19,1.39-2.22,1.27-1.25-.15-2-1.33-1.68-2.63.94-3.77,1.89-7.55,2.84-11.32,1.04-4.15,2.09-8.29,3.13-12.44.03-.11.04-.22.08-.39h-.77c-5.08,0-10.16,0-15.24,0-.91,0-1.67-.22-2.15-1.04-.5-.86-.27-1.64.23-2.43,8.07-12.81,16.13-25.62,24.21-38.42.33-.53.92-.89,1.39-1.33.36,0,.73,0,1.09,0Z"/>
      </g>
    </g>
  </g>
</svg>