<?xml version="1.0" encoding="UTF-8"?>
<svg id="Content" xmlns="http://www.w3.org/2000/svg" version="1.1" xmlns:xlink="http://www.w3.org/1999/xlink" viewBox="0 0 95 95">
  <!-- Generator: Adobe Illustrator 29.0.0, SVG Export Plug-In . SVG Version: 2.1.0 Build 186)  -->
  <defs>
    <style>
      .st0 {
        fill: #fff4e4;
      }

      .st1 {
        fill: #fff;
      }

      .st2 {
        mask: url(#mask);
      }

      .st3 {
        stroke: #e26e85;
        stroke-width: 5.43px;
      }

      .st3, .st4 {
        fill: none;
        stroke-linecap: round;
        stroke-linejoin: round;
      }

      .st5 {
        fill: #22272e;
      }

      .st6 {
        fill: #f4c2c9;
      }

      .st7 {
        fill: #63737a;
      }

      .st4 {
        stroke: #63737a;
        stroke-width: 1.8px;
      }

      .st8 {
        fill: #ffe779;
      }

      .st9 {
        fill: #f96e46;
      }

      .st10 {
        fill: #6dafa7;
      }
    </style>
    <mask id="mask" x="-17.35" y="-15.84" width="119.42" height="108.52" maskUnits="userSpaceOnUse">
      <path class="st0" d="M94.63,47.59c0,24.9-20.19,45.09-45.09,45.09S-17.35,77.45-17.35,52.55-11.54-15.84,13.37-15.84,94.63,22.69,94.63,47.59Z"/>
    </mask>
  </defs>
  <g id="Camada_4">
    <g>
      <circle class="st9" cx="49.54" cy="47.59" r="45.09"/>
      <g class="st2">
        <g>
          <path class="st5" d="M62.04,40.43s-1.64-.41-8.26,6.12c-6.63,6.53-9.98,14.39-9.98,14.39,0,0,8.01,2.77,15.06-3.72,7.09-6.42,3.19-16.79,3.19-16.79Z"/>
          <path class="st6" d="M39.85,55.16s-1.31-1.2-6.95-2.5c-5.64-1.3-10.49-5.26-16.78-9.65s4.56-14.83,11.85-17.09c7.24-2.34,15.57,1.64,15.57,1.64l5.89,13.86s7.59,1.23,5.3,4.88c-2.33,3.58-9.82,7.84-14.87,8.87Z"/>
          <path class="st1" d="M61.19,43.33s-4.8-2.4-6.69-3.56c0,0-1.26,5.22-6.26,9.99-5,4.77-8.39,5.4-8.39,5.4,0,0,3.02,4.06,5.82,5.26,0,0,4.59.04,10.18-5.57,5.59-5.61,5.34-11.52,5.34-11.52Z"/>
          <path class="st10" d="M97.55,83.98c7.92-8.69,5.06-22.48-5.66-27.3-6.25-2.82-12.56-5.91-17.16-8.63l-12.76-7.58s-2.5,10.13-8.89,15.23c-6.39,5.1-9.36,5.28-9.36,5.28,0,0,14.76,14.92,31.52,25.88,7.18,4.55,16.62,3.39,22.31-2.88h0Z"/>
          <g>
            <path class="st5" d="M12.81,53.63l-10.46-14.69c-1.18-1.64-.58-4.32,1.29-6.04L34.25,4.79c1.87-1.72,4.79-2.25,6.57-1.14l15.85,9.76c2.41,1.48,2.57,4.39.29,6.49L19.85,54.01c-2.31,2.02-5.48,1.83-7.05-.39Z"/>
            <path class="st5" d="M11.99,52.87L1.54,38.18c-1.18-1.64-.58-4.32,1.29-6.04L33.43,4.04c1.87-1.72,4.79-2.25,6.57-1.14l15.85,9.76c2.41,1.48,2.57,4.39.29,6.49L19.04,53.26c-2.31,2.02-5.48,1.83-7.05-.39Z"/>
            <g>
              <path class="st7" d="M43.98,10.6l-2.87-1.91c-.26-.19-.24-.55.03-.84h0c.3-.26.74-.34,1.06-.15l2.9,1.88c.31.18.27.58,0,.87h0c-.33.24-.8.34-1.12.15Z"/>
              <path class="st7" d="M46.91,12.51l-.4-.27c-.31-.18-.3-.61,0-.87h0c.33-.29.8-.34,1.12-.15l.4.27c.32.18.3.61,0,.87h0c-.27.29-.8.34-1.12.15Z"/>
            </g>
            <line class="st4" x1="32.42" y1="8.5" x2="39.27" y2="13.41"/>
            <path class="st7" d="M9.42,39.13l-3.62-4.66c-.38-.52-.22-1.34.38-1.86h0c.6-.53,1.38-.61,1.76-.09l3.72,4.54c.44.52.28,1.45-.35,2h0c-.62.61-1.49.62-1.9.07Z"/>
            <g>
              <path class="st8" d="M35.49,31.14l-13.24-11.93c-.44-.4-.32-1.11.19-1.6l6.34-5.84c.51-.5,1.35-.64,1.81-.26l14.41,10.85c.6.45.61,1.32-.02,1.88l-7.35,6.74c-.62.61-1.6.67-2.15.16Z"/>
              <path class="st5" d="M34.32,21.4l-.53-2.11c-.07-.28-.49-.35-.73-.09l-1.9,1.75c-.27.23-.17.59.16.64l2.42.36c.31.07.64-.22.57-.55Z"/>
            </g>
            <g>
              <path class="st7" d="M23.4,42.23l-11.72-13.27c-.38-.41-.27-1.17.3-1.66l6.34-5.84c.51-.5,1.3-.58,1.73-.18l12.91,12.22c.55.51.47,1.41-.12,1.99l-7.35,6.74c-.68.56-1.6.56-2.1,0Z"/>
              <path class="st5" d="M22.88,31.91l-.36-2.23c-.04-.31-.46-.38-.7-.11l-1.9,1.75c-.27.23-.2.62.11.7l2.26.48c.34.04.66-.25.6-.58Z"/>
            </g>
          </g>
          <path class="st5" d="M48.2,56.33c.51-.31.66-.89.35-1.4s-.89-.66-1.4-.35-.66.89-.35,1.4.89.66,1.4.35Z"/>
          <path class="st6" d="M54.5,39.77s-2.04-1.26-3.19-5.35c-1.14-4.08-.61-5.19-1.85-9.42-1.23-4.23-5.27-8.67-7.33-8.63-2.06.04-1.62,2.95-.1,6.32,1.51,3.37-3.62,8.41-2.88,14.82,1.29,10.65,17.17,11.3,15.35,2.26Z"/>
          <path class="st3" d="M42.13,16.37c-2.06.04-1.62,2.95-.1,6.32,1.51,3.37-3.62,8.41-2.88,14.82.24,2.24,1.17,3.97,2.38,5.33"/>
        </g>
      </g>
    </g>
  </g>
</svg>