<?xml version="1.0" encoding="UTF-8"?>
<svg xmlns="http://www.w3.org/2000/svg" version="1.1" viewBox="0 0 78 78">
  <defs>
    <style>
      .cls-1 {
        fill: #00e8fc;
      }
    </style>
  </defs>
  <!-- Generator: Adobe Illustrator 28.7.1, SVG Export Plug-In . SVG Version: 1.2.0 Build 142)  -->
  <g>
    <g id="Content">
      <g id="Camada_4">
        <path class="cls-1" d="M58.71,13.01c.52.14,1.04.25,1.54.42,3.35,1.1,5.69,4.19,5.7,7.73.04,8.42.05,16.85,0,25.27-.03,4.64-3.75,8.16-8.49,8.16-9.81,0-19.62,0-29.44,0-.51,0-.89.13-1.28.45-3.56,2.99-7.13,5.97-10.71,8.94-.41.34-.86.68-1.34.87-1.01.41-2.27-.16-2.68-1.55,0-14.34,0-28.68,0-43.01.04-.09.1-.19.12-.28.61-3.24,2.48-5.41,5.55-6.55.52-.19,1.06-.3,1.59-.44,13.14,0,26.29,0,39.43,0ZM16.16,58.46c.28-.23.43-.35.58-.47,2.67-2.23,5.35-4.45,8.01-6.7.7-.59,1.45-.86,2.36-.86,10.01.02,20.01.01,30.02,0,3.01,0,4.68-1.68,4.68-4.71,0-7.95,0-15.89,0-23.84,0-3.04-1.66-4.71-4.68-4.71-12.1,0-24.21,0-36.31,0-2.99,0-4.67,1.68-4.67,4.66,0,11.93,0,23.86,0,35.79v.84Z"/>
      </g>
    </g>
  </g>
</svg>