<?xml version="1.0" encoding="UTF-8"?>
<svg id="Content" xmlns="http://www.w3.org/2000/svg" version="1.1" viewBox="0 0 95 95">
  <!-- Generator: Adobe Illustrator 29.0.0, SVG Export Plug-In . SVG Version: 2.1.0 Build 186)  -->
  <defs>
    <style>
      .st0 {
        fill: #22272e;
      }

      .st1 {
        fill: none;
        stroke: #63737a;
        stroke-linecap: round;
        stroke-linejoin: round;
        stroke-width: 1.8px;
      }

      .st2 {
        fill: #ffe779;
      }

      .st3 {
        fill: #f96e46;
      }

      .st4 {
        fill: #6dafa7;
      }
    </style>
  </defs>
  <g id="Camada_4">
    <g>
      <circle class="st3" cx="47.5" cy="47.5" r="45.09"/>
      <g>
        <g>
          <path class="st0" d="M32.82,57.74l-4.32,4.61c-.72.72-.72,1.87,0,2.59h0c.58.72,1.58.86,2.45.29l5.04-3.03-3.17-4.47Z"/>
          <path class="st0" d="M71.29,68.98l1.15,6.2c.14,1.01-.43,1.87-1.44,2.16h0c-.86.29-1.73-.14-2.16-1.01l-2.59-5.33,5.04-2.02Z"/>
        </g>
        <circle class="st4" cx="57.17" cy="45.64" r="28.67"/>
        <circle class="st2" cx="57.17" cy="45.64" r="18.44"/>
        <polyline class="st1" points="62.36 52.26 57.17 45.64 59.91 36.42"/>
        <g>
          <path class="st4" d="M38.87,17.97c-.86.29-1.73-.14-1.87-1.01-.58-3.75,1.44-7.64,5.19-9.08,3.75-1.44,7.92,0,9.94,3.31.43.72.14,1.73-.72,2.02l-12.54,4.75Z"/>
          <path class="st4" d="M87.43,32.09c.58.72,1.58.86,2.16.14,2.59-2.88,2.88-7.2.43-10.52-2.45-3.17-6.63-4.18-10.23-2.45-.86.43-1.01,1.44-.43,2.16l8.07,10.66Z"/>
        </g>
        <g>
          <path class="st4" d="M70.14,14.8l-7.49-2.16c-1.3-.29-1.87-1.58-1.58-2.88h0c.29-1.3,1.58-1.87,2.88-1.58l7.49,2.16c1.3.29,1.87,1.58,1.58,2.88h0c-.29,1.3-1.58,2.02-2.88,1.58Z"/>
          <rect class="st4" x="62.07" y="13.22" width="7.35" height="5.62" transform="translate(32 74.69) rotate(-73.8)"/>
        </g>
      </g>
    </g>
  </g>
</svg>