<?xml version="1.0" encoding="UTF-8"?>
<svg xmlns="http://www.w3.org/2000/svg" version="1.1" viewBox="0 0 78 78">
  <defs>
    <style>
      .cls-1 {
        fill: #00e8fc;
      }
    </style>
  </defs>
  <!-- Generator: Adobe Illustrator 28.7.1, SVG Export Plug-In . SVG Version: 1.2.0 Build 142)  -->
  <g>
    <g id="Content">
      <g id="Camada_4">
        <g>
          <path class="cls-1" d="M45.05,15.05c1.99.02,3.37,1.86,2.81,3.84-1.64,5.83-3.31,11.66-4.98,17.48-2.28,7.98-4.57,15.95-6.83,23.93-.37,1.31-1.03,2.3-2.44,2.58-2.17.43-4.04-1.49-3.46-3.64,1.09-4,2.25-7.98,3.39-11.97,2.84-9.95,5.69-19.9,8.53-29.85.44-1.54,1.52-2.39,2.97-2.38Z"/>
          <path class="cls-1" d="M64.74,39.1c-3.34-3.33-6.56-6.56-9.79-9.76-.7-.7-1.11-1.51-1.02-2.5.11-1.22.75-2.1,1.9-2.55,1.15-.45,2.21-.21,3.12.61.65.6,1.26,1.25,1.89,1.87,3.3,3.3,6.61,6.6,9.91,9.91,1.55,1.55,1.54,3.22-.01,4.77-3.85,3.85-7.7,7.69-11.54,11.54-.77.78-1.68,1.2-2.78,1-1.18-.21-2-.91-2.35-2.05-.36-1.17-.06-2.21.81-3.08,3.07-3.07,6.14-6.14,9.22-9.21.18-.18.39-.33.65-.55Z"/>
          <path class="cls-1" d="M13.17,39.09c.35.26.58.39.76.57,3.08,3.07,6.15,6.14,9.22,9.21.87.87,1.17,1.91.8,3.08-.35,1.11-1.14,1.8-2.29,2.03-1.01.21-1.91-.08-2.64-.8-4.02-4-8.04-8.01-12.03-12.04-1.19-1.2-1.19-2.97-.01-4.16,3.99-4.03,8.01-8.04,12.03-12.04,1.21-1.2,3.04-1.16,4.21.02,1.16,1.17,1.18,3-.03,4.22-3.04,3.07-6.1,6.12-9.16,9.17-.21.21-.46.39-.87.74Z"/>
        </g>
      </g>
    </g>
  </g>
</svg>