<?xml version="1.0" encoding="UTF-8"?>
<svg xmlns="http://www.w3.org/2000/svg" version="1.1" viewBox="0 0 48 48">
  <defs>
    <style>
      .cls-1 {
        fill: #fff4e4;
      }

      .cls-2 {
        fill: #0091ad;
      }

      .cls-3 {
        fill: #22272e;
      }
    </style>
  </defs>
  <!-- Generator: Adobe Illustrator 28.7.1, SVG Export Plug-In . SVG Version: 1.2.0 Build 142)  -->
  <g>
    <g id="Content">
      <g id="Camada_4">
        <g>
          <circle class="cls-1" cx="25.44" cy="24.35" r="22.5"/>
          <g>
            <path class="cls-3" d="M29.65,22.3c-2.58-2.93-7.06-3.1-9.82-.52-2.93,2.58-3.1,7.06-.52,9.82,2.58,2.93,7.06,3.1,9.82.52,2.93-2.58,3.1-7.06.52-9.82Z"/>
            <path class="cls-2" d="M20.35,6.11l-1.21-1.38C15.01.25,8.12-.09,3.64,4.04h0C-.83,8.17-1.18,15.06,2.96,19.54l1.21,1.38c1.38,1.55,2.41,3.44,2.93,5.51.34,1.55.86,3.44,1.38,5.17,1.03,3.79,5.51,5.17,8.44,2.58l7.75-7.06,7.75-7.06c2.93-2.58,1.89-7.41-1.72-8.61-1.72-.69-3.44-1.21-4.99-1.72-2.07-1.03-3.79-2.07-5.34-3.62Z"/>
          </g>
        </g>
      </g>
    </g>
  </g>
</svg>