<?xml version="1.0" encoding="UTF-8"?>
<svg id="Content" xmlns="http://www.w3.org/2000/svg" version="1.1" xmlns:xlink="http://www.w3.org/1999/xlink" viewBox="0 0 95 95">
  <!-- Generator: Adobe Illustrator 29.0.0, SVG Export Plug-In . SVG Version: 2.1.0 Build 186)  -->
  <defs>
    <style>
      .st0 {
        stroke: #e26e85;
      }

      .st0, .st1 {
        stroke-linecap: round;
        stroke-linejoin: round;
        stroke-width: 1.8px;
      }

      .st0, .st1, .st2 {
        fill: none;
      }

      .st1 {
        stroke: #b8d8c7;
      }

      .st3 {
        fill: #fff;
      }

      .st4 {
        fill: #f4c2c9;
      }

      .st5 {
        fill: #b8d8c7;
      }

      .st6 {
        fill: #ffe779;
      }

      .st7 {
        fill: #f96e46;
      }

      .st8 {
        fill: #6dafa7;
      }

      .st9 {
        clip-path: url(#clippath);
      }
    </style>
    <clipPath id="clippath">
      <path class="st2" d="M130.05,32.35c0,24.18-49,93-84,78-12.26-5.26-3.44-11.75-4.05-11.35C-7.5,131.28,1.41,70.53,1.41,45.62S21.6.53,46.5.53s83.55,6.92,83.55,31.82Z"/>
    </clipPath>
  </defs>
  <g id="Camada_4">
    <g>
      <circle class="st7" cx="46.04" cy="45.71" r="45.09"/>
      <g class="st9">
        <g>
          <path class="st5" d="M93.97,21.01s-1.58.43-4.08.14l1.29-2.01c-2.79.07-9.53-3.58-10.24-6.95-.07-.43-.07-.86.07-1.15h0v-.07c1.07-2.15,6.73-1.65,10.89,2.44,4.94,4.8,2.08,7.59,2.08,7.59Z"/>
          <path class="st8" d="M91.24,19.15l-1.29,2.01c-1.58-.21-3.58-.72-5.73-1.93-2.72-1.5-4.01-3.44-4.66-4.94.79-1.79,1.36-3.01,1.5-3.3-.14.36-.14.72-.07,1.15.72,3.44,7.45,7.09,10.24,7.02Z"/>
          <path class="st4" d="M51.42,40.85s3.3,1.5,6.38,1.07c3.08-.43,9.1-2.15,10.31-1.5,1.22.64,3.3.72,2.65,2.79-.57,2.08-1.86,4.51-4.58,4.66-2.72.21-5.44,2.29-9.96,1-4.51-1.29-7.16-1.93-7.31-3.72-.07-1.86,2.51-4.3,2.51-4.3Z"/>
          <path class="st3" d="M93.97,21.01c-1.15,3.37-16.12,23.07-23.21,33.38-7.09,10.31-19.13,39.54-25.14,38.32-6.02-1.22-13.47-7.09-12.18-10.46,1.36-3.37,16.55-12.97,28.15-29.51,11.6-16.55,11.32-28.01,14.83-37.39,1.5-4.01,2.58-3.72,2.58-3.72,0,0-.07,1.15.5,2.72.57,1.5,1.86,3.44,4.66,4.94,2.15,1.22,4.15,1.72,5.73,1.93,2.51.29,4.08-.21,4.08-.21Z"/>
          <path class="st1" d="M68.18,50.67s2.87-5.3,3.58-8.52"/>
          <path class="st1" d="M70.9,51.38s1.93-3.65,2.94-4.58"/>
          <path class="st1" d="M60.37,65.28s-1.36,3.58-2.87,6.09"/>
          <path class="st1" d="M56.36,64.28s-2.65,4.15-7.45,8.02"/>
          <path class="st4" d="M62.45,45.29s4.44,2.87,6.95,3.87c2.58,1,5.87-.07,6.16-.07s1.65,2.15.43,3.65c-1.22,1.5-2.58,1.72-2.72,2.22s.21,3.37-.57,4.37c-.72,1-2.29,1.58-2.79,2.22-.43.64-1,3.87-1.79,4.37-.79.5-1.79,2.15-3.8,2.44-2.01.29-9.89-2.87-17.19-8.52-4.66-3.58-7.66-4.87-7.66-4.87,0,0,3.22-14.11,9.1-12.82,5.95,1.29,13.9,3.15,13.9,3.15Z"/>
          <path class="st0" d="M62.45,45.29s4.44,2.87,6.95,3.87c2.58,1,5.87-.07,6.16-.07"/>
          <path class="st8" d="M44.75,36.13s.79-.64,1.72.07c.93.72,4.44,3.51,4.87,4.66.5,1.15-1.93,8.24-5.73,12.61-3.72,4.37-5.8,4.37-6.02,4.3-.21-.07-5.52-2.51-6.23-3.44-.72-.93-.43-1.93-.43-1.93,0,0,10.1-16.33,11.82-16.26Z"/>
          <path class="st6" d="M-1.59,11.34c-4.87,5.95-4.3,14.76,1.36,19.99,1.65,1.5,3.51,3.22,5.59,5.09,11.17,10.03,28.51,16.26,28.51,16.26,9.46-4.37,10.89-16.55,10.89-16.55-8.52-5.37-16.98-15.4-23.21-24.14C15.96,4.25,4.5,3.96-1.59,11.34h0Z"/>
          <path class="st0" d="M73.34,55.04s-1.93.93-3.15,1.07c-1.22.14-2.94,0-2.94,0"/>
          <path class="st0" d="M70.33,61.34s-.86.72-2.08.93c-1.22.14-2.22-.43-2.22-.43"/>
          <path class="st0" d="M67.53,66.57s-1.72.57-2.65-.29"/>
        </g>
      </g>
    </g>
  </g>
</svg>