<?xml version="1.0" encoding="UTF-8"?>
<svg id="Content" xmlns="http://www.w3.org/2000/svg" version="1.1" viewBox="0 0 95 95">
  <!-- Generator: Adobe Illustrator 29.0.0, SVG Export Plug-In . SVG Version: 2.1.0 Build 186)  -->
  <defs>
    <style>
      .st0 {
        fill: #f8ab5d;
      }

      .st1 {
        fill: #22272e;
      }

      .st2 {
        stroke: #22272e;
      }

      .st2, .st3 {
        fill: none;
        stroke-linecap: round;
        stroke-linejoin: round;
        stroke-width: 1.8px;
      }

      .st3 {
        stroke: #63737a;
      }

      .st4 {
        fill: #ffe779;
      }

      .st5 {
        fill: #f96e46;
      }

      .st6 {
        fill: #6dafa7;
      }
    </style>
  </defs>
  <g id="Camada_4">
    <g>
      <circle class="st5" cx="47.5" cy="47.5" r="45.09"/>
      <g>
        <path class="st0" d="M80.08,70.85l-63.96,5.07c-1.99.14-3.77-1.65-3.91-3.98l-3.77-59.23c-.14-2.33,1.58-4.46,3.56-4.25l61.63,6.17c1.99.21,3.56,1.78,3.77,3.91l5,49.42c.27,1.44-.82,2.74-2.33,2.88Z"/>
        <path class="st4" d="M83.17,70.31l-64.71,5.14c-2.06.14-3.84-1.65-3.98-3.98l-3.7-59.57c-.14-2.4,1.65-4.52,3.63-4.32l62.38,6.1c2.06.21,3.56,1.78,3.84,3.91l5.07,49.7c.07,1.51-1.03,2.88-2.54,3.02Z"/>
        <path class="st1" d="M40.46,63.38l-14.81.69c-1.03.07-1.99-.89-2.06-2.06l-2.74-40.24c-.07-1.1.75-2.12,1.71-2.06l14.6,1.03c.96.07,1.71.89,1.78,1.99l3.08,38.66c.07,1.03-.69,1.92-1.58,1.99Z"/>
        <path class="st6" d="M41.76,62.76l-14.88.75c-1.03.07-1.99-.89-2.06-2.06l-2.74-40.38c-.07-1.1.75-2.12,1.71-2.06l14.67,1.03c.96.07,1.71.89,1.78,1.99l3.08,38.8c.07.96-.69,1.85-1.58,1.92Z"/>
        <g>
          <line class="st2" x1="29.63" y1="22.11" x2="31.89" y2="22.25"/>
          <line class="st2" x1="33.12" y1="22.32" x2="33.33" y2="22.32"/>
        </g>
        <line class="st2" x1="22.29" y1="24.24" x2="40.53" y2="25.27"/>
        <line class="st2" x1="24.62" y1="58.31" x2="43.06" y2="57.69"/>
        <path class="st6" d="M71.58,22.8l-14.4-1.1c-.89-.07-1.58.69-1.51,1.51l.48,5.62c.07.69.62,1.3,1.37,1.3l14.4.55c.89.07,1.58-.69,1.51-1.58l-.48-5.07c-.14-.62-.69-1.17-1.37-1.23Z"/>
        <g>
          <g>
            <path class="st6" d="M60.61,37.2c.07.96-.69,1.71-1.71,1.71s-1.99-.82-2.06-1.78c-.07-.96.69-1.71,1.78-1.71,1.03.07,1.92.82,1.99,1.78Z"/>
            <line class="st3" x1="63.77" y1="37.26" x2="73.57" y2="37.4"/>
          </g>
          <g>
            <path class="st6" d="M61.16,43.23c.07.96-.69,1.71-1.71,1.78-1.03,0-1.99-.75-2.06-1.71s.69-1.78,1.78-1.78c.96,0,1.92.75,1.99,1.71Z"/>
            <line class="st3" x1="64.31" y1="43.16" x2="74.05" y2="43.02"/>
          </g>
          <g>
            <path class="st6" d="M61.71,49.19c.07.96-.69,1.71-1.71,1.78-1.03.07-1.99-.69-2.06-1.65-.07-.96.69-1.78,1.78-1.78.96-.07,1.85.69,1.99,1.65Z"/>
            <line class="st3" x1="64.79" y1="49.05" x2="74.53" y2="48.64"/>
          </g>
        </g>
      </g>
    </g>
  </g>
</svg>