<?xml version="1.0" encoding="UTF-8"?>
<svg id="Content" xmlns="http://www.w3.org/2000/svg" version="1.1" viewBox="0 0 95 95">
  <!-- Generator: Adobe Illustrator 29.0.0, SVG Export Plug-In . SVG Version: 2.1.0 Build 186)  -->
  <defs>
    <style>
      .st0 {
        fill: #f8ab5d;
      }

      .st1 {
        fill: #22272e;
      }

      .st2 {
        fill: none;
        stroke: #22272e;
        stroke-linecap: round;
        stroke-linejoin: round;
        stroke-width: 6.51px;
      }

      .st3 {
        fill: #f4c2c9;
      }

      .st4 {
        fill: #ffe779;
      }

      .st5 {
        fill: #f96e46;
      }

      .st6 {
        fill: #6dafa7;
      }
    </style>
  </defs>
  <g id="Camada_4">
    <g>
      <circle class="st5" cx="45.02" cy="48.53" r="45.09"/>
      <g>
        <g>
          <path class="st0" d="M78.78,67.78c-18.02,17.47-40.4,20.9-48.51,8.89-7.18-10.61-.39-29.48,14.27-43.13,14.43-13.41,33.46-18.95,43.75-11.85,11.62,7.96,8.19,28.93-9.51,46.09Z"/>
          <path class="st4" d="M76.21,65.13c-18.02,17.47-40.4,20.9-48.51,8.89-7.18-10.61-.39-29.48,14.27-43.13,14.43-13.41,33.46-18.95,43.75-11.85,11.7,8.03,8.19,29.01-9.51,46.09Z"/>
          <path class="st6" d="M68.64,57.56c-10.84,10.37-24.41,12.95-29.87,6.01-4.99-6.4-1.01-18.48,8.5-27.37,9.44-8.81,21.68-12.17,28-7.18,6.79,5.3,4.06,18.25-6.63,28.54Z"/>
          <path class="st3" d="M61.7,50.62c-4.29,4.06-9.75,5.23-12.09,2.65-2.26-2.5-.78-7.57,3.28-11.39,4.06-3.82,9.28-5.07,11.78-2.81,2.57,2.26,1.33,7.49-2.96,11.54Z"/>
        </g>
        <g>
          <g>
            <path class="st1" d="M34.02,24.42h0c-1.64,1.56-4.29,1.4-5.77-.23L14.36,6.48c-.7-.94-.62-2.26.23-3.04h0c.86-.78,2.18-.78,3.04,0l16.53,15.21c1.64,1.64,1.56,4.21-.16,5.77Z"/>
            <g>
              <path class="st6" d="M17.56,9.83l-4.45.62c-1.25.16-1.72,1.72-.78,2.5h0c2.73,2.42,6.08,3.98,9.67,4.6l2.26.39c.23.08.47-.23.31-.47l-5.62-7.1c-.39-.39-.86-.62-1.4-.55Z"/>
              <path class="st6" d="M20.84,6.87l1.01-4.37c.23-1.17,1.79-1.56,2.57-.55h0c2.18,2.89,3.51,6.32,3.82,9.98l.16,2.26c0,.23-.31.39-.47.23l-6.63-6.08c-.47-.47-.62-1.01-.47-1.48Z"/>
            </g>
          </g>
          <line class="st2" x1="33.39" y1="23.72" x2="37.84" y2="28.47"/>
        </g>
      </g>
    </g>
  </g>
</svg>