<?xml version="1.0" encoding="UTF-8"?>
<svg xmlns="http://www.w3.org/2000/svg" version="1.1" viewBox="0 0 78 78">
  <defs>
    <style>
      .cls-1 {
        fill: #00e8fc;
        stroke: #00e8fc;
        stroke-miterlimit: 10;
      }
    </style>
  </defs>
  <!-- Generator: Adobe Illustrator 28.7.1, SVG Export Plug-In . SVG Version: 1.2.0 Build 142)  -->
  <g>
    <g id="Content">
      <g id="Camada_4">
        <g>
          <path class="cls-1" d="M52.42,67.63c-2.68-.73-5.36-1.46-8.04-2.18-10.84-2.9-21.69-5.8-32.53-8.71-2.15-.58-3.51-1.95-3.99-4.15-.02-.08-.07-.14-.1-.21,0-.53,0-1.06,0-1.59.53-1.91,1.06-3.82,1.58-5.73,1.2-4.45,2.38-8.9,3.58-13.35.03-.12.06-.24.1-.35.24-.7.91-1.09,1.58-.91.7.19,1.11.88.91,1.62-.6,2.28-1.21,4.55-1.82,6.82-1.06,3.94-2.11,7.88-3.17,11.82-.47,1.74.29,3.05,2.05,3.52,13.19,3.54,26.38,7.07,39.58,10.6,1.94.52,3.15-.19,3.67-2.12.63-2.33,1.25-4.67,1.88-7,.19-.68.63-1.08,1.22-1.1.56-.02,1.04.21,1.22.74.12.36.12.81.03,1.18-.45,1.81-.96,3.61-1.44,5.41-.16.59-.3,1.18-.48,1.76-.59,2.02-1.91,3.3-3.97,3.8-.09.02-.18.08-.27.12h-1.59Z"/>
          <path class="cls-1" d="M44.22,10.37c6.85,0,13.71,0,20.56,0,2.63,0,4.64,1.48,5.27,3.86.13.49.18,1,.18,1.51.01,10.29.01,20.58,0,30.87,0,3.17-2.25,5.4-5.43,5.4-13.75,0-27.49,0-41.24,0-3.11,0-5.39-2.21-5.4-5.31-.02-10.33-.02-20.66,0-30.99,0-3.14,2.26-5.33,5.43-5.33,6.87-.01,13.75,0,20.62,0ZM40.2,38.38c.24-.29.43-.5.61-.72,3.12-3.75,6.25-7.49,9.37-11.25.62-.74,1.35-1.3,2.3-1.5,1.69-.37,3.01.26,4.1,1.54,3.5,4.1,7.01,8.19,10.51,12.28.15.17.31.34.53.58.02-.22.04-.29.04-.37,0-7.75,0-15.49,0-23.24,0-1.69-1.12-2.74-2.83-2.74-13.72,0-27.45,0-41.17,0-1.79,0-2.84,1.04-2.84,2.84,0,9.5,0,18.99,0,28.49,0,.17.03.33.04.5l.15.08c.15-.19.29-.39.46-.56,3.13-3.14,6.26-6.28,9.4-9.4,1.76-1.76,4.14-1.75,5.9,0,1.14,1.13,2.26,2.28,3.45,3.48ZM21.12,48.1c.7.99,1.49,1.32,2.44,1.32,1.59,0,3.17,0,4.76,0,12.12,0,24.24,0,36.36,0,1.9,0,2.95-1.05,2.96-2.94,0-.83.04-1.67-.02-2.5-.02-.35-.16-.76-.38-1.03-4.22-4.95-8.45-9.89-12.69-14.83-.84-.98-1.63-.95-2.47.06-3.51,4.22-7.02,8.44-10.54,12.65-.83.99-1.53,1.02-2.44.11-1.37-1.37-2.73-2.73-4.1-4.1-.89-.89-1.54-.89-2.43,0-3.62,3.62-7.25,7.25-10.88,10.87-.16.16-.37.25-.58.39Z"/>
          <path class="cls-1" d="M31.19,18.18c2.87,0,5.2,2.32,5.21,5.18.01,2.87-2.37,5.23-5.25,5.21-2.85-.01-5.19-2.38-5.18-5.22.02-2.86,2.35-5.18,5.22-5.17ZM33.78,23.39c0-1.44-1.15-2.61-2.58-2.61-1.43,0-2.6,1.15-2.6,2.59,0,1.44,1.15,2.61,2.58,2.62,1.43,0,2.6-1.16,2.6-2.6Z"/>
        </g>
      </g>
    </g>
  </g>
</svg>