<?xml version="1.0" encoding="UTF-8"?>
<svg xmlns="http://www.w3.org/2000/svg" version="1.1" viewBox="0 0 19 19">
  <defs>
    <style>
      .cls-1 {
        fill: #f96e46;
      }
    </style>
  </defs>
  <!-- Generator: Adobe Illustrator 28.7.1, SVG Export Plug-In . SVG Version: 1.2.0 Build 142)  -->
  <g>
    <g id="Content">
      <g id="Camada_4">
        <g>
          <path class="cls-1" d="M9.69,0s.06.03.09.03c.56.15.91.59.91,1.18,0,1.52,0,3.04,0,4.56,0,1.44,0,2.88,0,4.32v.23c.07-.07.12-.11.17-.16.67-.67,1.33-1.34,2.01-2,.68-.66,1.77-.35,1.99.56.11.45-.03.84-.36,1.17-1.06,1.05-2.11,2.11-3.16,3.16-.32.32-.64.64-.96.96-.53.52-1.23.52-1.76,0-1.38-1.37-2.75-2.75-4.13-4.13-.33-.33-.46-.73-.33-1.19.12-.44.42-.73.86-.83.44-.11.83.02,1.15.34.65.66,1.31,1.31,1.97,1.97.05.05.08.11.12.16.02,0,.04-.02.06-.03v-.21c0-2.86.01-5.72,0-8.59C8.3.75,8.54.23,9.28,0,9.41,0,9.55,0,9.69,0Z"/>
          <path class="cls-1" d="M0,17.58c.02-.06.05-.11.07-.17.17-.47.6-.79,1.1-.8.41,0,.82,0,1.22,0,5.11,0,10.22,0,15.33,0,.64,0,1.12.36,1.24.95.15.7-.37,1.39-1.09,1.42-.08,0-.16,0-.24,0-5.38,0-10.75,0-16.13,0-.75,0-1.27-.23-1.5-.97,0-.15,0-.3,0-.45Z"/>
        </g>
      </g>
    </g>
  </g>
</svg>