<?xml version="1.0" encoding="UTF-8"?>
<svg xmlns="http://www.w3.org/2000/svg" version="1.1" viewBox="0 0 24 24">
  <defs>
    <style>
      .cls-1 {
        fill: #f96e46;
      }
    </style>
  </defs>
  <!-- Generator: Adobe Illustrator 28.7.1, SVG Export Plug-In . SVG Version: 1.2.0 Build 142)  -->
  <g>
    <g id="Content">
      <g id="Camada_4">
        <path class="cls-1" d="M23.82,9.93c-.67-3.59-2.58-6.33-5.67-8.24C16.55.71,14.8.18,12.93.04c-.06,0-.12-.03-.18-.04h-1.5c-.43.06-.87.11-1.29.18-2.78.48-5.1,1.79-6.96,3.9C1.3,6,.33,8.25.06,10.79c-.02.15-.04.31-.06.46v1.5c.06.45.11.9.19,1.34.53,2.93,1.96,5.33,4.25,7.22,1.73,1.42,3.72,2.26,5.93,2.58.29.04.59.07.88.11h1.5c.45-.06.9-.11,1.34-.19,2.93-.53,5.34-1.96,7.22-4.25,1.51-1.85,2.37-3.98,2.63-6.35.02-.15.04-.31.06-.46v-1.5c-.06-.44-.1-.88-.18-1.32ZM8.52,18s0,.08-.01.14h-2.9v-8.77c.07,0,.14-.02.2-.02.83,0,1.66,0,2.48,0,.15,0,.23.02.23.2,0,2.82,0,5.64,0,8.46ZM7.06,8.15c-.95,0-1.63-.63-1.63-1.52,0-.9.68-1.52,1.66-1.52.95,0,1.63.64,1.63,1.53,0,.87-.69,1.51-1.65,1.51ZM19.04,18.13h-2.91v-.24c0-1.46,0-2.92,0-4.38,0-.34-.03-.69-.12-1.02-.27-.98-1.34-1.36-2.19-.79-.44.29-.72.7-.73,1.24-.02.99-.02,1.98-.02,2.97,0,.73,0,1.47,0,2.22h-2.91v-8.77c.06,0,.12-.02.18-.02.84,0,1.67,0,2.51,0,.18,0,.23.05.22.23-.01.31,0,.62,0,.98.07-.07.1-.1.12-.13.71-1.02,1.72-1.39,2.92-1.25,1.66.19,2.69,1.28,2.89,3,.04.32.06.64.06.96,0,1.6,0,3.2,0,4.8,0,.06,0,.12,0,.2Z"/>
      </g>
    </g>
  </g>
</svg>