<?xml version="1.0" encoding="UTF-8"?>
<svg id="Content" xmlns="http://www.w3.org/2000/svg" version="1.1" xmlns:xlink="http://www.w3.org/1999/xlink" viewBox="0 0 95 95">
  <!-- Generator: Adobe Illustrator 29.0.0, SVG Export Plug-In . SVG Version: 2.1.0 Build 186)  -->
  <defs>
    <style>
      .st0 {
        stroke: #f8ab5d;
      }

      .st0, .st1, .st2 {
        fill: none;
      }

      .st0, .st2 {
        stroke-linecap: round;
        stroke-linejoin: round;
        stroke-width: 1.8px;
      }

      .st3 {
        fill: #f8ab5d;
      }

      .st4 {
        fill: #22272e;
      }

      .st5 {
        clip-path: url(#clippath-1);
      }

      .st2 {
        stroke: #22272e;
      }

      .st6 {
        fill: #63737a;
      }

      .st7 {
        fill: #ffe779;
      }

      .st8 {
        fill: #f96e46;
      }

      .st9 {
        fill: #6dafa7;
      }

      .st10 {
        clip-path: url(#clippath);
      }
    </style>
    <clipPath id="clippath">
      <path class="st1" d="M53.86,83.78l-30.67-1.88c-2.3-.14-3.94-2.23-3.53-4.49L31.35,11.93c.41-2.26,2.26-3.94,4.52-4.18l30.8-2.98c2.5-.24,4.56,1.95,4.15,4.45l-11.65,70.31c-.41,2.57-2.71,4.39-5.31,4.25Z"/>
    </clipPath>
    <clipPath id="clippath-1">
      <path class="st1" d="M53.86,83.78l-30.67-1.88c-2.3-.14-3.94-2.23-3.53-4.49L31.35,11.93c.41-2.26,2.26-3.94,4.52-4.18l30.8-2.98c2.5-.24,4.56,1.95,4.15,4.45l-11.65,70.31c-.41,2.57-2.71,4.39-5.31,4.25Z"/>
    </clipPath>
  </defs>
  <g id="Camada_4">
    <g>
      <circle class="st8" cx="47.5" cy="47.5" r="45.09"/>
      <g>
        <path class="st3" d="M55.54,83.99l-30.67-1.88c-2.3-.14-3.94-2.23-3.53-4.49L33.03,12.14c.41-2.26,2.26-3.94,4.52-4.18l30.8-2.98c2.5-.24,4.56,1.95,4.15,4.45l-11.65,70.31c-.41,2.57-2.71,4.42-5.31,4.25Z"/>
        <path class="st7" d="M53.86,83.78l-30.67-1.88c-2.3-.14-3.94-2.23-3.53-4.49L31.35,11.93c.41-2.26,2.26-3.94,4.52-4.18l30.8-2.98c2.5-.24,4.56,1.95,4.15,4.45l-11.65,70.31c-.41,2.57-2.71,4.39-5.31,4.25Z"/>
        <g>
          <g class="st10">
            <path class="st3" d="M84.77,46.78l-47.22.82c-1.23.03-2.16-1.1-1.95-2.3l3.46-19.7c.21-1.13,1.13-1.95,2.26-2.06l46.6-3.12c1.58-.1,2.88,1.3,2.6,2.88l-3.43,21.41c-.1,1.16-1.13,2.06-2.33,2.06Z"/>
          </g>
          <g class="st5">
            <path class="st3" d="M79.56,78.54l-47.22-2.06c-1.17-.07-2.06-1.13-1.85-2.3l3.56-20.18c.21-1.16,1.23-2.06,2.43-2.06l46.67-.38c1.54,0,2.71,1.37,2.47,2.88l-3.49,22.03c-.21,1.23-1.34,2.12-2.57,2.06Z"/>
          </g>
        </g>
        <line class="st0" x1="30.63" y1="15.87" x2="70.24" y2="12.72"/>
        <g>
          <path class="st4" d="M50.78,11.11l-3.39.31c-.31.03-.48-.21-.45-.55h0c.07-.34.34-.62.65-.65l3.39-.31c.31-.03.51.21.45.55h0c-.07.34-.38.62-.65.65Z"/>
          <path class="st4" d="M53.04,10.9h0c-.31.03-.51-.21-.45-.55h0c.07-.34.34-.62.65-.65h0c.31-.03.51.21.45.55h0c-.03.34-.34.65-.65.65Z"/>
        </g>
        <g>
          <path class="st9" d="M32.31,28.03l-10.72.58-1.58,1.03c-.38.24-.82-.07-.75-.51l1.68-9.32c.14-.75.75-1.3,1.51-1.37l11.17-.86c.72-.07,1.34.58,1.2,1.3l-1.44,8.15c-.1.58-.55.96-1.06.99Z"/>
          <line class="st2" x1="23.03" y1="21.18" x2="32.07" y2="20.53"/>
          <line class="st2" x1="22.61" y1="23.48" x2="31.66" y2="22.86"/>
          <line class="st2" x1="22.2" y1="25.74" x2="26.93" y2="25.46"/>
        </g>
        <g>
          <path class="st4" d="M82.23,44.69l-47.22.82c-1.23.03-2.16-1.1-1.95-2.3l3.46-19.7c.21-1.13,1.13-1.95,2.26-2.06l46.6-3.12c1.58-.1,2.88,1.3,2.6,2.88l-3.43,21.41c-.14,1.16-1.13,2.06-2.33,2.06Z"/>
          <g>
            <path class="st7" d="M47.25,29.78c-.24,1.4-1.47,2.6-2.74,2.67-1.27.07-2.09-1.03-1.85-2.43.24-1.4,1.47-2.6,2.74-2.67,1.27-.07,2.09,1.03,1.85,2.43Z"/>
            <path class="st7" d="M46.36,38.79l-5.62.17c-.75.03-1.37-.65-1.23-1.4l.1-.62c.45-2.54,2.64-4.69,4.93-4.76h0c2.3-.1,3.84,1.92,3.39,4.49l-.14.89c-.14.69-.72,1.2-1.44,1.23Z"/>
          </g>
          <path class="st9" d="M77.16,30.02l-22.37,1.03c-.48.03-.86-.41-.75-.86l.24-1.51c.1-.51.51-.89,1.03-.93l22.41-1.16c.48-.03.86.38.75.86l-.27,1.64c-.07.51-.51.93-1.03.93Z"/>
          <g>
            <polygon class="st7" points="54.55 35.09 54.89 36.15 55.95 36.33 55.03 37.25 54.96 38.45 54.07 37.97 52.97 38.52 53.31 37.32 52.7 36.46 53.83 36.19 54.55 35.09"/>
            <polygon class="st7" points="59.69 34.92 60.06 35.98 61.13 36.15 60.2 37.08 60.17 38.28 59.21 37.8 58.11 38.35 58.45 37.15 57.84 36.26 58.97 36.02 59.69 34.92"/>
            <polygon class="st7" points="64.96 34.71 65.34 35.78 66.44 35.98 65.48 36.91 65.44 38.14 64.48 37.63 63.35 38.21 63.7 36.98 63.05 36.09 64.24 35.81 64.96 34.71"/>
            <polygon class="st7" points="70.34 34.51 70.72 35.61 71.85 35.78 70.89 36.74 70.86 37.97 69.86 37.46 68.7 38.04 69.08 36.77 68.39 35.91 69.59 35.64 70.34 34.51"/>
            <polygon class="st7" points="75.86 34.3 76.24 35.4 77.4 35.61 76.41 36.53 76.37 37.8 75.35 37.28 74.18 37.87 74.56 36.6 73.87 35.71 75.07 35.43 75.86 34.3"/>
          </g>
        </g>
        <g>
          <path class="st4" d="M76.99,76.45l-47.18-2.09c-1.17-.07-2.06-1.13-1.85-2.3l3.56-20.18c.21-1.16,1.23-2.06,2.43-2.06l46.67-.38c1.54,0,2.71,1.37,2.47,2.88l-3.49,22.03c-.24,1.27-1.34,2.16-2.6,2.09Z"/>
          <g>
            <path class="st7" d="M42.21,58.94c-.24,1.44-1.47,2.6-2.78,2.57-1.27-.03-2.09-1.2-1.85-2.64.24-1.44,1.47-2.57,2.74-2.57,1.3.03,2.16,1.2,1.88,2.64Z"/>
            <path class="st7" d="M41.22,68.19l-5.62-.17c-.72-.03-1.27-.69-1.16-1.4l.14-.72c.45-2.6,2.64-4.66,4.93-4.63h0c2.3.03,3.84,2.19,3.36,4.83l-.14.86c-.1.72-.75,1.23-1.51,1.23Z"/>
          </g>
          <path class="st9" d="M72.06,61.06l-22.37-.31c-.45,0-.79-.41-.72-.86l.27-1.58c.1-.55.55-.93,1.1-.93l22.41.17c.45,0,.79.41.72.86l-.27,1.71c-.1.51-.58.93-1.13.93Z"/>
          <g>
            <polygon class="st7" points="49.48 64.9 49.82 66 50.88 66.24 49.96 67.13 49.92 68.36 49 67.78 47.9 68.29 48.24 67.06 47.66 66.17 48.76 65.96 49.48 64.9"/>
            <polygon class="st7" points="54.65 65 54.99 66.1 56.09 66.37 55.13 67.26 55.1 68.5 54.14 67.95 53.04 68.46 53.38 67.23 52.77 66.27 53.93 66.1 54.65 65"/>
            <polygon class="st7" points="59.93 65.14 60.27 66.24 61.4 66.51 60.44 67.4 60.37 68.67 59.41 68.09 58.28 68.6 58.66 67.37 58.01 66.41 59.17 66.24 59.93 65.14"/>
            <polygon class="st6" points="65.31 65.24 65.68 66.37 66.81 66.65 65.82 67.57 65.79 68.84 64.79 68.26 63.63 68.77 64 67.5 63.35 66.55 64.55 66.34 65.31 65.24"/>
            <polygon class="st6" points="70.79 65.38 71.2 66.51 72.33 66.79 71.34 67.71 71.3 69.01 70.31 68.4 69.11 68.94 69.49 67.64 68.8 66.72 70.04 66.51 70.79 65.38"/>
          </g>
        </g>
      </g>
    </g>
  </g>
</svg>