<?xml version="1.0" encoding="UTF-8"?>
<svg xmlns="http://www.w3.org/2000/svg" version="1.1" viewBox="0 0 40 36">
  <defs>
    <style>
      .cls-1 {
        fill: #00e8fc;
      }
    </style>
  </defs>
  <!-- Generator: Adobe Illustrator 28.7.1, SVG Export Plug-In . SVG Version: 1.2.0 Build 142)  -->
  <g>
    <g id="Content">
      <g id="Camada_4">
        <path class="cls-1" d="M1.2,29.28c0-.2,0-.39,0-.59.13-.18.24-.4.4-.55,1.15-1.02,2.06-2.22,2.82-3.54,2.26-3.91,3.28-8.15,3.37-12.63.05-2.34.01-4.69.01-7.03,0-.81.44-1.24,1.25-1.24,1.68,0,3.35,0,5.03,0,.13,0,.26,0,.4,0,0-.36,0-.66,0-.97,0-.74.46-1.24,1.11-1.23.64,0,1.08.5,1.09,1.22,0,.32,0,.65,0,.96h5.51c0-.34,0-.65,0-.97,0-.71.46-1.21,1.1-1.21.64,0,1.1.49,1.11,1.2,0,.32,0,.65,0,.97h5.58c0-.36,0-.69,0-1.02.01-.66.47-1.14,1.08-1.15.63-.01,1.11.48,1.12,1.15,0,.34,0,.68,0,1.05h.43c1.57,0,3.13.02,4.7-.01.68-.01,1.19.18,1.48.82v29.18c-.29.63-.8.82-1.48.82-9.28-.01-18.56-.02-27.84,0-1.26,0-1.74-.4-1.68-1.68.05-.9,0-1.8,0-2.73h-.43c-1.58,0-3.16-.02-4.73,0-.67.01-1.16-.2-1.44-.82ZM10,12.51c-.26,5.61-1.72,10.8-5.17,15.38h.26c8.43,0,16.86,0,25.3,0,.17,0,.37-.11.49-.23,1.08-1.1,1.95-2.35,2.69-3.69,1.52-2.78,2.4-5.76,2.8-8.88.11-.84.16-1.69.23-2.56H10ZM10.03,10.27h26.54v-4.35h-4.38c0,.35,0,.67,0,1,0,.68-.47,1.17-1.1,1.18-.63,0-1.1-.49-1.11-1.17,0-.34,0-.67,0-1h-5.58c0,.36,0,.69,0,1.02-.01.67-.49,1.16-1.12,1.15-.61,0-1.07-.49-1.08-1.15,0-.34,0-.68,0-1.02h-5.51c0,.34,0,.65,0,.97,0,.71-.46,1.21-1.1,1.2-.64,0-1.09-.5-1.1-1.21,0-.32,0-.65,0-.97h-4.46v4.35ZM36.58,22.83c-.1.2-.15.32-.21.43-1.09,2.34-2.43,4.51-4.3,6.33-.36.35-.77.51-1.28.51-6.78-.01-13.56,0-20.34,0h-.43v2.18h26.55v-9.44Z"/>
      </g>
    </g>
  </g>
</svg>