<?xml version="1.0" encoding="UTF-8"?>
<svg xmlns="http://www.w3.org/2000/svg" version="1.1" viewBox="0 0 185 185">
  <defs>
    <style>
      .cls-1 {
        fill: #fff4e4;
      }

      .cls-2 {
        fill: #22272e;
      }

      .cls-3 {
        fill: #f4c2c9;
      }

      .cls-4 {
        fill: #63737a;
      }

      .cls-5 {
        fill: none;
        stroke: #63737a;
        stroke-linecap: round;
        stroke-linejoin: round;
        stroke-width: 1.8px;
      }

      .cls-6 {
        fill: #ffe779;
      }

      .cls-7 {
        fill: #6dafa7;
      }
    </style>
  </defs>
  <!-- Generator: Adobe Illustrator 28.7.1, SVG Export Plug-In . SVG Version: 1.2.0 Build 142)  -->
  <g>
    <g id="Content">
      <g id="Camada_4">
        <g>
          <circle class="cls-1" cx="92.5" cy="92.5" r="91"/>
          <g>
            <path class="cls-4" d="M138.77,157.78l-92.2-10.8c-2.7-.3-4.3-2.7-3.7-5.4l21.3-97.4c.5-2.3,2.7-4.2,5.1-4.5l96.2-10.1c2.5-.3,4.4,1.7,3.9,4.1l-25.5,120.4c-.6,2.3-2.8,4-5.1,3.7Z"/>
            <path class="cls-2" d="M135.07,157.78l-93-10.9c-2.7-.3-4.4-2.7-3.8-5.4l21.5-98.1c.5-2.4,2.7-4.3,5.2-4.5l96.9-10.2c2.5-.3,4.4,1.7,3.9,4.1l-25.8,121.4c-.4,2.2-2.7,3.9-4.9,3.6Z"/>
            <g>
              <path class="cls-7" d="M100.77,63.68l-35,1.7c-.9,0-1.6-.7-1.4-1.6l2.8-13c.2-.7.8-1.3,1.6-1.4l35.3-3c1-.1,1.6.7,1.4,1.6l-3.1,14.4c-.1.6-.8,1.2-1.6,1.3Z"/>
              <g>
                <path class="cls-3" d="M54.47,136.58h0c-.8-.1-1.3-.8-1.1-1.5l5.2-24.4c.2-.8.9-1.4,1.7-1.3h0c.8.1,1.3.7,1.1,1.5l-5.2,24.5c-.1.7-.9,1.3-1.7,1.2Z"/>
                <path class="cls-6" d="M66.87,136.28l6.2-28.8c.2-.8.9-1.4,1.7-1.3h.2c.8,0,1.3.7,1.2,1.5l-6.2,28.8c-.2.8-1,1.4-1.8,1.3h-.2c-.8,0-1.3-.7-1.1-1.5Z"/>
                <path class="cls-7" d="M80.37,137.38l7-32.9c.2-.9,1-1.5,1.9-1.5h0c.9,0,1.5.8,1.3,1.7l-7,32.9c-.2.9-1.1,1.5-2,1.5h0c-.8,0-1.4-.8-1.2-1.7Z"/>
              </g>
              <g>
                <path class="cls-7" d="M130.37,75.28l2.3,4.9c-2.8,3.2-6.2,5.2-9.4,5.2-6.2,0-9.5-7.5-7.5-16.8s8.6-17.2,14.9-17.7c3.3-.3,5.8,1.4,7.3,4.4l-4.4,5.2c-.9-1.8-2.4-2.9-4.3-2.7-3.8.3-7.8,5-9.1,10.7-1.2,5.6.8,10.2,4.6,10.1,2-.2,4-1.4,5.6-3.3Z"/>
                <path class="cls-6" d="M138.97,67.48c-1.1,4.9-3.4,9.4-6.2,12.6l-2.3-4.9c1.7-1.9,3.1-4.6,3.7-7.5s.4-5.5-.5-7.3l4.4-5.2c1.5,3.1,1.9,7.4.9,12.3Z"/>
              </g>
              <g>
                <path class="cls-7" d="M103.67,123.78c-2,9.3,1.3,16.8,7.5,16.8,3.2,0,6.6-2,9.4-5.2l-2.3-4.9c-1.7,1.9-3.7,3.1-5.6,3.2-3.8.1-5.8-4.5-4.6-10.1.5-2.5,1.7-4.9,3.1-6.7l-2.1-4.6c-2.5,3.2-4.5,7.2-5.4,11.5Z"/>
                <path class="cls-6" d="M117.17,112.98c1.9-.1,3.5.9,4.3,2.7l4.4-5.2c-1.5-3-4.1-4.7-7.3-4.4-3.4.3-6.8,2.7-9.6,6.2l2.1,4.6c1.8-2.2,3.9-3.8,6.1-3.9Z"/>
                <path class="cls-3" d="M126.77,122.88c-1.1,4.9-3.4,9.4-6.2,12.6l-2.3-4.9c1.7-1.9,3.1-4.6,3.7-7.5s.4-5.5-.5-7.3l4.4-5.2c1.5,3,2,7.4.9,12.3Z"/>
              </g>
              <line class="cls-5" x1="63.17" y1="74.08" x2="87.77" y2="73.18"/>
              <line class="cls-5" x1="61.77" y1="79.68" x2="96.97" y2="79.28"/>
              <line class="cls-5" x1="60.67" y1="85.48" x2="96.27" y2="85.48"/>
            </g>
            <g>
              <path class="cls-4" d="M152.67,38.38c.2-.8-.1-1.4-.7-1.4-.6.1-1.2.8-1.3,1.6-.2.8.1,1.4.7,1.4.6-.1,1.2-.8,1.3-1.6Z"/>
              <path class="cls-4" d="M158.47,37.88c.2-.8-.2-1.4-.7-1.4-.6.1-1.2.8-1.4,1.6s.2,1.4.7,1.4c.7-.1,1.3-.8,1.4-1.6Z"/>
            </g>
          </g>
        </g>
      </g>
    </g>
  </g>
</svg>