<?xml version="1.0" encoding="UTF-8"?>
<svg xmlns="http://www.w3.org/2000/svg" version="1.1" viewBox="0 0 185 185">
  <defs>
    <style>
      .cls-1 {
        fill: #fff4e4;
      }

      .cls-2 {
        fill: #fff;
      }

      .cls-3 {
        fill: #22272e;
      }

      .cls-4 {
        fill: #f4c2c9;
      }

      .cls-5 {
        fill: #63737a;
      }

      .cls-6 {
        fill: none;
        stroke: #63737a;
        stroke-linecap: round;
        stroke-linejoin: round;
        stroke-width: 1.8px;
      }

      .cls-7 {
        fill: #ffe779;
      }

      .cls-8 {
        fill: #6dafa7;
      }
    </style>
  </defs>
  <!-- Generator: Adobe Illustrator 28.7.1, SVG Export Plug-In . SVG Version: 1.2.0 Build 142)  -->
  <g>
    <g id="Content">
      <g id="Camada_4">
        <g>
          <circle class="cls-1" cx="92.5" cy="92.5" r="91"/>
          <g>
            <path class="cls-3" d="M60.4,102.64l16.8-55c.5-1.5,1.9-2.5,3.5-2.5l99.4,2.8c1.7,0,2.8,1.6,2.4,3.2l-19.5,67.1c-.5,1.7-2.2,2.8-3.9,2.5l-96.5-14.9c-1.7-.2-2.7-1.7-2.2-3.2Z"/>
            <path class="cls-5" d="M59.5,105.44L1.7,110.84l99.1,24.4c2.4.6,4.9.6,7.3,0l53.8-13.9-102.4-15.9Z"/>
            <path class="cls-3" d="M100.9,135.24L1.8,110.84h0c0,1.9,1.3,3.5,3.1,4l93.4,24.8c3.9,1,8.1,1,12-.2l49-14.4c1.7-.5,2.8-2,2.8-3.8h0l-53.8,13.9c-2.6.7-5.1.7-7.4.1Z"/>
            <g>
              <g>
                <path class="cls-2" d="M125.7,57.34l-7,23.8c-.2.6-.8,1-1.4,1l-39.3-3.4c-.9-.1-1.4-.9-1.2-1.7l6.6-21.8c.2-.6.7-1,1.3-1l39.7,1.4c.9,0,1.5.9,1.3,1.7Z"/>
                <polygon class="cls-4" points="118.2 61.64 113.8 75.94 83.2 73.74 84.3 70.54 95.6 65.54 102 70.54 118.2 61.64"/>
              </g>
              <g>
                <path class="cls-7" d="M95.3,90.84l-2.9,9c-.2.6-.8,1-1.5.9l-18.9-2.5c-.8-.1-1.4-.9-1.1-1.7l2.5-8.4c.2-.6.8-1,1.4-1l19.3,2c.9,0,1.5.8,1.2,1.7Z"/>
                <path class="cls-8" d="M124.9,93.84l-3.2,9.9c-.2.6-.8,1-1.5.9l-18-2.4c-.8-.1-1.4-.9-1.1-1.8l3-9.3c.2-.6.8-1,1.4-.9l18.2,1.8c.9.1,1.5.9,1.2,1.8Z"/>
                <path class="cls-4" d="M158.9,97.24l-3.4,11c-.2.6-.8,1-1.5.9l-21.7-2.9c-.8-.1-1.4-.9-1.1-1.8l3.3-10.3c.2-.6.8-1,1.4-.9l21.7,2.2c1,.1,1.6,1,1.3,1.8Z"/>
              </g>
              <path class="cls-7" d="M147.2,62.14c-.7,3-3.8,5.3-6.8,5.1-2.9-.2-4.4-2.7-3.6-5.5.8-2.7,3.6-4.7,6.3-4.7s4.7,2.3,4.1,5.1Z"/>
              <g>
                <line class="cls-6" x1="154.3" y1="58.84" x2="168.9" y2="59.34"/>
                <line class="cls-6" x1="131.5" y1="77.84" x2="162.8" y2="80.04"/>
                <line class="cls-6" x1="152.6" y1="64.74" x2="167.2" y2="65.34"/>
              </g>
            </g>
          </g>
        </g>
      </g>
    </g>
  </g>
</svg>