<?xml version="1.0" encoding="UTF-8"?>
<svg xmlns="http://www.w3.org/2000/svg" version="1.1" viewBox="0 0 185 185">
  <defs>
    <style>
      .cls-1 {
        fill: #fff4e4;
      }

      .cls-2 {
        fill: #22272e;
      }

      .cls-3 {
        fill: #f4c2c9;
      }

      .cls-4 {
        fill: #b0d7c0;
      }

      .cls-5 {
        fill: #63737a;
      }

      .cls-6 {
        fill: none;
        stroke: #63737a;
        stroke-linecap: round;
        stroke-linejoin: round;
        stroke-width: 1.8px;
      }
    </style>
  </defs>
  <!-- Generator: Adobe Illustrator 28.7.1, SVG Export Plug-In . SVG Version: 1.2.0 Build 142)  -->
  <g>
    <g id="Content">
      <g id="Camada_4">
        <g>
          <circle class="cls-1" cx="92.5" cy="92.5" r="91"/>
          <g>
            <path class="cls-5" d="M115.9,161.94l-44.8-7.9c-5.1-.9-8.8-6.8-8.3-13.2l8.3-104.6c.5-6.4,5.1-12.3,10.3-13.2l46-7.9c6.8-1.2,12,4,11.4,11.6l-9.8,123.8c-.4,7.4-6.4,12.5-13.1,11.4Z"/>
            <path class="cls-2" d="M112.4,161.94l-44.8-7.9c-5.1-.9-8.8-6.8-8.3-13.2l8.3-104.6c.5-6.4,5.1-12.3,10.3-13.2l46-7.9c6.8-1.2,12,4,11.4,11.6l-9.8,123.8c-.4,7.4-6.5,12.5-13.1,11.4Z"/>
            <g>
              <path class="cls-5" d="M98.9,30.84l-8.6,1.2c-.8.1-1.5-.6-1.4-1.6h0c.1-1,.8-1.9,1.7-2l8.6-1.3c.9-.1,1.5.6,1.5,1.6h0c-.1,1.1-.9,2-1.8,2.1Z"/>
              <path class="cls-5" d="M107.6,29.64l-1.2.2c-.9.1-1.6-.6-1.5-1.6h0c.1-1,.9-2,1.8-2.1l1.2-.2c.9-.1,1.6.6,1.5,1.6h0c0,1-.9,1.9-1.8,2.1Z"/>
            </g>
            <path class="cls-5" d="M84.1,141.94l-14.9-2.1c-1.6-.2-2.8-2-2.6-4h0c.2-2,1.6-3.5,3.2-3.3l14.9,1.8c1.7.2,3,2.1,2.9,4.2h0c-.2,2.2-1.8,3.7-3.5,3.4Z"/>
            <g>
              <line class="cls-6" x1="73.7" y1="46.34" x2="95" y2="43.94"/>
              <line class="cls-6" x1="70.1" y1="91.14" x2="80.4" y2="91.24"/>
              <line class="cls-6" x1="88.4" y1="91.24" x2="99.7" y2="91.34"/>
              <line class="cls-6" x1="108.6" y1="91.44" x2="121.1" y2="91.54"/>
            </g>
            <g>
              <path class="cls-4" d="M98.3,83.24l-24.9.3c-1.5,0-2.6-1.5-2.4-3.3l1.7-21.6c.1-1.8,1.5-3.4,3-3.6l25.1-2.2c1.7-.2,3,1.3,2.8,3.3l-1.8,23.4c-.3,2-1.8,3.6-3.5,3.7Z"/>
              <path class="cls-3" d="M114.8,128.04l-44.6-4.2c-1.5-.1-2.5-1.7-2.4-3.6l1.4-17.7c.1-1.8,1.5-3.3,2.9-3.3l44.9,1.3c1.9.1,3.3,1.8,3.1,3.9l-1.6,20.2c-.2,2.1-1.8,3.6-3.7,3.4Z"/>
            </g>
          </g>
        </g>
      </g>
    </g>
  </g>
</svg>