<?xml version="1.0" encoding="UTF-8"?>
<svg xmlns="http://www.w3.org/2000/svg" version="1.1" viewBox="0 0 455 455">
  <defs>
    <style>
      .cls-1 {
        fill: #fff4e4;
      }

      .cls-2 {
        stroke: #63737a;
      }

      .cls-2, .cls-3, .cls-4 {
        fill: none;
        stroke-linecap: round;
        stroke-linejoin: round;
        stroke-width: 3.74px;
      }

      .cls-5 {
        fill: #f8ab5d;
      }

      .cls-6 {
        fill: #22272e;
      }

      .cls-7 {
        fill: #f4c2c9;
      }

      .cls-8 {
        fill: #282828;
      }

      .cls-9 {
        fill: #63737a;
      }

      .cls-10 {
        fill: #ffe779;
      }

      .cls-11 {
        fill: #6dafa7;
      }

      .cls-3 {
        stroke: #282828;
      }

      .cls-4 {
        stroke: #6dafa7;
      }
    </style>
  </defs>
  <!-- Generator: Adobe Illustrator 28.7.1, SVG Export Plug-In . SVG Version: 1.2.0 Build 142)  -->
  <g>
    <g id="Content">
      <g id="Camada_4">
        <g>
          <circle class="cls-1" cx="227.99" cy="227.5" r="226.5"/>
          <g>
            <g>
              <path class="cls-9" d="M378.91,344.31l-342.68,51.91c-7.71,1.22-14.6-4.46-15.21-12.17L.54,75.44c-.61-8.52,6.49-15.61,15-15l343.28,21.9c6.49.41,11.76,5.47,12.37,11.96l19.67,235.01c.61,7.1-4.66,13.79-11.96,15Z"/>
              <path class="cls-6" d="M388.23,343.9l-344.3,52.11c-7.71,1.22-14.6-4.46-15.21-12.17L8.05,73.82c-.61-8.52,6.49-15.82,15.21-15.21l344.7,21.9c6.49.41,11.76,5.47,12.37,12.17l19.87,236.02c.81,7.5-4.46,14.19-11.96,15.21Z"/>
              <path class="cls-11" d="M163.77,237.65l-96.92,5.27c-3.04.2-5.68-2.23-5.88-5.27l-5.68-81.92c-.2-3.24,2.43-6.08,5.68-6.08l96.92.61c3.04,0,5.47,2.23,5.68,5.27l5.68,76.04c.2,3.24-2.23,5.88-5.47,6.08Z"/>
              <path class="cls-10" d="M267.99,206.02l-81.11,2.84c-3.04.2-5.68-2.23-5.88-5.27l-3.45-47.24c-.2-3.24,2.43-6.08,5.68-6.08l81.11.61c2.84,0,5.27,2.23,5.68,5.27l3.45,43.8c.2,3.24-2.23,6.08-5.47,6.08Z"/>
              <path class="cls-7" d="M359.85,202.98l-68.33,2.43c-3.04.2-5.68-2.23-5.88-5.27l-3.45-42.78c-.2-3.24,2.43-6.08,5.68-6.08l68.33.41c2.84,0,5.27,2.23,5.68,5.27l3.24,39.95c.41,3.04-2.03,5.88-5.27,6.08Z"/>
              <path class="cls-2" d="M169.85,317.14l-96.92,10.54c-3.24.41-6.08-2.03-6.29-5.27l-3.65-52.92c-.2-3.04,2.23-5.88,5.27-6.08l97.13-6.49c3.04-.2,5.88,2.03,6.08,5.27l3.65,48.87c0,3.04-2.23,5.68-5.27,6.08Z"/>
              <path class="cls-7" d="M277.12,315.11l-80.9,9.53c-3.24.41-6.08-2.03-6.29-5.27l-6.49-87.39c-.2-3.24,2.23-5.88,5.27-6.08l81.11-3.85c3.04-.2,5.68,2.23,5.88,5.27l6.49,81.72c.2,3.04-2.03,5.68-5.07,6.08Z"/>
              <path class="cls-11" d="M260.29,237.25l-58.19,3.45c-1.42,0-2.43,1.22-2.23,2.64l2.64,36.09c.2,1.42,1.22,2.43,2.64,2.23l58.19-5.07c1.42-.2,2.43-1.22,2.23-2.64l-2.64-34.47c-.2-1.22-1.42-2.23-2.64-2.23Z"/>
              <path class="cls-10" d="M367.96,295.04l-68.33,7.5c-3.24.41-6.08-2.03-6.29-5.27l-5.47-70.36c-.2-3.24,2.23-5.88,5.27-6.08l68.33-3.24c3.04-.2,5.68,2.23,5.88,5.27l5.47,66.1c.41,3.04-1.82,5.68-4.87,6.08Z"/>
              <g>
                <line class="cls-2" x1="120.38" y1="283.68" x2="121.59" y2="298.69"/>
                <line class="cls-2" x1="113.89" y1="291.79" x2="128.08" y2="290.58"/>
              </g>
              <g>
                <path class="cls-8" d="M217.5,300.31c-.41-4.06-3.45-7.3-7.1-6.89s-6.49,4.06-6.08,8.31c.41,4.26,3.65,7.3,7.3,6.89,3.45-.61,6.08-4.26,5.88-8.31Z"/>
                <line class="cls-3" x1="229.26" y1="299.09" x2="267.18" y2="295.24"/>
              </g>
              <g>
                <path class="cls-11" d="M313.61,239.88c-.41-3.85-3.04-6.69-6.29-6.69-3.24.2-5.47,3.45-5.27,7.3.41,3.85,3.04,6.89,6.29,6.69,3.45-.2,5.68-3.45,5.27-7.3Z"/>
                <line class="cls-3" x1="323.96" y1="239.28" x2="356.6" y2="237.25"/>
              </g>
              <g>
                <path class="cls-11" d="M315.44,261.58c-.41-3.85-3.04-6.69-6.29-6.49-3.24.2-5.47,3.65-5.27,7.5.41,3.85,3.24,6.89,6.29,6.49,3.24-.41,5.68-3.65,5.27-7.5Z"/>
                <line class="cls-3" x1="325.58" y1="260.77" x2="358.43" y2="258.13"/>
              </g>
              <g>
                <path class="cls-11" d="M317.26,283.28c-.41-3.85-3.04-6.69-6.29-6.49-3.24.2-5.47,3.65-5.27,7.5.41,3.85,3.24,6.69,6.29,6.49,3.24-.41,5.47-3.65,5.27-7.5Z"/>
                <line class="cls-3" x1="327.4" y1="282.26" x2="360.05" y2="279.02"/>
              </g>
              <g>
                <path class="cls-10" d="M89.15,182.5l-13.18.2c-1.22,0-2.23-1.01-2.43-2.23l-1.01-13.79c0-1.42,1.01-2.43,2.43-2.43h13.18c1.22,0,2.23,1.01,2.43,2.23l1.01,13.59c-.2,1.22-1.22,2.43-2.43,2.43Z"/>
                <line class="cls-3" x1="103.35" y1="164.25" x2="148.97" y2="164.05"/>
                <line class="cls-3" x1="104.16" y1="176.01" x2="149.78" y2="175.61"/>
              </g>
              <g>
                <path class="cls-8" d="M307.94,179.26l-10.34.2c-.61,0-1.22-.61-1.42-1.22l-1.01-13.18c0-.81.61-1.42,1.42-1.42h10.34c.61,0,1.22.61,1.42,1.22l1.01,12.98c0,.61-.61,1.42-1.42,1.42Z"/>
                <line class="cls-3" x1="317.67" y1="163.44" x2="351.53" y2="163.44"/>
                <line class="cls-3" x1="318.68" y1="173.78" x2="352.34" y2="173.38"/>
                <line class="cls-3" x1="297.19" y1="190.61" x2="353.56" y2="189.19"/>
              </g>
              <g>
                <path class="cls-10" d="M91.38,213.93l-13.18.41c-1.22,0-2.43-1.01-2.43-2.23l-1.01-13.79c0-1.42,1.01-2.43,2.23-2.43l13.18-.41c1.22,0,2.23,1.01,2.43,2.23l1.01,13.59c0,1.42-1.01,2.64-2.23,2.64Z"/>
                <line class="cls-3" x1="105.58" y1="195.28" x2="151.2" y2="194.06"/>
                <line class="cls-3" x1="106.39" y1="207.24" x2="152.01" y2="205.82"/>
              </g>
              <path class="cls-11" d="M124.64,115.79l-68.33-2.03c-2.23,0-4.06-1.82-4.26-4.06l-.81-10.75c-.2-2.64,2.03-4.87,4.46-4.66l68.33,2.84c2.23,0,4.06,1.82,4.26,4.06l.81,9.94c.2,2.43-1.82,4.66-4.46,4.66Z"/>
              <line class="cls-3" x1="193.78" y1="163.85" x2="258.26" y2="163.64"/>
              <line class="cls-3" x1="194.59" y1="175.2" x2="259.07" y2="174.39"/>
              <line class="cls-3" x1="195.81" y1="193.05" x2="230.48" y2="192.23"/>
              <path class="cls-9" d="M357.82,114.78c-.2-3.04-2.43-5.68-5.07-5.88-2.43-.2-4.46,2.43-4.06,5.47.2,3.24,2.43,5.88,5.07,5.88,2.43.2,4.26-2.43,4.06-5.47Z"/>
              <path class="cls-9" d="M339.77,114.17c-.2-3.24-2.64-5.88-5.07-5.88-2.64-.2-4.46,2.43-4.26,5.68s2.64,5.88,5.27,5.88c2.43,0,4.26-2.64,4.06-5.68Z"/>
              <path class="cls-9" d="M321.12,113.36c-.2-3.24-2.64-5.88-5.27-6.08s-4.66,2.43-4.46,5.68c.2,3.24,2.64,5.88,5.27,6.08,2.84.2,4.66-2.43,4.46-5.68Z"/>
            </g>
            <g>
              <g>
                <path class="cls-5" d="M440.14,141.34l-90.03-1.62c-3.65,0-6.69-2.84-6.89-6.49l-8.11-99.15c-.2-3.45,2.64-6.08,5.88-5.88l90.43,9.53c3.45.41,6.08,3.04,6.29,6.49l7.91,91.04c.2,3.45-2.23,6.08-5.47,6.08Z"/>
                <path class="cls-10" d="M445.01,139.72l-90.03-1.62c-3.65,0-6.69-2.84-6.89-6.49l-8.11-99.15c-.2-3.45,2.64-6.08,5.88-5.88l90.43,9.53c3.45.41,6.08,3.04,6.29,6.49l7.91,91.04c.2,3.45-2.43,6.08-5.47,6.08Z"/>
                <g>
                  <g>
                    <line class="cls-2" x1="379.31" y1="45.03" x2="426.96" y2="49.49"/>
                    <line class="cls-2" x1="380.12" y1="54.76" x2="427.77" y2="58.81"/>
                  </g>
                  <g>
                    <line class="cls-2" x1="381.95" y1="77.06" x2="429.8" y2="80.31"/>
                    <line class="cls-2" x1="382.76" y1="86.59" x2="430.41" y2="89.43"/>
                  </g>
                  <g>
                    <line class="cls-2" x1="384.79" y1="109.1" x2="432.44" y2="111.13"/>
                    <line class="cls-2" x1="385.6" y1="118.63" x2="433.25" y2="120.25"/>
                  </g>
                </g>
              </g>
              <polyline class="cls-4" points="362.89 50.5 365.32 53.54 368.77 48.88"/>
              <polyline class="cls-4" points="365.52 82.94 367.96 85.78 371.61 81.12"/>
              <polyline class="cls-4" points="368.16 114.78 370.8 117.62 374.24 112.75"/>
            </g>
          </g>
        </g>
      </g>
    </g>
  </g>
</svg>