<?xml version="1.0" encoding="utf-8"?>
<!-- Generator: Adobe Illustrator 25.4.1, SVG Export Plug-In . SVG Version: 6.00 Build 0)  -->
<svg version="1.1" id="Camada_1" xmlns="http://www.w3.org/2000/svg" xmlns:xlink="http://www.w3.org/1999/xlink" x="0px" y="0px"
	 viewBox="0 0 42.6 35.5" style="enable-background:new 0 0 42.6 35.5;" xml:space="preserve">
<style type="text/css">
	.st0{fill:#85B653;}
</style>
<path class="st0" d="M40.8,19.5H5.4L19,32.4c0.7,0.7,0.7,1.8,0.1,2.5s-1.8,0.7-2.5,0.1L1,20.2c-1.4-1.4-1.4-3.6,0-5c0,0,0,0,0,0
	L16.5,0.5c0.7-0.7,1.8-0.6,2.5,0.1c0.7,0.7,0.6,1.8-0.1,2.5L5.4,16h35.4c1,0,1.8,0.8,1.8,1.8C42.6,18.7,41.8,19.5,40.8,19.5
	L40.8,19.5z"/>
</svg>
