<?xml version="1.0" encoding="utf-8"?>
<!-- Generator: Adobe Illustrator 25.4.1, SVG Export Plug-In . SVG Version: 6.00 Build 0)  -->
<svg version="1.1" id="Camada_1" xmlns="http://www.w3.org/2000/svg" xmlns:xlink="http://www.w3.org/1999/xlink" x="0px" y="0px"
	 viewBox="0 0 100 100" style="enable-background:new 0 0 100 100;" xml:space="preserve">
<style type="text/css">
	.st0{fill:#85B653;}
</style>
<path class="st0" d="M30.5,51.8h35.4L52.3,64.7c-0.7,0.7-0.7,1.8-0.1,2.5c0.7,0.7,1.8,0.7,2.5,0.1l0,0l15.5-14.7
	c1.4-1.4,1.4-3.6,0-5c0,0,0,0,0,0L54.8,32.8c-0.7-0.7-1.8-0.6-2.5,0.1c-0.7,0.7-0.6,1.8,0.1,2.5l13.6,12.9H30.5
	c-1,0-1.8,0.8-1.8,1.8C28.7,51,29.5,51.8,30.5,51.8L30.5,51.8z"/>
</svg>
