<svg xmlns="http://www.w3.org/2000/svg" width="65.773" height="90" viewBox="0 0 65.773 90"><defs><style>.a{fill:#85b653;}</style></defs><g transform="translate(-381.689 -123.692)"><path class="a" d="M407.184,131.537a7.544,7.544,0,1,1-7.546-7.543A7.545,7.545,0,0,1,407.184,131.537Z" transform="translate(17.448 0.507)"/><path class="a" d="M393.4,127.74a7.376,7.376,0,0,1,3.287-2.958,2.451,2.451,0,0,0-.784-.752,3.3,3.3,0,0,0-3.322,5.608l.027.011A7.454,7.454,0,0,1,393.4,127.74Z" transform="translate(16.164 0)"/><path class="a" d="M396.431,129.274c7.634,6.164,10.72,9.7,24.042,10.562s15.373,1.261,15.924,3.311-10.247,4.178-19.232,3-16.478,8.276-13.087,16.24,4.73,14.347,9.144,15.134,8.908-.945,12.929-3.469,7.645,2.131,3.863,4.81-13.48,8.75-18.842,8.434-15.37-12.535-20.022-28.221-2.679-27.276-.867-29.8S395.543,128.554,396.431,129.274Z" transform="translate(11.045 7.181)"/><path class="a" d="M402.04,140.711a62.371,62.371,0,0,0,4.965,10.71S395.886,170,388.335,179.43s-8.3,6.408-4.1-3.2S402.04,140.711,402.04,140.711Z" transform="translate(0 28.537)"/></g></svg>