<svg xmlns="http://www.w3.org/2000/svg" width="108.882" height="90.343" viewBox="0 0 108.882 90.343"><defs><style>.a{fill:#85b653;}</style></defs><path class="a" d="M57.519,89.116v-17.2c0-1.973-.543-2.513-2.523-2.513H49.483l0-3.86c.005-2.45.009-4.9-.011-7.334a4.421,4.421,0,0,0-4.26-4.551c-.3-.024-.6-.039-.931-.056V53.19c0-.562.005-1.1,0-1.638-.05-3.538-2.244-5.747-5.729-5.766-5.227-.025-10.528-.025-15.754,0C19.309,45.8,17.1,48,17.047,51.516c-.007.564-.005,1.126,0,1.7l0,.408c-.078.008-.145.013-.211.016-3.365.126-5,1.825-5,5.189l0,9.83c0,.243-.014.486-.028.749H10.194c-1.34,0-2.645,0-3.948,0-1.88.006-2.453.587-2.453,2.485V89.2c0,.062-.007.13-.013.2a1.14,1.14,0,0,0,.172.891l.171.205a2.5,2.5,0,0,0,1.418,1.086c.182.025.746.1,1.718-1.178a1.708,1.708,0,0,0,.208-1.137c-.005-.085-.009-.168-.009-.247V78.358H28.837V88.974c0,.229,0,.461.006.7.051,1.246.7,1.967,1.794,1.979h.027a1.762,1.762,0,0,0,1.8-1.956c.012-.449.01-.9.009-1.346V78.361l21.387-.008v1.956c0,2.92,0,5.8.014,8.607a2.9,2.9,0,0,0,.25,1.639,2.342,2.342,0,0,0,1.611,1.03l.055.008.055,0c.613-.047,1.112-.632,1.523-1.2a1.512,1.512,0,0,0,.164-1.018C57.526,89.282,57.519,89.2,57.519,89.116ZM15.487,68.657V58.939c0-.827.08-1.254.265-1.427.165-.156.518-.223,1.185-.208V69.345l-1.418,0C15.5,69.111,15.487,68.884,15.487,68.657ZM40.58,57.375v11.93H20.737V57.375ZM20.73,50.9a1.631,1.631,0,0,1,1.658-1.435q8.256-.03,16.525,0A1.618,1.618,0,0,1,40.6,50.97a18.99,18.99,0,0,1,.03,2.09c0,.171-.007.343-.01.516l-19.927,0C20.667,52.677,20.68,51.775,20.73,50.9ZM44.375,69.35v-12a1.5,1.5,0,0,1,1.114.1c.226.182.336.62.336,1.343,0,2.421,0,4.842,0,7.3V69.35ZM53.8,73.089l0,1.445H7.521V73.089ZM8.695,31.134l2.719,0h2.715l2.719,0h2.008q3.016,0,6.041-.006c2.538-.009,4.306-1.264,4.85-3.441.5-1.981-.5-3.951-2.611-5.143q-.953-.538-1.9-1.083c-1.571-.9-3.195-1.827-4.823-2.695-1.317-.7-2.052-1.158-1.84-2.526.112-.714-.92-1.549-1.521-1.729a1.4,1.4,0,0,0-1.14.112,2.052,2.052,0,0,0-.869,1.369A2.935,2.935,0,0,0,15,17.067c.08.52-.088.782-.717,1.123C12.05,19.4,9.807,20.679,7.638,21.914l-1.147.653c-2.043,1.167-3.055,3.151-2.579,5.055A4.506,4.506,0,0,0,8.695,31.134Zm-.406-5.413c2.54-1.416,5.263-2.941,8-4.531a.951.951,0,0,1,1.095.022c2.675,1.544,5.368,3.056,8.065,4.562.719.4.794.715.678,1.122-.1.366-.308.565-1.1.565q-2.017-.008-4.035-.006H13.887c-1.718,0-3.437,0-5.153,0-.822.025-1.093-.117-1.217-.561S7.478,26.174,8.289,25.721Zm27.666,5.431c.132,0,.266-.006.4-.018q2.718.006,5.437,0l2.718,0h2.231q2.9,0,5.81,0c2.554-.007,4.275-1.229,4.845-3.44.507-1.969-.49-3.939-2.6-5.142q-.888-.505-1.772-1.016c-1.58-.908-3.213-1.847-4.937-2.755-1.383-.726-2.091-1.167-1.791-2.518a.913.913,0,0,0-.27-.79c-.1-.08-.2-.176-.305-.272a2.027,2.027,0,0,0-1.258-.69c-.64.017-1.183.624-1.579,1.066l-.07.1a1.631,1.631,0,0,0-.137,1.189c.126.657-.089,1-.922,1.443-1.928,1.043-3.835,2.125-5.741,3.207l-1.858,1.052c-2.1,1.19-3.087,3.171-2.563,5.166A4.529,4.529,0,0,0,35.955,31.152Zm-.012-5.427c2.2-1.222,5.086-2.839,8.009-4.529a.908.908,0,0,1,.528-.168,1.006,1.006,0,0,1,.563.178c2.412,1.4,4.975,2.847,8.066,4.564.724.4.8.7.689,1.124-.1.367-.3.567-1.089.567q-4.131,0-8.262-.005H41.694c-1.762,0-3.526,0-5.287.006-.846-.008-1.1-.127-1.228-.56S35.134,26.176,35.943,25.725ZM22.8,61.97a1.728,1.728,0,0,1-.457-1.306c.018-.658.32-1.71,2.127-1.746,1.48.011,2.959.01,4.437.007l1.81,0h1.726q2.205.006,4.407-.006c1.808.006,2.1,1.1,2.111,1.764a1.713,1.713,0,0,1-.458,1.288,2.163,2.163,0,0,1-1.606.559q-3.125.009-6.251.01t-6.252-.01A2.136,2.136,0,0,1,22.8,61.97Zm89.009-40.1a2.8,2.8,0,0,0-1.924-.8,1.224,1.224,0,0,1-.56-.2c-2.386-1.693-4.8-3.437-7.124-5.155a.839.839,0,0,1-.271-.524c-.052-.366-.071-.736-.09-1.106s-.042-.766-.093-1.152A12.312,12.312,0,0,0,90.386,2.5c-2.034-.078-4.1-.075-6.1-.07-.7,0-1.407,0-2.134,0a.91.91,0,0,1-.7-.33,2.831,2.831,0,0,0-1.636-.731,21.488,21.488,0,0,0-3.066-.01c-.35.021-1.2.125-1.514.645-.275.45-.6.457-1.246.432l-.219-.006A9.547,9.547,0,0,0,67.7,4.078a9.234,9.234,0,0,0-3.9,8.037c.022,12.042.018,42.9.015,63.133V88.967a3.443,3.443,0,0,0,.045.961,2.7,2.7,0,0,0,.566,1.119,4.006,4.006,0,0,0,2.513.6,4.753,4.753,0,0,0,2.613-.559,2.386,2.386,0,0,0,.636-1.956V12.284a7.651,7.651,0,0,1,.053-1.181,2.4,2.4,0,0,1,1.72-2.09,14.315,14.315,0,0,1,2.827-.2,2.6,2.6,0,0,0,2.724,1.148l2.385-.044a2.323,2.323,0,0,0,1.647-.4,1.5,1.5,0,0,0,.475-.7c2.141-.027,4.79-.032,7.363-.01.2-.005.4,0,.59.011a5.949,5.949,0,0,1,5.524,6.324.691.691,0,0,1-.236.467q-3.589,2.648-7.208,5.246a1.215,1.215,0,0,1-.536.219,2.853,2.853,0,0,0-2.814,2.9l.008.148a2.776,2.776,0,0,0,.978,1.907,2.744,2.744,0,0,0,1.992.659c.9.013,1.8.01,2.7.007l1.11,0c6.051.007,12.1.006,18.1-.008.08.009.161.014.243.016a2.769,2.769,0,0,0,2.812-2.677c0-.058,0-.116,0-.178A2.767,2.767,0,0,0,111.813,21.874ZM98.28,14.728c-.011-.1-.022-.2-.034-.3-.058-.511-.118-1.039-.227-1.562a8.7,8.7,0,0,0-8.827-6.8c-1.526.019-3.05.014-4.574.009l-2.474,0,0-.914c.828.007,1.656,0,2.487,0,2.067-.007,4.206-.021,6.262.137a9.344,9.344,0,0,1,8.1,7.732c.071.449.1.9.13,1.355l.025.344Zm.791,2.74a2.9,2.9,0,0,1,1.649.552c1.081.817,2.185,1.606,3.289,2.4l.865.62H92.443l.87-.64c.262-.19.53-.375.8-.56A18.707,18.707,0,0,0,95.888,18.5,4.031,4.031,0,0,1,99.071,17.468ZM87.888,24l-.128-.074c-.044-.025-.1-.056-.153-.088.033,0,.069,0,.111,0l21.6,0a1.121,1.121,0,0,1,.4.009.986.986,0,0,1,.1.066.957.957,0,0,1-.082.072,1.126,1.126,0,0,1-.433.009H88.068A1.75,1.75,0,0,0,87.888,24Zm-8.6-19.893V7.231h-.127c-.638,0-1.277,0-1.917-.01-.016-.941-.015-1.884-.014-2.839V4.108ZM74.5,5.6c0,.177,0,.357-.009.471-.114.009-.294.009-.444.011a7.026,7.026,0,0,0-3.829.728,5.253,5.253,0,0,0-2.7,4.158c-.054.557-.062,1.112-.062,1.582V88.82h-.922c0-.093-.008-.185-.008-.277v-18.8c0-19.942,0-46.86,0-57.9-.008-.2-.008-.4,0-.6a6.421,6.421,0,0,1,6.726-6.1h.8c.162,0,.329,0,.438.007C74.5,5.261,74.5,5.431,74.5,5.6Zm.217,3.112h.01l.009.017ZM91.9,37.06a4.252,4.252,0,0,1-.053,1.258c-.161.455-.677,1.106-1.23,1.106l-.055,0a1.656,1.656,0,0,1-1.25-1.017l-.03-.111a8.972,8.972,0,0,1,0-2.53,1.614,1.614,0,0,1,1.186-1.133l.109-.012c.554,0,1.079.62,1.26,1.038l.03.1A3.661,3.661,0,0,1,91.9,37.06Zm5.854-1.185a20.005,20.005,0,0,1,0,2.284,1.289,1.289,0,0,1-1.25,1.3h-.112a1.323,1.323,0,0,1-1.306-1.325,7.131,7.131,0,0,1-.01-.791l.005-.32a10.919,10.919,0,0,1,.009-1.13,1.314,1.314,0,0,1,1.3-1.333,1.3,1.3,0,0,1,1.36,1.21Zm5.85,1.088a3.66,3.66,0,0,1-.037,1.315c-.2.506-.716,1.128-1.273,1.138h-.065l-.063-.015a1.6,1.6,0,0,1-1.139-1.058,9.409,9.409,0,0,1-.014-2.611,1.649,1.649,0,0,1,1.1-1.123,1.116,1.116,0,0,1,.929.149,1.36,1.36,0,0,1,.549.968A11.151,11.151,0,0,1,103.6,36.963Zm5.83-1.158a13.993,13.993,0,0,1-.034,2.463,1.5,1.5,0,0,1-1.22,1.15l-.063,0a1.763,1.763,0,0,1-1.238-.994l-.032-.1a3.928,3.928,0,0,1-.049-1.329,3.677,3.677,0,0,1,.047-1.251l.031-.1a1.914,1.914,0,0,1,1.086-1.02,1.108,1.108,0,0,1,.972.164A1.329,1.329,0,0,1,109.431,35.805ZM89.247,31.74a12.993,12.993,0,0,1,.029-2.47,1.632,1.632,0,0,1,1.115-1.126,1.093,1.093,0,0,1,.909.124,1.364,1.364,0,0,1,.567.973,9.22,9.22,0,0,1,.023,1.217l0,.008a3.691,3.691,0,0,1-.037,1.329l-.035.1a1.914,1.914,0,0,1-1.1,1,1.33,1.33,0,0,1-.345.047,1.021,1.021,0,0,1-.613-.2A1.342,1.342,0,0,1,89.247,31.74Zm5.891.063a13.233,13.233,0,0,1-.032-2.485A1.24,1.24,0,0,1,96.337,28.1h.027l.1.006a1.163,1.163,0,0,1,.841.309,1.262,1.262,0,0,1,.432.873,10.72,10.72,0,0,1,.012,1.25l0,.041a9.951,9.951,0,0,1-.016,1.2,1.388,1.388,0,0,1-.554,1,1.073,1.073,0,0,1-.61.186,1.242,1.242,0,0,1-.293-.036,1.679,1.679,0,0,1-1.107-.993Zm8.479-1.608,0,.141.005.516a8.168,8.168,0,0,1-.014.828,1.226,1.226,0,0,1-.33.862,1.278,1.278,0,0,1-.891.423l-.029,0-.119,0c-.031,0-.062.005-.093.005a1.228,1.228,0,0,1-1.169-1.133l0-.155c-.034-.773-.032-1.575.006-2.346a1.222,1.222,0,0,1,1.185-1.234,1.7,1.7,0,0,1,1.015.318,1.256,1.256,0,0,1,.422.823l.013-.015v.2C103.628,29.7,103.623,29.947,103.617,30.195Zm5.876.321a4.326,4.326,0,0,1-.1,1.375,1.663,1.663,0,0,1-1.158,1.013l-.1.023-.1-.02a1.539,1.539,0,0,1-1.146-.962l-.03-.125a13.952,13.952,0,0,1-.028-2.553,1.107,1.107,0,0,1,.3-.776,1.163,1.163,0,0,1,.808-.383,1.09,1.09,0,0,1,.364.04,1.788,1.788,0,0,1,1.079.994l.031.1a4.38,4.38,0,0,1,.059,1.137Z" transform="translate(-3.762 -1.307)"/></svg>