<svg id="Camada_1" data-name="Camada 1" xmlns="http://www.w3.org/2000/svg" viewBox="0 0 238 119"><defs><style>.cls-1{fill:#fff;fill-rule:evenodd;}</style></defs><path class="cls-1" d="M136.12,35.61c1.66-.6,9.26-1.23,9.26,3.41a2.37,2.37,0,0,1-2.3,2.44h-.2c-3.27.06-1.93-3.8-2-3.8-7.85,0-4.68,16.86-4.36,19.5A2.64,2.64,0,0,1,134.07,60a3.23,3.23,0,0,1-.44,0,2.32,2.32,0,0,1-2.5-1.69c-.57-1.55-.7-16.58,7-21.58-2.12,0-8.41,4.19-11.12,12.53a29.49,29.49,0,0,1,0,6.23c-.07,2.22-.63,3.7-2.67,3.7-1.66,0-2.85-1.23-2.64-3.7.39-4.43,2-17.38-2.54-19.46-4.78,1.8-2.5,18.37-2.5,19.46.08,1.73-.31,3.7-2.81,3.7-2.71,0-2.64-1.72-2.68-3.73,0-1.72.11-4.75.25-6.2-3.69-8.87-9-12.57-11-12.57,7.71,5,7.5,20.06,6.93,21.61A2.26,2.26,0,0,1,104.87,60,2.71,2.71,0,0,1,102,57.41a1.5,1.5,0,0,1,0-.3c.28-2.6,3.41-19.46-4.43-19.46-.11,0,1.26,3.87-2,3.8a2.37,2.37,0,0,1-2.5-2.23V39c0-4.65,7.6-4.05,9.26-3.41,3.83,1.4,7.42,5.49,9.5,10.34.84-5,3.77-10.8,7.39-11.44,3.63.6,6.44,6.45,7.43,11.37,2-4.5,4.64-8.1,9.5-10.27Zm-41-17.06L93,17.07h2.55l.79-2.39.8,2.39h2.54l-2,1.48.76,2.38-2.06-1.46-2.07,1.46.79-2.38Zm45.79,0-2.06-1.48h2.55l.79-2.39.81,2.39h2.53l-2,1.48.76,2.38-2.06-1.46-2.07,1.46.79-2.38Zm-6.15,5.2L134,26.12,136,24.67l2.06,1.45-.76-2.37,2-1.48h-2.54l-.8-2.39-.79,2.39h-2.55l2.06,1.48Zm0-10.5L134,15.62,136,14.17l2.06,1.45-.76-2.37,2-1.48h-2.54L136,9.38l-.79,2.39h-2.55l2.06,1.48Zm-8.13,12.51-2.06-1.48h2.55l.79-2.39.8,2.39h2.53l-2,1.48.76,2.37-2.06-1.45-2.06,1.45.79-2.37Zm0-14.58-2.06-1.47h2.55l.79-2.39.8,2.39h2.53l-2,1.47.76,2.38-2.06-1.46-2.06,1.46.79-2.38ZM101.26,23.75l-.79,2.38,2.07-1.46,2.06,1.46-.77-2.38,2-1.48h-2.53l-.81-2.39-.79,2.39H99.2l2.07,1.48Zm0-10.5-.79,2.38,2.07-1.46,2.06,1.46-.77-2.38,2-1.49h-2.53l-.81-2.38-.79,2.38H99.2l2.07,1.48Zm8.12,12.51-2.06-1.48h2.55l.79-2.38.8,2.38H114l-2,1.48.77,2.38-2.06-1.46-2.07,1.46.79-2.38Zm0-14.57-2.06-1.48h2.55l.79-2.38.8,2.38H114l-2,1.48.77,2.38-2.06-1.46-2.07,1.46.79-2.38ZM118,26.49,115.93,25h2.56l.78-2.38.8,2.38h2.53l-2,1.48.76,2.38-2.06-1.46-2.07,1.46.79-2.38Zm0-16.24-2.07-1.48h2.56l.78-2.39.8,2.39h2.53l-2,1.48.76,2.38-2.06-1.46-2.07,1.46.79-2.38Zm35.5,96.81,2.63,0h.24c-.19-.57-.44-1.23-.74-2s-.56-1.33-.75-1.73l-1.38,3.69Zm-4.5,5.37,0-.65.64-.14a2.59,2.59,0,0,0,.9-.26,1.63,1.63,0,0,0,.39-.55l1.93-5.06,2.26-5.94h1l.09.17,1.67,3.94c.37.83.71,1.64,1,2.43s.56,1.43.77,1.93c.13.3.31.74.53,1.34a13.33,13.33,0,0,0,.52,1.23,1.75,1.75,0,0,0,.29.47,1.25,1.25,0,0,0,.56.19,3.47,3.47,0,0,1,.84.22c0,.15,0,.31.05.46a1.79,1.79,0,0,1,0,.21q-.72,0-1.56-.06c-.57-.05-1.08-.07-1.53-.07l-1.09,0-1.63.09-.47,0c0-.23,0-.44,0-.65l1.07-.22a2.13,2.13,0,0,0,.55-.2.28.28,0,0,0,.09-.22.73.73,0,0,0,0-.25l-.39-.94-.74-1.88h-3.65c-.14.3-.42,1-.84,2.24a2.7,2.7,0,0,0-.18.69.39.39,0,0,0,.13.35,1.73,1.73,0,0,0,.85.26l.68.1c0,.23,0,.39,0,.48a1.64,1.64,0,0,1,0,.22c-.4,0-1.34-.06-2.83-.16l-.4.07a8.55,8.55,0,0,1-1.34.11ZM138.28,99.51c-.05.13-.12.38-.22.74a18.13,18.13,0,0,1-.82,2.49,2.27,2.27,0,0,0,.56.37c.08,0,.2-.1.36-.31a5.83,5.83,0,0,1,1.23-1.3,2.87,2.87,0,0,1,1.2-.17c1.09,0,1.73,0,1.93,0a.24.24,0,0,1,.14,0,.31.31,0,0,1,.06.13,15.57,15.57,0,0,1,.06,1.81l.05,3.61c0,1.67,0,2.89-.07,3.65a1,1,0,0,1-.12.48,6.6,6.6,0,0,1-1.37.43,1.29,1.29,0,0,0-.79.41v.3c0,.05,0,.12,0,.22l.7,0c.93-.08,1.5-.11,1.69-.11,1.2,0,2,0,2.49.07s1.11.07,1.67.07h.35l0-.25s0-.19-.05-.42a5,5,0,0,0-.51-.16l-.71-.15a2.15,2.15,0,0,1-.56-.12,3.34,3.34,0,0,1-.12-1V109.1l0-3V102a4.07,4.07,0,0,1,0-.61,6,6,0,0,1,.67,0,19.65,19.65,0,0,1,2,0,.48.48,0,0,1,.26.16,3.83,3.83,0,0,1,.38.79,5.65,5.65,0,0,0,.54,1.07,2.67,2.67,0,0,0,.68-.15,2,2,0,0,0,0-.43v-1.34c0-.88,0-1.55,0-2h-.71l-.1.23a1,1,0,0,1-.27.46l-.56.09h-3l-2.17,0h-1.15l-.2,0h-1.3a11.4,11.4,0,0,1-1.31,0,3.36,3.36,0,0,1-.41-.6l-.1-.15Zm-2.93.82a6.48,6.48,0,0,1,.17,1,13.14,13.14,0,0,1,.12,1.53,2.21,2.21,0,0,1,0,.37l-.1,0-.69,0-.11,0a5.29,5.29,0,0,0-.84-1.72,2.33,2.33,0,0,0-1.71-.76,2.18,2.18,0,0,0-1.49.49,1.56,1.56,0,0,0-.55,1.22,1.72,1.72,0,0,0,.55,1.18,5.49,5.49,0,0,0,2.27,1.08,10.85,10.85,0,0,1,1.41.55,4.24,4.24,0,0,1,1.26.83,3.8,3.8,0,0,1,.79,1.15,4,4,0,0,1,.21,1.37,4.87,4.87,0,0,1-.33,1.77,2.82,2.82,0,0,1-.58.87,5.76,5.76,0,0,1-.89.67,4.52,4.52,0,0,1-1.25.56,6.21,6.21,0,0,1-1.66.17,7.21,7.21,0,0,1-1.6-.19l-1.15-.33a2.22,2.22,0,0,1-.6-.24.42.42,0,0,1-.08-.18v-.11c0-.07,0-.5-.05-1.31,0-.42,0-.7,0-.88V109l.88,0c.31.71.51,1.13.6,1.28a3.08,3.08,0,0,0,.65.79,2.92,2.92,0,0,0,.86.48,3.31,3.31,0,0,0,1.08.18,3.46,3.46,0,0,0,1.14-.23,2,2,0,0,0,1-.72,1.68,1.68,0,0,0-.24-2.35l-.05,0a7.52,7.52,0,0,0-2.15-1,10.31,10.31,0,0,1-2.44-1.1,3.41,3.41,0,0,1-1.07-1.31,3.61,3.61,0,0,1-.39-1.57,3.44,3.44,0,0,1,1.08-2.58,4.41,4.41,0,0,1,3.22-1.06,7.77,7.77,0,0,1,1.35.16,10.37,10.37,0,0,1,1.45.4Zm-15,12.1v-.69l.63-.16a4.42,4.42,0,0,0,.93-.31,1.8,1.8,0,0,0,.17-.82v-1.13l0-2.18v-.52q.06-1.89.06-2l0-1.27,0-.52,0-1.09v-.41c0-.1,0-.2-.06-.3a3.71,3.71,0,0,0-1.28-.23l-.33,0,0-.84,2.73.11.63,0c.38,0,1,0,1.81-.07l.88-.06c0,.12,0,.22,0,.3s0,.25,0,.43c-.29.09-.58.18-.87.25a5.41,5.41,0,0,0-.81.24,2.92,2.92,0,0,0-.06.72c0,.22,0,.45,0,.67q0,1.62,0,2.49v2.52l0,1.28,0,1.91v.37a.78.78,0,0,0,0,.21,9.38,9.38,0,0,0,1.06.18l.58.07a2.59,2.59,0,0,1,0,.48v.33a.67.67,0,0,0-.2,0l-.35,0-.25,0-1.27-.14-1.7,0a14.3,14.3,0,0,0-1.46.1l-.83.07ZM111,105.65l.67,0a3.54,3.54,0,0,0,2.3-.58,2,2,0,0,0,.68-1.56,4,4,0,0,0-.17-1.13,2,2,0,0,0-.42-.79,2.2,2.2,0,0,0-.92-.57,4.74,4.74,0,0,0-1.35-.14,4.85,4.85,0,0,0-.76,0v1.47l0,.78v1q0,.44,0,1.14v.26Zm-4.3,6.19a2.09,2.09,0,0,1,.73-.2,3.75,3.75,0,0,0,.88-.2l.06-.28c0-.09,0-.4,0-.92v-2.13l0-1.15,0-.89,0-.51q0-1.05,0-2c0-1.33,0-2.18,0-2.55l-.57-.11c-.51,0-.86-.06-1-.09l0-.58,0-.1a5.24,5.24,0,0,1,.88-.08h.89l.75.06.5,0,1.2-.06a23.16,23.16,0,0,1,2.36-.11,4.56,4.56,0,0,1,3.11,1,3,3,0,0,1,1.16,2.29,2.82,2.82,0,0,1-.62,1.76,3.81,3.81,0,0,1-1.93,1.18,5.33,5.33,0,0,0,.31.47c.27.38.48.71.65,1l1.53,2.48a7.09,7.09,0,0,0,.75,1.15,2.49,2.49,0,0,0,.73.36,4.07,4.07,0,0,1,.66.33,1.36,1.36,0,0,1,.06.29,1.94,1.94,0,0,1,0,.22h-.45l-.5-.07h-.39a6.47,6.47,0,0,0-.76-.05h-1c-.07,0-.3,0-.67.07l-.42,0-.32-.63c-.27-.48-.46-.84-.56-1.07-.28-.62-.77-1.61-1.45-3a3.66,3.66,0,0,0-.67-1.06,1.75,1.75,0,0,0-1-.2c-.13,0-.35,0-.65,0q0,.33,0,.66l0,2.12-.05,1.8a2.26,2.26,0,0,0,.7.25,6.94,6.94,0,0,1,1.28.36,4.23,4.23,0,0,1,0,.71h-.22l-.39,0c-1.38-.12-2.19-.18-2.44-.18h-.36l-1.32.09a8,8,0,0,1-1.1.07h-.41c0-.16,0-.26,0-.3a1.53,1.53,0,0,1,0-.3Zm-9.4-4.79,2.63,0h.24c-.19-.57-.44-1.23-.75-2s-.55-1.33-.74-1.72l-1.38,3.69Zm-4.5,5.37,0-.65a4.43,4.43,0,0,1,.64-.14,3.1,3.1,0,0,0,.9-.26,1.67,1.67,0,0,0,.39-.56l1.93-5,2.26-6h1l.08.17,1.67,3.94c.37.84.71,1.65,1,2.44s.56,1.42.77,1.92c.13.3.3.75.53,1.35a12.16,12.16,0,0,0,.52,1.22,1.49,1.49,0,0,0,.29.47,1.14,1.14,0,0,0,.56.19,4,4,0,0,1,.84.22c0,.16,0,.31,0,.47a1.79,1.79,0,0,1,0,.21c-.48,0-1,0-1.56-.07s-1.08-.06-1.53-.07-.87,0-1.09,0l-1.63.08-.46,0c0-.22,0-.43,0-.64l1.06-.23a1.85,1.85,0,0,0,.56-.19.31.31,0,0,0,.09-.22.6.6,0,0,0,0-.26l-.38-.93-.75-1.88H96.92c-.13.3-.41,1.06-.84,2.25a2.73,2.73,0,0,0-.18.68.43.43,0,0,0,.14.36,1.66,1.66,0,0,0,.84.26l.68.1c0,.23,0,.39,0,.47a1.79,1.79,0,0,1,0,.23c-.4,0-1.34-.06-2.83-.17l-.39.07a8.78,8.78,0,0,1-1.35.11Zm-17.29,0,0-.65a2.78,2.78,0,0,0,1.53-.49,2.58,2.58,0,0,0,.32-1.19l.12-3.4.15-3.47c0-.2,0-.33,0-.38a4.35,4.35,0,0,0-.16-1.56,2.57,2.57,0,0,0-1.23-.41l-.42-.09c0-.16,0-.3,0-.4v-.3c.24,0,.51,0,.84,0l2.8.1.26,0,.44,0a2.48,2.48,0,0,1,.33.51q.34.69.93,2l.1.26,1.5,3.24c0,.08.08.19.15.34s.19.45.3.65l.32.69c.12.25.21.46.32.65.09-.15.17-.32.26-.5.25-.58.5-1.12.74-1.62.42-.86,1-2.18,1.71-4,.12-.29.3-.72.57-1.3s.41-.88.44-.91a.46.46,0,0,1,.34-.08h.3l1.19-.05c.68,0,1.21,0,1.61-.06s.64,0,.69,0l.23,0a1.7,1.7,0,0,1,0,.21l0,.29s0,.14,0,.25a5.54,5.54,0,0,0-1.46.4c-.26.13-.4.29-.4.48v.15l.17,2.92q0,.41.15,4c0,.53.06,1.21.12,2a2,2,0,0,1,0,.24.37.37,0,0,0,.1.3,17,17,0,0,0,1.71.55,2.2,2.2,0,0,1,0,.23c0,.14,0,.27,0,.4-.17,0-.6,0-1.3-.11s-1.3-.1-2-.11c-.92,0-1.82,0-2.69.12l-.34,0,0-.66a5.46,5.46,0,0,1,1-.26.84.84,0,0,0,.58-.26,2.17,2.17,0,0,0,.13-1c0-.21,0-.4,0-.55,0-.67,0-1.6-.06-2.8l-.16-3.37c0-.48,0-.81-.07-1L85.42,108c0,.13-.14.31-.25.55l-.3.64c-.49,1.18-.84,2.09-1,2.71-.06.16-.13.37-.24.62h-.73L82.36,111q-.23-.57-.78-1.74c-.22-.45-.39-.82-.51-1.1l-.12-.25-.12-.25a.16.16,0,0,0,0-.09l-1.42-3.07-.87-1.86-.08,4.51-.07,2.93a1.59,1.59,0,0,0,.27,1,2.35,2.35,0,0,0,1.18.53l.45.12v.7c-.39,0-.79,0-1.19-.09-.56-.05-1.12-.07-1.68-.07l-1.89.09ZM143.1,90.73l.24-.07v0a1.93,1.93,0,0,0,1.41.67A1.88,1.88,0,0,0,146.58,90c12.28-1.72,10.95-17,15.35-17.85-2.43-.21-3.84,1.7-5.21,4.26.1-4.47-2.05-9-2.4-11.12-.35-1.2,1.34-2.18,2.43-1.23.64.84.78,1.51.39,3,.91.24,1.9-1.86.53-3.27-1.44-1.76-4.37-1.16-4.4,1.16.95,5.45,3.59,10,1.79,14.22a11.26,11.26,0,0,0-.45,1.27c1.69-7.32-8.1-17-8.38-20-.31-2,3-2.43,1.23.88a1.84,1.84,0,0,0,1.65-2,1.52,1.52,0,0,0,0-.21,1.81,1.81,0,0,0-1.87-1.51,2.46,2.46,0,0,0-2.07,1.65c-.32,1.38.74,4.26,3.1,7.64,3.48,4.92,6.2,10.84,4.64,14.75-1.06-6.79-6.4-6.23-9.29-10.84-2-3.31,3.84-5,1.83.17,2.78-.6,1.65-4-.46-4.4a2.65,2.65,0,0,0-3,2.15c-.36,1.2.45,3.66,3.34,6-4.9-.39-7.64,3.76-4.75,5.49,0-6,10.87-4,11.08,2-5.21-7.78-11.3.67-6.54,2.53a2.33,2.33,0,0,0,2.67-1c.08-.11-2.21.31-2.35-1.3a1.46,1.46,0,0,1,1.44-1.38c1.76.07,4,4.12-.71,7.22a2,2,0,0,0-1.44-.67,1.86,1.86,0,0,0-1.83,1.55c-8-.88-6.37-14.26-6.3-19,.1-5-6-4.79-5.91-.7,0,3.73,2.81,17.07,7.32,19.5-6.34-.53-10.63-9.86-10.63-19.68,0-3.83-3.45-3.87-4.65-2.08,0,0,0,0,0-.07l-.08.07,0,0a2.1,2.1,0,0,0-.24.5c-.68,1.37-2,3.91-3.2,6.82v3.56a3.74,3.74,0,0,1,.1.67,61.91,61.91,0,0,1,1.47,7.39c.32,2.61-1,3.27-1.58,3.45V91c4.4-.88,3-8.37.57-14.78a26.38,26.38,0,0,1,2.67-5.63c.84,6,5.07,21.5,20.56,20.16ZM119.3,91v-1.3h0c-1.66-.14-1.69-2.39-1.55-3.44a43.06,43.06,0,0,1,1.19-7.4s.15-.38.32-1c0,.1,0,.21.07.31V74.61l-.07.14a38,38,0,0,0-3.73-7.39c-1.2-1.8-4.61-1.73-4.61,2.07,0,9.86-4.32,19.19-10.66,19.68,4.53-2.39,7.35-15.77,7.35-19.5.07-4.08-6-4.29-6,.7.11,4.75,1.73,18.3-6.4,19-.1,0-.14,0-.17,0a1.88,1.88,0,0,0-1.83-1.59,2,2,0,0,0-1.45.67c-4.75-3.1-2.46-7.14-.67-7.21a1.51,1.51,0,0,1,1.45,1.37c-.18,1.62-2.47,1.2-2.4,1.3a2.43,2.43,0,0,0,2.71,1c4.76-1.87-1.37-10.31-6.54-2.54.17-6,11.08-8,11-2,2.88-1.72.18-5.88-4.72-5.49,2.86-2.36,3.67-4.82,3.31-6a2.62,2.62,0,0,0-2.92-2.15c-2.15.42-3.24,3.8-.49,4.4-2-5.21,3.9-3.48,1.83-.17-2.85,4.61-8.24,4-9.26,10.84-1.58-3.91,1.13-9.82,4.61-14.75,2.36-3.38,3.45-6.26,3.1-7.64a2.47,2.47,0,0,0-2.07-1.65,1.77,1.77,0,0,0-1.83,1.51,1.8,1.8,0,0,0,1.34,2.18l.24,0c-1.73-3.31,1.54-2.92,1.27-.88-.29,3-10.1,12.71-8.38,20-.07-.17-.25-.73-.46-1.26-1.83-4.19.85-8.77,1.76-14.22,0-2.32-3-2.92-4.4-1.16-1.37,1.41-.35,3.52.56,3.27-.38-1.48-.24-2.15.39-3a1.45,1.45,0,0,1,2.43,1.23C83.3,67.49,81.16,72,81.26,76.5c-1.33-2.56-2.78-4.47-5.17-4.26,4.4.85,3,16.12,15.31,17.85a1.9,1.9,0,0,0,3.27.7v0c.1,0,.25,0,.35.06,16.06,1.52,20.1-15.06,20.77-20.62a21.7,21.7,0,0,1,3,6c-2.5,6.51-4.44,14.11.42,14.78a.09.09,0,0,0,.07,0Zm11.9-27.8a2.39,2.39,0,1,1,0,.1Zm-9.08-.7a2.39,2.39,0,1,1,2.43,2.36h0A2.4,2.4,0,0,1,122.12,62.47Zm-10.74.25a2.38,2.38,0,1,1,2.4,2.39,2.37,2.37,0,0,1-2.4-2.39Zm-8.87.56a2.39,2.39,0,1,1,2.4,2.39,2.39,2.39,0,0,1-2.4-2.39v0Z"/></svg>