<svg xmlns="http://www.w3.org/2000/svg" width="108.034" height="91.329" viewBox="0 0 108.034 91.329"><defs><style>.a{fill:#85b653;}</style></defs><g transform="translate(0.009 0.01)"><path class="a" d="M107.993,75c-.011-1.364-.022-2.774.024-4.157.13-3.814-1.465-7.1-4.878-10.042-2.344-2.02-5.226-2.632-8.219-3.127-.779-.13-.946-.347-.941-1.216.028-4.013.026-8.026.025-12.038V39.159c0-.278.023-.558.048-.859l.01-.118,2.58,0c2.191.005,4.333.008,6.475-.009,3.279-.027,4.872-1.634,4.872-4.914q.008-14.145,0-28.294c0-3.3-1.674-4.969-4.975-4.969l-22.177,0c-2.173,0-4.346-.009-6.519.012-2.536.025-4.3,1.566-4.386,3.835-.119,3.221-.1,6.5-.08,9.67l.013,1.819a1.927,1.927,0,0,0-.007.437,1.8,1.8,0,0,0,1.969,1.6,1.89,1.89,0,0,0,1.847-2.083c.008-.244.007-.487.007-.73v-.222l.006-2.632c.006-2.172.014-4.417-.025-6.626a1.415,1.415,0,0,1,.218-1,1.284,1.284,0,0,1,.906-.23c9.388.026,18.9.028,28.29.006.849,0,1.069.211,1.069,1.024q-.028,14.212,0,28.427c0,.845-.2,1.052-1.024,1.052-9.431-.022-18.994-.022-28.425,0h-.01a.814.814,0,0,1-1.014-1.036c.03-1.483.025-2.965.02-4.448,0-.933-.006-1.865,0-2.8.012-1.6-.626-2.433-1.894-2.469a1.8,1.8,0,0,0-1.347.455,2.724,2.724,0,0,0-.613,1.954c-.014,2.417-.025,4.831,0,7.248.032,3.384,1.575,4.9,5,4.918,1.808.01,3.618.009,5.432.009q1.909,0,3.821,0c.319,0,.637.025.971.051l.117.008V55.94c-.551-.194-1.1-.369-1.631-.541a19.373,19.373,0,0,1-4.1-1.666c-3.742-2.249-7.428-4.739-10.991-7.145L66.8,45.47a23.816,23.816,0,0,0-13.4-4.316c-6.992-.056-13.136-.058-18.772-.006a22.978,22.978,0,0,0-16.363,6.635A21.851,21.851,0,0,1,6.574,53.671C2.4,54.414,0,57.329,0,61.669V75.592a4.867,4.867,0,0,0,2.929,4.764c.654.306,1.314.6,1.974.895,1.032.46,2.1.936,3.107,1.448a2.091,2.091,0,0,1,.948,1.065,10.618,10.618,0,0,0,9.657,7.546q.224.009.444.009a10.39,10.39,0,0,0,9.56-6.274,1.7,1.7,0,0,1,1.924-1.151c15.705.038,31.629.04,47.38,0a1.705,1.705,0,0,1,1.868,1.228,9.841,9.841,0,0,0,9.14,6.162l.163,0A9.756,9.756,0,0,0,98.575,85.6c.735-1.52,1.409-1.932,2.807-1.683a1.366,1.366,0,0,0,.286,0,6.274,6.274,0,0,0,.686,0A6.036,6.036,0,0,0,108,77.536C108.007,76.693,108,75.849,107.993,75Zm-23.37,1.12a6.6,6.6,0,0,1,4.334-1.95l.482-.009a6.648,6.648,0,0,1-.08,13.3h-.02a6.65,6.65,0,0,1-4.716-11.337Zm19.542-1.082c.015.773.029,1.545.017,2.329a2.952,2.952,0,0,1-.276,1.3A2.942,2.942,0,0,1,100,80.091a1.4,1.4,0,0,1-.268-.69,10.536,10.536,0,0,0-18.107-5.757c-1.486,1.516-2.175,3.057-2.869,6.484l-1.344.007-9.819,0q-18.276,0-36.548.032c-1.173-.014-1.509-.135-1.73-1.412A10.326,10.326,0,0,0,19.173,70.3h-.121A10.535,10.535,0,0,0,8.857,78.385c-.029.12-.063.24-.109.4-.352-.159-.7-.313-1.05-.467C6.514,77.795,5.4,77.3,4.381,76.76a1.573,1.573,0,0,1-.529-1.208c-.042-4.313-.081-9.335,0-14.329.038-2.259,1.156-3.38,3.856-3.868A23.8,23.8,0,0,0,17.8,53.171c1.022-.76,1.987-1.624,2.92-2.458.29-.259.58-.518.876-.779a18.9,18.9,0,0,1,12.438-4.911c6.621-.11,13.336-.11,19.951,0A19.134,19.134,0,0,1,64.66,48.657c1.135.783,2.284,1.546,3.434,2.31,1.868,1.241,3.8,2.525,5.631,3.872,4.749,3.488,10.205,4.727,14.428,5.417,1.846.3,3.712.689,5.518,1.062,1,.206,2,.413,3.007.607,3.926.761,7.891,4.658,7.538,9.247C104.116,72.461,104.142,73.774,104.165,75.042ZM14.322,76.165a6.6,6.6,0,0,1,4.319-1.988l.531-.014a6.576,6.576,0,0,1,6.552,6.6,6.661,6.661,0,0,1-6.568,6.692h-.081a6.648,6.648,0,0,1-4.753-11.292ZM89.064,43.638l0-5.375.973-.048V56.661a1.073,1.073,0,0,1-.726-.181c-.195-.176-.282-.548-.272-1.174C89.077,51.417,89.07,47.462,89.064,43.638Z"/><path class="a" d="M75.626,57.6q-2.982-1.969-5.952-3.954c-1.806-1.2-3.611-2.4-5.409-3.594a18.024,18.024,0,0,0-9.94-3.459l-2.22-.013c-6.212-.039-12.636-.077-18.95.021-3.644.055-7.151,1.464-10.72,4.308-2.172,1.732-4.568,3.549-7.3,5.538a4.528,4.528,0,0,0-1.995,4.934,4.367,4.367,0,0,0,4.255,3.182c.671.012,1.343.015,2.015.015l1.3,0c.817,0,1.635,0,2.451,0,1.519-.017,2.29-.615,2.325-1.871a1.791,1.791,0,0,0-.45-1.356,2.387,2.387,0,0,0-1.812-.57l-1.072.007c-1.4.01-2.851.022-4.268-.04a1.825,1.825,0,0,1-.75-.34c-.045-.029-.091-.057-.136-.084a3.855,3.855,0,0,1,.509-.794c.947-.741,1.913-1.458,2.878-2.176,1.478-1.1,3.006-2.231,4.439-3.439,3.46-2.921,7.633-4.008,13.5-3.52V60.783H37.293c-1.18,0-2.3-.005-3.424.01a2.09,2.09,0,0,0-1.544.553,1.8,1.8,0,0,0-.457,1.349,1.834,1.834,0,0,0,2.039,1.872c.229.006.454.006.68.006h40.36c.223,0,.452,0,.65-.018a2.852,2.852,0,0,0,.4-.041,2.716,2.716,0,0,0,2.2-3.137A5.2,5.2,0,0,0,75.626,57.6ZM73.287,60.65H42.377v-10.4a51.325,51.325,0,0,0,5.721.037c3.693-.109,7.182-.217,10.623,1.129a20.178,20.178,0,0,1,3.574,1.938c2.907,1.89,5.84,3.851,8.676,5.747Z"/><path class="a" d="M45.588,66.161c-1.617-.04-3.2-.039-4.665,0a1.906,1.906,0,0,0-.293,0,1.775,1.775,0,0,0-1.6,1.908c0,.063,0,.126.007.189a1.819,1.819,0,0,0,1.94,1.655c.532.02,1.064.014,1.6.01l.691,0,.7,0c.233,0,.466,0,.695,0,.293,0,.579,0,.852-.017a1.546,1.546,0,0,0,.263,0A1.765,1.765,0,0,0,47,69.326a1.719,1.719,0,0,0,.449-1.231,1.758,1.758,0,0,0-1.864-1.934Z"/><path class="a" d="M89.283,85.837h.028a5.009,5.009,0,0,0,.124-10.016H89.31a5.009,5.009,0,0,0-.027,10.017Zm1.161-4.958a1.242,1.242,0,0,1-.433.922.819.819,0,0,1-.7.127,2.482,2.482,0,0,1-.99-.726c-.124-.122-.249-.244-.375-.357l.018-.252c.141-.1.281-.2.422-.31a2.434,2.434,0,0,1,1.058-.587,1.035,1.035,0,0,1,.248.015A.975.975,0,0,1,90.444,80.879Z"/><path class="a" d="M19.09,85.808h.037a5.063,5.063,0,0,0,4.959-5.031A4.967,4.967,0,0,0,22.6,77.254a5,5,0,1,0-3.508,8.554Zm-1.169-5.27a.971.971,0,0,1,.961-.857,1.051,1.051,0,0,1,.112.007,2.422,2.422,0,0,1,1.029.649c.135.116.269.232.4.337l0,.244c-.131.105-.261.219-.39.333a2.474,2.474,0,0,1-1.036.67.855.855,0,0,1-.7-.177,1.273,1.273,0,0,1-.378-.974A1.058,1.058,0,0,1,17.921,80.538Z"/><path class="a" d="M94.07,13.6a1.775,1.775,0,1,0,0-3.55H83.364a1.49,1.49,0,0,0-1.486,1.488v15.6a1.488,1.488,0,0,0,1.485,1.484h10.83a1.775,1.775,0,1,0,0-3.55H85.756V21.037H92.92a1.775,1.775,0,1,0,0-3.55H85.759V13.6Z"/></g></svg>