<svg xmlns="http://www.w3.org/2000/svg" width="129.429" height="34.992" viewBox="0 0 129.429 34.992"><defs><style>.a,.c{fill:#171716;}.b{fill:gold;}.c{fill-rule:evenodd;}</style></defs><g transform="translate(-1393.842 -1183.4)"><path class="a" d="M1442.692,1218.392l-6.107-6.13h-20.008v1.722h-10.538l-4.811-4.809v-7.243h-2.117l-5.27-5.308V1183.4h96.326l6.119,6.117h15.023a3.444,3.444,0,0,1,3.089-1.97,3.5,3.5,0,0,1,2.546,1.149l5.449,5.457a3.478,3.478,0,0,1,.879,2.465v.046l-.008.046a3.557,3.557,0,0,1-1.5,2.541v13.01h-22.025l-3.335,6.13Z" transform="translate(0 0)"/><path class="b" d="M1521.606,1212.1H1499.85l-3.336,6.128h-53.04l-6.107-6.128h-20.954v1.722h-9.594l-4.419-4.42v-7.633H1399.9l-4.88-4.917v-12.28H1490.4l6.118,6.119h15.759a2.732,2.732,0,0,1,4.672-1.049l5.479,5.489a2.808,2.808,0,0,1,.684,1.991,2.9,2.9,0,0,1-1.505,2.263Z" transform="translate(-0.504 -0.504)"/><path class="a" d="M1400.41,1192.97v2.649h9.1l0,15.28h2.7l0-15.28h65.5l0-2.653Z" transform="translate(-2.824 -4.112)"/><path class="a" d="M1424.95,1203.692v10.1h10.3l0-2.71-7.623,0,0-1.181h4.714v-2.415l-4.722,0,0-1.127h7.454l.006-2.664Z" transform="translate(-13.373 -8.723)"/><path class="a" d="M1469.077,1203.694l.01,10.093h2.662V1209.9h5.416l0,3.887h2.677v-10.093l-2.674,0v3.783h-5.416v-3.784Z" transform="translate(-32.341 -8.722)"/><path class="a" d="M1491.39,1203.7v10.092h2.675v-7.148l5.641,7.148,3.662,0v-10.1l-2.676,0v7.146l-5.641-7.146Z" transform="translate(-41.933 -8.723)"/><path class="c" d="M1518.838,1203.692l5.47,0a3.02,3.02,0,0,1,3.018,3.021v4.05a3.019,3.019,0,0,1-3.018,3.018l-5.47.006a3.019,3.019,0,0,1-3.019-3.019v-4.063a3.019,3.019,0,0,1,3.019-3.018m.416,2.667h4.656a.754.754,0,0,1,.755.754l0,3.208a.753.753,0,0,1-.755.754l-4.651.009a.755.755,0,0,1-.756-.754l0-3.217a.755.755,0,0,1,.755-.754" transform="translate(-52.434 -8.723)"/><path class="a" d="M1454.316,1209.965l0,.359a.754.754,0,0,1-.755.754h-4.645a.753.753,0,0,1-.754-.754l-.007-3.209a.756.756,0,0,1,.755-.755l4.652,0a.754.754,0,0,1,.755.754l0,.361h2.674l0-.761a3.019,3.019,0,0,0-3.019-3.019l-5.462,0a3.03,3.03,0,0,0-3.031,3.02l.005,4.052a3.019,3.019,0,0,0,3.018,3.019h5.474a3.018,3.018,0,0,0,3.019-3.019l0-.8Z" transform="translate(-22.196 -8.725)"/><path class="a" d="M1551.415,1197.463v2.687h-8.448a.887.887,0,0,0-.824.939l0,6.377a.878.878,0,0,0,.81.941l6.3,0v-2.035h-2.619v-2.682l5.305,0v7.427l-9.2,0a3.546,3.546,0,0,1-3.286-3.758l-.009-6.135a3.546,3.546,0,0,1,3.286-3.758Z" transform="translate(-62.595 -6.044)"/><path class="a" d="M1592.619,1213.791h-2.343l-3.02-6.163.006,6.163H1584.6l-.006-10.093h3.781l3.075,6.269,3.078-6.269,3.778,0,0,10.09h-2.665l0-6.163Z" transform="translate(-81.997 -8.726)"/><path class="a" d="M1530.893,1219.943h-47.636l0-2.709h45.911l3.359-6.182-4.006-7.351h3.044l2.488,4.588,2.481-4.588h3.043Z" transform="translate(-38.437 -8.727)"/><path class="a" d="M1601.59,1195.156a2.112,2.112,0,1,1,2.113,2.112,2.112,2.112,0,0,1-2.113-2.112m.294,0a1.817,1.817,0,1,0,1.819-1.818,1.82,1.82,0,0,0-1.819,1.818" transform="translate(-89.305 -4.146)"/><path class="c" d="M1604.833,1196.305c.2,0,.274.129.274.31v.4h.414v-.4c0-.306-.072-.463-.365-.49v-.012c.365-.054.383-.287.383-.606,0-.49-.181-.638-.653-.648h-1.1v2.16h.416v-.713Zm-.636-.354v-.739h.575c.3,0,.352.055.352.361s-.075.378-.38.378Z" transform="translate(-90.247 -4.926)"/><path class="a" d="M1604.833,1196.305c.2,0,.274.129.274.31v.4h.414v-.4c0-.306-.072-.463-.365-.49v-.012c.365-.054.383-.287.383-.606,0-.49-.181-.638-.653-.648h-1.1v2.16h.416v-.713Zm-.636-.354v-.739h.575c.3,0,.352.055.352.361s-.075.378-.38.378Z" transform="translate(-90.247 -4.926)"/><path class="a" d="M1524.307,1203.7l-5.47,0a3.019,3.019,0,0,0-3.019,3.018v4.063a3.019,3.019,0,0,0,3.019,3.019l5.47-.006a3.019,3.019,0,0,0,3.02-3.019v-4.049a3.021,3.021,0,0,0-3.02-3.021m.356,6.625a.754.754,0,0,1-.755.754l-4.652.009a.754.754,0,0,1-.755-.754l0-3.217a.755.755,0,0,1,.756-.754h4.656a.754.754,0,0,1,.755.754Z" transform="translate(-52.434 -8.723)"/></g></svg>