<svg xmlns="http://www.w3.org/2000/svg" width="128.139" height="91.006" viewBox="0 0 128.139 91.006"><defs><style>.a{fill:#85b653;}</style></defs><path class="a" d="M127.419,29.489l-.079.076a2.7,2.7,0,0,1-3.714-.059A82.472,82.472,0,0,0,65.259,5.094h-.168A83.122,83.122,0,0,0,4.578,31.564a2.671,2.671,0,0,1-1.944.843H2.621a2.667,2.667,0,0,1-1.736-.641,2.494,2.494,0,0,1-.3-3.512l.094-.1A88.474,88.474,0,0,1,65.088,0h.2A87.775,87.775,0,0,1,127.4,25.969,2.493,2.493,0,0,1,127.419,29.489ZM64.981,24.127h-.147A67.083,67.083,0,0,0,15.994,45.47l-.08.089a2.5,2.5,0,0,0,.292,3.52,2.65,2.65,0,0,0,1.732.643h.021a2.679,2.679,0,0,0,1.943-.84A61.733,61.733,0,0,1,64.837,29.228h.12a61.262,61.262,0,0,1,43.35,18.127,2.689,2.689,0,0,0,3.7.076l.091-.086a2.5,2.5,0,0,0-.009-3.532A66.593,66.593,0,0,0,64.981,24.127ZM31.988,60.43l-.1.1a2.5,2.5,0,0,0,.159,3.53,2.657,2.657,0,0,0,1.8.7h.02A2.643,2.643,0,0,0,35.743,64a41.465,41.465,0,0,1,56.713-.915,2.682,2.682,0,0,0,3.693-.048c.039-.037.074-.074.1-.109A2.494,2.494,0,0,0,96.1,59.4,46.836,46.836,0,0,0,31.988,60.43ZM73.861,80.589l0,.311A9.977,9.977,0,0,1,64.078,91c-.105,0-.21,0-.315,0a10.1,10.1,0,1,1,10.1-10.416ZM63.17,85.908A5.023,5.023,0,0,0,68.6,81.33c.012-.144.018-.287.018-.43a4.817,4.817,0,0,0-4.577-5h-.02c-.144-.012-.287-.019-.429-.019a5.024,5.024,0,0,0-.424,10.029Z" transform="translate(0 0.001)"/></svg>