<svg xmlns="http://www.w3.org/2000/svg" width="74.945" height="169.374" viewBox="0 0 74.945 169.374">
  <path id="União_1" data-name="União 1" d="M67.342,167.766V166.6a1.61,1.61,0,0,0-1.609-1.61H64.567a1.609,1.609,0,0,1,0-3.219h1.167a1.609,1.609,0,0,0,1.609-1.609V159a1.609,1.609,0,0,1,3.219,0v1.166a1.609,1.609,0,0,0,1.61,1.609h1.166a1.609,1.609,0,0,1,0,3.219H72.17a1.609,1.609,0,0,0-1.61,1.61v1.166a1.609,1.609,0,0,1-3.219,0Zm-31.477,0V166.6a1.61,1.61,0,0,0-1.61-1.61H33.089a1.609,1.609,0,0,1,0-3.219h1.166a1.61,1.61,0,0,0,1.61-1.609V159a1.609,1.609,0,1,1,3.219,0v1.166a1.61,1.61,0,0,0,1.609,1.609h1.167a1.609,1.609,0,1,1,0,3.219H40.692a1.61,1.61,0,0,0-1.609,1.61v1.166a1.609,1.609,0,0,1-3.219,0Zm-31.477,0V166.6a1.61,1.61,0,0,0-1.609-1.61H1.613a1.609,1.609,0,1,1,0-3.219H2.779a1.609,1.609,0,0,0,1.609-1.609V159a1.609,1.609,0,0,1,3.218,0v1.166a1.609,1.609,0,0,0,1.61,1.609h1.166a1.609,1.609,0,0,1,0,3.219H9.216a1.609,1.609,0,0,0-1.61,1.61v1.166a1.609,1.609,0,0,1-3.218,0Zm62.955-31.477v-1.166a1.609,1.609,0,0,0-1.609-1.609H64.567a1.609,1.609,0,0,1,0-3.218h1.167a1.61,1.61,0,0,0,1.609-1.609v-1.167a1.609,1.609,0,0,1,3.219,0v1.167a1.609,1.609,0,0,0,1.61,1.609h1.166a1.609,1.609,0,0,1,0,3.218H72.17a1.609,1.609,0,0,0-1.61,1.609v1.166a1.609,1.609,0,1,1-3.219,0Zm-31.477,0v-1.166a1.609,1.609,0,0,0-1.61-1.609H33.089a1.61,1.61,0,0,1,0-3.219h1.166a1.609,1.609,0,0,0,1.61-1.61v-1.166a1.609,1.609,0,0,1,3.219,0v1.166a1.609,1.609,0,0,0,1.609,1.61h1.167a1.61,1.61,0,1,1,0,3.219H40.692a1.609,1.609,0,0,0-1.609,1.609v1.166a1.609,1.609,0,1,1-3.219,0Zm-31.48,0v-1.166a1.609,1.609,0,0,0-1.61-1.609H1.61a1.609,1.609,0,0,1,0-3.218H2.776a1.609,1.609,0,0,0,1.61-1.609v-1.167a1.609,1.609,0,0,1,3.218,0v1.167a1.609,1.609,0,0,0,1.609,1.609h1.167a1.609,1.609,0,1,1,0,3.218H9.213A1.609,1.609,0,0,0,7.6,135.122v1.166a1.609,1.609,0,1,1-3.218,0Zm62.957-31.477v-1.166a1.61,1.61,0,0,0-1.609-1.61H64.567a1.609,1.609,0,0,1,0-3.218h1.167a1.609,1.609,0,0,0,1.609-1.609V96.042a1.609,1.609,0,0,1,3.219,0v1.166a1.609,1.609,0,0,0,1.61,1.609h1.166a1.609,1.609,0,0,1,0,3.218H72.17a1.609,1.609,0,0,0-1.61,1.61v1.166a1.609,1.609,0,0,1-3.219,0Zm-31.478,0v-1.166a1.61,1.61,0,0,0-1.61-1.61H33.088a1.609,1.609,0,0,1,0-3.218h1.166a1.609,1.609,0,0,0,1.61-1.609V96.042a1.609,1.609,0,1,1,3.218,0v1.166a1.609,1.609,0,0,0,1.61,1.609h1.166a1.609,1.609,0,0,1,0,3.218H40.691a1.61,1.61,0,0,0-1.61,1.61v1.166a1.609,1.609,0,1,1-3.218,0Zm-31.479,0v-1.166a1.609,1.609,0,0,0-1.61-1.61H1.61a1.609,1.609,0,0,1,0-3.218H2.776a1.609,1.609,0,0,0,1.61-1.609V96.042a1.609,1.609,0,0,1,3.218,0v1.166a1.609,1.609,0,0,0,1.609,1.609h1.167a1.609,1.609,0,1,1,0,3.218H9.213a1.609,1.609,0,0,0-1.609,1.61v1.166a1.609,1.609,0,0,1-3.218,0ZM67.341,73.333V72.167a1.609,1.609,0,0,0-1.609-1.609H64.567a1.61,1.61,0,1,1,0-3.219h1.166a1.609,1.609,0,0,0,1.609-1.61V64.564a1.609,1.609,0,0,1,3.219,0V65.73a1.609,1.609,0,0,0,1.609,1.61h1.166a1.61,1.61,0,1,1,0,3.219H72.169a1.609,1.609,0,0,0-1.609,1.609v1.166a1.609,1.609,0,1,1-3.219,0Zm-31.479,0V72.167a1.609,1.609,0,0,0-1.609-1.609H33.088a1.61,1.61,0,0,1,0-3.219h1.166a1.609,1.609,0,0,0,1.609-1.61V64.564a1.609,1.609,0,0,1,3.219,0V65.73a1.61,1.61,0,0,0,1.61,1.61h1.167a1.61,1.61,0,0,1,0,3.219H40.691a1.61,1.61,0,0,0-1.61,1.609v1.166a1.609,1.609,0,1,1-3.219,0Zm-31.478,0V72.167a1.609,1.609,0,0,0-1.61-1.609H1.609a1.61,1.61,0,0,1,0-3.219H2.775a1.609,1.609,0,0,0,1.61-1.61V64.564a1.609,1.609,0,0,1,3.218,0V65.73a1.609,1.609,0,0,0,1.61,1.61h1.166a1.61,1.61,0,1,1,0,3.219H9.213A1.609,1.609,0,0,0,7.6,72.167v1.166a1.61,1.61,0,0,1-3.219,0ZM67.341,41.856V40.69a1.609,1.609,0,0,0-1.609-1.61H64.567a1.609,1.609,0,1,1,0-3.219h1.166a1.609,1.609,0,0,0,1.609-1.609V33.087a1.609,1.609,0,0,1,3.219,0v1.166a1.609,1.609,0,0,0,1.609,1.609h1.166a1.609,1.609,0,1,1,0,3.219H72.169a1.609,1.609,0,0,0-1.609,1.61v1.166a1.609,1.609,0,0,1-3.219,0Zm-31.477,0V40.69a1.61,1.61,0,0,0-1.61-1.61H33.088a1.609,1.609,0,0,1,0-3.219h1.167a1.61,1.61,0,0,0,1.61-1.609V33.087a1.609,1.609,0,0,1,3.219,0v1.166a1.609,1.609,0,0,0,1.609,1.609h1.166a1.609,1.609,0,0,1,0,3.219H40.692a1.609,1.609,0,0,0-1.609,1.61v1.166a1.609,1.609,0,0,1-3.219,0Zm-31.48,0V40.69a1.609,1.609,0,0,0-1.61-1.61H1.609a1.609,1.609,0,0,1,0-3.219H2.775a1.609,1.609,0,0,0,1.61-1.609V33.087a1.609,1.609,0,0,1,3.218,0v1.166a1.609,1.609,0,0,0,1.61,1.609h1.166a1.609,1.609,0,1,1,0,3.219H9.213A1.609,1.609,0,0,0,7.6,40.69v1.166a1.61,1.61,0,0,1-3.219,0ZM67.341,10.379V9.213A1.609,1.609,0,0,0,65.733,7.6H64.567a1.61,1.61,0,1,1,0-3.219h1.166a1.609,1.609,0,0,0,1.609-1.61V1.609a1.609,1.609,0,0,1,3.219,0V2.775a1.609,1.609,0,0,0,1.609,1.61h1.166a1.61,1.61,0,1,1,0,3.219H72.169A1.609,1.609,0,0,0,70.56,9.213v1.166a1.609,1.609,0,1,1-3.219,0Zm-31.477,0V9.213A1.61,1.61,0,0,0,34.255,7.6H33.088a1.61,1.61,0,0,1,0-3.219h1.167a1.61,1.61,0,0,0,1.61-1.61V1.609a1.609,1.609,0,0,1,3.219,0V2.775a1.609,1.609,0,0,0,1.609,1.61h1.166a1.61,1.61,0,0,1,0,3.219H40.692a1.609,1.609,0,0,0-1.609,1.609v1.166a1.609,1.609,0,1,1-3.219,0Zm-31.478,0V9.213A1.609,1.609,0,0,0,2.778,7.6H1.612a1.61,1.61,0,1,1,0-3.219H2.778a1.609,1.609,0,0,0,1.609-1.61V1.609a1.609,1.609,0,0,1,3.218,0V2.775a1.61,1.61,0,0,0,1.61,1.61h1.166a1.61,1.61,0,0,1,0,3.219H9.216a1.609,1.609,0,0,0-1.61,1.609v1.166a1.609,1.609,0,1,1-3.218,0Z" fill="#36959d"/>
</svg>
