<svg xmlns="http://www.w3.org/2000/svg" width="26.298" height="26.306" viewBox="0 0 26.298 26.306">
  <path id="Caminho_285" data-name="Caminho 285" d="M-450.591,529.5q-2.86-.6-5.715-1.222a.969.969,0,0,0-.977.29c-.645.663-1.308,1.307-1.956,1.967a.238.238,0,0,1-.341.054,21.657,21.657,0,0,1-9.3-9.277.282.282,0,0,1,.071-.4c.662-.646,1.309-1.307,1.967-1.956a.9.9,0,0,0,.27-.888q-.633-2.944-1.269-5.887a.815.815,0,0,0-.914-.713,7.075,7.075,0,0,0-4.813,1.871,7.193,7.193,0,0,0-2.357,6.93,12.967,12.967,0,0,0,1.177,3.213A26.506,26.506,0,0,0-462.49,536.1a18.446,18.446,0,0,0,3.725,1.49,4.935,4.935,0,0,1,.834.18h.36a.393.393,0,0,1,.308,0h.514a.067.067,0,0,1,.1,0h.205a.071.071,0,0,1,.044-.024,5.8,5.8,0,0,0,2.6-.72,7.419,7.419,0,0,0,3.587-3.927,6.784,6.784,0,0,0,.452-1.958v-.976A1.019,1.019,0,0,0-450.591,529.5Zm-.886,1.8a5.784,5.784,0,0,1-4.784,4.758,3.947,3.947,0,0,1-.909.068,6.894,6.894,0,0,1-2.782-.668A24.793,24.793,0,0,1-472.3,524.65a18.838,18.838,0,0,1-1.929-4.37,5.754,5.754,0,0,1,4.7-7.115c.173-.025.234.019.269.189q.475,2.27.971,4.536a.271.271,0,0,1-.1.286q-1.037,1.033-2.071,2.07a.855.855,0,0,0-.2,1.154,23.2,23.2,0,0,0,10.981,10.971.846.846,0,0,0,1.114-.189q1.046-1.042,2.087-2.09a.311.311,0,0,1,.335-.1q2.215.485,4.436.945C-451.477,530.989-451.435,531.074-451.477,531.3Z" transform="translate(476.06 -511.465)" fill="#fff"/>
</svg>
