<svg xmlns="http://www.w3.org/2000/svg" width="23.792" height="23.797" viewBox="0 0 23.792 23.797">
  <path id="Caminho_320" data-name="Caminho 320" d="M161.279,1179.436q0-4.922,0-9.845a1.217,1.217,0,0,1,.939-1.267,1.693,1.693,0,0,1,.391-.033q9.809,0,19.619,0a1.234,1.234,0,0,1,1.342,1.343q0,9.8,0,19.6a1.248,1.248,0,0,1-1.34,1.353c-1.78,0-3.56,0-5.34,0-.175,0-.233-.034-.233-.225q.01-4.1,0-8.2c0-.178.049-.216.219-.214.836.009,1.672,0,2.507.007.138,0,.194-.023.213-.181q.184-1.519.4-3.035c.026-.184-.074-.161-.184-.161-.975,0-1.95-.005-2.925.005-.188,0-.228-.055-.226-.232.011-.7-.008-1.393.01-2.089a1.313,1.313,0,0,1,1.472-1.462c.588-.013,1.176-.011,1.764,0,.166,0,.2-.047.2-.206-.008-.874-.007-1.749,0-2.624,0-.141-.027-.2-.182-.207a15.219,15.219,0,0,0-3.333-.036,3.838,3.838,0,0,0-3.322,3.324,21.566,21.566,0,0,0-.088,2.735c-.007.261.113.61-.048.757-.14.129-.485.036-.74.037-.627,0-1.254.005-1.881,0-.161,0-.227.021-.225.209.011.99.009,1.981,0,2.972,0,.166.044.2.2.2.828-.009,1.656,0,2.484-.008.155,0,.209.026.209.2q-.009,4.122,0,8.243c0,.15-.036.194-.191.194q-5.224-.007-10.448-.005a1.221,1.221,0,0,1-1.265-1.3Q161.277,1184.359,161.279,1179.436Z" transform="translate(-160.529 -1167.541)" fill="none" stroke="#fff" stroke-width="1.5"/>
</svg>
