<svg xmlns="http://www.w3.org/2000/svg" width="36.435" height="36.556" viewBox="0 0 36.435 36.556">
  <g id="Grupo_5000" data-name="Grupo 5000" transform="translate(510.335 -22.85)">
    <path id="Caminho_16914" data-name="Caminho 16914" d="M-210.163,408.178c.128-.109.276-.068.42-.059a.149.149,0,0,0-.009.059Z" transform="translate(-272.217 -349.472)" fill="#212529" stroke="#707070" stroke-width="1.4"/>
    <path id="Caminho_16915" data-name="Caminho 16915" d="M-223.1,408.248l.345,0c.028.009.039.021.033.036s-.014.025-.022.025h-.342C-223.091,408.286-223.1,408.267-223.1,408.248Z" transform="translate(-260.458 -349.599)" fill="#212529" stroke="#707070" stroke-width="1.4"/>
    <path id="Caminho_16916" data-name="Caminho 16916" d="M-219.3,408.193a.28.28,0,0,0-.011-.061c.121,0,.251-.052.353.061Z" transform="translate(-263.905 -349.487)" fill="#212529" stroke="#707070" stroke-width="1.4"/>
    <path id="Caminho_16917" data-name="Caminho 16917" d="M-475.875,49.078q-2.242-2.285-4.531-4.524a3.274,3.274,0,0,0-2.963-.981A3.957,3.957,0,0,0-485.5,44.8q-1.166,1.158-2.324,2.324c-.1.1-.173.187-.342.087-.51-.3-1.048-.553-1.546-.87a25.07,25.07,0,0,1-4.848-4.1,20.272,20.272,0,0,1-3.631-5.024.351.351,0,0,1,.1-.49,35.049,35.049,0,0,0,2.7-2.721,3.246,3.246,0,0,0-.027-4.524c-1.49-1.638-3.1-3.163-4.67-4.722a4.362,4.362,0,0,0-.693-.555,3.309,3.309,0,0,0-4.008.217,43.888,43.888,0,0,0-3.553,3.51,3.416,3.416,0,0,0-.329.437,6.775,6.775,0,0,0-.869,4.9,18.881,18.881,0,0,0,1.526,5.049,35.8,35.8,0,0,0,6.8,10.146,36.367,36.367,0,0,0,12.372,8.782,16.154,16.154,0,0,0,5.288,1.407,1.067,1.067,0,0,0,.328.022c.123.017.252-.037.37.035h.479c.131-.085.287.008.42-.059a4.927,4.927,0,0,0,2.867-1.163,36.563,36.563,0,0,0,3.412-3.453A3.367,3.367,0,0,0-475.875,49.078Zm-1.156,3.831q-1.436,1.56-2.963,3.038a3.759,3.759,0,0,1-2.795.993,14.321,14.321,0,0,1-5.119-1.22,33.94,33.94,0,0,1-9.359-5.887,36.983,36.983,0,0,1-7.936-9.827,22.275,22.275,0,0,1-2.478-6.406,6.32,6.32,0,0,1,.1-3.476,4.085,4.085,0,0,1,.98-1.465q1.262-1.28,2.542-2.542a1.755,1.755,0,0,1,2.033-.558,2.459,2.459,0,0,1,.766.565q2.12,2.117,4.237,4.237c.024.024.047.05.07.075a1.676,1.676,0,0,1-.024,2.687c-.814.848-1.645,1.68-2.509,2.478a1.552,1.552,0,0,0-.426,2.134,20.971,20.971,0,0,0,3.9,5.577,26.371,26.371,0,0,0,5.847,4.861c.478.286.974.543,1.471.8a1.451,1.451,0,0,0,1.842-.29c.853-.842,1.7-1.694,2.545-2.539a5.111,5.111,0,0,1,.454-.416,1.535,1.535,0,0,1,2.141.073q2.348,2.3,4.649,4.648A1.614,1.614,0,0,1-477.031,52.91Z" transform="translate(0 0)" fill="#3287bb" stroke="#3287bb" stroke-width="1.4"/>
  </g>
</svg>
