<svg xmlns="http://www.w3.org/2000/svg" width="139.892" height="131.186" viewBox="0 0 139.892 131.186">
  <g id="Grupo_4884" data-name="Grupo 4884" transform="translate(0.49 0.506)">
    <path id="Caminho_16851" data-name="Caminho 16851" d="M958.317,381.412a33.778,33.778,0,0,1-3.992,13.1,2.69,2.69,0,1,1-4.767-2.486A31.442,31.442,0,0,0,953,380.431c.058-.674.115-1.352.116-2.027q.015-18.641.005-37.281a5.406,5.406,0,0,0-7.146-5.283,5.347,5.347,0,0,0-3.675,5.019c-.031,7.5-.006,15-.03,22.5a1.3,1.3,0,0,0,.656,1.19c5.807,4.248,6.446,11.7,1.411,16.807-4.41,4.473-8.873,8.893-13.32,13.329-1.387,1.384-3.03,1.525-4.179.4-1.214-1.193-1.077-2.784.4-4.267,4.435-4.448,8.908-8.859,13.311-13.338a5.4,5.4,0,0,0-2.521-9.243,5.171,5.171,0,0,0-4.979,1.435c-1.308,1.247-2.631,2.488-3.834,3.832-5.062,5.653-11.659,8.484-18.806,10.3-1.394.354-2.841.493-4.26.752a10.523,10.523,0,0,0-8.863,10.425c-.039,10.574,0,21.149-.032,31.723,0,.8.138,1.068,1.016,1.063q10.642-.062,21.284,0c.981.007,1.059-.367,1.052-1.162-.033-3.976.015-7.953-.03-11.929a3.117,3.117,0,0,1,1.9-3.125c3.234-1.587,6.444-3.222,9.676-4.812,1.694-.833,3.2-.4,3.931,1.062s.156,2.925-1.528,3.786c-2.526,1.292-5.059,2.571-7.618,3.8a1.431,1.431,0,0,0-.941,1.529c.042,4.338.027,8.676.018,13.014-.005,2.235-1,3.232-3.222,3.234q-13.9.01-27.792,0c-2.129,0-3.144-1.028-3.146-3.171q-.011-17.149,0-34.3c.006-9.116,5.875-15.5,14.909-16.783,6.858-.978,13.149-3.457,18.058-8.674,1.424-1.513,2.93-2.949,4.406-4.412a10.354,10.354,0,0,1,6.6-3.082c.936-.074,1.05-.395,1.047-1.195-.026-6.869-.052-13.738,0-20.606a10.834,10.834,0,0,1,21.415-2.3c.053.245-.057.558.263.706v40.673C958.23,380.444,958.573,380.979,958.317,381.412Z" transform="translate(-819.651 -302.988)" fill="#36959d" stroke="#36959d" stroke-width="1"/>
    <path id="Caminho_16852" data-name="Caminho 16852" d="M1075.141,469.189c-.081-.491-.193-.986.236-1.39v1.356A1.53,1.53,0,0,1,1075.141,469.189Z" transform="translate(-936.475 -390.765)" fill="#36959d" stroke="#36959d" stroke-width="1"/>
    <path id="Caminho_16853" data-name="Caminho 16853" d="M1031.48,528.6a2.7,2.7,0,1,1,2.731-2.611A2.73,2.73,0,0,1,1031.48,528.6Z" transform="translate(-906.977 -426.082)" fill="#36959d" stroke="#36959d" stroke-width="1"/>
    <path id="Caminho_16854" data-name="Caminho 16854" d="M759.4,395.61a17.666,17.666,0,0,0-.393-4.034c-1.644-7.122-7.129-11.577-14.734-12.7-6.606-.974-12.716-3.352-17.515-8.32-1.569-1.625-3.185-3.2-4.794-4.791a10.175,10.175,0,0,0-6.489-3.022c-1-.076-1.116-.412-1.111-1.277q.052-10.1.014-20.2a10.844,10.844,0,1,0-21.681-.007c-.02,12.29-.192,24.585.048,36.87.258,13.2,6.217,23.356,17.573,30.113,4.361,2.595,9.028,4.684,13.593,6.925a1.972,1.972,0,0,1,1.349,2.1c-.079,4.2-.037,8.4-.029,12.606,0,2.309.983,3.284,3.306,3.285q13.759.008,27.518,0c2.394,0,3.335-.96,3.337-3.392q.007-8.879,0-17.758C759.4,406.545,759.387,401.077,759.4,395.61Zm-6.516,32.152q-10.572-.057-21.145,0c-.882,0-1.121-.22-1.109-1.107.05-3.93-.022-7.862.042-11.792a3.364,3.364,0,0,0-2.1-3.419c-4.93-2.422-9.92-4.746-14.719-7.409-10.051-5.578-15.441-14.251-15.676-25.732-.255-12.42-.075-24.849-.056-37.274a5.414,5.414,0,1,1,10.826.046c.026,7.365,0,14.729.024,22.094a1.529,1.529,0,0,1-.723,1.427,10.75,10.75,0,0,0-1.385,16.716c4.407,4.475,8.872,8.892,13.318,13.327,1.444,1.441,3.115,1.581,4.272.387s1.02-2.74-.407-4.171c-4.466-4.48-8.952-8.94-13.408-13.429a5.417,5.417,0,1,1,7.6-7.715c1.334,1.285,2.708,2.541,3.927,3.93,3.95,4.5,9.049,7.055,14.63,8.836a67.7,67.7,0,0,0,8.388,2.094,10.527,10.527,0,0,1,8.768,10.365c.049,5.2.011,10.392.013,15.588,0,5.377-.019,10.754.024,16.13C754,427.54,753.768,427.766,752.885,427.761Z" transform="translate(-692.62 -302.983)" fill="#36959d" stroke="#36959d" stroke-width="1"/>
    <path id="Caminho_16855" data-name="Caminho 16855" d="M852.3,270.327c-2.931-7.919-8.3-13.255-16.848-14.739-8.572-1.49-15.408,1.58-20.59,8.452-.7.932-.917.323-1.294-.164-4.178-5.4-9.5-8.629-14.929-8.635-10.111.04-17.041,4.2-20.962,11.8a27.207,27.207,0,0,0-.763,24.276c2.414,5.61,6.315,10.176,10.592,14.425,7.859,7.809,16.563,14.665,24.889,21.947,1.316,1.151,2.556,1.052,4-.2,6.695-5.789,13.433-11.528,20.044-17.413,4.76-4.237,9.282-8.738,12.717-14.172C854.23,287.89,855.644,279.357,852.3,270.327Zm-9.432,25.107c-4.142,5.42-9.2,9.939-14.294,14.407-4.416,3.87-8.892,7.671-13.339,11.505-.51.44-.888.932-1.671.243-7.459-6.565-15.251-12.756-22.284-19.8-3.905-3.91-7.58-8.035-9.637-13.275-2.962-7.546-2.391-14.778,2.416-21.441,5.246-7.273,17.658-9.684,24.848-.371a42.517,42.517,0,0,1,2.858,4.268c1.337,2.245,3.694,2.238,5.018-.033a25.036,25.036,0,0,1,5.518-6.969c7.1-5.844,18.058-3.718,23.137,4.466a21.25,21.25,0,0,1,3.224,10.738A25.894,25.894,0,0,1,842.87,295.434Z" transform="translate(-744.782 -255.219)" fill="#36959d" stroke="#36959d" stroke-width="1"/>
  </g>
</svg>
