<svg id="Grupo_4108" data-name="Grupo 4108" xmlns="http://www.w3.org/2000/svg" xmlns:xlink="http://www.w3.org/1999/xlink" width="26.662" height="26.646" viewBox="0 0 26.662 26.646">
  <defs>
    <clipPath id="clip-path">
      <rect id="Retângulo_1103" data-name="Retângulo 1103" width="26.662" height="26.646" fill="#777"/>
    </clipPath>
  </defs>
  <g id="Grupo_4107" data-name="Grupo 4107" clip-path="url(#clip-path)">
    <path id="Caminho_16822" data-name="Caminho 16822" d="M13.2,0h.312c.079.054.167.015.251.027a1.965,1.965,0,0,1,1.3.578c.126.1.235.23.351.347q5.188,5.188,10.38,10.374A2.5,2.5,0,0,1,26.663,13v.052a.888.888,0,0,0,0,.468v.156A2.411,2.411,0,0,1,24.6,15.8a2.551,2.551,0,0,1-.492.027c-.166,0-.238.073-.233.235,0,.087,0,.173,0,.26q0,3.7,0,7.408a2.924,2.924,0,0,1-2.056,2.823,2.514,2.514,0,0,1-.77.09q-2.132.005-4.263,0a.846.846,0,0,1-.96-.954c0-1.984-.022-3.969.007-5.953a1.312,1.312,0,0,0-1.4-1.416c-.728,0-1.456,0-2.183,0a1.343,1.343,0,0,0-1.171.556,1.238,1.238,0,0,0-.205.738q.005,2.937,0,5.875a2.46,2.46,0,0,1-.02.415.8.8,0,0,1-.854.735c-1.482,0-2.963,0-4.445,0a2.866,2.866,0,0,1-2.731-2.8c-.006-2.5,0-4.991,0-7.486,0-.061,0-.121,0-.182,0-.339-.008-.337-.351-.351A2.458,2.458,0,0,1,.215,14.384a2.665,2.665,0,0,1,.411-2.773c.074-.073.146-.149.219-.222L11.487.746A2.041,2.041,0,0,1,12.906.027c.1-.013.2.028.29-.027" transform="translate(0)" fill="#777"/>
    <path id="Caminho_16823" data-name="Caminho 16823" d="M510.456,250.886a.464.464,0,0,1,0-.468Z" transform="translate(-483.794 -237.368)" fill="#777"/>
    <path id="Caminho_16824" data-name="Caminho 16824" d="M248.092.047A.04.04,0,0,0,248.1,0h.26a.3.3,0,0,1-.267.047" transform="translate(-235.163)" fill="#777"/>
    <path id="Caminho_16825" data-name="Caminho 16825" d="M259.455,0a.038.038,0,0,0,.006.047A.3.3,0,0,1,259.2,0Z" transform="translate(-245.687)" fill="#777"/>
  </g>
</svg>
