<svg xmlns="http://www.w3.org/2000/svg" width="28.265" height="19.875" viewBox="0 0 28.265 19.875">
  <path id="Caminho_286" data-name="Caminho 286" d="M-127.2,398.08a2.461,2.461,0,0,0-2.511-2.135q-11.578-.008-23.156,0a2.481,2.481,0,0,0-2.557,2.565q-.009,7.369,0,14.738a2.475,2.475,0,0,0,.249,1.147,2.491,2.491,0,0,0,2.391,1.421h23.018a2.518,2.518,0,0,0,2.121-1.027,3.09,3.09,0,0,0,.483-1.181V398.15A.257.257,0,0,1-127.2,398.08Zm-25.3-.469h22.411l.055.068a1.366,1.366,0,0,0-.223.15q-5.125,5.136-10.247,10.275a.979.979,0,0,1-1.576.01q-5.133-5.148-10.266-10.295a2.046,2.046,0,0,0-.192-.153Zm-1.035,15.178c-.064.064-.124.133-.218.235V398.834q3.308,3.277,6.647,6.586c.149.148.4.306.4.459s-.251.311-.4.459Q-150.317,409.565-153.532,412.79Zm1.036,1.351-.044-.052a1.753,1.753,0,0,0,.195-.149q3.334-3.34,6.661-6.688c.176-.178.256-.164.42,0,.74.756,1.46,1.536,2.253,2.234a2.568,2.568,0,0,0,3.626-.157q1.068-1.059,2.121-2.134c.116-.118.176-.129.3,0q3.424,3.446,6.856,6.883a.427.427,0,0,1,.039.063Zm23.664-1.176c-.086.024-.112-.066-.155-.109q-3.393-3.4-6.783-6.8c-.121-.121-.174-.186-.021-.34q3.428-3.421,6.841-6.858a.375.375,0,0,0,.052-.125l.066.052Z" transform="translate(155.427 -395.941)" fill="#fff"/>
</svg>
