<svg id="Grupo_4874" data-name="Grupo 4874" xmlns="http://www.w3.org/2000/svg" width="139.298" height="139.298" viewBox="0 0 139.298 139.298">
  <path id="Caminho_16841" data-name="Caminho 16841" d="M-629.772,567.4a22.173,22.173,0,0,1,2.487-2.822q13.448-13.424,26.882-26.864a9.437,9.437,0,0,1,1.49-1.285,2.7,2.7,0,0,1,3.372.415,2.714,2.714,0,0,1,.417,3.373,7.728,7.728,0,0,1-1.088,1.288q-14.028,14.044-28.075,28.069c-.552.551-1.205,1-1.811,1.5h-1.413a2.389,2.389,0,0,1-2.26-2.26Z" transform="translate(629.772 -431.774)" fill="#36959d"/>
  <path id="Caminho_16842" data-name="Caminho 16842" d="M-612.75,530.827a2.737,2.737,0,0,1-2.309-4.149,6.672,6.672,0,0,1,1.073-1.3q8.026-8.045,16.066-16.075A4.171,4.171,0,0,1-596,507.94a2.675,2.675,0,0,1,3,1.026,2.588,2.588,0,0,1,.081,3.149,7.206,7.206,0,0,1-.9,1.075q-8.127,8.143-16.265,16.275A3.44,3.44,0,0,1-612.75,530.827Z" transform="translate(619.499 -411.565)" fill="#36959d"/>
  <path id="Caminho_16843" data-name="Caminho 16843" d="M-535.981,567.169A2.865,2.865,0,0,1-537,569.3q-8.479,8.489-16.977,16.959a2.8,2.8,0,0,1-4.142.259,2.839,2.839,0,0,1,.186-4.249q8.457-8.51,16.966-16.97a2.807,2.807,0,0,1,3.328-.791A2.669,2.669,0,0,1-535.981,567.169Z" transform="translate(578.995 -452.027)" fill="#36959d"/>
  <path id="Caminho_16844" data-name="Caminho 16844" d="M-466.419,150.413a2.3,2.3,0,0,0-2.171-2.171h-3.8a8.281,8.281,0,0,1-3.122.489,123.383,123.383,0,0,0-29.568,6.353c-10.594,3.688-20.072,9.157-27.845,17.413-3.9,4.147-8.049,8.066-12.055,12.117a3.272,3.272,0,0,1-2.1,1.035c-6.919.736-13.828,1.585-20.757,2.208a9.923,9.923,0,0,0-6.7,3.179c-6.6,6.826-13.378,13.48-20.109,20.179-1.039,1.034-1.966,2.073-1.433,3.659.519,1.547,1.9,1.782,3.27,1.966.179.024.361.029.54.055q7.443,1.071,14.886,2.139a1.429,1.429,0,0,1,.945.423c1.206,1.285,2.408,2.579,3.689,3.787.677.638.567.878-.188,1.319-3.312,1.933-6.589,3.925-9.873,5.906-2.373,1.432-2.586,3.176-.616,5.147q14.815,14.827,29.642,29.641c1.934,1.933,3.741,1.7,5.154-.64,1.981-3.284,3.98-6.558,5.906-9.874.47-.81.726-.78,1.323-.15,1.211,1.279,2.479,2.508,3.773,3.7a1.537,1.537,0,0,1,.436,1.073c.761,5.274,1.539,10.546,2.279,15.824a2.909,2.909,0,0,0,1.889,2.717,3.027,3.027,0,0,0,3.267-1.069q11.011-11.053,22.064-22.062a4.532,4.532,0,0,0,1.372-2.851c.828-7.682,1.681-15.361,2.5-23.043a3.283,3.283,0,0,1,1.051-2.1c4.592-4.553,9.132-9.158,13.73-13.705a60.458,60.458,0,0,0,12.058-17.22c5.426-11.407,8.331-23.5,9.817-35.989.2-1.709.049-3.481.749-5.121v-1.628a.351.351,0,0,1,0-.543Zm-107.114,62.742a1.73,1.73,0,0,1-1.6.745c-3.973-.6-7.954-1.156-11.931-1.733a3.427,3.427,0,0,1-.584-.213c.353-.372.653-.7.967-1.016q8.3-8.3,16.587-16.6a2.7,2.7,0,0,1,1.729-.9c5.344-.57,10.683-1.185,16.046-1.788-.009.521-.43.7-.7.965Q-563.267,202.895-573.533,213.155Zm26.939,37.549c-1.61,2.607-3.2,5.229-4.725,7.884-.457.794-.71.777-1.33.154q-12.091-12.149-24.228-24.253c-.406-.406-.984-.718-.044-1.261,2.77-1.6,5.5-3.273,8.243-4.917.154-.092.313-.176.474-.267.382-.022.529.309.738.518q10.356,10.339,20.714,20.677A.975.975,0,0,1-546.593,250.7Zm35.347-3.242a9.272,9.272,0,0,1-3.329,6.564c-4.921,4.73-9.686,9.623-14.508,14.456-.315.316-.591.672-1.124,1.284-.578-4.024-.954-7.622-1.658-11.154a4.234,4.234,0,0,1,1.536-4.309c6.486-6.366,12.878-12.826,19.312-19.245.336-.336.59-.792,1.179-.957C-510.335,238.59-511.015,243.014-511.246,247.462Zm32.287-60.578a66.153,66.153,0,0,1-15.222,23.726c-11.178,10.941-22.161,22.082-33.2,33.168-.737.74-1.108.77-1.861.01-6.489-6.554-13.026-13.06-19.545-19.584a3.5,3.5,0,0,0-2.668-1.382,2.746,2.746,0,0,0-2.588,2.635,3.755,3.755,0,0,0,1.376,2.551c6.495,6.484,12.96,13,19.5,19.441.913.9.9,1.406-.044,2.148-1.011.8-1.743,2.52-2.847,2.433-.969-.077-1.835-1.586-2.729-2.479q-15.4-15.389-30.807-30.762c-.811-.806-.773-1.18.015-1.965q20.995-20.915,41.917-41.9c6.972-7.015,15.383-11.542,24.589-14.812.807-.287,1.061.178,1.448.565,7.2,7.188,14.334,14.439,21.626,21.529C-478.447,183.714-478.166,184.859-478.959,186.884Zm6.858-31.907a132.714,132.714,0,0,1-4.132,23.187l-20.124-20.123c3.4-.855,6.829-1.72,10.316-2.35,4.27-.771,8.562-1.351,12.88-1.766C-472.259,153.838-472.018,154.059-472.1,154.977Z" transform="translate(605.717 -148.242)" fill="#36959d"/>
  <path id="Caminho_16845" data-name="Caminho 16845" d="M-466.187,400.2a2.776,2.776,0,0,1-2.782-2.749,2.851,2.851,0,0,1,2.732-2.831,2.917,2.917,0,0,1,2.874,2.852A2.844,2.844,0,0,1-466.187,400.2Z" transform="translate(512.668 -327.668)" fill="#36959d"/>
  <path id="Caminho_16846" data-name="Caminho 16846" d="M-347.854,275.1a16.965,16.965,0,0,0-16.863,16.919,17.065,17.065,0,0,0,17,16.97,16.974,16.974,0,0,0,16.888-17.037A16.864,16.864,0,0,0-347.854,275.1Zm.12,28.23A11.491,11.491,0,0,1-359.06,292a11.374,11.374,0,0,1,11.362-11.25,11.27,11.27,0,0,1,11.212,11.358A11.37,11.37,0,0,1-347.734,303.33Z" transform="translate(436.007 -240.979)" fill="#36959d"/>
</svg>
