<?xml version="1.0" encoding="utf-8"?>
<!-- Generator: Adobe Illustrator 25.4.4, SVG Export Plug-In . SVG Version: 6.00 Build 0)  -->
<svg version="1.1" id="Camada_1" xmlns="http://www.w3.org/2000/svg" xmlns:xlink="http://www.w3.org/1999/xlink" x="0px" y="0px"
	 viewBox="0 0 200 200" style="enable-background:new 0 0 200 200;" xml:space="preserve">
<style type="text/css">
	.st0{fill-rule:evenodd;clip-rule:evenodd;fill:#FFC000;}
	.st1{fill-rule:evenodd;clip-rule:evenodd;fill:#007032;}
	.st2{fill-rule:evenodd;clip-rule:evenodd;fill:#FFFFFF;}
</style>
<g>
	<path id="Caminho_16935_00000182524853431519019520000007834987155953882755_" class="st0" d="M-0.1,89.5h39v-9h-39V89.5z"/>
	<path id="Caminho_16936_00000104667800958557940310000015650014333567063437_" class="st1" d="M80.8,108.5h-12l4-14h11.8l-1,3h-7
		l-0.6,3h6l-1,3h-6l-0.6,2h7.3l-1,3.7L80.8,108.5z M-0.1,119.5h39v-25h-39V119.5z M61.9,104.5L61.9,104.5c-0.3,0-0.5,0-0.8,0h-2.4
		l-1.3,4h-4.7l4-14h7c4.2,0,5.6,1.9,4.8,4.9C67.8,102.3,65.6,104.2,61.9,104.5L61.9,104.5z M62,98.5l-1.4,0l-0.9,2l2.2,1H62
		c1,0,1.8-0.6,2-1.6C64.4,98.7,63,98.5,62,98.5L62,98.5z M175.9,104.5l2-1v-4.4l-2,2.5l-1.5,2.9H175.9z M175.8,95l0.3-0.5h4.4l1,14
		h-4.6v-1h-4.2l-1.1,1h-4.5l0.3-0.4L175.8,95L175.8,95z M200.1,98.5c0.4-2.6-0.9-4.7-5-4.7c-3.7,0-6.9,1.6-7.8,4.8
		c-1.6,5.7,7.4,4.1,6.7,6.4c-0.2,0.7-1.1,1.1-2.3,1.1c-0.5,0-0.9-0.1-1.3-0.4c-0.4-0.3-0.6-0.7-0.5-1.2h-4.7c-0.6,2.7,1.3,5,5.2,5
		c4.1,0,7.5-1.7,8.4-5.1c1.6-5.4-7.4-4-6.8-6.3c0.1-0.5,0.7-0.9,1.8-0.9c0.4,0,0.8,0.1,1.2,0.3c0.3,0.2,0.5,0.6,0.4,1L200.1,98.5z
		 M167.1,98.8c0-0.1,0.1-0.2,0.1-0.3c0.3-1.1,0.3-1.9-0.1-2.5c-0.6-1-2.1-1.4-5-1.4h-7l-4,14h4.7l1.5-4h1.4c0,0,1.2-0.3,1.7,0
		c0.5,0.4,0.4,1,0.1,2.2c0,0.1-0.1,0.2-0.1,0.3c-0.2,0.7-0.4,1.6-0.4,1.6h4.8l0.1-0.4c-0.5,0-0.3-0.6,0.2-2.4c0.8-2.8,0-3.2-1.3-3.7
		C165.5,101.5,166.7,100.3,167.1,98.8L167.1,98.8z M160.5,101.5c1.3-0.1,2.1-0.5,2.3-1.4c0.3-1.1-0.4-1.6-1.5-1.6H159l-0.9,3
		L160.5,101.5L160.5,101.5z M142.4,109.5c3.4-0.2,5.9-1.4,6.8-4.5c0.5-1.6,0-3.1-1.5-3.5c1.4-0.7,2.4-1.8,2.9-3.3
		c0.8-3-1.6-3.8-5-3.8h-6.9l-4,14h7l0.9,1L142.4,109.5z M142.6,98.5l1.6,0c1-0.4,1.9-0.4,1.6,0.8c-0.3,0.8-1.1,1.3-2,1.2h-1.9l0.7-2
		H142.6z M142.9,103.2c1.2,0,2.3,0.1,1.9,1.3c-0.3,1-1.1,1.3-2.2,1h-2.3l0.8-3h1.8V103.2z M125.7,105.8c1.4-0.5,2.3-2,2.9-3.9
		c0.6-2,0.4-4-1.7-4c-0.4,0-0.8,0.1-1.1,0.2c-1.5,0.6-2.4,2.3-2.8,3.8c-0.5,1.8-0.6,4.1,1.6,4.1C124.9,106.1,125.3,106,125.7,105.8
		L125.7,105.8z M125.7,94.6c0.7-0.2,1.4-0.2,2.2-0.2c5.2,0,6.5,3.7,5.4,7.5c-1,3.7-3.9,6.6-7.6,7.4c-0.7,0.2-1.4,0.2-2.2,0.2
		c-4.5,0-6.7-2.8-5.4-7.7C119.1,98.2,122,95.5,125.7,94.6L125.7,94.6z M109.1,106.9c0-0.1,0.1-0.2,0.1-0.3c0.3-1.1,0.4-1.8-0.1-2.2
		c-0.5-0.3-1.7,0-1.7,0h-1.4l-1.4,4h-4.7l0.5-1.8l3.4-12.2h6.9c4.7,0,5.8,1.3,5.1,4c-0.4,1.7-1.7,3-3.3,3.4c1.3,0.6,2.1,0.9,1.3,3.7
		c-0.5,1.8-0.8,2.4-0.2,2.4l-0.1,0.4h-4.8C108.7,108.5,108.9,107.7,109.1,106.9L109.1,106.9z M109.1,101.5c1.3-0.1,2.1-0.5,2.3-1.4
		c0.3-1.1-0.4-1.6-1.5-1.6h-2.3l-0.9,3L109.1,101.5L109.1,101.5z M100.3,96.5l0.6-2H87.7l-1.1,4h4.3l-3.1,11h4.9l3.1-11h4.1
		L100.3,96.5L100.3,96.5z"/>
	<path id="Caminho_16937_00000083049303957308802940000010831622782927231422_" class="st2" d="M38.9,94.5v-5h-39v5h7.3l-4,14h8.3
		c3.6,0,4.2-0.8,4.9-1.4c1.1-1.1,1.5-2.6,1.1-4.1c-0.2-0.7-0.7-1.2-1.3-1.6c0.8-0.4,1.4-1,1.9-1.8c0.6-1.2,0.5-2.6-0.3-3.7
		c-0.9-1-2.5-1.3-3.7-1.4l9.5,0l-4.1,14h4.2l1.4-5h2.4c1.9,0,1.7,1.2,1.8,1.7l0.1,4.3h3.6c0,0-0.2-4.7-0.2-5
		c0.1-0.9-0.6-1.7-1.5-1.7c0,0,0,0,0,0c1.2-0.4,2.2-1.2,2.9-2.3c0.7-1.1,0.8-2.4,0.4-3.6c-0.7-2-2.7-2.3-4-2.4L38.9,94.5z
		 M26.9,97.5h2.9c1.4,0,1.4,0.9,1.4,1.2c-0.1,1.1-1,1.9-2.1,1.8c0,0,0,0,0,0H26C26,100.5,26.9,97.6,26.9,97.5L26.9,97.5z M9.3,103.5
		H12c1.3,0,1.4,0.4,1.6,0.7c0.1,0.4,0.1,0.8,0,1.2c-0.2,0.3-0.4,1.2-2.1,1.2h-3C8.4,106.5,9.3,103.5,9.3,103.5L9.3,103.5z
		 M10.7,97.5H14c0.6,0,1.2,0.5,1.2,1.1c0,0,0,0,0,0c0,0.9-0.7,1.6-1.6,1.6c0,0-0.1,0-0.1,0.3H10L10.7,97.5L10.7,97.5z"/>
</g>
</svg>
