<?xml version="1.0" encoding="utf-8"?>
<!-- Generator: Adobe Illustrator 25.4.4, SVG Export Plug-In . SVG Version: 6.00 Build 0)  -->
<svg version="1.1" id="lupa-de-detetive" xmlns="http://www.w3.org/2000/svg" xmlns:xlink="http://www.w3.org/1999/xlink" x="0px"
	 y="0px" viewBox="0 0 35 34" style="enable-background:new 0 0 35 34;" xml:space="preserve">
<style type="text/css">
	.st0{fill:none;}
	.st1{fill:#212529;}
</style>
<path id="Caminho_3827" class="st0" d="M14.7,2.5L14.7,2.5c-6.6,0-12,5.4-12,12c0,0,0,0,0,0.1l0,0c0,3.3,1.3,6.4,3.7,8.7
	c2.3,2.2,5.3,3.4,8.5,3.3c3.2-0.1,6.2-1.4,8.4-3.7l0.1-0.1l0,0c4.5-4.8,4.3-12.4-0.5-17C20.7,3.7,17.8,2.5,14.7,2.5z"/>
<path id="Caminho_3828" class="st0" d="M34.1,31.9"/>
<path id="Caminho_3829" class="st1" d="M34.3,31.6l-8.4-8.4c2.3-2.9,3.3-6.6,3-10.2c-0.3-3.8-2.2-7.3-5.1-9.6
	c-6.1-5-15.1-4.2-20.1,1.9C1.2,8.1,0,11.9,0.4,15.7c0.3,3.8,2.2,7.3,5.2,9.6c5.3,4.5,13.1,4.4,18.4-0.1l8.4,8.4
	c0.5,0.5,1.4,0.6,1.9,0c0,0,0,0,0,0C34.8,33,34.8,32.2,34.3,31.6z M26.7,14.5c0,3.1-1.2,6-3.3,8.2l0,0l-0.1,0.1
	c-2.2,2.3-5.2,3.6-8.4,3.7C8.5,26.7,3,21.5,2.8,15c0-0.1,0-0.3,0-0.4l0,0c0-6.6,5.3-12,11.9-12.1c0,0,0,0,0,0l0,0
	C21.3,2.5,26.7,7.9,26.7,14.5z"/>
</svg>
