<svg xmlns="http://www.w3.org/2000/svg" width="66.791" height="66.691" viewBox="0 0 66.791 66.691">
  <g id="Grupo_5285" data-name="Grupo 5285" transform="translate(0.25 0.25)">
    <path id="Caminho_14667" data-name="Caminho 14667" d="M93.606.1a.137.137,0,0,1,.016-.1h.906a.351.351,0,0,1,.014.106.635.635,0,0,1-.936,0" transform="translate(-77.437)" fill="#8e8e8e" stroke="#212529" stroke-width="0.5"/>
    <path id="Caminho_14668" data-name="Caminho 14668" d="M383.18,275.627a.217.217,0,0,1,.11-.268v.259q-.049.081-.11.009" transform="translate(-316.999 -227.806)" fill="#474747" stroke="#212529" stroke-width="0.5"/>
    <path id="Caminho_14669" data-name="Caminho 14669" d="M383.169,276.865l.11-.009v.258c-.149-.034-.123-.144-.11-.249" transform="translate(-316.988 -229.044)" fill="#6d6d6d" stroke="#212529" stroke-width="0.5"/>
    <path id="Caminho_14670" data-name="Caminho 14670" d="M66.291,121.811c-.138-.042-.109-.161-.123-.262A19.363,19.363,0,0,0,54.46,105.708a.765.765,0,0,1-.517-.805,17.381,17.381,0,0,1,.65-5.479c.484-1.752-.384-2.809-2.2-2.81q-5.729,0-11.457,0A1.991,1.991,0,0,0,38.8,99.365a17.7,17.7,0,0,1,.677,5.668.593.593,0,0,1-.4.621,19.14,19.14,0,0,0-6.092,4.051c-.088.086-.159.211-.313.2-.173-.15-.12-.354-.12-.539,0-3.467,0-6.934-.009-10.4a.735.735,0,0,1,.365-.676A2.773,2.773,0,0,0,34,95.215a2.72,2.72,0,0,0-2.642-2q-6.861-.042-13.722,0a2.69,2.69,0,0,0-2.649,1.981A2.725,2.725,0,0,0,16.1,98.308a.725.725,0,0,1,.333.694c-.014.99-.011,1.981,0,2.972.006.724.353,1.12.958,1.12s.968-.408.979-1.116c.013-.883.028-1.767-.007-2.648-.018-.435.127-.526.539-.524,3.711.016,7.423.021,11.133,0,.512,0,.588.157.586.615-.019,3.4-.009,6.8-.012,10.207a2,2,0,0,0,.28,1.166c1.117,1.711,2.211,3.436,3.322,5.152.4.624.967.8,1.462.48.519-.333.587-.87.174-1.523-.6-.945-1.193-1.893-1.821-2.818a.477.477,0,0,1,.065-.744,17.521,17.521,0,0,1,6.33-4.132,1.262,1.262,0,0,0,1-1.244,19.875,19.875,0,0,0-.69-6.827c-.172-.508-.024-.6.474-.593,3.625.02,7.25.011,10.875.011h.815a17.748,17.748,0,0,0-.882,7.133c.025,1.08.063,1.11,1.086,1.549,6.848,2.938,10.7,8.126,11.2,15.536A17.4,17.4,0,0,1,53.29,139.982a16.43,16.43,0,0,1-5.808,1.241c-.017-.073-.034-.1-.026-.114a1.652,1.652,0,0,0,.267-.359c.478-1.329,1.509-1.713,2.821-1.942a12.8,12.8,0,0,0,4.822-2.1.949.949,0,0,0,.433-1.169.912.912,0,0,0-.94-.649,1.582,1.582,0,0,0-.815.362A13.643,13.643,0,0,1,49,137.184c-.038-.384-.055-.747-.113-1.1a6.623,6.623,0,0,0-1.044-2.544q-3.308-5.122-6.595-10.257c-.121-.188-.47-.382-.011-.646,3.931-2.252,7.964-2.86,12.227-.923a12.188,12.188,0,0,0,6.373,1.006c.468-.048.628.025.635.542a13.85,13.85,0,0,1-3.038,8.98c-.494.629-.488,1.213.005,1.582.471.353,1.026.225,1.5-.365a15.726,15.726,0,0,0,3.44-10.812c-.079-1.274-.879-2.059-2.023-1.908a12.874,12.874,0,0,1-6.862-1.082,13.29,13.29,0,0,0-8.233-.72,19.835,19.835,0,0,0-4.825,1.958c-.4.209-.647.237-.9-.225-.369-.678-.824-1.31-1.242-1.962a1.1,1.1,0,0,0-.56-.512.93.93,0,0,0-1.062.256.941.941,0,0,0-.05,1.243q1.592,2.466,3.174,4.939,3.195,4.965,6.395,9.926a4.279,4.279,0,0,1,.731,3.367,4.16,4.16,0,0,1-4.45,3.326q-18.028,0-36.055,0c-.216,0-.432-.005-.646-.026a3.978,3.978,0,0,1-3.333-2.231,4.151,4.151,0,0,1,.351-4.446q7.608-11.792,15.192-23.6a1.8,1.8,0,0,0,.392-1c-.01-1.184.007-2.369-.008-3.553a1,1,0,0,0-.953-1.094c-.578-.016-.975.422-.982,1.113-.01.926-.018,1.852,0,2.778a1.813,1.813,0,0,1-.319,1.079c-3.627,5.62-7.287,11.219-10.843,16.884C3.444,130.065,1.2,132.737,0,136.026v2.068a.278.278,0,0,1,.059.113,5.766,5.766,0,0,0,5.69,5.055q18.741,0,37.482.006c.43,0,.855-.041,1.287-.027a35.538,35.538,0,0,0,4.453-.022,18.61,18.61,0,0,0,9.253-3.553,19.592,19.592,0,0,0,6.7-8.371,17.694,17.694,0,0,0,1.365-5.607v-.517c-.08-.071-.064-.167-.067-.258s-.013-.187.067-.259ZM31.278,96.87c-.775.017-1.551.006-2.326.007H24.494c-2.2,0-4.394-.006-6.591,0a.961.961,0,0,1-1.044-.58.848.848,0,0,1,.833-1.151c.774-.034,1.55-.014,2.326-.014H30.744c.194,0,.388,0,.581.013a.861.861,0,0,1-.047,1.721" transform="translate(0 -77.101)" fill="#384dc5" stroke="#384dc5" stroke-width="0.5"/>
    <path id="Caminho_14671" data-name="Caminho 14671" d="M63.188,249.651q-5.581-8.641-11.139-17.3c-.483-.75-.751-.838-1.618-.554a14.365,14.365,0,0,1-8.9.1,18.287,18.287,0,0,0-5.468-.845,1.719,1.719,0,0,0-1.633.89c-1.834,2.91-3.71,5.793-5.57,8.686q-2.93,4.557-5.858,9.115a2.212,2.212,0,0,0,.163,2.95,2.5,2.5,0,0,0,1.951.672q9.026-.01,18.052,0,8.994,0,17.988.005a2.306,2.306,0,0,0,2.27-1.177,2.332,2.332,0,0,0-.243-2.543M35.866,233.318a.643.643,0,0,1,.637-.31,13.318,13.318,0,0,1,4.07.642l10.3.451c1.411,2.212,2.835,4.415,4.255,6.622.115.179.276.344-.066.49-2.247.962-4.388,2.189-6.857,2.581a12.473,12.473,0,0,1-5.954-.283,19.019,19.019,0,0,0-11.815-.079c-.308.093-.629.144-.945.212a2.273,2.273,0,0,1-.263.017c2.251-3.5,4.451-6.919,6.637-10.343m25.856,17.932c-.135.269-.415.175-.639.175q-8.994.006-17.989,0H25.364a4.474,4.474,0,0,1-.517-.005c-.328-.039-.485-.191-.275-.518q1.5-2.334,2.994-4.669a.518.518,0,0,1,.38-.211,60.752,60.752,0,0,1,7.32-1.542,14.616,14.616,0,0,1,5.669.7,16.283,16.283,0,0,0,11.954-.847c1.016-.466,2.041-.912,3.047-1.4.345-.167.522-.172.752.191,1.6,2.526,3.222,5.034,4.837,7.548.113.175.314.343.2.576" transform="translate(-18.635 -191.154)" fill="#384dc5" stroke="#384dc5" stroke-width="0.5"/>
    <path id="Caminho_14672" data-name="Caminho 14672" d="M122.4,32.762a4.033,4.033,0,1,0,4.062,4.046,4.015,4.015,0,0,0-4.062-4.046m.036,6.127a2.094,2.094,0,1,1,2.083-2.1,2.076,2.076,0,0,1-2.083,2.1" transform="translate(-97.933 -27.104)" fill="#384dc5" stroke="#384dc5" stroke-width="0.5"/>
    <path id="Caminho_14673" data-name="Caminho 14673" d="M251.2,49.777a4.041,4.041,0,1,0,4.059,4.056,4.031,4.031,0,0,0-4.059-4.056m.03,6.142a2.1,2.1,0,1,1,2.087-2.095,2.084,2.084,0,0,1-2.087,2.095" transform="translate(-204.491 -41.181)" fill="#384dc5" stroke="#384dc5" stroke-width="0.5"/>
    <path id="Caminho_14674" data-name="Caminho 14674" d="M282.307,273.822a3.772,3.772,0,1,0,3.844,3.761,3.768,3.768,0,0,0-3.844-3.761m.042,5.6a1.831,1.831,0,0,1,.006-3.661,1.831,1.831,0,1,1-.006,3.661" transform="translate(-230.474 -226.534)" fill="#384dc5" stroke="#384dc5" stroke-width="0.5"/>
    <path id="Caminho_14675" data-name="Caminho 14675" d="M82.164.6l-.936,0A3.06,3.06,0,0,0,78.661,4a3.061,3.061,0,0,0,6.076-.01A3.04,3.04,0,0,0,82.164.6M81.7,4.733A1.136,1.136,0,0,1,80.592,3.56a1.108,1.108,0,0,1,2.215.069,1.13,1.13,0,0,1-1.109,1.1" transform="translate(-65.059 -0.493)" fill="#384dc5" stroke="#384dc5" stroke-width="0.5"/>
    <path id="Caminho_14676" data-name="Caminho 14676" d="M105.706,254.551a3.086,3.086,0,1,0,3.082,3.081,3.093,3.093,0,0,0-3.082-3.081m-.035,4.229a1.144,1.144,0,1,1,1.17-1.116,1.143,1.143,0,0,1-1.17,1.116" transform="translate(-84.914 -210.591)" fill="#384dc5" stroke="#384dc5" stroke-width="0.5"/>
    <rect id="Retângulo_1017" data-name="Retângulo 1017" width="66.291" height="66.2" transform="translate(0)" fill="none"/>
  </g>
</svg>
