<?xml version="1.0" encoding="utf-8"?>
<!-- Generator: Adobe Illustrator 25.4.4, SVG Export Plug-In . SVG Version: 6.00 Build 0)  -->
<svg version="1.1" id="Grupo_3170" xmlns="http://www.w3.org/2000/svg" xmlns:xlink="http://www.w3.org/1999/xlink" x="0px" y="0px"
	 viewBox="0 0 21.5 21.5" style="enable-background:new 0 0 21.5 21.5;" xml:space="preserve">
<style type="text/css">
	.st0{clip-path:url(#SVGID_00000008835329480204728010000012430788484009674167_);}
	.st1{fill:none;stroke:#212529;stroke-width:0;stroke-linecap:round;stroke-linejoin:round;}
</style>
<g>
	<defs>
		<rect id="SVGID_1_" y="0" width="21.5" height="21.5"/>
	</defs>
	<clipPath id="SVGID_00000170242459030041500490000016830391222076132778_">
		<use xlink:href="#SVGID_1_"  style="overflow:visible;"/>
	</clipPath>
	<g style="clip-path:url(#SVGID_00000170242459030041500490000016830391222076132778_);">
		<path class="st1" d="M18.6,15.8c0.1,0,0.3-0.1,0.3-0.2c0.6-1,1-2.1,1.2-3.3c0.1-0.3,0.1-0.6,0.1-0.9l-3.8,0c0,1.5-0.3,3-0.6,4.4
			C16.7,15.8,17.6,15.8,18.6,15.8z"/>
		<path class="st1" d="M17.8,17c-0.8,0-1.6,0-2.4,0c-0.1,0-0.1,0-0.1,0.1C15,18,14.5,18.9,14,19.7C15.4,19.1,16.8,18.2,17.8,17"/>
		<polyline class="st1" points="17.8,17 17.8,17 17.8,17 17.8,17 		"/>
		<path class="st1" d="M11.4,20.1c1.2-0.6,2.2-1.7,2.6-3h-2.6V20.1z"/>
		<path class="st1" d="M20.2,9.9c-0.1-1.5-0.6-2.9-1.4-4.1c-0.1-0.1-0.1-0.1-0.2-0.1c-0.9,0-1.8,0-2.7,0c-0.1,0-0.1,0-0.2,0
			c0.4,1.4,0.6,2.9,0.6,4.4l3.8,0C20.2,10,20.2,10,20.2,9.9z"/>
		<path class="st1" d="M11.4,5.7v4.4l3.8,0c0-0.3,0-0.7-0.1-1C15,8,14.8,7,14.5,5.9c0-0.2-0.1-0.2-0.3-0.2c-0.9,0-1.8,0-2.7,0
			C11.5,5.7,11.5,5.7,11.4,5.7z"/>
		<path class="st1" d="M11.4,15.8c1,0,2,0,2.9,0c0.1,0,0.1-0.1,0.2-0.1c0.4-1.4,0.6-2.8,0.6-4.3l0,0h-3.7V15.8z"/>
		<path class="st1" d="M17.8,4.5c-1.1-1.2-2.4-2.1-3.9-2.6l0.2,0.3c0.4,0.7,0.8,1.4,1.1,2.1c0,0.1,0.1,0.2,0.2,0.2
			C16.2,4.5,17,4.5,17.8,4.5z"/>
		<path class="st1" d="M12.3,1.9c-0.3-0.2-0.6-0.4-0.9-0.6v3.1H14C13.6,3.5,13.1,2.6,12.3,1.9z"/>
		<path class="st1" d="M10.1,5.7C10.1,5.7,10.1,5.7,10.1,5.7c-1,0-2,0-2.9,0C7.1,5.7,7,5.8,7,5.8c0,0,0,0,0,0
			C6.8,6.7,6.6,7.6,6.5,8.5C6.4,9,6.4,9.6,6.4,10.1h3.8L10.1,5.7z"/>
		<path class="st1" d="M3.7,17.1c1.1,1.2,2.4,2.1,3.9,2.6l0,0c-0.6-0.8-1-1.6-1.4-2.5C6.1,17.1,6,17,6,17.1c-0.7,0-1.4,0-2.1,0
			C3.8,17.1,3.8,17.1,3.7,17.1z"/>
		<path class="st1" d="M1.3,11.4c0,0.2,0,0.3,0,0.5c0.2,1.3,0.6,2.6,1.3,3.8c0,0.1,0.2,0.2,0.3,0.1c0.8,0,1.7,0,2.5,0h0.3
			c-0.4-1.4-0.6-2.9-0.6-4.4L1.3,11.4z"/>
		<path class="st1" d="M5.7,5.7c-1,0-1.9,0-2.9,0c-0.1,0-0.1,0.1-0.2,0.1C2,6.9,1.6,8,1.4,9.2c-0.1,0.3-0.1,0.6-0.1,0.9h3.8
			C5.1,8.6,5.3,7.2,5.7,5.7"/>
		<path class="st1" d="M2.3,17.4c1.5,2,3.7,3.4,6.2,3.9c0.4,0.1,0.9,0.1,1.3,0.2c0.1,0,0.1,0,0.2,0h1.5l0,0c0.4-0.1,0.8-0.1,1.2-0.2
			c4.5-0.8,7.9-4.3,8.7-8.8c0.1-0.3,0.1-0.7,0.1-1V10c-0.1-0.4-0.1-0.7-0.2-1.1c-0.4-2.2-1.4-4.2-3-5.7c-1.6-1.6-3.6-2.6-5.8-3
			C10-0.3,7.4,0.2,5.2,1.6C2.7,3,0.9,5.5,0.3,8.3C-0.5,11.5,0.3,14.9,2.3,17.4z"/>
		<path class="st1" d="M10.1,20.1L10.1,20.1l0-3.1H7.5C8,18.4,8.9,19.5,10.1,20.1z"/>
		<path class="st1" d="M7.5,1.9C6,2.4,4.7,3.3,3.7,4.4c0,0,0,0,0.1,0c0.8,0,1.5,0,2.3,0c0.1,0,0.1-0.1,0.2-0.1
			C6.5,3.5,7,2.6,7.5,1.9z"/>
		<path class="st1" d="M10.1,1.4C8.9,2,7.9,3.1,7.5,4.4h2.6L10.1,1.4z"/>
		<path class="st1" d="M10.1,15.8l0-4.4H6.4c0,0.3,0,0.7,0.1,1c0.1,1.1,0.3,2.2,0.6,3.2c0,0.1,0.1,0.2,0.2,0.2c0.9,0,1.8,0,2.7,0
			C10,15.8,10,15.8,10.1,15.8z"/>
		<polyline class="st1" points="5.7,5.7 5.7,5.7 5.7,5.7 5.7,5.7 		"/>
	</g>
</g>
</svg>
