<svg id="Grupo_5413" data-name="Grupo 5413" xmlns="http://www.w3.org/2000/svg" xmlns:xlink="http://www.w3.org/1999/xlink" width="135.208" height="135.257" viewBox="0 0 135.208 135.257">
  <defs>
    <clipPath id="clip-path">
      <rect id="Retângulo_1201" data-name="Retângulo 1201" width="135.208" height="135.257" fill="#36959d"/>
    </clipPath>
  </defs>
  <g id="Grupo_5413-2" data-name="Grupo 5413" clip-path="url(#clip-path)">
    <path id="Caminho_16968" data-name="Caminho 16968" d="M383.861,126.783a3.266,3.266,0,0,1-3.449,2.055c-1.933-.043-3.87.044-5.8-.025-2.364-.085-3.677-2.113-2.607-3.933a2.42,2.42,0,0,1,2.15-1.3c2.373-.018,4.746-.008,7.119-.013,1.331,0,1.983.913,2.589,1.9Z" transform="translate(-248.653 -82.677)" fill="#36959d"/>
    <path id="Caminho_16969" data-name="Caminho 16969" d="M195.215.221c-.217.031-.452.1-.518-.221h.528c.088.054.116.1.083.152s-.063.069-.094.069" transform="translate(-130.271)" fill="#36959d"/>
    <path id="Caminho_16970" data-name="Caminho 16970" d="M196.261.221q.009-.11.011-.221h.528c-.093.285-.309.27-.539.221" transform="translate(-131.317)" fill="#36959d"/>
    <path id="Caminho_16971" data-name="Caminho 16971" d="M209.6.222c-.228.042-.433.03-.54-.222h.528q.123.068.087.144c-.024.052-.049.078-.075.078" transform="translate(-139.884)" fill="#36959d"/>
    <path id="Caminho_16972" data-name="Caminho 16972" d="M210.672.222Q210.662.111,210.66,0h.528q.125.069.087.145c-.026.052-.051.077-.078.077h-.525" transform="translate(-140.952)" fill="#36959d"/>
    <path id="Caminho_16973" data-name="Caminho 16973" d="M212.265.222q-.01-.111-.009-.222h.528c-.066.324-.3.256-.519.222" transform="translate(-142.019)" fill="#36959d"/>
    <path id="Caminho_16974" data-name="Caminho 16974" d="M35.738,202.133a2.814,2.814,0,0,1,1.032-2.114c1.422-1.437,2.839-2.879,4.291-4.285,1.333-1.291,2.868-1.4,3.985-.344,1.142,1.079,1.066,2.722-.25,4.078-1.469,1.514-2.97,3-4.478,4.471a2.614,2.614,0,0,1-3.017.651,2.463,2.463,0,0,1-1.563-2.457" transform="translate(-23.91 -130.255)" fill="#36959d"/>
    <path id="Caminho_16975" data-name="Caminho 16975" d="M352.294,202.134a2.444,2.444,0,0,1-1.321,2.266,2.242,2.242,0,0,1-2.607-.06,39.5,39.5,0,0,1-5.758-5.758,2.556,2.556,0,0,1,3.514-3.556,46.408,46.408,0,0,1,5.783,5.741,2.1,2.1,0,0,1,.389,1.368" transform="translate(-228.928 -130.193)" fill="#36959d"/>
    <path id="Caminho_16976" data-name="Caminho 16976" d="M6.177,123.537c1.186,0,2.376-.059,3.558.015a2.482,2.482,0,0,1,2.436,2.453,2.394,2.394,0,0,1-2.2,2.639,35.318,35.318,0,0,1-7.747,0,2.494,2.494,0,0,1-2.216-2.657,2.627,2.627,0,0,1,2.481-2.449,3.941,3.941,0,0,1,.394-.03q1.648,0,3.3,0v.033" transform="translate(0 -82.636)" fill="#36959d"/>
    <path id="Caminho_16977" data-name="Caminho 16977" d="M35.745,40.028a2.458,2.458,0,0,1,1.329-2.26,2.211,2.211,0,0,1,2.61.082,42.244,42.244,0,0,1,5.759,5.764,2.434,2.434,0,0,1-.3,3.147,2.493,2.493,0,0,1-3.24.38,45.647,45.647,0,0,1-5.774-5.746,2.062,2.062,0,0,1-.381-1.367" transform="translate(-23.917 -25.013)" fill="#36959d"/>
    <path id="Caminho_16978" data-name="Caminho 16978" d="M352.37,40.384a2.694,2.694,0,0,1-.976,1.811c-1.445,1.475-2.9,2.944-4.378,4.383-1.293,1.256-2.9,1.351-3.984.3s-1.046-2.681.211-3.977q2.293-2.365,4.674-4.646a2.462,2.462,0,0,1,2.915-.537,2.636,2.636,0,0,1,1.538,2.671" transform="translate(-228.998 -25.058)" fill="#36959d"/>
    <path id="Caminho_16979" data-name="Caminho 16979" d="M159.017,34.65A43.534,43.534,0,0,0,122.887.5a6.059,6.059,0,0,1-2.48-.5h-.793c-.157.173-.367.126-.564.136H118.6c-.2-.01-.408.037-.566-.136h-3.7c-.146.162-.342.13-.528.136s-.383.027-.528-.136H112.22c-1.411.62-2.956.545-4.426.857a43.707,43.707,0,0,0-34,34.532,42.967,42.967,0,0,0,1.164,20.982A45.055,45.055,0,0,0,85.348,73.889,36.038,36.038,0,0,1,95.069,99.6c-.046,5.544-.02,11.089,0,16.634a7.82,7.82,0,0,0,5.366,7.922c.529.213.767.464.707,1.047a12.03,12.03,0,0,0-.007,1.583,8.357,8.357,0,0,0,8.374,8.415c4.619.086,9.241.059,13.861,0a8.194,8.194,0,0,0,6.616-3.265,9.45,9.45,0,0,0,1.788-6.457c-.015-.486-.165-.994.565-1.255,3.955-1.416,5.592-4.343,5.544-8.451-.065-5.544-.042-11.089-.01-16.634A36.551,36.551,0,0,1,147,74.63a56.6,56.6,0,0,0,7.783-10.6,43.055,43.055,0,0,0,4.235-29.38m-36.762,95.291q-5.928,0-11.856,0c-3.017,0-4.459-1.764-4.011-4.773.113-.758.59-.5.953-.506,3.03-.019,6.06-.011,9.089-.011,2.986,0,5.972.024,8.958-.016.791-.011,1.128.1,1.12,1.035-.027,3.195-1.046,4.271-4.254,4.271m10.32-13.721c-.007,2.145-1,3.14-3.164,3.143q-12.939.019-25.877,0c-2.142,0-3.176-1.025-3.185-3.148-.02-4.489.019-8.978-.027-13.466-.009-.876.243-1.084,1.093-1.077,5.017.04,10.034.02,15.051.02s10.034.022,15.051-.021c.864-.007,1.092.222,1.084,1.084-.044,4.488-.01,8.978-.025,13.467m-11.989-20.7c0,.829-.348.906-1.017.9-2.065-.031-4.133-.061-6.2.012-.9.031-1.087-.266-1.081-1.107.036-5.186.018-10.373.018-15.559s.02-10.373-.019-15.559c-.007-.891.193-1.23,1.15-1.2,2.019.072,4.043.05,6.064.008.752-.016,1.085.116,1.082.992q-.046,15.757,0,31.513m27.651-30.857c-2.294,3.568-5.5,6.405-7.909,9.882a40.95,40.95,0,0,0-7.5,20.525c-.081,1.062-.376,1.441-1.475,1.36A34.642,34.642,0,0,0,127,96.429c-.9.048-1.178-.186-1.169-1.135.051-5.194.024-10.388.024-15.582,0-5.018.046-10.037-.032-15.054-.02-1.281.226-1.721,1.614-1.663,3.4.142,6.145-1.184,7.632-4.351a7.665,7.665,0,0,0-.747-8.23,7.159,7.159,0,0,0-7.549-2.932,7.347,7.347,0,0,0-5.963,5.649,10.738,10.738,0,0,0-.221,3.541c.053.892-.266,1.122-1.125,1.1-2.023-.06-4.05-.063-6.073,0-.893.028-1.136-.27-1.093-1.126.119-2.367-.129-4.638-1.756-6.571a8.293,8.293,0,0,0-9.255-2.214,7.79,7.79,0,0,0-4.778,7.523,7.639,7.639,0,0,0,5.715,7.353,12.652,12.652,0,0,0,3.932.286c.7-.036.888.2.887.89q-.031,15.846,0,31.692c0,.628-.153.84-.8.821-1.583-.046-3.174-.093-4.751.014-1,.067-1.273-.289-1.329-1.208A40.666,40.666,0,0,0,89.8,70.967a42.276,42.276,0,0,1-8.6-12.851c-4.113-10.38-4.015-20.707.8-30.807A37.353,37.353,0,0,1,104.53,7.3a36.549,36.549,0,0,1,30.44,2.8,36.6,36.6,0,0,1,17.729,21.4c3.757,11.71,2.2,22.8-4.461,33.155M125.88,54.922a2.333,2.333,0,0,1,4.664-.087,2.359,2.359,0,0,1-1.819,2.771,5.446,5.446,0,0,1-1.037.14c-1.841.076-1.842.07-1.813-1.773,0-.35-.028-.7,0-1.051m-21.047,2.821c-2.175,0-3.256-1.123-2.993-3.007a2.411,2.411,0,0,1,2.649-2.168,2.371,2.371,0,0,1,2.49,2.192c.052.433.047.874.057,1.079-.067,2.153.431,1.909-2.2,1.9" transform="translate(-48.85)" fill="#36959d"/>
    <path id="Caminho_16980" data-name="Caminho 16980" d="M199.6,39.028c12.583,1.049,21.7,7.107,26.971,18.69a2.667,2.667,0,0,1-1.183,3.8c-1.452.672-2.91.026-3.675-1.754A25.088,25.088,0,0,0,211.464,47.9a24.619,24.619,0,0,0-12.108-3.59,9.373,9.373,0,0,1-1.7-.175,2.579,2.579,0,0,1-2.112-2.632,2.609,2.609,0,0,1,2.47-2.465c.524-.042,1.055-.007,1.582-.007" transform="translate(-130.838 -26.104)" fill="#36959d"/>
    <path id="Caminho_16981" data-name="Caminho 16981" d="M283.34,123.57a2.653,2.653,0,0,1,2.645,2.545,2.735,2.735,0,0,1-2.669,2.686,2.688,2.688,0,0,1-2.559-2.644,2.591,2.591,0,0,1,2.582-2.587" transform="translate(-187.854 -82.68)" fill="#36959d"/>
  </g>
</svg>
