<svg xmlns="http://www.w3.org/2000/svg" width="49.452" height="35.076" viewBox="0 0 49.452 35.076">
  <path id="Caminho_16913" data-name="Caminho 16913" d="M49.4,3.883A3.61,3.61,0,0,0,47.813.943,4.921,4.921,0,0,0,44.686,0Q24.775.009,4.862,0C4.669,0,4.476,0,4.283.009A4.6,4.6,0,0,0,.725,1.864,3.957,3.957,0,0,0,0,4.017V31.06a.285.285,0,0,1,.048.133,3.61,3.61,0,0,0,1.591,2.94,4.921,4.921,0,0,0,3.127.943q19.912-.009,39.824,0c.193,0,.387.008.579-.005a4.6,4.6,0,0,0,3.558-1.854,3.957,3.957,0,0,0,.725-2.153V4.017A.286.286,0,0,1,49.4,3.883Zm-5.017-.824c0,.167-.141.232-.232.321q-8.092,8.057-16.191,16.107a4.328,4.328,0,0,1-6.4.073q-8.218-8.135-16.4-16.305c-.043-.043-.08-.091-.172-.2ZM3.139,30.048l-.2-.158V5.2l.091-.093a2.687,2.687,0,0,0,.268.378q5.882,5.86,11.777,11.708c.281.279.294.408.007.7Q9.1,23.957,3.139,30.048ZM5.077,32,4.991,31.9a3.6,3.6,0,0,0,.374-.287q5.878-5.833,11.743-11.679c.312-.312.454-.278.74.011a25.268,25.268,0,0,0,2.433,2.343,7.217,7.217,0,0,0,9.62-.635c.59-.57,1.179-1.144,1.741-1.741.251-.266.392-.286.668-.01q4.608,4.61,9.242,9.195c.955.95,1.9,1.911,2.874,2.9Zm41.455-2.12-.135.114a1.307,1.307,0,0,0-.178-.332Q40.284,23.75,34.339,17.85c-.175-.174-.339-.278-.063-.557q6.046-6.106,12.065-12.238l.191.15Z" fill="#3287bb"/>
</svg>
