<?xml version="1.0" encoding="utf-8"?>
<!-- Generator: Adobe Illustrator 25.4.4, SVG Export Plug-In . SVG Version: 6.00 Build 0)  -->
<svg version="1.1" id="Camada_1" xmlns="http://www.w3.org/2000/svg" xmlns:xlink="http://www.w3.org/1999/xlink" x="0px" y="0px"
	 viewBox="0 0 200 200" style="enable-background:new 0 0 200 200;" xml:space="preserve">
<style type="text/css">
	.st0{fill:#FFFFFF;}
	.st1{fill:#00AE9D;}
</style>
<g>
	<path d="M36.8,144.9c0,0.1,0,0.1,0.1,0.2c0,0,0.1,0,0.1,0.1l0,0l0,0c0.1,0,0.1,0,0.2,0c0.1,0,0.3,0,0.4,0c1.4,0.1,2.5-1,2.6-2.4
		c-0.1-1.4-1.3-2.4-2.6-2.4c-0.1,0-0.3,0-0.4,0c-0.1,0-0.1,0-0.2,0l0,0c0,0-0.1,0-0.1,0.1c0,0-0.1,0.1-0.1,0.2V144.9L36.8,144.9z
		 M36.8,150.8v2.6c0,0.9-0.9,1.6-1.8,1.6h-2.7c-1,0-1.7-0.8-1.7-1.7v-16.2c0-0.9,0.8-1.6,1.7-1.5h5.6c4.4,0,8,3.3,8,7.3
		c0,4-3.6,7.3-8,7.3c-0.2,0-0.5,0-0.6,0c-0.1,0-0.2,0-0.4,0h0c-0.2-0.1-0.3,0-0.3,0.1l0,0 M83.3,144.9c0,0.1,0,0.1,0.1,0.2
		c0,0,0.1,0,0.1,0.1l0,0l0,0c0.1,0,0.1,0,0.2,0c0.2,0,0.3,0,0.5,0c1.4,0.1,2.5-1,2.6-2.4c-0.1-1.4-1.3-2.4-2.6-2.4
		c-0.2,0-0.3,0-0.5,0c-0.1,0-0.1,0-0.2,0l0,0c0,0-0.1,0-0.1,0.1c0,0.1-0.1,0.1-0.1,0.2V144.9L83.3,144.9z M84,149.8L84,149.8
		L84,149.8c-0.3-0.1-0.4-0.2-0.5-0.2s-0.2,0.2-0.2,0.2v3.5c0,0.9-0.9,1.7-1.8,1.6h-2.7c-1,0-1.7-0.8-1.7-1.7v-16.1
		c0-0.9,0.9-1.7,1.8-1.6h6.3c0,0,7.3,3.1,7.3,6.8c0,2.2-1.1,4.1-2.9,5.3l2.3,5c0.1,0.2,0.2,0.4,0.2,0.6c-0.1,0.9-0.8,1.6-1.7,1.6
		h-3.1c-0.7-0.1-1.4-0.4-1.6-1.1l-1.8-4H84z M57.7,144c0-0.9-0.8-1.6-1.7-1.5h-2.9c-0.1,0-0.3-0.1-0.3-0.2l0,0v-1
		c0-0.1,0.1-0.3,0.3-0.2l0,0h5c0.9,0,1.6-0.7,1.7-1.7v-2.3c-0.1-0.9-0.8-1.7-1.7-1.6h-9.7c-0.9,0-1.6,0.7-1.7,1.6v16.3
		c0,0.9,0.8,1.7,1.7,1.6H58c0.9,0,1.6-0.6,1.7-1.6V151c0-0.9-0.8-1.7-1.7-1.6h-5c-0.1,0-0.3-0.1-0.3-0.2v-0.1v-0.9
		c0-0.1,0.1-0.3,0.3-0.2h2.9c0.9,0,1.6-0.6,1.7-1.5V144L57.7,144z M65.3,141.8v11.7c0.1,0.9,0.9,1.6,1.8,1.5h2.7
		c1,0,1.7-0.8,1.7-1.7v-11.3c0-0.1,0.1-0.3,0.3-0.2h0h2.5c0.9-0.5,1.7-1.1,2.1-2.1v-2.4c-0.5-0.9-1.2-1.6-2.1-1.8H62.8
		c-0.9,0.3-1.7,0.9-1.6,1.8v2.4c-0.1,0.9,1.6,2.1,1.6,2.1H65.3c0.1,0,0.2,0.1,0.2,0.2l0,0 M104.4,140.6c-2.7-0.1-5,2-5.1,4.7
		c0.1,2.7,2.5,4.8,5.1,4.7c2.7,0.1,5-2,5.2-4.7C109.5,142.6,107.1,140.5,104.4,140.6 M115.5,145.3c0,5.6-4.9,10.1-11.1,10.1
		c-6.2,0-11.1-4.6-11.1-10.1c0-5.6,5-10.1,11.2-10.1C110.6,135.2,115.5,139.7,115.5,145.3 M122.2,147c0.2-0.1,0.3-0.2,0.5-0.2l0,0
		c0.1,0,0.2,0,0.2,0.1l7.6,7.6c0,0,0,0,0.1,0.1c0.3,0.2,0.8,0.3,0.8,0.3h1.9c0.7,0,1.3-0.6,1.4-1.3l0,0v-16.6
		c-0.1-0.9-0.8-1.7-1.8-1.6h-2.8c0,0-1.7,0.9-1.7,1.8v6.1c-0.1,0.1-0.2,0.3-0.4,0.3c-0.1,0-0.1,0-0.2-0.1l0,0l-7.5-7.5
		c0,0,0,0-0.1-0.1c-0.3-0.2-0.5-0.4-0.8,0.2h-1.7c-0.7-0.5-1.8,0.8-1.8,0.8v16.4c0,0,1.3,1.6,2.2,0.9h2.6c0.9,0.6,1.6,0,1.5-0.9
		L122.2,147L122.2,147z M147.2,147.3H144c-0.1,0-0.3-0.1-0.3-0.3v-0.1l1.5-4.1c0-0.1,0.1-0.2,0.3-0.2c0.1,0,0.2,0.1,0.3,0.2l1.5,4.1
		v0.1c0,0.2-0.1,0.3-0.3,0.3 M156.2,153.1L156.2,153.1l-6.2-16.8c-0.2-0.5-0.7-0.9-1.3-0.8H143c-0.6,0-1.1,0.4-1.3,0.8l-6.3,17.1
		c0,0.1-0.1,0.2-0.1,0.4c0,0.7,0.6,1.2,1.3,1.1h3.7c0,0,1.1-0.4,1.3-0.9l0,0l0,0l0.3-0.8c0-0.1,0.1-0.2,0.3-0.4h7.4
		c0.1,0.2,0.2,0.3,0.3,0.4l0.3,0.8l0,0l0,0c0.2,0.5,1.3,0.9,1.3,0.9h3.7c0.6,0,1.2-0.5,1.3-1.1c-0.1-0.2-0.1-0.3-0.1-0.4 M160,146.4
		c-1.4-1.1-2.2-2.8-2.2-4.6c0-3.4,3-6.1,6.7-6.1c2.6,0,3.2,0.3,3.8,0.5c0.6,0.3,1.1,0.8,1.1,1.5v2c0,0.9-0.8,1.5-1.6,1.5
		c-0.9,0-1.2-0.4-2.1-0.4c-0.8,0-1.4,0.5-1.5,1.3c0,0.4,0.2,0.7,0.4,1c0.1,0.1,0.2,0.1,0.2,0.2c0.6,0.4,1.2,0.9,1.8,1.3l0,0
		c1.2,1.1,1.9,2.7,1.9,4.3c0,3.4-3,6.1-6.7,6.1c-2.6,0-3.2-0.3-3.8-0.5c-0.6-0.3-1.1-0.8-1.1-1.5v-2c0-0.9,0.8-1.5,1.6-1.4
		c0.9,0,1.2,0.4,2.1,0.4c0.8,0,1.4-0.5,1.5-1.3c0-0.4-0.3-0.9-0.6-1.1C161.4,147.3,160.5,146.7,160,146.4"/>
	<g>
		<path id="path122_00000046339857909524324560000010250613261483676289_" class="st0" d="M75.1,86.3c-3,4.7-4.6,10.1-4.6,15.7
			c0,16.2,13.4,29.4,29.9,29.4s29.9-13.3,29.9-29.4c0-5.5-1.6-10.9-4.5-15.5l-3.2-6l20-35.9H98.4L75.1,86.3z"/>
		<path class="st1" d="M117.5,101.3c0,10.1-8.1,18.2-18.1,18.2l0,0c-10.1,0-18.1-8.1-18.1-18.2l0,0c0-10.1,8.1-18.2,18.1-18.2
			C109.4,83.2,117.5,91.4,117.5,101.3 M115,74.1l-12.2-21.2h24.4L115,74.1z M99.3,122.5c-11.7,0-21.1-9.5-21.1-21.2l0,0
			c0-3.7,1-7.5,2.9-10.7l18.2-31.7l18.2,31.7c1.9,3.3,2.9,6.9,2.9,10.8C120.5,113,111,122.5,99.3,122.5 M118.5,79.9l19.1-33.3H99.3
			L76,87.3c-2.5,4.2-3.7,9-3.7,13.8c0,15,12.2,27.2,27.1,27.2s27.1-12.2,27.1-27.2c0-4.8-1.3-9.6-3.7-13.8L118.5,79.9L118.5,79.9z"
			/>
	</g>
</g>
</svg>
