<svg xmlns="http://www.w3.org/2000/svg" width="68.411" height="68.406" viewBox="0 0 68.411 68.406">
  <path id="Caminho_16919" data-name="Caminho 16919" d="M1331.762,1423.952a1.351,1.351,0,0,1-1.3-1.329,1.4,1.4,0,0,1,1.337-1.32,1.36,1.36,0,0,1,1.327,1.381A1.329,1.329,0,0,1,1331.762,1423.952Zm-32.056,11.632a1.328,1.328,0,1,0-1.329,1.31A1.377,1.377,0,0,0,1299.706,1435.584Zm57.462-38.765v1.336c-.664,2.4-2.652,3.606-4.521,4.85a19.416,19.416,0,0,1-11.236,3.2c-.134,0-.267-.005-.4,0-.774.033-1.789-.32-2.257.125s-.119,1.471-.139,2.243c-.027,1.045-.012,2.09-.134,3.133a19.952,19.952,0,0,1-2.3,7.257,1.335,1.335,0,1,1-2.352-1.241,18.17,18.17,0,0,0,1.895-5.586,18.984,18.984,0,0,0,.212-3.06c0-4.475.023-8.951-.01-13.426a14.924,14.924,0,0,1,4.079-10.813,1.871,1.871,0,0,0,.565-.89,1.308,1.308,0,0,0-.634-1.484,1.338,1.338,0,0,0-1.751.3,17.352,17.352,0,0,0-4.978,12.549c.017,4.565,0,9.129,0,13.693a14.531,14.531,0,0,1-2.3,8.223,14.349,14.349,0,0,1-11.309,6.738c-1.246.1-2.493.069-3.738.062-.375,0-.512.1-.492.488.031.6.018,1.2,0,1.8-.007.287.036.443.388.447,2.942.031,5.882.05,8.685-1.048.825-.323,1.622-.722,2.452-1.031a1.3,1.3,0,0,1,1.8,1.465,1.451,1.451,0,0,1-.875,1.02,19.632,19.632,0,0,1-8.63,2.244c-1.091.028-2.182.035-3.272.005-.445-.012-.558.123-.558.558a35.22,35.22,0,0,1-.272,5.993,19.754,19.754,0,0,1-4.47,9.6,8.294,8.294,0,0,1-1.8,1.774,3.983,3.983,0,0,1-4.671-.261,3.928,3.928,0,0,1-1.277-4.489.667.667,0,0,0-.193-.852c-.6-.561-1.183-1.148-1.752-1.742a1.354,1.354,0,0,1-.135-2.014,1.337,1.337,0,0,1,2.012.117c.639.618,1.244,1.272,1.882,1.929a11.675,11.675,0,0,0,1.372-2.117.413.413,0,0,0-.118-.572q-3.288-3.277-6.563-6.567c-.223-.224-.391-.184-.638-.06a11.848,11.848,0,0,0-2.925,2.077,4.053,4.053,0,0,1-3.9,1.209,3.839,3.839,0,0,1-3.013-2.889,3.915,3.915,0,0,1,1.213-4.064,19.888,19.888,0,0,1,14.234-5.69c.8,0,1.6-.023,2.4.009.435.018.565-.11.561-.555a37.712,37.712,0,0,1,.092-4.672,20.009,20.009,0,0,1,15.261-17.456,21.4,21.4,0,0,1,5.228-.563c.86,0,2.006.369,2.5-.145s.13-1.651.13-2.514a21.955,21.955,0,0,1,.709-5.808,20.153,20.153,0,0,1,5.155-8.895,5.425,5.425,0,0,1,2.194-1.189h1.336a4.057,4.057,0,0,1,3.326,5.318.779.779,0,0,0,.247.894q3.73,3.721,7.447,7.454a.993.993,0,0,0,1.092.208,3.942,3.942,0,0,1,5.125,3.364Zm-52.627,29.9c.91,0,1.6-.02,2.29.008.384.015.567-.057.535-.5a12.171,12.171,0,0,1,0-1.735c.031-.442-.152-.514-.537-.5-.845.025-1.691.007-2.537.008a17.214,17.214,0,0,0-12.188,4.859,1.44,1.44,0,0,0-.5,1.722c.421.969,1.5,1.1,2.426.231A14.644,14.644,0,0,1,1304.54,1426.722Zm2.644,7.783a32.8,32.8,0,0,0,.171-4.849c0-.205-.108-.265-.293-.262a31.9,31.9,0,0,0-4.818.175Zm19.1-30.9c1.247-.065,2.492-.07,3.739-.057.4,0,.557-.09.531-.517-.037-.6-.016-1.2-.006-1.8,0-.254-.021-.419-.348-.416a31.39,31.39,0,0,0-6.322.341,17.3,17.3,0,0,0-13.864,16.709c-.093,4.786-.021,9.574-.028,14.361a15.8,15.8,0,0,1-.83,5.245,15.3,15.3,0,0,1-3.387,5.449,1.37,1.37,0,1,0,1.983,1.876,16.79,16.79,0,0,0,4.91-11.355c.086-2.669.016-5.343.016-8.015h.031c0-.557-.011-1.114,0-1.67a66.9,66.9,0,0,1,.21-7.87A14.631,14.631,0,0,1,1326.281,1403.6Zm-5.6,17.554-5.089-5.089a29.509,29.509,0,0,0-.21,4.969c0,.21.059.338.3.335A28.4,28.4,0,0,0,1320.678,1421.155Zm5.362-2.641a3,3,0,0,1-.36-.279c-2.034-2.028-4.058-4.067-6.1-6.087a8,8,0,0,0-1.536-1.427,11.175,11.175,0,0,0-1.3,1.932.431.431,0,0,0,.077.626q3.344,3.318,6.661,6.659a.4.4,0,0,0,.57.088,13.719,13.719,0,0,0,1.736-1.117C1325.888,1418.833,1326.036,1418.8,1326.041,1418.514Zm3.15-4.435q-3.263-3.246-6.51-6.508a.448.448,0,0,0-.626-.11,12.605,12.605,0,0,0-2,1.271l7.961,7.964a12.04,12.04,0,0,0,1.266-1.987A.449.449,0,0,0,1329.191,1414.079Zm1.348-5.87c-.014-.639.274-1.478-.106-1.865-.414-.42-1.262-.113-1.92-.131a14.72,14.72,0,0,0-2.988.163l4.853,4.853S1330.561,1409.249,1330.539,1408.209Zm9.43-17.98q3.281,3.269,6.55,6.55c.175.175.316.257.568.121a11.808,11.808,0,0,0,2.036-1.3l-7.969-7.969a11.756,11.756,0,0,0-1.3,2.034C1339.716,1389.911,1339.792,1390.053,1339.969,1390.229Zm-1.358,5.9c.007.641-.219,1.5.1,1.867.373.425,1.251.12,1.908.136a13.883,13.883,0,0,0,3.111-.186l-4.936-4.929A15.108,15.108,0,0,0,1338.611,1396.131Zm15.534.473a1.349,1.349,0,0,0-1.915-.134c-.265.2-.5.438-.753.659a14.327,14.327,0,0,1-8.421,3.606c-1.334.118-2.669.072-4,.071-.347,0-.466.093-.45.448.028.622.023,1.247,0,1.869-.012.322.094.427.415.418.734-.019,1.469-.006,2.483-.006a17.076,17.076,0,0,0,9.655-2.721,17.665,17.665,0,0,0,2.859-2.289A1.351,1.351,0,0,0,1354.145,1396.6Z" transform="translate(-1288.756 -1379.582)" fill="#384dc5"/>
</svg>
