<?xml version="1.0" encoding="utf-8"?>
<!-- Generator: Adobe Illustrator 26.0.3, SVG Export Plug-In . SVG Version: 6.00 Build 0)  -->
<svg version="1.1" id="Camada_1" xmlns="http://www.w3.org/2000/svg" xmlns:xlink="http://www.w3.org/1999/xlink" x="0px" y="0px"
	 viewBox="0 0 194 48.9" style="enable-background:new 0 0 194 48.9;" xml:space="preserve">
<style type="text/css">
	.st0{fill:#FFFFFF;}
</style>
<path id="Grupo_5416" transform="translate(-197.727 -6043.742)" class="st0" d="M215,6044.9h-17.2v0.2c3.5,1.4,3.1,6.6,3.1,9.8
	v26.7c0,3.2,0.4,8.4-3.2,9.7v0.2h14.1v-0.2c-3.8-2.1-3.7-5-3.7-8.9v-32c1.6-0.3,3.3-0.4,5-0.4c5.7,0,10.1,2.5,10.1,8.7
	c0,6.8-6.6,10.6-12.7,10.9c1.6,0.7,3.4,1.1,5.2,1c8,0,15.6-5.2,15.6-13.3C231.3,6049.4,224.3,6044.9,215,6044.9z M275.4,6045.1
	l-0.1-0.2h-13.5v0.2c3.5,1.3,3.1,6.5,3.1,9.7v21.3c0,2.6,0.1,4.3-1.5,6.5c-2.4,3.2-6.3,5.1-10.4,5c-7.3,0-11.3-4.4-11.3-13.8v-18.9
	c0-3.2-0.4-8.4,3.1-9.7v-0.2h-13.5v0.2c3.6,1.3,3.1,6.5,3.1,9.7v18.9c0,5.1-0.1,9.9,3.6,14c3.2,3.5,8.2,5,12.8,5
	c5,0,10.8-1.7,13.9-5.8v4.7h10.4v-0.2c-3.6-1.3-3.2-6.5-3.2-9.7v-26.7C272.2,6051.6,271.8,6046.4,275.4,6045.1L275.4,6045.1z
	 M316.9,6082.3c-4.6,2.8-9.8,4.3-15.1,4.5c-10.9,0-18-9.3-18-19.7c0-10.3,6.8-17.4,16.6-17.4c4.7,0.1,9.2,1.5,13.1,4v-8.2
	c-4.2-1.1-8.6-1.7-12.9-1.8c-14.5,0-24.9,9.7-24.9,24.4c0,15.2,10.4,24.5,27.1,24.5c3.7,0.1,7.3-0.6,10.7-2.1l3.6-8.2L316.9,6082.3z
	 M347.9,6081.6l-10.2-12.8c5.8-1.4,11.3-6.2,11.3-12.5c0-6.5-5.2-11.4-14.7-11.4h-16.9v0.2c3.6,1.3,3.1,6.5,3.1,9.8v26.7
	c0,3.2,0.5,8.4-3.1,9.7v0.2h13.5v-0.2c-3.6-1.3-3.2-6.5-3.2-9.7v-31.8c1.6-0.3,3.2-0.5,4.8-0.6c4.8-0.2,9.1,2.8,9.1,7.9
	c0,6.7-6.6,9.3-12.3,10.1l6.5,10l8.7,10.7c2.1,2.6,4.5,3.5,8.2,3.5h6.5C355,6088.8,351.2,6085.5,347.9,6081.6z M367.3,6055.3
	c0-4.9,5.1-6.4,9.1-6.4c4.1,0,8.1,1.6,11.1,4.5v-8c-3.4-1.1-7-1.6-10.6-1.6c-8.7,0-17.8,3.4-17.8,12.3c0,15,24.4,13,24.4,24.1
	c0,5-6.1,7.4-10.1,7.4c-5.7-0.1-11.2-2.2-15.5-5.9l2.1,8.9c4.1,1.5,8.4,2.2,12.7,2.1c11.1,0,19-7.1,19-14.7
	C391.7,6064.9,367.3,6065,367.3,6055.3z"/>
</svg>
