<?xml version="1.0" encoding="utf-8"?>
<!-- Generator: Adobe Illustrator 26.0.3, SVG Export Plug-In . SVG Version: 6.00 Build 0)  -->
<svg version="1.1" id="Camada_1" xmlns="http://www.w3.org/2000/svg" xmlns:xlink="http://www.w3.org/1999/xlink" x="0px" y="0px"
	 viewBox="0 0 72.3 88.4" style="enable-background:new 0 0 72.3 88.4;" xml:space="preserve">
<style type="text/css">
	.st0{fill-rule:evenodd;clip-rule:evenodd;fill:#FFFFFF;}
</style>
<path id="Caminho_47" class="st0" d="M50.4,24.3c1.4-0.5,7.7-1,7.7,2.8c0,1.1-0.8,2-1.9,2c-0.1,0-0.1,0-0.2,0
	c-2.7,0.1-1.6-3.2-1.7-3.2c-6.5,0-3.9,14-3.6,16.2c0.1,1.2-0.8,2.3-2,2.4c-0.1,0-0.2,0-0.4,0c-0.9,0.1-1.8-0.5-2.1-1.4
	c-0.5-1.3-0.6-13.8,5.8-17.9c-1.8,0-7,3.5-9.2,10.4c0.2,1.7,0.2,3.5,0,5.2c-0.1,1.8-0.5,3.1-2.2,3.1c-1.4,0-2.4-1-2.2-3.1
	c0.3-3.7,1.6-14.5-2.1-16.2c-4,1.5-2.1,15.3-2.1,16.2c0.1,1.4-0.3,3.1-2.3,3.1c-2.3,0-2.2-1.4-2.2-3.1c0-1.4,0.1-4,0.2-5.2
	c-3.1-7.4-7.5-10.5-9.2-10.5c6.4,4.2,6.2,16.7,5.8,18c-0.2,0.9-1.1,1.5-2,1.4c-1.3,0.1-2.3-0.9-2.4-2.2c0-0.1,0-0.2,0-0.2
	C22.3,40,24.9,26,18.4,26c-0.1,0,1.1,3.2-1.7,3.2c-1.1,0.1-2-0.8-2.1-1.9c0-0.1,0-0.1,0-0.2c0-3.9,6.3-3.4,7.7-2.8
	c3.2,1.2,6.2,4.6,7.9,8.6c0.7-4.2,3.1-9,6.1-9.5c3,0.5,5.4,5.4,6.2,9.5C44.1,29.1,46.4,26.1,50.4,24.3L50.4,24.3z M16.3,10.1
	l-1.7-1.2h2.1l0.7-2l0.7,2h2.1l-1.7,1.2l0.6,2l-1.7-1.2l-1.7,1.2L16.3,10.1L16.3,10.1z M54.4,10.1l-1.7-1.2h2.1l0.7-2l0.7,2h2.1
	l-1.7,1.2l0.6,2l-1.7-1.2l-1.7,1.2L54.4,10.1L54.4,10.1z M49.3,14.5l-0.7,2l1.7-1.2l1.7,1.2l-0.6-2l1.7-1.2H51l-0.7-2l-0.7,2h-2.1
	L49.3,14.5L49.3,14.5z M49.3,5.7l-0.7,2l1.7-1.2L52,7.7l-0.6-2l1.7-1.2H51l-0.7-2l-0.7,2h-2.1L49.3,5.7L49.3,5.7z M42.5,16.1
	l-1.7-1.2h2.1l0.7-2l0.7,2h2.1l-1.7,1.2l0.6,2l-1.7-1.2l-1.7,1.2L42.5,16.1L42.5,16.1z M42.5,4l-1.7-1.2h2.1l0.7-2l0.7,2h2.1L44.6,4
	l0.6,2l-1.7-1.2L41.8,6L42.5,4L42.5,4z M21.4,14.4l-0.7,2l1.7-1.2l1.7,1.2l-0.6-2l1.7-1.2h-2.1l-0.7-2l-0.7,2h-2.1L21.4,14.4
	L21.4,14.4z M21.4,5.7l-0.7,2l1.7-1.2l1.7,1.2l-0.6-2l1.7-1.2h-2.1l-0.7-2l-0.7,2h-2.1L21.4,5.7L21.4,5.7z M28.2,16.1l-1.7-1.2h2.1
	l0.7-2l0.7,2H32l-1.7,1.2l0.6,2l-1.7-1.2l-1.7,1.2L28.2,16.1L28.2,16.1z M28.2,4l-1.7-1.2h2.1l0.7-2l0.7,2H32L30.3,4l0.6,2l-1.7-1.2
	L27.5,6L28.2,4L28.2,4z M35.3,16.7l-1.7-1.2h2.1l0.7-2l0.7,2h2.1l-1.7,1.2l0.6,2l-1.7-1.2l-1.7,1.2L35.3,16.7L35.3,16.7z M35.3,3.2
	L33.6,2h2.1l0.7-2l0.7,2h2.1l-1.7,1.2l0.6,2L36.4,4l-1.7,1.2L35.3,3.2L35.3,3.2z M64.9,83.7c1.2,0,2,0,2.2,0l0.2,0
	c-0.2-0.5-0.4-1-0.6-1.7c-0.3-0.6-0.5-1.1-0.6-1.4L64.9,83.7L64.9,83.7z M61.1,88.2l0-0.5c0.2,0,0.4-0.1,0.5-0.1
	c0.3,0,0.5-0.1,0.7-0.2c0.1-0.1,0.2-0.3,0.3-0.5l1.6-4.2l1.9-4.9c0.2,0,0.3,0,0.5,0h0.4l0.1,0.1l1.4,3.3c0.3,0.7,0.6,1.4,0.8,2
	c0.2,0.7,0.5,1.2,0.6,1.6c0.1,0.2,0.3,0.6,0.4,1.1c0.1,0.3,0.3,0.7,0.4,1c0.1,0.1,0.1,0.3,0.2,0.4c0.1,0.1,0.3,0.1,0.5,0.2
	c0.2,0,0.5,0.1,0.7,0.2c0,0.1,0,0.3,0,0.4c0,0,0,0.1,0,0.2c-0.4,0-0.8,0-1.3-0.1s-0.9-0.1-1.3-0.1c-0.4,0-0.7,0-0.9,0l-1.4,0.1
	l-0.4,0c0-0.2,0-0.4,0-0.5l0.9-0.2c0.2,0,0.3-0.1,0.5-0.2c0,0,0.1-0.1,0.1-0.2c0-0.1,0-0.1,0-0.2l-0.3-0.8l-0.6-1.6l-3,0
	c-0.1,0.3-0.3,0.9-0.7,1.9c-0.1,0.2-0.1,0.4-0.2,0.6c0,0.1,0,0.2,0.1,0.3c0.2,0.1,0.5,0.2,0.7,0.2c0,0,0.2,0,0.6,0.1
	c0,0.2,0,0.3,0,0.4c0,0.1,0,0.1,0,0.2c-0.3,0-1.1,0-2.4-0.1l-0.3,0.1c-0.4,0.1-0.7,0.1-1.1,0.1L61.1,88.2z M52.2,77.5
	c0,0.1-0.1,0.3-0.2,0.6c-0.2,0.7-0.4,1.4-0.7,2.1c0.1,0.1,0.3,0.2,0.5,0.3c0.1,0,0.2-0.1,0.3-0.3c0.3-0.4,0.6-0.8,1-1.1
	c0.3-0.1,0.7-0.2,1-0.1c0.9,0,1.4,0,1.6,0c0,0,0.1,0,0.1,0c0,0,0,0.1,0.1,0.1c0,0.5,0.1,1,0,1.5l0,3c0,1.4,0,2.4-0.1,3
	c0,0.1,0,0.3-0.1,0.4c-0.4,0.2-0.8,0.3-1.1,0.4c-0.3,0-0.5,0.2-0.7,0.3v0.1l0,0.2c0,0,0,0.1,0,0.2c0.1,0,0.3,0,0.6,0
	c0.8-0.1,1.2-0.1,1.4-0.1c1,0,1.7,0,2.1,0.1c0.5,0,0.9,0.1,1.4,0.1c0.1,0,0.2,0,0.3,0c0-0.1,0-0.1,0-0.2c0,0,0-0.2,0-0.4
	c-0.1-0.1-0.3-0.1-0.4-0.1c-0.4-0.1-0.5-0.1-0.6-0.1c-0.2,0-0.3,0-0.5-0.1c-0.1-0.3-0.1-0.5-0.1-0.8l0-1l0-2.5v-2.3l0-1.1
	c0-0.2,0-0.3,0-0.5c0.2,0,0.4,0,0.6,0c0.6,0,1.1,0,1.7,0c0.1,0,0.2,0.1,0.2,0.1c0.1,0.2,0.2,0.4,0.3,0.7c0.1,0.3,0.3,0.6,0.4,0.9
	c0.2,0,0.4-0.1,0.6-0.1c0-0.1,0-0.2,0-0.4l0-0.4l0-0.7c0-0.7,0-1.3,0-1.7c-0.1,0-0.2,0-0.2,0l-0.4,0l-0.1,0.2c0,0.1-0.1,0.3-0.2,0.4
	l-0.5,0.1h-2.5l-1.8,0l-1,0l-0.2,0c-0.3,0-0.7,0-1.1,0c-0.4,0-0.7,0-1.1,0c-0.1-0.2-0.2-0.3-0.3-0.5l-0.1-0.1L52.2,77.5z M49.8,78.1
	c0.1,0.3,0.1,0.5,0.1,0.8c0.1,0.4,0.1,0.8,0.1,1.3c0,0.1,0,0.2,0,0.3l-0.1,0l-0.6,0l-0.1,0c-0.1-0.5-0.4-1-0.7-1.4
	c-0.4-0.4-0.9-0.6-1.4-0.6c-0.4,0-0.9,0.1-1.2,0.4c-0.3,0.3-0.5,0.6-0.5,1c0,0.4,0.2,0.7,0.5,1c0.6,0.4,1.2,0.8,1.9,0.9
	c0.4,0.1,0.8,0.3,1.2,0.5c0.4,0.2,0.7,0.4,1,0.7c0.3,0.3,0.5,0.6,0.7,1c0.1,0.4,0.2,0.8,0.2,1.1c0,0.5-0.1,1-0.3,1.5
	c-0.1,0.3-0.3,0.5-0.5,0.7c-0.2,0.2-0.5,0.4-0.7,0.6c-0.3,0.2-0.7,0.4-1,0.5c-0.5,0.1-0.9,0.2-1.4,0.1c-0.4,0-0.9-0.1-1.3-0.2
	l-1-0.3c-0.2,0-0.3-0.1-0.5-0.2c0,0-0.1-0.1-0.1-0.2v-0.1c0-0.1,0-0.4,0-1.1c0-0.3,0-0.6,0-0.7v-0.3l0.7,0c0.3,0.6,0.4,0.9,0.5,1.1
	c0.1,0.2,0.3,0.5,0.5,0.7c0.2,0.2,0.5,0.3,0.7,0.4c0.3,0.1,0.6,0.2,0.9,0.1c0.3,0,0.6-0.1,0.9-0.2c0.3-0.1,0.6-0.3,0.8-0.6
	c0.5-0.6,0.4-1.5-0.2-2c0,0,0,0,0,0c-0.6-0.4-1.2-0.6-1.8-0.8c-0.7-0.2-1.4-0.5-2-0.9c-0.4-0.3-0.7-0.7-0.9-1.1
	c-0.2-0.4-0.3-0.9-0.3-1.3c0-0.8,0.3-1.6,0.9-2.1c0.7-0.6,1.7-1,2.7-0.9c0.4,0,0.8,0.1,1.1,0.1C49,77.9,49.4,78,49.8,78.1L49.8,78.1
	z M37.3,88.2v-0.6c0.1,0,0.3-0.1,0.5-0.1c0.3-0.1,0.5-0.1,0.8-0.3c0.1-0.2,0.2-0.4,0.1-0.7l0-0.9l0-1.8v-0.4c0-1.1,0.1-1.6,0.1-1.6
	l0-1.1l0-0.4l0-0.9l0-0.3c0-0.1,0-0.2-0.1-0.3c-0.3-0.1-0.7-0.2-1.1-0.2c-0.1,0-0.2,0-0.3,0l0-0.7l2.3,0.1c0.3,0,0.5,0,0.5,0
	c0.3,0,0.8,0,1.5-0.1c0.4,0,0.6,0,0.7,0c0,0.1,0,0.2,0,0.3c0,0.1,0,0.2,0,0.3c-0.2,0.1-0.5,0.2-0.7,0.2c-0.2,0.1-0.5,0.1-0.7,0.2
	c0,0.2-0.1,0.4,0,0.6c0,0.2,0,0.4,0,0.6c0,0.9,0,1.6,0,2.1l0,2.1l0,1.1l0,1.6l0,0.3c0,0.1,0,0.1,0,0.2c0.3,0.1,0.6,0.1,0.9,0.1
	c0,0,0.2,0,0.5,0.1c0,0.1,0,0.3,0,0.4c0,0.1,0,0.2,0,0.3c-0.1,0-0.1,0-0.2,0c-0.2,0-0.3,0-0.3,0c-0.1,0-0.1,0-0.2,0
	c-0.1,0-0.4,0-1.1-0.1l-1.4,0c-0.3,0-0.7,0-1.2,0.1C37.6,88.2,37.4,88.2,37.3,88.2L37.3,88.2z M29.5,82.6c0.3,0,0.4,0,0.6,0
	c0.7,0.1,1.4-0.1,1.9-0.5c0.4-0.3,0.6-0.8,0.6-1.3c0-0.3,0-0.6-0.1-0.9c-0.1-0.2-0.2-0.5-0.3-0.7c-0.2-0.2-0.5-0.4-0.8-0.5
	c-0.4-0.1-0.7-0.1-1.1-0.1c-0.2,0-0.4,0-0.6,0l0,0.2l0,1.1l0,0.7l0,0.9c0,0.2,0,0.6,0,0.9L29.5,82.6L29.5,82.6z M25.9,87.7
	c0.2-0.1,0.4-0.1,0.6-0.2c0.2,0,0.5-0.1,0.7-0.2c0-0.1,0-0.2,0-0.2c0-0.1,0-0.3,0-0.8l0-1.8l0-1l0-0.7l0-0.4c0-0.6,0-1.1,0-1.6
	c0-1.1,0-1.8,0-2.1l-0.5-0.1c-0.4,0-0.7-0.1-0.9-0.1l0-0.5l0-0.1c0.2,0,0.5-0.1,0.7-0.1c0.1,0,0.4,0,0.7,0c0.4,0,0.6,0,0.6,0l0.4,0
	l1,0c0.7-0.1,1.3-0.1,2-0.1c0.9,0,1.9,0.2,2.6,0.8c0.6,0.5,0.9,1.2,1,1.9c0,0.5-0.2,1-0.5,1.5c-0.4,0.5-1,0.8-1.6,1
	c0.1,0.1,0.1,0.2,0.3,0.4c0.2,0.3,0.4,0.6,0.5,0.8l1.3,2.1c0.2,0.3,0.4,0.7,0.6,1c0.2,0.1,0.4,0.2,0.6,0.3c0.2,0.1,0.4,0.2,0.5,0.3
	c0,0.1,0,0.2,0,0.2c0,0,0,0.1,0,0.2h-0.2l-0.2,0L36,88.2h-0.3c-0.2,0-0.4,0-0.6,0l-0.8,0c-0.1,0-0.2,0-0.6,0.1c-0.1,0-0.3,0-0.3,0
	l-0.3-0.5c-0.2-0.4-0.4-0.7-0.5-0.9c-0.2-0.5-0.6-1.3-1.2-2.5c-0.1-0.3-0.3-0.6-0.6-0.9c-0.3-0.1-0.5-0.2-0.8-0.2
	c-0.1,0-0.3,0-0.5,0c0,0.2,0,0.4,0,0.5l0,1.8l0,1.5c0.2,0.1,0.4,0.2,0.6,0.2c0.4,0.1,0.7,0.2,1.1,0.3c0,0.2,0,0.4,0,0.6
	c-0.1,0-0.2,0-0.2,0l-0.3,0c-1.1-0.1-1.8-0.2-2-0.2c-0.1,0-0.2,0-0.3,0l-1.1,0.1c-0.3,0-0.6,0.1-0.9,0.1h-0.3c0-0.1,0-0.2,0-0.3
	C25.9,87.9,25.9,87.8,25.9,87.7L25.9,87.7z M18.1,83.7c1.2,0,2,0,2.2,0l0.2,0c-0.2-0.5-0.4-1-0.6-1.7c-0.3-0.6-0.5-1.1-0.6-1.4
	L18.1,83.7L18.1,83.7z M14.4,88.2l0-0.5c0.1,0,0.3-0.1,0.5-0.1c0.3,0,0.5-0.1,0.7-0.2c0.1-0.1,0.2-0.3,0.3-0.5l1.6-4.2l1.9-4.9
	c0.2,0,0.3,0,0.5,0h0.4l0.1,0.1l1.4,3.3c0.3,0.7,0.6,1.4,0.8,2c0.2,0.7,0.5,1.2,0.6,1.6c0.1,0.2,0.3,0.6,0.4,1.1
	c0.1,0.3,0.2,0.6,0.4,1c0.1,0.1,0.1,0.3,0.2,0.4c0.1,0.1,0.3,0.1,0.5,0.2c0.2,0,0.5,0.1,0.7,0.2c0,0.1,0,0.3,0,0.4c0,0,0,0.1,0,0.2
	c-0.4,0-0.8,0-1.3-0.1s-0.9-0.1-1.3-0.1c-0.4,0-0.7,0-0.9,0l-1.4,0.1l-0.4,0c0-0.2,0-0.4,0-0.5l0.9-0.2c0.2,0,0.3-0.1,0.5-0.2
	c0.1,0,0.1-0.1,0.1-0.2c0-0.1,0-0.1,0-0.2l-0.3-0.8l-0.6-1.6l-3,0c-0.1,0.3-0.3,0.9-0.7,1.9C17,86.6,17,86.8,17,87
	c0,0.1,0,0.2,0.1,0.3c0.2,0.1,0.5,0.2,0.7,0.2c0,0,0.2,0,0.6,0.1c0,0.2,0,0.3,0,0.4c0,0.1,0,0.1,0,0.2c-0.3,0-1.1,0-2.4-0.1
	l-0.3,0.1c-0.4,0.1-0.7,0.1-1.1,0.1L14.4,88.2z M0,88.2l0-0.5c0.5,0,0.9-0.2,1.3-0.4c0.2-0.3,0.3-0.6,0.3-1l0.1-2.8l0.1-2.9
	c0-0.2,0-0.3,0-0.3c0-0.4,0-0.9-0.1-1.3c-0.3-0.2-0.7-0.3-1-0.3c-0.1,0-0.3-0.1-0.3-0.1c0-0.1,0-0.2,0-0.3v-0.2c0.2,0,0.4,0,0.7,0
	L3.3,78c0.1,0,0.1,0,0.2,0l0.4,0c0.1,0.1,0.2,0.3,0.3,0.4c0.2,0.4,0.5,1,0.8,1.7L5,80.4L6.3,83c0,0.1,0.1,0.2,0.1,0.3
	c0.1,0.2,0.2,0.4,0.2,0.5s0.2,0.4,0.3,0.6s0.2,0.4,0.3,0.5c0.1-0.1,0.1-0.3,0.2-0.4c0.2-0.5,0.4-0.9,0.6-1.3
	c0.4-0.7,0.8-1.8,1.4-3.3c0.1-0.2,0.3-0.6,0.5-1.1s0.3-0.7,0.4-0.8c0.1-0.1,0.2-0.1,0.3-0.1c0.1,0,0.1,0,0.2,0c0.3,0,0.6,0,1,0
	c0.6,0,1,0,1.3,0s0.5,0,0.6,0c0.1,0,0.1,0,0.2,0c0,0.1,0,0.1,0,0.2l0,0.2c0,0,0,0.1,0,0.2c-0.4,0.1-0.8,0.2-1.2,0.3
	c-0.2,0.1-0.3,0.2-0.3,0.4v0.1l0.1,2.4c0,0.2,0.1,1.3,0.1,3.3c0,0.4,0,1,0.1,1.7c0,0.1,0,0.1,0,0.2c0,0.1,0,0.2,0.1,0.2
	c0.5,0.2,0.9,0.3,1.4,0.5c0,0.1,0,0.1,0,0.2c0,0.1,0,0.2,0,0.3c-0.1,0-0.5,0-1.1-0.1c-0.5-0.1-1.1-0.1-1.6-0.1c-0.8,0-1.5,0-2.2,0.1
	c-0.1,0-0.2,0-0.3,0l0-0.5c0.3-0.1,0.6-0.2,0.9-0.2c0.2,0,0.4-0.1,0.5-0.2c0.1-0.3,0.1-0.6,0.1-0.8c0-0.2,0-0.3,0-0.5
	c0-0.6,0-1.3,0-2.3l-0.1-2.8c0-0.4,0-0.7-0.1-0.8l-2,4.5c0,0.1-0.1,0.3-0.2,0.5c-0.1,0.3-0.2,0.4-0.2,0.5c-0.4,1-0.7,1.7-0.8,2.3
	c0,0.1-0.1,0.3-0.2,0.5l-0.6,0L5.7,87c-0.1-0.3-0.3-0.8-0.7-1.4c-0.2-0.4-0.3-0.7-0.4-0.9c0-0.1-0.1-0.2-0.1-0.2l-0.1-0.2
	c0,0,0-0.1,0-0.1l-1.2-2.6l-0.7-1.6l-0.1,3.8l-0.1,2.4c0,0.3,0.1,0.6,0.2,0.9c0.3,0.2,0.6,0.4,1,0.4L4,87.7v0.6c-0.3,0-0.7,0-1-0.1
	c-0.5,0-0.9-0.1-1.4-0.1C1.4,88.1,0.9,88.2,0,88.2L0,88.2z M56.2,70.2c0.1,0,0.1,0,0.2-0.1v0c0.3,0.3,0.7,0.5,1.2,0.6
	c0.7,0,1.3-0.5,1.5-1.1c10.2-1.4,9.1-14.2,12.8-14.8c-2-0.2-3.2,1.4-4.3,3.5c0.1-3.7-1.7-7.5-2-9.3c-0.3-1,1.1-1.8,2-1
	c0.6,0.7,0.7,1.7,0.3,2.5c0.8,0.2,1.6-1.5,0.4-2.7c-1.2-1.5-3.6-1-3.7,1c0.8,4.5,3,8.3,1.5,11.8c-0.1,0.3-0.3,0.7-0.4,1.1
	c1.4-6.1-6.7-14.1-7-16.7c-0.3-1.7,2.5-2,1,0.7c0.8-0.1,1.5-0.8,1.4-1.7c0-0.1,0-0.1,0-0.2c-0.1-0.8-0.8-1.3-1.6-1.3
	c-0.8,0.1-1.5,0.6-1.7,1.4c-0.3,1.1,0.6,3.5,2.6,6.4c2.9,4.1,5.2,9,3.9,12.3c-0.9-5.6-5.3-5.2-7.7-9c-1.7-2.8,3.2-4.2,1.5,0.1
	c2.3-0.5,1.4-3.3-0.4-3.7c-1.2-0.2-2.2,0.6-2.5,1.8c-0.3,1,0.4,3,2.8,5c-4.1-0.3-6.4,3.1-4,4.6c0-4.9,9-3.3,9.2,1.7
	c-4.3-6.5-9.4,0.6-5.4,2.1c0.8,0.3,1.8-0.1,2.2-0.8c0.1-0.1-1.8,0.3-2-1.1c0-0.6,0.6-1.1,1.2-1.1c1.5,0.1,3.4,3.4-0.6,6
	c-0.3-0.3-0.7-0.5-1.2-0.6c-0.8,0-1.4,0.5-1.5,1.3c-6.6-0.7-5.3-11.9-5.2-15.8c0.1-4.2-5-4-4.9-0.6c0,3.1,2.3,14.2,6.1,16.2
	c-5.3-0.4-8.8-8.2-8.8-16.4c0-3.2-2.9-3.2-3.9-1.7c0,0,0,0,0-0.1l-0.1,0.1l0,0c-0.1,0.1-0.2,0.3-0.2,0.4c-0.6,1.1-1.7,3.3-2.7,5.7v3
	c0,0.2,0.1,0.4,0.1,0.6c0.5,2,0.9,4.1,1.2,6.1c0.3,2.2-0.8,2.7-1.3,2.9v1.1c3.7-0.7,2.5-7,0.5-12.3c0.6-1.6,1.3-3.2,2.2-4.7
	C39.8,58.3,43.3,71.3,56.2,70.2L56.2,70.2z M36.4,70.4v-1.1h0c-1.4-0.1-1.4-2-1.3-2.9c0.2-2.1,0.5-4.1,1-6.1c0,0,0.1-0.3,0.3-0.8
	c0,0.1,0,0.2,0.1,0.3v-3l-0.1,0.1c-0.8-2.2-1.8-4.2-3.1-6.1c-1-1.5-3.8-1.4-3.8,1.7c0,8.2-3.6,16-8.9,16.4c3.8-2,6.1-13.1,6.1-16.2
	c0.1-3.4-5-3.6-4.9,0.6c0.1,4,1.4,15.2-5.3,15.8c-0.1,0-0.1,0-0.1,0c-0.1-0.8-0.8-1.3-1.5-1.3c-0.5,0-0.9,0.2-1.2,0.6
	c-4-2.6-2.1-5.9-0.6-6c0.6,0,1.1,0.5,1.2,1.1c-0.1,1.3-2,1-2,1.1c0.5,0.7,1.4,1.1,2.3,0.8c4-1.5-1.1-8.6-5.4-2.1
	c0.1-5,9.2-6.6,9.2-1.7c2.4-1.4,0.1-4.9-3.9-4.6c2.4-2,3-4,2.8-5c-0.2-1.1-1.3-1.9-2.4-1.8c-1.8,0.3-2.7,3.2-0.4,3.7
	c-1.6-4.3,3.2-2.9,1.5-0.1c-2.4,3.8-6.8,3.4-7.7,9c-1.3-3.3,0.9-8.2,3.8-12.3c2-2.8,2.9-5.2,2.6-6.4c-0.3-0.8-0.9-1.3-1.7-1.4
	c-0.8,0-1.4,0.5-1.5,1.3c-0.2,0.8,0.3,1.6,1.1,1.8c0.1,0,0.1,0,0.2,0C11,43,13.8,43.3,13.5,45c-0.2,2.5-8.4,10.6-7,16.7
	c-0.1-0.1-0.2-0.6-0.4-1.1c-1.5-3.5,0.7-7.3,1.5-11.8c0-1.9-2.5-2.4-3.7-1c-1.1,1.2-0.3,2.9,0.5,2.7c-0.4-0.8-0.2-1.8,0.3-2.5
	c0.5-0.5,1.2-0.4,1.7,0c0.3,0.3,0.4,0.6,0.3,1c-0.3,1.8-2.1,5.5-2,9.3c-1.1-2.1-2.3-3.7-4.3-3.5C4.1,55.5,3,68.2,13.2,69.6
	c0.2,0.7,0.8,1.1,1.5,1.1c0.5,0,0.9-0.2,1.2-0.6v0c0.1,0,0.2,0,0.3,0.1c13.3,1.3,16.7-12.5,17.3-17.2c1.1,1.5,1.9,3.2,2.5,5
	C33.9,63.5,32.3,69.8,36.4,70.4C36.4,70.4,36.4,70.4,36.4,70.4L36.4,70.4z M46.3,47.2c0-1.1,0.9-2,2-2c1.1,0,2,0.9,2,2
	c0,1.1-0.9,2-2,2C47.2,49.2,46.3,48.3,46.3,47.2C46.3,47.2,46.3,47.2,46.3,47.2z M38.8,46.7c0-1.1,0.9-2,2-2c1.1,0,2,0.9,2,2
	c0,1.1-0.9,2-2,2c0,0,0,0,0,0C39.7,48.6,38.8,47.7,38.8,46.7z M29.8,46.9c0-1.1,0.9-2,2-2c1.1,0,2,0.9,2,2c0,1.1-0.9,2-2,2
	C30.7,48.9,29.8,48,29.8,46.9C29.8,46.9,29.8,46.9,29.8,46.9z M22.5,47.3c0-1.1,0.9-2,2-2c1.1,0,2,0.9,2,2c0,1.1-0.9,2-2,2
	C23.4,49.3,22.5,48.4,22.5,47.3C22.5,47.3,22.5,47.3,22.5,47.3L22.5,47.3z"/>
</svg>
