<?xml version="1.0" encoding="utf-8"?>
<!-- Generator: Adobe Illustrator 26.0.3, SVG Export Plug-In . SVG Version: 6.00 Build 0)  -->
<svg version="1.1" id="Camada_1" xmlns="http://www.w3.org/2000/svg" xmlns:xlink="http://www.w3.org/1999/xlink" x="0px" y="0px"
	 viewBox="0 0 77.3 59.1" style="enable-background:new 0 0 77.3 59.1;" xml:space="preserve">
<style type="text/css">
	.st0{fill:#FFFFFF;}
</style>
<path id="Grupo_5417" transform="translate(-827.675 -8220.392)" class="st0" d="M828.5,8267.6h0.8c0,0,0.1,0,0.1,0.1v4.3
	c0,0,0,0.1-0.1,0.1h-0.8c0,0-0.1,0-0.1-0.1L828.5,8267.6C828.4,8267.6,828.4,8267.6,828.5,8267.6z M830,8272h0.8c0,0,0.1,0,0.1-0.1
	l0,0v-3l2.2,3.1c0,0,0,0,0,0h0.8c0,0,0.1,0,0.1-0.1l0,0v-4.3c0,0,0-0.1-0.1-0.1h0h-0.8c0,0-0.1,0-0.1,0.1l0,0v3l-2.2-3c0,0,0,0,0,0
	H830c0,0-0.1,0-0.1,0.1l0,0L830,8272C830,8272,830,8272,830,8272z M835.7,8270.2h0.7c0.5,0,0.5,0.2,0.5,0.4c0,0.4-0.3,0.6-0.9,0.6
	c-0.5,0-1-0.1-1.4-0.2c0,0-0.1,0-0.1,0c0,0,0,0,0,0v0.7c0,0,0,0,0,0.1c0.5,0.1,1,0.2,1.5,0.2c1.2,0,1.9-0.5,1.9-1.4
	c0-0.8-0.5-1.3-1.5-1.3h-0.7c-0.3,0-0.5-0.1-0.5-0.4c0-0.4,0.3-0.6,1-0.6c0.5,0,0.9,0.1,1.4,0.2c0,0,0,0,0.1,0c0,0,0,0,0,0v-0.7
	c0,0,0,0,0-0.1c-0.4-0.1-0.9-0.2-1.4-0.2c-1.3,0-1.9,0.5-1.9,1.4C834.3,8269.8,834.8,8270.2,835.7,8270.2z M841.2,8267.6h-3.3
	c0,0-0.1,0-0.1,0.1l0,0v0.7c0,0,0,0.1,0.1,0.1h0h1.2v3.6c0,0,0,0.1,0.1,0.1h0.8c0,0,0.1,0,0.1-0.1l0,0v-3.6h1.2c0,0,0.1,0,0.1-0.1
	l0,0L841.2,8267.6C841.2,8267.6,841.2,8267.6,841.2,8267.6C841.2,8267.6,841.2,8267.6,841.2,8267.6z M841.5,8267.6h0.8
	c0,0,0.1,0,0.1,0.1v4.3c0,0,0,0.1-0.1,0.1h-0.8c0,0-0.1,0-0.1-0.1L841.5,8267.6C841.4,8267.6,841.4,8267.6,841.5,8267.6z
	 M842.5,8268.4h1.2v3.6c0,0,0,0.1,0.1,0.1h0h0.8c0,0,0.1,0,0.1-0.1l0,0v-3.6h1.2c0,0,0.1,0,0.1-0.1l0,0v-0.7c0,0,0-0.1-0.1-0.1h0
	h-3.3c0,0-0.1,0-0.1,0.1c0,0,0,0,0,0L842.5,8268.4C842.5,8268.4,842.5,8268.4,842.5,8268.4z M849.9,8267.7
	C849.9,8267.6,849.9,8267.6,849.9,8267.7L849.9,8267.7l-0.9-0.1c0,0-0.1,0-0.1,0.1l0,0v2.6c0,0.7-0.3,1-1,1s-1-0.3-1-1v-2.6
	c0,0,0-0.1-0.1-0.1h0h-0.8c0,0-0.1,0-0.1,0.1l0,0v2.6c0,1.2,0.6,1.8,1.9,1.8s1.9-0.6,1.9-1.8L849.9,8267.7z M853.4,8267.6h-3.3
	c0,0-0.1,0-0.1,0.1l0,0v0.7c0,0,0,0.1,0.1,0.1h0h1.2v3.6c0,0,0,0.1,0.1,0.1c0,0,0,0,0,0h0.8c0,0,0.1,0,0.1-0.1l0,0v-3.6h1.2
	c0,0,0.1,0,0.1-0.1l0,0L853.4,8267.6C853.5,8267.6,853.4,8267.6,853.4,8267.6C853.4,8267.6,853.4,8267.6,853.4,8267.6z
	 M855.7,8267.6c-1.1-0.1-2.1,0.6-2.2,1.7c0,0.2,0,0.4,0,0.5c-0.1,1.1,0.7,2.1,1.8,2.2c0.1,0,0.3,0,0.4,0c1.2,0,2.2-1.1,2.2-2.3
	C857.9,8268.6,856.9,8267.6,855.7,8267.6z M855.7,8271.2c-0.9,0-1.3-0.5-1.3-1.4c0-1,0.4-1.4,1.3-1.4c0.8,0,1.2,0.5,1.2,1.4
	C857,8270.8,856.6,8271.2,855.7,8271.2z M859.7,8272h1.7c1.5,0,2.2-0.8,2.2-2.3c0-1.4-0.7-2.1-2.2-2.1h-1.7c0,0-0.1,0-0.1,0.1
	L859.7,8272C859.6,8272,859.6,8272,859.7,8272z M861.3,8271.2h-0.8v-2.8h0.8c0.6-0.1,1.2,0.3,1.3,0.9c0,0.1,0,0.2,0,0.3
	C862.6,8270.7,862.2,8271.2,861.3,8271.2L861.3,8271.2z M866,8272.1c1.2,0,2.2-1.1,2.2-2.3c0-1.2-1-2.2-2.2-2.2
	c-1.1-0.1-2.1,0.6-2.2,1.7c0,0.2,0,0.4,0,0.5c-0.1,1.1,0.7,2.1,1.8,2.2C865.7,8272.1,865.9,8272.1,866,8272.1z M866,8271.2
	c-0.9,0-1.3-0.5-1.3-1.4c0-1,0.4-1.4,1.3-1.4c0.8,0,1.2,0.5,1.2,1.4C867.3,8270.8,866.9,8271.2,866,8271.2z M870.8,8272v-3.6h1
	c0.2,0,0.4,0.1,0.5,0.3c0,0,0,0.1,0,0.1c0,0.4-0.3,0.7-1,0.8c0,0-0.1,0,0,0.1l0.1,0.7c0,0,0,0.1,0.1,0c1.2-0.2,1.9-0.7,1.9-1.7
	c0-0.8-0.5-1.3-1.4-1.3H870c0,0-0.1,0-0.1,0.1c0,0,0,0,0,0v4.3c0,0,0,0.1,0.1,0.1c0,0,0,0,0,0L870.8,8272
	C870.8,8272,870.8,8272,870.8,8272z M873.6,8272h3c0,0,0.1,0,0.1-0.1l0,0v-0.7c0,0,0-0.1-0.1-0.1h0h-2.2v-1h2c0,0,0.1,0,0.1-0.1
	v-0.7c0,0,0-0.1-0.1-0.1h0h-2v-1h2.1c0,0,0.1,0,0.1-0.1l0,0v-0.7c0,0,0-0.1-0.1-0.1h0h-2.9c0,0-0.1,0-0.1,0.1c0,0,0,0,0,0
	L873.6,8272C873.5,8272,873.6,8272,873.6,8272C873.6,8272,873.6,8272,873.6,8272z M876.7,8268.4h1.2v3.6c0,0,0,0.1,0.1,0.1h0h0.8
	c0,0,0.1,0,0.1-0.1l0,0v-3.6h1.2c0,0,0.1,0,0.1-0.1c0,0,0,0,0,0v-0.7c0,0,0-0.1-0.1-0.1c0,0,0,0,0,0h-3.3c0,0-0.1,0-0.1,0.1l0,0
	L876.7,8268.4C876.7,8268.4,876.7,8268.4,876.7,8268.4z M880.3,8272h0.8c0,0,0.1,0,0.1-0.1c0,0,0,0,0,0v-3.5h1
	c0.3,0,0.5,0.1,0.5,0.4c0,0.4-0.4,0.7-1.1,0.8c0,0,0,0,0,0.1v0.4c0,0,0,0,0,0l1.3,1.9c0,0,0,0,0,0h1c0,0,0,0,0.1,0c0,0,0,0,0-0.1
	l-1.3-1.8c0.6-0.2,1-0.7,1-1.3c0-0.8-0.5-1.2-1.4-1.2h-2c0,0-0.1,0-0.1,0.1c0,0,0,0,0,0L880.3,8272
	C880.2,8272,880.3,8272,880.3,8272z M886.1,8272.1c1.2,0,2.2-1.1,2.2-2.3c0-1.2-1-2.2-2.2-2.2c-1.1-0.1-2.1,0.6-2.2,1.7
	c0,0.2,0,0.4,0,0.5c-0.1,1.1,0.7,2.1,1.8,2.2C885.9,8272.1,886,8272.1,886.1,8272.1z M886.1,8271.2c-0.9,0-1.3-0.5-1.3-1.4
	c0-1,0.4-1.4,1.3-1.4c0.8,0,1.2,0.5,1.2,1.4C887.4,8270.8,887,8271.2,886.1,8271.2z M885.7,8267.4h0.7c0,0,0,0,0,0l0.7-0.8
	c0,0,0,0,0-0.1c0,0,0,0-0.1,0h-1c0,0,0,0-0.1,0L885.7,8267.4C885.6,8267.3,885.6,8267.3,885.7,8267.4
	C885.6,8267.3,885.7,8267.4,885.7,8267.4z M891.4,8271.2h-1.7v-3.6c0,0,0-0.1-0.1-0.1h0h-0.8c0,0-0.1,0-0.1,0.1l0,0v4.3
	c0,0,0,0.1,0.1,0.1h0h2.5c0,0,0.1,0,0.1-0.1c0,0,0,0,0,0L891.4,8271.2C891.5,8271.2,891.4,8271.2,891.4,8271.2
	C891.4,8271.2,891.4,8271.2,891.4,8271.2z M892,8272h3c0,0,0.1,0,0.1-0.1l0,0v-0.7c0,0,0-0.1-0.1-0.1h0h-2.2v-1h2c0,0,0.1,0,0.1-0.1
	v-0.7c0,0,0-0.1-0.1-0.1h0h-2v-1h2.1c0,0,0.1,0,0.1-0.1l0,0v-0.7c0,0,0-0.1-0.1-0.1h0h-3c0,0-0.1,0-0.1,0.1l0,0L892,8272
	C891.9,8272,892,8272,892,8272C892,8272,892,8272,892,8272z M897.6,8267.6c-1.1-0.1-2.1,0.6-2.2,1.7c0,0.2,0,0.4,0,0.5
	c-0.1,1.1,0.7,2.1,1.8,2.2c0.1,0,0.3,0,0.4,0c1.2,0,2.2-1.1,2.2-2.3C899.8,8268.6,898.8,8267.6,897.6,8267.6z M897.6,8271.2
	c-0.9,0-1.3-0.5-1.3-1.4c0-1,0.4-1.4,1.3-1.4c0.8,0,1.2,0.5,1.2,1.4C898.8,8270.8,898.4,8271.2,897.6,8271.2z M901.5,8272h3
	c0,0,0.1,0,0.1-0.1c0,0,0,0,0,0v-0.7c0,0,0-0.1-0.1-0.1c0,0,0,0,0,0h-2.2v-1h2c0,0,0.1,0,0.1-0.1l0,0v-0.7c0,0,0-0.1-0.1-0.1
	c0,0,0,0,0,0h-2v-1h2.1c0,0,0.1,0,0.1-0.1l0,0v-0.7c0,0,0-0.1-0.1-0.1h0h-3c0,0-0.1,0-0.1,0.1l0,0L901.5,8272
	C901.5,8272,901.5,8272,901.5,8272z M829.9,8275h-1.7c0,0-0.1,0-0.1,0.1c0,0,0,0,0,0v4.3c0,0,0,0.1,0.1,0.1h1.7
	c1.5,0,2.2-0.8,2.2-2.3C832.1,8275.7,831.4,8275,829.9,8275z M829.9,8278.6h-0.8v-2.8h0.8c0.6-0.1,1.2,0.3,1.3,0.9
	c0,0.1,0,0.2,0,0.3C831.2,8278.1,830.8,8278.6,829.9,8278.6z M834.6,8275c-1.1-0.1-2.1,0.6-2.2,1.7c0,0.2,0,0.4,0,0.5
	c-0.1,1.1,0.7,2.1,1.8,2.2c0.1,0,0.3,0,0.4,0c1.2,0,2.2-1.1,2.2-2.3C836.8,8276,835.8,8275,834.6,8275z M834.6,8278.7
	c-0.9,0-1.3-0.5-1.3-1.4c0-1,0.4-1.4,1.3-1.4c0.8,0,1.2,0.5,1.2,1.4C835.9,8278.2,835.5,8278.7,834.6,8278.7z M839.1,8276.8h-0.7
	c-0.3,0-0.5-0.1-0.5-0.4c0-0.4,0.3-0.6,1-0.6c0.5,0,0.9,0.1,1.4,0.2c0,0,0.1,0,0.1,0c0,0,0,0,0,0v-0.7c0,0,0,0,0-0.1
	c-0.4-0.1-0.9-0.2-1.4-0.2c-1.3,0-1.9,0.5-1.9,1.4c0,0.8,0.5,1.3,1.4,1.3h0.7c0.5,0,0.5,0.2,0.5,0.4c0,0.4-0.3,0.6-0.9,0.6
	c-0.5,0-1-0.1-1.4-0.2c0,0-0.1,0-0.1,0c0,0,0,0,0,0v0.7c0,0,0,0,0,0.1c0.5,0.1,1,0.2,1.5,0.2c1.2,0,1.9-0.5,1.9-1.4
	C840.6,8277.2,840.1,8276.8,839.1,8276.8z M844.6,8277.5c0.6-0.2,1-0.7,1-1.3c0-0.8-0.5-1.2-1.4-1.2h-2c0,0-0.1,0-0.1,0.1
	c0,0,0,0,0,0v4.3c0,0,0,0.1,0.1,0.1h0h0.8c0,0,0.1,0,0.1-0.1l0,0v-3.5h1c0.3,0,0.5,0.1,0.5,0.4c0,0.4-0.4,0.7-1.1,0.8c0,0,0,0,0,0.1
	v0.4c0,0,0,0,0,0l1.3,1.9c0,0,0,0,0,0h1c0,0,0,0,0.1,0c0,0,0,0,0-0.1L844.6,8277.5z M849.1,8278.6h-2.2v-1h2c0,0,0.1,0,0.1-0.1l0,0
	v-0.7c0,0,0-0.1-0.1-0.1h0h-2v-1h2.1c0,0,0.1,0,0.1-0.1c0,0,0,0,0,0v-0.7c0,0,0-0.1-0.1-0.1c0,0,0,0,0,0h-3c0,0-0.1,0-0.1,0.1
	c0,0,0,0,0,0v4.3c0,0,0,0.1,0.1,0.1h3c0,0,0.1,0,0.1-0.1L849.1,8278.6C849.2,8278.7,849.1,8278.6,849.1,8278.6
	C849.1,8278.6,849.1,8278.6,849.1,8278.6z M851.9,8275c-1.6,0-2.4,0.7-2.4,2.2c-0.1,1.1,0.7,2.2,1.8,2.3c0.2,0,0.4,0,0.6,0
	c0.4,0,0.9-0.1,1.3-0.2c0,0,0,0,0-0.1v-0.7c0,0,0,0,0,0c0,0,0,0-0.1,0c-0.4,0.2-0.8,0.2-1.2,0.2c-0.7,0.1-1.4-0.4-1.5-1.1
	c0-0.1,0-0.3,0-0.4c0-0.9,0.5-1.4,1.5-1.4c0.4,0,0.8,0.1,1.2,0.2c0,0,0,0,0.1,0c0,0,0,0,0,0v-0.7c0,0,0,0,0-0.1
	C852.7,8275.1,852.3,8275,851.9,8275z M857.4,8275h-0.8c0,0-0.1,0-0.1,0.1c0,0,0,0,0,0v2.6c0,0.5-0.5,1-1.1,0.9
	c-0.5,0-0.9-0.4-0.9-0.9v-2.6c0,0,0-0.1-0.1-0.1c0,0,0,0,0,0h-0.8c0,0-0.1,0-0.1,0.1c0,0,0,0,0,0v2.6c0,1.2,0.6,1.8,1.9,1.8
	s1.9-0.6,1.9-1.8L857.4,8275C857.5,8275,857.5,8275,857.4,8275C857.4,8275,857.4,8275,857.4,8275z M860.5,8277.5
	c0.6-0.2,1-0.7,1-1.3c0-0.8-0.5-1.2-1.4-1.2h-2c0,0-0.1,0-0.1,0.1c0,0,0,0,0,0v4.3c0,0,0,0.1,0.1,0.1h0.8c0,0,0.1,0,0.1-0.1l0,0
	v-3.5h1c0.3,0,0.5,0.1,0.5,0.4c0,0.4-0.4,0.7-1.1,0.8c0,0,0,0,0,0.1v0.4c0,0,0,0,0,0l1.3,1.9c0,0,0,0,0,0h1c0,0,0,0,0.1,0
	c0,0,0,0,0-0.1L860.5,8277.5z M863.8,8276.8h-0.7c-0.3,0-0.5-0.1-0.5-0.4c0-0.4,0.3-0.6,1-0.6c0.5,0,0.9,0.1,1.4,0.2c0,0,0,0,0.1,0
	c0,0,0,0,0,0v-0.7c0,0,0,0,0-0.1c-0.4-0.1-0.9-0.2-1.4-0.2c-1.3,0-1.9,0.5-1.9,1.4c0,0.8,0.5,1.3,1.4,1.3h0.7c0.5,0,0.5,0.2,0.5,0.4
	c0,0.4-0.3,0.6-0.9,0.6c-0.5,0-1-0.1-1.4-0.2c0,0-0.1,0-0.1,0c0,0,0,0,0,0v0.7c0,0,0,0,0,0.1c0.5,0.1,1,0.2,1.5,0.2
	c1.2,0,1.9-0.5,1.9-1.4C865.3,8277.2,864.8,8276.8,863.8,8276.8z M867.8,8275c-1.1-0.1-2.1,0.6-2.2,1.7c0,0.2,0,0.4,0,0.5
	c-0.1,1.1,0.7,2.1,1.8,2.2c0.1,0,0.3,0,0.4,0c1.2,0,2.2-1.1,2.2-2.3C869.9,8276,868.9,8275,867.8,8275z M867.8,8278.7
	c-0.9,0-1.3-0.5-1.3-1.4c0-1,0.4-1.4,1.3-1.4c0.8,0,1.2,0.5,1.2,1.4C869,8278.2,868.6,8278.7,867.8,8278.7z M872.3,8276.8h-0.7
	c-0.3,0-0.5-0.1-0.5-0.4c0-0.4,0.3-0.6,1-0.6c0.5,0,0.9,0.1,1.4,0.2c0,0,0,0,0.1,0c0,0,0,0,0,0v-0.7c0,0,0,0,0-0.1
	c-0.4-0.1-0.9-0.2-1.4-0.2c-1.3,0-1.9,0.5-1.9,1.4c0,0.8,0.5,1.3,1.4,1.3h0.7c0.5,0,0.5,0.2,0.5,0.4c0,0.4-0.3,0.6-0.9,0.6
	c-0.5,0-1-0.1-1.4-0.2c0,0-0.1,0-0.1,0c0,0,0,0,0,0v0.7c0,0,0,0,0,0.1c0.5,0.1,1,0.2,1.5,0.2c1.2,0,1.9-0.5,1.9-1.4
	C873.7,8277.2,873.2,8276.8,872.3,8276.8z M879.2,8275h-0.8c0,0-0.1,0-0.1,0.1c0,0,0,0,0,0v3l-2.2-3c0,0,0,0,0,0h-0.8
	c0,0-0.1,0-0.1,0.1c0,0,0,0,0,0v4.3c0,0,0,0.1,0.1,0.1h0.8c0,0,0.1,0,0.1-0.1v-3l2.2,3.1c0,0,0,0,0,0h0.8c0,0,0.1,0,0.1-0.1
	L879.2,8275C879.3,8275,879.3,8275,879.2,8275C879.2,8275,879.2,8275,879.2,8275z M882.3,8275h-0.9c0,0,0,0-0.1,0l-1.8,4.3
	c0,0,0,0,0,0.1c0,0,0,0,0,0h0.8c0,0,0,0,0.1,0l1.4-3.4l0.6,1.4h-0.8c0,0,0,0-0.1,0l-0.3,0.7c0,0,0,0.1,0,0.1c0,0,0,0,0,0h1.4
	l0.5,1.1c0,0,0,0,0.1,0h0.9c0,0,0,0,0,0c0,0,0,0,0-0.1L882.3,8275C882.4,8275,882.3,8275,882.3,8275z M886.9,8275h-3.3
	c0,0-0.1,0-0.1,0.1c0,0,0,0,0,0v0.7c0,0,0,0.1,0.1,0.1h0h1.2v3.6c0,0,0,0.1,0.1,0.1h0.8c0,0,0.1,0,0.1-0.1v-3.6h1.2
	c0,0,0.1,0,0.1-0.1l0,0L886.9,8275C887,8275,887,8275,886.9,8275C886.9,8275,886.9,8275,886.9,8275z M890.9,8275h-0.8
	c0,0-0.1,0-0.1,0.1c0,0,0,0,0,0v2.6c0,0.5-0.5,1-1.1,0.9c-0.5,0-0.9-0.4-0.9-0.9v-2.6c0,0,0-0.1-0.1-0.1h0h-0.8c0,0-0.1,0-0.1,0.1
	l0,0v2.6c0,1.2,0.6,1.8,1.9,1.8s1.9-0.6,1.9-1.8L890.9,8275C891,8275,891,8275,890.9,8275z M897.8,8275H897c0,0,0,0-0.1,0l-1.7,4.1
	l-1.2-1.6c0.6-0.2,1-0.7,1-1.3c0-0.8-0.5-1.2-1.4-1.2h-2c0,0-0.1,0-0.1,0.1l0,0v4.3c0,0,0,0.1,0.1,0.1h0h0.8c0,0,0.1,0,0.1-0.1l0,0
	v-3.5h1c0.3,0,0.5,0.1,0.5,0.4c0,0.4-0.4,0.7-1.1,0.8c0,0,0,0,0,0.1v0.4c0,0,0,0,0,0l1.3,1.9c0,0,0,0,0,0h1.7c0,0,0,0,0.1,0l1.4-3.4
	l0.6,1.4h-0.8c0,0,0,0-0.1,0l-0.3,0.7c0,0,0,0.1,0,0.1c0,0,0,0,0,0h1.4l0.5,1.1c0,0,0,0,0.1,0h0.9c0,0,0.1,0,0.1-0.1c0,0,0,0,0,0
	L897.8,8275C897.9,8275,897.9,8275,897.8,8275z M900.1,8275h0.8c0,0,0.1,0,0.1,0.1v4.3c0,0,0,0.1-0.1,0.1h-0.8c0,0-0.1,0-0.1-0.1
	L900.1,8275C900,8275,900.1,8275,900.1,8275z M903.4,8276.8h-0.7c-0.3,0-0.5-0.1-0.5-0.4c0-0.4,0.3-0.6,1-0.6c0.5,0,0.9,0.1,1.4,0.2
	c0,0,0,0,0.1,0c0,0,0,0,0,0v-0.7c0,0,0,0,0-0.1c-0.4-0.1-0.9-0.2-1.4-0.2c-1.3,0-1.9,0.5-1.9,1.4c0,0.8,0.5,1.3,1.4,1.3h0.7
	c0.5,0,0.5,0.2,0.5,0.4c0,0.4-0.3,0.6-0.9,0.6c-0.5,0-1-0.1-1.4-0.2c0,0-0.1,0-0.1,0c0,0,0,0,0,0v0.7c0,0,0,0,0,0.1
	c0.5,0.1,1,0.2,1.5,0.2c1.2,0,1.9-0.5,1.9-1.4C904.9,8277.2,904.4,8276.8,903.4,8276.8z M905,8241.4v16c0,2.4-1.8,4.4-4.1,4.7
	l-9.7-18.2c5-1.8,7.9-4.9,8.8-9.2c0.5-2.7,0.2-4.7-1-6.2c-1.3-1.6-3.7-2.4-7.1-2.4h-14l-7.2,36.1h-19.9l6-30.2h7.1
	c0.8-0.1,1.6,0.2,2.2,0.7c0.5,0.7,0.6,1.6,0.3,2.4c-0.6,2.9-3.4,4.7-8.4,5.6l-0.4,0.1l-0.2,5.9l0.6-0.1c8.8-1.3,13.9-5.2,15.2-11.5
	c0.6-2.9,0.2-5.1-1-6.6c-1.3-1.6-3.7-2.4-7-2.4h-13.8l-7.2,36.1h-11.7c-2.6,0-4.8-2.1-4.8-4.8v-32.3c0-2.6,2.1-4.8,4.8-4.8h7.6
	l-7.3,36.8h6.5l7.3-36.8h53.7c2.6,0,4.8,2.1,4.8,4.8L905,8241.4z M883.9,8243.6l9.3,18.6h-15.9l6-30.2h7.2c0.9-0.1,1.7,0.2,2.3,0.7
	c0.4,0.6,0.5,1.3,0.3,2c-0.6,3-3.4,5-8.3,5.8l-0.3,0.1L883.9,8243.6z"/>
</svg>
