<svg xmlns="http://www.w3.org/2000/svg" xmlns:xlink="http://www.w3.org/1999/xlink" width="109.357" height="63.051" viewBox="0 0 109.357 63.051">
  <defs>
    <clipPath id="clip-path">
      <rect id="Ret창ngulo_955" data-name="Ret창ngulo 955" width="106.827" height="62.283" fill="none"/>
    </clipPath>
  </defs>
  <g id="Grupo_3857" data-name="Grupo 3857" transform="translate(-1443.141 -933.484)">
    <g id="Grupo_3337" data-name="Grupo 3337" transform="translate(1445.078 933.764)">
      <g id="Grupo_3336" data-name="Grupo 3336" clip-path="url(#clip-path)">
        <path id="Caminho_14181" data-name="Caminho 14181" d="M374.112,72.873a2.687,2.687,0,0,1-1.124,2.972c-1.323.969-3.7,1.464-5.655,1.925a5.191,5.191,0,0,0-.883.2c-.311.164-.478.766-.6,1.123-.514,1.454-.561,3.694.963,4.128,1.848.532,3.212-1.32,4.372-2.045a2.735,2.735,0,0,1-.842,1.206c-.97.926-3.479,2.537-5.375,1.6-2.036-1.006-1.3-4.111-.4-5.976a12.653,12.653,0,0,1,4.131-4.777,6.823,6.823,0,0,1,3.129-1.28c.959-.077,2.008.194,2.286.919m-1.364,1.247a1.259,1.259,0,0,0-1.524-1.608c-1.176.164-2.166,1.351-2.848,2.206a9.474,9.474,0,0,0-1.6,2.527c2.354-.124,5.532-.932,5.977-3.125" transform="translate(-267.422 -45.546)" fill="#fff"/>
        <path id="Caminho_14182" data-name="Caminho 14182" d="M371.8,72.614a1.259,1.259,0,0,1,1.524,1.608c-.444,2.193-3.624,3-5.977,3.125a9.473,9.473,0,0,1,1.6-2.527c.682-.856,1.671-2.043,2.848-2.206" transform="translate(-268.001 -45.648)" fill="#384dc5"/>
        <path id="Caminho_14183" data-name="Caminho 14183" d="M362.473,72.078a.7.7,0,0,1-.361.883c-.431.1-.638-.291-1.083-.361a2.435,2.435,0,0,0-1.363.16c.929,3.413-1.193,6.451-4.291,6.654-1.14.078-3.4-.631-3.249,1.043a1.578,1.578,0,0,0,.4.762,12.314,12.314,0,0,0,2.848,1.926c1,.662,2.306,1.6,2.566,2.811a2.779,2.779,0,0,1-.16,1.641c-1.05,2.129-6.036,2.537-8.583,1.324-1.072-.512-2.517-1.879-1.685-3.409.735-1.354,2.477-1.859,4.172-2.443-.558-.568-1.3-1.087-1.284-2.046.024-1.363,1.475-1.835,2.487-2.326-.037-.4-.357-.689-.481-1.083-1.153-3.727,3.93-7.367,7.139-5.1a8.276,8.276,0,0,1,2.206-.8c.344-.007.628.1.722.364M358.3,74.926a2.981,2.981,0,0,0,.2-2.166,1.119,1.119,0,0,0-1.123-.481A4.56,4.56,0,0,0,355.134,74a5.2,5.2,0,0,0-1.564,3.452c.06,1.912,1.671,1.451,2.647.6a7.028,7.028,0,0,0,2.085-3.129m-2.125,12.912c.521-1.477-.859-2.329-1.645-2.928-.6-.454-1.624-1.276-2.486-1.2a3.655,3.655,0,0,0-2.969,1.644c-.775,1.511.415,2.744,1.485,3.289,1.664.84,5.037.836,5.615-.805" transform="translate(-264.849 -45.51)" fill="#fff"/>
        <path id="Caminho_14184" data-name="Caminho 14184" d="M359.676,72.863a2.986,2.986,0,0,1-.2,2.166,7.022,7.022,0,0,1-2.086,3.129c-.975.849-2.587,1.31-2.647-.6a5.2,5.2,0,0,1,1.565-3.452,4.56,4.56,0,0,1,2.246-1.722,1.121,1.121,0,0,1,1.123.481" transform="translate(-266.022 -45.613)" fill="#384dc5"/>
        <path id="Caminho_14185" data-name="Caminho 14185" d="M357.117,40.65c1.7.187,2.106,2.3,1.123,3.529a3.829,3.829,0,0,1-1.083.879c-.422.228-.983.5-1.4.284.237-.244.577-.244.842-.4a2.406,2.406,0,0,0,1-1.324c-2.744.873-3.182-3.272-.481-2.964" transform="translate(-266.11 -40.633)" fill="#fff"/>
        <path id="Caminho_14186" data-name="Caminho 14186" d="M354.824,87.142c.786.6,2.166,1.451,1.645,2.928-.578,1.641-3.952,1.644-5.616.805-1.069-.545-2.259-1.778-1.484-3.289a3.65,3.65,0,0,1,2.968-1.644c.863-.077,1.888.745,2.487,1.2" transform="translate(-265.14 -47.742)" fill="#384dc5"/>
        <path id="Caminho_14187" data-name="Caminho 14187" d="M351.986,102.385A8.376,8.376,0,0,1,349.9,108.6a7.936,7.936,0,0,1-5.575,2.727,8.415,8.415,0,0,1-6.217-2.129,8.269,8.269,0,0,1-2.687-5.612,7.989,7.989,0,0,1,2.045-6.181,8.214,8.214,0,0,1,5.615-2.764,8.259,8.259,0,0,1,8.9,7.741m-2.647,2.684a13.082,13.082,0,0,0-.842-6.618c-.842-1.741-2.557-3.75-5.415-3.446a5.027,5.027,0,0,0-3.609,2.2,8.379,8.379,0,0,0-1.484,4.251c-.395,3.663.782,6.95,2.807,8.507a5.141,5.141,0,0,0,5.816.117,6.823,6.823,0,0,0,2.727-5.014" transform="translate(-262.985 -49.103)" fill="#fff"/>
        <path id="Caminho_14188" data-name="Caminho 14188" d="M351.187,51.2c-.2.334-.733.187-1.123.277a1.549,1.549,0,0,0-1.244.963,10.379,10.379,0,0,0-.08,2.326,10.578,10.578,0,0,1,0,2.367c-.073.231-.635.551-.883.725a12.535,12.535,0,0,1-8.744,2.006c-5.3-.682-8.9-3.984-8.542-10.311a9.3,9.3,0,0,1,1.563-4.69,10.836,10.836,0,0,1,8.5-4.211,11.166,11.166,0,0,1,6.578,1.722,1.631,1.631,0,0,0,.8.361c.695,0,.752-.642,1.163-1a25.577,25.577,0,0,1-.04,4.616,2.55,2.55,0,0,1-.561-.966,7.381,7.381,0,0,0-6.257-4.408c-5.455-.371-8.212,3.74-8.623,8.46a11.209,11.209,0,0,0,1.564,6.9A6.418,6.418,0,0,0,340.4,59.7c2.112.137,4.4-.535,5.094-1.889a7.786,7.786,0,0,0,.2-2.8,10.374,10.374,0,0,0-.039-2.21,2.225,2.225,0,0,0-1.846-1.324c-.4-.067-.926.107-1.243-.24.21-.281.645-.161.962-.161H349.1a6.432,6.432,0,0,1,2.087.124" transform="translate(-262.226 -40.633)" fill="#fff"/>
        <path id="Caminho_14189" data-name="Caminho 14189" d="M348.967,98.517a13.082,13.082,0,0,1,.842,6.618,6.82,6.82,0,0,1-2.727,5.013,5.139,5.139,0,0,1-5.816-.116c-2.026-1.558-3.2-4.844-2.807-8.507a8.4,8.4,0,0,1,1.484-4.252,5.026,5.026,0,0,1,3.61-2.2c2.857-.3,4.572,1.7,5.414,3.446" transform="translate(-263.455 -49.17)" fill="#384dc5"/>
        <path id="Caminho_14190" data-name="Caminho 14190" d="M349,72.795a2.655,2.655,0,0,1-.842,2.847c-1.565,1.351-4.522,1.718-6.819,2.327-1.113,1.377-1.625,5.29.963,5.331a4.066,4.066,0,0,0,2.486-1.043,7.21,7.21,0,0,1,1.324-1.083,2.559,2.559,0,0,1-.882,1.206c-1,.946-3.486,2.576-5.415,1.561-2.039-1.072-1.1-4.2-.281-5.933a11.634,11.634,0,0,1,4.092-4.776,6.479,6.479,0,0,1,3.129-1.28c1.049-.09,1.925.15,2.246.842m-2.286,2.888a2.758,2.758,0,0,0,1-2.045,1.262,1.262,0,0,0-1.684-1.087,5.871,5.871,0,0,0-2.847,2.327,8.068,8.068,0,0,0-1.485,2.366,8.784,8.784,0,0,0,5.014-1.561" transform="translate(-263.487 -45.545)" fill="#fff"/>
        <path id="Caminho_14191" data-name="Caminho 14191" d="M348.3,73.74a2.759,2.759,0,0,1-1,2.045,8.785,8.785,0,0,1-5.014,1.561,8.086,8.086,0,0,1,1.484-2.367,5.871,5.871,0,0,1,2.848-2.326A1.261,1.261,0,0,1,348.3,73.74" transform="translate(-264.067 -45.648)" fill="#384dc5"/>
        <path id="Caminho_14192" data-name="Caminho 14192" d="M338.631,66.663c.114-.017.334-.114.481.04a7.453,7.453,0,0,1-.722,2c-1.655,3.78-3.45,7.728-5.174,11.515a6.525,6.525,0,0,0-.723,1.965c1.136-.294,1.645-1.434,2.447-1.926a6.552,6.552,0,0,1-1.564,1.966,3.5,3.5,0,0,1-2.246,1.239c-.765-.468-.044-1.9.281-2.643,1.945-4.449,4.221-9.088,6.056-13.48-.207-.364-1.183.033-1.363-.357a16.876,16.876,0,0,1,2.527-.325" transform="translate(-262.264 -44.71)" fill="#fff"/>
        <path id="Caminho_14193" data-name="Caminho 14193" d="M330.552,66.8a7.425,7.425,0,0,1,1.805-.083,29.208,29.208,0,0,1-1.6,3.934c-1.13,2.54-2.246,5.077-3.409,7.658a31.405,31.405,0,0,0-1.644,3.854c.6.017.955-.505,1.324-.846.4-.364.755-.769,1.163-1.08a7.889,7.889,0,0,1-2.567,2.845c-.755.475-1.855.682-1.523-.722a17.6,17.6,0,0,1,1.283-3.049c1.751-4,3.673-8.1,5.334-11.952-.223-.321-1.046-.05-1.363-.281.174-.311.752-.244,1.2-.277" transform="translate(-261.204 -44.719)" fill="#fff"/>
        <path id="Caminho_14194" data-name="Caminho 14194" d="M327.381,97.119c1.628,1.878,2.3,5.709,1.244,8.784a7.75,7.75,0,0,1-5.977,5.014c-2.206.508-5.224.244-7.861.364-.435.016-.9.016-1.324.04-.384.013-.842.18-1.163-.123.148-.265.866-.228,1.163-.4,1-.562.682-2.965.682-4.613V99.329c0-1.641.25-3.406-.682-4.011-.351-.23-.9-.207-1.2-.444.341-.3.986-.137,1.564-.16,1.574-.061,3.573-.047,5.094-.117,3.823-.18,6.751.555,8.463,2.523m-.842,6.979c.662-6-2.523-9.526-8.423-9.065-1.373.107-1.724.578-1.724,2.086v9.747c0,1.564-.1,2.784.521,3.412.572.582,1.441.478,2.407.519,4.606.187,6.778-2.678,7.219-6.7" transform="translate(-259.356 -49.097)" fill="#fff"/>
        <path id="Caminho_14195" data-name="Caminho 14195" d="M318.883,95.113c5.9-.461,9.084,3.068,8.423,9.065-.442,4.021-2.614,6.885-7.22,6.7-.966-.04-1.835.063-2.406-.519-.619-.628-.522-1.848-.522-3.413V97.2c0-1.507.352-1.979,1.725-2.086" transform="translate(-260.124 -49.176)" fill="#384dc5"/>
        <path id="Caminho_14196" data-name="Caminho 14196" d="M324.943,40.931c-.237.321-.805.121-1.2.244a2.26,2.26,0,0,0-1.284,2.166c-.164,2.25.04,4.924.04,7.578,0,2.945.05,5.8.08,8.383-.822.25-1.16-.341-1.644-.883-4.522-5.03-9.148-10.275-13.637-15.238.043,2.27.12,4.82.16,7.377.033,2.246-.073,4.509.08,6.5a2.839,2.839,0,0,0,.722,1.761c.539.508,1.264.475,1.885.762-.207.388-.8.24-1.244.24h-1.443a11.919,11.919,0,0,1-2.807-.116c.019-.355.658-.238.962-.365,1.254-.511,1.244-2.372,1.244-4.371V46.908c0-1.354.121-2.711,0-4.011a1.886,1.886,0,0,0-.922-1.524c-.354-.2-.916-.21-1.083-.481-.006-.1.061-.126.121-.16h2.206a10.141,10.141,0,0,1,2.206,0c.214.057.589.558.842.842,3.938,4.379,7.995,9.065,11.872,13.356-.087-1.775-.026-3.79-.12-5.816s.033-4.044-.121-5.816a2.278,2.278,0,0,0-1.6-2.045c-.384-.134-.889-.027-1.244-.362.08-.264.448-.153.642-.16,1.237-.013,2.637,0,3.93,0,.5,0,1.05-.11,1.364.2" transform="translate(-258.162 -40.637)" fill="#fff"/>
        <path id="Caminho_14197" data-name="Caminho 14197" d="M318.243,71.571c2.634-.284,3.643,1.7,3.49,4.449a9.537,9.537,0,0,1-1.645,4.656,8.3,8.3,0,0,1-3.168,3.085,4.141,4.141,0,0,1-3.249.08c-2.727-1.4-1.437-6.31-.281-8.463a7.393,7.393,0,0,1,3.37-3.446,4.505,4.505,0,0,1,1.484-.361m1.765,5.535c.538-1.293,1.722-5.354-.963-4.937a2.235,2.235,0,0,0-.481.121c-1.564.672-2.68,2.353-3.609,3.974a16.147,16.147,0,0,0-1.244,2.564c-.461,1.28-1.186,4.124.281,4.572,1.077.328,2.159-.675,2.768-1.283a16.251,16.251,0,0,0,3.248-5.01" transform="translate(-259.323 -45.483)" fill="#fff"/>
        <path id="Caminho_14198" data-name="Caminho 14198" d="M319.244,72.279c2.684-.418,1.5,3.643.963,4.937a16.259,16.259,0,0,1-3.249,5.01c-.608.609-1.691,1.611-2.767,1.284-1.468-.449-.742-3.292-.281-4.573a16.3,16.3,0,0,1,1.243-2.564c.93-1.62,2.046-3.3,3.61-3.973a2.185,2.185,0,0,1,.481-.121" transform="translate(-259.522 -45.594)" fill="#384dc5"/>
        <path id="Caminho_14199" data-name="Caminho 14199" d="M308.621,68.339c.477.027.537-.662,1.083-.518a22.146,22.146,0,0,1-.963,3.526c-.1.347-.077.862-.481,1-.311-.524-.127-1.1-.16-1.6a3.747,3.747,0,0,0-4.372-3.767,7.081,7.081,0,0,0-3.891,2.2,16.426,16.426,0,0,0-2.767,3.329,13.886,13.886,0,0,0-1.846,4.252c-.584,2.68-.177,6.073,2.568,6.3a6.59,6.59,0,0,0,2.767-.558,10.655,10.655,0,0,0,4.853-3.453c.221-.281.432-.725.884-.762a4.459,4.459,0,0,1-.362,1.444q-.472,1.394-.963,2.811a3.633,3.633,0,0,1-.6,1.283c-.511-.281-.281-1.3-.722-1.644-.9.247-1.518.6-2.407.879a8.821,8.821,0,0,1-2.767.484,4.809,4.809,0,0,1-5.013-3.328c-.729-2.156-.014-4.88.922-6.739,1.755-3.5,4.908-6.574,9.706-6.9a5.877,5.877,0,0,1,3.69,1.046c.258.187.568.7.843.718" transform="translate(-256.359 -44.702)" fill="#fff"/>
        <path id="Caminho_14200" data-name="Caminho 14200" d="M307.192,94.841c-.211.277-.611.141-.922.24-1.691.542-1.5,3.079-1.4,5.5.133,3.329.013,7.45.08,10.625-.585.191-.866-.254-1.163-.6-4.024-4.652-8.051-9.469-12.072-14.161.043,3.058.2,6.712.2,10.027,0,2.006-.16,3.784,1.324,4.292.3.107.7,0,.923.284-.214.284-.716.157-1.083.157a29.777,29.777,0,0,1-3.65-.08c.02-.3.628-.24.882-.361,1.254-.588,1.043-3.042,1.043-5.014s-.04-4.295-.04-6.3c0-1.574.257-3.386-.522-4.051a10.475,10.475,0,0,0-1.2-.562c-.007-.1.06-.127.121-.157h1.925a8.024,8.024,0,0,1,1.926,0c.18.056.488.521.722.8,3.372,4.008,6.962,8.233,10.268,12.156-.007-2.329-.16-5.431-.16-8.022,0-1.528.137-3.3-.6-4.011a2.353,2.353,0,0,0-.882-.485c-.328-.1-.752-.03-1.043-.321a38.9,38.9,0,0,1,4.091-.08,2.341,2.341,0,0,1,1.244.121" transform="translate(-255.773 -49.104)" fill="#fff"/>
        <path id="Caminho_14201" data-name="Caminho 14201" d="M300.759,59.672c-.207.261-.628.127-.922.121-1.749-.027-3.69-.071-5.5,0a5.066,5.066,0,0,1-2.006-.077c.2-.365.736-.207,1.124-.284,1.855-.365,1.564-2.39,1.564-4.813v-7.7c0-1.555.291-3.831-.321-4.813a2.194,2.194,0,0,0-.6-.642,7.82,7.82,0,0,0-1.965-.521.368.368,0,0,1,.16-.16c2.173-.073,5.2-.04,7.58-.04.265,0,.692-.11.842.2-.213.257-.7.167-1.043.244a1.831,1.831,0,0,0-1.6,1.6,30.775,30.775,0,0,0,0,3.69V53.86c0,1.574-.275,3.69.32,4.649a2.088,2.088,0,0,0,1.2.886c.358.1.956-.027,1.163.277" transform="translate(-256.199 -40.647)" fill="#fff"/>
        <path id="Caminho_14202" data-name="Caminho 14202" d="M284.911,102.31a8.293,8.293,0,0,1-1.966,6.254,8.019,8.019,0,0,1-5.535,2.771,8.346,8.346,0,0,1-6.257-2.006,8.548,8.548,0,0,1-2.768-5.538,7.943,7.943,0,0,1,1.965-6.257,8.2,8.2,0,0,1,5.535-2.845,8.351,8.351,0,0,1,6.3,2.043,8.042,8.042,0,0,1,2.727,5.578m-6.538,8.423c3.259-1.053,4.6-5.485,3.891-9.589a8.938,8.938,0,0,0-1.805-4.168,5,5,0,0,0-4.091-1.965,4.915,4.915,0,0,0-2.566.839c-2.2,1.558-3.323,4.93-2.808,8.624a9.111,9.111,0,0,0,1.6,4.254,4.982,4.982,0,0,0,5.776,2.006" transform="translate(-252.463 -49.11)" fill="#fff"/>
        <path id="Caminho_14203" data-name="Caminho 14203" d="M282.736,101.209c.708,4.1-.631,8.536-3.891,9.589a4.981,4.981,0,0,1-5.775-2.006,9.1,9.1,0,0,1-1.6-4.254c-.515-3.694.611-7.066,2.807-8.624a4.916,4.916,0,0,1,2.567-.839,5,5,0,0,1,4.091,1.965,8.938,8.938,0,0,1,1.805,4.168" transform="translate(-252.936 -49.174)" fill="#384dc5"/>
        <path id="Caminho_14204" data-name="Caminho 14204" d="M265.112,106.284c-.107,1.658-.585,3.289-.842,4.93H251.315a4.5,4.5,0,0,1-1.725-.121c.327-.271.949-.148,1.363-.321,1.311-.535,1-2.78,1-4.729V99.782a12.455,12.455,0,0,0-.121-3.526,2.538,2.538,0,0,0-2.326-1.408v-.12c.033-.007.04-.037.08-.037h5.334a4.161,4.161,0,0,1,1.645.117c-.792.351-1.711.378-2.006,1.167a13.326,13.326,0,0,0-.08,3.446v7.059c0,1.32-.264,3.423.441,4.011.779.652,2.189.428,3.369.4a8.839,8.839,0,0,0,3.29-.558,5.817,5.817,0,0,0,2.807-2.968c.184-.362.294-.9.722-1.083" transform="translate(-249.51 -49.112)" fill="#fff"/>
      </g>
    </g>
    <rect id="Ret창ngulo_956" data-name="Ret창ngulo 956" width="106.827" height="62.283" transform="translate(1445.078 933.764)" fill="none"/>
    <line id="Linha_19" data-name="Linha 19" y2="0.204" transform="translate(1552.249 979.379)" fill="none" stroke="red" stroke-width="0.5"/>
    <path id="Caminho_14205" data-name="Caminho 14205" d="M289.7,94.683h1.926a8.062,8.062,0,0,1,1.925,0c.18.056.488.521.722.8,3.373,4.007,6.962,8.232,10.268,12.156-.007-2.329-.16-5.431-.16-8.021,0-1.528.137-3.3-.6-4.011a2.365,2.365,0,0,0-.882-.485c-.328-.1-.752-.03-1.043-.32a38.674,38.674,0,0,1,4.091-.08,2.349,2.349,0,0,1,1.244.12c-.211.277-.611.141-.922.241-1.691.541-1.5,3.078-1.4,5.5.134,3.329.013,7.45.08,10.625-.585.191-.866-.254-1.163-.6-4.024-4.653-8.051-9.47-12.072-14.162.043,3.059.2,6.712.2,10.028,0,2-.161,3.784,1.323,4.291.3.107.7,0,.923.284-.214.284-.716.157-1.083.157a29.61,29.61,0,0,1-3.65-.08c.02-.3.628-.24.883-.361,1.253-.588,1.043-3.042,1.043-5.014s-.04-4.295-.04-6.3c0-1.574.257-3.386-.522-4.051a10.474,10.474,0,0,0-1.2-.561C289.577,94.743,289.645,94.714,289.7,94.683Z" transform="translate(1189.304 884.66)" fill="none" stroke="#fff" stroke-width="0.5"/>
    <path id="Caminho_14206" data-name="Caminho 14206" d="M256.569,94.809c-.792.351-1.711.378-2.006,1.167a13.326,13.326,0,0,0-.08,3.446v7.059c0,1.32-.264,3.423.441,4.011.779.652,2.189.428,3.37.4a8.834,8.834,0,0,0,3.289-.558,5.817,5.817,0,0,0,2.807-2.968c.184-.362.294-.9.722-1.083-.107,1.658-.585,3.289-.842,4.93H251.315a4.5,4.5,0,0,1-1.725-.121c.328-.271.949-.147,1.364-.321,1.31-.535,1-2.78,1-4.729V99.782a12.455,12.455,0,0,0-.121-3.526,2.536,2.536,0,0,0-2.326-1.407v-.121c.034-.007.04-.037.08-.037h5.334A4.161,4.161,0,0,1,256.569,94.809Z" transform="translate(1195.568 884.65)" fill="none" stroke="#fff" stroke-width="0.5"/>
    <path id="Caminho_14207" data-name="Caminho 14207" d="M275.887,94.69a8.349,8.349,0,0,1,6.3,2.042,8.04,8.04,0,0,1,2.727,5.579,8.292,8.292,0,0,1-1.965,6.254,8.02,8.02,0,0,1-5.535,2.77,8.341,8.341,0,0,1-6.257-2.006,8.546,8.546,0,0,1-2.767-5.538,7.941,7.941,0,0,1,1.965-6.257A8.2,8.2,0,0,1,275.887,94.69Z" transform="translate(1192.614 884.652)" fill="none" stroke="#fff" stroke-width="1"/>
    <path id="Caminho_14208" data-name="Caminho 14208" d="M343.082,94.644a8.257,8.257,0,0,1,8.9,7.741A8.376,8.376,0,0,1,349.9,108.6a7.941,7.941,0,0,1-5.575,2.727,8.416,8.416,0,0,1-6.217-2.13,8.27,8.27,0,0,1-2.688-5.612,7.985,7.985,0,0,1,2.046-6.18A8.212,8.212,0,0,1,343.082,94.644Z" transform="translate(1182.092 884.66)" fill="none" stroke="#fff" stroke-width="1"/>
    <path id="Caminho_14209" data-name="Caminho 14209" d="M312.3,111.2c.147-.264.866-.228,1.163-.4,1-.561.681-2.964.681-4.613V99.329c0-1.641.251-3.406-.681-4.011-.352-.231-.9-.207-1.2-.445.341-.3.986-.137,1.565-.16,1.574-.06,3.573-.046,5.094-.117,3.823-.18,6.751.556,8.463,2.524,1.627,1.878,2.3,5.709,1.244,8.783a7.751,7.751,0,0,1-5.977,5.014c-2.206.508-5.224.244-7.861.364-.435.017-.9.017-1.324.04C313.078,111.336,312.621,111.5,312.3,111.2Z" transform="translate(1185.721 884.666)" fill="none" stroke="#fff" stroke-width="1"/>
    <path id="Caminho_14210" data-name="Caminho 14210" d="M371.183,81.175a2.736,2.736,0,0,1-.842,1.206c-.97.926-3.479,2.537-5.375,1.6-2.035-1.006-1.3-4.111-.4-5.976a12.661,12.661,0,0,1,4.131-4.777,6.827,6.827,0,0,1,3.129-1.28c.959-.077,2.009.194,2.286.919a2.685,2.685,0,0,1-1.123,2.972c-1.324.969-3.7,1.464-5.655,1.925a5.191,5.191,0,0,0-.883.2c-.31.164-.478.766-.6,1.123-.515,1.454-.561,3.694.962,4.128C368.66,83.753,370.023,81.9,371.183,81.175Z" transform="translate(1177.655 888.217)" fill="none" stroke="#fff" stroke-width="0.5"/>
    <path id="Caminho_14211" data-name="Caminho 14211" d="M341.339,77.969c-1.113,1.377-1.625,5.291.963,5.331a4.066,4.066,0,0,0,2.486-1.043,7.248,7.248,0,0,1,1.324-1.083,2.556,2.556,0,0,1-.882,1.206c-1,.946-3.486,2.577-5.415,1.561-2.039-1.073-1.1-4.205-.281-5.933a11.631,11.631,0,0,1,4.091-4.777,6.484,6.484,0,0,1,3.128-1.28c1.05-.09,1.926.15,2.247.842a2.657,2.657,0,0,1-.842,2.848C346.593,76.993,343.636,77.36,341.339,77.969Z" transform="translate(1181.59 888.217)" fill="none" stroke="#fff" stroke-width="0.5"/>
    <path id="Caminho_14212" data-name="Caminho 14212" d="M359.666,72.76c.929,3.413-1.193,6.45-4.291,6.654-1.14.077-3.4-.631-3.249,1.043a1.578,1.578,0,0,0,.4.762,12.314,12.314,0,0,0,2.848,1.926c1,.662,2.306,1.6,2.566,2.811a2.776,2.776,0,0,1-.16,1.641c-1.05,2.13-6.036,2.537-8.583,1.324-1.072-.511-2.517-1.878-1.685-3.409.735-1.354,2.477-1.859,4.172-2.444-.558-.567-1.3-1.086-1.284-2.045.024-1.363,1.475-1.835,2.487-2.326-.037-.4-.357-.689-.481-1.083-1.153-3.726,3.93-7.366,7.139-5.1a8.276,8.276,0,0,1,2.206-.8c.344-.007.628.1.722.364a.7.7,0,0,1-.361.883c-.431.1-.638-.291-1.083-.361A2.435,2.435,0,0,0,359.666,72.76Z" transform="translate(1180.229 888.252)" fill="none" stroke="#fff" stroke-width="0.5"/>
    <path id="Caminho_14213" data-name="Caminho 14213" d="M318.243,71.571c2.634-.284,3.643,1.7,3.49,4.449a9.533,9.533,0,0,1-1.645,4.656,8.29,8.29,0,0,1-3.168,3.085,4.139,4.139,0,0,1-3.248.081c-2.727-1.4-1.437-6.311-.281-8.463a7.394,7.394,0,0,1,3.369-3.447A4.505,4.505,0,0,1,318.243,71.571Z" transform="translate(1185.754 888.279)" fill="none" stroke="#fff" stroke-width="0.5"/>
    <path id="Caminho_14214" data-name="Caminho 14214" d="M339.112,66.7a7.469,7.469,0,0,1-.722,2.006c-1.655,3.78-3.45,7.728-5.174,11.514a6.564,6.564,0,0,0-.723,1.965c1.136-.293,1.645-1.433,2.447-1.925a6.548,6.548,0,0,1-1.564,1.965,3.509,3.509,0,0,1-2.246,1.24c-.765-.468-.044-1.9.281-2.644,1.945-4.449,4.221-9.088,6.056-13.48-.207-.364-1.183.034-1.363-.357a16.984,16.984,0,0,1,2.527-.325C338.745,66.647,338.966,66.55,339.112,66.7Z" transform="translate(1182.813 889.053)" fill="none" stroke="#fff" stroke-width="0.5"/>
    <path id="Caminho_14215" data-name="Caminho 14215" d="M332.357,66.712a29.212,29.212,0,0,1-1.6,3.934c-1.13,2.54-2.246,5.077-3.409,7.658a31.415,31.415,0,0,0-1.644,3.854c.6.017.956-.505,1.324-.846.4-.364.755-.769,1.163-1.08a7.878,7.878,0,0,1-2.566,2.845c-.755.475-1.856.682-1.524-.722a17.6,17.6,0,0,1,1.283-3.049c1.752-4,3.673-8.1,5.334-11.952-.223-.32-1.045-.05-1.363-.281.174-.311.752-.244,1.2-.277A7.426,7.426,0,0,1,332.357,66.712Z" transform="translate(1183.874 889.043)" fill="none" stroke="#fff" stroke-width="0.5"/>
    <path id="Caminho_14216" data-name="Caminho 14216" d="M309.7,67.821a22.134,22.134,0,0,1-.963,3.527c-.1.347-.077.862-.481,1-.31-.525-.126-1.1-.16-1.6a3.746,3.746,0,0,0-4.372-3.767,7.076,7.076,0,0,0-3.89,2.2,16.4,16.4,0,0,0-2.768,3.328,13.853,13.853,0,0,0-1.845,4.252c-.585,2.681-.177,6.073,2.567,6.3a6.571,6.571,0,0,0,2.767-.558,10.661,10.661,0,0,0,4.854-3.452c.22-.281.431-.726.882-.762a4.432,4.432,0,0,1-.361,1.443q-.472,1.395-.963,2.812a3.633,3.633,0,0,1-.6,1.283c-.512-.281-.281-1.3-.723-1.645-.9.248-1.518.6-2.406.879a8.849,8.849,0,0,1-2.768.485,4.809,4.809,0,0,1-5.013-3.329c-.729-2.156-.013-4.88.922-6.738,1.754-3.5,4.907-6.574,9.706-6.9a5.883,5.883,0,0,1,3.689,1.046c.258.187.568.706.842.718C309.1,68.365,309.159,67.677,309.7,67.821Z" transform="translate(1188.718 889.061)" fill="none" stroke="#fff" stroke-width="0.5"/>
    <path id="Caminho_14217" data-name="Caminho 14217" d="M304.968,40.731h2.206a10.141,10.141,0,0,1,2.206,0c.214.056.589.558.842.842,3.937,4.379,7.995,9.065,11.872,13.356-.087-1.775-.027-3.791-.121-5.816s.034-4.044-.12-5.816a2.281,2.281,0,0,0-1.6-2.046c-.384-.133-.889-.026-1.244-.361.08-.264.448-.153.642-.16,1.237-.013,2.637,0,3.93,0,.5,0,1.05-.11,1.364.2-.238.32-.806.121-1.2.244a2.259,2.259,0,0,0-1.284,2.166c-.164,2.249.04,4.924.04,7.578,0,2.944.05,5.8.08,8.383-.822.25-1.16-.341-1.645-.883-4.522-5.03-9.147-10.275-13.637-15.238.044,2.27.121,4.82.161,7.377.033,2.246-.074,4.509.08,6.5a2.839,2.839,0,0,0,.722,1.761c.538.508,1.264.475,1.885.762-.207.388-.8.24-1.244.24h-1.443a11.881,11.881,0,0,1-2.808-.117c.02-.354.658-.237.963-.364,1.254-.511,1.244-2.373,1.244-4.371V46.907c0-1.353.121-2.711,0-4.011a1.884,1.884,0,0,0-.922-1.524c-.354-.2-.916-.211-1.083-.481C304.841,40.791,304.908,40.764,304.968,40.731Z" transform="translate(1186.916 893.125)" fill="none" stroke="#fff" stroke-width="0.5"/>
    <path id="Caminho_14218" data-name="Caminho 14218" d="M300.719,40.941c-.214.257-.7.167-1.043.244a1.832,1.832,0,0,0-1.6,1.6,30.948,30.948,0,0,0,0,3.69V53.86c0,1.574-.274,3.69.321,4.649a2.086,2.086,0,0,0,1.2.886c.358.1.956-.027,1.163.277-.207.261-.629.127-.923.121-1.748-.027-3.689-.071-5.494,0a5.066,5.066,0,0,1-2.006-.077c.2-.365.735-.207,1.123-.284,1.855-.365,1.565-2.39,1.565-4.813v-7.7c0-1.555.29-3.831-.321-4.813a2.2,2.2,0,0,0-.6-.642,7.8,7.8,0,0,0-1.965-.521.372.372,0,0,1,.16-.16c2.173-.074,5.2-.04,7.581-.04C300.141,40.74,300.569,40.63,300.719,40.941Z" transform="translate(1188.879 893.115)" fill="none" stroke="#fff" stroke-width="0.5"/>
    <path id="Caminho_14219" data-name="Caminho 14219" d="M355.753,45.343c.237-.244.578-.244.842-.4a2.4,2.4,0,0,0,1-1.324c-2.743.873-3.182-3.272-.481-2.964,1.7.187,2.106,2.3,1.124,3.529a3.832,3.832,0,0,1-1.083.879C356.736,45.286,356.174,45.56,355.753,45.343Z" transform="translate(1178.967 893.129)" fill="none" stroke="#fff" stroke-width="0.5"/>
    <path id="Caminho_14220" data-name="Caminho 14220" d="M349.182,41.729a25.652,25.652,0,0,1-.04,4.616,2.554,2.554,0,0,1-.561-.966,7.383,7.383,0,0,0-6.257-4.408c-5.455-.371-8.213,3.74-8.623,8.46a11.214,11.214,0,0,0,1.564,6.9A6.415,6.415,0,0,0,340.4,59.7c2.113.137,4.4-.535,5.094-1.889a7.764,7.764,0,0,0,.2-2.8,10.312,10.312,0,0,0-.04-2.21,2.227,2.227,0,0,0-1.845-1.324c-.4-.067-.926.107-1.244-.24.211-.281.645-.16.963-.16H349.1a6.452,6.452,0,0,1,2.086.123c-.2.335-.733.187-1.123.277a1.548,1.548,0,0,0-1.244.963,10.385,10.385,0,0,0-.08,2.327,10.573,10.573,0,0,1,0,2.366c-.074.231-.636.552-.883.726a12.54,12.54,0,0,1-8.744,2c-5.3-.681-8.9-3.984-8.543-10.311a9.306,9.306,0,0,1,1.564-4.689,10.836,10.836,0,0,1,8.5-4.212,11.168,11.168,0,0,1,6.578,1.722,1.617,1.617,0,0,0,.8.361C348.714,42.732,348.77,42.09,349.182,41.729Z" transform="translate(1182.852 893.129)" fill="none" stroke="#fff" stroke-width="0.5"/>
    <line id="Linha_21" data-name="Linha 21" x2="0.16" transform="translate(1549.561 933.734)" fill="none" stroke="red" stroke-width="0.5"/>
    <path id="Caminho_14221" data-name="Caminho 14221" d="M373.388,94.731c-1.631.053-3.476-.107-4.973.08.451.321.983.238,1.4.442,1.174.564,1.123,2,1.123,3.85,0,2.757.157,5.832.16,8.422-.177.034-.237-.18-.32-.281-3.517-4.1-7.093-8.443-10.629-12.554h-3.129c-.3,0-.672-.09-.883.12.2.244.6.248.883.4a1.587,1.587,0,0,1,.842,1.083,19.67,19.67,0,0,1,.04,3.489v7.059c0,1.648.067,3.152-.8,3.811-.284.214-.992.2-1.123.441.284.218.745.121,1.163.121h2.527c.374,0,.856.114,1.083-.16-.147-.207-.434-.191-.642-.241-1.7-.4-1.644-1.925-1.644-4.131,0-3.282-.161-7.126-.161-10.107.094-.073.284.18.4.32,3.837,4.543,7.7,9.208,11.631,13.717.291.335.566.782,1.124.6.036-3.43.056-7.41,0-11.151-.037-2.423-.388-4.963,1.925-5.134" transform="translate(1178.861 884.65)" fill="#fff"/>
    <path id="Caminho_14222" data-name="Caminho 14222" d="M373.388,94.731c-1.631.053-3.476-.107-4.973.08.451.321.983.238,1.4.442,1.174.564,1.123,2,1.123,3.85,0,2.757.157,5.832.16,8.422-.177.034-.237-.18-.32-.281-3.517-4.1-7.093-8.443-10.629-12.554h-3.129c-.3,0-.672-.09-.883.12.2.244.6.248.883.4a1.587,1.587,0,0,1,.842,1.083,19.67,19.67,0,0,1,.04,3.489v7.059c0,1.648.067,3.152-.8,3.811-.284.214-.992.2-1.123.441.284.218.745.121,1.163.121h2.527c.374,0,.856.114,1.083-.16-.147-.207-.434-.191-.642-.241-1.7-.4-1.644-1.925-1.644-4.131,0-3.282-.161-7.126-.161-10.107.094-.073.284.18.4.32,3.837,4.543,7.7,9.208,11.631,13.717.291.335.566.782,1.124.6.036-3.43.056-7.41,0-11.151-.037-2.423-.388-4.963,1.925-5.134" transform="translate(1178.861 884.65)" fill="none" stroke="#fff" stroke-width="0.5"/>
    <path id="Caminho_14223" data-name="Caminho 14223" d="M247.418,41.222a5.433,5.433,0,0,0,1.845.361,4.039,4.039,0,0,1,3.45,3.169,22.021,22.021,0,0,1,0,2.486c0,7.24.04,14.676.04,21.98,0,3.275.271,6.772-1.524,8.262a5.344,5.344,0,0,1-2.727.963c-.575.06-.833.137-.842.361-.024.5,1.31.361,1.8.361,4.365,0,8.286.04,12.634.04.572,0,1.732.113,1.805-.321.087-.518-.541-.458-1.043-.481-3.409-.15-4.957-2.076-5.094-5.535-.127-3.142-.04-5.746-.04-8.985,0-.715-.16-2.473.4-2.727.866-.391,2.109,1.056,2.607,1.6,4.93,5.412,9.266,10.7,14.038,16.4,2.942.02,5.575.04,8.664.04.7,0,2.511.167,2.567-.321.067-.568-1.644-.495-2.206-.6a9.977,9.977,0,0,1-5.294-3.088c-1.922-1.921-3.55-3.924-5.255-5.9q-5.314-6.152-10.267-12.073c2.918-2.974,5.742-6.053,8.783-8.9,2.614-2.453,5.134-5.208,8.864-6.579a4.731,4.731,0,0,0,1.565-.642c-.221-.541-.913-.344-1.4-.32-3.355.153-7.052.16-10.468,0-.505-.024-1.133-.221-1.485.2.181.625.913.434,1.324.481a3.123,3.123,0,0,1,2.567,1.4,2.876,2.876,0,0,1,0,2,12.518,12.518,0,0,1-1.484,2.286,68.289,68.289,0,0,1-9.024,9.747c-.993.919-1.905,1.711-3.049,2.607-.378.294-.846.742-1.123.642-.471-.17-.217-2.179-.2-2.807.073-3.112.08-6.117.08-9.145,0-2.474.051-3.941,1-5.174a4.381,4.381,0,0,1,3.048-1.564c.488-.064,1.126-.013,1.163-.362.053-.518-1.227-.361-1.685-.361H249.183c-.658,0-1.37-.137-1.765.241" transform="translate(1195.896 893.117)" fill="#fff"/>
    <path id="Caminho_14224" data-name="Caminho 14224" d="M247.418,41.222a5.433,5.433,0,0,0,1.845.361,4.039,4.039,0,0,1,3.45,3.169,22.021,22.021,0,0,1,0,2.486c0,7.24.04,14.676.04,21.98,0,3.275.271,6.772-1.524,8.262a5.344,5.344,0,0,1-2.727.963c-.575.06-.833.137-.842.361-.024.5,1.31.361,1.8.361,4.365,0,8.286.04,12.634.04.572,0,1.732.113,1.805-.321.087-.518-.541-.458-1.043-.481-3.409-.15-4.957-2.076-5.094-5.535-.127-3.142-.04-5.746-.04-8.985,0-.715-.16-2.473.4-2.727.866-.391,2.109,1.056,2.607,1.6,4.93,5.412,9.266,10.7,14.038,16.4,2.942.02,5.575.04,8.664.04.7,0,2.511.167,2.567-.321.067-.568-1.644-.495-2.206-.6a9.977,9.977,0,0,1-5.294-3.088c-1.922-1.921-3.55-3.924-5.255-5.9q-5.314-6.152-10.267-12.073c2.918-2.974,5.742-6.053,8.783-8.9,2.614-2.453,5.134-5.208,8.864-6.579a4.731,4.731,0,0,0,1.565-.642c-.221-.541-.913-.344-1.4-.32-3.355.153-7.052.16-10.468,0-.505-.024-1.133-.221-1.485.2.181.625.913.434,1.324.481a3.123,3.123,0,0,1,2.567,1.4,2.876,2.876,0,0,1,0,2,12.518,12.518,0,0,1-1.484,2.286,68.289,68.289,0,0,1-9.024,9.747c-.993.919-1.905,1.711-3.049,2.607-.378.294-.846.742-1.123.642-.471-.17-.217-2.179-.2-2.807.073-3.112.08-6.117.08-9.145,0-2.474.051-3.941,1-5.174a4.381,4.381,0,0,1,3.048-1.564c.488-.064,1.126-.013,1.163-.362.053-.518-1.227-.361-1.685-.361H249.183c-.658,0-1.37-.137-1.765.241" transform="translate(1195.896 893.117)" fill="none" stroke="#fff" stroke-width="0.5"/>
    <path id="Caminho_14225" data-name="Caminho 14225" d="M371.511,40.6c-.682,1.334-2.464.2-3.77.08-3.139-.3-5.805,1.053-6.217,3.811-.491,3.3,1.985,4.957,4.131,5.9,2.179.953,5.419,1.625,5.7,4.452a4.674,4.674,0,0,1-.642,2.727,3.527,3.527,0,0,1-1.684,1.684,5.247,5.247,0,0,1-5.175-.842A6.659,6.659,0,0,1,361.8,55.4a3.647,3.647,0,0,0-.521-1.163,9.481,9.481,0,0,0-.121,2.527v2.647c.475-.043.458-.582,1.083-.642.749-.073,1.42.451,2.045.682a10.129,10.129,0,0,0,6.859-.2,5.061,5.061,0,0,0,2.607-2.807,5.919,5.919,0,0,0-.24-4.493,6.781,6.781,0,0,0-2.807-2.607c-2.216-1.23-5.853-1.377-6.579-4.211a3.458,3.458,0,0,1,1.4-3.731,4.463,4.463,0,0,1,4.211.241,4.789,4.789,0,0,1,1.324,1.324,18.662,18.662,0,0,0,1.043,1.6,17.463,17.463,0,0,0-.442-3.971" transform="translate(1178.051 893.133)" fill="#fff"/>
    <path id="Caminho_14226" data-name="Caminho 14226" d="M371.511,40.6c-.682,1.334-2.464.2-3.77.08-3.139-.3-5.805,1.053-6.217,3.811-.491,3.3,1.985,4.957,4.131,5.9,2.179.953,5.419,1.625,5.7,4.452a4.674,4.674,0,0,1-.642,2.727,3.527,3.527,0,0,1-1.684,1.684,5.247,5.247,0,0,1-5.175-.842A6.659,6.659,0,0,1,361.8,55.4a3.647,3.647,0,0,0-.521-1.163,9.481,9.481,0,0,0-.121,2.527v2.647c.475-.043.458-.582,1.083-.642.749-.073,1.42.451,2.045.682a10.129,10.129,0,0,0,6.859-.2,5.061,5.061,0,0,0,2.607-2.807,5.919,5.919,0,0,0-.24-4.493,6.781,6.781,0,0,0-2.807-2.607c-2.216-1.23-5.853-1.377-6.579-4.211a3.458,3.458,0,0,1,1.4-3.731,4.463,4.463,0,0,1,4.211.241,4.789,4.789,0,0,1,1.324,1.324,18.662,18.662,0,0,0,1.043,1.6,17.463,17.463,0,0,0-.442-3.971" transform="translate(1178.051 893.133)" fill="none" stroke="#fff" stroke-width="0.5"/>
  </g>
</svg>
