<svg id="Grupo_3733" data-name="Grupo 3733" xmlns="http://www.w3.org/2000/svg" width="150.003" height="150.003" viewBox="0 0 150.003 150.003">
  <g id="Grupo_2531" data-name="Grupo 2531" transform="translate(0 0)">
    <circle id="Elipse_245" data-name="Elipse 245" cx="75.001" cy="75.001" r="75.001" transform="translate(0)" fill="#f2f2f2"/>
  </g>
  <g id="Grupo_3730" data-name="Grupo 3730" transform="translate(30.001 30.001)">
    <path id="Caminho_14667" data-name="Caminho 14667" d="M93.607.14A.186.186,0,0,1,93.628,0h1.232a.478.478,0,0,1,.019.144.864.864,0,0,1-1.273,0" transform="translate(-71.621)" fill="#8e8e8e" stroke="#212529" stroke-width="0.5"/>
    <path id="Caminho_14668" data-name="Caminho 14668" d="M383.183,275.723a.3.3,0,0,1,.15-.364v.352q-.066.11-.15.012" transform="translate(-293.19 -210.696)" fill="#474747" stroke="#212529" stroke-width="0.5"/>
    <path id="Caminho_14669" data-name="Caminho 14669" d="M383.172,276.868l.15-.012v.351c-.2-.046-.167-.2-.15-.339" transform="translate(-293.179 -211.84)" fill="#6d6d6d" stroke="#212529" stroke-width="0.5"/>
    <path id="Caminho_14670" data-name="Caminho 14670" d="M90.143,132.108c-.188-.057-.148-.219-.167-.356q-2.06-15.115-15.921-21.542a1.04,1.04,0,0,1-.7-1.1,23.635,23.635,0,0,1,.884-7.451c.658-2.383-.522-3.82-2.986-3.821q-7.79,0-15.58,0c-2.344,0-3.51,1.463-2.907,3.74a24.068,24.068,0,0,1,.921,7.708.806.806,0,0,1-.548.844,26.026,26.026,0,0,0-8.285,5.509c-.12.117-.217.287-.425.275-.235-.2-.163-.481-.164-.733,0-4.715,0-9.429-.012-14.144a1,1,0,0,1,.5-.92,3.77,3.77,0,0,0,1.487-4.182,3.7,3.7,0,0,0-3.592-2.718q-9.329-.057-18.66,0a3.658,3.658,0,0,0-3.6,2.694,3.7,3.7,0,0,0,1.511,4.234.986.986,0,0,1,.453.943c-.019,1.347-.016,2.694,0,4.041.008.985.48,1.523,1.3,1.523s1.317-.554,1.331-1.518c.018-1.2.039-2.4-.01-3.6-.024-.592.173-.715.733-.712,5.046.021,10.093.029,15.139-.006.7,0,.8.214.8.836-.026,4.626-.012,9.253-.017,13.88A2.726,2.726,0,0,0,42,117.12c1.519,2.326,3.007,4.673,4.517,7.005.55.849,1.315,1.086,1.989.653.705-.453.8-1.182.237-2.07-.813-1.285-1.622-2.574-2.476-3.831a.648.648,0,0,1,.088-1.011,23.825,23.825,0,0,1,8.607-5.619,1.716,1.716,0,0,0,1.362-1.692c.054-3.134.083-6.264-.939-9.284-.234-.691-.032-.809.645-.806,4.929.027,9.858.015,14.787.015h1.108c-1.26,3.2-1.276,6.444-1.2,9.7.034,1.469.086,1.509,1.477,2.106,9.312,4,14.554,11.05,15.23,21.126a23.665,23.665,0,0,1-14.966,23.406,22.341,22.341,0,0,1-7.9,1.687c-.024-.1-.046-.139-.035-.155a2.246,2.246,0,0,0,.363-.488c.65-1.807,2.052-2.33,3.836-2.641a17.4,17.4,0,0,0,6.557-2.851,1.291,1.291,0,0,0,.588-1.59A1.24,1.24,0,0,0,74.6,149.9a2.152,2.152,0,0,0-1.109.492,18.551,18.551,0,0,1-6.864,2.622c-.052-.522-.075-1.015-.153-1.5a9.006,9.006,0,0,0-1.419-3.46q-4.5-6.965-8.968-13.948c-.164-.256-.639-.519-.014-.878,5.346-3.062,10.83-3.89,16.626-1.255a16.573,16.573,0,0,0,8.666,1.368c.636-.065.854.034.863.738A18.834,18.834,0,0,1,78.1,146.288c-.672.856-.663,1.649.007,2.151.641.48,1.4.305,2.041-.5a21.384,21.384,0,0,0,4.678-14.7c-.108-1.732-1.2-2.8-2.75-2.595a17.507,17.507,0,0,1-9.331-1.471,18.072,18.072,0,0,0-11.2-.979,26.972,26.972,0,0,0-6.561,2.662c-.548.284-.88.323-1.222-.306-.5-.922-1.12-1.781-1.688-2.668a1.5,1.5,0,0,0-.761-.7,1.264,1.264,0,0,0-1.444.349,1.279,1.279,0,0,0-.067,1.69q2.165,3.354,4.316,6.716,4.344,6.751,8.7,13.5a5.818,5.818,0,0,1,.994,4.578c-.645,2.886-2.831,4.522-6.051,4.523q-24.514.006-49.028,0c-.293,0-.587-.007-.879-.035a5.409,5.409,0,0,1-4.532-3.033,5.644,5.644,0,0,1,.477-6.046q10.346-16.035,20.658-32.09a2.452,2.452,0,0,0,.532-1.363c-.014-1.61.009-3.221-.011-4.832a1.365,1.365,0,0,0-1.3-1.488c-.785-.022-1.326.574-1.336,1.514-.013,1.259-.025,2.519.006,3.777a2.465,2.465,0,0,1-.434,1.468C16.982,124.054,12,131.668,7.169,139.371c-2.486,3.96-5.542,7.594-7.169,12.066v2.811a.377.377,0,0,1,.08.153,7.841,7.841,0,0,0,7.738,6.874q25.484,0,50.968.009c.584,0,1.163-.056,1.751-.037a48.324,48.324,0,0,0,6.055-.03,25.306,25.306,0,0,0,12.582-4.831A26.641,26.641,0,0,0,88.286,145a24.06,24.06,0,0,0,1.857-7.624v-.7c-.108-.1-.087-.227-.091-.351s-.018-.255.091-.352ZM42.532,98.192c-1.054.023-2.109.009-3.163.009H33.307c-2.988,0-5.975-.008-8.962.006a1.307,1.307,0,0,1-1.419-.788,1.153,1.153,0,0,1,1.133-1.565c1.052-.047,2.108-.019,3.162-.019H41.806c.263,0,.528-.006.79.017a1.171,1.171,0,0,1-.064,2.34" transform="translate(0 -71.31)" fill="#384dc5" stroke="#384dc5" stroke-width="0.5"/>
    <path id="Caminho_14671" data-name="Caminho 14671" d="M77.819,256.341q-7.589-11.75-15.147-23.521c-.657-1.02-1.021-1.139-2.2-.754a19.534,19.534,0,0,1-12.1.139,24.866,24.866,0,0,0-7.435-1.149,2.337,2.337,0,0,0-2.221,1.21c-2.493,3.957-5.044,7.878-7.574,11.812q-3.984,6.2-7.966,12.4a3.008,3.008,0,0,0,.222,4.011,3.4,3.4,0,0,0,2.653.914q12.274-.014,24.548-.005,12.23,0,24.46.007a3.135,3.135,0,0,0,3.087-1.6,3.171,3.171,0,0,0-.331-3.458m-37.153-22.21a.874.874,0,0,1,.867-.422,18.111,18.111,0,0,1,5.534.873l14.007.613c1.918,3.008,3.856,6,5.786,9,.156.243.375.467-.09.666-3.056,1.308-5.966,2.976-9.324,3.51a16.96,16.96,0,0,1-8.1-.384,25.862,25.862,0,0,0-16.066-.108c-.419.127-.856.2-1.285.288a3.085,3.085,0,0,1-.357.023c3.062-4.764,6.052-9.408,9.025-14.064m35.159,24.383c-.184.366-.565.238-.868.238q-12.231.009-24.461,0H26.386a6.084,6.084,0,0,1-.7-.007c-.446-.053-.659-.26-.374-.7q2.035-3.174,4.072-6.349a.7.7,0,0,1,.516-.287c3.314-.718,6.552-1.787,9.954-2.1a19.876,19.876,0,0,1,7.709.949,22.142,22.142,0,0,0,16.255-1.151c1.381-.634,2.776-1.24,4.143-1.9.468-.227.71-.234,1.022.26,2.172,3.435,4.382,6.845,6.578,10.264.153.239.427.466.268.783" transform="translate(-17.235 -176.796)" fill="#384dc5" stroke="#384dc5" stroke-width="0.5"/>
    <path id="Caminho_14672" data-name="Caminho 14672" d="M123.848,32.762a5.484,5.484,0,1,0,5.524,5.5,5.459,5.459,0,0,0-5.524-5.5m.05,8.331a2.847,2.847,0,1,1,2.833-2.85,2.823,2.823,0,0,1-2.833,2.85" transform="translate(-90.578 -25.068)" fill="#384dc5" stroke="#384dc5" stroke-width="0.5"/>
    <path id="Caminho_14673" data-name="Caminho 14673" d="M252.65,49.777a5.494,5.494,0,1,0,5.52,5.516,5.481,5.481,0,0,0-5.52-5.516m.041,8.351a2.857,2.857,0,1,1,2.838-2.849,2.833,2.833,0,0,1-2.838,2.849" transform="translate(-189.132 -38.088)" fill="#384dc5" stroke="#384dc5" stroke-width="0.5"/>
    <path id="Caminho_14674" data-name="Caminho 14674" d="M283.646,273.822a5.129,5.129,0,1,0,5.227,5.114,5.124,5.124,0,0,0-5.227-5.114m.057,7.617a2.489,2.489,0,0,1,.009-4.979,2.49,2.49,0,1,1-.009,4.979" transform="translate(-213.164 -209.519)" fill="#384dc5" stroke="#384dc5" stroke-width="0.5"/>
    <path id="Caminho_14675" data-name="Caminho 14675" d="M83.432.6,82.158.6a4.161,4.161,0,0,0-3.489,4.622A4.163,4.163,0,0,0,86.931,5.2a4.134,4.134,0,0,0-3.5-4.6M82.8,6.221a1.545,1.545,0,0,1-1.5-1.595,1.507,1.507,0,0,1,3.012.093,1.536,1.536,0,0,1-1.507,1.5" transform="translate(-60.172 -0.457)" fill="#384dc5" stroke="#384dc5" stroke-width="0.5"/>
    <path id="Caminho_14676" data-name="Caminho 14676" d="M106.809,254.551a4.2,4.2,0,1,0,4.191,4.19,4.206,4.206,0,0,0-4.191-4.19m-.047,5.751a1.556,1.556,0,1,1,1.591-1.518,1.555,1.555,0,0,1-1.591,1.518" transform="translate(-78.536 -194.774)" fill="#384dc5" stroke="#384dc5" stroke-width="0.5"/>
    <rect id="Retângulo_1017" data-name="Retângulo 1017" width="90.143" height="90.019" transform="translate(0)" fill="none"/>
  </g>
</svg>
