<svg xmlns="http://www.w3.org/2000/svg" width="43.343" height="36.053" viewBox="0 0 43.343 36.053">
  <path id="twitter" d="M42.654,38.685a17.163,17.163,0,0,1-2.988,1.008,9.318,9.318,0,0,0,2.46-3.917h0a.489.489,0,0,0-.715-.569h0a17.245,17.245,0,0,1-4.569,1.888,1.164,1.164,0,0,1-.286.036,1.211,1.211,0,0,1-.8-.306,9.344,9.344,0,0,0-6.183-2.333,9.991,9.991,0,0,0-2.96.457,9.053,9.053,0,0,0-6.1,6.523,9.968,9.968,0,0,0-.222,3.441.335.335,0,0,1-.084.262.346.346,0,0,1-.258.117l-.033,0a24.5,24.5,0,0,1-16.841-9h0a.489.489,0,0,0-.8.063h0a9.355,9.355,0,0,0,1.52,11.359,8.373,8.373,0,0,1-2.131-.825h0a.489.489,0,0,0-.726.421h0a9.356,9.356,0,0,0,5.458,8.62l-.2,0a8.408,8.408,0,0,1-1.574-.15h0a.489.489,0,0,0-.557.629h0a9.365,9.365,0,0,0,7.4,6.37A17.243,17.243,0,0,1,1.8,65.713H.722a.716.716,0,0,0-.7.54.74.74,0,0,0,.354.818,25.647,25.647,0,0,0,12.888,3.475,26,26,0,0,0,11.013-2.336,24.32,24.32,0,0,0,8.058-6.038,26.474,26.474,0,0,0,4.934-8.264,26.105,26.105,0,0,0,1.677-9.045v-.142a1.59,1.59,0,0,1,.6-1.238A18.47,18.47,0,0,0,43.258,39.4h0a.489.489,0,0,0-.6-.718Z" transform="translate(0 -34.491)" fill="#212529"/>
</svg>
