<?xml version="1.0" encoding="utf-8"?>
<!-- Generator: Adobe Illustrator 25.4.4, SVG Export Plug-In . SVG Version: 6.00 Build 0)  -->
<svg version="1.1" id="Componente_138_1" xmlns="http://www.w3.org/2000/svg" xmlns:xlink="http://www.w3.org/1999/xlink" x="0px"
	 y="0px" viewBox="0 0 21.7 21.7" style="enable-background:new 0 0 21.7 21.7;" xml:space="preserve">
<style type="text/css">
	.st0{fill:#D6D6D6;}
</style>
<path id="Caminho_1470" class="st0" d="M10.8,7.2c-2,0-3.6,1.6-3.6,3.6c0,2,1.6,3.6,3.6,3.6c2,0,3.6-1.6,3.6-3.6l0,0
	C14.5,8.8,12.8,7.2,10.8,7.2z"/>
<g id="Componente_137_1">
	<path id="Caminho_1471" class="st0" d="M21.6,6.4c0-0.9-0.2-1.8-0.5-2.6c-0.6-1.5-1.7-2.6-3.2-3.2c-0.8-0.3-1.7-0.5-2.6-0.5
		C14.2,0,13.8,0,10.8,0S7.5,0,6.4,0.1c-0.9,0-1.8,0.2-2.6,0.5C2.3,1.1,1.1,2.3,0.6,3.7C0.3,4.6,0.1,5.5,0.1,6.4C0,7.5,0,7.9,0,10.8
		s0,3.3,0.1,4.5c0,0.9,0.2,1.8,0.5,2.6c0.6,1.5,1.7,2.6,3.2,3.2c0.8,0.3,1.7,0.5,2.6,0.5c1.2,0,1.5,0.1,4.5,0.1s3.3,0,4.5-0.1
		c0.9,0,1.8-0.2,2.6-0.5c1.5-0.6,2.6-1.7,3.2-3.2c0.3-0.8,0.5-1.7,0.5-2.6c0-1.2,0.1-1.5,0.1-4.5S21.7,7.5,21.6,6.4z M10.8,16.4
		c-3.1,0-5.6-2.5-5.6-5.6s2.5-5.6,5.6-5.6c3.1,0,5.6,2.5,5.6,5.6C16.4,13.9,13.9,16.4,10.8,16.4C10.8,16.4,10.8,16.4,10.8,16.4
		L10.8,16.4z M16.6,6.4c-0.7,0-1.3-0.6-1.3-1.3s0.6-1.3,1.3-1.3c0.7,0,1.3,0.6,1.3,1.3S17.3,6.4,16.6,6.4L16.6,6.4z"/>
</g>
</svg>
