<?xml version="1.0" encoding="utf-8"?>
<!-- Generator: Adobe Illustrator 25.4.4, SVG Export Plug-In . SVG Version: 6.00 Build 0)  -->
<svg version="1.1" id="Camada_1" xmlns="http://www.w3.org/2000/svg" xmlns:xlink="http://www.w3.org/1999/xlink" x="0px" y="0px"
	 viewBox="0 0 137.7 34.7" style="enable-background:new 0 0 137.7 34.7;" xml:space="preserve">
<style type="text/css">
	.st0{fill:#D6D6D6;}
</style>
<g id="Grupo_3856" transform="translate(-1196.298 -947.478)">
	<g>
		<g id="Grupo_3855_00000075865270453871818930000003485790381408005552_" transform="translate(1196.298 905)">
			<path id="Caminho_14135_00000048485729698523224960000013808100403598209941_" class="st0" d="M12.3,43.3H0.1v0.2
				c2.5,1,2.2,4.7,2.2,6.9v19c0,2.3,0.3,6-2.3,6.9v0.2h10v-0.2c-2.7-1.5-2.6-3.5-2.6-6.3V47.2c1.2-0.2,2.3-0.3,3.5-0.3
				c4,0,7.1,1.8,7.1,6.2c0,4.8-4.7,7.5-9,7.8c1.2,0.5,2.4,0.8,3.7,0.7c5.7,0,11.1-3.7,11.1-9.5C23.8,46.5,18.8,43.3,12.3,43.3
				 M55.2,43.4l-0.1-0.2h-9.6v0.2c2.5,1,2.2,4.6,2.2,6.9v15.2c0,1.8,0.1,3.1-1.1,4.6c-1.7,2.3-4.5,3.6-7.3,3.5c-5.2,0-8-3.1-8-9.8
				V50.3c0-2.3-0.3-5.9,2.2-6.9v-0.2H24v0.2c2.6,1,2.2,4.6,2.2,6.9v13.4c0,3.6-0.1,7,2.6,9.9c2.3,2.5,5.8,3.5,9.1,3.5
				c3.5,0,7.7-1.2,9.9-4.1v3.3h7.4v-0.2c-2.6-1-2.3-4.6-2.3-6.9v-19C52.9,48.1,52.6,44.4,55.2,43.4 M84.6,69.9
				c-3.2,2-6.9,3.1-10.7,3.2c-7.8,0-12.8-6.6-12.8-14c0-7.3,4.8-12.4,11.8-12.4c3.3,0.1,6.5,1.1,9.3,2.9v-5.8
				c-3-0.8-6.1-1.2-9.2-1.3c-10.3,0-17.7,6.9-17.7,17.3c0,10.8,7.3,17.4,19.2,17.4c2.6,0.1,5.2-0.5,7.6-1.5l2.6-5.8L84.6,69.9z"/>
			<path id="Caminho_14136_00000171712969887697482500000016932289301621898666_" class="st0" d="M106.6,69.4l-7.2-9.1
				c4.1-1,8-4.4,8-8.9c0-4.6-3.7-8.1-10.4-8.1h-12v0.2c2.6,1,2.2,4.6,2.2,6.9v19c0,2.3,0.4,6-2.2,6.9v0.2h9.6v-0.2
				c-2.6-0.9-2.3-4.6-2.3-6.9V46.8c1.1-0.2,2.3-0.3,3.4-0.4c3.4-0.1,6.5,2,6.5,5.6c0,4.7-4.7,6.6-8.7,7.2l4.6,7.1l6.1,7.6
				c1.5,1.9,3.2,2.5,5.8,2.5h4.6C111.7,74.5,108.9,72.1,106.6,69.4 M120.4,50.7c0-3.5,3.6-4.6,6.5-4.6c2.9,0,5.8,1.1,7.9,3.2v-5.7
				c-2.4-0.7-5-1.1-7.5-1.1c-6.1,0-12.6,2.4-12.6,8.8c0,10.7,17.3,9.3,17.3,17.1c0,3.5-4.3,5.2-7.2,5.2c-4-0.1-7.9-1.5-11-4.2
				l1.5,6.3c2.9,1,5.9,1.5,9,1.5c7.9,0,13.5-5,13.5-10.4C137.7,57.5,120.4,57.6,120.4,50.7"/>
		</g>
	</g>
</g>
</svg>
