<svg xmlns="http://www.w3.org/2000/svg" width="150" height="150" viewBox="0 0 150 150">
  <g id="Grupo_3794" data-name="Grupo 3794" transform="translate(6200 11184)">
    <circle id="Elipse_245" data-name="Elipse 245" cx="75" cy="75" r="75" transform="translate(-6200 -11184)" fill="#f2f2f2"/>
    <path id="Caminho_14911" data-name="Caminho 14911" d="M1767.568,1432.576a4.5,4.5,0,0,1-4.535,3.64q-23.257,0-46.514,0c-1.007,0-1.67-.571-1.641-1.384s.668-1.311,1.714-1.311q23.021,0,46.043.021a2.01,2.01,0,0,0,2.259-2.283q-.057-21.439-.007-42.878c0-.593-.134-.776-.726-.721a14.775,14.775,0,0,1-1.886.008,1.346,1.346,0,1,1,0-2.686c.741-.023,1.483-.018,2.224,0,.29.007.36-.079.386-.373a1.943,1.943,0,0,0-2.179-2.351q-29.661.044-59.323,0a1.926,1.926,0,0,0-2.164,2.168,26.035,26.035,0,0,1,.006,2.763c-.01.365.071.495.469.494q7.887-.021,15.774,0a.89.89,0,0,0,.7-.312c.595-.613,1.215-1.2,1.8-1.818a1.773,1.773,0,0,1,1.371-.58q15.606.014,31.212.008c1.03,0,1.669.531,1.663,1.357s-.644,1.337-1.682,1.337q-15.1,0-30.2-.01a1.4,1.4,0,0,0-1.166.487c-.477.536-1.024,1.01-1.512,1.537a2.12,2.12,0,0,1-1.676.692c-5.371-.015-10.741,0-16.111-.022-.54,0-.647.15-.646.661q.022,20.225.012,40.451c0,1.414.634,2.049,2.041,2.051,1.123,0,2.247-.005,3.37,0,1,.007,1.6.512,1.607,1.332s-.594,1.353-1.579,1.36c-1.213.009-2.427.015-3.64,0a4.348,4.348,0,0,1-4.493-4.518c-.018-2.854,0-5.708,0-8.562q0-19.315,0-38.631c0-3.177,1.738-4.92,4.906-4.92h58.716c3.231,0,4.257.69,5.411,3.641Zm-10.738-47.592a1.342,1.342,0,1,0-.057,2.683,1.342,1.342,0,0,0,.057-2.683Zm-45.862,49.9a1.393,1.393,0,0,0,1.342,1.33,1.344,1.344,0,0,0,.041-2.687A1.4,1.4,0,0,0,1710.967,1434.881Zm-7.757-49.858a1.35,1.35,0,0,0,1.355,1.3,1.344,1.344,0,1,0-.027-2.688A1.354,1.354,0,0,0,1703.21,1385.024Zm8.1-.036a1.4,1.4,0,0,0-1.385-1.356,1.344,1.344,0,0,0,.044,2.687A1.4,1.4,0,0,0,1711.308,1384.988Zm3.984-1.354a1.343,1.343,0,0,0,.093,2.683,1.343,1.343,0,1,0-.093-2.683Zm5.334,39.6a3.491,3.491,0,0,1-4.139,2.824,7.059,7.059,0,0,1-6.2-7.14c0-.426,0-.853,0-1.28,0-.584-.014-1.168,0-1.751.012-.378-.1-.547-.514-.6a3.35,3.35,0,0,1-.011-6.682c.473-.058.519-.276.526-.659a36.17,36.17,0,0,1,.092-4.171,7.025,7.025,0,0,1,6.763-5.985,3.385,3.385,0,0,1,3.493,3.052,3.325,3.325,0,0,1-3,3.648c-.511.061-.615.264-.623.724a27.628,27.628,0,0,1-.146,4.568c-.145.781-.763,1.469-.746,2.19.016.7.595,1.37.743,2.126a23.988,23.988,0,0,1,.146,4.432c.005.563.106.811.748.89A3.337,3.337,0,0,1,1720.627,1423.237Zm-2.685-.476c.03-.513-.335-.662-.789-.716a2.971,2.971,0,0,1-2.818-3.1c-.02-1.056-.014-2.112,0-3.168a4.562,4.562,0,0,0-.861-2.775l.863-4.974c-.021-1.033-.023-2.067,0-3.1a2.962,2.962,0,0,1,2.776-3.075c.478-.054.875-.192.828-.746s-.463-.639-.941-.6a4.3,4.3,0,0,0-3.937,3.7,28.612,28.612,0,0,0-.075,3.567c-.018,2.2-.774,3.116-2.956,3.5-.384.068-.638.268-.645.653a.652.652,0,0,0,.671.694c.067.007.135.008.2.016a2.935,2.935,0,0,1,2.719,2.975c.015.539,0,1.078,0,1.617h0c0,.584-.016,1.169,0,1.752a4.361,4.361,0,0,0,4.039,4.414C1717.509,1423.423,1717.91,1423.314,1717.942,1422.761Zm41.49-10.815a3.382,3.382,0,0,1-3.138,3.343c-.443.062-.477.279-.484.629a36.92,36.92,0,0,1-.1,4.238,7.036,7.036,0,0,1-6.666,5.941,3.391,3.391,0,0,1-3.584-3.024,3.33,3.33,0,0,1,3.038-3.678c.49-.059.585-.268.578-.693-.016-1.077,0-2.155,0-3.233a6.463,6.463,0,0,1,.786-3.093.735.735,0,0,0,.033-.806,6.825,6.825,0,0,1-.83-3.556c.014-.966,0-1.931.006-2.9,0-.369-.092-.557-.512-.616a3.368,3.368,0,0,1-3.086-3.89,3.493,3.493,0,0,1,4.108-2.786,7.057,7.057,0,0,1,6.227,7.05c.008.449,0,.9,0,1.347,0,.606.012,1.213,0,1.819-.01.356.108.5.487.557A3.389,3.389,0,0,1,1759.432,1411.946Zm-2.719.02c.009-.457-.291-.676-.736-.7-.045,0-.089,0-.134-.009a2.933,2.933,0,0,1-2.717-2.908c-.019-.561,0-1.123,0-1.685h-.005c0-.584.015-1.169,0-1.752a4.366,4.366,0,0,0-4.04-4.415c-.483-.031-.885.078-.916.631-.029.51.33.664.788.716a2.971,2.971,0,0,1,2.819,3.1c.02,1.011.021,2.022,0,3.033a4.723,4.723,0,0,0,.9,2.966,1.418,1.418,0,0,1-.014,2.015,4.67,4.67,0,0,0-.885,2.9c.02.943.006,1.887,0,2.831a3.011,3.011,0,0,1-2.913,3.358c-.438.064-.738.263-.7.731s.367.62.808.614a4.33,4.33,0,0,0,4.059-3.575,30.121,30.121,0,0,0,.09-3.9,2.965,2.965,0,0,1,2.888-3.294C1756.413,1412.568,1756.705,1412.387,1756.714,1411.966Zm-13.559-11.646a3.7,3.7,0,0,1-.56,1.842q-6.622,11.471-13.25,22.939a3.371,3.371,0,0,1-6.393-1.664,3.77,3.77,0,0,1,.556-1.708q6.622-11.471,13.25-22.938a3.372,3.372,0,0,1,6.4,1.53Zm-3.026-.6c-.538-.312-.869.075-1.109.529-.031.059-.065.117-.1.176q-6.469,11.205-12.937,22.411a3.1,3.1,0,0,0-.307.6.649.649,0,0,0,.517.846.814.814,0,0,0,.782-.458c.333-.584.67-1.166,1.006-1.747q6.1-10.564,12.2-21.128C1740.432,1400.518,1740.691,1400.046,1740.129,1399.72Z" transform="translate(-7858.028 -12517.083)" fill="#384dc5" stroke="#384dc5" stroke-width="0.35"/>
  </g>
</svg>
