<?xml version="1.0" encoding="utf-8"?>
<!-- Generator: Adobe Illustrator 25.4.4, SVG Export Plug-In . SVG Version: 6.00 Build 0)  -->
<svg version="1.1" id="Grupo_3170" xmlns="http://www.w3.org/2000/svg" xmlns:xlink="http://www.w3.org/1999/xlink" x="0px" y="0px"
	 viewBox="0 0 21.5 21.5" style="enable-background:new 0 0 21.5 21.5;" xml:space="preserve">
<style type="text/css">
	.st0{clip-path:url(#SVGID_00000145741669188737211970000012290488521326481579_);}
	.st1{fill:#E55238;}
</style>
<g>
	<defs>
		<rect id="SVGID_1_" width="21.5" height="21.5"/>
	</defs>
	<clipPath id="SVGID_00000164472762069303914650000016472881300993770658_">
		<use xlink:href="#SVGID_1_"  style="overflow:visible;"/>
	</clipPath>
	<g id="Grupo_3169" style="clip-path:url(#SVGID_00000164472762069303914650000016472881300993770658_);">
		<path id="Caminho_3952" class="st1" d="M11.5,21.5H10c-0.1,0-0.1,0-0.2,0c-0.4-0.1-0.9-0.1-1.3-0.2c-2.5-0.5-4.7-1.9-6.2-3.9
			c-2.1-2.5-2.8-5.9-2-9.1C0.9,5.5,2.7,3,5.2,1.6c2.2-1.4,4.8-1.9,7.3-1.4c2.2,0.4,4.2,1.4,5.8,3c1.6,1.5,2.6,3.6,3,5.7
			c0.1,0.4,0.1,0.7,0.2,1.1v1.5c0,0.3-0.1,0.7-0.1,1c-0.8,4.5-4.2,8-8.7,8.8C12.3,21.4,11.9,21.4,11.5,21.5 M10.1,5.7
			C10.1,5.7,10.1,5.7,10.1,5.7c-1,0-2,0-2.9,0C7.1,5.7,7,5.8,7,5.8c0,0,0,0,0,0C6.8,6.7,6.6,7.6,6.5,8.5C6.4,9,6.4,9.6,6.4,10.1h3.8
			L10.1,5.7z M10.1,11.4H6.4c0,0.3,0,0.7,0.1,1c0.1,1.1,0.3,2.2,0.6,3.2c0,0.1,0.1,0.2,0.2,0.2c0.9,0,1.8,0,2.7,0c0.1,0,0.1,0,0.2,0
			L10.1,11.4z M15.1,10.1c0-0.3,0-0.7-0.1-1C15,8,14.8,7,14.5,5.9c0-0.2-0.1-0.2-0.3-0.2c-0.9,0-1.8,0-2.7,0c-0.1,0-0.1,0-0.2,0v4.4
			L15.1,10.1z M15.1,11.4h-3.7v4.4c1,0,2,0,2.9,0c0.1,0,0.1-0.1,0.2-0.1C14.9,14.3,15.1,12.8,15.1,11.4 M20.2,10.1
			c0-0.1,0-0.1,0-0.2c-0.1-1.5-0.6-2.9-1.4-4.1c-0.1-0.1-0.1-0.1-0.2-0.1c-0.9,0-1.8,0-2.7,0c-0.1,0-0.1,0-0.2,0
			c0.4,1.4,0.6,2.9,0.6,4.4L20.2,10.1z M1.3,11.4c0,0.2,0,0.3,0,0.5c0.2,1.3,0.6,2.6,1.3,3.8c0,0.1,0.2,0.2,0.3,0.1
			c0.8,0,1.7,0,2.5,0h0.3c-0.4-1.4-0.6-2.9-0.6-4.4L1.3,11.4z M16.4,11.4c0,1.5-0.3,3-0.6,4.4c1,0,1.9,0,2.8,0
			c0.1,0,0.3-0.1,0.3-0.2c0.6-1,1-2.1,1.2-3.3c0-0.3,0.1-0.6,0.1-0.9L16.4,11.4z M5.7,5.7c-1,0-1.9,0-2.9,0c-0.1,0-0.1,0.1-0.2,0.1
			C2,6.9,1.6,8,1.4,9.2c0,0.3-0.1,0.6-0.1,0.9h3.8C5.1,8.6,5.3,7.1,5.7,5.7 M10.1,1.4C8.9,2,7.9,3.1,7.5,4.4h2.6L10.1,1.4z M14,4.4
			c-0.4-0.9-0.9-1.8-1.7-2.5c-0.3-0.2-0.6-0.4-0.9-0.5v3H14z M10.1,20.1v-3.1H7.5C8,18.4,8.9,19.5,10.1,20.1 M11.4,20.1
			c1.2-0.6,2.2-1.7,2.6-3h-2.6V20.1z M17.8,4.5c-1.1-1.2-2.4-2.1-3.9-2.6l0.2,0.3c0.4,0.7,0.8,1.4,1.1,2.1c0,0.1,0.1,0.2,0.2,0.2
			C16.2,4.5,17,4.5,17.8,4.5 M7.5,1.9C6,2.4,4.7,3.3,3.7,4.4c0,0,0,0,0.1,0c0.8,0,1.5,0,2.3,0c0.1,0,0.1-0.1,0.2-0.1
			C6.5,3.5,7,2.6,7.5,1.9 M7.5,19.7c-0.6-0.8-1-1.6-1.4-2.5C6.1,17.1,6,17,6,17c-0.7,0-1.4,0-2.1,0c0,0-0.1,0-0.2,0
			C4.7,18.2,6.1,19.1,7.5,19.7 M17.8,17c-0.8,0-1.6,0-2.4,0c-0.1,0-0.1,0-0.1,0.1C15,18,14.5,18.9,14,19.7
			C15.4,19.1,16.8,18.2,17.8,17"/>
	</g>
</g>
</svg>
