<svg xmlns="http://www.w3.org/2000/svg" width="43.343" height="43.343" viewBox="0 0 43.343 43.343">
  <path id="facebook" d="M37.5,0H5.843A5.841,5.841,0,0,0,0,5.841V37.5a5.841,5.841,0,0,0,5.841,5.841H21.458l.027-15.488H17.461a.949.949,0,0,1-.949-.946l-.019-4.993a.949.949,0,0,1,.949-.953h4.017V16.139c0-5.6,3.419-8.647,8.413-8.647h4.1a.95.95,0,0,1,.949.949v4.21a.95.95,0,0,1-.949.949H31.455c-2.716,0-3.242,1.291-3.242,3.185v4.176h5.968a.949.949,0,0,1,.943,1.061l-.592,4.993a.95.95,0,0,1-.943.838H28.24l-.027,15.488H37.5a5.84,5.84,0,0,0,5.84-5.84V5.841A5.841,5.841,0,0,0,37.5,0Z" transform="translate(-0.002)" fill="#212529"/>
</svg>
