<svg id="Grupo_3734" data-name="Grupo 3734" xmlns="http://www.w3.org/2000/svg" xmlns:xlink="http://www.w3.org/1999/xlink" width="150.003" height="150.003" viewBox="0 0 150.003 150.003">
  <defs>
    <clipPath id="clip-path">
      <rect id="Retângulo_1014" data-name="Retângulo 1014" width="88.594" height="90.652" fill="none" stroke="#384dc5" stroke-width="0.5"/>
    </clipPath>
  </defs>
  <g id="Grupo_3718" data-name="Grupo 3718" transform="translate(0 0)">
    <circle id="Elipse_245" data-name="Elipse 245" cx="75.001" cy="75.001" r="75.001" fill="#f2f2f2"/>
  </g>
  <g id="Grupo_3728" data-name="Grupo 3728" transform="translate(30.751 30.001)">
    <g id="Grupo_3574" data-name="Grupo 3574" transform="translate(0 0)" clip-path="url(#clip-path)">
      <path id="Caminho_14643" data-name="Caminho 14643" d="M.911,152.438a1.47,1.47,0,0,1-.867-1.664c.164-.7.47-.806,2.925-1.062v-1.023q0-10.58,0-21.16c0-2.562.737-3.289,3.331-3.289q3.674,0,7.348,0c2.228,0,3.056.819,3.056,3.023q0,10.668,0,21.337v1.115H20.2V148.7q0-15.007,0-30.013c0-2.252.837-3.083,3.1-3.084q3.851,0,7.7,0c2.054,0,2.956.9,2.957,2.974q.008,14.962,0,29.924c0,.382,0,.764,0,1.214H37.4v-1.133q0-23.55,0-47.1c0-2.406.823-3.22,3.252-3.22q3.807,0,7.614,0c1.984,0,2.914.936,2.914,2.937q0,23.683,0,47.366c0,.377,0,.753,0,1.172h3.449v-1.129q0-19.212.009-38.424a4.985,4.985,0,0,1,.234-1.734c.524-1.378,3.107-2.128,4.265-1.209a1.618,1.618,0,0,1,.494,1.357c-.1.4-.644.756-1.075.968a3.116,3.116,0,0,1-1.2.029v40.15h8.309V109.591c-.437,0-.917.137-1.229-.033-.44-.239-1-.67-1.059-1.084a1.54,1.54,0,0,1,.7-1.313,3.5,3.5,0,0,1,3.442.4,2.5,2.5,0,0,1,.873,2.125c-.013,4.309-.006,8.617-.005,12.926v27.118h3.492V84.468c0-.295,0-.59,0-.885a2.419,2.419,0,0,1,2.587-2.623q4.249-.06,8.5,0c1.748.021,2.641,1,2.643,2.84q.015,9.473,0,18.946,0,5.445,0,10.89a6.708,6.708,0,0,1-.038.971,1.206,1.206,0,0,1-1.278,1.107,1.19,1.19,0,0,1-1.265-1.018,5.962,5.962,0,0,1-.071-1.144q-.005-14.342,0-28.685v-1.2H74.614v66.055h8.348v-1.136q0-13.59,0-27.18a4.973,4.973,0,0,1,.083-1.142,1.294,1.294,0,0,1,2.522.1,6.286,6.286,0,0,1,.046,1.059q0,13.59,0,27.18v1.183c.434,0,.8.017,1.17,0,.766-.043,1.454.105,1.725.913s-.183,1.343-.838,1.747Zm39.215-2.717H48.46V100.947H40.126Zm-8.9-31.393H22.9v31.414h8.327ZM13.99,126.971H5.669v22.762H13.99Z" transform="translate(0 -61.786)" fill="#384dc5" stroke="#384dc5" stroke-width="0.5"/>
      <path id="Caminho_14644" data-name="Caminho 14644" d="M63.842,23.859c2.467,1.24,4.909,2.478,7.368,3.679a.843.843,0,0,0,.741-.142,5.555,5.555,0,0,1,5.61-1.225L88.923,9.105a5.526,5.526,0,0,1-1.242-4.884,5.427,5.427,0,1,1,4.174,6.514c-.44-.091-.739-.161-1.041.3Q85.376,19.261,79.9,27.468a1.462,1.462,0,0,0-.088.215,5.43,5.43,0,1,1-9.456,3.453,1.321,1.321,0,0,0-.91-1.517c-2.105-.992-4.179-2.051-6.251-3.112a.735.735,0,0,0-.989.125,5.356,5.356,0,0,1-6,.986.933.933,0,0,0-.82.1c-3.162,3.1-6.3,6.218-9.4,9.3,1.212,3.44.647,5.85-1.672,7.423-2.19,1.485-4.789,1.173-7.181-.921-1.089.54-2.216,1.1-3.341,1.657-1.213.6-2.411,1.241-3.642,1.81a1.044,1.044,0,0,0-.7,1.2,5.392,5.392,0,1,1-1.862-3.748c.2.171.39.353.622.565,2.453-1.229,4.9-2.448,7.34-3.7a.778.778,0,0,0,.334-.592c-.09-4.927,3.491-7.35,8.217-5.5l7.313-7.3a8.583,8.583,0,0,1,.691-.685c1.156-.916,1.74-1.79,1.172-3.506-.734-2.216.283-4.194,2.205-5.517a5.052,5.052,0,0,1,5.835-.145,5.182,5.182,0,0,1,2.553,5.42c-.011.087-.012.176-.026.379M61.3,22.649a2.785,2.785,0,0,0-5.57.024,2.785,2.785,0,1,0,5.57-.024m-17.254,17.3a2.752,2.752,0,0,0-2.722-2.782,2.762,2.762,0,1,0-.032,5.523,2.731,2.731,0,0,0,2.754-2.741M26.823,48.6A2.762,2.762,0,1,0,24.05,51.34,2.79,2.79,0,0,0,26.823,48.6m68.9-43.149a2.762,2.762,0,1,0-2.761,2.736,2.736,2.736,0,0,0,2.761-2.736M72.98,31.3a2.769,2.769,0,0,0,2.732,2.779A2.779,2.779,0,1,0,72.98,31.3" transform="translate(-14.218 0)" fill="#384dc5" stroke="#384dc5" stroke-width="0.5"/>
    </g>
  </g>
</svg>
