<svg xmlns="http://www.w3.org/2000/svg" width="74.988" height="74.937" viewBox="0 0 74.988 74.937">
  <path id="Caminho_3957" data-name="Caminho 3957" d="M572.741,32.492h0a34.55,34.55,0,0,0-3.814-12.227,37.838,37.838,0,0,0-9.425-11.7,37.033,37.033,0,0,0-17.424-8.1,43.921,43.921,0,0,0-9.226-.4A34.307,34.307,0,0,0,518.1,4.11a37.825,37.825,0,0,0-19.278,24.854,40.136,40.136,0,0,0-.783,5.464l0,6.158.01.043a5.711,5.711,0,0,1,.1,1.126,8.686,8.686,0,0,0,.058.907,36.911,36.911,0,0,0,3.9,12.27,37.721,37.721,0,0,0,9.276,11.456,37.226,37.226,0,0,0,17.554,8.171,16.913,16.913,0,0,0,1.752.191,16,16,0,0,1,1.675.181l5.891.006.033-.006a8.855,8.855,0,0,1,1.229-.095c.363-.012.739-.023,1.113-.072a36.471,36.471,0,0,0,12.269-3.894,37.928,37.928,0,0,0,9.893-7.533,38.552,38.552,0,0,0,7.406-11.3c2.493-5.789,3.327-12.182,2.548-19.545m-44.305-16.5c-.132.593-.381.731-.742.763-.143.012-.286.031-.428.051-.172.023-.333.045-.493.054a7.375,7.375,0,0,0-4.679,1.76,3.185,3.185,0,0,1-2.765.757,8.334,8.334,0,0,0-6.239,1.492,3.7,3.7,0,0,0-1.613,2.7,3.661,3.661,0,0,0,1.164,2.879,15.054,15.054,0,0,0,9.024,4.206l.131.017a20.269,20.269,0,0,1,2.315.395,2.632,2.632,0,0,1,1.883,1.643q.157.364.311.729c.222.524.452,1.065.692,1.594a5.283,5.283,0,0,0,1.648,2.04,4,4,0,0,0,4.623.233c.1-.059.2-.117.3-.175a7.961,7.961,0,0,0,.839-.54,1.8,1.8,0,0,1,1.988-.168,4.923,4.923,0,0,1,2.6,2.309,1.7,1.7,0,0,1-.487,2.248q-.779.674-1.563,1.343c-1.145.98-2.329,1.994-3.469,3.021a6.279,6.279,0,0,0-2.376,4.246,9.018,9.018,0,0,0,.341,2.758c.067.274.036.379.012.418a.609.609,0,0,1-.367.164c-2.351.482-3.695,2.06-4.108,4.826-.05.337-.081.677-.111,1.005a7.867,7.867,0,0,1-.331,1.915c-.021.06-.041.122-.062.187-.145.45-.229.61-.413.615h-.011c-.252,0-.4-.237-.629-.778a6.024,6.024,0,0,1-.363-1.833c-.012-.13-.025-.26-.039-.389a8.829,8.829,0,0,0-1.782-4.652c-.1-.127-.191-.263-.289-.407a5.97,5.97,0,0,0-.447-.6A4.819,4.819,0,0,1,521.3,48.5a7.525,7.525,0,0,0-2.383-6.745c-.02-.021-.039-.042-.058-.064a1.526,1.526,0,0,0-.171-.173A5.638,5.638,0,0,1,516.655,36a4.807,4.807,0,0,0-2.206-4.774,36.3,36.3,0,0,1-6-5.292,6.659,6.659,0,0,1-1.705-2.993c-.012-.051-.023-.1-.035-.157a1.916,1.916,0,0,0-.4-.96c-.338-.353-.249-.544.084-1.1l.042-.071A33.6,33.6,0,0,1,525.195,5.543c.055-.018.111-.041.167-.064l.05-.021.008.026c.444,1.473,1.012,2.921,1.561,4.32.411,1.045.835,2.126,1.2,3.2a5.382,5.382,0,0,1,.254,2.987m-15.6,19.889c-.007.164-.015.327-.022.491a9.363,9.363,0,0,0,.441,4.167,8.232,8.232,0,0,0,1.484,2.356q.939,1.055,1.885,2.1a3.348,3.348,0,0,1,.867,2.572c-.013.252-.03.5-.047.756a9.224,9.224,0,0,0,.3,3.91,5.754,5.754,0,0,0,.995,1.91A10.682,10.682,0,0,1,521.5,60.91a4.86,4.86,0,0,0,1.046,2.5,4.275,4.275,0,0,0,3.877,1.947,4.358,4.358,0,0,0,3.5-2.7,10.661,10.661,0,0,0,.764-3.361c.029-.254.058-.508.092-.762a8.075,8.075,0,0,1,.239-1.073.893.893,0,0,1,.731-.721,2.575,2.575,0,0,0,.275-.083,1.805,1.805,0,0,1,.2-.061c2.351-.49,3.459-2.229,3.041-4.772l0-.025a.722.722,0,0,0-.042-.193c-.57-1.487-.155-2.687,1.345-3.892.632-.508,1.248-1.052,1.843-1.578.754-.666,1.533-1.355,2.342-1.965a5.647,5.647,0,0,0,2.3-3.8,6.1,6.1,0,0,0-1.313-4.545,8.764,8.764,0,0,0-5.344-3.423,5.574,5.574,0,0,0-4.43,1.168c-.477.341-.795.483-.969.435s-.39-.356-.642-.935c-.114-.262-.222-.528-.329-.793a17.169,17.169,0,0,0-.786-1.744,6.555,6.555,0,0,0-4.989-3.409c-.364-.058-.729-.112-1.094-.165a16.6,16.6,0,0,1-4.494-1.083,13.468,13.468,0,0,1-3.132-1.98l-.041-.036c.022-.013.048-.027.081-.044a4.922,4.922,0,0,1,3.1-.641,6.616,6.616,0,0,0,5.9-1.6,4.307,4.307,0,0,1,2.75-.891l.185-.017a4.75,4.75,0,0,0,4.153-2.361,7.278,7.278,0,0,0,.664-4.593,18.713,18.713,0,0,0-1.264-4.12c-.117-.3-.234-.593-.347-.89-.255-.67-.5-1.358-.745-2.022-.256-.706-.52-1.436-.794-2.152,1.152-.149,2.172-.3,3.119-.457l.035,0c.02.034.048.094.068.138a13.4,13.4,0,0,1,.842,2.522c.607,2.519,1.9,4,3.944,4.516A5.354,5.354,0,0,0,543.134,8.2a11.165,11.165,0,0,0,.981-2.967,1.212,1.212,0,0,1,.035-.16.993.993,0,0,1,.168.038c1.206.362,2.489.769,3.774,1.293-.312.315-.625.625-.93.928-.948.94-1.843,1.828-2.681,2.812-1.627,1.912-1.667,3.5-.136,5.47a5.819,5.819,0,0,0,3.964,2.675,4.925,4.925,0,0,0,2.514-.419c.424-.183.78-.343,1.085-.48,1.716-.771,1.716-.772,3.859-.124l.537.161a4.234,4.234,0,0,0,4.892-1.449l.017-.021.056.066a33.1,33.1,0,0,1,4.97,8.047c.187.434.361.888.529,1.326.13.338.26.677.4,1.012l.016.041-.515.032a12.96,12.96,0,0,1-5.857-.517,27.082,27.082,0,0,0-3.052-1.011,7.041,7.041,0,0,0-7.45,2.257,12.575,12.575,0,0,0-3.323,8.023,4.85,4.85,0,0,0,2.5,4.48,33.1,33.1,0,0,0,6.783,3.524c1.918.727,2.375,1.552,2.036,3.676a16.173,16.173,0,0,1-.843,2.9c-.161.449-.327.913-.473,1.378a6.961,6.961,0,0,0,.185,5.627A7.122,7.122,0,0,0,560.353,60l.022.011-.017.019a32.877,32.877,0,0,1-21.131,10.805,33.293,33.293,0,0,1-34.684-20.314,32.949,32.949,0,0,1-.675-24.368c1.706,2.852,4.243,4.948,6.7,6.981l.146.12a11.237,11.237,0,0,0,1.375,1.023,1.529,1.529,0,0,1,.743,1.6m45.648-22.748c-.24.428-.393.63-.639.657a11.355,11.355,0,0,1-1.826-.456c-.171-.053-.34-.106-.511-.156a5.948,5.948,0,0,0-4.351.32c-.54.255-1.11.514-1.7.768-.711.31-.946.257-1.483-.332-.41-.449-.734-.8-.735-.963s.36-.546.743-.952c.677-.718,1.383-1.433,2.066-2.125.531-.539,1.081-1.1,1.615-1.652a.959.959,0,0,1,.1-.091.516.516,0,0,1,.15.068,33.837,33.837,0,0,1,6.264,4.59,1.887,1.887,0,0,0,.2.156,1.269,1.269,0,0,1,.134.1.385.385,0,0,1-.03.066m2.027,39.8c.239-.877.547-1.758.845-2.61.1-.285.2-.571.3-.856a10.763,10.763,0,0,0,.532-4.279,5.708,5.708,0,0,0-3.512-5.123c-.552-.25-1.117-.489-1.663-.72a26.659,26.659,0,0,1-4.133-2.037c-.148-.1-.3-.189-.448-.282a9.067,9.067,0,0,1-1.18-.818,1.117,1.117,0,0,1-.393-1.079,9.568,9.568,0,0,1,2.03-5.011,3.618,3.618,0,0,1,2.859-1.6,3.992,3.992,0,0,1,1.181.192c.622.193,1.249.413,1.855.625.506.178,1.03.361,1.552.53a18.627,18.627,0,0,0,7.746.318c.036,0,.1-.011.157-.013.007.023.015.056.025.1a34.609,34.609,0,0,1,.773,6.676,33.926,33.926,0,0,1-6.037,19.782c-.108.157-.108.156-.33.089a3.072,3.072,0,0,1-2.155-3.885M539.561,6.7a1.445,1.445,0,0,1-1.357.8c-.433-.017-.7-.268-.98-.928a8.466,8.466,0,0,1-.4-1.326,11.386,11.386,0,0,0-.365-1.278,36.26,36.26,0,0,1,3.936.321,8.892,8.892,0,0,1-.836,2.408" transform="translate(-498.035)" fill="#212529"/>
</svg>
