<?xml version="1.0" encoding="utf-8"?>
<!-- Generator: Adobe Illustrator 25.4.4, SVG Export Plug-In . SVG Version: 6.00 Build 0)  -->
<svg version="1.1" id="Componente_145_1" xmlns="http://www.w3.org/2000/svg" xmlns:xlink="http://www.w3.org/1999/xlink" x="0px"
	 y="0px" viewBox="0 0 220.4 55.6" style="enable-background:new 0 0 220.4 55.6;" xml:space="preserve">
<style type="text/css">
	.st0{fill:#FFFFFF;}
</style>
<path id="Caminho_14135" class="st0" d="M19.7,1.3H0.1v0.2c4,1.6,3.5,7.5,3.5,11.1V43c0,3.6,0.5,9.6-3.6,11v0.2h16v-0.2
	c-4.3-2.4-4.2-5.6-4.2-10.2V7.6c1.9-0.3,3.8-0.5,5.6-0.5c6.4,0,11.4,2.8,11.4,9.9c0,7.7-7.5,12-14.4,12.4c1.9,0.8,3.9,1.2,5.9,1.1
	c9.1,0,17.7-5.9,17.7-15.2C38.1,6.4,30.1,1.3,19.7,1.3 M88.3,1.5l-0.1-0.2H72.9v0.2c4,1.5,3.5,7.4,3.5,11v24.3
	c0,2.9,0.1,4.9-1.7,7.3c-2.8,3.7-7.2,5.8-11.8,5.6c-8.3,0-12.8-5-12.8-15.7V12.6c0-3.6-0.5-9.5,3.5-11V1.3H38.4v0.2
	C42.5,3.1,42,9,42,12.6v21.5c0,5.8-0.2,11.2,4.1,15.9c3.6,3.9,9.3,5.6,14.6,5.6c5.6,0,12.2-1.9,15.8-6.6v5.3h11.8v-0.2
	c-4.1-1.5-3.6-7.4-3.6-11V12.7C84.7,9,84.2,3.1,88.3,1.5 M135.4,43.8c-5.1,2.9-11.1,5.1-17.2,5.1c-12.4,0-20.5-10.6-20.5-22.4
	c0-11.7,7.7-19.8,18.9-19.8c5.3,0.1,10.5,1.7,14.9,4.6V2c-4.8-1.2-9.7-1.9-14.7-2c-16.5,0-28.3,11-28.3,27.7
	c0,17.2,11.8,27.9,30.8,27.9c4.2,0.1,8.3-0.7,12.2-2.4l4.1-9.3L135.4,43.8z"/>
<path id="Caminho_14136" class="st0" d="M170.6,43L159,28.5c6.6-1.5,12.8-7.1,12.8-14.2c0-7.3-5.9-13-16.7-13h-19.2v0.2
	c4.1,1.5,3.5,7.4,3.5,11.1V43c0,3.6,0.6,9.6-3.5,11v0.2h15.4v-0.2c-4.1-1.5-3.6-7.3-3.6-11V6.9c1.8-0.3,3.6-0.5,5.5-0.7
	c5.4-0.2,10.4,3.1,10.4,9c0,7.6-7.5,10.6-13.9,11.5l7.4,11.4l9.8,12.2c2.4,3,5.1,4,9.3,4h7.4C178.8,51.3,174.4,47.5,170.6,43
	 M192.7,13.1c0-5.6,5.8-7.3,10.4-7.3c4.7,0,9.2,1.8,12.7,5.1V1.8c-3.9-1.2-7.9-1.8-12-1.8c-9.8,0-20.2,3.9-20.2,14
	c0,17.1,27.7,14.8,27.7,27.4c0,5.6-6.9,8.4-11.5,8.4c-6.5-0.1-12.7-2.5-17.6-6.7l2.3,10.1c4.6,1.6,9.5,2.5,14.4,2.4
	c12.6,0,21.6-8.1,21.6-16.7C220.4,24,192.7,24.2,192.7,13.1"/>
</svg>
