<svg id="Camada_1" data-name="Camada 1" xmlns="http://www.w3.org/2000/svg" viewBox="0 0 43.34 36.05"><path id="twitter" d="M42.65,4.19a16.6,16.6,0,0,1-3,1,9.37,9.37,0,0,0,2.46-3.92h0a.49.49,0,0,0-.32-.61.51.51,0,0,0-.4,0h0A17.08,17.08,0,0,1,36.84,2.6a.9.9,0,0,1-.28,0,1.18,1.18,0,0,1-.8-.31A9.39,9.39,0,0,0,29.57,0a9.94,9.94,0,0,0-3,.46A9.07,9.07,0,0,0,20.51,7a10,10,0,0,0-.22,3.44.34.34,0,0,1-.34.38h0a24.51,24.51,0,0,1-16.85-9h0a.48.48,0,0,0-.68-.07.49.49,0,0,0-.12.13h0A9.37,9.37,0,0,0,3.79,13.22a8.24,8.24,0,0,1-2.13-.82h0a.48.48,0,0,0-.66.19.46.46,0,0,0-.06.23h0A9.34,9.34,0,0,0,6.4,21.44H6.2a8.37,8.37,0,0,1-1.58-.15h0a.49.49,0,0,0-.57.39.65.65,0,0,0,0,.24h0a9.39,9.39,0,0,0,7.4,6.37A17.21,17.21,0,0,1,1.8,31.22H.72a.72.72,0,0,0-.7.54.74.74,0,0,0,.36.82,25.57,25.57,0,0,0,12.88,3.47,26,26,0,0,0,11-2.33,24.38,24.38,0,0,0,8-6,26.5,26.5,0,0,0,4.94-8.26A26.15,26.15,0,0,0,39,10.37v-.14A1.58,1.58,0,0,1,39.55,9a18.71,18.71,0,0,0,3.71-4.08h0a.5.5,0,0,0-.14-.68.5.5,0,0,0-.46,0Z" style="fill:#e55238"/></svg>