<svg id="Camada_1" data-name="Camada 1" xmlns="http://www.w3.org/2000/svg" viewBox="0 0 43.34 43.34"><path id="facebook" d="M37.5,0H5.84A5.84,5.84,0,0,0,0,5.84H0V37.5a5.83,5.83,0,0,0,5.84,5.84H21.46l0-15.49h-4a1,1,0,0,1-.95-.94l0-5a1,1,0,0,1,1-.95h4V16.14c0-5.6,3.42-8.65,8.41-8.65H34a1,1,0,0,1,1,.95v4.21a1,1,0,0,1-1,.95H31.45c-2.71,0-3.24,1.29-3.24,3.18V21h6a1,1,0,0,1,1,.95.41.41,0,0,1,0,.11l-.59,5a1,1,0,0,1-.94.83H28.24l0,15.49H37.5a5.84,5.84,0,0,0,5.84-5.84V5.84A5.85,5.85,0,0,0,37.5,0Z" style="fill:#e55238"/></svg>