<?xml version="1.0" encoding="utf-8"?>
<!-- Generator: Adobe Illustrator 25.4.4, SVG Export Plug-In . SVG Version: 6.00 Build 0)  -->
<svg version="1.1" id="facebook_1_" xmlns="http://www.w3.org/2000/svg" xmlns:xlink="http://www.w3.org/1999/xlink" x="0px"
	 y="0px" viewBox="0 0 27.1 27.1" style="enable-background:new 0 0 27.1 27.1;" xml:space="preserve">
<style type="text/css">
	.st0{fill:#FFFFFF;}
</style>
<path id="facebook_1_2" class="st0" d="M25.6,0H1.5C0.7,0,0,0.7,0,1.5v24.1c0,0.8,0.7,1.5,1.5,1.5h13V16.6H11v-4.1h3.5v-3
	c0-3.5,2.1-5.4,5.3-5.4c1.1,0,2.1,0,3.2,0.2v3.7h-2.2c-1.7,0-2,0.8-2,2v2.6h4.1l-0.5,4.1h-3.5v10.5h6.9c0.8,0,1.5-0.7,1.5-1.5l0,0
	V1.5C27.1,0.7,26.4,0,25.6,0z"/>
</svg>
