<svg id="whatsapp" xmlns="http://www.w3.org/2000/svg" width="43.351" height="43.705" viewBox="0 0 43.351 43.705">
  <path id="Caminho_3381" data-name="Caminho 3381" d="M22.306.025A21.684,21.684,0,0,0,4.049,31.52L1.748,42.69a.844.844,0,0,0,1.021.991l10.946-2.593A21.677,21.677,0,1,0,22.306.025ZM35.367,33.677a16.983,16.983,0,0,1-19.555,3.2l-1.524-.759-6.711,1.59,1.413-6.857-.751-1.471A16.987,16.987,0,0,1,11.365,9.675a16.972,16.972,0,1,1,24,24Z" transform="translate(-1.69 0)" fill="#212529"/>
  <path id="Caminho_3382" data-name="Caminho 3382" d="M126.021,122.566l-4.2-1.206a1.565,1.565,0,0,0-1.549.408l-1.027,1.046a1.53,1.53,0,0,1-1.663.351,22.413,22.413,0,0,1-7.231-6.377,1.529,1.529,0,0,1,.121-1.7l.9-1.16a1.565,1.565,0,0,0,.193-1.59l-1.766-4a1.566,1.566,0,0,0-2.445-.56c-1.172.991-2.562,2.5-2.731,4.166-.3,2.942.964,6.65,5.734,11.1,5.511,5.144,9.925,5.824,12.8,5.128,1.63-.395,2.932-1.977,3.755-3.273A1.566,1.566,0,0,0,126.021,122.566Z" transform="translate(-93.826 -96.189)" fill="#212529"/>
</svg>
