<svg xmlns="http://www.w3.org/2000/svg" width="118.41" height="91.347" viewBox="0 0 118.41 91.347">
  <g id="Grupo_3858" data-name="Grupo 3858" transform="translate(-1661.59 -905)">
    <path id="Caminho_14137" data-name="Caminho 14137" d="M461.306,59.792c0,2.893.235,5.181,1.379,7,1.817,2.86,5.316,4.649,9.656,4.649S480.18,69.684,482,66.79c1.144-1.817,1.413-4.1,1.413-7V46.739h-8.647V59.86c0,2.523-.438,4-2.422,4-2.018,0-2.388-1.48-2.388-4V46.739h-8.647Z" transform="translate(1200.341 897.664)" fill="#fff" fill-rule="evenodd"/>
    <path id="Caminho_14138" data-name="Caminho 14138" d="M492.618,70.793h8.647V62.214h6.729V56.058h-6.729V53.265H508.7V46.739H492.618Z" transform="translate(1195.428 897.666)" fill="#fff" fill-rule="evenodd"/>
    <path id="Caminho_14139" data-name="Caminho 14139" d="M515.791,70.794h8.478v-7.94l4.205,7.94h9.69L531.738,61c2.792-.336,4.643-2.725,4.643-6.156,0-5.148-3.3-8.109-9.723-8.109H515.791Zm8.478-17.865h1.346a2.246,2.246,0,0,1,2.557,2.388c0,1.48-.908,2.322-2.557,2.322h-1.346Z" transform="translate(1191.792 897.666)" fill="#fff" fill-rule="evenodd"/>
    <path id="Caminho_14140" data-name="Caminho 14140" d="M560.5,62.081c-.2,1.244-1.278,1.985-2.961,1.985-2.759,0-4.407-1.951-4.407-5.349,0-3.364,1.749-5.382,4.205-5.382a3.84,3.84,0,0,1,3.431,1.985l7.7-2.86A12.468,12.468,0,0,0,557.2,46.1a12.825,12.825,0,0,0-9.218,3.6,12.381,12.381,0,0,0-3.633,9.016,12.249,12.249,0,0,0,3.633,9.017A13.51,13.51,0,0,0,567.6,66.421a13.1,13.1,0,0,0,2.49-8.209,16.039,16.039,0,0,0-.068-1.783H556.731v5.652Z" transform="translate(1187.311 897.766)" fill="#fff" fill-rule="evenodd"/>
    <path id="Caminho_14141" data-name="Caminho 14141" d="M577.418,68.641a18.893,18.893,0,0,0,9.454,2.7c6.292,0,10.4-3.909,10.4-9.056a6.42,6.42,0,0,0-5.349-6.46c-2.86-.639-4.474-.808-4.474-1.985,0-.707.673-1.144,1.884-1.144a8.611,8.611,0,0,1,4.946,1.884l2.624-6.292A16.7,16.7,0,0,0,588.79,46.1c-6.123,0-10.06,3.7-10.06,8.748,0,3.5,2.087,5.753,6.191,6.628,1.985.438,3.2.572,3.2,1.682,0,.774-.673,1.245-1.918,1.245-1.817,0-3.7-.908-6.022-2.49Z" transform="translate(1182.122 897.766)" fill="#fff" fill-rule="evenodd"/>
    <path id="Caminho_14142" data-name="Caminho 14142" d="M503.143,36.139h38.539c-6.423,2.558-12.846,4.263-19.27,4.092-6.423.171-12.846-1.534-19.27-4.092" transform="translate(1193.777 899.328)" fill="#fff" fill-rule="evenodd"/>
    <path id="Caminho_14143" data-name="Caminho 14143" d="M521.5,44.733a1.364,1.364,0,1,0-1.365-1.364,1.367,1.367,0,0,0,1.365,1.364" transform="translate(1191.111 898.406)" fill="#fff" fill-rule="evenodd"/>
    <path id="Caminho_14144" data-name="Caminho 14144" d="M525.745,44.733a1.364,1.364,0,1,0-1.364-1.364,1.367,1.367,0,0,0,1.364,1.364" transform="translate(1190.444 898.406)" fill="#fff" fill-rule="evenodd"/>
    <path id="Caminho_14145" data-name="Caminho 14145" d="M529.993,44.733a1.364,1.364,0,1,0-1.364-1.364,1.367,1.367,0,0,0,1.364,1.364" transform="translate(1189.778 898.406)" fill="#fff" fill-rule="evenodd"/>
    <path id="Caminho_14146" data-name="Caminho 14146" d="M523.068,29.786c.966-3.07-.228-6.252-4.263-8.868q-4.518-2.814-4.945-9.72-.257-3.837,3.581-7.674,5.372-5.372,12.79-2.558Q523.579,3.781,523.068,10c-.062,3.066,1.474,4.935,3.238,6.631a11.643,11.643,0,0,1,2.389,6.159,7.712,7.712,0,0,1-5.628,6.992" transform="translate(1192.098 905)" fill="#fff" fill-rule="evenodd"/>
    <path id="Caminho_14147" data-name="Caminho 14147" d="M511.792,13.283a8.348,8.348,0,0,0-4.6,7.674c-.071,2.737,1.555,4.85,3.752,6.31a11.178,11.178,0,0,0,5.968,1.534c1.682.071,3.07,1.365,4.264,3.07a5.533,5.533,0,0,0-1.535-5.627c-1.437-1.3-3.635-1.935-5.723-2.8-2.531-1.053-3.381-5.312-2.121-10.158" transform="translate(1193.143 902.914)" fill="#fff" fill-rule="evenodd"/>
    <path id="Caminho_14148" data-name="Caminho 14148" d="M537.083,8.848c-4.989-.652-7.741,3.162-7.736,5.946.008,4,3.533,5.018,3.437,9.163-.056,2.432-1.024,5.284-5.308,7.391,8.176-.134,11.567-5.608,11.369-10.5-.207-5.1-4.512-5.166-4.539-8.792-.011-1.6.846-2.493,2.777-3.2" transform="translate(1189.958 903.621)" fill="#fff" fill-rule="evenodd"/>
    <path id="Caminho_14149" data-name="Caminho 14149" d="M461.238,87.61v3.93a3.777,3.777,0,0,0,.631,2.657,3.266,3.266,0,0,0,2.606.887c2.31,0,3.237-.948,3.237-3.147V87.61h-1.975V91.1c0,1.558-.051,2.311-1.262,2.311-1.029,0-1.263-.56-1.263-1.852V87.61Z" transform="translate(1200.352 891.252)" fill="#fff" fill-rule="evenodd"/>
    <path id="Caminho_14150" data-name="Caminho 14150" d="M470.258,94.888h1.914V91.3a11.991,11.991,0,0,0-.112-1.436,10.3,10.3,0,0,0,.662,1.273l2.748,3.756h1.9V87.61h-1.9V91.2a11.982,11.982,0,0,0,.112,1.436,11.04,11.04,0,0,0-.662-1.283l-2.748-3.746h-1.914Z" transform="translate(1198.937 891.252)" fill="#fff" fill-rule="evenodd"/>
    <rect id="Retângulo_952" data-name="Retângulo 952" width="2.006" height="7.278" transform="translate(1677.543 978.863)" fill="#fff"/>
    <path id="Caminho_14151" data-name="Caminho 14151" d="M485.894,94.888H487.4l3.054-7.278h-2.107L486.9,91.682c-.03.081-.121.407-.254.977q-.2-.855-.245-.977l-1.456-4.072h-2.109Z" transform="translate(1196.963 891.252)" fill="#fff" fill-rule="evenodd"/>
    <path id="Caminho_14152" data-name="Caminho 14152" d="M492.127,94.888h4.458V93.26h-2.524V92.028h2.382V90.471h-2.382V89.209h2.524v-1.6h-4.458Z" transform="translate(1195.505 891.252)" fill="#fff" fill-rule="evenodd"/>
    <path id="Caminho_14153" data-name="Caminho 14153" d="M500.39,91.051V89.137h.4c.824,0,1.2.245,1.2,1.008,0,.641-.4.905-1.232.905Zm-1.863,3.838h1.863v-2.85l1.669,2.85H504.3l-1.985-2.931a1.929,1.929,0,0,0,1.628-2.077,2.159,2.159,0,0,0-.814-1.781,3.742,3.742,0,0,0-2.4-.489h-2.2Z" transform="translate(1194.501 891.252)" fill="#fff" fill-rule="evenodd"/>
    <path id="Caminho_14154" data-name="Caminho 14154" d="M506.04,92.5l-.9,1.476a3.5,3.5,0,0,0,2.586,1.071,2.53,2.53,0,0,0,2.79-2.567c0-1.344-.713-1.822-2.006-2.168-.662-.173-1.16-.285-1.16-.8,0-.346.315-.61.8-.61a2.207,2.207,0,0,1,1.4.58l.621-1.425a3.673,3.673,0,0,0-2.158-.652,2.33,2.33,0,0,0-2.514,2.361c0,1.14.642,1.669,1.954,2.016.825.213,1.222.387,1.222.967a.8.8,0,0,1-.905.753,2.393,2.393,0,0,1-1.731-1" transform="translate(1193.463 891.283)" fill="#fff" fill-rule="evenodd"/>
    <rect id="Retângulo_953" data-name="Retângulo 953" width="2.006" height="7.278" transform="translate(1704.766 978.863)" fill="#fff"/>
    <path id="Caminho_14155" data-name="Caminho 14155" d="M518.243,93.26V89.239h.336c1.5,0,2.239.57,2.239,2.016,0,1.425-.723,2-2.239,2Zm-1.964,1.629H518.3a5.053,5.053,0,0,0,3.125-.682,3.8,3.8,0,0,0,0-5.9,5.565,5.565,0,0,0-3.4-.692h-1.751Z" transform="translate(1191.716 891.252)" fill="#fff" fill-rule="evenodd"/>
    <path id="Caminho_14156" data-name="Caminho 14156" d="M523.836,94.889h1.976l.377-1.3h2.82l.366,1.3h1.974l-2.514-7.278h-2.484Zm2.781-2.718.733-2.4c.031-.111.122-.438.255-.977q.2.809.244.977l.743,2.4Z" transform="translate(1190.53 891.252)" fill="#fff" fill-rule="evenodd"/>
    <path id="Caminho_14157" data-name="Caminho 14157" d="M535.088,93.26V89.239h.336c1.5,0,2.239.57,2.239,2.016,0,1.425-.723,2-2.239,2Zm-1.964,1.629h2.026a5.053,5.053,0,0,0,3.125-.682,3.8,3.8,0,0,0,0-5.9,5.565,5.565,0,0,0-3.4-.692h-1.751Z" transform="translate(1189.072 891.252)" fill="#fff" fill-rule="evenodd"/>
    <path id="Caminho_14158" data-name="Caminho 14158" d="M541.927,94.888h4.458V93.26h-2.524V92.028h2.383V90.471h-2.383V89.209h2.524v-1.6h-4.458Z" transform="translate(1187.691 891.252)" fill="#fff" fill-rule="evenodd"/>
    <path id="Caminho_14159" data-name="Caminho 14159" d="M552.106,94.888h1.934V92.028h2.383V90.471H554.04V89.209h2.524v-1.6h-4.458Z" transform="translate(1186.094 891.252)" fill="#fff" fill-rule="evenodd"/>
    <path id="Caminho_14160" data-name="Caminho 14160" d="M558.228,94.888h4.458V93.26h-2.524V92.028h2.383V90.471h-2.383V89.209h2.524v-1.6h-4.458Z" transform="translate(1185.133 891.252)" fill="#fff" fill-rule="evenodd"/>
    <path id="Caminho_14161" data-name="Caminho 14161" d="M566.592,93.26V89.239h.336c1.5,0,2.239.57,2.239,2.016,0,1.425-.723,2-2.239,2Zm-1.964,1.629h2.026a5.053,5.053,0,0,0,3.125-.682,3.8,3.8,0,0,0,0-5.9,5.565,5.565,0,0,0-3.4-.692h-1.751Z" transform="translate(1184.129 891.252)" fill="#fff" fill-rule="evenodd"/>
    <path id="Caminho_14162" data-name="Caminho 14162" d="M573.431,94.888h4.458V93.26h-2.524V92.028h2.383V90.471h-2.383V89.209h2.524v-1.6h-4.458Z" transform="translate(1182.748 891.252)" fill="#fff" fill-rule="evenodd"/>
    <path id="Caminho_14163" data-name="Caminho 14163" d="M581.694,91.051V89.137h.4c.824,0,1.2.245,1.2,1.008,0,.641-.4.905-1.232.905Zm-1.863,3.838h1.863v-2.85l1.669,2.85H585.6l-1.985-2.931a1.929,1.929,0,0,0,1.628-2.077,2.159,2.159,0,0,0-.814-1.781,3.742,3.742,0,0,0-2.4-.489h-2.2Z" transform="translate(1181.743 891.252)" fill="#fff" fill-rule="evenodd"/>
    <path id="Caminho_14164" data-name="Caminho 14164" d="M586.109,94.889h1.976l.377-1.3h2.82l.366,1.3h1.975l-2.514-7.278h-2.484Zm2.78-2.718.733-2.4c.031-.111.122-.438.255-.977q.2.809.245.977l.743,2.4Z" transform="translate(1180.758 891.252)" fill="#fff" fill-rule="evenodd"/>
    <path id="Caminho_14165" data-name="Caminho 14165" d="M595.4,94.888h4.448v-1.7h-2.464V87.61H595.4Z" transform="translate(1179.301 891.252)" fill="#fff" fill-rule="evenodd"/>
    <path id="Caminho_14166" data-name="Caminho 14166" d="M463.25,105.135v-4.021h.336c1.5,0,2.239.57,2.239,2.016,0,1.425-.723,2-2.239,2Zm-1.964,1.629h2.026a5.053,5.053,0,0,0,3.125-.682,3.8,3.8,0,0,0,0-5.9,5.565,5.565,0,0,0-3.4-.692h-1.751Z" transform="translate(1200.345 889.389)" fill="#fff" fill-rule="evenodd"/>
    <path id="Caminho_14167" data-name="Caminho 14167" d="M473.327,105.248a1.951,1.951,0,0,1-1.9-2.138,1.917,1.917,0,1,1,1.9,2.138m3.888-2.138a3.7,3.7,0,0,0-1.13-2.7,3.946,3.946,0,0,0-5.507,0,3.762,3.762,0,0,0,.275,5.639,3.94,3.94,0,0,0,5.232-.244,3.71,3.71,0,0,0,1.13-2.7" transform="translate(1199.065 889.418)" fill="#fff" fill-rule="evenodd"/>
    <path id="Caminho_14168" data-name="Caminho 14168" d="M485.043,102.926v-1.914h.4c.824,0,1.2.244,1.2,1.008,0,.641-.4.905-1.232.905Zm-1.863,3.838h1.863v-2.85l1.669,2.85h2.239l-1.985-2.931a1.929,1.929,0,0,0,1.628-2.077,2.159,2.159,0,0,0-.814-1.781,3.742,3.742,0,0,0-2.4-.489h-2.2Z" transform="translate(1196.909 889.389)" fill="#fff" fill-rule="evenodd"/>
    <rect id="Retângulo_954" data-name="Retângulo 954" width="2.006" height="7.278" transform="translate(1686.045 988.875)" fill="#fff"/>
    <path id="Caminho_14169" data-name="Caminho 14169" d="M497.311,105.248a1.951,1.951,0,0,1-1.9-2.138,1.917,1.917,0,1,1,1.9,2.138m3.888-2.138a3.7,3.7,0,0,0-1.13-2.7,3.946,3.946,0,0,0-5.507,0,3.763,3.763,0,0,0,.275,5.639,3.94,3.94,0,0,0,5.232-.244,3.709,3.709,0,0,0,1.13-2.7" transform="translate(1195.302 889.418)" fill="#fff" fill-rule="evenodd"/>
    <path id="Caminho_14170" data-name="Caminho 14170" d="M510.569,104.055h1.975a1.7,1.7,0,0,1-1.852,1.354c-1.171,0-1.914-.835-1.914-2.229s.753-2.219,1.914-2.219a1.836,1.836,0,0,1,1.557.835l1.721-.825A3.94,3.94,0,0,0,506.8,103.1a3.9,3.9,0,0,0,1.089,2.728,3.7,3.7,0,0,0,2.8,1.081c2.361,0,3.786-1.427,3.786-3.941,0-.142,0-.285-.01-.438h-3.9Z" transform="translate(1193.203 889.42)" fill="#fff" fill-rule="evenodd"/>
    <path id="Caminho_14171" data-name="Caminho 14171" d="M518.471,102.926v-1.914h.4c.824,0,1.2.244,1.2,1.008,0,.641-.4.905-1.232.905Zm-1.863,3.838h1.863v-2.85l1.669,2.85h2.239l-1.985-2.931a1.928,1.928,0,0,0,1.628-2.077,2.159,2.159,0,0,0-.814-1.781,3.741,3.741,0,0,0-2.4-.489h-2.2Z" transform="translate(1191.664 889.389)" fill="#fff" fill-rule="evenodd"/>
    <path id="Caminho_14172" data-name="Caminho 14172" d="M522.6,106.763h1.976l.377-1.3h2.819l.367,1.3h1.974L527.6,99.485h-2.484Zm2.78-2.718.733-2.4c.031-.111.122-.438.255-.977q.2.809.245.977l.743,2.4Z" transform="translate(1190.724 889.389)" fill="#fff" fill-rule="evenodd"/>
    <path id="Caminho_14173" data-name="Caminho 14173" d="M531.6,106.763h1.914V103.17a11.959,11.959,0,0,0-.112-1.435,10.321,10.321,0,0,0,.662,1.272l2.748,3.756h1.9V99.485h-1.9v3.593a11.984,11.984,0,0,0,.112,1.436,11.04,11.04,0,0,0-.662-1.283l-2.748-3.746H531.6Z" transform="translate(1189.312 889.389)" fill="#fff" fill-rule="evenodd"/>
    <path id="Caminho_14174" data-name="Caminho 14174" d="M543.112,105.135v-4.021h.336c1.5,0,2.239.57,2.239,2.016,0,1.425-.723,2-2.239,2Zm-1.964,1.629h2.026a5.049,5.049,0,0,0,3.124-.682,3.8,3.8,0,0,0,0-5.9,5.561,5.561,0,0,0-3.4-.692h-1.751Z" transform="translate(1187.813 889.389)" fill="#fff" fill-rule="evenodd"/>
    <path id="Caminho_14175" data-name="Caminho 14175" d="M549.662,106.763h4.458v-1.629H551.6V103.9h2.383v-1.557H551.6v-1.262h2.524v-1.6h-4.458Z" transform="translate(1186.477 889.389)" fill="#fff" fill-rule="evenodd"/>
    <path id="Caminho_14176" data-name="Caminho 14176" d="M561.516,105.135v-4.021h.336c1.5,0,2.239.57,2.239,2.016,0,1.425-.723,2-2.239,2Zm-1.964,1.629h2.026a5.053,5.053,0,0,0,3.125-.682,3.8,3.8,0,0,0,0-5.9,5.564,5.564,0,0,0-3.4-.692h-1.751Z" transform="translate(1184.926 889.389)" fill="#fff" fill-rule="evenodd"/>
    <path id="Caminho_14177" data-name="Caminho 14177" d="M571.593,105.248a1.951,1.951,0,0,1-1.9-2.138,1.917,1.917,0,1,1,1.9,2.138m3.888-2.138a3.7,3.7,0,0,0-1.13-2.7,3.946,3.946,0,0,0-5.507,0,3.763,3.763,0,0,0,.275,5.639,3.94,3.94,0,0,0,5.232-.244,3.71,3.71,0,0,0,1.13-2.7" transform="translate(1183.646 889.418)" fill="#fff" fill-rule="evenodd"/>
    <path id="Caminho_14178" data-name="Caminho 14178" d="M581.666,104.38l-.9,1.476a3.5,3.5,0,0,0,2.586,1.071,2.53,2.53,0,0,0,2.79-2.567c0-1.344-.713-1.822-2.006-2.168-.662-.173-1.16-.285-1.16-.8,0-.346.315-.61.8-.61a2.207,2.207,0,0,1,1.4.58l.62-1.425a3.673,3.673,0,0,0-2.158-.652,2.33,2.33,0,0,0-2.514,2.361c0,1.14.641,1.669,1.954,2.016.824.213,1.222.387,1.222.967a.8.8,0,0,1-.906.753,2.393,2.393,0,0,1-1.731-1" transform="translate(1181.596 889.42)" fill="#fff" fill-rule="evenodd"/>
    <path id="Caminho_14179" data-name="Caminho 14179" d="M587.678,99.485v3.93a3.777,3.777,0,0,0,.631,2.657,3.266,3.266,0,0,0,2.606.887c2.31,0,3.237-.948,3.237-3.147V99.485h-1.975v3.491c0,1.558-.052,2.311-1.262,2.311-1.029,0-1.263-.56-1.263-1.852v-3.95Z" transform="translate(1180.512 889.389)" fill="#fff" fill-rule="evenodd"/>
    <path id="Caminho_14180" data-name="Caminho 14180" d="M596.409,106.763h4.448v-1.7h-2.464V99.485h-1.985Z" transform="translate(1179.142 889.389)" fill="#fff" fill-rule="evenodd"/>
  </g>
</svg>
