<svg xmlns="http://www.w3.org/2000/svg" width="150" height="150" viewBox="0 0 150 150">
  <g id="Grupo_3800" data-name="Grupo 3800" transform="translate(5208 11184)">
    <circle id="Elipse_245" data-name="Elipse 245" cx="75" cy="75" r="75" transform="translate(-5208 -11184)" fill="#f2f2f2"/>
    <path id="Caminho_14913" data-name="Caminho 14913" d="M2769.689,1426.613a1.847,1.847,0,0,1,1.9-1.074q35.928.023,71.855.013a5.548,5.548,0,0,1,.664.023,1.452,1.452,0,0,1,.185,2.851,4.107,4.107,0,0,1-.951.08q-35.817,0-71.634.017a2.119,2.119,0,0,1-2.021-1.023Zm22.67-11.834c-.376-.357-.354-.57-.024-.94a25.24,25.24,0,0,0,3.152-4.449,1.705,1.705,0,0,0,.3-1.186,1.423,1.423,0,0,0-1.211-1.229,1.44,1.44,0,0,0-1.586.825,25.72,25.72,0,0,1-3.973,5.3,1.552,1.552,0,0,0,.052,2.543q2.373,2.383,4.757,4.756a1.559,1.559,0,0,0,2.547-.01,30.2,30.2,0,0,0,5.246-6.738c3.917-6.828,5.327-14.266,5.31-22.042,0-1.677-.02-1.639,1.629-1.689.66-.02.739.215.737.79-.021,5.692-.015,11.384-.01,17.076a16.259,16.259,0,0,0,.143,2.431,13,13,0,0,0,24.013,4.57,1.528,1.528,0,0,0-.661-2.448q-2.958-1.658-5.926-3.3a1.525,1.525,0,0,0-2.331.541,2.634,2.634,0,0,1-4.885-1.54c-.005-5.84,0-11.68-.015-17.52,0-.5.152-.6.616-.594,3.154.02,6.308.012,9.462.009,1.329,0,1.84-.5,1.844-1.821.008-2.193,0-4.386,0-6.579,0-1.485-.465-1.949-1.933-1.95-10.2,0-20.4-.025-30.6.009a21.324,21.324,0,0,0-17.13,8.27c-.889,1.085-.791,1.843.313,2.674q2.567,1.932,5.142,3.852c1.243.932,1.817.862,2.8-.325a11.3,11.3,0,0,1,5.781-3.765c.5-.141.7-.094.672.493-.081,1.55-.106,3.1-.17,4.653a1.456,1.456,0,0,0,.937,1.588c1.021.4,1.943-.287,2.019-1.545.131-2.189.2-4.381.151-6.575-.034-1.49-.678-2.042-2.144-1.875a13.967,13.967,0,0,0-8.6,4.136c-.3.3-.48.269-.782.032-.851-.669-1.7-1.345-2.6-1.943-.517-.343-.411-.538-.048-.906a18.5,18.5,0,0,1,13.591-5.811c7.565-.017,15.13,0,22.695,0,2.144,0,4.287.01,6.431-.009.406,0,.55.09.538.522-.031,1.083-.044,2.17,0,3.252.025.553-.124.691-.68.685-3.179-.03-6.357-.018-9.536-.013-1.147,0-1.7.528-1.705,1.65-.006,6.554-.017,13.109.008,19.664a5.168,5.168,0,0,0,3.3,4.987,5.289,5.289,0,0,0,5.928-.842.584.584,0,0,1,.813-.1c.994.587,2.007,1.145,3.028,1.683.369.195.448.321.141.674a9.428,9.428,0,0,1-9.045,3.384c-5.344-.858-8.6-4.81-8.608-10.234q-.011-9.5,0-19c0-1.359-.521-1.871-1.881-1.873q-2.255,0-4.509,0c-1.454,0-1.972.508-1.933,1.953q.086,3.18-.079,6.355a37.666,37.666,0,0,1-2.957,13.321,31.709,31.709,0,0,1-5.841,8.865C2794.133,1416.557,2793.271,1415.642,2792.359,1414.779Zm4.113,32.829a4.194,4.194,0,0,0,3.875-2.381,4.151,4.151,0,0,0-.236-4.535.684.684,0,0,1,0-.945,4.416,4.416,0,0,0-2.765-6.818,19.277,19.277,0,0,0-3.685-.1,1.482,1.482,0,1,0-.012,2.947c.887.011,1.774-.008,2.661.005a1.5,1.5,0,0,1,1.615,1.383,1.484,1.484,0,0,1-1.424,1.571c-.987.134-1.518.652-1.518,1.482s.527,1.344,1.519,1.48a1.479,1.479,0,1,1-.192,2.95c-.937.011-1.874-.018-2.809.012a1.472,1.472,0,1,0,.013,2.943c.542.019,1.084,0,1.626,0C2795.585,1447.61,2796.029,1447.618,2796.472,1447.608Zm26.6-13.139c0-.025,0-.049,0-.074a1.478,1.478,0,1,0-2.952-.015c-.018.664.014,1.33-.01,1.994-.029.777.342,1.846-.148,2.25-.474.389-1.5.082-2.286.123-.422.022-.537-.114-.528-.53.027-1.231.017-2.462.007-3.693-.008-1.041-.559-1.673-1.448-1.69-.91-.017-1.5.641-1.5,1.711q-.013,2.733,0,5.466a1.5,1.5,0,0,0,1.685,1.683c1.182.008,2.365.028,3.545-.01.521-.017.727.074.7.663-.056,1.154-.02,2.314-.016,3.471,0,1.129.577,1.805,1.5,1.79.9-.014,1.449-.67,1.451-1.763,0-1.871,0-3.742,0-5.614Zm-11.831.146c0-1.118-.586-1.8-1.506-1.785-.891.018-1.448.691-1.449,1.771q-.005,5.612,0,11.224c0,1.122.583,1.8,1.51,1.783.9-.018,1.443-.674,1.445-1.769,0-1.871,0-3.741,0-5.612S2811.245,1436.485,2811.241,1434.615Zm-6.96,12.988a1.48,1.48,0,0,0,1.459-1.455,1.507,1.507,0,0,0-1.506-1.49,1.459,1.459,0,0,0-1.438,1.463A1.432,1.432,0,0,0,2804.281,1447.6Zm-7.473-46.84a1.471,1.471,0,1,0,.046,2.94,1.471,1.471,0,0,0-.046-2.94Z" transform="translate(-7940.189 -12523.083)" fill="#384dc5" stroke="#384dc5" stroke-width="0.45"/>
  </g>
</svg>
