<svg xmlns="http://www.w3.org/2000/svg" width="43.343" height="43.343" viewBox="0 0 43.343 43.343">
  <path id="linkedin_1_" data-name="linkedin (1)" d="M39.422,0H3.921A3.921,3.921,0,0,0,0,3.921v35.5a3.921,3.921,0,0,0,3.921,3.921h35.5a3.921,3.921,0,0,0,3.921-3.921V3.921A3.921,3.921,0,0,0,39.422,0ZM13.412,37.425a1.141,1.141,0,0,1-1.141,1.141H7.414a1.141,1.141,0,0,1-1.141-1.141V17.065a1.141,1.141,0,0,1,1.141-1.141h4.857a1.141,1.141,0,0,1,1.141,1.141ZM9.843,14.005a4.614,4.614,0,1,1,4.614-4.614A4.614,4.614,0,0,1,9.843,14.005ZM38.794,37.517a1.049,1.049,0,0,1-1.049,1.049H32.533a1.049,1.049,0,0,1-1.049-1.049v-9.55c0-1.425.418-6.243-3.723-6.243-3.212,0-3.864,3.3-3.994,4.778V37.517a1.049,1.049,0,0,1-1.049,1.049H17.677a1.049,1.049,0,0,1-1.049-1.049V16.973a1.049,1.049,0,0,1,1.049-1.049h5.041a1.049,1.049,0,0,1,1.049,1.049V18.75c1.191-1.787,2.961-3.167,6.73-3.167,8.345,0,8.3,7.8,8.3,12.081v9.854Z" fill="#212529"/>
</svg>
