<svg id="Componente_138_1" data-name="Componente 138 – 1" xmlns="http://www.w3.org/2000/svg" width="21.67" height="21.674" viewBox="0 0 21.67 21.674">
  <path id="Caminho_1470" data-name="Caminho 1470" d="M1290.5,803.071a3.611,3.611,0,1,0,3.611,3.611A3.611,3.611,0,0,0,1290.5,803.071Z" transform="translate(-1279.66 -795.842)" fill="#fff"/>
  <g id="Componente_137_1" data-name="Componente 137 – 1">
    <path id="Caminho_1471" data-name="Caminho 1471" d="M1293.766,794.707a7.912,7.912,0,0,0-.5-2.63,5.553,5.553,0,0,0-3.172-3.171,7.939,7.939,0,0,0-2.63-.5c-1.159-.055-1.528-.068-4.471-.068s-3.309.013-4.467.064a7.926,7.926,0,0,0-2.629.5,5.553,5.553,0,0,0-3.172,3.171,7.924,7.924,0,0,0-.5,2.629c-.055,1.16-.067,1.529-.067,4.472s.012,3.311.063,4.467a7.905,7.905,0,0,0,.5,2.629,5.551,5.551,0,0,0,3.171,3.171,7.945,7.945,0,0,0,2.63.5c1.156.049,1.524.063,4.467.063s3.311-.013,4.467-.063a7.918,7.918,0,0,0,2.629-.5,5.544,5.544,0,0,0,3.171-3.171,7.963,7.963,0,0,0,.5-2.63c.048-1.156.063-1.524.063-4.467S1293.817,795.864,1293.766,794.707Zm-10.775,10.034a5.567,5.567,0,1,1,5.567-5.568A5.567,5.567,0,0,1,1282.991,804.741Zm5.788-10.055a1.3,1.3,0,1,1,1.3-1.3A1.3,1.3,0,0,1,1288.779,794.686Z" transform="translate(-1272.152 -788.335)" fill="#fff"/>
  </g>
</svg>
