<svg id="play-button" xmlns="http://www.w3.org/2000/svg" width="263.414" height="263.414" viewBox="0 0 263.414 263.414">
  <g id="Grupo_118" data-name="Grupo 118">
    <g id="Grupo_117" data-name="Grupo 117">
      <path id="Caminho_92" data-name="Caminho 92" d="M131.707,0C59.079,0,0,59.085,0,131.707S59.079,263.414,131.707,263.414s131.707-59.085,131.707-131.707S204.334,0,131.707,0Zm0,252.438A120.731,120.731,0,1,1,252.438,131.707,120.868,120.868,0,0,1,131.707,252.438Z" fill="#fff"/>
      <path id="Caminho_93" data-name="Caminho 93" d="M277.286,199.6l-76.829-49.39A5.488,5.488,0,0,0,192,154.82V253.6a5.487,5.487,0,0,0,8.457,4.614l76.829-49.39a5.486,5.486,0,0,0,0-9.229Zm-74.31,43.95V164.874l61.191,39.336Z" transform="translate(-93.22 -72.503)" fill="#fff"/>
    </g>
  </g>
</svg>
