<svg id="Grupo_5287" data-name="Grupo 5287" xmlns="http://www.w3.org/2000/svg" xmlns:xlink="http://www.w3.org/1999/xlink" width="87.813" height="87.813" viewBox="0 0 87.813 87.813">
  <defs>
    <clipPath id="clip-path">
      <rect id="Retângulo_1243" data-name="Retângulo 1243" width="87.813" height="87.813" fill="#303678"/>
    </clipPath>
  </defs>
  <g id="Grupo_5286" data-name="Grupo 5286" clip-path="url(#clip-path)">
    <path id="Caminho_17275" data-name="Caminho 17275" d="M.155,102.691.08,102.66l-.08.008v-.858a.882.882,0,0,1,.155.881" transform="translate(0 -78.479)" fill="#303678"/>
    <path id="Caminho_17276" data-name="Caminho 17276" d="M130.4,283.353a33.9,33.9,0,0,1-18.425-4.984,1.885,1.885,0,0,1-1.127-1.852,1.72,1.72,0,0,1,2.8-1.144,31.251,31.251,0,0,0,6.07,2.926,29.326,29.326,0,0,0,32.109-8.9,8.755,8.755,0,0,1,.74-.831,1.647,1.647,0,0,1,2.192-.1,1.7,1.7,0,0,1,.416,2.227,4.158,4.158,0,0,1-.413.545c-6.611,7.94-15.125,11.884-24.362,12.115" transform="translate(-85.434 -206.661)" fill="#303678"/>
    <path id="Caminho_17277" data-name="Caminho 17277" d="M138.481,48.586a32.653,32.653,0,0,1,23.487,9.89A2.166,2.166,0,0,1,162.7,59.6a1.7,1.7,0,0,1-2.836,1.608c-.914-.862-1.789-1.764-2.77-2.555a28.894,28.894,0,0,0-21.288-6.493,28.583,28.583,0,0,0-10.3,2.9,1.945,1.945,0,0,1-1.8.131,1.616,1.616,0,0,1-.96-1.5,1.7,1.7,0,0,1,1.058-1.622,32.443,32.443,0,0,1,8.8-2.952,31.84,31.84,0,0,1,5.885-.536" transform="translate(-94.612 -37.451)" fill="#303678"/>
    <path id="Caminho_17278" data-name="Caminho 17278" d="M91.789,281.774a1.657,1.657,0,0,1-1.7,1.655,1.8,1.8,0,0,1-1.765-1.814,1.72,1.72,0,0,1,1.714-1.663,1.786,1.786,0,0,1,1.75,1.823" transform="translate(-68.084 -215.798)" fill="#303678"/>
    <path id="Caminho_17279" data-name="Caminho 17279" d="M22.963,1.526a1.708,1.708,0,0,0-3.393-.007,6.833,6.833,0,0,0-.018.856q0,7.76-.006,15.52c0,.762.332,1.8-.137,2.209-.449.387-1.465.08-2.224.153-.624.059-.737-.171-.734-.754.026-4.258.014-8.517.014-12.776,0-1.658.019-3.316-.009-4.973A1.7,1.7,0,0,0,14.724.013a1.717,1.717,0,0,0-1.685,1.7c-.014.228,0,.457,0,.686,0,5.173.006,10.347-.008,15.52,0,.759.335,1.772-.153,2.206-.42.373-1.416.06-2.149.129-.639.06-.8-.135-.794-.782.029-5.716.017-11.433.016-17.149a5.754,5.754,0,0,0-.024-.856,1.709,1.709,0,0,0-3.383.019,6.123,6.123,0,0,0-.021.856c0,5.688-.01,11.376.012,17.063,0,.625-.092.947-.81.849a6.256,6.256,0,0,0-1.455,0c-.633.063-.866-.1-.855-.807.047-3,.02-6,.02-9q0-4.2,0-8.4A1.8,1.8,0,0,0,2.144.063C1.353-.154.676.2.125,1.1a.52.52,0,0,1-.125.1V23.332c.182.324.046.676.088,1.012a9.2,9.2,0,0,0,4.694,7.349,2.46,2.46,0,0,1,1.325,2.4Q6.056,58.14,6.086,82.183c0,3.137,1.4,4.922,4.375,5.632h1.886c3.385-1.265,4.287-2.584,4.287-6.266V67.572q0-17.235,0-34.47c0-.408-.075-.771.451-1.048a10.411,10.411,0,0,0,5.893-9.865q0-9.946,0-19.893a6.165,6.165,0,0,0-.017-.771m-3.7,23.094a7.077,7.077,0,0,1-4.408,4.687c-1.405.539-1.647.861-1.647,2.4q0,25.124,0,50.248c0,1.614-.6,2.444-1.744,2.424-1.121-.019-1.686-.82-1.686-2.4V31.735c0-1.6-.209-1.853-1.7-2.448A7.123,7.123,0,0,1,3.5,23.675H9.932c2.887,0,5.775.041,8.66-.024.921-.021.886.286.668.969" transform="translate(0 -0.001)" fill="#303678"/>
    <path id="Caminho_17280" data-name="Caminho 17280" d="M327.759.214a1.773,1.773,0,0,0-1.994.278c-8.277,5.954-12.8,14.025-13.128,24.205-.247,7.766-.066,15.546-.044,23.32a8.471,8.471,0,0,0,2.417,5.96c.884.933,1.781,1.859,2.724,2.73a1.988,1.988,0,0,1,.694,1.625q-.038,12-.015,24.008a5.141,5.141,0,0,0,3.845,5.317,1.305,1.305,0,0,1,.27.168h1.886c.036-.04.065-.105.108-.117a5.078,5.078,0,0,0,4.178-5.291q0-40.17.008-80.339a1.87,1.87,0,0,0-.948-1.864m-2.5,82.629a1.708,1.708,0,0,1-3.4-.011,8.146,8.146,0,0,1-.013-.857c0-8.23-.01-16.461.014-24.692a2.771,2.771,0,0,0-.9-2.2c-1.083-1.017-2.1-2.1-3.163-3.141a5.758,5.758,0,0,1-1.784-4.3c.013-7.345-.045-14.69.019-22.034a26.633,26.633,0,0,1,8.825-20c.1-.09.2-.175.422-.371V6.282q0,37.852,0,75.7a7.622,7.622,0,0,1-.015.857" transform="translate(-240.894 -0.012)" fill="#303678"/>
    <path id="Caminho_17281" data-name="Caminho 17281" d="M109.687,85.348a24.352,24.352,0,1,0,24.336,24.367,24.388,24.388,0,0,0-24.336-24.367m-.029,45.274a20.922,20.922,0,1,1,20.935-20.912,20.96,20.96,0,0,1-20.935,20.912" transform="translate(-65.768 -65.79)" fill="#303678"/>
    <path id="Caminho_17282" data-name="Caminho 17282" d="M122.8,141.818c.525-6.347,3.537-11.012,9.334-13.783a1.721,1.721,0,1,1,1.42,3.106,12.238,12.238,0,0,0-7.078,8.881,13.73,13.73,0,0,0-.241,2.123c-.069,1.251-.717,2.009-1.758,1.986s-1.695-.829-1.678-2.057c0-.085,0-.171,0-.257" transform="translate(-94.655 -98.511)" fill="#303678"/>
    <path id="Caminho_17283" data-name="Caminho 17283" d="M185.6,126.23a1.683,1.683,0,0,1-1.735-1.705,1.7,1.7,0,0,1,1.73-1.719,1.737,1.737,0,0,1,1.748,1.715,1.711,1.711,0,0,1-1.744,1.709" transform="translate(-141.732 -94.663)" fill="#303678"/>
  </g>
</svg>
