<svg id="Grupo_5661" data-name="Grupo 5661" xmlns="http://www.w3.org/2000/svg" xmlns:xlink="http://www.w3.org/1999/xlink" width="93.88" height="88" viewBox="0 0 93.88 88">
  <defs>
    <clipPath id="clip-path">
      <rect id="Retângulo_1274" data-name="Retângulo 1274" width="93.88" height="88" fill="#303678" stroke="#303678" stroke-width="0.7"/>
    </clipPath>
  </defs>
  <g id="Grupo_5660" data-name="Grupo 5660" clip-path="url(#clip-path)">
    <path id="Caminho_17307" data-name="Caminho 17307" d="M343.545,193.655a2.2,2.2,0,0,1-2.349,1.478c-4.919-.027-9.838-.012-14.757-.009a2.864,2.864,0,0,1-1.171-.163,1.8,1.8,0,0,1,0-3.345,2.905,2.905,0,0,1,1.171-.163c4.919,0,9.838.017,14.757-.01a2.2,2.2,0,0,1,2.349,1.478Z" transform="translate(-249.665 -147.461)" fill="#303678" stroke="#303678" stroke-width="0.7"/>
    <path id="Caminho_17308" data-name="Caminho 17308" d="M9.667,195.153q-3.8,0-7.6,0a1.913,1.913,0,0,1-1.876-1.061,1.694,1.694,0,0,1,.217-1.89,1.918,1.918,0,0,1,1.61-.716c5.126,0,10.252-.01,15.377.006a1.839,1.839,0,1,1-.042,3.655c-2.563.018-5.126.006-7.689.006" transform="translate(0 -147.492)" fill="#303678" stroke="#303678" stroke-width="0.7"/>
    <path id="Caminho_17309" data-name="Caminho 17309" d="M62.752,56.1a2.3,2.3,0,0,1,1.489.709q4.987,4.986,9.968,9.976a1.851,1.851,0,1,1-2.6,2.582q-5-4.969-9.975-9.969a1.887,1.887,0,0,1-.519-2.24A1.807,1.807,0,0,1,62.752,56.1" transform="translate(-46.938 -43.213)" fill="#303678" stroke="#303678" stroke-width="0.7"/>
    <path id="Caminho_17310" data-name="Caminho 17310" d="M288.521,70.152a1.83,1.83,0,0,1-1.564-2.669,3.5,3.5,0,0,1,.622-.784q4.849-4.864,9.709-9.718a2.269,2.269,0,0,1,1.747-.847,1.8,1.8,0,0,1,1.412,2.757,3.933,3.933,0,0,1-.575.7q-4.819,4.83-9.644,9.653a2.659,2.659,0,0,1-1.707.9" transform="translate(-220.871 -43.235)" fill="#303678" stroke="#303678" stroke-width="0.7"/>
    <path id="Caminho_17311" data-name="Caminho 17311" d="M199.976,9.224c0,2.288.006,4.576,0,6.864-.005,1.375-.762,2.259-1.875,2.226-1.087-.033-1.786-.883-1.787-2.223q-.009-6.955,0-13.91c0-1.321.74-2.178,1.829-2.18s1.826.856,1.832,2.177c.011,2.349,0,4.7,0,7.047" transform="translate(-151.207 -0.001)" fill="#303678" stroke="#303678" stroke-width="0.7"/>
    <path id="Caminho_17312" data-name="Caminho 17312" d="M122.316,177.265a5.488,5.488,0,0,0-2.481-4.742,6.625,6.625,0,0,0-4.4-.9c-.688.051-.866-.221-.972-.821-1.9-10.751-3.838-21.494-5.714-32.249A12.9,12.9,0,0,0,95.918,127.6q-8.432-.041-16.865,0a12.893,12.893,0,0,0-12.841,10.939c-1.821,10.424-3.693,20.838-5.548,31.256-.32,1.8-.329,1.794-2.136,1.8a5.549,5.549,0,0,0-5.887,5.926c-.007,2.047,0,4.094,0,6.141s.55,2.6,2.618,2.6H87.429q16.269,0,32.539,0c1.691,0,2.347-.648,2.352-2.315.006-2.23.017-4.46,0-6.691m-58.105-6.68q2.842-15.712,5.648-31.431a9.171,9.171,0,0,1,9.427-7.885c5.287-.015,10.574,0,15.86,0,5.7,0,9.135,2.985,10.119,8.625,1.777,10.186,3.624,20.36,5.44,30.539.064.36.111.723.179,1.175h-1q-22.415,0-44.831.024c-.921,0-.981-.28-.843-1.042m53.609,12.036q-15.164-.035-30.329-.016c-10.079,0-20.158-.013-30.237.023-.839,0-1-.234-.966-1,.065-1.31.016-2.625.019-3.939,0-1.79.631-2.415,2.437-2.415H106.39q4.948,0,9.9,0c1.732,0,2.362.643,2.367,2.393,0,1.374-.045,2.751.02,4.122.033.705-.185.836-.853.835" transform="translate(-40.544 -98.272)" fill="#303678" stroke="#303678" stroke-width="0.7"/>
    <path id="Caminho_17313" data-name="Caminho 17313" d="M264.771,239.269a1.866,1.866,0,0,1-1.628,2.095,1.919,1.919,0,0,1-2.03-1.814c-.382-2.035-.741-4.074-1.111-6.111q-.717-3.954-1.433-7.909a2.069,2.069,0,0,1,.507-2.109,1.73,1.73,0,0,1,1.782-.386,1.958,1.958,0,0,1,1.308,1.716q.453,2.424.89,4.851.827,4.538,1.648,9.077c.043.239.056.484.067.59" transform="translate(-199.106 -171.72)" fill="#303678" stroke="#303678" stroke-width="0.7"/>
    <path id="Caminho_17314" data-name="Caminho 17314" d="M255.882,193.349a1.823,1.823,0,1,1-1.815-1.807,1.884,1.884,0,0,1,1.815,1.807" transform="translate(-194.287 -147.537)" fill="#303678" stroke="#303678" stroke-width="0.7"/>
  </g>
</svg>
