<svg xmlns="http://www.w3.org/2000/svg" width="60.791" height="137.275" viewBox="0 0 60.791 137.275">
  <g id="Grupo_6102" data-name="Grupo 6102" transform="translate(-930 -908.851)">
    <path id="background_42_" d="M2.837,39.616c1.776,4.262,7.458,6.748,11.9,5.86a3.6,3.6,0,0,0,.888-.266,117.736,117.736,0,0,1,22.641-2.575c12.963-.178,18.024,1.953,20.51,3.2a35.117,35.117,0,0,1,7.814,5.5h0c7.192,7.014,15.449,10.566,23,9.145A19.327,19.327,0,0,0,96.51,57.64a2.325,2.325,0,0,1,1.865-.355,87.612,87.612,0,0,0,10.388,1.687c10.3.888,21.4,1.953,26.1-4.439a12.782,12.782,0,0,0,1.065-13.141c-1.6-2.93-4.439-4.44-7.281-6.038a29.187,29.187,0,0,0-7.281-2.841,60.975,60.975,0,0,0-.71-14.917C119.6,11.2,118.974,7.208,116.133,4.189s-7.281-4.528-19.179-4A134.572,134.572,0,0,0,67.032,4.81,114.038,114.038,0,0,0,45.9.637,121,121,0,0,0,10.828,2.147a10.518,10.518,0,0,0-7.814,6.57C.706,14.843-1.6,24.61,1.5,35.443A23.076,23.076,0,0,0,2.837,39.616Z" transform="translate(990.791 908.851) rotate(90)" fill="#fff"/>
    <g id="color_42_" transform="translate(980.831 919.235) rotate(90)" opacity="0.66">
      <g id="Grupo_5846" data-name="Grupo 5846" transform="translate(0 0.637)" opacity="0.66">
        <path id="Caminho_17594" data-name="Caminho 17594" d="M53.274,15.523A22.693,22.693,0,0,1,62.863,1.938a37.686,37.686,0,0,0-3.64.977l-.8.266a8.209,8.209,0,0,1-4.617.266A128.518,128.518,0,0,0,28.857.074,119.353,119.353,0,0,0,3.285,1.938a2.082,2.082,0,0,0-.977.178C.622,2.826.178,5.579,0,8.42c18.024-5.771,35.338-2.93,44.306,7.814a27.245,27.245,0,0,1,4.706,8.346c1.6.444,3.108.977,4.528,1.421A21.269,21.269,0,0,1,53.274,15.523Z" transform="translate(0 0)" fill="#13b7eb"/>
      </g>
      <g id="Grupo_5847" data-name="Grupo 5847" transform="translate(66.06 0)" opacity="0.66">
        <path id="Caminho_17595" data-name="Caminho 17595" d="M8.435,9.234c-1.243,1.154-2.575,1.243-4.883,3.108A18.973,18.973,0,0,0,0,16.249a4.925,4.925,0,0,1,.71-.533,2.681,2.681,0,0,1,1.776.355A24.812,24.812,0,0,1,5.771,18.2c.444.355.977.888,1.6,1.509a.8.8,0,0,0,1.243-.178,21.1,21.1,0,0,1,3.463-4.706,26.478,26.478,0,0,1,2.486-2.22,4.731,4.731,0,0,1,0-3.019,3.282,3.282,0,0,1,.444-.977,1.222,1.222,0,0,0-.178-1.421A5.3,5.3,0,0,1,13.319,3.64,5.315,5.315,0,0,1,14.828,0C13.5.089,12.075.178,10.655.266,10.921,5.683,9.767,7.991,8.435,9.234Z" transform="translate(0 0)" fill="#13b7eb"/>
      </g>
      <g id="Grupo_5848" data-name="Grupo 5848" transform="translate(84.35 10.3)" opacity="0.66">
        <path id="Caminho_17596" data-name="Caminho 17596" d="M3.552,0C2.486.266,1.332.622,0,1.065A5.565,5.565,0,0,1,4.262,2.841L3.729.977A3.776,3.776,0,0,1,3.552,0Z" transform="translate(0 0)" fill="#13b7eb"/>
      </g>
      <g id="Grupo_5849" data-name="Grupo 5849" transform="translate(82.597 1.243)" opacity="0.66">
        <path id="Caminho_17597" data-name="Caminho 17597" d="M.332,1.509A3,3,0,0,0,.155,3.818a3.533,3.533,0,0,0,2.4,1.953,12.6,12.6,0,0,1,1.953-.444A38.015,38.015,0,0,1,4.062,0C1.132.355.6.977.332,1.509Z" transform="translate(0 0)" fill="#13b7eb"/>
      </g>
      <g id="Grupo_5850" data-name="Grupo 5850" transform="translate(89.323 20.51)" opacity="0.66">
        <path id="Caminho_17598" data-name="Caminho 17598" d="M.266.178c0,.977,0,1.953-.089,3.019A17.242,17.242,0,0,1,0,5.327a23.933,23.933,0,0,1,2.486.355A27.819,27.819,0,0,0,2.131,0,16.267,16.267,0,0,1,.266.178Z" transform="translate(0 0)" fill="#13b7eb"/>
      </g>
      <g id="Grupo_5851" data-name="Grupo 5851" transform="translate(85.949 30.189)" opacity="0.66">
        <path id="Caminho_17599" data-name="Caminho 17599" d="M2.752,0c-.178.71-.444,1.509-.71,2.309C1.421,4.173.71,5.949,0,7.547c.888.089,1.687.266,2.486.355A28.5,28.5,0,0,0,5.327.444C4.528.266,3.64.178,2.752,0Z" transform="translate(0 0)" fill="#13b7eb"/>
      </g>
    </g>
    <g id="line_56_" transform="translate(984.055 915.732) rotate(90)">
      <path id="Caminho_17600" data-name="Caminho 17600" d="M1.638,28.441c-1.687-6.127-2.4-18.823-.533-22.73A5.682,5.682,0,0,1,2.615,3.757a4.326,4.326,0,0,1,1.953-.8A138.346,138.346,0,0,1,30.761.383,100.485,100.485,0,0,1,53.047,2.6c2.22.533,4.084.977,5.594,1.421a3.967,3.967,0,0,0,2.486,0c1.243-.355,2.93-.8,4.795-1.332C74.535.561,81.371.472,94.69.028c2.4-.089,5.594-.089,7.636,1.953,2.131,2.131,2.042,5.5,2.042,5.86a5.34,5.34,0,0,1-.266,1.776,1.856,1.856,0,0,0,.355,1.509,7.608,7.608,0,0,1,2.131,4.883,7.874,7.874,0,0,1-.977,4.351,1.649,1.649,0,0,0,.089,1.687,8.087,8.087,0,0,1,1.421,4.972,8.83,8.83,0,0,1-1.332,4.262c.71.178,2.309.444,3.729.8,8.524,2.22,10.122,2.309,11.631,4.528,1.154,1.687,1.065,5.15.444,6.482-3.019,7.192-26.992,2.22-34.45.977a10.881,10.881,0,0,1-5.949,3.108c-8.257,1.509-16.6-6.926-20.51-10.921a10.641,10.641,0,0,1-.977-1.065,4.411,4.411,0,0,0-1.687-1.154c-1.776-.71-4.084-1.509-6.659-2.309a78.936,78.936,0,0,0-18.468-3.374A73.8,73.8,0,0,0,7.853,31.46a5.858,5.858,0,0,1-.977.355,5.219,5.219,0,0,1-4.795-2.309A4.245,4.245,0,0,0,1.638,28.441Zm93.141,5.416a26.027,26.027,0,0,1-2.575-.444c-.178.71-.444,1.509-.71,2.309-.622,1.865-1.332,3.64-2.042,5.239.888.089,1.687.266,2.486.355,4.795.622,8.879,1.065,12.075,1.332,8.524.71,13.5.622,14.3-1.421a3.409,3.409,0,0,0,.089-1.687c-.444-1.243-2.131-1.776-3.108-2.042C112.625,36.787,104.989,35.455,94.779,33.857Zm7.636-9.589c-.266-.266-.977-.8-5.416-.622-.71,0-1.421.089-1.953.089a16.267,16.267,0,0,1-1.865.178c0,.977,0,1.953-.089,3.019a17.242,17.242,0,0,1-.178,2.131,23.934,23.934,0,0,1,2.486.355c2.131.266,4.351.533,6.482.8a4.743,4.743,0,0,0,1.243-2.042C103.391,27.02,103.391,25.244,102.415,24.268ZM98.952,12.9a21.108,21.108,0,0,0-7.547.71c-1.065.266-2.22.622-3.552,1.065a5.565,5.565,0,0,1,4.262,1.776,1.226,1.226,0,0,1,.266.355,5.685,5.685,0,0,1,1.065,3.64,12.049,12.049,0,0,0,1.6-.089c3.729-.178,5.594-.266,6.482-1.154a4.164,4.164,0,0,0,.533-5.061A4.437,4.437,0,0,0,98.952,12.9ZM91.937,4.2c-.71.089-1.243.089-1.776.178-2.93.444-3.463,1.065-3.729,1.509A3,3,0,0,0,86.255,8.2a3.533,3.533,0,0,0,2.4,1.953,12.6,12.6,0,0,1,1.953-.444,29.291,29.291,0,0,1,5.15-.444c1.154,0,2.309.089,3.285.178a3.594,3.594,0,0,0,1.065-2.486,3.442,3.442,0,0,0-.533-1.865C98.6,3.668,96.11,3.846,91.937,4.2Zm-20.422.622c-1.687.266-3.374.533-5.15.888a37.687,37.687,0,0,0-3.64.977l-.8.266a8.209,8.209,0,0,1-4.617.266,136.519,136.519,0,0,0-24.95-3.285A119.353,119.353,0,0,0,6.788,5.8a2.082,2.082,0,0,0-.977.178c-1.687.71-2.131,3.463-2.309,6.3a39.987,39.987,0,0,0,.089,4.706A48.759,48.759,0,0,0,5.1,27.109a3.074,3.074,0,0,0,1.243,1.154,1.7,1.7,0,0,0,1.421-.089,84.729,84.729,0,0,1,24.95-2.93,79.527,79.527,0,0,1,19.8,3.2c1.6.444,3.108.977,4.528,1.421.178.089.355.089.533.178a11.389,11.389,0,0,1,4.262,2.752,42.557,42.557,0,0,0,7.014,5.949c5.061,3.552,8.257,5.771,11.72,4.883,4.084-.977,6.748-5.327,7.814-9.856.888-4.262.8-8.79.977-13.23a1.825,1.825,0,0,0-1.332-2.131,1.74,1.74,0,0,0-1.243.266c-4.351,2.664-5.771,8.169-5.771,8.169h0A1.877,1.877,0,0,1,78,27.819a62.44,62.44,0,0,0-7.547-5.594c-.266-.178-1.154-.622-1.243-1.421a1.707,1.707,0,0,1,.266-1.065c0-.089.089-.178.266-.355a4.924,4.924,0,0,1,.71-.533,2.681,2.681,0,0,1,1.776.355,24.812,24.812,0,0,1,3.285,2.131c.444.355.977.888,1.6,1.509a.8.8,0,0,0,1.243-.178,21.1,21.1,0,0,1,3.463-4.706,26.478,26.478,0,0,1,2.486-2.22,4.731,4.731,0,0,1,0-3.019,3.282,3.282,0,0,1,.444-.977,1.222,1.222,0,0,0-.178-1.421,5.3,5.3,0,0,1-1.509-3.552,5.315,5.315,0,0,1,1.509-3.64c-1.332.089-2.752.178-4.173.266C77.287,4.024,74.535,4.379,71.516,4.823Z" transform="translate(0 0)" fill="#2e527e"/>
    </g>
  </g>
</svg>
