<svg xmlns="http://www.w3.org/2000/svg" width="308.12" height="161.419" viewBox="0 0 308.12 161.419">
  <g id="Smile_with_frame" transform="translate(21.12 20.794)">
    <g id="Grupo_5880" data-name="Grupo 5880">
      <circle id="Elipse_67" data-name="Elipse 67" cx="57.07" cy="57.07" r="57.07" transform="translate(-21.12 59.916) rotate(-45)" fill="#f2d559"/>
      <path id="Caminho_17679" data-name="Caminho 17679" d="M59.59,119.5a59.59,59.59,0,1,1,59.59-59.59A59.655,59.655,0,0,1,59.59,119.5Zm0-114.14a54.545,54.545,0,1,1,0,.01Z" fill="#1a2e40"/>
      <ellipse id="Elipse_68" data-name="Elipse 68" cx="4.02" cy="6.7" rx="4.02" ry="6.7" transform="translate(43.69 43.91)" fill="#4b65fb"/>
      <ellipse id="Elipse_69" data-name="Elipse 69" cx="4.02" cy="6.7" rx="4.02" ry="6.7" transform="translate(67.46 43.91)" fill="#4b65fb"/>
      <path id="Caminho_17680" data-name="Caminho 17680" d="M59.59,78.75A30.644,30.644,0,0,1,30.2,57.17a2.84,2.84,0,1,1,5.42-1.7,25.123,25.123,0,0,0,47.94,0,2.84,2.84,0,1,1,5.42,1.7A30.653,30.653,0,0,1,59.59,78.75Z" fill="#4b65fb"/>
    </g>
    <g id="Grupo_5881" data-name="Grupo 5881">
      <circle id="Elipse_70" data-name="Elipse 70" cx="57.07" cy="57.07" r="57.07" transform="translate(62.631 59.916) rotate(-45)" fill="#4b65fb"/>
      <path id="Caminho_17681" data-name="Caminho 17681" d="M143.34,119.82a59.91,59.91,0,1,1,59.91-59.91A59.984,59.984,0,0,1,143.34,119.82Zm0-114.14a54.23,54.23,0,1,0,54.23,54.23A54.295,54.295,0,0,0,143.34,5.68Z" fill="#1a2e40"/>
      <ellipse id="Elipse_71" data-name="Elipse 71" cx="4.02" cy="6.7" rx="4.02" ry="6.7" transform="translate(127.44 43.91)" fill="#fff"/>
      <path id="Caminho_17682" data-name="Caminho 17682" d="M155.23,43.91c-2.22,0-4.02,3-4.02,6.7s1.8,6.7,4.02,6.7,4.02-3,4.02-6.7S157.45,43.91,155.23,43.91Z" fill="#fff"/>
      <path id="Caminho_17683" data-name="Caminho 17683" d="M143.34,78.75a30.644,30.644,0,0,1-29.39-21.58,2.84,2.84,0,1,1,5.42-1.7,25.123,25.123,0,0,0,47.94,0,2.84,2.84,0,1,1,5.42,1.7A30.653,30.653,0,0,1,143.34,78.75Z" fill="#fff"/>
    </g>
    <g id="Grupo_5882" data-name="Grupo 5882">
      <circle id="Elipse_72" data-name="Elipse 72" cx="57.07" cy="57.07" r="57.07" transform="translate(170.02 2.84)" fill="#db3298"/>
      <path id="Caminho_17684" data-name="Caminho 17684" d="M227.09,119.82A59.91,59.91,0,1,1,287,59.91,59.984,59.984,0,0,1,227.09,119.82Zm0-114.14a54.23,54.23,0,1,0,54.23,54.23A54.295,54.295,0,0,0,227.09,5.68Z" fill="#1a2e40"/>
      <ellipse id="Elipse_73" data-name="Elipse 73" cx="4.02" cy="6.7" rx="4.02" ry="6.7" transform="translate(211.19 43.91)" fill="#4b65fb"/>
      <ellipse id="Elipse_74" data-name="Elipse 74" cx="4.02" cy="6.7" rx="4.02" ry="6.7" transform="translate(234.95 43.91)" fill="#4b65fb"/>
      <path id="Caminho_17685" data-name="Caminho 17685" d="M227.09,78.75A30.644,30.644,0,0,1,197.7,57.17a2.84,2.84,0,1,1,5.42-1.7,25.123,25.123,0,0,0,47.94,0,2.84,2.84,0,1,1,5.42,1.7,30.653,30.653,0,0,1-29.39,21.58Z" fill="#4b65fb"/>
    </g>
  </g>
</svg>
