<svg id="Grupo_5289" data-name="Grupo 5289" xmlns="http://www.w3.org/2000/svg" xmlns:xlink="http://www.w3.org/1999/xlink" width="104.076" height="87.814" viewBox="0 0 104.076 87.814">
  <defs>
    <clipPath id="clip-path">
      <rect id="Retângulo_1244" data-name="Retângulo 1244" width="104.076" height="87.814" fill="#303678"/>
    </clipPath>
  </defs>
  <g id="Grupo_5288" data-name="Grupo 5288" clip-path="url(#clip-path)">
    <path id="Caminho_17284" data-name="Caminho 17284" d="M408.093,41.642a.5.5,0,0,0-.183.041q-.01-8.017-.019-16.035,0-7.257.007-14.513l.2.017Z" transform="translate(-304.016 -8.299)" fill="#303678"/>
    <path id="Caminho_17285" data-name="Caminho 17285" d="M152.447,254.626c-.71,0-1.42.017-2.129,0a1.53,1.53,0,0,1-1.687-1.4,1.5,1.5,0,0,1,1.524-1.554c1.484-.06,2.975-.063,4.459,0a1.424,1.424,0,0,1,1.512,1.545c-.035.846-.641,1.378-1.651,1.41-.675.022-1.352,0-2.028,0" transform="translate(-110.777 -187.544)" fill="#303678"/>
    <path id="Caminho_17286" data-name="Caminho 17286" d="M112.056,190.882a4.425,4.425,0,0,0-2.206-3.234c-3.859-2.38-7.537-5.031-11.317-7.531a17.869,17.869,0,0,0-9.668-3.236c-6.537-.112-13.075-.134-19.61.006a16.486,16.486,0,0,0-10.871,4.368,38.349,38.349,0,0,1-6.782,5.125,3.72,3.72,0,0,0-1.925,4.377,3.793,3.793,0,0,0,3.938,2.852c1.829.023,3.658.014,5.488,0,1.249-.008,1.875-.532,1.852-1.506-.022-.929-.626-1.412-1.831-1.42-1.761-.012-3.523,0-5.284,0-.559,0-1.13-.019-1.289-.708-.142-.614.272-.931.744-1.177a31.069,31.069,0,0,0,6.869-5.173,14.706,14.706,0,0,1,3.335-2.286c3.228-1.694,6.719-1.62,10.211-1.584.564.006.451.377.451.692,0,3.15-.013,6.3.016,9.451.006.615-.149.822-.789.8-1.387-.046-2.778-.033-4.165.007a1.324,1.324,0,0,0-1.407,1.412,1.347,1.347,0,0,0,1.349,1.471,9.232,9.232,0,0,0,1.015.026q9.705,0,19.41,0,8.536,0,17.073,0c1.084,0,2.17.036,3.251-.022a2.206,2.206,0,0,0,2.143-2.71m-34.2-.185c-.62,0-.71-.229-.706-.766.021-3.148.015-6.3,0-9.445,0-.449,0-.754.616-.738,3.957.1,7.919-.147,11.875.15a14.656,14.656,0,0,1,6.973,2.509c3.933,2.567,7.725,5.347,11.739,7.793a.47.47,0,0,1,.3.483q-15.438,0-30.8.014" transform="translate(-36.916 -131.769)" fill="#303678"/>
    <path id="Caminho_17287" data-name="Caminho 17287" d="M58.09,288.647a4.494,4.494,0,1,0,4.442,4.461,4.466,4.466,0,0,0-4.442-4.461m.039,5.988a1.491,1.491,0,0,1-1.571-1.491A1.538,1.538,0,0,1,58,291.6a1.623,1.623,0,0,1,1.6,1.511,1.549,1.549,0,0,1-1.47,1.522" transform="translate(-39.921 -215.139)" fill="#303678"/>
    <path id="Caminho_17288" data-name="Caminho 17288" d="M97.108,57.076a20.53,20.53,0,0,0-4.981-1.364c-1.319-.283-1.371-.328-1.372-1.661q-.005-8.027,0-16.053c0-1.493.019-1.509,1.546-1.513,2.743-.007,5.487.039,8.23-.018a3.25,3.25,0,0,0,3.442-3.33q0-14.6,0-29.2a2.391,2.391,0,0,0-.086-1.1A3.574,3.574,0,0,0,100.087.008Q91.348-.008,82.609,0C78.95,0,75.292-.007,71.634.01c-1.823.009-3.512,1.1-3.675,2.73a92.176,92.176,0,0,0-.092,12.172,1.234,1.234,0,0,0,1.4,1.18,1.391,1.391,0,0,0,1.45-1.283,4.878,4.878,0,0,0,.028-.912q0-4.725,0-9.451c0-1.4.069-1.468,1.513-1.468q13.668,0,27.336,0c1.422,0,1.472.054,1.472,1.495q0,13.668,0,27.336c0,1.454-.056,1.511-1.473,1.511H72.257c-1.419,0-1.512-.092-1.513-1.483,0-2.439.012-4.878-.007-7.316a1.531,1.531,0,0,0-1.491-1.707,1.579,1.579,0,0,0-1.47,1.634c-.017.2-.006.406-.006.609,0,2.27,0,4.539,0,6.809.007,3.015,1.389,4.389,4.418,4.392,3.252,0,6.5.009,9.755-.007.514,0,.791.049.789.692q-.037,8.282,0,16.564c0,.527-.161.621-.643.526A18.355,18.355,0,0,1,76.282,52c-4.149-2.428-8.032-5.261-12.008-7.951a23.539,23.539,0,0,0-13.545-4.161c-5.657.01-11.314-.005-16.97,0a22.122,22.122,0,0,0-15.866,6.124A22.614,22.614,0,0,1,5.887,52.1,6.851,6.851,0,0,0,.008,59.272c-.014,4.5.008,9.01-.008,13.515a4.632,4.632,0,0,0,2.978,4.622c1.576.693,3.136,1.424,4.728,2.076A1.616,1.616,0,0,1,8.735,80.71a9.777,9.777,0,0,0,18.493.917,1.265,1.265,0,0,1,1.448-.969q23.575.037,47.151,0a1.235,1.235,0,0,1,1.374.931,9.338,9.338,0,0,0,8.839,6.178A8.962,8.962,0,0,0,94.926,82.5a2.721,2.721,0,0,1,3.152-1.856,5.45,5.45,0,0,0,4.948-2.269,17.535,17.535,0,0,0,1.05-2.142V66.069a11.868,11.868,0,0,0-6.968-8.993M86.67,36.261c.487-.067.821-.007.814.659-.032,2.943-.014,5.886-.014,8.829,0,2.842.008,5.683-.014,8.524,0,.253.257.852-.323.713-.5-.12-1.306.187-1.465-.7a.584.584,0,0,1,0-.1q0-8.676,0-17.353c0-.841.606-.513,1.008-.568M18.143,84.833A6.846,6.846,0,1,1,25,77.908a6.863,6.863,0,0,1-6.852,6.926m68.147,0a6.849,6.849,0,1,1,6.843-6.911,6.811,6.811,0,0,1-6.843,6.911m14.837-16.7c-.168,2.189-.022,4.4-.034,6.6-.011,1.959-.98,2.93-2.915,2.938-.64,0-1.4.18-1.886-.1-.462-.271-.249-1.113-.38-1.694a9.835,9.835,0,0,0-19.225.046c-.126.555-.016,1.416-.337,1.615a3.921,3.921,0,0,1-1.874.136q-22.556.006-45.111.026c-1.064,0-1.449-.176-1.575-1.366A9.789,9.789,0,0,0,8.6,75.791c-.163.662-.323.755-.916.467-1.183-.576-2.39-1.1-3.6-1.609A1.6,1.6,0,0,1,2.98,73.012c.011-4.674-.017-9.348.018-14.021a3.716,3.716,0,0,1,3.259-3.919,25.692,25.692,0,0,0,10.777-4.417c1.681-1.265,3.071-2.86,4.786-4.085a18.789,18.789,0,0,1,10.67-3.656c3.249-.075,6.5-.015,9.753-.015v-.021c2.845,0,5.69.028,8.534-.006A19.913,19.913,0,0,1,62.593,46.5c2.812,1.937,5.7,3.771,8.476,5.755A29.31,29.31,0,0,0,83.5,57.362,106.135,106.135,0,0,1,94.912,59.73c3.053.862,6.488,4.855,6.215,8.407" transform="translate(0 0)" fill="#303678"/>
    <path id="Caminho_17289" data-name="Caminho 17289" d="M325.708,288.646a4.494,4.494,0,0,0-.019,8.988,4.495,4.495,0,1,0,.019-8.988m-.008,5.989a1.538,1.538,0,0,1-1.48-1.505A1.6,1.6,0,0,1,325.8,291.6a1.554,1.554,0,0,1,1.469,1.526,1.516,1.516,0,0,1-1.565,1.51" transform="translate(-239.444 -215.139)" fill="#303678"/>
    <path id="Caminho_17290" data-name="Caminho 17290" d="M323.846,44.616h-6.818v3.669h6.278a1.5,1.5,0,0,1,1.034.311,1.057,1.057,0,0,1,.342.821,1.1,1.1,0,0,1-.336.831,1.46,1.46,0,0,1-1.04.321h-6.278v4.25h7.053a1.544,1.544,0,0,1,1.075.331,1.138,1.138,0,0,1,.362.882,1.114,1.114,0,0,1-.362.861,1.543,1.543,0,0,1-1.075.331h-8.225A1.585,1.585,0,0,1,314,55.368V44.137a2.519,2.519,0,0,1,.194-1.065,1.2,1.2,0,0,1,.606-.6,2.548,2.548,0,0,1,1.055-.189h7.991a1.552,1.552,0,0,1,1.075.321,1.085,1.085,0,0,1,.352.841,1.1,1.1,0,0,1-.352.851,1.552,1.552,0,0,1-1.075.321" transform="translate(-234.037 -31.514)" fill="#303678"/>
  </g>
</svg>
