<svg id="hand_x5F_1.3_3_" xmlns="http://www.w3.org/2000/svg" width="105.38" height="78.778" viewBox="0 0 105.38 78.778">
  <path id="background_15_" d="M101.012,49.135a38.844,38.844,0,0,1-9.463,2.76,85.686,85.686,0,0,1-2.5,18.8C87.08,78.708,85.766,83.7,81.823,87.12c-3.943,3.549-9.726,4.863-24.71,3.023A177.739,177.739,0,0,1,15.842,79.5,17.066,17.066,0,0,1,14,77.919s-3.68-2.234-4.469-5.783A66.944,66.944,0,0,1,7.824,57.284a57.914,57.914,0,0,1,3.943-21.03,9.388,9.388,0,0,1,1.051-1.972C24.911,17.985,41.078,9.441,54.353,12.99a25.667,25.667,0,0,1,8.412,4.337,3.132,3.132,0,0,0,2.366.657,89.761,89.761,0,0,1,13.275-.92c13.144,0,27.207-.131,32.6,8.412a16.491,16.491,0,0,1-.131,16.692C108.636,45.718,104.824,47.426,101.012,49.135Z" transform="translate(-7.824 -12.195)" fill="#fff"/>
  <g id="color_15_" transform="translate(27.207 18.671)" opacity="0.66">
    <g id="Grupo_5926" data-name="Grupo 5926" transform="translate(0 21.326)" opacity="0.66">
      <path id="Caminho_17838" data-name="Caminho 17838" d="M63.358,56c-1.446-1.577-3.154-1.84-5.783-4.469A23.781,23.781,0,0,1,53.5,46.272a3.037,3.037,0,0,0,.92.92,3.411,3.411,0,0,0,2.234-.263,20.942,20.942,0,0,0,6.44-4.075,1.073,1.073,0,0,1,1.577.263,26.937,26.937,0,0,0,3.943,6.309,21.4,21.4,0,0,0,2.892,3.023,6,6,0,0,0-.394,3.812,6.112,6.112,0,0,0,.394,1.183,1.393,1.393,0,0,1-.394,1.709,6.869,6.869,0,0,0-2.366,4.337,6.408,6.408,0,0,0,1.446,4.732c-1.709-.263-3.549-.526-5.389-.789C66.118,60.862,64.8,57.707,63.358,56Z" transform="translate(-53.5 -42.626)" fill="#13b7eb"/>
    </g>
    <g id="Grupo_5927" data-name="Grupo 5927" transform="translate(22.607 31.807)" opacity="0.66">
      <path id="Caminho_17839" data-name="Caminho 17839" d="M50.306,53.754c-1.314-.394-2.629-1.051-4.206-1.709A7.353,7.353,0,0,0,51.357,50.6a15.941,15.941,0,0,0-.657,1.84C50.569,52.834,50.437,53.229,50.306,53.754Z" transform="translate(-46.1 -50.6)" fill="#13b7eb"/>
    </g>
    <g id="Grupo_5928" data-name="Grupo 5928" transform="translate(19.566 38.774)" opacity="0.66">
      <path id="Caminho_17840" data-name="Caminho 17840" d="M48.081,61.157a3.492,3.492,0,0,1,.131-3.023c.92-1.84,3.023-2.1,3.286-2.234a24.812,24.812,0,0,0,2.366.789q-.789,3.549-1.183,6.7C49,62.6,48.344,61.815,48.081,61.157Z" transform="translate(-47.8 -55.9)" fill="#13b7eb"/>
    </g>
    <g id="Grupo_5929" data-name="Grupo 5929" transform="translate(27.47)" opacity="0.66">
      <path id="Caminho_17841" data-name="Caminho 17841" d="M44.629,36.389c-.131-.92-.394-1.972-.657-3.023-.526-2.5-1.314-4.732-1.972-6.835,1.051,0,2.1-.131,3.154-.131a34.576,34.576,0,0,1,2.629,9.726C46.863,36.258,45.812,36.258,44.629,36.389Z" transform="translate(-42 -26.4)" fill="#13b7eb"/>
    </g>
    <g id="Grupo_5930" data-name="Grupo 5930" transform="translate(30.23 15.509)" opacity="0.66">
      <path id="Caminho_17842" data-name="Caminho 17842" d="M41.8,44.772c.131-1.183.131-2.5.263-3.812V38.331c1.051,0,2.1-.131,3.023-.131A26.608,26.608,0,0,1,43.9,45.3,12.305,12.305,0,0,0,41.8,44.772Z" transform="translate(-41.8 -38.2)" fill="#13b7eb"/>
    </g>
  </g>
  <g id="line_29_" transform="translate(8.28 9.309)">
    <path id="Caminho_17843" data-name="Caminho 17843" d="M85.824,42.046c-1.709.263-3.943.394-4.732.657a10.167,10.167,0,0,1,1.314,5.52A10.848,10.848,0,0,1,80.04,54.4a1.809,1.809,0,0,0-.263,2.1,9.91,9.91,0,0,1,.789,5.652A9.608,9.608,0,0,1,77.28,68.07a2.041,2.041,0,0,0-.657,1.84,12.025,12.025,0,0,1,.131,2.234c0,.394-.394,4.732-3.286,7.1s-6.835,1.972-9.858,1.709c-17.35-2.1-26.024-3.154-36.145-6.572-1.709-.526-3.68-1.183-6.046-2.1a9.616,9.616,0,0,1-6.046-7.36,64.834,64.834,0,0,1-.526-9.069,59.257,59.257,0,0,1,2.76-16.561,7.794,7.794,0,0,1,2.234-3.549A40.246,40.246,0,0,1,24.574,31.4C30.883,26.01,41.661,16.941,51.65,19.833a16.231,16.231,0,0,1,7.229,4.6c9.595-.789,40.482-4.469,43.505,4.995.657,1.84.394,6.177-1.314,8.149C98.836,40.205,96.864,40.074,85.824,42.046Zm-8.675,4.337a6.721,6.721,0,0,0-1.314-2.76c-2.76.131-5.652.263-8.412.394-1.051,0-2.1.131-3.023.131v2.629a34.72,34.72,0,0,1-.263,3.812c.657.131,1.314.263,2.234.394.789.131,1.709.263,2.629.394,5.652.789,6.572.131,6.835-.263C77.149,50.063,77.412,47.829,77.149,46.383ZM74.257,64c1.446-1.577,1.314-4.732-.131-6.44-1.051-1.183-3.417-1.446-8.018-2.1-.789-.131-1.446-.131-1.972-.263a7.221,7.221,0,0,1-1.709,4.469l-.657.657a7.353,7.353,0,0,1-5.257,1.446,35.389,35.389,0,0,0,4.206,1.709,26.933,26.933,0,0,0,9.595,1.709A4.766,4.766,0,0,0,74.257,64ZM70.314,75.036A3.688,3.688,0,0,0,71.1,72.67a4.966,4.966,0,0,0-1.051-3.286c-1.314,0-2.629,0-4.206-.131a39.511,39.511,0,0,1-6.572-1.183l-2.366-.789a4.219,4.219,0,0,0-3.286,2.234,4.021,4.021,0,0,0-.131,3.023c.263.657.92,1.446,4.469,2.234.657.131,1.446.263,2.366.526C65.582,76.35,68.868,76.876,70.314,75.036ZM50.2,24.433c-4.469-1.446-8.806,1.051-15.378,4.995a60.649,60.649,0,0,0-11.3,8.675,3.747,3.747,0,0,0-1.051,1.84,53.212,53.212,0,0,0-2.629,17.744,50.635,50.635,0,0,0,.789,8.28,3.745,3.745,0,0,0,2.5,2.892c3.549,1.314,7.36,2.5,11.566,3.68,3.68.92,7.1,1.709,10.383,2.234a41.037,41.037,0,0,0,5.389.789,6.968,6.968,0,0,1-1.446-4.732,6.869,6.869,0,0,1,2.366-4.337,1.434,1.434,0,0,0,.394-1.709L51.387,63.6a6.342,6.342,0,0,1,.394-3.812,21.4,21.4,0,0,1-2.892-3.023,32.186,32.186,0,0,1-3.943-6.309.931.931,0,0,0-1.577-.263c-.789.657-1.577,1.314-2.1,1.709a19.916,19.916,0,0,1-4.337,2.366c-.92.394-1.577.657-2.234.263a1.572,1.572,0,0,1-.92-.92.407.407,0,0,1-.131-.263,1.792,1.792,0,0,1-.263-1.314c.263-1.051,1.446-1.446,1.709-1.709,1.446-.657,4.863-2.892,10.121-6.309a2.394,2.394,0,0,1,3.68,1.577h0s1.183,7.1,6.44,10.909a2.818,2.818,0,0,0,1.577.526c1.051-.131,1.84-1.051,1.972-2.629.263-5.652.92-11.3.131-16.824C58.222,31.794,55.2,26.142,50.2,24.433Zm47.58,7.229c-.789-2.629-6.966-3.286-17.875-3.286-4.075,0-9.332,0-15.378.394-1.051,0-2.1.131-3.154.131a46.63,46.63,0,0,1,1.972,6.835c.263,1.051.394,1.972.657,3.023,1.051-.131,2.234-.131,3.286-.263,13.144-.92,22.87-1.84,26.419-2.366,1.314-.263,3.417-.657,4.206-2.234A3.907,3.907,0,0,0,97.784,31.662Z" transform="translate(-14.848 -19.277)" fill="#2e527e"/>
  </g>
</svg>
