<svg xmlns="http://www.w3.org/2000/svg" width="204.415" height="204.415" viewBox="0 0 204.415 204.415">
  <g id="Grupo_5822" data-name="Grupo 5822" transform="translate(1.5 1.5)">
    <g id="Grupo_118" data-name="Grupo 118">
      <g id="Grupo_117" data-name="Grupo 117">
        <path id="Caminho_92" data-name="Caminho 92" d="M100.707,0A100.707,100.707,0,1,0,201.414,100.707,100.82,100.82,0,0,0,100.707,0Zm0,193.022a92.315,92.315,0,1,1,92.315-92.315A92.42,92.42,0,0,1,100.707,193.022Z" fill="#f2d559" stroke="#f2d559" stroke-width="3"/>
        <path id="Caminho_93" data-name="Caminho 93" d="M257.212,187.765,198.467,150A4.2,4.2,0,0,0,192,153.528v75.53a4.2,4.2,0,0,0,6.467,3.528l58.746-37.765a4.195,4.195,0,0,0,0-7.057Zm-56.82,33.606V161.216l46.789,30.078Z" transform="translate(-116.47 -90.586)" fill="#f2d559" stroke="#f2d559" stroke-width="3"/>
      </g>
    </g>
  </g>
</svg>
