<svg xmlns="http://www.w3.org/2000/svg" width="74.094" height="74.084" viewBox="0 0 74.094 74.084">
  <path id="Caminho_3958" data-name="Caminho 3958" d="M69.8,19.725q-10.7-4.868-21.4-9.717a2.136,2.136,0,0,1-.957-.818q-1.927-2.927-3.889-5.829a2.14,2.14,0,0,0-3.416-.373c-.44.412-.853.852-1.283,1.275-.911.894-1.683,2.132-2.777,2.579s-2.517.081-3.794.126a.726.726,0,0,1-.863-.6c-.5-1.606-1.039-3.2-1.589-4.792A2.142,2.142,0,0,0,26.96.14Q23.6,1.234,20.253,2.371A2.17,2.17,0,0,0,18.606,4.64a12.725,12.725,0,0,1-.056,1.371,2.3,2.3,0,0,1-1.687,1.962,2.7,2.7,0,0,1-2.2-.366,5.233,5.233,0,0,0-7.686,4.539c-.041,1.591-.024,3.184,0,4.775a1.331,1.331,0,0,1-.438,1.069c-1.772,1.741-3.513,3.513-5.28,5.259A5.867,5.867,0,0,0,0,24.88v1.013a4.627,4.627,0,0,0,1.078,1.5c2.072,2.052,4.129,4.12,6.192,6.182,1.147,1.145,1.852,1.261,3.289.541,1.7-.85,3.4-1.693,5.083-2.561.461-.237.673-.261.641.369-.042.817-.016,1.639-.009,2.458a2.278,2.278,0,0,0,1.828,2.5c1.553.509,3.1,1.042,4.655,1.537a.608.608,0,0,1,.518.71c-.037.794,0,1.591-.013,2.386a2.21,2.21,0,0,0,1.351,2.188c.95.464,1.882.965,2.841,1.41a.705.705,0,0,1,.47.766c-.023,1.566.026,3.134-.022,4.7a2.626,2.626,0,0,0,1.188,2.391c1.542,1.113,3.055,2.268,4.568,3.421a2.466,2.466,0,0,1,.279,3.934c-.927.947-1.874,1.875-2.81,2.814a2.226,2.226,0,0,0-.018,3.574c1.975,1.98,3.957,3.951,5.928,5.935a7.474,7.474,0,0,0,1.751,1.432h1.158a7.02,7.02,0,0,0,1.716-1.37c1.592-1.614,3.2-3.208,4.805-4.814,2.346-2.352,2.028-1.725,2.042-4.892a7.1,7.1,0,0,1,6.9-7.5,3.164,3.164,0,0,0,2.1-.966q4.328-4.37,8.7-8.7a2.954,2.954,0,0,0,.938-2.253c-.024-2.46,0-4.92-.019-7.38a1.343,1.343,0,0,1,.45-1.069c1.5-1.468,2.97-2.965,4.462-4.441a6.485,6.485,0,0,0,2.053-4.484,6.664,6.664,0,0,0-4.289-6.5m-.98,8.05c-1.7,1.707-3.4,3.422-5.121,5.109a2.822,2.822,0,0,0-.915,2.18c.031,2.483,0,4.967.02,7.451a1.28,1.28,0,0,1-.423,1.005q-3.6,3.565-7.161,7.162a1.891,1.891,0,0,1-1.177.575A11.39,11.39,0,0,0,44.2,62.521,3.253,3.253,0,0,1,43.052,65.2c-1.15,1.026-2.211,2.152-3.281,3.265-.315.328-.482.315-.79-.005-1.019-1.06-2.056-2.105-3.125-3.114-.373-.352-.284-.531.029-.833a16.218,16.218,0,0,0,1.888-1.993,6.77,6.77,0,0,0-1.135-9.285c-1.264-1.04-2.6-2-3.92-2.963a1.028,1.028,0,0,1-.471-.956c.024-1.664,0-3.328.015-4.991a2.373,2.373,0,0,0-1.443-2.368c-.932-.446-1.839-.943-2.775-1.381a.656.656,0,0,1-.444-.712c.025-.867.018-1.736.005-2.6a2.23,2.23,0,0,0-1.669-2.338c-1.59-.549-3.182-1.1-4.789-1.59a.643.643,0,0,1-.54-.76c.022-1.519.02-3.038.006-4.557A2.19,2.19,0,0,0,17.2,25.929c-2.345,1.167-4.692,2.332-7.019,3.534a.776.776,0,0,1-1.1-.192q-1.676-1.749-3.43-3.424c-.375-.359-.328-.549.018-.888,1.6-1.567,3.169-3.174,4.771-4.743a2.735,2.735,0,0,0,.872-2.124c-.031-1.856-.017-3.713-.007-5.57.006-1.063.616-1.43,1.555-.957a6.732,6.732,0,0,0,10.01-5.114.578.578,0,0,1,.468-.539c.872-.272,1.742-.552,2.6-.87.374-.139.478-.043.592.317.441,1.4.922,2.782,1.391,4.171a2.19,2.19,0,0,0,2.393,1.762c2.17.006,4.341-.011,6.511.008a2.519,2.519,0,0,0,1.935-.8c.837-.865,1.689-1.717,2.583-2.624,1,1.49,1.979,2.914,2.913,4.369a3.689,3.689,0,0,0,1.673,1.41Q57,18.663,68.05,23.708c1.961.892,2.278,2.557.77,4.068" fill="#212529"/>
</svg>
