<?xml version="1.0" encoding="utf-8"?>
<!-- Generator: Adobe Illustrator 25.4.4, SVG Export Plug-In . SVG Version: 6.00 Build 0)  -->
<svg version="1.1" id="twitter" xmlns="http://www.w3.org/2000/svg" xmlns:xlink="http://www.w3.org/1999/xlink" x="0px" y="0px"
	 viewBox="0 0 27 22" style="enable-background:new 0 0 27 22;" xml:space="preserve">
<style type="text/css">
	.st0{fill:#D6D6D6;}
</style>
<path id="twitter-2" class="st0" d="M8.5,22c8.7,0.1,15.7-6.9,15.8-15.6c0-0.1,0-0.1,0-0.2c0-0.2,0-0.5,0-0.7c1.1-0.8,2-1.8,2.8-2.9
	c-1,0.4-2.1,0.7-3.2,0.9c1.2-0.7,2-1.8,2.4-3.1c-1.1,0.6-2.3,1.1-3.5,1.3c-2.1-2.2-5.6-2.3-7.9-0.2c-1.4,1.4-2.1,3.4-1.6,5.3
	C8.9,6.6,4.7,4.5,1.9,1C1.4,1.9,1.1,2.8,1.1,3.8c0,1.9,0.9,3.6,2.5,4.6c-0.9,0-1.7-0.3-2.5-0.7c0,0,0,0,0,0.1c0,2.6,1.9,4.9,4.5,5.4
	c-0.5,0.1-1,0.2-1.5,0.2c-0.4,0-0.7,0-1-0.1c0.7,2.3,2.8,3.8,5.2,3.8c-2,1.5-4.4,2.4-6.9,2.4c-0.4,0-0.9,0-1.3-0.1
	C2.5,21.1,5.5,22,8.5,22"/>
</svg>
