<svg xmlns="http://www.w3.org/2000/svg" width="150" height="150" viewBox="0 0 150 150">
  <g id="Grupo_3804" data-name="Grupo 3804" transform="translate(4553 11184)">
    <circle id="Elipse_245" data-name="Elipse 245" cx="75" cy="75" r="75" transform="translate(-4553 -11184)" fill="#f2f2f2"/>
    <path id="Caminho_14910" data-name="Caminho 14910" d="M2156.8,1444.193q-6.912-18.924-13.836-37.842a20.843,20.843,0,0,1-1.345-7.1c-.019-3.39-.01-6.781,0-10.171a4.131,4.131,0,0,1,.88-2.754,6.654,6.654,0,0,0,1.518-4.8,2.014,2.014,0,0,0-.972-1.945h-18.919c-.4.318-.861.589-.906,1.228-.133,1.889-.042,3.711,1.233,5.183a4.983,4.983,0,0,1,1.119,3.469q-.043,4.609,0,9.22a21.8,21.8,0,0,1-1.376,7.749q-6.917,18.881-13.812,37.773c-1.908,5.225,1.136,10.327,6.164,10.33q17.054.009,34.108,0a6.486,6.486,0,0,0,1.934-.253C2156.517,1453.07,2158.4,1448.573,2156.8,1444.193Zm-32.86-29.374c1.027-2.863,2.077-5.716,3.086-8.587a21.793,21.793,0,0,0,1.14-7.225c.007-3.244,0-6.488,0-9.732a7.714,7.714,0,0,0-1.632-5.021,3.169,3.169,0,0,1-.687-1.225c-.082-.331-.075-.528.335-.526q7.4.021,14.8,0c.416,0,.413.209.338.53a2.527,2.527,0,0,1-.564,1.055,8.044,8.044,0,0,0-1.764,5.482c.045,3.658-.087,7.318.073,10.974a22.645,22.645,0,0,0,1.433,6.787c.99,2.72,1.986,5.438,3.016,8.257h-19.776A1.392,1.392,0,0,1,2123.941,1414.818Zm26.676,36.808q-17.022-.07-34.045-.006a4.219,4.219,0,0,1-4.2-4.344c0-.506.125-.688.588-.646a11.476,11.476,0,0,0,1.564,0,1.405,1.405,0,0,0,1.344-1.4,1.449,1.449,0,0,0-1.251-1.5,11.057,11.057,0,0,0-1.242-.008c.483-1.335.942-2.589,1.389-3.847.093-.262.263-.271.468-.268.587.008,1.175.019,1.761,0a1.405,1.405,0,0,0,1.374-1.436,1.441,1.441,0,0,0-1.285-1.471,11.147,11.147,0,0,0-1.134-.007c.488-1.352.947-2.629,1.41-3.9.1-.271.321-.2.508-.2.587-.006,1.174.015,1.76-.008a1.38,1.38,0,0,0,1.362-1.439,1.419,1.419,0,0,0-1.278-1.467c-.366-.039-.737-.007-1.2-.007.49-1.334.962-2.6,1.412-3.871.1-.3.3-.232.479-.234.609-.007,1.218.012,1.826-.008a1.363,1.363,0,0,0,1.386-1.407,1.4,1.4,0,0,0-1.307-1.5c-.382-.035-.77-.006-1.227-.006.488-1.338.95-2.59,1.4-3.848.142-.4.433-.249.666-.25q7.4-.011,14.8-.006c2.043,0,4.087.01,6.13-.01a.642.642,0,0,1,.717.518c3.192,8.776,6.372,17.557,9.62,26.307C2155.578,1448.47,2153.683,1451.639,2150.617,1451.626Zm-7.934-25.74c.783.046,1.159.547,1.416,1.257.99,2.744,2,5.481,3,8.22.484,1.325.964,2.652,1.453,3.975a1.651,1.651,0,0,1-.269,1.865c-.695.709-1.7.394-2.1-.674-.731-1.945-1.432-3.905-2.147-5.858-.8-2.178-1.607-4.35-2.39-6.534C2141.226,1426.986,2141.765,1425.914,2142.683,1425.886Zm6.586,20.748a1.369,1.369,0,0,1-1.278-1.447,1.4,1.4,0,0,1,1.261-1.476,1.459,1.459,0,0,1,1.334,1.5A1.423,1.423,0,0,1,2149.269,1446.633Z" transform="translate(-6611.303 -12526.082)" fill="#384dc5" stroke="#384dc5" stroke-width="1.35"/>
  </g>
</svg>
