<?xml version="1.0" encoding="utf-8"?>
<!-- Generator: Adobe Illustrator 25.4.4, SVG Export Plug-In . SVG Version: 6.00 Build 0)  -->
<svg version="1.1" id="Componente_147_1" xmlns="http://www.w3.org/2000/svg" xmlns:xlink="http://www.w3.org/1999/xlink" x="0px"
	 y="0px" viewBox="0 0 189.5 146.2" style="enable-background:new 0 0 189.5 146.2;" xml:space="preserve">
<style type="text/css">
	.st0{fill-rule:evenodd;clip-rule:evenodd;fill:#D6D6D6;}
	.st1{fill:#D6D6D6;}
</style>
<path id="Caminho_14137" class="st0" d="M0.1,84c0,4.6,0.4,8.3,2.2,11.2c2.9,4.6,8.5,7.4,15.5,7.4s12.5-2.8,15.5-7.4
	c1.8-2.9,2.3-6.6,2.3-11.2V63.1H21.6v21c0,4-0.7,6.4-3.9,6.4c-3.2,0-3.8-2.4-3.8-6.4v-21H0.1V84z"/>
<path id="Caminho_14138" class="st0" d="M42.3,101.6h13.8V87.8H67V78H56.2v-4.5h11.9V63.1H42.3V101.6z"/>
<path id="Caminho_14139" class="st0" d="M73.6,101.6h13.6V88.9l6.7,12.7h15.5L99.1,85.9c4.5-0.5,7.4-4.4,7.4-9.9
	c0-8.2-5.3-13-15.6-13H73.6V101.6z M87.2,73h2.2c2.7,0,4.1,1.5,4.1,3.8s-1.5,3.7-4.1,3.7h-2.2V73z"/>
<path id="Caminho_14140" class="st0" d="M138,87.8c-0.3,2-2,3.2-4.7,3.2c-4.4,0-7.1-3.1-7.1-8.6c0-5.4,2.8-8.6,6.7-8.6
	c2.3,0,4.4,1.2,5.5,3.2l12.3-4.6c-3.9-6.6-10.2-10.2-18-10.2c-5.5-0.1-10.8,1.9-14.8,5.8c-3.8,3.8-5.9,9-5.8,14.4
	c-0.1,5.4,2,10.6,5.8,14.4c8.8,8.1,22.4,7.6,30.6-1.1c0.3-0.3,0.6-0.6,0.8-1c2.7-3.6,4-7.9,4-13.1c0-1,0-1.9-0.1-2.9H132v9H138z"/>
<path id="Caminho_14141" class="st0" d="M156.8,98.3c4.6,2.7,9.8,4.2,15.1,4.3c10.1,0,16.6-6.3,16.6-14.5c0-5.4-3.4-9.2-8.6-10.3
	c-4.6-1-7.2-1.3-7.2-3.2c0-1.1,1.1-1.8,3-1.8c2.9,0.1,5.7,1.2,7.9,3l4.2-10.1c-4-2.3-8.4-3.5-13-3.5c-9.8,0-16.1,5.9-16.1,14
	c0,5.6,3.3,9.2,9.9,10.6c3.2,0.7,5.1,0.9,5.1,2.7c0,1.2-1.1,2-3.1,2c-2.9,0-5.9-1.5-9.6-4L156.8,98.3z"/>
<path id="Caminho_14142" class="st0" d="M56.6,48.8h61.7c-10.3,4.1-20.6,6.8-30.8,6.6C77.1,55.6,66.8,52.9,56.6,48.8"/>
<path id="Caminho_14143" class="st0" d="M81.7,61.1c1.2,0,2.2-1,2.2-2.2c0-1.2-1-2.2-2.2-2.2c-1.2,0-2.2,1-2.2,2.2
	C79.5,60.1,80.5,61.1,81.7,61.1"/>
<path id="Caminho_14144" class="st0" d="M87.4,61.1c1.2,0,2.2-1,2.2-2.2c0-1.2-1-2.2-2.2-2.2c-1.2,0-2.2,1-2.2,2.2
	C85.2,60.1,86.2,61.1,87.4,61.1"/>
<path id="Caminho_14145" class="st0" d="M93.1,61.1c1.2,0,2.2-1,2.2-2.2c0-1.2-1-2.2-2.2-2.2c-1.2,0-2.2,1-2.2,2.2c0,0,0,0,0,0
	C91,60.1,91.9,61.1,93.1,61.1"/>
<path id="Caminho_14146" class="st0" d="M85.8,47.7c1.5-4.9-0.4-10-6.8-14.2c-4.8-3-7.5-8.2-7.9-15.6c-0.3-4.1,1.6-8.2,5.7-12.3
	c5.7-5.7,12.6-7.1,20.5-4.1c-7.1,3-10.9,7.8-11.5,14.5c-0.1,4.9,2.4,7.9,5.2,10.6c2.2,2.8,3.5,6.3,3.8,9.9
	C94.1,42.2,90.8,46.3,85.8,47.7"/>
<path id="Caminho_14147" class="st0" d="M69.4,17.9c-3.9,1.9-7.2,5.9-7.4,12.3c-0.1,4.4,2.5,7.8,6,10.1c2.6,1.7,5.6,2.3,9.6,2.5
	c2.7,0.1,4.9,2.2,6.8,4.9c0.6-3,0.5-6.4-2.5-9c-2.3-2.1-5.8-3.1-9.2-4.5C68.7,32.5,67.4,25.7,69.4,17.9"/>
<path id="Caminho_14148" class="st0" d="M104.8,12c-8-1-12.4,5.1-12.4,9.5c0,6.4,5.7,8,5.5,14.7c-0.1,3.9-1.6,8.5-8.5,11.8
	c13.1-0.2,18.5-9,18.2-16.8c-0.3-8.2-7.2-8.3-7.3-14.1C100.3,14.5,101.7,13.1,104.8,12"/>
<path id="Caminho_14149" class="st0" d="M0,118.2v6.3c0,1.8,0.1,3.2,1,4.3c0.8,1,2.2,1.4,4.2,1.4c3.7,0,5.2-1.5,5.2-5v-6.9H7.2v5.6
	c0,2.5-0.1,3.7-2,3.7c-1.6,0-2-0.9-2-3v-6.3H0z"/>
<path id="Caminho_14150" class="st0" d="M12.2,129.9h3.1v-5.8c0-0.8-0.1-1.5-0.2-2.3c0.3,0.7,0.7,1.4,1.1,2l4.4,6h3v-11.6h-3v5.8
	c0,0.8,0.1,1.5,0.2,2.3c-0.3-0.7-0.7-1.4-1.1-2.1l-4.4-6h-3.1L12.2,129.9z"/>
<rect id="Retângulo_952" x="25.5" y="118.2" class="st1" width="3.2" height="11.7"/>
<path id="Caminho_14151" class="st0" d="M34,129.9h2.4l4.9-11.7H38l-2.3,6.5c0,0.1-0.2,0.7-0.4,1.6c-0.2-0.9-0.3-1.4-0.4-1.6
	l-2.3-6.5h-3.4L34,129.9z"/>
<path id="Caminho_14152" class="st0" d="M41.7,129.9h7.1v-2.6h-4v-2h3.8v-2.5h-3.8v-2h4v-2.6h-7.1V129.9z"/>
<path id="Caminho_14153" class="st0" d="M53.3,123.7v-3.1h0.6c1.3,0,1.9,0.4,1.9,1.6c0,1-0.6,1.4-2,1.4H53.3z M50.3,129.9h3v-4.6
	l2.7,4.6h3.6l-3.2-4.7c1.6-0.2,2.7-1.7,2.6-3.3c0-1.1-0.4-2.2-1.3-2.9c-1-0.8-2.2-0.8-3.8-0.8h-3.5L50.3,129.9z"/>
<path id="Caminho_14154" class="st0" d="M60.7,126.1l-1.4,2.4c1.1,1.1,2.6,1.7,4.1,1.7c2.7,0,4.5-1.7,4.5-4.1c0-2.2-1.1-2.9-3.2-3.5
	c-1.1-0.3-1.9-0.5-1.9-1.3c0-0.6,0.5-1,1.3-1c0.8,0,1.6,0.4,2.2,0.9l1-2.3c-1-0.7-2.2-1.1-3.5-1c-2.1-0.2-3.9,1.4-4,3.4
	c0,0.1,0,0.2,0,0.4c0,1.8,1,2.7,3.1,3.2c1.3,0.3,2,0.6,2,1.5c0,0.7-0.6,1.3-1.4,1.2c0,0-0.1,0-0.1,0C62.3,127.6,61.3,127,60.7,126.1
	"/>
<rect id="Retângulo_953" x="69.1" y="118.2" class="st1" width="3.2" height="11.7"/>
<path id="Caminho_14155" class="st0" d="M77.4,127.3v-6.4H78c2.4,0,3.6,0.9,3.6,3.2c0,2.3-1.2,3.2-3.6,3.2H77.4z M74.3,129.9h3.2
	c1.9,0,3.6-0.1,5-1.1c2.6-2.1,3-6,0.9-8.6c-0.3-0.3-0.6-0.6-0.9-0.9c-1.5-1.1-3.3-1.1-5.4-1.1h-2.8V129.9z"/>
<path id="Caminho_14156" class="st0" d="M84.5,129.9h3.2l0.6-2.1h4.5l0.6,2.1h3.2l-4-11.7h-4L84.5,129.9z M88.9,125.5l1.2-3.8
	c0-0.2,0.2-0.7,0.4-1.6c0.2,0.9,0.3,1.4,0.4,1.6l1.2,3.8H88.9z"/>
<path id="Caminho_14157" class="st0" d="M100.2,127.3v-6.4h0.5c2.4,0,3.6,0.9,3.6,3.2c0,2.3-1.2,3.2-3.6,3.2H100.2z M97,129.9h3.2
	c1.9,0,3.6-0.1,5-1.1c2.6-2.1,3-6,0.9-8.6c-0.3-0.3-0.6-0.6-0.9-0.9c-1.5-1.1-3.3-1.1-5.4-1.1H97V129.9z"/>
<path id="Caminho_14158" class="st0" d="M108.9,129.9h7.1v-2.6h-4v-2h3.8v-2.5H112v-2h4v-2.6h-7.1V129.9z"/>
<path id="Caminho_14159" class="st0" d="M122.6,129.9h3.1v-4.6h3.8v-2.5h-3.8v-2h4v-2.6h-7.1L122.6,129.9z"/>
<path id="Caminho_14160" class="st0" d="M130.9,129.9h7.1v-2.6h-4v-2h3.8v-2.5H134v-2h4v-2.6h-7.1V129.9z"/>
<path id="Caminho_14161" class="st0" d="M142.7,127.3v-6.4h0.5c2.4,0,3.6,0.9,3.6,3.2c0,2.3-1.2,3.2-3.6,3.2H142.7z M139.5,129.9
	h3.2c1.9,0,3.6-0.1,5-1.1c2.6-2.1,3-6,0.9-8.6c-0.3-0.3-0.6-0.6-0.9-0.9c-1.5-1.1-3.3-1.1-5.4-1.1h-2.8V129.9z"/>
<path id="Caminho_14162" class="st0" d="M151.4,129.9h7.1v-2.6h-4v-2h3.8v-2.5h-3.8v-2h4v-2.6h-7.1V129.9z"/>
<path id="Caminho_14163" class="st0" d="M163,123.7v-3.1h0.6c1.3,0,1.9,0.4,1.9,1.6c0,1-0.6,1.4-2,1.4H163z M160,129.9h3v-4.6
	l2.7,4.6h3.6l-3.2-4.7c1.6-0.2,2.7-1.7,2.6-3.3c0-1.1-0.4-2.2-1.3-2.9c-1-0.8-2.2-0.8-3.8-0.8H160L160,129.9z"/>
<path id="Caminho_14164" class="st0" d="M168.5,129.9h3.2l0.6-2.1h4.5l0.6,2.1h3.2l-4-11.7h-4L168.5,129.9z M173,125.5l1.2-3.8
	c0-0.2,0.2-0.7,0.4-1.6c0.2,0.9,0.3,1.4,0.4,1.6l1.2,3.8H173z"/>
<path id="Caminho_14165" class="st0" d="M181.1,129.9h7.1v-2.7h-3.9v-8.9h-3.2V129.9z"/>
<path id="Caminho_14166" class="st0" d="M3.2,143.3v-6.4h0.5c2.4,0,3.6,0.9,3.6,3.2c0,2.3-1.2,3.2-3.6,3.2H3.2z M0.1,145.9h3.2
	c1.9,0,3.6-0.1,5-1.1c2.6-2.1,3-6,0.9-8.6c-0.3-0.3-0.6-0.6-0.9-0.9c-1.5-1.1-3.3-1.1-5.4-1.1H0.1L0.1,145.9z"/>
<path id="Caminho_14167" class="st0" d="M17.3,143.5c-1.7,0-3.1-1.5-3.1-3.2c0-0.1,0-0.2,0-0.2c0.2-1.7,1.7-2.9,3.4-2.7
	c1.7,0.2,2.9,1.7,2.7,3.4C20.2,142.4,18.8,143.5,17.3,143.5 M23.5,140.1c0-1.6-0.6-3.2-1.8-4.3c-2.5-2.4-6.4-2.4-8.8,0
	c-2.4,2.3-2.4,6.1-0.1,8.5c0.2,0.2,0.4,0.4,0.6,0.5c2.5,2,6.1,1.8,8.4-0.4C22.9,143.3,23.5,141.7,23.5,140.1"/>
<path id="Caminho_14168" class="st0" d="M32.6,139.8v-3.1h0.6c1.3,0,1.9,0.4,1.9,1.6c0,1-0.6,1.4-2,1.4L32.6,139.8z M29.6,145.9h3
	v-4.6l2.7,4.6h3.6l-3.2-4.7c1.6-0.2,2.7-1.7,2.6-3.3c0-1.1-0.4-2.2-1.3-2.9c-1-0.8-2.2-0.8-3.8-0.8h-3.5L29.6,145.9z"/>
<rect id="Retângulo_954" x="39.1" y="134.3" class="st1" width="3.2" height="11.7"/>
<path id="Caminho_14169" class="st0" d="M49.7,143.5c-1.7,0-3.1-1.5-3.1-3.2c0-0.1,0-0.2,0-0.2c0.2-1.7,1.7-2.9,3.4-2.7
	c1.7,0.2,2.9,1.7,2.7,3.4C52.5,142.4,51.2,143.5,49.7,143.5 M55.9,140.1c0-1.6-0.6-3.2-1.8-4.3c-2.5-2.4-6.4-2.4-8.8,0
	c-2.4,2.3-2.4,6.1-0.1,8.5c0.2,0.2,0.4,0.4,0.6,0.5c2.5,2,6.1,1.8,8.4-0.4C55.2,143.3,55.9,141.7,55.9,140.1"/>
<path id="Caminho_14170" class="st0" d="M67.5,141.6h3.2c-0.3,1.4-1.6,2.3-3,2.2c-1.9,0-3.1-1.3-3.1-3.6c0-2.2,1.2-3.6,3.1-3.6
	c1,0,1.9,0.5,2.5,1.3l2.8-1.3c-2-2.9-5.9-3.5-8.8-1.6c-1.6,1.1-2.6,3-2.7,5c0,1.6,0.6,3.2,1.7,4.4c1.2,1.2,2.8,1.8,4.5,1.7
	c3.8,0,6.1-2.3,6.1-6.3c0-0.2,0-0.5,0-0.7h-6.2L67.5,141.6z"/>
<path id="Caminho_14171" class="st0" d="M77.7,139.8v-3.1h0.6c1.3,0,1.9,0.4,1.9,1.6c0,1-0.6,1.4-2,1.4L77.7,139.8z M74.7,145.9h3
	v-4.6l2.7,4.6H84l-3.2-4.7c1.6-0.2,2.7-1.7,2.6-3.3c0-1.1-0.4-2.2-1.3-2.9c-1-0.8-2.2-0.8-3.8-0.8h-3.5L74.7,145.9z"/>
<path id="Caminho_14172" class="st0" d="M82.8,145.9H86l0.6-2.1h4.5l0.6,2.1h3.2l-4-11.7h-4L82.8,145.9z M87.3,141.6l1.2-3.8
	c0-0.2,0.2-0.7,0.4-1.6c0.2,0.9,0.3,1.4,0.4,1.6l1.2,3.8H87.3z"/>
<path id="Caminho_14173" class="st0" d="M95,145.9H98v-5.8c0-0.8-0.1-1.5-0.2-2.3c0.3,0.7,0.7,1.4,1.1,2l4.4,6h3v-11.6h-3v5.8
	c0,0.8,0.1,1.5,0.2,2.3c-0.3-0.7-0.7-1.4-1.1-2.1l-4.4-6H95V145.9z"/>
<path id="Caminho_14174" class="st0" d="M111,143.3v-6.4h0.5c2.4,0,3.6,0.9,3.6,3.2c0,2.3-1.2,3.2-3.6,3.2H111z M107.8,145.9h3.2
	c1.9,0,3.6-0.1,5-1.1c2.6-2.1,3-6,0.9-8.6c-0.3-0.3-0.6-0.6-0.9-0.9c-1.5-1.1-3.3-1.1-5.4-1.1h-2.8L107.8,145.9z"/>
<path id="Caminho_14175" class="st0" d="M119.3,145.9h7.1v-2.6h-4v-2h3.8v-2.5h-3.8v-2h4v-2.6h-7.1L119.3,145.9z"/>
<path id="Caminho_14176" class="st0" d="M135.8,143.3v-6.4h0.5c2.4,0,3.6,0.9,3.6,3.2c0,2.3-1.2,3.2-3.6,3.2H135.8z M132.7,145.9
	h3.2c1.9,0,3.6-0.1,5-1.1c2.6-2.1,3-6,0.9-8.6c-0.3-0.3-0.6-0.6-0.9-0.9c-1.5-1.1-3.3-1.1-5.4-1.1h-2.8V145.9z"/>
<path id="Caminho_14177" class="st0" d="M149.9,143.5c-1.7,0-3.1-1.5-3.1-3.2c0-0.1,0-0.2,0-0.2c0.2-1.7,1.7-2.9,3.4-2.7
	c1.7,0.2,2.9,1.7,2.7,3.4C152.8,142.4,151.5,143.5,149.9,143.5 M156.1,140.1c0-1.6-0.6-3.2-1.8-4.3c-2.5-2.4-6.4-2.4-8.8,0
	c-2.4,2.3-2.4,6.1-0.1,8.5c0.2,0.2,0.4,0.4,0.6,0.5c2.5,2,6.1,1.8,8.4-0.4C155.5,143.3,156.1,141.7,156.1,140.1"/>
<path id="Caminho_14178" class="st0" d="M162.7,142.1l-1.4,2.4c1.1,1.1,2.6,1.7,4.1,1.7c2.7,0,4.5-1.7,4.5-4.1
	c0-2.2-1.1-2.9-3.2-3.5c-1.1-0.3-1.9-0.5-1.9-1.3c0-0.6,0.5-1,1.3-1c0.8,0,1.6,0.4,2.2,0.9l1-2.3c-1-0.7-2.2-1.1-3.5-1
	c-2.1-0.2-3.9,1.4-4,3.4c0,0.1,0,0.2,0,0.4c0,1.8,1,2.7,3.1,3.2c1.3,0.3,2,0.6,2,1.5c0,0.7-0.6,1.3-1.4,1.2c0,0-0.1,0-0.1,0
	C164.4,143.6,163.4,143.1,162.7,142.1"/>
<path id="Caminho_14179" class="st0" d="M170.6,134.3v6.3c0,1.8,0.1,3.2,1,4.3c0.8,1,2.2,1.4,4.2,1.4c3.7,0,5.2-1.5,5.2-5v-6.9h-3.2
	v5.6c0,2.5-0.1,3.7-2,3.7c-1.6,0-2-0.9-2-3v-6.3H170.6z"/>
<path id="Caminho_14180" class="st0" d="M182.4,145.9h7.1v-2.7h-3.9v-8.9h-3.2V145.9z"/>
</svg>
