<svg id="Grupo_3170" data-name="Grupo 3170" xmlns="http://www.w3.org/2000/svg" xmlns:xlink="http://www.w3.org/1999/xlink" width="21.488" height="21.488" viewBox="0 0 21.488 21.488">
  <defs>
    <clipPath id="clip-path">
      <rect id="Retângulo_841" data-name="Retângulo 841" width="21.488" height="21.488" fill="#212529"/>
    </clipPath>
  </defs>
  <g id="Grupo_3169" data-name="Grupo 3169" clip-path="url(#clip-path)">
    <path id="Caminho_3952" data-name="Caminho 3952" d="M11.506,21.488H10c-.061-.014-.121-.031-.182-.04-.428-.062-.861-.1-1.282-.188a10.49,10.49,0,0,1-6.2-3.863A10.38,10.38,0,0,1,.308,8.285,10.419,10.419,0,0,1,5.187,1.575,10.386,10.386,0,0,1,12.525.155a10.427,10.427,0,0,1,5.8,3,10.52,10.52,0,0,1,3,5.73c.065.37.11.743.165,1.115V11.5c-.046.338-.081.677-.139,1.012a10.806,10.806,0,0,1-8.688,8.8c-.382.071-.77.114-1.155.17M10.114,5.731a.514.514,0,0,0-.076-.014c-.95,0-1.9,0-2.849,0a.154.154,0,0,0-.181.148c-.173.873-.373,1.742-.518,2.62C6.4,9.014,6.4,9.56,6.353,10.109h3.76Zm0,5.661H6.361c.022.333.041.653.064.973A16.47,16.47,0,0,0,7,15.611c.042.149.108.177.246.176.894-.006,1.788,0,2.682,0,.061,0,.121-.006.19-.01Zm5.028-1.28c-.022-.338-.042-.651-.064-.964A16.63,16.63,0,0,0,14.511,5.9c-.043-.155-.112-.189-.259-.188-.887.006-1.774,0-2.661,0-.067,0-.134.006-.2.009v4.387Zm-.008,1.282H11.4v4.39c.986,0,1.956,0,2.927-.006a.224.224,0,0,0,.162-.13,16.6,16.6,0,0,0,.649-4.255m5.056-1.281c0-.076,0-.132,0-.187A9.348,9.348,0,0,0,18.83,5.817a.3.3,0,0,0-.223-.1c-.887-.007-1.774,0-2.661,0-.052,0-.1.009-.171.015a19.587,19.587,0,0,1,.639,4.381ZM1.3,11.389c.017.17.032.327.05.484A9.321,9.321,0,0,0,2.638,15.64a.266.266,0,0,0,.266.147c.831-.005,1.662,0,2.493,0H5.73a19.508,19.508,0,0,1-.641-4.395Zm15.113,0a19.68,19.68,0,0,1-.639,4.4c.952,0,1.873,0,2.794,0a.312.312,0,0,0,.314-.175A9.586,9.586,0,0,0,20.1,12.3c.05-.3.073-.6.109-.912ZM5.73,5.716c-.991,0-1.948,0-2.9.006a.282.282,0,0,0-.179.136A9.273,9.273,0,0,0,1.4,9.206c-.05.3-.072.6-.107.9H5.089a19.472,19.472,0,0,1,.64-4.391M10.113,1.41A4.994,4.994,0,0,0,7.537,4.447h2.575ZM14,4.448a6.94,6.94,0,0,0-1.677-2.5,2.533,2.533,0,0,0-.93-.55V4.448ZM10.109,20.126V17.056H7.5a5.546,5.546,0,0,0,2.61,3.071m1.278-.038a4.968,4.968,0,0,0,2.57-3.031h-2.57ZM17.831,4.458a9.619,9.619,0,0,0-3.867-2.62l.229.326a10.66,10.66,0,0,1,1.113,2.125c.027.068.11.161.168.162.766.011,1.532.007,2.357.007M7.5,1.87A9.28,9.28,0,0,0,3.707,4.423c.031.019.042.032.052.032.754,0,1.508,0,2.262,0a.219.219,0,0,0,.157-.118A11.133,11.133,0,0,1,7.5,1.87m.047,17.794A10.548,10.548,0,0,1,6.171,17.15a.268.268,0,0,0-.209-.1c-.7-.008-1.4,0-2.094,0-.05,0-.1.01-.177.018a9.576,9.576,0,0,0,3.854,2.6m10.282-2.622c-.827,0-1.6,0-2.371,0a.183.183,0,0,0-.129.1,10.342,10.342,0,0,1-1.374,2.519,9.63,9.63,0,0,0,3.874-2.625" transform="translate(0 0)" fill="#212529"/>
  </g>
</svg>
