<?xml version="1.0" encoding="utf-8"?>
<!-- Generator: Adobe Illustrator 25.4.4, SVG Export Plug-In . SVG Version: 6.00 Build 0)  -->
<svg version="1.1" id="lupa-de-detetive" xmlns="http://www.w3.org/2000/svg" xmlns:xlink="http://www.w3.org/1999/xlink" x="0px"
	 y="0px" viewBox="0 0 48.5 47.9" style="enable-background:new 0 0 48.5 47.9;" xml:space="preserve">
<style type="text/css">
	.st0{fill:none;}
	.st1{fill:#333333;}
</style>
<path id="Caminho_3827" class="st0" d="M20.3,3.5L20.3,3.5C11,3.5,3.4,11.1,3.4,20.4c0,0,0,0.1,0,0.1l0,0c0,4.6,1.9,9,5.2,12.2
	c3.2,3.1,7.5,4.8,12,4.6c4.5-0.1,8.7-2,11.8-5.2l0.1-0.1l0,0c6.4-6.8,6.1-17.5-0.7-23.9C28.7,5.2,24.6,3.5,20.3,3.5z"/>
<path id="Caminho_3828" class="st0" d="M47.6,44.9"/>
<path id="Caminho_3829" class="st1" d="M47.9,44.5L36,32.6c3.2-4.1,4.7-9.2,4.2-14.4C39.7,12.9,37.1,8,33,4.6
	C24.4-2.5,11.7-1.3,4.6,7.3c-3.4,4.1-5.1,9.5-4.5,14.8c0.5,5.3,3.1,10.3,7.3,13.6c7.5,6.3,18.5,6.2,25.9-0.2l11.8,11.8
	c0.7,0.8,2,0.8,2.7,0.1c0,0,0,0,0.1-0.1C48.6,46.6,48.5,45.3,47.9,44.5z M37.2,20.4c0,4.3-1.6,8.5-4.6,11.6l0,0l-0.1,0.1
	c-3.1,3.3-7.3,5.1-11.8,5.2c-9.2,0.3-16.9-7-17.2-16.3c0-0.2,0-0.4,0-0.5l0,0C3.4,11.2,11,3.6,20.3,3.5c0,0,0,0,0,0l0,0
	C29.6,3.5,37.2,11.1,37.2,20.4z"/>
</svg>
