<svg xmlns="http://www.w3.org/2000/svg" width="137.697" height="34.739" viewBox="0 0 137.697 34.739">
  <g id="Grupo_3856" data-name="Grupo 3856" transform="translate(-1196.298 -947.478)">
    <g id="Grupo_3855" data-name="Grupo 3855" transform="translate(1196.298 905)">
      <path id="Caminho_14135" data-name="Caminho 14135" d="M12.285,57.762H.05v.152c2.517,1,2.216,4.682,2.216,6.948V83.842c0,2.262.3,5.988-2.265,6.895v.152H10.019v-.152C7.35,89.228,7.4,87.211,7.4,84.395V61.689a20.468,20.468,0,0,1,3.526-.3c4.027,0,7.149,1.763,7.149,6.193,0,4.833-4.683,7.5-9.013,7.753a8.4,8.4,0,0,0,3.675.706c5.69,0,11.077-3.678,11.077-9.466,0-5.637-4.986-8.809-11.53-8.809m42.879.152-.051-.152H45.545v.152c2.517.955,2.216,4.633,2.216,6.895V79.964c0,1.811.051,3.071-1.057,4.582a8.9,8.9,0,0,1-7.35,3.522c-5.186,0-8-3.12-8-9.819V64.808c0-2.262-.3-5.94,2.213-6.895v-.152H24v.152c2.568.955,2.216,4.633,2.216,6.895V78.25c0,3.628-.1,7,2.568,9.921,2.265,2.468,5.79,3.521,9.114,3.521,3.523,0,7.651-1.206,9.867-4.128v3.324h7.4v-.152C52.6,89.782,52.9,86.1,52.9,83.842V64.861c0-2.315-.3-5.993,2.267-6.948M84.6,84.342a22.15,22.15,0,0,1-10.724,3.173c-7.752,0-12.789-6.6-12.789-14,0-7.3,4.833-12.385,11.782-12.385A17.482,17.482,0,0,1,82.18,64V58.212a40.42,40.42,0,0,0-9.163-1.259c-10.322,0-17.672,6.9-17.672,17.32,0,10.775,7.35,17.419,19.233,17.419a17.842,17.842,0,0,0,7.6-1.509l2.568-5.841Z" transform="translate(0 -14.475)" fill="#fff"/>
      <path id="Caminho_14136" data-name="Caminho 14136" d="M122.387,83.842l-7.25-9.113c4.129-.96,8-4.432,8-8.863,0-4.58-3.675-8.1-10.421-8.1H100.737v.152c2.57.955,2.216,4.633,2.216,6.948V83.842c0,2.262.353,5.988-2.216,6.895v.152h9.616v-.152c-2.566-.906-2.265-4.579-2.265-6.895V61.286a27.178,27.178,0,0,1,3.423-.406c3.373-.147,6.494,1.964,6.494,5.593,0,4.731-4.681,6.591-8.709,7.2l4.63,7.1,6.144,7.6c1.51,1.861,3.171,2.517,5.839,2.517h4.633a35.373,35.373,0,0,1-8.156-7.047m13.8-18.682c0-3.472,3.624-4.579,6.494-4.579a11.466,11.466,0,0,1,7.906,3.169V58.065a25.2,25.2,0,0,0-7.5-1.112c-6.144,0-12.637,2.419-12.637,8.761,0,10.674,17.319,9.265,17.319,17.119,0,3.526-4.33,5.236-7.2,5.236a17.427,17.427,0,0,1-11.025-4.177L131,90.183a26.047,26.047,0,0,0,9.013,1.509c7.853,0,13.491-5.034,13.491-10.421,0-9.313-17.318-9.212-17.318-16.111" transform="translate(-15.807 -14.475)" fill="#fff"/>
    </g>
  </g>
</svg>
