<svg xmlns="http://www.w3.org/2000/svg" xmlns:xlink="http://www.w3.org/1999/xlink" width="149" height="150" viewBox="0 0 149 150">
  <defs>
    <clipPath id="clip-path">
      <rect id="Retângulo_1012" data-name="Retângulo 1012" width="72.027" height="91.308" fill="#384dc5"/>
    </clipPath>
  </defs>
  <g id="Grupo_3731" data-name="Grupo 3731" transform="translate(-0.349)">
    <g id="Grupo_3723" data-name="Grupo 3723" transform="translate(0.349 0)">
      <ellipse id="Elipse_245" data-name="Elipse 245" cx="74.5" cy="75" rx="74.5" ry="75" transform="translate(0)" fill="#f2f2f2"/>
    </g>
    <g id="Grupo_3725" data-name="Grupo 3725" transform="translate(38.593 29.237)">
      <g id="Grupo_3572" data-name="Grupo 3572" transform="translate(0 0)" clip-path="url(#clip-path)">
        <path id="Caminho_14641" data-name="Caminho 14641" d="M7.457,91.308a2,2,0,0,1-.9-1.887c.032-3.3,0-6.6.016-9.9A12.062,12.062,0,0,1,17.8,67.251a1.872,1.872,0,0,0,.948-.371c1.714-1.377,3.407-2.778,5.1-4.186a1.494,1.494,0,0,0-.4-2.614c-2.979-1.207-4.049-1.958-8.16-5.746-1.147,1.943-2.92,2.109-4.773,1.4A10.952,10.952,0,0,1,7.346,53.81c-3.8-3.275-5.781-7.579-6.841-12.4-1.056-4.8-.352-9.449,1.119-14.031A48.538,48.538,0,0,1,6.31,17.122c.537-.891,1.272-1.2,1.976-.816.727.394.845,1.216.32,2.183-.637,1.173-1.305,2.331-1.9,3.527A36.84,36.84,0,0,0,2.734,35.053,21,21,0,0,0,4.861,46.114a15.322,15.322,0,0,0,5.349,6.53c.075.049.146.1.222.149,1.855,1.129,2.614.844,2.754-1.276.17-2.574.127-5.163.137-7.745a1.585,1.585,0,0,0-.4-.843,5.254,5.254,0,0,1-1.184-3.2,45.061,45.061,0,0,1,.036-4.632,10.691,10.691,0,0,1,.838-2.679c.257-.683.686-1.306.9-2a16.736,16.736,0,0,1,3.226-6.091,27,27,0,0,0,4.275-6.53,2.2,2.2,0,0,1,3.9-.556A16.226,16.226,0,0,0,33.3,22.676a19.709,19.709,0,0,1,8.469,4.7c.644.654,1.187,1.409,1.835,2.059a1.677,1.677,0,0,0,1.012.5c3.665.108,5.819,2.3,5.826,5.981,0,1.189.025,2.378-.006,3.566a5.411,5.411,0,0,1-3.159,4.987,1.32,1.32,0,0,0-.655.883c-.14,2.16-.258,4.326-.268,6.49-.007,1.549.623,2.094,2.176,1.984a8.34,8.34,0,0,0,5.964-3.167c.4-.488.22-1.461.309-2.241a4.234,4.234,0,0,1-3.161-3.051,3.911,3.911,0,0,1,3.389-4.893c1.266-.108,2.549-.019,3.924-.019.144-1.148.29-2.195.4-3.246.891-8.218-1.627-15.531-5.993-22.333a34.284,34.284,0,0,0-8.227-9.054c-4.992-3.748-10-4.125-15.209-1.21a.574.574,0,0,0-.153.091C28.483,6.15,26.915,6.266,25.05,6.1c-3.527-.307-6.431,1.419-9.042,3.571-1.368,1.127-2.554,2.477-3.809,3.74-.493.5-1,.854-1.729.514A1.283,1.283,0,0,1,10,11.9c3.46-4.094,7.4-7.5,12.922-8.389a26.4,26.4,0,0,1,3.462-.073,1.464,1.464,0,0,0,.82-.167,15.348,15.348,0,0,1,8-3.168.936.936,0,0,0,.243-.1h3.032a.83.83,0,0,0,.233.12,19.067,19.067,0,0,1,9.649,4.852A41.573,41.573,0,0,1,58.886,19.406a33.035,33.035,0,0,1,3.2,16.869c-.118,1.325-.234,2.651-.364,4.117.379,0,.724,0,1.068,0,1.663.02,3.333-.047,4.988.084a3.9,3.9,0,0,1,3.387,4.893,4.164,4.164,0,0,1-3.046,3.014V73.023c2.911,1.163,3.891,2.607,3.891,5.7,0,3.566-.017,7.133.013,10.7a2,2,0,0,1-.9,1.887H57.569a11.29,11.29,0,0,1-1.417-.367,1.115,1.115,0,0,0-1.436.367H18.335c-.575-.457-1.1-.943-.784-1.784.313-.82,1.008-.919,1.761-.892.208.007.416,0,.624,0H52c-.155-.233-.211-.33-.28-.418-3.194-4.064-3.169-8.134.043-12.251a1.039,1.039,0,0,0,.109-.911,9.047,9.047,0,0,0-7.9-5.1,1.485,1.485,0,0,0-.972.448c-1.236,1.2-2.432,2.442-3.643,3.669-1.389,1.406-1.985,1.436-3.473.17-1.6-1.361-3.193-2.725-4.808-4.1-1.689,1.442-3.314,2.831-4.941,4.216-1.3,1.1-1.991,1.072-3.21-.157-1.193-1.2-2.416-2.377-3.553-3.631a1.834,1.834,0,0,0-1.812-.605,9.448,9.448,0,0,0-8.326,9.556c-.012,2.763,0,5.527,0,8.29,0,.257.03.514.05.831,1.121,0,2.185.011,3.25,0,.753-.011,1.447.073,1.76.894.32.841-.2,1.329-.782,1.785ZM16.02,44.949c0,1.9-.01,3.767.014,5.631a1.291,1.291,0,0,0,.3.621,18.077,18.077,0,0,0,26.33,3.485c.83-.694,1.466-1.349,1.011-2.526a2.571,2.571,0,0,1-.05-.885c0-2.072,0-4.144,0-6.325h-.751c-1.9,0-3.805.033-5.706-.016a5.329,5.329,0,0,1-5.176-4.228,15.5,15.5,0,0,1-.213-1.828H30.311a5.9,5.9,0,0,1-1.067,3.847,5.445,5.445,0,0,1-4.628,2.226c-2.816-.005-5.632,0-8.6,0M65.369,48.5H57.39c0,2.776.006,5.476,0,8.177,0,1.056-.5,1.654-1.326,1.659s-1.329-.593-1.344-1.641c-.011-.785,0-1.57,0-2.342-.143-.01-.178-.024-.2-.012-.38.232-.747.486-1.138.7C51.063,56.28,48.655,57,46.049,56.051a.964.964,0,0,0-1.163.2,20.11,20.11,0,0,1-6.173,3.824,1.5,1.5,0,0,0-.386,2.621c1.622,1.349,3.242,2.7,4.9,4.007a2.778,2.778,0,0,0,1.327.568,11.962,11.962,0,0,1,9.5,6.117,3.2,3.2,0,0,0,.458.5,12.45,12.45,0,0,0,.212-2.744c0-2.734-.01-5.468.006-8.2.006-.965.571-1.565,1.367-1.539.764.025,1.259.6,1.3,1.523.009.208,0,.416,0,.624V72.9h7.955V70.978c-1.345,0-2.622.024-3.9-.009a1.314,1.314,0,0,1-1.367-1.257,1.351,1.351,0,0,1,1.332-1.39c.383-.036.772-.014,1.158-.014.937,0,1.874,0,2.795,0v-3.26c-.248-.021-.451-.05-.654-.053-1.129-.015-2.259.007-3.386-.044a1.2,1.2,0,0,1-1.23-1.269,1.217,1.217,0,0,1,1.182-1.315,9.852,9.852,0,0,1,1.155-.049c.969-.006,1.938,0,2.982,0v-3.3H64.57c-1.04,0-2.082.03-3.12-.02A1.327,1.327,0,0,1,60.08,57.64a1.359,1.359,0,0,1,1.423-1.3c.326-.018.654-.006.98-.006h2.855v-3.35c-1.352,0-2.635.079-3.9-.042a1.8,1.8,0,0,1-1.233-.9,1.5,1.5,0,0,1,.359-1.317,2.079,2.079,0,0,1,1.308-.388c1.149-.051,2.3-.017,3.5-.017Zm3.969,40.138v-.758c0-3.3.017-6.6-.012-9.9a2.328,2.328,0,0,0-2.4-2.356c-2.793-.023-5.588-.063-8.379.026a7.289,7.289,0,0,0-2.823.677A6.35,6.35,0,0,0,52.207,83.5a6.51,6.51,0,0,0,6.267,5.116c1.484.054,2.971.014,4.457.015h6.407M40.412,29.958a12.6,12.6,0,0,0-5.657-3.912c-4.264-1.453-8.5-2.922-11.566-6.69-1.111,2.763-2.968,4.889-4.727,7.1a31.486,31.486,0,0,0-2.12,3.506h4.3c1.367,0,2.734-.017,4.1,0a5.408,5.408,0,0,1,5.552,5.329c.012.254.045.508.068.755h1.452c.017-.222.031-.37.039-.517.174-3.482,2.352-5.557,5.85-5.571.861,0,1.721,0,2.708,0M21.041,32.634c-1.276,0-2.553-.018-3.828,0a2.7,2.7,0,0,0-2.811,2.8q-.035,2,0,4.006a2.7,2.7,0,0,0,2.88,2.82q3.739.027,7.478,0a2.705,2.705,0,0,0,2.86-2.844q.029-1.958,0-3.917a2.73,2.73,0,0,0-2.929-2.871c-1.217-.014-2.433,0-3.65,0m20.123,9.639c1.246,0,2.493.015,3.739,0a2.719,2.719,0,0,0,2.855-2.855q.03-1.958,0-3.917A2.718,2.718,0,0,0,44.9,32.639q-3.784-.032-7.568,0a2.689,2.689,0,0,0-2.8,2.812q-.039,2,0,4.006a2.7,2.7,0,0,0,2.887,2.811c1.246.016,2.493,0,3.739,0m20.145,3.469c1.364,0,2.728,0,4.092,0,.652,0,1.307.021,1.955-.036a1.3,1.3,0,0,0,.011-2.606,6.883,6.883,0,0,0-.71-.029q-5.248,0-10.5,0c-.353,0-.8-.069-1.039.113-.383.294-.875.777-.863,1.167a2.167,2.167,0,0,0,.856,1.266c.22.188.682.116,1.036.118,1.72.009,3.44,0,5.16,0m-32.257,22.6L25.3,64.965l-4.209,3.473,3.706,3.544,4.257-3.635m8.263,3.583,3.7-3.552-4.149-3.412L33.126,68.35l4.188,3.58m-6.23-5.357c1.123-1.011,2.127-2.029,3.25-2.89a2.06,2.06,0,0,0,.729-2.315H26.931c.143.58.1,1.41.5,1.839,1.1,1.191,2.378,2.216,3.653,3.367" transform="translate(0)" fill="#384dc5"/>
        <path id="Caminho_14642" data-name="Caminho 14642" d="M157.581,439.155a3.978,3.978,0,0,1-4.025-4,4,4,0,1,1,4.025,4m1.274-4.03a1.352,1.352,0,0,0-1.325-1.29,1.322,1.322,0,0,0-1.282,1.407,1.3,1.3,0,0,0,1.355,1.232,1.314,1.314,0,0,0,1.252-1.348" transform="translate(-126.172 -354.259)" fill="#384dc5"/>
      </g>
    </g>
  </g>
</svg>
