<?xml version="1.0" encoding="utf-8"?>
<!-- Generator: Adobe Illustrator 25.4.4, SVG Export Plug-In . SVG Version: 6.00 Build 0)  -->
<svg version="1.1" id="Camada_1" xmlns="http://www.w3.org/2000/svg" xmlns:xlink="http://www.w3.org/1999/xlink" x="0px" y="0px"
	 viewBox="0 0 174.9 100.5" style="enable-background:new 0 0 174.9 100.5;" xml:space="preserve">
<style type="text/css">
	.st0{fill:#D6D6D6;stroke:#D6D6D6;stroke-miterlimit:10;}
	.st1{fill:#FFFFFF;stroke:#D6D6D6;stroke-miterlimit:10;}
	.st2{fill:none;stroke:#D6D6D6;stroke-width:0.5;}
	.st3{fill:none;stroke:#D6D6D6;}
	.st4{fill:#D6D6D6;stroke:#D6D6D6;stroke-width:0.5;}
	.st5{fill:none;stroke:#FF0000;stroke-width:0.5;}
</style>
<g>
	<path id="Caminho_14181" class="st0" d="M173.9,44.2c0.8,2.1-0.7,4-1.8,4.8c-2.1,1.6-5.9,2.3-9.1,3.1c-0.5,0.1-1,0.2-1.4,0.3
		c-0.5,0.3-0.8,1.2-1,1.8c-0.8,2.3-0.9,5.9,1.5,6.6c3,0.9,5.1-2.1,7-3.3c-0.3,0.8-0.7,1.4-1.3,1.9c-1.6,1.5-5.6,4.1-8.6,2.6
		c-3.3-1.6-2.1-6.6-0.6-9.6c1.5-3.1,3.8-5.7,6.6-7.6c1.5-1.1,3.2-1.8,5-2C171.7,42.6,173.4,43,173.9,44.2 M171.7,46.2
		c0.3-1.1-0.2-2.2-1.3-2.5c-0.4-0.1-0.8-0.1-1.2,0c-1.9,0.3-3.5,2.2-4.6,3.5c-1.1,1.2-1.9,2.6-2.6,4C165.9,51,171,49.7,171.7,46.2"
		/>
	<path id="Caminho_14183" class="st0" d="M159.3,42.9c0.2,0.5,0,1.2-0.6,1.4c-0.7,0.2-1-0.5-1.7-0.6c-0.7-0.1-1.5,0-2.2,0.3
		c1.5,5.5-1.9,10.3-6.9,10.7c-1.8,0.1-5.4-1-5.2,1.7c0.1,0.5,0.3,0.9,0.6,1.2c1.1,1.3,3,2.1,4.6,3.1c1.6,1.1,3.7,2.6,4.1,4.5
		c0.2,0.9,0.1,1.8-0.3,2.6c-1.7,3.4-9.7,4.1-13.7,2.1c-1.7-0.8-4-3-2.7-5.5c1.2-2.2,4-3,6.7-3.9c-0.9-0.9-2.1-1.7-2.1-3.3
		c0-2.2,2.4-2.9,4-3.7c-0.1-0.6-0.6-1.1-0.8-1.7c-1.8-6,6.3-11.8,11.4-8.2c1-0.3,2.2-1.2,3.5-1.3C158.7,42.3,159.2,42.5,159.3,42.9
		 M152.7,47.5c0.3-0.8,0.9-2.4,0.3-3.5c-0.4-0.6-1.1-0.9-1.8-0.8c-1.3,0.2-2.7,1.7-3.6,2.8c-1.2,1.4-2.6,3.2-2.5,5.5
		c0.1,3.1,2.7,2.3,4.2,1C150.9,51.2,152,49.4,152.7,47.5 M149.3,68.2c0.8-2.4-1.4-3.7-2.6-4.7c-1-0.7-2.6-2-4-1.9
		c-1.9,0-3.7,1-4.8,2.6c-1.2,2.4,0.7,4.4,2.4,5.3C142.9,70.8,148.3,70.8,149.3,68.2"/>
	<path id="Caminho_14185" class="st1" d="M148.8,0.4c2.7,0.3,3.4,3.7,1.8,5.6c-0.5,0.6-1.1,1-1.7,1.4c-0.7,0.4-1.6,0.8-2.2,0.5
		c0.4-0.4,0.9-0.4,1.3-0.6c0.8-0.5,1.3-1.2,1.6-2.1C145.1,6.6,144.4-0.1,148.8,0.4"/>
	<path id="Caminho_14187" class="st0" d="M145.5,85.7c0.3,3.6-0.9,7.2-3.3,9.9c-2.3,2.6-5.5,4.2-8.9,4.4c-3.6,0.3-7.2-1-10-3.4
		c-2.5-2.3-4.1-5.5-4.3-9c-0.4-3.6,0.8-7.2,3.3-9.9c2.3-2.6,5.5-4.2,9-4.4c7.3-0.6,13.7,4.8,14.2,12.1
		C145.5,85.5,145.5,85.6,145.5,85.7 M141.3,90c0.5-3.6,0-7.2-1.3-10.6c-1.3-2.8-4.1-6-8.7-5.5c-2.4,0.3-4.5,1.6-5.8,3.5
		c-1.4,2-2.2,4.4-2.4,6.8c-0.6,5.9,1.3,11.1,4.5,13.6c2.8,2,6.5,2.1,9.3,0.2C139.3,96.4,140.8,93.6,141.3,90"/>
	<path id="Caminho_14188" class="st0" d="M145.5,17.3c-0.3,0.5-1.2,0.3-1.8,0.4c-0.9,0.1-1.7,0.7-2,1.5c-0.2,1.2-0.2,2.5-0.1,3.7
		c0.1,1.3,0.1,2.5,0,3.8c-0.1,0.4-1,0.9-1.4,1.2c-4.1,2.8-9.1,3.9-14,3.2c-8.5-1.1-14.3-6.4-13.7-16.5c0.1-2.7,1-5.3,2.5-7.5
		c2.7-3.8,7.6-6.5,13.6-6.7c3.7-0.2,7.4,0.8,10.5,2.8c0.4,0.3,0.8,0.5,1.3,0.6c1.1,0,1.2-1,1.9-1.6c0.2,2.5,0.2,4.9-0.1,7.4
		c-0.4-0.4-0.7-1-0.9-1.5c-1.8-3.6-4.9-6.7-10-7.1c-8.7-0.6-13.1,6-13.8,13.5c-0.4,3.9,0.5,7.7,2.5,11c1.7,2.8,4.2,5.1,8.2,5.4
		c3.4,0.2,7-0.9,8.2-3c0.5-0.9,0.3-2.7,0.3-4.5c0.1-1.2,0.1-2.4-0.1-3.5c-0.3-1.1-1.6-1.9-3-2.1c-0.6-0.1-1.5,0.2-2-0.4
		c0.3-0.4,1-0.3,1.5-0.3h8.9C143.2,17,144.4,17.1,145.5,17.3"/>
	<path id="Caminho_14190" class="st0" d="M140,44c0.8,1.7-0.4,3.7-1.3,4.6c-2.5,2.2-7.2,2.8-10.9,3.7c-1.8,2.2-2.6,8.5,1.5,8.5
		c1.5-0.1,2.9-0.7,4-1.7c0.6-0.7,1.3-1.2,2.1-1.7c-0.3,0.8-0.8,1.4-1.4,1.9c-1.6,1.5-5.6,4.1-8.7,2.5c-3.3-1.7-1.8-6.7-0.4-9.5
		c1.4-3.1,3.7-5.7,6.5-7.6c1.5-1.1,3.2-1.8,5-2C138,42.5,139.4,42.9,140,44 M136.3,48.6c1-0.8,1.6-2,1.6-3.3
		c-0.1-1.1-1.1-1.9-2.2-1.9c-0.2,0-0.4,0.1-0.5,0.1c-2,0.6-3.3,2.1-4.6,3.7c-1,1.1-1.8,2.4-2.4,3.8C131.3,51,134.4,50.2,136.3,48.6"
		/>
	<path id="Caminho_14192" class="st1" d="M125.3,35.5c0.2,0,0.5-0.2,0.8,0.1c-0.2,1.1-0.6,2.2-1.2,3.2c-2.6,6.1-5.5,12.4-8.3,18.4
		c-0.6,1-0.9,2-1.2,3.1c1.8-0.5,2.6-2.3,3.9-3.1c-0.6,1.2-1.5,2.3-2.5,3.1c-0.9,1.1-2.2,1.8-3.6,2c-1.2-0.7-0.1-3,0.4-4.2
		c3.1-7.1,6.8-14.5,9.7-21.6c-0.3-0.6-1.9,0.1-2.2-0.6C122.6,35.8,124,35.6,125.3,35.5"/>
	<path id="Caminho_14193" class="st0" d="M114.1,35.7c1-0.2,1.9-0.2,2.9-0.1c-0.7,2.2-1.6,4.3-2.6,6.3c-1.8,4.1-3.6,8.1-5.5,12.3
		c-1,2-1.9,4.1-2.6,6.2c1,0,1.5-0.8,2.1-1.4c0.6-0.6,1.2-1.2,1.9-1.7c-1,1.8-2.4,3.4-4.1,4.6c-1.2,0.8-3,1.1-2.4-1.2
		c0.5-1.7,1.2-3.3,2.1-4.9c2.8-6.4,5.9-13,8.5-19.1c-0.4-0.5-1.7-0.1-2.2-0.4C112.4,35.7,113.4,35.8,114.1,35.7"/>
	<path id="Caminho_14194" class="st0" d="M112,77.3c2.6,3,3.7,9.1,2,14.1c-1.5,4.2-4.9,6.9-9.6,8c-3.5,0.8-8.4,0.4-12.6,0.6
		c-0.7,0-1.4,0-2.1,0.1c-0.6,0-1.3,0.3-1.9-0.2c0.2-0.4,1.4-0.4,1.9-0.6c1.6-0.9,1.1-4.7,1.1-7.4v-11c0-2.6,0.4-5.5-1.1-6.4
		c-0.6-0.4-1.4-0.3-1.9-0.7c0.5-0.5,1.6-0.2,2.5-0.3c2.5-0.1,5.7-0.1,8.2-0.2C104.5,73,109.2,74.1,112,77.3 M110.6,88.5
		c1.1-9.6-4-15.2-13.5-14.5c-2.2,0.2-2.8,0.9-2.8,3.3v15.6c0,2.5-0.2,4.5,0.8,5.5c0.9,0.9,2.3,0.8,3.9,0.8
		C106.4,99.5,109.9,94.9,110.6,88.5"/>
	<path id="Caminho_14196" class="st0" d="M110,0.9c-0.4,0.5-1.3,0.2-1.9,0.4c-1.3,0.4-1.9,1.8-2.1,3.5c-0.3,3.6,0.1,7.9,0.1,12.1
		c0,4.7,0.1,9.3,0.1,13.4c-1.3,0.4-1.9-0.5-2.6-1.4c-7.2-8.1-14.6-16.4-21.8-24.4c0.1,3.6,0.2,7.7,0.3,11.8
		c0.1,3.6-0.1,7.2,0.1,10.4c0,1,0.5,2,1.2,2.8c0.9,0.8,2,0.8,3,1.2c-0.3,0.6-1.3,0.4-2,0.4H82c-1.5,0.1-3,0.1-4.5-0.2
		c0-0.6,1.1-0.4,1.5-0.6c2-0.8,2-3.8,2-7V10.5c0-2.2,0.2-4.3,0-6.4c-0.1-1-0.6-1.9-1.5-2.4c-0.6-0.3-1.5-0.3-1.7-0.8
		c0-0.2,0.1-0.2,0.2-0.3h3.5c1.2-0.1,2.4-0.1,3.5,0c0.3,0.1,0.9,0.9,1.3,1.3c6.3,7,12.8,14.5,19,21.4c-0.1-2.8,0-6.1-0.2-9.3
		s0.1-6.5-0.2-9.3c-0.1-1.5-1.1-2.8-2.6-3.3c-0.6-0.2-1.4,0-2-0.6c0.1-0.4,0.7-0.2,1-0.3c2,0,4.2,0,6.3,0
		C108.6,0.6,109.5,0.4,110,0.9"/>
	<path id="Caminho_14197" class="st0" d="M97.4,42.2c4.2-0.5,5.8,2.7,5.6,7.1c-0.2,2.7-1.1,5.2-2.6,7.5c-1.2,2.1-3,3.8-5.1,4.9
		c-1.6,0.7-3.5,0.8-5.2,0.1c-4.4-2.2-2.3-10.1-0.4-13.5c1.1-2.4,3-4.3,5.4-5.5C95.8,42.4,96.6,42.2,97.4,42.2 M100.2,51
		c0.9-2.1,2.8-8.6-1.5-7.9c-0.3,0-0.5,0.1-0.8,0.2c-2.5,1.1-4.3,3.8-5.8,6.4c-0.8,1.3-1.4,2.7-2,4.1c-0.7,2-1.9,6.6,0.4,7.3
		C92.3,61.6,94,60,95,59C97.2,56.7,99,54,100.2,51"/>
	<path id="Caminho_14199" class="st0" d="M86.7,38.2c0.8,0,0.9-1.1,1.7-0.8c-0.4,1.9-0.9,3.8-1.5,5.6c-0.2,0.6-0.1,1.4-0.8,1.6
		c-0.5-0.8-0.2-1.8-0.3-2.6c-0.2-3.6-2.6-6.5-7-6c-2.6,0.2-4.7,2.1-6.2,3.5c-1.7,1.6-3.2,3.4-4.4,5.3c-1.4,2.1-2.4,4.4-3,6.8
		c-0.9,4.3-0.3,9.7,4.1,10.1c1.5,0,3-0.3,4.4-0.9c3.1-1.1,5.8-3,7.8-5.5c0.4-0.4,0.7-1.2,1.4-1.2c-0.1,0.8-0.3,1.6-0.6,2.3
		c-0.5,1.5-1,3-1.5,4.5c-0.2,0.7-0.5,1.4-1,2.1c-0.8-0.4-0.4-2.1-1.2-2.6c-1.4,0.4-2.4,1-3.9,1.4c-1.4,0.5-2.9,0.8-4.4,0.8
		c-4.3,0-6.9-2.1-8-5.3c-1.2-3.5,0-7.8,1.5-10.8c2.8-5.6,7.9-10.5,15.5-11c2.1-0.1,4.2,0.5,5.9,1.7C85.8,37.4,86.3,38.2,86.7,38.2"
		/>
	<path id="Caminho_14200" class="st0" d="M85.4,73.6c-0.3,0.4-1,0.2-1.5,0.4c-2.7,0.9-2.4,4.9-2.2,8.8c0.2,5.3,0,11.9,0.1,17
		c-0.9,0.3-1.4-0.4-1.9-1C73.5,91.4,67,83.7,60.6,76.2c0.1,4.9,0.3,10.7,0.3,16c0,3.2-0.3,6.1,2.1,6.9c0.5,0.2,1.1,0,1.5,0.5
		c-0.3,0.5-1.1,0.3-1.7,0.3c-1.9,0.1-3.9,0-5.8-0.1c0-0.5,1-0.4,1.4-0.6c2-0.9,1.7-4.9,1.7-8S60,84.2,60,81c0-2.5,0.4-5.4-0.8-6.5
		c-0.6-0.3-1.3-0.6-1.9-0.9c0-0.2,0.1-0.2,0.2-0.3h3.1c1-0.1,2.1-0.1,3.1,0c0.3,0.1,0.8,0.8,1.2,1.3c5.4,6.4,11.1,13.2,16.4,19.5
		c0-3.7-0.3-8.7-0.3-12.8c0-2.4,0.2-5.3-1-6.4c-0.4-0.4-0.9-0.6-1.4-0.8c-0.5-0.2-1.2,0-1.7-0.5c2.2-0.2,4.4-0.2,6.5-0.1
		C84.1,73.3,84.8,73.4,85.4,73.6"/>
	<path id="Caminho_14201" class="st0" d="M74.4,30.9c-0.3,0.4-1,0.2-1.5,0.2c-2.8,0-5.9-0.1-8.8,0c-1.1,0.2-2.2,0.1-3.2-0.1
		c0.3-0.6,1.2-0.3,1.8-0.5c3-0.6,2.5-3.8,2.5-7.7V10.4c0-2.5,0.5-6.1-0.5-7.7c-0.2-0.4-0.6-0.8-1-1c-0.9-0.6-2.2-0.5-3.1-0.8
		c0.1-0.1,0.1-0.2,0.3-0.3c3.5-0.1,8.3-0.1,12.1-0.1c0.4,0,1.1-0.2,1.3,0.3c-0.3,0.4-1.1,0.3-1.7,0.4c-1.3,0.2-2.4,1.2-2.6,2.6
		c-0.1,2-0.1,3.9,0,5.9v11.8c0,2.5-0.4,5.9,0.5,7.4c0.4,0.7,1.1,1.2,1.9,1.4C73.1,30.6,74.1,30.4,74.4,30.9"/>
	<path id="Caminho_14202" class="st0" d="M55,85.6c0.4,3.6-0.8,7.2-3.1,10c-2.2,2.6-5.4,4.2-8.9,4.4c-3.6,0.3-7.3-0.8-10-3.2
		c-2.5-2.3-4.1-5.5-4.4-8.9c-0.4-3.6,0.7-7.3,3.1-10c2.2-2.6,5.4-4.3,8.9-4.6c3.7-0.3,7.3,0.8,10.1,3.3C53.2,78.9,54.8,82.1,55,85.6
		 M44.5,99.1c5.2-1.7,7.4-8.8,6.2-15.3c-0.4-2.4-1.4-4.7-2.9-6.7c-1.6-2-4-3.2-6.5-3.1c-1.5,0.1-2.9,0.5-4.1,1.3
		c-3.5,2.5-5.3,7.9-4.5,13.8c0.3,2.5,1.2,4.8,2.6,6.8C37.3,98.9,41.1,100.2,44.5,99.1"/>
	<path id="Caminho_14204" class="st0" d="M28,91.9c-0.2,2.7-0.9,5.3-1.3,7.9H6c-0.9,0.1-1.9,0-2.8-0.2c0.5-0.4,1.5-0.2,2.2-0.5
		C7.5,98.3,7,94.7,7,91.5v-10c0-1.9,0.3-4.3-0.2-5.6c-0.6-1.5-2-2-3.7-2.3v-0.2c0.1,0,0.1-0.1,0.1-0.1h8.5c0.9-0.1,1.8,0,2.6,0.2
		c-1.3,0.6-2.7,0.6-3.2,1.9c-0.5,1.2-0.1,3.8-0.1,5.5v11.3c0,2.1-0.4,5.5,0.7,6.4c1.2,1,3.5,0.7,5.4,0.6c1.8,0,3.6-0.3,5.3-0.9
		c2-1,3.6-2.7,4.5-4.8C27.2,93.1,27.4,92.2,28,91.9"/>
	<line id="Linha_19" class="st2" x1="174.6" y1="73.4" x2="174.6" y2="73.8"/>
	<path id="Caminho_14205" class="st2" d="M57.4,73.4h3.1c1-0.1,2.1-0.1,3.1,0c0.3,0.1,0.8,0.8,1.2,1.3c5.4,6.4,11.1,13.2,16.4,19.5
		c0-3.7-0.3-8.7-0.3-12.8c0-2.4,0.2-5.3-1-6.4c-0.4-0.4-0.9-0.6-1.4-0.8c-0.5-0.2-1.2,0-1.7-0.5c2.2-0.2,4.4-0.2,6.5-0.1
		c0.7-0.1,1.4-0.1,2,0.2c-0.3,0.4-1,0.2-1.5,0.4c-2.7,0.9-2.4,4.9-2.2,8.8c0.2,5.3,0,11.9,0.1,17c-0.9,0.3-1.4-0.4-1.9-1
		C73.5,91.4,67,83.7,60.6,76.2c0.1,4.9,0.3,10.7,0.3,16.1c0,3.2-0.3,6.1,2.1,6.9c0.5,0.2,1.1,0,1.5,0.5c-0.3,0.5-1.1,0.3-1.7,0.3
		c-1.9,0.1-3.9,0-5.8-0.1c0-0.5,1-0.4,1.4-0.6c2-0.9,1.7-4.9,1.7-8S60,84.2,60,81c0-2.5,0.4-5.4-0.8-6.5c-0.6-0.3-1.3-0.6-1.9-0.9
		C57.2,73.5,57.3,73.4,57.4,73.4z"/>
	<path id="Caminho_14206" class="st2" d="M14.4,73.6c-1.3,0.6-2.7,0.6-3.2,1.9c-0.5,1.2-0.1,3.8-0.1,5.5v11.3c0,2.1-0.4,5.5,0.7,6.4
		c1.2,1,3.5,0.7,5.4,0.6c1.8,0,3.6-0.3,5.3-0.9c2-1,3.6-2.7,4.5-4.8c0.3-0.6,0.5-1.4,1.2-1.7c-0.2,2.7-0.9,5.3-1.3,7.9H6
		c-0.9,0.1-1.9,0-2.8-0.2c0.5-0.4,1.5-0.2,2.2-0.5C7.5,98.3,7,94.7,7,91.5v-10c0-1.9,0.3-4.3-0.2-5.6c-0.6-1.5-2-2-3.7-2.3v-0.2
		c0.1,0,0.1-0.1,0.1-0.1h8.5C12.6,73.3,13.5,73.3,14.4,73.6z"/>
	<path id="Caminho_14207" class="st3" d="M40.6,73.4c3.7-0.3,7.3,0.8,10.1,3.3c2.6,2.3,4.2,5.5,4.4,8.9c0.4,3.6-0.8,7.2-3.1,10
		c-2.2,2.6-5.4,4.2-8.9,4.4c-3.6,0.3-7.3-0.8-10-3.2c-2.5-2.3-4.1-5.5-4.4-8.9c-0.4-3.6,0.7-7.3,3.1-10C34,75.3,37.1,73.7,40.6,73.4
		z"/>
	<path id="Caminho_14208" class="st3" d="M131.3,73.3c7.3-0.6,13.6,4.8,14.2,12.1c0,0.1,0,0.2,0,0.3c0.3,3.6-0.9,7.2-3.3,9.9
		c-2.3,2.6-5.5,4.2-8.9,4.4c-3.6,0.3-7.2-1-10-3.4c-2.5-2.3-4.1-5.5-4.3-9c-0.4-3.6,0.8-7.2,3.3-9.9
		C124.6,75.1,127.8,73.5,131.3,73.3z"/>
	<path id="Caminho_14209" class="st3" d="M87.8,99.8c0.2-0.4,1.4-0.4,1.9-0.6c1.6-0.9,1.1-4.7,1.1-7.4v-11c0-2.6,0.4-5.5-1.1-6.4
		c-0.6-0.4-1.4-0.3-1.9-0.7c0.5-0.5,1.6-0.2,2.5-0.3c2.5-0.1,5.7-0.1,8.2-0.2c6.1-0.3,10.8,0.9,13.5,4c2.6,3,3.7,9.1,2,14.1
		c-1.5,4.2-4.9,6.9-9.6,8c-3.5,0.8-8.4,0.4-12.6,0.6c-0.7,0-1.4,0-2.1,0.1C89.1,100,88.3,100.3,87.8,99.8z"/>
	<path id="Caminho_14210" class="st2" d="M169.2,57.4c-0.3,0.8-0.7,1.4-1.3,1.9c-1.6,1.5-5.6,4.1-8.6,2.6c-3.3-1.6-2.1-6.6-0.6-9.6
		c1.5-3.1,3.8-5.7,6.6-7.6c1.5-1.1,3.2-1.8,5-2c1.5-0.1,3.2,0.3,3.7,1.5c0.8,2.1-0.7,4-1.8,4.8c-2.1,1.6-5.9,2.3-9.1,3.1
		c-0.5,0.1-1,0.2-1.4,0.3c-0.5,0.3-0.8,1.2-1,1.8c-0.8,2.3-0.9,5.9,1.5,6.6C165.1,61.6,167.3,58.6,169.2,57.4z"/>
	<path id="Caminho_14211" class="st2" d="M127.7,52.3c-1.8,2.2-2.6,8.5,1.5,8.5c1.5-0.1,2.9-0.7,4-1.7c0.6-0.7,1.3-1.2,2.1-1.7
		c-0.3,0.8-0.8,1.4-1.4,1.9c-1.6,1.5-5.6,4.1-8.7,2.5c-3.3-1.7-1.8-6.7-0.4-9.5c1.4-3.1,3.7-5.7,6.5-7.6c1.5-1.1,3.2-1.8,5-2
		c1.7-0.1,3.1,0.2,3.6,1.3c0.8,1.7-0.4,3.7-1.3,4.6C136.1,50.7,131.4,51.3,127.7,52.3z"/>
	<path id="Caminho_14212" class="st2" d="M154.8,44c1.5,5.5-1.9,10.3-6.9,10.7c-1.8,0.1-5.4-1-5.2,1.7c0.1,0.5,0.3,0.9,0.6,1.2
		c1.1,1.3,3,2.1,4.6,3.1c1.6,1.1,3.7,2.6,4.1,4.5c0.2,0.9,0.1,1.8-0.3,2.6c-1.7,3.4-9.7,4.1-13.7,2.1c-1.7-0.8-4-3-2.7-5.5
		c1.2-2.2,4-3,6.7-3.9c-0.9-0.9-2.1-1.7-2.1-3.3c0-2.2,2.4-2.9,4-3.7c-0.1-0.6-0.6-1.1-0.8-1.7c-1.8-6,6.3-11.8,11.4-8.2
		c1-0.3,2.2-1.2,3.5-1.3c0.6,0,1,0.2,1.2,0.6c0.2,0.5,0,1.2-0.6,1.4c-0.7,0.2-1-0.5-1.7-0.6C156.3,43.6,155.5,43.7,154.8,44z"/>
	<path id="Caminho_14213" class="st2" d="M97.4,42.2c4.2-0.5,5.8,2.7,5.6,7.1c-0.2,2.7-1.1,5.2-2.6,7.5c-1.2,2.1-3,3.8-5.1,4.9
		c-1.6,0.8-3.5,0.8-5.2,0.1c-4.4-2.2-2.3-10.1-0.4-13.5c1.1-2.4,3-4.3,5.4-5.5C95.8,42.4,96.6,42.2,97.4,42.2z"/>
	<path id="Caminho_14214" class="st4" d="M126.1,35.6c-0.2,1.1-0.6,2.2-1.2,3.2c-2.6,6.1-5.5,12.4-8.3,18.4c-0.6,1-0.9,2-1.2,3.1
		c1.8-0.5,2.6-2.3,3.9-3.1c-0.6,1.2-1.5,2.3-2.5,3.1c-0.9,1.1-2.2,1.8-3.6,2c-1.2-0.7-0.1-3,0.4-4.2c3.1-7.1,6.8-14.5,9.7-21.6
		c-0.3-0.6-1.9,0.1-2.2-0.6c1.3-0.3,2.7-0.4,4-0.5C125.5,35.5,125.9,35.4,126.1,35.6z"/>
	<path id="Caminho_14215" class="st2" d="M117,35.6c-0.7,2.2-1.6,4.3-2.6,6.3c-1.8,4.1-3.6,8.1-5.5,12.3c-1,2-1.9,4.1-2.6,6.2
		c1,0,1.5-0.8,2.1-1.4c0.6-0.6,1.2-1.2,1.9-1.7c-1,1.8-2.4,3.4-4.1,4.6c-1.2,0.8-3,1.1-2.4-1.2c0.5-1.7,1.2-3.3,2.1-4.9
		c2.8-6.4,5.9-13,8.5-19.1c-0.4-0.5-1.7-0.1-2.2-0.4c0.3-0.5,1.2-0.4,1.9-0.4C115,35.6,116,35.5,117,35.6z"/>
	<path id="Caminho_14216" class="st2" d="M88.5,37.4c-0.4,1.9-0.9,3.8-1.5,5.6c-0.2,0.6-0.1,1.4-0.8,1.6c-0.5-0.8-0.2-1.8-0.3-2.6
		c-0.2-3.6-2.6-6.5-7-6c-2.6,0.2-4.7,2.1-6.2,3.5c-1.7,1.6-3.2,3.4-4.4,5.3c-1.4,2.1-2.4,4.4-3,6.8c-0.9,4.3-0.3,9.7,4.1,10.1
		c1.5,0,3-0.3,4.4-0.9c3.1-1.1,5.8-3,7.8-5.5c0.4-0.4,0.7-1.2,1.4-1.2c-0.1,0.8-0.3,1.6-0.6,2.3c-0.5,1.5-1,3-1.5,4.5
		c-0.2,0.7-0.5,1.4-1,2.1c-0.8-0.4-0.4-2.1-1.2-2.6c-1.4,0.4-2.4,1-3.9,1.4c-1.4,0.5-2.9,0.8-4.4,0.8c-4.3,0-6.9-2.1-8-5.3
		c-1.2-3.5,0-7.8,1.5-10.8c2.8-5.6,7.9-10.5,15.5-11c2.1-0.1,4.2,0.5,5.9,1.7c0.4,0.3,0.9,1.1,1.3,1.2
		C87.5,38.3,87.6,37.2,88.5,37.4z"/>
	<path id="Caminho_14217" class="st2" d="M78,0.6h3.5c1.2-0.1,2.4-0.1,3.5,0c0.3,0.1,0.9,0.9,1.3,1.3c6.3,7,12.8,14.5,19,21.4
		c-0.1-2.8,0-6.1-0.2-9.3s0.1-6.5-0.2-9.3c-0.1-1.5-1.1-2.8-2.6-3.3c-0.6-0.2-1.4,0-2-0.6c0.1-0.4,0.7-0.2,1-0.3c2,0,4.2,0,6.3,0
		c0.8,0,1.7-0.2,2.2,0.3c-0.4,0.5-1.3,0.2-1.9,0.4c-1.3,0.4-1.9,1.8-2.1,3.5c-0.3,3.6,0.1,7.9,0.1,12.1c0,4.7,0.1,9.3,0.1,13.4
		c-1.3,0.4-1.9-0.5-2.6-1.4c-7.2-8.1-14.6-16.4-21.8-24.4c0.1,3.6,0.2,7.7,0.3,11.8c0.1,3.6-0.1,7.2,0.1,10.4c0,1,0.5,2,1.2,2.8
		c0.9,0.8,2,0.8,3,1.2c-0.3,0.6-1.3,0.4-2,0.4H82c-1.5,0.1-3,0.1-4.5-0.2c0-0.6,1.1-0.4,1.5-0.6c2-0.8,2-3.8,2-7V10.4
		c0-2.2,0.2-4.3,0-6.4c-0.1-1-0.6-1.9-1.5-2.4c-0.6-0.3-1.5-0.3-1.7-0.8C77.8,0.7,77.9,0.6,78,0.6z"/>
	<path id="Caminho_14218" class="st2" d="M74.3,0.9c-0.3,0.4-1.1,0.3-1.7,0.4c-1.3,0.2-2.4,1.2-2.6,2.6c-0.1,2-0.1,3.9,0,5.9v11.8
		c0,2.5-0.4,5.9,0.5,7.4c0.4,0.7,1.1,1.2,1.9,1.4c0.6,0.2,1.5,0,1.9,0.4c-0.3,0.4-1,0.2-1.5,0.2c-2.8,0-5.9-0.1-8.8,0
		c-1.1,0.2-2.2,0.1-3.2-0.1c0.3-0.6,1.2-0.3,1.8-0.5c3-0.6,2.5-3.8,2.5-7.7V10.4c0-2.5,0.5-6.1-0.5-7.7c-0.2-0.4-0.6-0.8-1-1
		c-0.9-0.6-2.2-0.5-3.1-0.8c0.1-0.1,0.1-0.2,0.3-0.3c3.5-0.1,8.3-0.1,12.1-0.1C73.4,0.6,74.1,0.4,74.3,0.9z"/>
	<line id="Linha_20" class="st5" x1="0.2" y1="1.3" x2="0.2" y2="1"/>
	<path id="Caminho_14219" class="st4" d="M146.6,7.9c0.4-0.4,0.9-0.4,1.3-0.6c0.8-0.5,1.3-1.2,1.6-2.1c-4.4,1.4-5.1-5.2-0.8-4.7
		c2.7,0.3,3.4,3.7,1.8,5.6c-0.5,0.6-1.1,1-1.7,1.4C148.1,7.9,147.2,8.3,146.6,7.9z"/>
	<path id="Caminho_14220" class="st2" d="M142.3,2.2c0.2,2.5,0.2,4.9-0.1,7.4c-0.4-0.4-0.7-1-0.9-1.5c-1.8-3.6-4.9-6.7-10-7.1
		c-8.7-0.6-13.1,6-13.8,13.5c-0.4,3.9,0.5,7.7,2.5,11c1.7,2.8,4.2,5.1,8.2,5.4c3.4,0.2,7-0.9,8.2-3c0.5-0.9,0.3-2.7,0.3-4.5
		c0.1-1.2,0.1-2.4-0.1-3.5c-0.3-1.1-1.6-1.9-3-2.1c-0.6-0.1-1.5,0.2-2-0.4c0.3-0.4,1-0.3,1.5-0.3h8.9c1.1-0.1,2.2,0,3.3,0.2
		c-0.3,0.5-1.2,0.3-1.8,0.4c-0.9,0.1-1.7,0.7-2,1.5c-0.2,1.2-0.2,2.5-0.1,3.7c0.1,1.3,0.1,2.5,0,3.8c-0.1,0.4-1,0.9-1.4,1.2
		c-4.1,2.8-9.1,3.9-14,3.2c-8.5-1.1-14.3-6.4-13.7-16.5c0.1-2.7,1-5.3,2.5-7.5c2.7-3.8,7.6-6.5,13.6-6.7c3.7-0.2,7.4,0.8,10.5,2.8
		c0.4,0.3,0.8,0.5,1.3,0.6C141.5,3.8,141.6,2.7,142.3,2.2z"/>
	<line id="Linha_21" class="st5" x1="170.3" y1="0.4" x2="170.6" y2="0.4"/>
	<path id="Caminho_14221" class="st0" d="M174.6,73.4c-2.6,0.1-5.6-0.2-8,0.1c0.7,0.5,1.6,0.4,2.2,0.7c1.9,0.9,1.8,3.2,1.8,6.2
		c0,4.4,0.3,9.3,0.3,13.5c-0.3,0.1-0.4-0.3-0.5-0.4c-5.6-6.6-11.4-13.5-17-20.1h-5c-0.5,0-1.1-0.1-1.4,0.2c0.3,0.4,1,0.4,1.4,0.6
		c0.7,0.3,1.2,1,1.4,1.7c0.2,1.9,0.2,3.7,0.1,5.6v11.3c0,2.6,0.1,5-1.3,6.1c-0.5,0.3-1.6,0.3-1.8,0.7c0.5,0.3,1.2,0.2,1.9,0.2h4
		c0.6,0,1.4,0.2,1.7-0.3c-0.2-0.3-0.7-0.3-1-0.4c-2.7-0.6-2.6-3.1-2.6-6.6c0-5.3-0.3-11.4-0.3-16.2c0.1-0.1,0.5,0.3,0.6,0.5
		c6.1,7.3,12.3,14.7,18.6,22c0.5,0.5,0.9,1.3,1.8,1c0.1-5.5,0.1-11.9,0-17.8c-0.1-3.9-0.6-7.9,3.1-8.2"/>
	<path id="Caminho_14222" class="st2" d="M174.6,73.4c-2.6,0.1-5.6-0.2-8,0.1c0.7,0.5,1.6,0.4,2.2,0.7c1.9,0.9,1.8,3.2,1.8,6.2
		c0,4.4,0.3,9.3,0.3,13.5c-0.3,0.1-0.4-0.3-0.5-0.4c-5.6-6.6-11.4-13.5-17-20.1h-5c-0.5,0-1.1-0.1-1.4,0.2c0.3,0.4,1,0.4,1.4,0.6
		c0.7,0.3,1.2,1,1.4,1.7c0.2,1.9,0.2,3.7,0.1,5.6v11.3c0,2.6,0.1,5-1.3,6.1c-0.5,0.3-1.6,0.3-1.8,0.7c0.5,0.3,1.2,0.2,1.9,0.2h4
		c0.6,0,1.4,0.2,1.7-0.3c-0.2-0.3-0.7-0.3-1-0.4c-2.7-0.6-2.6-3.1-2.6-6.6c0-5.3-0.3-11.4-0.3-16.2c0.1-0.1,0.5,0.3,0.6,0.5
		c6.1,7.3,12.3,14.7,18.6,22c0.5,0.5,0.9,1.3,1.8,1c0.1-5.5,0.1-11.9,0-17.8c-0.1-3.9-0.6-7.9,3.1-8.2"/>
	<path id="Caminho_14223" class="st0" d="M0.3,1.3c0.8,0.5,1.9,0.4,3,0.6C5.8,2.4,8.4,4.2,8.7,7c0.1,1.3,0.1,2.7,0,4
		c0,11.6,0.1,23.5,0.1,35.2c0,5.2,0.4,10.8-2.4,13.2c-1.3,0.9-2.8,1.4-4.4,1.5c-0.9,0.1-1.3,0.2-1.3,0.6c0,0.8,2.1,0.6,2.9,0.6
		c7,0,13.3,0.1,20.2,0.1c0.9,0,2.8,0.2,2.9-0.5c0.1-0.8-0.9-0.7-1.7-0.8c-5.5-0.2-7.9-3.3-8.2-8.9c-0.2-5-0.1-9.2-0.1-14.4
		c0-1.1-0.3-4,0.6-4.4c1.4-0.6,3.4,1.7,4.2,2.6c7.9,8.7,14.8,17.1,22.5,26.3c4.7,0,8.9,0.1,13.9,0.1c1.1,0,4,0.3,4.1-0.5
		c0.1-0.9-2.6-0.8-3.5-1c-3.3-0.7-6.2-2.4-8.5-4.9c-3.1-3.1-5.7-6.3-8.4-9.4c-5.7-6.6-11.1-13-16.4-19.3c4.7-4.8,9.2-9.7,14.1-14.3
		c4.2-3.9,8.2-8.3,14.2-10.5c0.9-0.2,1.7-0.5,2.5-1c-0.4-0.9-1.5-0.6-2.2-0.5c-5.4,0.2-11.3,0.3-16.8,0c-0.8,0-1.8-0.4-2.4,0.3
		c0.3,1,1.5,0.7,2.1,0.8c1.7,0.2,3.5,0.9,4.1,2.2c0.4,1,0.4,2.2,0,3.2c-0.7,1.3-1.5,2.5-2.4,3.7c-4.3,5.7-9.1,10.9-14.4,15.6
		c-1.6,1.5-3,2.7-4.9,4.2c-0.6,0.5-1.4,1.2-1.8,1c-0.8-0.3-0.3-3.5-0.3-4.5c0.1-5,0.1-9.8,0.1-14.6c0-4,0.1-6.3,1.6-8.3
		c1.2-1.5,3-2.4,4.9-2.5c0.8-0.1,1.8,0,1.9-0.6c0.1-0.8-2-0.6-2.7-0.6H3.1C2,0.6,0.9,0.3,0.3,0.9"/>
	<path id="Caminho_14224" class="st2" d="M0.3,1.3c0.8,0.5,1.9,0.4,3,0.6C5.8,2.4,8.4,4.2,8.7,7c0.1,1.3,0.1,2.7,0,4
		c0,11.6,0.1,23.5,0.1,35.2c0,5.2,0.4,10.8-2.4,13.2c-1.3,0.9-2.8,1.4-4.4,1.5c-0.9,0.1-1.3,0.2-1.3,0.6c0,0.8,2.1,0.6,2.9,0.6
		c7,0,13.3,0.1,20.2,0.1c0.9,0,2.8,0.2,2.9-0.5c0.1-0.8-0.9-0.7-1.7-0.8c-5.5-0.2-7.9-3.3-8.2-8.9c-0.2-5-0.1-9.2-0.1-14.4
		c0-1.1-0.3-4,0.6-4.4c1.4-0.6,3.4,1.7,4.2,2.6c7.9,8.7,14.8,17.1,22.5,26.3c4.7,0,8.9,0.1,13.9,0.1c1.1,0,4,0.3,4.1-0.5
		c0.1-0.9-2.6-0.8-3.5-1c-3.3-0.7-6.2-2.4-8.5-4.9c-3.1-3.1-5.7-6.3-8.4-9.4c-5.7-6.6-11.1-13-16.4-19.3c4.7-4.8,9.2-9.7,14.1-14.3
		c4.2-3.9,8.2-8.3,14.2-10.5c0.9-0.2,1.7-0.5,2.5-1c-0.4-0.9-1.5-0.6-2.2-0.5c-5.4,0.2-11.3,0.3-16.8,0c-0.8,0-1.8-0.4-2.4,0.3
		c0.3,1,1.5,0.7,2.1,0.8c1.7,0.2,3.5,0.9,4.1,2.2c0.4,1,0.4,2.2,0,3.2c-0.7,1.3-1.5,2.5-2.4,3.7c-4.3,5.7-9.1,10.9-14.4,15.6
		c-1.6,1.5-3,2.7-4.9,4.2c-0.6,0.5-1.4,1.2-1.8,1c-0.8-0.3-0.3-3.5-0.3-4.5c0.1-5,0.1-9.8,0.1-14.6c0-4,0.1-6.3,1.6-8.3
		c1.2-1.5,3-2.4,4.9-2.5c0.8-0.1,1.8,0,1.9-0.6c0.1-0.8-2-0.6-2.7-0.6H3.1C2,0.6,0.9,0.3,0.3,0.9"/>
	<path id="Caminho_14225" class="st1" d="M170.3,0.4c-1.1,2.1-3.9,0.3-6,0.1c-5-0.5-9.3,1.7-10,6.1c-0.8,5.3,3.2,7.9,6.6,9.4
		c3.5,1.5,8.7,2.6,9.1,7.1c0.1,1.5-0.2,3-1,4.4c-0.6,1.2-1.5,2.1-2.7,2.7c-3,1.4-6.6,0-8.3-1.3c-1.5-1.3-2.7-2.9-3.3-4.8
		c-0.2-0.7-0.4-1.3-0.8-1.9c-0.2,1.3-0.3,2.7-0.2,4v4.2c0.8-0.1,0.7-0.9,1.7-1c1.2-0.1,2.3,0.7,3.3,1.1c3.6,1.2,7.5,1.1,11-0.3
		c1.9-0.9,3.4-2.5,4.2-4.5c0.8-2.4,0.7-4.9-0.4-7.2c-1.1-1.8-2.6-3.2-4.5-4.2c-3.5-2-9.4-2.2-10.5-6.7c-0.6-2.3,0.3-4.7,2.2-6
		c2-1.2,5.1-0.7,6.7,0.4c0.8,0.6,1.6,1.3,2.1,2.1c0.5,0.9,1.1,1.7,1.7,2.6c0-2.1-0.2-4.3-0.7-6.4"/>
	<path id="Caminho_14226" class="st4" d="M170.3,0.4c-1.1,2.1-3.9,0.3-6,0.1c-5-0.5-9.3,1.7-10,6.1c-0.8,5.3,3.2,7.9,6.6,9.4
		c3.5,1.5,8.7,2.6,9.1,7.1c0.1,1.5-0.2,3-1,4.4c-0.6,1.2-1.5,2.1-2.7,2.7c-3,1.4-6.6,0-8.3-1.3c-1.5-1.3-2.7-2.9-3.3-4.8
		c-0.2-0.7-0.4-1.3-0.8-1.9c-0.2,1.3-0.3,2.7-0.2,4v4.2c0.8-0.1,0.7-0.9,1.7-1c1.2-0.1,2.3,0.7,3.3,1.1c3.6,1.2,7.5,1.1,11-0.3
		c1.9-0.9,3.4-2.5,4.2-4.5c0.8-2.4,0.7-4.9-0.4-7.2c-1.1-1.8-2.6-3.2-4.5-4.2c-3.5-2-9.4-2.2-10.5-6.7c-0.6-2.3,0.3-4.7,2.2-6
		c2-1.2,5.1-0.7,6.7,0.4c0.8,0.6,1.6,1.3,2.1,2.1c0.5,0.9,1.1,1.7,1.7,2.6c0-2.1-0.2-4.3-0.7-6.4"/>
</g>
</svg>
