<svg xmlns="http://www.w3.org/2000/svg" width="150" height="150" viewBox="0 0 150 150">
  <g id="Grupo_3792" data-name="Grupo 3792" transform="translate(6530 11184)">
    <circle id="Elipse_245" data-name="Elipse 245" cx="75" cy="75" r="75" transform="translate(-6530 -11184)" fill="#f2f2f2"/>
    <path id="Caminho_14908" data-name="Caminho 14908" d="M1339.3,1431.732a1.588,1.588,0,0,1-1.534-1.563,1.647,1.647,0,0,1,1.571-1.551,1.6,1.6,0,0,1,1.559,1.623A1.562,1.562,0,0,1,1339.3,1431.732Zm-37.677,13.671a1.561,1.561,0,1,0-1.562,1.54A1.618,1.618,0,0,0,1301.625,1445.4Zm67.537-45.562v1.57c-.781,2.82-3.117,4.238-5.313,5.7a22.821,22.821,0,0,1-13.206,3.764c-.157,0-.314-.006-.471,0-.91.038-2.1-.377-2.652.147s-.14,1.729-.163,2.636c-.032,1.229-.014,2.456-.157,3.682a23.453,23.453,0,0,1-2.7,8.53,1.569,1.569,0,1,1-2.764-1.459,21.35,21.35,0,0,0,2.227-6.566,22.326,22.326,0,0,0,.249-3.6c-.005-5.26.027-10.521-.011-15.781a17.54,17.54,0,0,1,4.794-12.709,2.2,2.2,0,0,0,.664-1.046,1.538,1.538,0,0,0-.745-1.745,1.573,1.573,0,0,0-2.058.358,20.394,20.394,0,0,0-5.851,14.749c.02,5.365,0,10.73.006,16.095a17.079,17.079,0,0,1-2.709,9.665,16.864,16.864,0,0,1-13.292,7.919c-1.464.119-2.929.082-4.394.073-.441,0-.6.116-.578.573.037.7.022,1.413,0,2.119-.008.337.042.521.456.525,3.458.036,6.913.059,10.208-1.232.97-.38,1.906-.848,2.882-1.211a1.529,1.529,0,0,1,2.121,1.721,1.706,1.706,0,0,1-1.028,1.2,23.075,23.075,0,0,1-10.143,2.637c-1.282.033-2.565.041-3.846.006-.522-.014-.655.145-.656.656a41.4,41.4,0,0,1-.32,7.044,23.22,23.22,0,0,1-5.254,11.286,9.748,9.748,0,0,1-2.117,2.084,4.682,4.682,0,0,1-5.49-.307,4.617,4.617,0,0,1-1.5-5.277.783.783,0,0,0-.226-1c-.708-.659-1.39-1.349-2.059-2.048a1.591,1.591,0,0,1-.158-2.367,1.571,1.571,0,0,1,2.364.137c.751.726,1.462,1.495,2.212,2.267a13.747,13.747,0,0,0,1.612-2.488.486.486,0,0,0-.138-.672q-3.864-3.852-7.714-7.718c-.262-.264-.459-.216-.749-.071a13.928,13.928,0,0,0-3.438,2.441,4.764,4.764,0,0,1-4.578,1.422,4.512,4.512,0,0,1-3.541-3.4,4.6,4.6,0,0,1,1.425-4.777,23.376,23.376,0,0,1,16.73-6.688c.942,0,1.885-.027,2.826.011.511.021.664-.129.659-.653a44.409,44.409,0,0,1,.108-5.491,23.518,23.518,0,0,1,17.937-20.517,25.16,25.16,0,0,1,6.145-.661c1.01,0,2.358.434,2.939-.171s.153-1.94.153-2.954a25.807,25.807,0,0,1,.833-6.827,23.687,23.687,0,0,1,6.059-10.454,6.376,6.376,0,0,1,2.579-1.4h1.57a4.768,4.768,0,0,1,3.909,6.25.915.915,0,0,0,.29,1.05q4.384,4.373,8.753,8.761a1.167,1.167,0,0,0,1.284.244,4.633,4.633,0,0,1,6.024,3.954Zm-61.855,35.146c1.07,0,1.882-.023,2.691.009.452.018.667-.067.629-.588a14.276,14.276,0,0,1,0-2.039c.037-.519-.178-.6-.631-.591-.993.03-1.988.008-2.982.01a20.232,20.232,0,0,0-14.325,5.711,1.693,1.693,0,0,0-.592,2.024c.495,1.139,1.767,1.293,2.852.272A17.21,17.21,0,0,1,1307.308,1434.988Zm3.107,9.148a38.554,38.554,0,0,0,.2-5.7c0-.241-.127-.311-.345-.308a37.514,37.514,0,0,0-5.663.206Zm22.447-36.323c1.466-.076,2.929-.083,4.394-.068.469,0,.655-.106.625-.608-.043-.7-.019-1.413-.007-2.119,0-.3-.024-.493-.409-.49a36.921,36.921,0,0,0-7.43.4,20.329,20.329,0,0,0-16.295,19.639c-.109,5.625-.025,11.253-.032,16.88a18.576,18.576,0,0,1-.975,6.164,17.987,17.987,0,0,1-3.98,6.4,1.611,1.611,0,1,0,2.331,2.2,19.736,19.736,0,0,0,5.771-13.346c.1-3.137.019-6.28.019-9.42h.036c0-.654-.013-1.309,0-1.963a78.572,78.572,0,0,1,.247-9.249A17.2,17.2,0,0,1,1332.861,1407.813Zm-6.586,20.631-5.982-5.981a34.67,34.67,0,0,0-.246,5.84c0,.247.069.4.351.394A33.379,33.379,0,0,0,1326.276,1428.444Zm6.3-3.1a3.5,3.5,0,0,1-.424-.327c-2.391-2.384-4.769-4.78-7.171-7.154a9.4,9.4,0,0,0-1.805-1.677,13.127,13.127,0,0,0-1.524,2.27.507.507,0,0,0,.09.735q3.93,3.9,7.83,7.827a.468.468,0,0,0,.67.1,16.129,16.129,0,0,0,2.04-1.313C1332.4,1425.715,1332.573,1425.671,1332.578,1425.34Zm3.7-5.213q-3.835-3.815-7.651-7.649a.526.526,0,0,0-.736-.13,14.81,14.81,0,0,0-2.352,1.494l9.357,9.36a14.141,14.141,0,0,0,1.489-2.336A.528.528,0,0,0,1336.28,1420.127Zm1.585-6.9c-.016-.751.322-1.737-.125-2.192-.486-.494-1.483-.133-2.256-.154a17.3,17.3,0,0,0-3.512.191l5.7,5.7A19.428,19.428,0,0,0,1337.865,1413.228Zm11.083-21.132q3.856,3.842,7.7,7.7c.205.206.372.3.668.142a13.877,13.877,0,0,0,2.394-1.534l-9.366-9.366a13.8,13.8,0,0,0-1.532,2.391C1348.651,1391.722,1348.741,1391.889,1348.948,1392.1Zm-1.6,6.937c.008.754-.258,1.761.123,2.195.439.5,1.47.141,2.243.16a16.329,16.329,0,0,0,3.656-.219l-5.8-5.793A17.741,17.741,0,0,0,1347.353,1399.032Zm18.257.556a1.586,1.586,0,0,0-2.25-.158c-.311.236-.592.515-.885.774a16.837,16.837,0,0,1-9.9,4.238c-1.568.139-3.137.085-4.705.083-.407,0-.548.109-.529.527.033.731.028,1.465,0,2.2-.014.378.11.5.488.492.863-.023,1.726-.007,2.919-.007a20.068,20.068,0,0,0,11.348-3.2,20.764,20.764,0,0,0,3.361-2.69A1.588,1.588,0,0,0,1365.61,1399.588Z" transform="translate(-7783.756 -12528.582)" fill="#384dc5"/>
  </g>
</svg>
