<svg id="whatsapp" xmlns="http://www.w3.org/2000/svg" viewBox="0 0 43.35 43.71"><path id="Caminho_3381" data-name="Caminho 3381" d="M20.62,0A21.69,21.69,0,0,0,2.36,31.52L.06,42.69a.84.84,0,0,0,.66,1,.87.87,0,0,0,.36,0l11-2.59A21.68,21.68,0,1,0,20.62,0ZM33.68,33.68a17,17,0,0,1-19.56,3.2l-1.52-.76L5.89,37.71,7.3,30.85l-.75-1.47a17.07,17.07,0,1,1,27.44,4l-.32.31Z" style="fill:#e55238"/><path id="Caminho_3382" data-name="Caminho 3382" d="M32.2,26.38,28,25.17a1.56,1.56,0,0,0-1.55.41l-1,1a1.52,1.52,0,0,1-1.66.36,22.37,22.37,0,0,1-7.23-6.38,1.51,1.51,0,0,1,.12-1.7l.9-1.16a1.58,1.58,0,0,0,.19-1.59l-1.77-4a1.56,1.56,0,0,0-2.06-.8,1.36,1.36,0,0,0-.38.24c-1.17,1-2.56,2.5-2.73,4.16-.3,2.95,1,6.65,5.73,11.1C22,32,26.46,32.68,29.33,32c1.63-.39,2.93-2,3.76-3.27a1.58,1.58,0,0,0-.5-2.16A2.2,2.2,0,0,0,32.2,26.38Z" style="fill:#e55238"/></svg>