<svg xmlns="http://www.w3.org/2000/svg" width="150" height="150" viewBox="0 0 150 150">
  <g id="Grupo_3796" data-name="Grupo 3796" transform="translate(5865 11184)">
    <circle id="Elipse_245" data-name="Elipse 245" cx="75" cy="75" r="75" transform="translate(-5865 -11184)" fill="#f2f2f2"/>
    <path id="Caminho_14912" data-name="Caminho 14912" d="M2482.969,1441.646c-3.029-2.958-5.871-6.1-8.924-9.037a2.192,2.192,0,0,1-.711-1.73c.024-3.75.012-7.5.011-11.25a4.852,4.852,0,0,0-.056-1.008,1.372,1.372,0,0,0-1.494-1.164,1.39,1.39,0,0,0-1.346,1.269,6.39,6.39,0,0,0-.024.821q0,4.235,0,8.469a1.14,1.14,0,0,1-.1.686c-.6-.508-1.064-1.09-1.623-1.562a2.3,2.3,0,0,1-.808-1.942c.023-9.438.012-18.876.017-28.314,0-1.733-.188-1.547,1.555-1.556.925,0,.957.031.957.957q0,5.246,0,10.492a4.983,4.983,0,0,0,.038.883,1.433,1.433,0,0,0,2.844,0,5.034,5.034,0,0,0,.038-.883c0-3.2-.094-6.408.031-9.605a14.859,14.859,0,0,0-1.417-7.016c-1.417-3.056-2.641-6.2-3.936-9.313-.238-.571-.484-1.136-1.194-1.26h-.758c-.778.126-.99.775-1.238,1.371-1.636,3.928-3.293,7.846-4.943,11.768a4.168,4.168,0,0,0-.32,1.658q.011,11.375,0,22.751a1.466,1.466,0,0,1-.077.71c-1.548-1.629-3.112-3.157-4.628-4.737-3.033-3.159-6.186-6.2-9.218-9.366-1.764-1.839-3.592-3.617-5.4-5.41a2.432,2.432,0,0,1-.812-1.961c.057-1.156.015-2.317.015-3.475q0-5.846,0-11.692c0-1.01-.225-1.332-1.057-1.617H2421.7c-.931.317-1.079.529-1.079,1.653q0,30.685,0,61.37c0,1.392.379,1.759,1.769,1.759h59.536a4.328,4.328,0,0,0,.632-.014,1.241,1.241,0,0,0,1.134-1.352A1.9,1.9,0,0,0,2482.969,1441.646Zm-46.926.141q-6.035-.037-12.071,0c-.5,0-.7-.074-.664-.631.055-.881.031-1.769.007-2.653-.009-.342.107-.42.428-.415,1.179.017,2.359.011,3.539,0a1.278,1.278,0,0,0,1.227-.741,1.182,1.182,0,0,0-.151-1.306,1.284,1.284,0,0,0-1.111-.482c-1.158.01-2.318-.011-3.476.012-.365.007-.464-.108-.456-.463.023-.926.033-1.854,0-2.78-.017-.427.159-.467.512-.464,1.9.014,3.792.007,5.688.007.168,0,.338.008.505-.008a1.294,1.294,0,0,0,1.277-1.3,1.249,1.249,0,0,0-1.341-1.216c-2.022-.014-4.044-.017-6.067,0-.422,0-.594-.079-.574-.545.038-.9.026-1.812,0-2.717-.009-.357.1-.471.46-.464,1.074.022,2.149.01,3.223.007,1.047,0,1.63-.446,1.64-1.242s-.608-1.282-1.677-1.284-2.149-.013-3.223.007c-.334.006-.431-.092-.423-.424.021-.948.026-1.9,0-2.844-.011-.387.145-.441.479-.438,2.043.013,4.086,0,6.13.009a1.273,1.273,0,0,0,1.208-.657,1.168,1.168,0,0,0-.035-1.259,1.388,1.388,0,0,0-1.3-.618c-1.959.007-3.918-.018-5.877.016-.515.009-.625-.151-.6-.628.037-.883.025-1.769,0-2.653-.009-.332.085-.428.419-.422,1.137.02,2.275.012,3.413.006.9,0,1.5-.519,1.489-1.273s-.6-1.25-1.507-1.253c-1.116,0-2.233-.013-3.349.006-.338.005-.478-.061-.466-.439.028-.926.033-1.854,0-2.78-.015-.408.121-.482.5-.478q3.033.027,6.066,0a1.273,1.273,0,0,0,1.276-1.83,1.315,1.315,0,0,0-1.31-.7c-1.98.013-3.96-.012-5.94.017-.474.007-.615-.111-.59-.589a23.756,23.756,0,0,0,0-2.463c-.026-.5.082-.691.635-.667,1.114.05,2.233.043,3.349,0a1.255,1.255,0,0,0,1.127-1.945,1.282,1.282,0,0,0-1.189-.573c-1.137,0-2.275-.014-3.413.009-.375.008-.521-.075-.507-.482.031-.9.032-1.812,0-2.717-.015-.422.115-.53.528-.526q3.033.03,6.067,0a1.252,1.252,0,0,0,1.229-1.842,1.4,1.4,0,0,0-1.39-.682c-1.959.006-3.918-.012-5.877.013-.438.005-.577-.1-.557-.55.038-.862.045-1.729,0-2.59-.027-.5.156-.587.605-.574,1.095.032,2.191.016,3.286.009a1.287,1.287,0,0,0,1.436-1.252,1.314,1.314,0,0,0-1.436-1.271c-1.116-.012-2.233-.016-3.349,0-.378.007-.561-.045-.541-.5.04-.925.026-1.854,0-2.78-.008-.333.092-.42.422-.419,4.192.011,8.384.018,12.576-.007.546,0,.431.3.431.594q0,14.63,0,29.26,0,14.567.015,29.134C2436.762,1441.672,2436.6,1441.791,2436.043,1441.788Zm30.4-57.674,3.534,8.434h-7.069Zm-3.7,10.975c.694.035,1.39.02,2.085,0,.273-.006.392.081.354.358a1.484,1.484,0,0,0,0,.189v28.048c-.935-.9-1.841-1.768-2.755-2.632a.69.69,0,0,1-.157-.582q0-12.448-.009-24.895C2462.26,1395.193,2462.347,1395.069,2462.744,1395.089Zm15.891,46.681c-2.149.007-4.3-.015-6.446.019-.516.008-.641-.155-.6-.628a3.4,3.4,0,0,0-.064-1,1.186,1.186,0,0,0-1.315-.928,1.208,1.208,0,0,0-1.122,1.088c-.01.083-.013.168-.016.252-.046,1.2-.046,1.2-1.278,1.2-.8,0-1.6-.028-2.4.011-.439.022-.521-.141-.5-.532.029-.673.021-1.348,0-2.022-.021-.886-.511-1.418-1.274-1.416s-1.236.536-1.248,1.427c-.01.695-.012,1.39,0,2.085.006.295-.024.463-.4.455-1.137-.023-2.275-.021-3.412,0-.318.006-.393-.1-.381-.4a5.81,5.81,0,0,0-.043-1.133,1.189,1.189,0,0,0-1.3-1.025,1.213,1.213,0,0,0-1.16,1.118c0,.042-.007.084-.011.126-.042.415.184.976-.094,1.211-.322.273-.885.078-1.343.087-.758.014-1.518-.022-2.275.014-.407.019-.492-.122-.476-.5.03-.673.019-1.348.006-2.022-.018-.925-.514-1.467-1.3-1.449-.758.017-1.209.547-1.222,1.455-.01.695-.019,1.391,0,2.085.012.335-.1.43-.427.425-1.116-.018-2.233-.022-3.349,0-.351.007-.425-.117-.411-.43a5.657,5.657,0,0,0-.037-1.07,1.194,1.194,0,0,0-1.278-1.056,1.215,1.215,0,0,0-1.193,1.154c-.009.084-.011.168-.014.252-.036,1.141-.036,1.155-1.213,1.136-.58-.01-1.355.259-1.685-.117-.284-.325-.084-1.082-.084-1.648q0-19.022,0-38.044v-.831l39.9,40.552C2479.006,1441.854,2478.807,1441.769,2478.635,1441.77Zm-6.765-27.362a1.263,1.263,0,0,1-1.247-1.24,1.262,1.262,0,0,1,2.523-.038A1.27,1.27,0,0,1,2471.869,1414.408Zm-10.571,18.485q-6.545-6.637-13.076-13.286a1.322,1.322,0,0,0-1.574-.457,1.373,1.373,0,0,0-.793,1.443c.011,2.17,0,4.339,0,6.509s0,4.339,0,6.509c0,1.136.444,1.589,1.556,1.589,4.3,0,8.594,0,12.891.005a1.3,1.3,0,0,0,.991-2.313Zm-12.552-.213c-.337,0-.364-.146-.363-.416.007-2.9,0-5.805,0-8.879l9.14,9.288C2454.506,1432.673,2451.626,1432.668,2448.746,1432.68Z" transform="translate(-8242.122 -12521.082)" fill="#384dc5" stroke="#384dc5" stroke-width="0.75"/>
  </g>
</svg>
