<svg id="Camada_1" data-name="Camada 1" xmlns="http://www.w3.org/2000/svg" viewBox="0 0 43.34 43.34"><path id="linkedin" d="M39.42,0H3.92A3.93,3.93,0,0,0,0,3.92H0v35.5a3.92,3.92,0,0,0,3.92,3.92h35.5a3.91,3.91,0,0,0,3.92-3.92h0V3.92A3.92,3.92,0,0,0,39.42,0Zm-26,37.42a1.14,1.14,0,0,1-1.14,1.15H7.41a1.14,1.14,0,0,1-1.14-1.15V17.07a1.14,1.14,0,0,1,1.14-1.15h4.86a1.14,1.14,0,0,1,1.14,1.15ZM9.84,14a4.62,4.62,0,1,1,4.62-4.62A4.61,4.61,0,0,1,9.84,14Zm29,23.51a1,1,0,0,1-1,1H32.53a1,1,0,0,1-1.05-1V28c0-1.43.42-6.25-3.72-6.25-3.21,0-3.86,3.3-4,4.78v11a1,1,0,0,1-1.05,1h-5a1,1,0,0,1-1.05-1V17a1,1,0,0,1,1.05-1h5a1,1,0,0,1,1.05,1v1.78c1.19-1.79,3-3.17,6.73-3.17,8.34,0,8.3,7.8,8.3,12.08v9.86Z" style="fill:#e55238"/></svg>