<svg xmlns="http://www.w3.org/2000/svg" width="150" height="150" viewBox="0 0 150 150">
  <g id="Grupo_3802" data-name="Grupo 3802" transform="translate(4880 11184)">
    <circle id="Elipse_245" data-name="Elipse 245" cx="75" cy="75" r="75" transform="translate(-4880 -11184)" fill="#f2f2f2"/>
    <path id="Caminho_14909" data-name="Caminho 14909" d="M365.774,1391.363a1.413,1.413,0,1,1,1.356,1.432A1.424,1.424,0,0,1,365.774,1391.363Zm55.1,16.563v.707h0v.283h0v2.262h0v.848a23.512,23.512,0,0,1-.612,3.658,27.6,27.6,0,0,1-3.531,7.342c-.123.189-.331.337-.328.644.818.091,1.635.022,2.45.043a4.278,4.278,0,0,1,.983.074,1.309,1.309,0,0,1,1.039,1.1v.848a1.877,1.877,0,0,1-1.916,1c-1.6-.051-3.209-.013-4.814-.016a.858.858,0,0,0-.755.258,131.006,131.006,0,0,1-13.935,13.026q-6.82,5.788-13.635,11.581a1.511,1.511,0,0,1-2.365.043c-6.368-5.428-12.752-10.838-19.1-16.292a82.731,82.731,0,0,1-8.387-8.2,1.125,1.125,0,0,0-.966-.423c-1.581.023-3.163-.027-4.743.024a1.871,1.871,0,0,1-1.916-1v-.848a1.441,1.441,0,0,1,1.6-1.172c.955-.029,1.913.012,2.873-.021,0-.335-.206-.484-.328-.673a25.782,25.782,0,0,1-3.809-8.436c-.187-.849-.165-1.717-.334-2.564v-3.252h0v-.424h0v-.707a7.078,7.078,0,0,0,.417-1.95c1.491-6.61,5.089-11.544,11.4-14.323a1.42,1.42,0,0,1,2.042.615,1.4,1.4,0,0,1-.87,1.938,15.105,15.105,0,0,0-3.981,2.391c-4.658,4.006-6.509,9.166-6.1,15.179.32,4.7,2.6,8.574,5.459,12.167a.609.609,0,0,0,.54.244c2.1-.006,4.2-.027,6.3.012.566.011.524-.376.607-.676q2.073-7.471,4.126-14.948c.254-.92.681-1.328,1.4-1.355s1.183.361,1.483,1.256c1.212,3.608,2.436,7.211,3.611,10.831a.786.786,0,0,0,.932.648c2.172-.03,4.344-.016,6.516-.011a1.475,1.475,0,0,1,1.674,1.2q1.339,3.974,2.668,7.951c.034.1.011.24.23.306q.887-2.65,1.776-5.3,2.6-7.786,5.209-15.571c.307-.916.745-1.3,1.45-1.3.735,0,1.185.422,1.449,1.378,1.369,4.96,2.744,9.918,4.088,14.885a.8.8,0,0,0,.946.716c3.328-.035,6.658-.026,9.986-.005a1.1,1.1,0,0,0,.991-.489,23.834,23.834,0,0,0,4.978-9.858c1.54-7.547-1.827-15.843-9-19.265a14.566,14.566,0,0,0-16.541,2.522,22.651,22.651,0,0,0-5.949,9.139c-.064.176-.114.358-.172.537a1.438,1.438,0,0,1-2.809.012,25,25,0,0,0-5.718-9.3,15.809,15.809,0,0,0-4.6-3.228,1.345,1.345,0,0,1-.856-1.476,1.381,1.381,0,0,1,1.2-1.223,1.8,1.8,0,0,1,1.144.284,21.153,21.153,0,0,1,8.776,8.269c.508.814.95,1.67,1.481,2.612.161-.31.291-.568.427-.822a22.723,22.723,0,0,1,8.473-9.359,17.86,17.86,0,0,1,22.192,3.857,20.514,20.514,0,0,1,5.018,11.519C420.753,1407.751,420.724,1407.881,420.876,1407.926Zm-11.107,18.987-.107-.183h-.674q-4.39,0-8.78,0a1.483,1.483,0,0,1-1.728-1.3c-.473-1.7-.939-3.4-1.408-5.094-.634-2.294-1.269-4.589-1.957-7.076-.15.417-.238.646-.316.88q-3.311,9.889-6.62,19.778c-.3.9-.755,1.3-1.459,1.29s-1.126-.389-1.438-1.318c-1.211-3.606-2.431-7.21-3.617-10.825a.709.709,0,0,0-.828-.591c-2.171.03-4.343.015-6.514.012a1.513,1.513,0,0,1-1.771-1.254c-.286-.845-.566-1.693-.85-2.539q-.881-2.622-1.763-5.245l-.144.016q-1.657,6.01-3.316,12.021a1.455,1.455,0,0,1-1.632,1.241c-1.6.006-3.21,0-4.815.008-.16,0-.375-.12-.5.123,1.6,1.708,3.292,3.314,5.025,4.878,6.39,5.765,13.133,11.121,19.607,16.788.381.333.591.255.93-.037,2.14-1.85,4.3-3.68,6.452-5.513,5.28-4.489,10.679-8.841,15.686-13.643Q408.5,1428.119,409.77,1426.912Z" transform="translate(-5189.846 -12530.47)" fill="#384dc5" stroke="#384dc5" stroke-width="1.25"/>
  </g>
</svg>
