<svg id="twitter" xmlns="http://www.w3.org/2000/svg" width="27.045" height="21.98" viewBox="0 0 27.045 21.98">
  <path id="twitter-2" data-name="twitter" d="M8.587,18.155A15.68,15.68,0,0,0,24.375,2.368q0-.36-.016-.717a11.292,11.292,0,0,0,2.768-2.873,11.07,11.07,0,0,1-3.186.874,5.57,5.57,0,0,0,2.44-3.069,11.129,11.129,0,0,1-3.523,1.347A5.554,5.554,0,0,0,13.4,2.989a15.754,15.754,0,0,1-11.437-5.8A5.536,5.536,0,0,0,1.212-.019,5.544,5.544,0,0,0,3.682,4.6a5.505,5.505,0,0,1-2.513-.694c0,.023,0,.046,0,.071A5.55,5.55,0,0,0,5.62,9.416a5.569,5.569,0,0,1-1.463.2,5.515,5.515,0,0,1-1.043-.1A5.555,5.555,0,0,0,8.3,13.365,11.132,11.132,0,0,1,1.405,15.74a11.292,11.292,0,0,1-1.324-.077,15.707,15.707,0,0,0,8.506,2.493" transform="translate(-0.082 3.824)" fill="#fff"/>
</svg>
