<svg xmlns="http://www.w3.org/2000/svg" xmlns:xlink="http://www.w3.org/1999/xlink" width="150.003" height="150.003" viewBox="0 0 150.003 150.003">
  <defs>
    <clipPath id="clip-path">
      <rect id="Retângulo_1018" data-name="Retângulo 1018" width="90.458" height="90.481" fill="none" stroke="#fff" stroke-width="0.45"/>
    </clipPath>
  </defs>
  <g id="Grupo_3735" data-name="Grupo 3735" transform="translate(0)">
    <g id="Grupo_3724" data-name="Grupo 3724" transform="translate(0 0)">
      <circle id="Elipse_245" data-name="Elipse 245" cx="75.001" cy="75.001" r="75.001" transform="translate(0)" fill="#f2f2f2"/>
    </g>
    <g id="Grupo_3727" data-name="Grupo 3727" transform="translate(30.001 30.001)">
      <g id="Grupo_3582" data-name="Grupo 3582" transform="translate(0)" clip-path="url(#clip-path)">
        <path id="Caminho_14677" data-name="Caminho 14677" d="M88.485,78.364a2.715,2.715,0,0,1-1.3-2.714q.041-34.883.019-69.765c0-3.4-1.5-5.263-4.693-5.885H80.741a6.515,6.515,0,0,0-2.085.61,5.56,5.56,0,0,0-2.58,4.851c-.037,2.708-.009,5.416-.009,8.124,0,.54-.035,1.01-.77,1-1.324-.012-2.649,0-3.973,0a.65.65,0,0,1-.746-.755c0-.235,0-.471-.006-.706a6.121,6.121,0,0,0-3.41-5.585,5.781,5.781,0,0,0-6.272.344A1.247,1.247,0,0,1,59.3,7.92a5.884,5.884,0,0,0-6.947,0,1.16,1.16,0,0,1-1.515,0,5.652,5.652,0,0,0-3.12-1.1,6.319,6.319,0,0,0-6.63,6.4c-.014,1.361-.014,1.364-1.381,1.364q-12.051,0-24.1,0c-1.16,0-1.206-.044-1.209-1.178-.006-2.561.005-5.122,0-7.683Q14.372.881,9.717,0H7.95C4.823.608,3.282,2.482,3.257,5.71c0,.353,0,.706,0,1.06v68.8c0,.353-.012.707,0,1.06a1.267,1.267,0,0,1-.664,1.246A4.8,4.8,0,0,0,0,81.822v7.422a1.387,1.387,0,0,0,1.237,1.237H89.221a1.387,1.387,0,0,0,1.237-1.237V82a4.2,4.2,0,0,0-1.973-3.635M79.858,6.026c0-1.656.623-2.513,1.805-2.487q1.729.039,1.728,2.477,0,17.58,0,35.16,0,17.669.018,35.337c0,.723-.147,1-.9.9-.864-.109-2.033.365-2.525-.187-.428-.479-.126-1.622-.126-2.472q0-34.365,0-68.73M61.847,13.1a2.464,2.464,0,1,1,4.927-.034c.034,1.206.007,2.413.008,3.62,0,1.119.017,2.237,0,3.355a2.469,2.469,0,1,1-4.934.034c-.023-2.325-.027-4.651,0-6.975m-8.483.052a2.469,2.469,0,1,1,4.935.037c.02,1.148,0,2.3,0,3.444s.019,2.3-.005,3.444a2.469,2.469,0,1,1-4.934-.037q-.03-3.443,0-6.887m-8.481-.016a2.466,2.466,0,1,1,4.931-.018q.041,3.487,0,6.975a2.465,2.465,0,0,1-2.5,2.525,2.5,2.5,0,0,1-2.436-2.507c0-.059,0-.118,0-.177q0-1.678,0-3.355c0-1.148-.019-2.3.006-3.443M14.949,18.365c4.268.027,8.536.014,12.8.014s8.537.019,12.8-.019c.685-.006.844.189.8.828a7.046,7.046,0,0,0,.391,3.127,5.989,5.989,0,0,0,9.291,2.543c.413-.322.639-.378,1.089-.021a5.829,5.829,0,0,0,7.406,0c.439-.348.664-.314,1.09.011a5.679,5.679,0,0,0,6.3.682,5.791,5.791,0,0,0,3.391-5.371c.053-1.783.036-1.783,1.846-1.783,1.177,0,2.355.021,3.532-.01.477-.013.649.091.647.614q-.029,8.921,0,17.842c0,.47-.078.665-.609.653-1.589-.037-3.18-.045-4.768,0-.592.018-.667-.2-.651-.7a9.291,9.291,0,0,0-.1-2.2,6,6,0,0,0-11.9,1.113c-.029,1.774-.029,1.774-1.762,1.774-5.033,0-10.067-.012-15.1.016-.639,0-.881-.116-.822-.8a7.139,7.139,0,0,0-.241-2.71,5.98,5.98,0,0,0-9.417-2.992c-.469.366-.7.335-1.159-.01a5.662,5.662,0,0,0-6.222-.675,5.78,5.78,0,0,0-3.432,5.343c-.064,1.832-.042,1.832-1.887,1.832-1.119,0-2.241-.056-3.354.02-.72.049-.789-.231-.786-.84q.032-8.744-.007-17.489c0-.7.215-.8.835-.791m51.83,24.28a2.473,2.473,0,1,1-4.938-.029q-.026-3.4,0-6.8a2.473,2.473,0,1,1,4.938.028c.017,1.148,0,2.3,0,3.444,0,1.119.015,2.237,0,3.355M37.1,42.672a2.469,2.469,0,1,1-4.934.007q-.034-3.443,0-6.887a2.469,2.469,0,1,1,4.935-.007c.022,1.177,0,2.355,0,3.532,0,1.119.017,2.237,0,3.355M23.679,35.8a2.469,2.469,0,1,1,4.934-.031q.036,3.443,0,6.887a2.469,2.469,0,1,1-4.934.031c-.023-1.177,0-2.355,0-3.532,0-1.118-.016-2.237,0-3.355m-8.727,5.182c1.441.044,2.887.068,4.325-.007.78-.041.937.23.876.929a6.89,6.89,0,0,0,.224,2.537,5.99,5.99,0,0,0,9.393,3.079A.809.809,0,0,1,31,47.515a5.65,5.65,0,0,0,6.225.645,5.777,5.777,0,0,0,3.4-5.277C40.7,41,40.679,41,42.552,41c4.975,0,9.949.017,14.924-.019.716-.005.887.206.84.872a6.822,6.822,0,0,0,.516,3.366,6.01,6.01,0,0,0,11.487-2.259c.024-.636-.288-1.5.141-1.845.4-.319,1.233-.108,1.875-.112,1.119-.008,2.238.02,3.355-.013.477-.014.649.092.647.615q-.029,8.921,0,17.842c0,.47-.078.665-.609.653-1.589-.037-3.18-.045-4.768,0-.592.018-.668-.2-.651-.705a9.207,9.207,0,0,0-.086-2.112,5.968,5.968,0,0,0-9.638-3.642.663.663,0,0,1-1.019,0,5.825,5.825,0,0,0-7.475.012c-.428.339-.633.272-1.02-.026a5.68,5.68,0,0,0-6.294-.715,5.794,5.794,0,0,0-3.427,5.436c-.042,1.733-.028,1.734-1.805,1.734H27.708c-4.268,0-8.536-.012-12.8.014-.591,0-.789-.1-.786-.748q.042-8.788,0-17.577c0-.705.221-.807.838-.788M61.842,58.409a2.469,2.469,0,1,1,4.935,0q.034,3.443,0,6.887a2.471,2.471,0,1,1-4.938,0c0-.059,0-.118,0-.177q0-1.633,0-3.267c0-1.148-.016-2.3,0-3.444M58.3,65.227a2.476,2.476,0,1,1-4.94-.04q-.02-3.355,0-6.711a2.476,2.476,0,1,1,4.94.04c.013,1.089,0,2.178,0,3.267,0,1.148.013,2.3,0,3.444M44.881,58.409a2.469,2.469,0,1,1,4.934,0q.034,3.443,0,6.887a2.469,2.469,0,1,1-4.934,0c-.022-1.147,0-2.3,0-3.444s-.017-2.3,0-3.443M7.067,76.4q0-35.16,0-70.321c0-.294-.015-.591.01-.883a1.759,1.759,0,0,1,3.511-.036c.029.292.012.589.012.883q0,17.536,0,35.072,0,17.669.016,35.337c0,.729-.1,1.07-.928.965a11.978,11.978,0,0,0-2.029-.01c-.432.019-.68-.07-.6-.567a2.678,2.678,0,0,0,0-.441M86.435,86.95a4.266,4.266,0,0,0-.529,0H45.191q-20.357,0-40.714.017c-.737,0-1.042-.115-.964-.932.087-.9.019-1.824.02-2.737,0-1.716.633-2.355,2.334-2.356q15.323,0,30.646,0c.294,0,.59.016.883-.01a1.76,1.76,0,0,0,.024-3.512c-.263-.026-.529-.011-.794-.011-7.213,0-14.425-.009-21.638.014-.66,0-.88-.123-.873-.842.04-4.063.033-8.127,0-12.191,0-.6.111-.785.752-.783q12.85.036,25.7,0c.717,0,.817.234.782.843a7.355,7.355,0,0,0,.315,2.875,5.973,5.973,0,0,0,9.308,2.822.8.8,0,0,1,1.23,0,5.84,5.84,0,0,0,7.271-.012c.44-.345.678-.4,1.16-.03a5.65,5.65,0,0,0,6.22.707,5.783,5.783,0,0,0,3.452-5.333c.07-1.853.048-1.854,1.867-1.854,1.207,0,2.414.018,3.621-.01.43-.01.539.125.537.544-.015,4.24-.024,8.481.005,12.721.005.737-.458.523-.812.524q-10.775.011-21.549.006c-.265,0-.531-.011-.795,0a1.761,1.761,0,0,0-.046,3.522c.264.019.53.007.795.007H84.489c1.83,0,2.434.6,2.436,2.432,0,1.031-.017,2.062.009,3.092.01.392-.114.537-.5.489" fill="#384dc5" stroke="#fff" stroke-width="0.45"/>
        <path id="Caminho_14678" data-name="Caminho 14678" d="M249.47,439.691a1.778,1.778,0,0,1-1.748,1.732,1.8,1.8,0,0,1-1.775-1.8,1.78,1.78,0,0,1,1.846-1.72,1.756,1.756,0,0,1,1.677,1.792" transform="translate(-202.474 -360.497)" fill="#384dc5" stroke="#fff" stroke-width="0.45"/>
      </g>
    </g>
  </g>
</svg>
