<svg xmlns="http://www.w3.org/2000/svg" width="150" height="150" viewBox="0 0 150 150">
  <g id="Grupo_3798" data-name="Grupo 3798" transform="translate(5536 11184)">
    <circle id="Elipse_245" data-name="Elipse 245" cx="75" cy="75" r="75" transform="translate(-5536 -11184)" fill="#f2f2f2"/>
    <path id="Caminho_14914" data-name="Caminho 14914" d="M841.352,1397.577a1.438,1.438,0,0,1,1.406,1.459,1.452,1.452,0,1,1-2.9-.09A1.434,1.434,0,0,1,841.352,1397.577Zm64.78,29.935c.8,3.612.387,6.981-2.129,9.888a10.107,10.107,0,0,1-2.664,2.151.725.725,0,0,0-.422.674,4.974,4.974,0,0,1-9.339,2.031.776.776,0,0,0-.771-.481c-1.122-.044-2.245-.118-3.359-.246a.829.829,0,0,0-1.042.576,26,26,0,0,1-6.143,9.158,11.551,11.551,0,0,1-6.378,3.175c-.035,0-.062.065-.093.1h-2.64a3.44,3.44,0,0,0-1.222-.367,14.517,14.517,0,0,1-7.248-5.328,27.356,27.356,0,0,1-3.833-6.617c-.274-.669-.622-.75-1.255-.675a26.01,26.01,0,0,1-10.531-.63c-3.345-.988-6.055-2.8-7.523-6.1a9.418,9.418,0,0,1-.818-4.052.864.864,0,0,0-.427-.832,4.958,4.958,0,0,1,2.915-9.063.861.861,0,0,0,.867-.466c.595-.949,1.213-1.886,1.882-2.785a.772.772,0,0,0,.005-1.113,27.379,27.379,0,0,1-4.543-8.528c-.2-.651-.362-1.315-.495-1.982a1.478,1.478,0,1,1,2.889-.529,23.4,23.4,0,0,0,4.452,9.242,54.261,54.261,0,0,1,4.552-4.573c1.176-1.028,2.379-2.025,3.583-3.021a1.128,1.128,0,0,0,.475-.767,55.712,55.712,0,0,1,2.343-10.235c.18-.536.112-.682-.484-.732a23.694,23.694,0,0,0-9.844.922,1.42,1.42,0,0,1-1.813-.927,1.45,1.45,0,0,1,.924-1.83,18.9,18.9,0,0,1,4.839-1.088,29.128,29.128,0,0,1,7.018.135c.515.071.717-.112.908-.557a26.86,26.86,0,0,1,5.495-8.56c2.41-2.415,5.208-4.018,8.759-3.89a10,10,0,0,1,4.6,1.313.923.923,0,0,0,.986.047,4.956,4.956,0,0,1,6.382,7.04.874.874,0,0,0-.024,1.044,17.921,17.921,0,0,1,1.47,3.013c.214.587.568.585,1.066.525a26.593,26.593,0,0,1,10.111.481c3.68.978,6.684,2.848,8.162,6.557,1.2,3.021.8,6.035-.207,9.009a28.161,28.161,0,0,1-4.309,7.84.811.811,0,0,0-.013,1.179A26.113,26.113,0,0,1,906.133,1427.512Zm-18.14-31.365a53.689,53.689,0,0,1,2.246,9.729,1.948,1.948,0,0,0,.853,1.5,24.532,24.532,0,0,1,1.983,1.619,56.924,56.924,0,0,1,5.842,5.734,24.279,24.279,0,0,0,4.278-8.5c.575-2.4.59-4.748-.862-6.885A8.755,8.755,0,0,0,897.24,1396a23.835,23.835,0,0,0-8.715-.62C887.943,1395.43,887.788,1395.529,887.993,1396.147Zm2.837,27.03a57.151,57.151,0,0,0,5.829-5.638c.325-.361.337-.585.006-.954a57.81,57.81,0,0,0-5.329-5.219c-.136-.117-.232-.329-.493-.261A75.294,75.294,0,0,1,890.829,1423.176Zm-7.79-26.9a51,51,0,0,0-6.616,1.956A81.11,81.11,0,0,1,887,1404.327a54.789,54.789,0,0,0-1.61-6.664C884.844,1395.893,884.838,1395.877,883.039,1396.279Zm-4.354-10.9a2.07,2.07,0,0,0,2,2.1,2.046,2.046,0,0,0,.1-4.091A2.068,2.068,0,0,0,878.685,1385.382Zm-17.229,7.746a60.273,60.273,0,0,1,10.806,3.291.85.85,0,0,0,.693-.01,59.882,59.882,0,0,1,10.316-3.175c.359-.076.452-.165.274-.506-.361-.689-.715-1.382-1.028-2.093-.16-.363-.359-.424-.73-.357a4.938,4.938,0,0,1-5.77-6.388c.124-.413.035-.532-.316-.69a6.849,6.849,0,0,0-6.276.1C865.387,1385.424,863.336,1389.176,861.456,1393.128Zm-3.278,11.214a82.246,82.246,0,0,1,10.571-6.1,53.208,53.208,0,0,0-6.614-1.954c-1.78-.411-1.793-.393-2.348,1.381A51.425,51.425,0,0,0,858.178,1404.342Zm-9.682,13.115a55.242,55.242,0,0,0,5.526,5.421c.07.06.142.229.308.05a82.819,82.819,0,0,1,.016-11.98,54.161,54.161,0,0,0-6.015,5.857C848.037,1417.141,848.342,1417.281,848.5,1417.457Zm-7.4,10.424a2.068,2.068,0,0,0,2.039-2.058,2.049,2.049,0,0,0-4.1.016A2.07,2.07,0,0,0,841.1,1427.881Zm16.119,10.165a59.452,59.452,0,0,1-2.342-10.309.932.932,0,0,0-.377-.667,60.613,60.613,0,0,1-8.245-7.693c-.546.827-1.024,1.591-1.546,2.323-.226.317-.193.495.059.789a4.933,4.933,0,0,1-2.645,8.19c-.351.084-.523.195-.458.57.042.239.041.486.082.725.532,3.079,2.556,4.832,5.333,5.847a22.618,22.618,0,0,0,9.911.883C857.615,1438.649,857.294,1438.293,857.214,1438.046Zm3.716.058c1.279-.3,2.563-.593,3.832-.936a31.4,31.4,0,0,0,3.98-1.3,81.8,81.8,0,0,1-10.5-6.048,2.687,2.687,0,0,0,0,.339,56.081,56.081,0,0,0,1.966,7.621C860.358,1438.238,860.62,1438.178,860.931,1438.1Zm22.258,2.768a60.328,60.328,0,0,1-10.171-3.138.929.929,0,0,0-.761-.038,60.311,60.311,0,0,1-10.786,3.281c1.485,3.3,3.239,6.379,6.1,8.66,2.317,1.851,4.882,2.6,7.77,1.387a9.714,9.714,0,0,0,2.532-1.579,22.809,22.809,0,0,0,5.674-8.054C883.761,1440.927,883.492,1440.937,883.188,1440.872Zm3.831-11.1a81.985,81.985,0,0,1-10.609,6.114,54.338,54.338,0,0,0,7.978,2.243c.252.05.448.062.561-.272A54.129,54.129,0,0,0,887.019,1429.776Zm.846-7.182a73.312,73.312,0,0,0-.233-13.726,1.007,1.007,0,0,0-.453-.776,75.611,75.611,0,0,0-14.226-8.176.92.92,0,0,0-.823-.01,75.92,75.92,0,0,0-14.282,8.224.911.911,0,0,0-.408.714,78.177,78.177,0,0,0,0,16.424.98.98,0,0,0,.466.757,76.175,76.175,0,0,0,14.076,8.146,1.22,1.22,0,0,0,1.1.011,79.022,79.022,0,0,0,13.794-7.911,1.663,1.663,0,0,0,.816-1.492C887.686,1424.05,887.8,1423.322,887.865,1422.594ZM898,1439.934a2.053,2.053,0,0,0-2.013-2.075,2.044,2.044,0,1,0-.053,4.088A2.033,2.033,0,0,0,898,1439.934Zm5.488-10.3c-.41-3.879-2.327-7.1-4.58-10.271-.177.211-.314.381-.459.544a50.685,50.685,0,0,1-6.712,6.306,3.8,3.8,0,0,0-1.618,2.718,48.119,48.119,0,0,1-2.191,9.211c-.146.429-.032.561.4.573.732.021,1.464.065,2.192.142.409.043.58-.084.718-.481a4.938,4.938,0,0,1,8.424-1.773c.288.31.445.3.755.082A7.116,7.116,0,0,0,903.486,1429.636ZM883.4,1417.1a10.852,10.852,0,1,1-10.823-10.871A10.88,10.88,0,0,1,883.4,1417.1Zm-2.935-.042a7.917,7.917,0,1,0-7.922,7.909A7.949,7.949,0,0,0,880.463,1417.061Z" transform="translate(-6332.602 -12526.083)" fill="#384dc5" stroke="#384dc5" stroke-width="0.5"/>
  </g>
</svg>
