<?xml version="1.0" encoding="utf-8"?>
<!-- Generator: Adobe Illustrator 25.4.3, SVG Export Plug-In . SVG Version: 6.00 Build 0)  -->
<svg version="1.0" id="Camada_1" xmlns="http://www.w3.org/2000/svg" xmlns:xlink="http://www.w3.org/1999/xlink" x="0px" y="0px"
	 viewBox="0 0 13.25 12.289" enable-background="new 0 0 13.25 12.289" xml:space="preserve">
<path id="Caminho_358" fill="#212529" d="M0,0.4c0.137-0.391,0.388-0.494,0.776-0.315c4.039,1.864,8.079,3.727,12.119,5.591
	c0.263,0.083,0.41,0.363,0.327,0.626c-0.006,0.021-0.014,0.041-0.023,0.06c-0.067,0.117-0.173,0.206-0.299,0.252L8.299,8.737
	l-7.539,3.48C0.541,12.364,0.245,12.312,0.09,12.1c-0.035-0.057-0.065-0.117-0.09-0.179V11.74c0.016-0.119,0.067-0.231,0.147-0.32
	c1.285-1.711,2.569-3.423,3.853-5.134c0.103-0.137,0.103-0.137,0-0.274C2.714,4.295,1.427,2.58,0.14,0.867
	C0.064,0.78,0.015,0.672,0,0.557V0.4z"/>
</svg>
