<?xml version="1.0" encoding="utf-8"?>
<!-- Generator: Adobe Illustrator 25.3.1, SVG Export Plug-In . SVG Version: 6.00 Build 0)  -->
<svg version="1.1" id="Camada_1" xmlns="http://www.w3.org/2000/svg" xmlns:xlink="http://www.w3.org/1999/xlink" x="0px" y="0px"
	 viewBox="0 0 43 40.1" style="enable-background:new 0 0 43 40.1;" xml:space="preserve">
<style type="text/css">
	.st0{fill:#FFFFFF;}
</style>
<path class="st0" d="M0,34.4V23.5c0-0.1,0.1-0.2,0.1-0.2c0.3-2.6,2.2-4.6,4.7-5.2c1.1-0.2,2.2-0.2,3.3-0.2c0.4,0,0.8,0,1.3,0v-0.6
	c0-5.1,0-10.1,0-15.2c-0.1-0.6,0.2-1.2,0.7-1.6C10.5,0.1,11,0,11.5,0c7.7,0,15.5,0,23.2,0c2.2,0,4.3,0,6.5,0
	c0.9-0.1,1.8,0.6,1.9,1.5c0,0.1,0,0.2,0,0.3c0,10.2,0,20.4,0,30.6c0,1.3-0.3,2.7-1,3.8c-1.4,2.4-4,3.9-6.8,3.8c-9.2,0-18.4,0-27.5,0
	c-0.3,0-0.5,0-0.8,0c-3,0.2-5.7-1.6-6.6-4.5C0.2,35.2,0.1,34.8,0,34.4z M12.8,3.5V4c0,9.8,0,19.6,0,29.3c-0.1,0.9-0.2,1.7-0.4,2.6
	c-0.1,0.2-0.2,0.5-0.3,0.7c0.2,0,0.3,0,0.4,0c7.5,0,15.1,0,22.6,0c0.4,0,0.8,0,1.2-0.1c1.9-0.5,3.3-2.3,3.2-4.3c0-9.4,0-18.8,0-28.3
	V3.5L12.8,3.5z M9.4,21.2c-1.1,0-2.2,0-3.3,0c-1.4,0.1-2.6,1.2-2.7,2.7c-0.1,1.3,0,2.5,0,3.8c0,2,0,4.1,0,6.1
	c0.1,1.6,1.5,2.9,3.1,2.8c0.3,0,0.6-0.1,0.8-0.2c1.3-0.4,2.1-1.7,2.1-3c0-4,0-7.9,0-11.9L9.4,21.2z M26.2,22.3c-2.4,0-4.9,0-7.3,0
	c-0.9,0-1.7-0.7-1.8-1.6c0-0.2,0-0.5,0.1-0.7c0.2-0.6,0.7-1,1.3-1.1c0.2,0,0.4,0,0.5,0c4.7,0,9.4,0,14.1,0c0.8-0.1,1.6,0.4,1.9,1.2
	c0.3,0.9-0.2,1.8-1.1,2.1c-0.2,0.1-0.4,0.1-0.5,0.1c-1.4,0-2.8,0-4.2,0L26.2,22.3z M24.1,30.1c-1.8,0-3.6,0-5.3,0
	c-0.8,0-1.4-0.5-1.6-1.2c-0.2-0.7,0.1-1.5,0.7-1.9c0.3-0.2,0.7-0.3,1.1-0.3c3.5,0,6.9,0,10.4,0c0.9-0.1,1.8,0.6,1.8,1.6
	c0,0.3,0,0.6-0.2,0.9c-0.3,0.6-0.9,0.9-1.6,0.9C27.6,30.1,25.9,30.1,24.1,30.1L24.1,30.1z M24.1,14.1c-1.7,0-3.5,0-5.2,0
	c-0.7,0-1.4-0.4-1.6-1.1c-0.3-0.6-0.1-1.3,0.3-1.8c0.3-0.4,0.8-0.6,1.4-0.6c3.5,0,7,0,10.5,0c0.9-0.1,1.7,0.6,1.8,1.6
	c0,0.1,0,0.1,0,0.2c0,0.9-0.8,1.7-1.7,1.7c0,0-0.1,0-0.1,0C27.6,14.1,25.8,14.1,24.1,14.1z"/>
</svg>
