<?xml version="1.0" encoding="utf-8"?>
<!-- Generator: Adobe Illustrator 25.3.1, SVG Export Plug-In . SVG Version: 6.00 Build 0)  -->
<svg version="1.1" id="Camada_1" xmlns="http://www.w3.org/2000/svg" xmlns:xlink="http://www.w3.org/1999/xlink" x="0px" y="0px"
	 viewBox="0 0 41.4 41.5" style="enable-background:new 0 0 41.4 41.5;" xml:space="preserve">
<style type="text/css">
	.st0{fill:#FFFFFF;}
</style>
<path class="st0" d="M41.4,7.5v29.7c0,0.1-0.1,0.2-0.1,0.3c-0.3,1.8-1.6,3.3-3.4,3.8c-0.3,0.1-0.6,0.1-0.9,0.2H4.3
	c0,0-0.1,0-0.1-0.1c-2.4-0.4-4.2-2.5-4.1-5c0-9.4,0-18.8,0-28.2c0-0.4,0-0.8,0.1-1.2c0.5-2.2,2.4-3.8,4.7-3.8c0.6,0,1.3,0,2,0V0H10
	v3.2h21.4V0h3.2v3.2c0.7,0,1.4,0,2.1,0c1.5,0,2.9,0.7,3.7,1.9C41,5.9,41.3,6.7,41.4,7.5z M38.2,15.3h-35v0.5c0,6.9,0,13.7,0,20.6
	c-0.2,0.9,0.5,1.8,1.4,1.9c0.2,0,0.4,0,0.5,0h31.1c0.9,0.1,1.8-0.5,1.9-1.4c0-0.2,0-0.4,0-0.5c0-6.9,0-13.7,0-20.6V15.3z M3.2,12h35
	c0-1.3,0-2.6,0-4c0-0.8-0.6-1.4-1.3-1.5c-0.7-0.1-1.4,0-2.2,0v3.2h-3.2V6.5H10v3.2H6.8V6.5H5.2c-0.1,0-0.3,0-0.4,0
	C3.9,6.5,3.3,7.2,3.3,8C3.2,9.3,3.2,10.6,3.2,12L3.2,12z M6.2,21.9v-3.2h3.2v3.2H6.2z M12.7,18.7h3.2v3.2h-3.2V18.7z M22.3,21.9
	h-3.2v-3.2h3.2V21.9z M25.6,21.9v-3.2h3.2v3.2H25.6z M35.3,21.9h-3.2v-3.2h3.2V21.9z M9.4,25.2v3.2H6.2v-3.2H9.4z M15.8,25.2v3.2
	h-3.2v-3.2H15.8z M22.3,28.4h-3.2v-3.2h3.2V28.4z M28.8,28.4h-3.2v-3.2h3.2V28.4z M32.1,25.2h3.2v3.2h-3.2V25.2z M9.4,34.8H6.2v-3.2
	h3.2V34.8z M12.7,31.6h3.2v3.2h-3.2V31.6z M22.3,34.8h-3.2v-3.2h3.2V34.8z M25.6,31.6h3.2v3.2h-3.2V31.6z"/>
</svg>
