<svg id="Camada_1" data-name="Camada 1" xmlns="http://www.w3.org/2000/svg" viewBox="0 0 43 40.1"><defs><style>.cls-1{fill:none;}.cls-2{fill:#fff;}</style></defs><g id="Grupo_2586" data-name="Grupo 2586"><path id="Caminho_3802" data-name="Caminho 3802" class="cls-1" d="M21,.52a.11.11,0,0,1-.14,0C20.87.6,20.91.59,21,.52Z"/><path id="Caminho_3803" data-name="Caminho 3803" class="cls-1" d="M23.3.52a.11.11,0,0,1-.14,0C23.21.59,23.25.59,23.3.52Z"/><path id="Caminho_3804" data-name="Caminho 3804" class="cls-1" d="M22.76.5a.58.58,0,0,1-.45,0A.35.35,0,0,0,22.76.5Z"/><path id="Caminho_3805" data-name="Caminho 3805" class="cls-1" d="M38.15,15.9A16.64,16.64,0,0,0,5.72,23.24a15.82,15.82,0,0,0,2.61,6.28c.32.44.66.87,1,1.3a1.61,1.61,0,0,1,.23,1.78l-.65,1.5c-.4,1-.81,1.92-1.24,2.93,2.2-.39,4.35-.74,6.49-1.15a5.69,5.69,0,0,1,3,.12,15.21,15.21,0,0,0,8.27.42,16.29,16.29,0,0,0,10.94-7.84A16,16,0,0,0,38.15,15.9Zm-8.83,12a4.32,4.32,0,0,1-.62.05H15.31a1.51,1.51,0,0,1-1.62-1.07l0-.09A1.46,1.46,0,0,1,14.75,25h0a1.91,1.91,0,0,1,.58-.06H28.8a1.51,1.51,0,0,1,1.69,1.29,1.82,1.82,0,0,1,0,.33,1.45,1.45,0,0,1-1.18,1.32ZM29,22H15.06a1.49,1.49,0,1,1,.08-3H29.06A1.49,1.49,0,0,1,29,22Zm.41-6a3,3,0,0,1-.66.06H15.3A1.5,1.5,0,0,1,13.7,15a1.47,1.47,0,0,1,.93-1.85l.26-.06a3.55,3.55,0,0,1,.46,0H28.78a1.52,1.52,0,0,1,1.66,1.07l0,.09A1.48,1.48,0,0,1,29.38,16Z"/><path id="Caminho_3806" data-name="Caminho 3806" class="cls-2" d="M23.3.52s0,0,0,0h-.15A.11.11,0,0,0,23.3.52Z"/><path id="Caminho_3807" data-name="Caminho 3807" class="cls-2" d="M22.76.5h-.45A.58.58,0,0,0,22.76.5Z"/><path id="Caminho_3808" data-name="Caminho 3808" class="cls-2" d="M21,.5h-.15a.09.09,0,0,0,.13,0S21,.51,21,.5Z"/><path id="Caminho_3809" data-name="Caminho 3809" class="cls-2" d="M30.44,14.09A1.52,1.52,0,0,0,28.78,13H15.35a3.55,3.55,0,0,0-.46,0,1.47,1.47,0,0,0-1.25,1.66,1,1,0,0,0,.06.25A1.5,1.5,0,0,0,15.3,16H28.72a2.46,2.46,0,0,0,.66-.06,1.47,1.47,0,0,0,1.09-1.77Z"/><path id="Caminho_3810" data-name="Caminho 3810" class="cls-2" d="M41.69,18.17a19.13,19.13,0,0,0-1.94-6.79A19.59,19.59,0,0,0,33.4,4,19.15,19.15,0,0,0,24.78.6c-.43-.06-.88,0-1.31-.1h-.16v0h0c-.05.07-.09.07-.14,0h-.4a.33.33,0,0,1-.44,0H21v0h0c0,.07-.09.08-.14,0h-.24c-.4.08-.82.05-1.23.1a18.38,18.38,0,0,0-4.88,1.32A19.8,19.8,0,0,0,2.76,24.17a19.31,19.31,0,0,0,3.4,7.59.68.68,0,0,1,.08.76c-.41,1-.84,2-1.25,2.94s-.92,2-1.27,3.06a1.61,1.61,0,0,0-.08.48,1.5,1.5,0,0,0,1.5,1.5,7.74,7.74,0,0,0,1.36-.13L15,38.88a2.09,2.09,0,0,1,1.11.06,19.34,19.34,0,0,0,8.31.78,19.56,19.56,0,0,0,11.6-5.66,18.3,18.3,0,0,0,2.7-3.38h0A19.55,19.55,0,0,0,41.69,18.17ZM36.38,28.58a16.29,16.29,0,0,1-10.94,7.84A15.21,15.21,0,0,1,17.17,36a5.69,5.69,0,0,0-3-.12c-2.14.41-4.29.76-6.49,1.15.43-1,.84-2,1.24-2.93l.65-1.5a1.61,1.61,0,0,0-.23-1.78c-.34-.43-.68-.86-1-1.3a15.82,15.82,0,0,1-2.61-6.28A16.64,16.64,0,0,1,38.15,15.9h0A16,16,0,0,1,36.38,28.58Z"/><path id="Caminho_3811" data-name="Caminho 3811" class="cls-2" d="M29.06,19H15.14a1.49,1.49,0,0,0-.08,3H29a1.49,1.49,0,1,0,.09-3Z"/><path id="Caminho_3812" data-name="Caminho 3812" class="cls-2" d="M29.12,24.94a1.13,1.13,0,0,0-.32,0H15.34a1.88,1.88,0,0,0-.58.06,1.46,1.46,0,0,0-1.09,1.77h0a.29.29,0,0,0,0,.09,1.52,1.52,0,0,0,1.63,1.07H28.7a4.21,4.21,0,0,0,.62-.05,1.45,1.45,0,0,0,1.18-1.32,1.51,1.51,0,0,0-1.38-1.63Z"/></g></svg>