<?xml version="1.0" encoding="utf-8"?>
<!-- Generator: Adobe Illustrator 25.3.1, SVG Export Plug-In . SVG Version: 6.00 Build 0)  -->
<svg version="1.1" id="Camada_1" xmlns="http://www.w3.org/2000/svg" xmlns:xlink="http://www.w3.org/1999/xlink" x="0px" y="0px"
	 viewBox="0 0 46.8 47.3" style="enable-background:new 0 0 46.8 47.3;" xml:space="preserve">
<style type="text/css">
	.st0{fill:#FFFFFF;}
</style>
<path id="Caminho_3766" class="st0" d="M12.1,42.4L6,43.9l-2.5-2.6L5,35.2 M9,35.7l19.7-20l2.6,2.7l-19.7,20L9,35.7z M5.8,32.2
	c0-0.2,0.1-0.4,0.2-0.6l19.2-19.5c0.1,0.2,0.2,0.4,0.4,0.6l1.3,1.3l-19.7,20L6,32.7C5.9,32.6,5.8,32.4,5.8,32.2 M34.9,21.9
	L15.7,41.3c-0.3,0.3-0.8,0.3-1.1,0c0,0,0,0,0,0l-1.2-1.2l19.7-20l1.3,1.3C34.6,21.6,34.7,21.8,34.9,21.9 M38.1,18.5L37,19.7
	c-0.2,0.2-0.6,0.2-0.8,0l-8.7-8.9c-0.2-0.2-0.2-0.6,0-0.9l1.1-1.1c0.1,0.1,0.2,0.3,0.3,0.4l8.7,8.9C37.7,18.3,37.9,18.4,38.1,18.5
	 M44.1,12.4l-4,4c-0.2,0.2-0.6,0.2-0.8,0l-8.7-8.9c-0.2-0.2-0.2-0.5-0.1-0.7c0,0,0,0,0.1-0.1l4-4.1c0.1-0.1,0.3-0.1,0.4-0.1
	c0.2,0,0.3,0.1,0.4,0.2l8.7,8.8l0.1,0.1C44.3,11.8,44.3,12.2,44.1,12.4 M46.8,11.3c-0.2-0.6-0.5-1.1-0.9-1.6l-8.8-8.8
	c-1.1-1.1-2.8-1.2-4-0.3c-0.2,0.1-0.3,0.3-0.5,0.4L4.3,29.8c-0.6,0.6-1,1.4-1,2.3c0,0.1,0,0.1-0.1,0.2c0,0.1-0.1,0.2-0.1,0.3
	l-3,11.8C0,44.6,0,44.8,0,45c-0.1,0.6,0.2,1.2,0.6,1.6C1,47,1.5,47.3,2,47.3h0.3c0.2,0,0.4,0,0.6-0.1l11.7-2.8
	c0.3-0.1,0.5-0.2,0.7-0.3c0.8,0,1.6-0.4,2.2-0.9l28.4-28.8C46.7,13.6,47,12.4,46.8,11.3"/>
</svg>
