<svg xmlns="http://www.w3.org/2000/svg" width="431.738" height="112.976" viewBox="0 0 431.738 112.976"><defs><style>.a{fill:#fff;}.b{fill:#f36a10;}</style></defs><path class="a" d="M94.221,16.9c-21.792-8.115-47.57-1.033-62.382,16.8C16.607,52.025,14.175,78.613,26.553,99.163A57.259,57.259,0,0,0,85.836,125.6c26.512-4.812,45.444-28.973,45.784-55.5A57.378,57.378,0,0,0,94.221,16.9Zm-4.873,93.351A42.6,42.6,0,0,1,38.609,48.083C47.7,32.988,66.005,24.692,83.357,28.3a43.113,43.113,0,0,1,34.3,41.8C117.428,87.834,106.36,104.4,89.349,110.249Z" transform="translate(-18.641 -13.558)"/><g transform="translate(0.012 30.603)"><path class="b" d="M127.1,29.095l.229-1.128c-.07-.178-.149-.35-.223-.524-46.839-10-82-1.246-107.969,14.491a57.346,57.346,0,0,0-.486,7.918C44.345,32.28,79.678,20.9,127.1,29.095Z" transform="translate(-18.645 -23.186)"/><path class="b" d="M124.636,28.19l.267-1.322S66.643,14.1,19.429,61.5a55.558,55.558,0,0,0,2,5.407C43.049,44.442,75.995,25.151,124.636,28.19Z" transform="translate(-16.935 -18.575)"/><path class="b" d="M115.83,27.439S63.247,18.625,23.2,78.731c1.144,1.252,2.346,2.444,3.589,3.579,16.675-26.017,44.557-52.888,88.72-53.282Z" transform="translate(-8.72 -14.909)"/><path class="b" d="M29.355,89.929a57.3,57.3,0,0,0,5.556,2.053c27.193-58.3,66.381-61.655,66.381-61.655l.429-2.117S58.452,29.279,29.355,89.929Z" transform="translate(4.689 -12.239)"/></g><path class="a" d="M58.38,56.8a43.565,43.565,0,0,1-.439,5.588q6.985.186,13.951.769a56.288,56.288,0,0,0,.451-6.357A57.528,57.528,0,0,0,58.189,19.66q-6.184,3.557-12.339,7.164A43.3,43.3,0,0,1,58.38,56.8Z" transform="translate(40.636 -0.265)"/><g transform="translate(126.396 3.305)"><g transform="translate(0.156)"><path class="a" d="M76.083,29.312H58.455V14.97h51.706V29.312H92.447V74.018H76.083Z" transform="translate(-58.455 -13.788)"/><path class="a" d="M76.978,14.97H104.9a34.578,34.578,0,0,1,11.557,1.688,20.376,20.376,0,0,1,7.676,4.638q5.226,5.235,5.229,13.75v.168a18.765,18.765,0,0,1-3.29,11.347,20.688,20.688,0,0,1-8.855,6.872L131.3,74.018H112.489L100.6,56.136H93.341V74.018H76.978Zm27.247,28.343a9.925,9.925,0,0,0,6.452-1.9,6.257,6.257,0,0,0,2.32-5.1v-.168a6.173,6.173,0,0,0-2.406-5.315,10.653,10.653,0,0,0-6.452-1.77h-10.8V43.313Z" transform="translate(-18.101 -13.788)"/><path class="a" d="M119.652,14.837h15.775l25.136,59.471H143.018L138.8,63.679H115.94l-4.218,10.629H94.6Zm14.338,36.105-6.58-16.7-6.662,16.7Z" transform="translate(20.287 -14.077)"/><path class="a" d="M147,76.008a31.138,31.138,0,0,1-11.894-2.276,29.065,29.065,0,0,1-9.66-6.37,30.7,30.7,0,0,1-8.9-21.891V45.3a31.115,31.115,0,0,1,2.32-12.018A29.781,29.781,0,0,1,125.36,23.5a30.2,30.2,0,0,1,9.828-6.535,31.807,31.807,0,0,1,12.4-2.365,35.623,35.623,0,0,1,8.267.887A27.925,27.925,0,0,1,168.214,21.9a30.869,30.869,0,0,1,4.428,4.933l-12.314,9.533a22.708,22.708,0,0,0-5.569-5.019,13.573,13.573,0,0,0-7.339-1.9,13.1,13.1,0,0,0-5.693,1.224,13.329,13.329,0,0,0-4.428,3.376,16.035,16.035,0,0,0-2.912,5.019,17.457,17.457,0,0,0-1.055,6.071V45.3a18.077,18.077,0,0,0,1.055,6.2,15.447,15.447,0,0,0,2.912,5.019,13.591,13.591,0,0,0,4.428,3.331,13.057,13.057,0,0,0,5.693,1.224,16.208,16.208,0,0,0,4.177-.505,12.678,12.678,0,0,0,3.458-1.478,18.823,18.823,0,0,0,2.953-2.276,33.7,33.7,0,0,0,2.74-2.912l12.317,8.773a44.239,44.239,0,0,1-4.6,5.315,26.377,26.377,0,0,1-5.655,4.218A29.55,29.55,0,0,1,155.769,75,34.847,34.847,0,0,1,147,76.008Z" transform="translate(68.1 -14.598)"/><path class="a" d="M136.556,14.97h16.363V38.927L173.332,14.97h19.319L170.3,40.275l23.111,33.744H173.841L158.908,52.086l-5.988,6.58V74.018H136.556Z" transform="translate(111.693 -13.788)"/></g><g transform="translate(0 71.155)"><path class="b" d="M69.954,66.083a16.7,16.7,0,0,1-6.2-1.112,17.707,17.707,0,0,1-5.35-3.411l1.977-2.343a16.61,16.61,0,0,0,4.482,3.007,12.865,12.865,0,0,0,5.21.992,7.2,7.2,0,0,0,4.584-1.354,4.211,4.211,0,0,0,1.716-3.452v-.079a4.569,4.569,0,0,0-.324-1.758,3.6,3.6,0,0,0-1.132-1.434,8.019,8.019,0,0,0-2.241-1.173,28.391,28.391,0,0,0-3.652-1.008A29.314,29.314,0,0,1,64.8,51.748a10.473,10.473,0,0,1-2.966-1.656A6.066,6.066,0,0,1,60.1,47.829a7.515,7.515,0,0,1-.566-3.026V44.72a6.92,6.92,0,0,1,.687-3.067,7.234,7.234,0,0,1,1.939-2.444,9.482,9.482,0,0,1,2.947-1.615,11.4,11.4,0,0,1,3.716-.585,15.5,15.5,0,0,1,5.432.868,16.449,16.449,0,0,1,4.5,2.606L76.9,42.943A13.816,13.816,0,0,0,72.922,40.6a12.111,12.111,0,0,0-4.18-.728,6.787,6.787,0,0,0-4.4,1.313,4.028,4.028,0,0,0-1.615,3.248v.083a4.737,4.737,0,0,0,.321,1.8,3.624,3.624,0,0,0,1.17,1.453,8.531,8.531,0,0,0,2.336,1.214,27.934,27.934,0,0,0,3.827,1.027,16.657,16.657,0,0,1,6.948,2.908,6.261,6.261,0,0,1,2.235,5.089v.079a7.458,7.458,0,0,1-.715,3.293,7.621,7.621,0,0,1-1.98,2.524,8.922,8.922,0,0,1-3.039,1.615A12.765,12.765,0,0,1,69.954,66.083Z" transform="translate(-58.406 -36.93)"/><path class="b" d="M75.125,65.018a8.166,8.166,0,0,1-2.343-.324,4.576,4.576,0,0,1-3.109-2.861,7.293,7.293,0,0,1-.445-2.7V46.563H66.32V43.779h2.908v-6.3h3.109v6.3h6.621v2.784H72.337v12.2a3.275,3.275,0,0,0,.969,2.7,3.974,3.974,0,0,0,2.543.766,6.615,6.615,0,0,0,1.516-.168,6.737,6.737,0,0,0,1.513-.6v2.664a6.95,6.95,0,0,1-1.716.668A8.677,8.677,0,0,1,75.125,65.018Z" transform="translate(-41.165 -35.906)"/><path class="b" d="M79.322,60.974a10.12,10.12,0,0,1-2.845-.4,7.774,7.774,0,0,1-2.5-1.23A6.332,6.332,0,0,1,72.2,57.3a5.758,5.758,0,0,1-.668-2.826v-.079a6.236,6.236,0,0,1,.648-2.908,5.816,5.816,0,0,1,1.837-2.1,8.753,8.753,0,0,1,2.826-1.29,13.792,13.792,0,0,1,3.614-.445,22.168,22.168,0,0,1,3.512.242,25.426,25.426,0,0,1,2.908.648v-.725a5.3,5.3,0,0,0-1.637-4.231,6.748,6.748,0,0,0-4.583-1.427,12.464,12.464,0,0,0-3.369.426,18.822,18.822,0,0,0-2.969,1.109l-.928-2.559a20.543,20.543,0,0,1,3.512-1.29,15.943,15.943,0,0,1,4.078-.47q4.444,0,6.745,2.3a8.258,8.258,0,0,1,2.139,6.1V60.532H86.874v-3.15a10.231,10.231,0,0,1-2.927,2.5A8.934,8.934,0,0,1,79.322,60.974Zm.629-2.463a8.511,8.511,0,0,0,2.718-.423,7.2,7.2,0,0,0,2.212-1.173,5.525,5.525,0,0,0,1.491-1.774,4.819,4.819,0,0,0,.544-2.282V50.84q-1.168-.324-2.676-.607A18.93,18.93,0,0,0,80.8,49.95a7.429,7.429,0,0,0-4.507,1.173,3.729,3.729,0,0,0-1.57,3.15v.079a3.635,3.635,0,0,0,.423,1.755,3.832,3.832,0,0,0,1.147,1.313,5.5,5.5,0,0,0,1.669.807A6.866,6.866,0,0,0,79.951,58.51Z" transform="translate(-29.819 -31.782)"/><path class="b" d="M79.379,39.714h3.109v5.451A11.206,11.206,0,0,1,83.9,42.781a9.5,9.5,0,0,1,1.939-1.875,8.085,8.085,0,0,1,2.381-1.192,8.528,8.528,0,0,1,2.788-.366V42.7h-.242a8.554,8.554,0,0,0-3.21.6,7.265,7.265,0,0,0-2.645,1.818,8.614,8.614,0,0,0-1.777,3.007,12.17,12.17,0,0,0-.648,4.142v8.318H79.379Z" transform="translate(-12.715 -31.84)"/><path class="b" d="M92.757,65.018a8.182,8.182,0,0,1-2.343-.324,4.8,4.8,0,0,1-1.879-1.027,4.735,4.735,0,0,1-1.23-1.834,7.358,7.358,0,0,1-.445-2.7V46.563H83.952V43.779H86.86v-6.3h3.109v6.3h6.624v2.784H89.969v12.2a3.275,3.275,0,0,0,.969,2.7,3.977,3.977,0,0,0,2.546.766A6.568,6.568,0,0,0,95,62.062a6.679,6.679,0,0,0,1.513-.6v2.664A6.926,6.926,0,0,1,94.8,64.8,8.724,8.724,0,0,1,92.757,65.018Z" transform="translate(-2.752 -35.906)"/><path class="b" d="M101.43,65.845a13.819,13.819,0,0,1-4.784-.788,10.035,10.035,0,0,1-3.716-2.339,10.468,10.468,0,0,1-2.4-3.856,15.253,15.253,0,0,1-.849-5.292V37.136H92.87V53.369q0,4.6,2.3,7.066a9.407,9.407,0,0,0,12.559.121q2.3-2.341,2.3-6.986V37.136h3.191V53.328a15.976,15.976,0,0,1-.849,5.451,10.639,10.639,0,0,1-2.4,3.916,9.9,9.9,0,0,1-3.713,2.362A13.974,13.974,0,0,1,101.43,65.845Z" transform="translate(9.731 -36.653)"/><path class="b" d="M99.3,39.766h3.109v4.2a16.466,16.466,0,0,1,1.434-1.777,9.39,9.39,0,0,1,1.758-1.475,9.059,9.059,0,0,1,2.161-1.008,8.53,8.53,0,0,1,2.645-.385,9.845,9.845,0,0,1,6.863,2.848,10.382,10.382,0,0,1,2.263,3.392,11.636,11.636,0,0,1,.849,4.583v.079a11.657,11.657,0,0,1-.849,4.561,10.518,10.518,0,0,1-2.241,3.414,9.785,9.785,0,0,1-3.191,2.139,9.516,9.516,0,0,1-3.693.747,9.281,9.281,0,0,1-2.667-.362,8.9,8.9,0,0,1-2.18-.969,9.327,9.327,0,0,1-1.755-1.414,12.612,12.612,0,0,1-1.4-1.694V67.1H99.3ZM109.838,58.3a7.58,7.58,0,0,0,2.848-.547,6.636,6.636,0,0,0,2.339-1.573,7.587,7.587,0,0,0,1.577-2.524,9.3,9.3,0,0,0,.585-3.392v-.083a9.169,9.169,0,0,0-.585-3.35,7.641,7.641,0,0,0-1.6-2.543,7.008,7.008,0,0,0-2.343-1.618,7.186,7.186,0,0,0-2.826-.563,6.987,6.987,0,0,0-2.807.585,7.717,7.717,0,0,0-2.422,1.656,7.892,7.892,0,0,0-1.7,2.543,8.249,8.249,0,0,0-.626,3.252v.079a8.518,8.518,0,0,0,.626,3.312,7.625,7.625,0,0,0,1.7,2.543,7.932,7.932,0,0,0,2.422,1.637A7.041,7.041,0,0,0,109.838,58.3Z" transform="translate(30.68 -31.893)"/><path class="b" d="M111.709,37.136h10.559a14.178,14.178,0,0,1,4.332.626,9.9,9.9,0,0,1,3.347,1.777,7.712,7.712,0,0,1,2.136,2.807,9.066,9.066,0,0,1,.744,3.754v.083a8.346,8.346,0,0,1-3.283,6.9,10.456,10.456,0,0,1-3.525,1.758,15.306,15.306,0,0,1-4.269.585H114.9V65.4h-3.191ZM121.887,52.52a10.591,10.591,0,0,0,3.169-.445,7.35,7.35,0,0,0,2.463-1.271,5.6,5.6,0,0,0,1.573-1.958,5.8,5.8,0,0,0,.547-2.543V46.22a5.371,5.371,0,0,0-2.082-4.583,9,9,0,0,0-5.512-1.554H114.9V52.52Z" transform="translate(57.718 -36.653)"/><path class="b" d="M131.8,65.845a13.819,13.819,0,0,1-4.784-.788,10.035,10.035,0,0,1-3.716-2.339,10.516,10.516,0,0,1-2.4-3.856,15.256,15.256,0,0,1-.845-5.292V37.136h3.188V53.369q0,4.6,2.3,7.066a9.407,9.407,0,0,0,12.558.121q2.3-2.341,2.3-6.986V37.136H143.6V53.328a15.977,15.977,0,0,1-.849,5.451,10.64,10.64,0,0,1-2.4,3.916,9.886,9.886,0,0,1-3.716,2.362A13.943,13.943,0,0,1,131.8,65.845Z" transform="translate(75.902 -36.653)"/><path class="b" d="M143.616,66.217a13.894,13.894,0,0,1-13.1-8.843,15.163,15.163,0,0,1-1.071-5.693V51.6a15.057,15.057,0,0,1,1.071-5.651,14.617,14.617,0,0,1,2.969-4.666,13.773,13.773,0,0,1,4.523-3.147,14.075,14.075,0,0,1,5.734-1.151,17.169,17.169,0,0,1,3.49.321,14.551,14.551,0,0,1,2.889.909,13.126,13.126,0,0,1,2.463,1.414,21.256,21.256,0,0,1,2.18,1.837l-2.18,2.343a17.874,17.874,0,0,0-3.9-2.788,10.9,10.9,0,0,0-12.8,2.26,11.367,11.367,0,0,0-2.3,3.7,12.345,12.345,0,0,0-.83,4.542V51.6a12.456,12.456,0,0,0,.83,4.583,11.32,11.32,0,0,0,2.3,3.694,10.852,10.852,0,0,0,3.471,2.486,10.388,10.388,0,0,0,4.342.909,10.915,10.915,0,0,0,5.006-1.071,17.5,17.5,0,0,0,4.119-3.007l2.1,2.057a20.046,20.046,0,0,1-2.279,2.041,14,14,0,0,1-2.565,1.554,14.692,14.692,0,0,1-2.947,1.011A15.724,15.724,0,0,1,143.616,66.217Z" transform="translate(96.353 -36.984)"/><path class="b" d="M139.212,37.136h12.133a13.453,13.453,0,0,1,4.657.747,9.149,9.149,0,0,1,3.363,2.079,7.32,7.32,0,0,1,1.615,2.463,8.348,8.348,0,0,1,.563,3.109v.083a8.4,8.4,0,0,1-.563,3.169,7.3,7.3,0,0,1-1.592,2.422,8.625,8.625,0,0,1-2.438,1.7,11.719,11.719,0,0,1-3.064.947L162.565,65.4h-3.916l-8.188-10.985H142.4V65.4h-3.191Zm11.872,14.415a9.973,9.973,0,0,0,2.908-.4,7.044,7.044,0,0,0,2.3-1.151,5.185,5.185,0,0,0,2.06-4.259v-.083a4.9,4.9,0,0,0-1.9-4.1,8.519,8.519,0,0,0-5.33-1.475H142.4V51.551Z" transform="translate(117.635 -36.653)"/><path class="b" d="M159.363,66.083a16.687,16.687,0,0,1-6.2-1.112,17.759,17.759,0,0,1-5.353-3.411l1.98-2.343a16.611,16.611,0,0,0,4.482,3.007,12.864,12.864,0,0,0,5.21.992,7.2,7.2,0,0,0,4.583-1.354,4.211,4.211,0,0,0,1.716-3.452v-.079a4.569,4.569,0,0,0-.324-1.758,3.6,3.6,0,0,0-1.132-1.434,8.018,8.018,0,0,0-2.241-1.173,28.386,28.386,0,0,0-3.652-1.008,29.192,29.192,0,0,1-4.221-1.211,10.538,10.538,0,0,1-2.969-1.656,6.09,6.09,0,0,1-1.736-2.263,7.462,7.462,0,0,1-.566-3.026V44.72a6.921,6.921,0,0,1,.687-3.067,7.194,7.194,0,0,1,1.939-2.444,9.445,9.445,0,0,1,2.946-1.615,11.386,11.386,0,0,1,3.716-.585,15.5,15.5,0,0,1,5.432.868,16.448,16.448,0,0,1,4.5,2.606l-1.856,2.46a13.788,13.788,0,0,0-3.98-2.339,12.081,12.081,0,0,0-4.177-.728,6.787,6.787,0,0,0-4.4,1.313,4.028,4.028,0,0,0-1.615,3.248v.083a4.737,4.737,0,0,0,.321,1.8,3.623,3.623,0,0,0,1.17,1.453,8.529,8.529,0,0,0,2.336,1.214,27.808,27.808,0,0,0,3.827,1.027,16.676,16.676,0,0,1,6.948,2.908,6.261,6.261,0,0,1,2.235,5.089v.079a7.416,7.416,0,0,1-.718,3.293,7.571,7.571,0,0,1-1.977,2.524,8.952,8.952,0,0,1-3.039,1.615A12.78,12.78,0,0,1,159.363,66.083Z" transform="translate(136.371 -36.93)"/></g></g></svg>