<?xml version="1.0" encoding="utf-8"?>
<!-- Generator: Adobe Illustrator 25.3.1, SVG Export Plug-In . SVG Version: 6.00 Build 0)  -->
<svg version="1.1" id="Camada_1" xmlns="http://www.w3.org/2000/svg" xmlns:xlink="http://www.w3.org/1999/xlink" x="0px" y="0px"
	 viewBox="0 0 62 52" style="enable-background:new 0 0 62 52;" xml:space="preserve">
<style type="text/css">
	.st0{fill:#1F4E7E;}
</style>
<path class="st0" d="M60.2,21.7L38.4,0.9l0,0c-1.4-1.3-3.6-1.2-4.9,0.2c-1.3,1.4-1.2,3.5,0.1,4.9l17.4,16.5H3.5C1.6,22.5,0,24,0,26
	s1.6,3.5,3.5,3.5h47.4L33.6,45.9c-1.4,1.3-1.5,3.5-0.2,4.9c0.6,0.7,1.5,1.1,2.4,1.1c0,0,0.1,0,0.1,0c0.9,0,1.7-0.3,2.4-0.9
	l21.9-20.9C62.6,27.9,62.6,24.1,60.2,21.7z"/>
</svg>
