<?xml version="1.0" encoding="utf-8"?>
<!-- Generator: Adobe Illustrator 25.3.1, SVG Export Plug-In . SVG Version: 6.00 Build 0)  -->
<svg version="1.1" id="Camada_1" xmlns="http://www.w3.org/2000/svg" xmlns:xlink="http://www.w3.org/1999/xlink" x="0px" y="0px"
	 viewBox="0 0 62 52" style="enable-background:new 0 0 62 52;" xml:space="preserve">
<style type="text/css">
	.st0{fill:#1F4E7E;}
</style>
<path class="st0" d="M58.5,22.5H11L28.4,6c1.4-1.3,1.4-3.5,0.1-4.9c-1.3-1.4-3.5-1.5-4.9-0.2L1.8,21.7c-2.3,2.3-2.3,6.1,0,8.5
	l21.9,20.8c0.7,0.6,1.5,0.9,2.4,0.9c0.9,0,1.9-0.4,2.6-1.1c1.3-1.4,1.2-3.6-0.2-4.9L11.1,29.5h47.4c1.9,0,3.5-1.6,3.5-3.5
	C62,24,60.4,22.5,58.5,22.5z"/>
</svg>
