<?xml version="1.0" encoding="utf-8"?>
<!-- Generator: Adobe Illustrator 26.0.3, SVG Export Plug-In . SVG Version: 6.00 Build 0)  -->
<svg version="1.1" id="Camada_1" xmlns="http://www.w3.org/2000/svg" xmlns:xlink="http://www.w3.org/1999/xlink" x="0px" y="0px"
	 viewBox="0 0 63.1 63.1" style="enable-background:new 0 0 63.1 63.1;" xml:space="preserve">
<style type="text/css">
	.st0{fill:#7E8285;}
</style>
<path id="Grupo_3395" transform="translate(-286.816 -28.886)" class="st0" d="M299.6,29.1C299.6,29.1,299.6,29.2,299.6,29.1
	C299.6,29.2,299.6,29.2,299.6,29.1C299.6,29.2,299.6,29.2,299.6,29.1C299.6,29.2,299.6,29.1,299.6,29.1z M305.8,29.3
	c0.1,0,0.1,0,0.1-0.1c0-0.1,0-0.1-0.1-0.1c-0.1,0-0.1,0-0.1,0.1C305.7,29.2,305.8,29.3,305.8,29.3L305.8,29.3z M312.1,29.4
	c0.1,0,0.2-0.1,0.2-0.2s-0.1-0.2-0.2-0.2c-0.1,0-0.2,0.1-0.2,0.2c0,0,0,0,0,0C311.9,29.3,312,29.4,312.1,29.4z M318.4,28.9
	c0.2,0,0.3,0.1,0.3,0.3s-0.1,0.3-0.3,0.3s-0.3-0.1-0.3-0.3S318.2,28.9,318.4,28.9z M324.6,28.9c0.1,0,0.2,0.1,0.2,0.2
	s-0.1,0.2-0.2,0.2s-0.2-0.1-0.2-0.2S324.5,28.9,324.6,28.9z M330.9,29.3c0.1,0,0.1-0.1,0.1-0.1c0-0.1-0.1-0.1-0.1-0.1
	c-0.1,0-0.1,0.1-0.1,0.1C330.7,29.2,330.8,29.3,330.9,29.3C330.9,29.3,330.9,29.3,330.9,29.3z M337.1,29.1
	C337.1,29.1,337.1,29.2,337.1,29.1C337.1,29.2,337.1,29.2,337.1,29.1C337.1,29.2,337.1,29.2,337.1,29.1
	C337.1,29.2,337.1,29.1,337.1,29.1z M293.3,35.5C293.4,35.4,293.4,35.4,293.3,35.5C293.4,35.4,293.4,35.4,293.3,35.5
	C293.3,35.4,293.3,35.4,293.3,35.5C293.3,35.4,293.3,35.5,293.3,35.5L293.3,35.5z M299.6,35.1c0.2,0,0.3,0.1,0.3,0.3
	s-0.1,0.3-0.3,0.3s-0.3-0.1-0.3-0.3S299.4,35.1,299.6,35.1z M305.8,34.9c0.3,0,0.5,0.2,0.5,0.5c0,0.3-0.2,0.5-0.5,0.5
	c-0.3,0-0.5-0.2-0.5-0.5C305.3,35.1,305.6,34.9,305.8,34.9z M312.1,36.1c0.4,0,0.7-0.3,0.7-0.7s-0.3-0.7-0.7-0.7
	c-0.4,0-0.7,0.3-0.7,0.7c0,0,0,0,0,0C311.4,35.8,311.7,36.1,312.1,36.1z M318.4,36.2c0.4,0,0.8-0.4,0.8-0.8s-0.4-0.8-0.8-0.8
	c-0.4,0-0.8,0.4-0.8,0.8c0,0,0,0,0,0C317.6,35.9,317.9,36.2,318.4,36.2z M324.6,36.1c0.4,0,0.7-0.3,0.7-0.7s-0.3-0.7-0.7-0.7
	c-0.4,0-0.7,0.3-0.7,0.7c0,0,0,0,0,0C323.9,35.8,324.2,36.1,324.6,36.1z M330.9,34.9c0.3,0,0.6,0.2,0.6,0.6s-0.2,0.6-0.6,0.6
	s-0.6-0.2-0.6-0.6S330.5,34.9,330.9,34.9z M337.1,35.1c0.2,0,0.3,0.1,0.3,0.3c0,0.2-0.1,0.3-0.3,0.3c-0.2,0-0.3-0.1-0.3-0.3
	C336.8,35.3,336.9,35.1,337.1,35.1z M343.4,35.4C343.4,35.4,343.4,35.4,343.4,35.4c0.1,0.1,0,0.1,0,0.1S343.3,35.4,343.4,35.4
	C343.3,35.4,343.3,35.4,343.4,35.4z M287.1,41.7C287.1,41.7,287.1,41.7,287.1,41.7C287.1,41.7,287.1,41.7,287.1,41.7
	C287.1,41.7,287.1,41.7,287.1,41.7C287.1,41.7,287.1,41.7,287.1,41.7z M293.3,41.4c0.2,0,0.3,0.1,0.3,0.3s-0.1,0.3-0.3,0.3
	s-0.3-0.1-0.3-0.3S293.2,41.4,293.3,41.4z M299.6,42.3c0.4,0,0.7-0.3,0.7-0.7S300,41,299.6,41c-0.4,0-0.7,0.3-0.7,0.7c0,0,0,0,0,0
	C298.9,42,299.2,42.3,299.6,42.3z M305.8,42.7c0.5,0,1-0.4,1-1c0-0.5-0.4-1-1-1c-0.5,0-1,0.4-1,1C304.9,42.2,305.3,42.7,305.8,42.7
	L305.8,42.7z M312.1,42.9c0.7,0,1.2-0.6,1.2-1.2s-0.6-1.2-1.2-1.2c-0.7,0-1.2,0.6-1.2,1.2c0,0,0,0,0,0
	C310.9,42.3,311.4,42.9,312.1,42.9z M318.4,43c0.7,0,1.3-0.6,1.3-1.3s-0.6-1.3-1.3-1.3c-0.7,0-1.3,0.6-1.3,1.3
	C317,42.4,317.6,43,318.4,43C318.4,43,318.4,43,318.4,43z M324.6,42.9c0.7,0,1.2-0.6,1.2-1.2s-0.6-1.2-1.2-1.2
	c-0.7,0-1.2,0.6-1.2,1.2c0,0,0,0,0,0C323.4,42.3,323.9,42.9,324.6,42.9z M330.9,42.7c0.6,0,1-0.5,1-1c0-0.6-0.5-1-1-1
	c-0.6,0-1,0.5-1,1C329.8,42.2,330.3,42.7,330.9,42.7L330.9,42.7z M337.1,42.4c0.4,0,0.7-0.3,0.7-0.7c0-0.4-0.3-0.7-0.7-0.7
	c-0.4,0-0.7,0.3-0.7,0.7C336.4,42.1,336.7,42.4,337.1,42.4C337.1,42.4,337.1,42.4,337.1,42.4z M343.4,41.4c0.2,0,0.3,0.1,0.3,0.3
	c0,0.2-0.1,0.3-0.3,0.3c-0.2,0-0.3-0.1-0.3-0.3C343.1,41.5,343.2,41.4,343.4,41.4z M349.6,41.7C349.6,41.7,349.6,41.7,349.6,41.7
	C349.6,41.7,349.6,41.7,349.6,41.7C349.6,41.7,349.6,41.7,349.6,41.7C349.6,41.7,349.6,41.7,349.6,41.7z M287.1,48
	c0.1,0,0.1,0,0.1-0.1c0-0.1,0-0.1-0.1-0.1c-0.1,0-0.1,0-0.1,0.1S287,48,287.1,48L287.1,48z M293.3,48.5c0.3,0,0.5-0.2,0.5-0.5
	s-0.2-0.5-0.5-0.5s-0.5,0.2-0.5,0.5v0C292.8,48.2,293,48.5,293.3,48.5z M299.6,48.9c0.5,0,1-0.4,1-1c0-0.5-0.4-1-1-1
	c-0.5,0-1,0.4-1,1S299.1,48.9,299.6,48.9L299.6,48.9z M305.9,49.3c0.8,0,1.4-0.6,1.4-1.4c0-0.8-0.6-1.4-1.4-1.4
	c-0.8,0-1.4,0.6-1.4,1.4c0,0,0,0,0,0C304.5,48.7,305.1,49.3,305.9,49.3z M312.1,49.6c0.9,0,1.7-0.8,1.7-1.7c0-0.9-0.8-1.7-1.7-1.7
	c-0.9,0-1.7,0.8-1.7,1.7S311.2,49.6,312.1,49.6L312.1,49.6z M318.3,49.8c1,0,1.8-0.8,1.8-1.8s-0.8-1.8-1.8-1.8c-1,0-1.8,0.8-1.8,1.8
	C316.5,48.9,317.3,49.8,318.3,49.8L318.3,49.8z M324.6,46.2c1,0,1.7,0.8,1.7,1.7c0,1-0.8,1.7-1.7,1.7c-1,0-1.7-0.8-1.7-1.7
	C322.9,47,323.6,46.2,324.6,46.2z M330.9,49.3c0.8,0,1.4-0.6,1.4-1.4s-0.6-1.4-1.4-1.4c-0.8,0-1.4,0.6-1.4,1.4
	C329.4,48.7,330.1,49.3,330.9,49.3C330.9,49.3,330.9,49.3,330.9,49.3z M337.1,48.9c0.6,0,1-0.5,1-1c0-0.6-0.5-1-1-1
	c-0.6,0-1,0.5-1,1C336.1,48.5,336.5,48.9,337.1,48.9L337.1,48.9z M343.4,47.3c0.3,0,0.6,0.3,0.6,0.6c0,0.3-0.3,0.6-0.6,0.6
	c-0.3,0-0.6-0.3-0.6-0.6C342.8,47.6,343,47.3,343.4,47.3z M349.6,48.1c0.1,0,0.1-0.1,0.1-0.1s-0.1-0.1-0.1-0.1
	c-0.1,0-0.1,0.1-0.1,0.1c0,0,0,0,0,0C349.5,48,349.5,48.1,349.6,48.1L349.6,48.1z M287.1,53.9c0.1,0,0.2,0.1,0.2,0.2
	c0,0.1-0.1,0.2-0.2,0.2s-0.2-0.1-0.2-0.2C286.9,54,287,53.9,287.1,53.9z M293.3,54.9c0.4,0,0.7-0.3,0.7-0.7s-0.3-0.7-0.7-0.7
	s-0.7,0.3-0.7,0.7v0C292.6,54.6,292.9,54.9,293.3,54.9z M299.6,52.9c0.7,0,1.2,0.6,1.2,1.2s-0.6,1.2-1.2,1.2c-0.7,0-1.2-0.6-1.2-1.2
	S298.9,52.9,299.6,52.9z M305.8,52.5c0.9,0,1.7,0.8,1.7,1.7s-0.8,1.7-1.7,1.7s-1.7-0.8-1.7-1.7S304.9,52.5,305.8,52.5z M312.1,56.3
	c1.2,0,2.1-0.9,2.1-2.1c0-1.2-0.9-2.1-2.1-2.1c-1.2,0-2.1,0.9-2.1,2.1c0,0,0,0,0,0C310,55.3,310.9,56.3,312.1,56.3z M318.4,51.8
	c1.3,0,2.3,1,2.3,2.3s-1,2.3-2.3,2.3c-1.3,0-2.3-1-2.3-2.3S317.1,51.8,318.4,51.8z M324.6,52c1.2,0,2.1,1,2.1,2.2s-1,2.1-2.1,2.1
	s-2.1-1-2.1-2.1S323.4,52,324.6,52z M330.9,52.4c1,0,1.7,0.8,1.7,1.7c0,1-0.8,1.7-1.7,1.7c-1,0-1.7-0.8-1.7-1.7
	C329.1,53.2,329.9,52.4,330.9,52.4z M337.1,55.4c0.7,0,1.3-0.6,1.3-1.3c0-0.7-0.6-1.3-1.3-1.3s-1.3,0.6-1.3,1.3c0,0,0,0,0,0
	C335.8,54.9,336.4,55.4,337.1,55.4z M343.4,53.4c0.4,0,0.8,0.3,0.8,0.8s-0.3,0.8-0.8,0.8s-0.8-0.3-0.8-0.8S342.9,53.4,343.4,53.4z
	 M349.6,53.9c0.1,0,0.3,0.1,0.3,0.3c0,0.1-0.1,0.3-0.3,0.3c-0.1,0-0.3-0.1-0.3-0.3C349.3,54,349.5,53.9,349.6,53.9z M287.1,60.1
	c0.2,0,0.3,0.1,0.3,0.3s-0.1,0.3-0.3,0.3s-0.3-0.1-0.3-0.3S286.9,60.1,287.1,60.1z M293.3,61.2c0.4,0,0.8-0.4,0.8-0.8
	s-0.4-0.8-0.8-0.8s-0.8,0.4-0.8,0.8v0C292.5,60.9,292.9,61.2,293.3,61.2z M299.6,61.7c0.7,0,1.3-0.6,1.3-1.3s-0.6-1.3-1.3-1.3
	s-1.3,0.6-1.3,1.3c0,0,0,0,0,0C298.3,61.1,298.9,61.7,299.6,61.7z M305.8,62.3c1,0,1.8-0.8,1.8-1.8s-0.8-1.8-1.8-1.8
	c-1,0-1.8,0.8-1.8,1.8C304,61.4,304.8,62.3,305.8,62.3C305.8,62.3,305.8,62.3,305.8,62.3z M312.1,58.1c1.3,0,2.3,1,2.3,2.3
	s-1,2.3-2.3,2.3c-1.3,0-2.3-1-2.3-2.3S310.8,58.1,312.1,58.1z M318.4,57.7c1.5,0,2.7,1.2,2.7,2.7c0,1.5-1.2,2.7-2.7,2.7
	s-2.7-1.2-2.7-2.7C315.6,58.9,316.9,57.7,318.4,57.7z M324.6,58c1.3,0,2.4,1.1,2.4,2.4s-1.1,2.4-2.4,2.4s-2.4-1.1-2.4-2.4
	S323.3,58,324.6,58z M330.9,62.3c1,0,1.9-0.8,1.9-1.9c0-1-0.8-1.9-1.9-1.9c-1,0-1.9,0.8-1.9,1.9C329,61.5,329.8,62.3,330.9,62.3
	C330.9,62.3,330.9,62.3,330.9,62.3z M337.1,61.8c0.7,0,1.4-0.6,1.4-1.4s-0.6-1.4-1.4-1.4c-0.7,0-1.4,0.6-1.4,1.4
	C335.7,61.2,336.4,61.8,337.1,61.8C337.1,61.8,337.1,61.8,337.1,61.8z M343.4,61.3c0.5,0,0.8-0.4,0.8-0.8s-0.4-0.8-0.8-0.8
	s-0.8,0.4-0.8,0.8S342.9,61.3,343.4,61.3L343.4,61.3z M349.6,60.1c0.2,0,0.3,0.1,0.3,0.3s-0.1,0.3-0.3,0.3c-0.2,0-0.3-0.1-0.3-0.3
	S349.4,60.1,349.6,60.1z M287.1,66.9c0.1,0,0.2-0.1,0.2-0.2s-0.1-0.2-0.2-0.2c-0.1,0-0.2,0.1-0.2,0.2
	C286.9,66.8,287,66.9,287.1,66.9C287.1,66.9,287.1,66.9,287.1,66.9z M293.3,67.4c0.4,0,0.7-0.3,0.7-0.7s-0.3-0.7-0.7-0.7
	s-0.7,0.3-0.7,0.7v0C292.6,67.1,292.9,67.4,293.3,67.4z M299.6,65.4c0.7,0,1.2,0.6,1.2,1.2s-0.6,1.2-1.2,1.2c-0.7,0-1.2-0.6-1.2-1.2
	S298.9,65.4,299.6,65.4z M305.8,64.9c1,0,1.7,0.8,1.7,1.7s-0.8,1.7-1.7,1.7c-1,0-1.7-0.8-1.7-1.7S304.9,64.9,305.8,64.9z
	 M312.1,68.8c1.2,0,2.1-1,2.1-2.1c0-1.2-1-2.2-2.1-2.2c-1.2,0-2.1,1-2.1,2.1c0,0,0,0,0,0C310,67.9,310.9,68.8,312.1,68.8z
	 M318.4,64.3c1.3,0,2.4,1.1,2.4,2.4s-1.1,2.4-2.4,2.4S316,68,316,66.7S317,64.3,318.4,64.3z M324.6,68.9c1.2,0,2.2-1,2.2-2.2
	c0-1.2-1-2.2-2.2-2.2c-1.2,0-2.2,1-2.2,2.2v0C322.4,67.9,323.4,68.9,324.6,68.9z M330.9,64.9c1,0,1.8,0.8,1.8,1.8s-0.8,1.8-1.8,1.8
	s-1.8-0.8-1.8-1.8S329.9,64.9,330.9,64.9z M337.1,68c0.7,0,1.3-0.6,1.3-1.3c0-0.7-0.6-1.3-1.3-1.3c-0.7,0-1.3,0.6-1.3,1.3
	c0,0,0,0,0,0C335.8,67.4,336.4,68,337.1,68z M343.4,67.5c0.4,0,0.8-0.3,0.8-0.8s-0.3-0.8-0.8-0.8s-0.8,0.3-0.8,0.8l0,0
	C342.6,67.1,342.9,67.5,343.4,67.5z M349.6,66.4c0.2,0,0.3,0.1,0.3,0.3s-0.1,0.3-0.3,0.3s-0.3-0.1-0.3-0.3S349.5,66.4,349.6,66.4z
	 M287.1,73c0.1,0,0.1-0.1,0.1-0.1c0-0.1-0.1-0.1-0.1-0.1c-0.1,0-0.1,0.1-0.1,0.1C287,73,287,73,287.1,73C287.1,73,287.1,73,287.1,73
	z M293.3,73.5c0.3,0,0.6-0.2,0.6-0.6c0-0.3-0.2-0.6-0.6-0.6c-0.3,0-0.6,0.2-0.6,0.6v0C292.8,73.2,293,73.5,293.3,73.5z M299.6,73.9
	c0.6,0,1-0.5,1-1c0-0.6-0.5-1-1-1c-0.6,0-1,0.5-1,1C298.6,73.5,299,73.9,299.6,73.9C299.6,73.9,299.6,73.9,299.6,73.9z M305.8,71.5
	c0.8,0,1.4,0.6,1.4,1.4c0,0.8-0.6,1.4-1.4,1.4s-1.4-0.6-1.4-1.4C304.4,72.1,305.1,71.5,305.8,71.5z M312.1,74.7c1,0,1.7-0.8,1.7-1.7
	s-0.8-1.7-1.7-1.7c-1,0-1.7,0.8-1.7,1.7S311.1,74.7,312.1,74.7L312.1,74.7z M318.4,74.8c1,0,1.9-0.8,1.9-1.9c0-1-0.8-1.9-1.9-1.9
	c-1,0-1.9,0.8-1.9,1.9S317.3,74.8,318.4,74.8L318.4,74.8z M324.6,71.2c1,0,1.8,0.8,1.8,1.8s-0.8,1.8-1.8,1.8s-1.8-0.8-1.8-1.8
	S323.6,71.2,324.6,71.2z M330.9,71.5c0.8,0,1.5,0.7,1.5,1.5c0,0.8-0.7,1.5-1.5,1.5c-0.8,0-1.5-0.7-1.5-1.5
	C329.4,72.1,330.1,71.5,330.9,71.5z M337.1,74c0.6,0,1.1-0.5,1.1-1.1c0-0.6-0.5-1.1-1.1-1.1c-0.6,0-1.1,0.5-1.1,1.1
	C336,73.5,336.5,74,337.1,74C337.1,74,337.1,74,337.1,74z M343.4,72.3c0.3,0,0.6,0.3,0.6,0.6s-0.3,0.6-0.6,0.6s-0.6-0.3-0.6-0.6
	S343,72.3,343.4,72.3z M349.6,73.1c0.1,0,0.1-0.1,0.1-0.1c0-0.1-0.1-0.1-0.1-0.1c-0.1,0-0.1,0.1-0.1,0.1c0,0,0,0,0,0
	C349.5,73,349.5,73.1,349.6,73.1z M287.1,79.2C287.1,79.2,287.1,79.2,287.1,79.2C287.1,79.2,287.1,79.2,287.1,79.2
	C287.1,79.2,287.1,79.2,287.1,79.2C287.1,79.2,287.1,79.2,287.1,79.2z M293.3,78.9c0.2,0,0.3,0.1,0.3,0.3c0,0.2-0.1,0.3-0.3,0.3
	c-0.2,0-0.3-0.1-0.3-0.3C293,79,293.2,78.9,293.3,78.9z M299.6,79.9c0.4,0,0.7-0.3,0.7-0.7s-0.3-0.7-0.7-0.7c-0.4,0-0.7,0.3-0.7,0.7
	c0,0,0,0,0,0C298.9,79.6,299.2,79.9,299.6,79.9z M305.8,80.2c0.6,0,1-0.5,1-1c0-0.6-0.5-1-1-1c-0.6,0-1,0.5-1,1
	C304.8,79.7,305.3,80.2,305.8,80.2C305.8,80.2,305.8,80.2,305.8,80.2z M312.1,80.4c0.7,0,1.3-0.6,1.3-1.3s-0.6-1.3-1.3-1.3
	s-1.3,0.6-1.3,1.3C310.8,79.9,311.4,80.4,312.1,80.4L312.1,80.4z M318.4,80.5c0.7,0,1.4-0.6,1.4-1.4c0-0.7-0.6-1.4-1.4-1.4
	c-0.7,0-1.4,0.6-1.4,1.4c0,0,0,0,0,0C317,79.9,317.6,80.5,318.4,80.5z M324.6,80.5c0.7,0,1.3-0.6,1.3-1.3c0-0.7-0.6-1.3-1.3-1.3
	c-0.7,0-1.3,0.6-1.3,1.3c0,0,0,0,0,0C323.3,79.9,323.9,80.5,324.6,80.5z M330.9,80.2c0.6,0,1.1-0.5,1.1-1.1c0-0.6-0.5-1.1-1.1-1.1
	c-0.6,0-1.1,0.5-1.1,1.1C329.8,79.8,330.3,80.2,330.9,80.2C330.9,80.2,330.9,80.2,330.9,80.2z M337.1,79.9c0.4,0,0.7-0.3,0.7-0.7
	s-0.3-0.7-0.7-0.7s-0.7,0.3-0.7,0.7v0C336.4,79.6,336.7,79.9,337.1,79.9z M343.4,78.8c0.2,0,0.3,0.1,0.3,0.3s-0.1,0.3-0.3,0.3
	s-0.3-0.1-0.3-0.3S343.2,78.8,343.4,78.8z M349.6,79.2C349.6,79.2,349.6,79.2,349.6,79.2C349.6,79.2,349.6,79.2,349.6,79.2
	C349.6,79.2,349.6,79.2,349.6,79.2C349.6,79.2,349.6,79.2,349.6,79.2z M293.3,85.5C293.4,85.5,293.4,85.5,293.3,85.5
	c0.1-0.1,0-0.1,0-0.1S293.3,85.4,293.3,85.5C293.3,85.5,293.3,85.5,293.3,85.5L293.3,85.5z M299.6,85.1c0.2,0,0.3,0.1,0.3,0.3
	c0,0.2-0.1,0.3-0.3,0.3c-0.2,0-0.3-0.1-0.3-0.3C299.3,85.3,299.4,85.1,299.6,85.1z M305.8,84.9c0.3,0,0.6,0.3,0.6,0.6
	c0,0.3-0.3,0.6-0.6,0.6c-0.3,0-0.6-0.3-0.6-0.6C305.3,85.1,305.5,84.9,305.8,84.9z M312.1,86.2c0.4,0,0.8-0.3,0.8-0.8
	s-0.3-0.8-0.8-0.8s-0.8,0.3-0.8,0.8S311.7,86.2,312.1,86.2L312.1,86.2z M318.4,86.3c0.5,0,0.8-0.4,0.8-0.8s-0.4-0.8-0.8-0.8
	s-0.8,0.4-0.8,0.8S317.9,86.3,318.4,86.3L318.4,86.3z M324.6,86.2c0.4,0,0.8-0.3,0.8-0.8s-0.3-0.8-0.8-0.8s-0.8,0.3-0.8,0.8l0,0
	C323.8,85.9,324.2,86.2,324.6,86.2z M330.9,84.8c0.3,0,0.6,0.3,0.6,0.6s-0.3,0.6-0.6,0.6s-0.6-0.3-0.6-0.6S330.5,84.8,330.9,84.8z
	 M337.1,85.1c0.2,0,0.3,0.1,0.3,0.3s-0.1,0.3-0.3,0.3s-0.3-0.1-0.3-0.3S336.9,85.1,337.1,85.1z M343.4,85.5
	C343.4,85.5,343.4,85.5,343.4,85.5c0.1-0.1,0-0.1,0-0.1S343.3,85.4,343.4,85.5C343.3,85.5,343.3,85.5,343.4,85.5L343.4,85.5z
	 M299.6,91.7C299.6,91.7,299.6,91.7,299.6,91.7C299.6,91.7,299.6,91.7,299.6,91.7C299.6,91.7,299.6,91.7,299.6,91.7
	C299.6,91.7,299.6,91.7,299.6,91.7z M305.8,91.8c0.1,0,0.1-0.1,0.1-0.1c0-0.1-0.1-0.1-0.1-0.1c-0.1,0-0.1,0.1-0.1,0.1c0,0,0,0,0,0
	C305.7,91.8,305.8,91.8,305.8,91.8C305.8,91.8,305.8,91.8,305.8,91.8z M312.1,91.9c0.1,0,0.3-0.1,0.3-0.3c0-0.1-0.1-0.3-0.3-0.3
	c-0.1,0-0.3,0.1-0.3,0.3C311.8,91.8,312,91.9,312.1,91.9L312.1,91.9z M318.4,91.4c0.2,0,0.3,0.1,0.3,0.3c0,0.2-0.1,0.3-0.3,0.3
	c-0.2,0-0.3-0.1-0.3-0.3C318,91.5,318.2,91.4,318.4,91.4z M324.6,91.4c0.2,0,0.3,0.1,0.3,0.3s-0.1,0.3-0.3,0.3s-0.3-0.1-0.3-0.3
	S324.5,91.4,324.6,91.4z M330.9,91.8c0.1,0,0.1-0.1,0.1-0.1c0-0.1-0.1-0.1-0.1-0.1c-0.1,0-0.1,0.1-0.1,0.1c0,0,0,0,0,0
	C330.7,91.8,330.8,91.8,330.9,91.8C330.9,91.8,330.9,91.8,330.9,91.8z M337.1,91.7C337.1,91.7,337.1,91.7,337.1,91.7
	C337.1,91.7,337.1,91.7,337.1,91.7C337.1,91.7,337.1,91.7,337.1,91.7C337.1,91.7,337.1,91.7,337.1,91.7z"/>
</svg>
