<svg xmlns="http://www.w3.org/2000/svg" width="23.766" height="23.766" viewBox="0 0 23.766 23.766"><g transform="translate(-478.5 -10944.044)"><path d="M0,19.816a7.4,7.4,0,0,1,.379-1.2A3.3,3.3,0,0,1,3.41,16.668c2.594-.036,5.188-.014,7.782-.012a.59.59,0,0,1,.634.643c0,.482,0,.964,0,1.445s-.229.712-.727.712H3.718c-.665,0-.912.246-.912.912q0,6.826,0,13.652c0,.659.254.912.917.912H17.375c.661,0,.907-.249.907-.917q0-3.48,0-6.96c0-.558.208-.77.759-.771.459,0,.919-.006,1.378,0a.592.592,0,0,1,.663.638c0,2.483.014,4.966-.009,7.449a3.489,3.489,0,0,1-2.938,3.314c-.072.011-.142.034-.213.051H3.158a.723.723,0,0,0-.122-.043A3.427,3.427,0,0,1,.314,35.635,7.637,7.637,0,0,1,0,34.581V19.816" transform="translate(479 10929.57)" fill="#10bbef" stroke="#10bbef" stroke-width="1"/><path d="M103.079,2.8c-.737,0-1.411,0-2.084,0-.5,0-.716-.222-.717-.719,0-.467,0-.934,0-1.4A.615.615,0,0,1,100.969,0q3.113,0,6.225,0a.608.608,0,0,1,.68.67q0,3.124,0,6.247a.611.611,0,0,1-.673.678q-.734,0-1.467,0a.6.6,0,0,1-.661-.663c0-.622,0-1.245,0-1.868,0-.071-.006-.141-.009-.212l-.092-.076a.812.812,0,0,1-.112.217q-3.982,3.989-7.967,7.973a.628.628,0,0,1-.69.232.912.912,0,0,1-.309-.206c-.331-.319-.653-.646-.978-.972a.633.633,0,0,1,0-1.048l7.955-7.955c.056-.056.11-.114.207-.217" transform="translate(393.892 10944.543)" fill="#10bbef" stroke="#10bbef" stroke-width="1"/></g></svg>