<svg xmlns="http://www.w3.org/2000/svg" xmlns:xlink="http://www.w3.org/1999/xlink" width="62.675" height="40.104" viewBox="0 0 62.675 40.104"><defs><clipPath id="a"><rect width="62.675" height="40.104" fill="#10bbef" stroke="#212529" stroke-width="4"/></clipPath></defs><g clip-path="url(#a)"><path d="M0,31.44q3.492,3.471,6.983,6.944c.533.532,1.045,1.086,1.61,1.676L31.332,17.318,54.112,40.1c.314-.366.559-.694.847-.981q3.852-3.848,7.716-7.683v-.122c-.183-.156-.377-.3-.546-.47Q47,15.727,31.888.6A4.108,4.108,0,0,1,31.47,0l-.259,0a4.247,4.247,0,0,1-.423.6Q15.673,15.731.547,30.849c-.169.169-.364.313-.547.468v.122" transform="translate(0 0)" fill="#10bbef" stroke="#212529" stroke-width="4"/></g></svg>