<svg xmlns="http://www.w3.org/2000/svg" width="65.641" height="46.559" viewBox="0 0 65.641 46.559"><path d="M65.577,5.154a4.791,4.791,0,0,0-2.112-3.9A6.532,6.532,0,0,0,59.315,0Q32.884.012,6.454.005c-.256,0-.513-.01-.769.007A6.106,6.106,0,0,0,.963,2.474,5.252,5.252,0,0,0,0,5.332v35.9a.379.379,0,0,1,.063.177,4.792,4.792,0,0,0,2.112,3.9,6.532,6.532,0,0,0,4.151,1.251q26.43-.012,52.86-.005c.256,0,.513.01.769-.007a6.106,6.106,0,0,0,4.723-2.461,5.253,5.253,0,0,0,.963-2.858V5.332A.38.38,0,0,1,65.577,5.154ZM58.919,4.061c.006.222-.188.308-.307.427Q47.87,15.182,37.121,25.867a5.745,5.745,0,0,1-8.5.1Q17.717,15.165,6.854,4.321c-.057-.056-.106-.12-.229-.26ZM4.166,39.884l-.265-.21V6.905l.121-.124a3.566,3.566,0,0,0,.356.5q7.807,7.779,15.632,15.54c.374.37.39.542.009.928Q12.075,31.8,4.166,39.884Zm2.573,2.588-.115-.123a4.781,4.781,0,0,0,.5-.381q7.8-7.742,15.588-15.5c.414-.414.6-.37.982.015a33.539,33.539,0,0,0,3.229,3.109,9.579,9.579,0,0,0,12.769-.842c.783-.757,1.565-1.518,2.311-2.311.333-.353.52-.38.887-.013Q49,32.543,55.154,38.628c1.267,1.26,2.519,2.537,3.815,3.844Zm55.025-2.814-.179.151a1.735,1.735,0,0,0-.237-.441Q53.47,31.524,45.58,23.693c-.232-.23-.45-.369-.083-.74q8.025-8.1,16.014-16.245l.253.2Z" fill="#fff"/></svg>