<svg xmlns="http://www.w3.org/2000/svg" width="54.737" height="55" viewBox="0 0 54.737 55"><path d="M47.012,7.993a27.26,27.26,0,0,0-42.9,32.885L.25,55,14.7,51.21a27.225,27.225,0,0,0,13.024,3.317h.011A27.266,27.266,0,0,0,47.012,7.993ZM27.733,49.925h-.009a22.624,22.624,0,0,1-11.529-3.158l-.827-.491L6.794,48.525l2.288-8.359-.539-.857A22.652,22.652,0,1,1,27.733,49.925ZM40.158,32.959c-.681-.341-4.029-1.988-4.653-2.216s-1.078-.34-1.532.341-1.759,2.216-2.157,2.67-.794.512-1.475.171a18.6,18.6,0,0,1-5.477-3.38,20.541,20.541,0,0,1-3.788-4.717c-.4-.682,0-1.015.3-1.39a19.262,19.262,0,0,0,1.7-2.329,1.253,1.253,0,0,0-.057-1.193c-.17-.341-1.532-3.693-2.1-5.057-.553-1.327-1.114-1.148-1.532-1.169-.4-.02-.851-.024-1.305-.024a2.5,2.5,0,0,0-1.816.852A7.638,7.638,0,0,0,13.884,21.2c0,3.352,2.44,6.59,2.781,7.045s4.8,7.333,11.633,10.282a38.976,38.976,0,0,0,3.882,1.435,9.335,9.335,0,0,0,4.289.27c1.309-.2,4.029-1.648,4.6-3.238a5.69,5.69,0,0,0,.4-3.238c-.17-.284-.624-.454-1.3-.8Zm0,0" transform="translate(-0.25)" fill="#fff" fill-rule="evenodd"/></svg>