<svg xmlns="http://www.w3.org/2000/svg" width="89.168" height="89.004" viewBox="0 0 89.168 89.004"><g transform="translate(-547.369 -2207.5)"><path d="M-358.965,164.962a.764.764,0,0,1-1.033,0Z" transform="translate(950.573 2043.038)" fill="#6ab3e3" stroke="#6ab3e3" stroke-width="1"/><path d="M-408.384,447.957a1.717,1.717,0,0,1-1.77.928c-3.214-.027-6.432.1-9.64-.037a43.488,43.488,0,0,0-14.641,2.057c-4.7,1.431-9.469,2.668-14.211,3.971a16.521,16.521,0,0,1-13.533-1.959c-6.289-3.867-12.543-7.792-18.815-11.688a1.358,1.358,0,0,1-.794-1.547,1.239,1.239,0,0,1,1.069-.981,1.757,1.757,0,0,1,1.264.44q8.42,5.237,16.839,10.475a20.464,20.464,0,0,0,6.325,2.988,16.752,16.752,0,0,0,8.389-.581c5.776-1.646,11.57-3.23,17.358-4.832a27.469,27.469,0,0,1,7.317-.907c3.816-.008,7.633-.013,11.449.009.581,0,.838-.049.83-.759-.043-4.066-.036-8.132-.005-12.2,0-.629-.2-.729-.771-.731-2.208-.009-4.419.125-6.623-.1a12.769,12.769,0,0,1-5.812-2.159,1.3,1.3,0,0,1-.481-1.787,1.263,1.263,0,0,1,1.868-.366,11.858,11.858,0,0,0,7.2,1.848c1.835-.055,3.673.011,5.509-.021a1.652,1.652,0,0,1,1.684.927Z" transform="translate(1044.421 1840.472)" fill="#6ab3e3" stroke="#6ab3e3" stroke-width="1"/><path d="M-430.062,190.735q-7.326-2.154-14.669-4.249c-.617-.175-.707-.313-.478-.936a15.315,15.315,0,0,0-8.911-19.581c-1.226-.474-2.519-.64-3.766-1.007h-2.066a1.321,1.321,0,0,1-1.033,0h-.344c-.089.213-.287.139-.443.161a15.04,15.04,0,0,0-6.284,2.386,1.253,1.253,0,0,0-.519,1.769,1.287,1.287,0,0,0,1.86.428c.151-.081.291-.182.438-.271a12.572,12.572,0,0,1,8.4-1.76,12.778,12.778,0,0,1,10.644,9.457,12.75,12.75,0,0,1-4.956,13.5,12.738,12.738,0,0,1-14.308.353,12.69,12.69,0,0,1-3.75-17.716c.639-.993.6-1.7-.129-2.167-.7-.453-1.422-.193-2.037.77a14.988,14.988,0,0,0-1.57,13.7c.243.687.045.772-.508.929q-7.179,2.042-14.346,4.128a2.732,2.732,0,0,0-2.261,2.655,2.733,2.733,0,0,0,2.281,2.629c2.885.835,5.763,1.7,8.657,2.5a.837.837,0,0,1,.739.994c-.03,3.78.013,7.56-.026,11.34a5.21,5.21,0,0,0,2.707,4.828,21.076,21.076,0,0,0,6.538,2.506,49.588,49.588,0,0,0,17.451.472,23.594,23.594,0,0,0,8.916-2.918,5.33,5.33,0,0,0,2.816-4.949c-.026-3.665,0-7.331-.018-11,0-.506.117-.745.644-.884q2.737-.723,5.443-1.561c.527-.162.614-.045.611.465-.02,3.121-.01,6.243-.009,9.364,0,.486-.014.975.02,1.459a1.152,1.152,0,0,0,1.144,1.169,1.19,1.19,0,0,0,1.369-1.021,3.9,3.9,0,0,0,.054-.854c0-3.579.019-7.159-.015-10.739-.006-.6.154-.891.743-.985a5.91,5.91,0,0,0,.99-.279,2.674,2.674,0,0,0,1.933-2.553A2.6,2.6,0,0,0-430.062,190.735Zm-13.594,20.688a2.382,2.382,0,0,1-1.274,1.834,20.114,20.114,0,0,1-7.912,2.681,46.451,46.451,0,0,1-17.018-.443,17.77,17.77,0,0,1-5.717-2.259,2.47,2.47,0,0,1-1.274-2.271c.018-.882,0-1.764,0-2.757,5.287,2.97,10.936,3.507,16.68,3.508,5.716,0,11.321-.609,16.529-3.515C-443.638,209.337-443.583,210.384-443.656,211.423Zm-.554-6.016a16.984,16.984,0,0,1-6.829,2.852,41.127,41.127,0,0,1-9.223.887,36.871,36.871,0,0,1-12.106-1.721,14,14,0,0,1-4.007-2.1,1.125,1.125,0,0,1-.485-1.011c.035-1.373.048-2.749,0-4.121-.025-.668.107-.817.783-.617,4.166,1.233,8.383,2.306,12.5,3.675a12.059,12.059,0,0,0,8.024-.019c3.68-1.239,7.463-2.171,11.19-3.275.619-.184.789-.115.765.548-.045,1.229-.047,2.463,0,3.691A1.324,1.324,0,0,1-444.21,205.406Zm9.017-10.778q-11.542,3.324-23.082,6.656a4.586,4.586,0,0,1-2.683-.014q-13.51-3.924-27.037-7.8c-.133-.038-.258-.106-.559-.232,5.286-1.529,10.425-3.008,15.556-4.51.472-.138.647.071.891.4a14.965,14.965,0,0,0,13.081,6.423,14.767,14.767,0,0,0,11.783-6.255,1.066,1.066,0,0,1,1.4-.462c5.011,1.477,10.034,2.915,15.293,4.434C-432.245,193.765-433.717,194.2-435.193,194.628Z" transform="translate(1051.561 2043.038)" fill="#6ab3e3" stroke="#6ab3e3" stroke-width="1"/><path d="M-476.918,390.956a16.871,16.871,0,0,0-13.475-1.965c-7.225,1.985-14.408,4.119-21.616,6.165-2.063.586-4.172,1.049-5.413,3.131-.269-.365-.457-.615-.641-.869-2.73-3.748-5.438-7.511-8.2-11.239a6.262,6.262,0,0,0-10.733.922c-.237.474-.416.567-.955.439a6.393,6.393,0,0,0-7.822,5.082c-.185.269.049.615-.161.879v1.375a7.2,7.2,0,0,0,3.035,4.384c2.557,1.578,5.1,3.172,7.657,4.757a1.843,1.843,0,0,0,.529.277,1.231,1.231,0,0,0,1.558-.725,1.234,1.234,0,0,0-.616-1.668c-2.524-1.577-5.056-3.141-7.572-4.73a3.82,3.82,0,0,1-1.406-5.411,3.9,3.9,0,0,1,5.419-1.186q9.21,5.418,18.411,10.85a1.217,1.217,0,0,1,.651.913,5.912,5.912,0,0,0,7.6,4.818q8.587-2.1,17.171-4.213c1.239-.3,1.792-.892,1.572-1.723-.228-.86-.925-1.12-2.181-.813l-.083.023q-8.5,2.1-17,4.2a4.011,4.011,0,0,1-1.784.148,3.436,3.436,0,0,1-2.814-3.152,3.452,3.452,0,0,1,2.641-3.47q11.377-3.273,22.757-6.534a14.914,14.914,0,0,1,12.159,1.555c.886.524,1.593.429,2.029-.254C-475.736,392.218-475.985,391.507-476.918,390.956Zm-49.755,2.9c-2.559-1.509-5.107-3.037-7.687-4.509-.576-.329-.588-.622-.326-1.142a3.677,3.677,0,0,1,6.055-.82c2.24,2.852,4.3,5.846,6.432,8.781.028.038.011.109.029.348C-523.74,395.584-525.206,394.717-526.673,393.852Z" transform="translate(1093.798 1874.648)" fill="#6ab3e3" stroke="#6ab3e3" stroke-width="1"/><path d="M-367.677,197.194c-.319-.117-.459-.257-.452-.606.02-.992.007-1.984.007-2.96.3-.093.423.108.587.2a1.305,1.305,0,0,0,1.834-.248,1.3,1.3,0,0,0-.364-1.877,3.807,3.807,0,0,0-1.438-.742c-.437-.111-.647-.279-.645-.8a1.2,1.2,0,0,0-1.249-1.245,1.156,1.156,0,0,0-1.267,1.137,1.047,1.047,0,0,1-.859,1.135,2.165,2.165,0,0,0-.578.362,3.983,3.983,0,0,0,.61,6.82c.313.157.8.169.792.75-.026,1.457-.008,2.914-.008,4.382a2.1,2.1,0,0,1-1.3-.473,1.336,1.336,0,0,0-1.947.368c-.394.67-.155,1.356.652,1.863a5.253,5.253,0,0,0,2.047.838c.365.051.534.146.56.568.058.972.564,1.494,1.312,1.477s1.219-.561,1.248-1.533a.642.642,0,0,1,.453-.7,4.705,4.705,0,0,0,3.137-4.58A4.21,4.21,0,0,0-367.677,197.194Zm-3.049-1.543c-.559-.462-.58-.821,0-1.864Zm2.656,7.525V199.9C-366.781,200.69-366.782,202.07-368.07,203.176Z" transform="translate(961.466 2024.582)" fill="#6ab3e3" stroke="#6ab3e3" stroke-width="1"/></g></svg>