<svg xmlns="http://www.w3.org/2000/svg" xmlns:xlink="http://www.w3.org/1999/xlink" width="180" height="180" viewBox="0 0 180 180"><defs><clipPath id="a"><rect width="109.557" height="81.018" fill="#6ab3e3" stroke="#6ab3e3" stroke-width="0.5"/></clipPath></defs><g transform="translate(-600 -3031)"><g transform="translate(-28 620)"><g transform="translate(11199 -8807)"><g transform="translate(-10571 11218)" fill="none"><path d="M90,0A90,90,0,1,1,0,90,90,90,0,0,1,90,0Z" stroke="none"/><path d="M 90 6 C 43.68223571777344 6 6 43.68223571777344 6 90 C 6 136.3177642822266 43.68223571777344 174 90 174 C 136.3177642822266 174 174 136.3177642822266 174 90 C 174 43.68223571777344 136.3177642822266 6 90 6 M 90 0 C 139.7056121826172 0 180 40.29438781738281 180 90 C 180 139.7056121826172 139.7056121826172 180 90 180 C 40.29438781738281 180 0 139.7056121826172 0 90 C 0 40.29438781738281 40.29438781738281 0 90 0 Z" stroke="none" fill="#6ab3e3"/></g></g></g><g transform="translate(635 3080)"><g clip-path="url(#a)"><path d="M114.554,51.738a2.085,2.085,0,0,1-2.124-2.164,2.151,2.151,0,0,1,2.116-2.095,2.2,2.2,0,0,1,2.148,2.194,2.137,2.137,0,0,1-2.139,2.065" transform="translate(-83.774 -35.378)" fill="#6ab3e3" stroke="#6ab3e3" stroke-width="0.5"/><path d="M109.526,60.621a6.5,6.5,0,0,0-3.992-6.18A1.3,1.3,0,0,1,104.669,53c.017-7.63-.017-15.261.035-22.89a3.057,3.057,0,0,0-1.788-3.066q-14.6-7.87-29.15-15.827Q63.975,5.886,54.191.546A2.5,2.5,0,0,0,51.669.232Q44.89,3.952,38.141,7.726a2.038,2.038,0,0,0-.762,2.874,2.126,2.126,0,0,0,2.773.872,10.576,10.576,0,0,0,.947-.488C44.675,9,48.256,7.03,51.821,5.027a1.392,1.392,0,0,1,1.547-.033Q73.214,15.828,93.08,26.627c.214.116.578.122.585.555H92.6q-19.628,0-39.256,0a11.358,11.358,0,0,0-1.281.037,2.038,2.038,0,0,0-1.845,1.9,2.081,2.081,0,0,0,1.442,2.231,4.325,4.325,0,0,0,1.481.147H94.083c-.413.262-.525.343-.645.409Q73.095,43.163,52.761,54.442a1.379,1.379,0,0,1-1.54-.091q-17.28-9.415-34.568-18.813-4.94-2.688-9.888-5.389a1.937,1.937,0,0,1,.906-.661c2.267-1.263,4.544-2.51,6.815-3.767q4.34-2.4,8.673-4.816a2.155,2.155,0,0,0-.614-4.062,2.749,2.749,0,0,0-1.9.543Q11.219,22.608,1.784,27.809A4.719,4.719,0,0,0,0,29.392v1.284a3.592,3.592,0,0,0,1.63,1.6C8.326,35.887,15,39.539,21.7,43.149a1.352,1.352,0,0,1,.807,1.405c-.025,8.771.009,17.542-.041,26.313A2.945,2.945,0,0,0,24.4,73.939a104.612,104.612,0,0,0,11.394,4.5,54.928,54.928,0,0,0,22.9,2.216c7.692-.894,14.829-3.569,21.79-6.809a2.716,2.716,0,0,0,1.7-2.78c-.044-9.02-.014-18.041-.04-27.062a1.351,1.351,0,0,1,.824-1.4c5.554-3.035,11.083-6.114,16.622-9.174.228-.126.427-.374.778-.252,0,6.774-.008,13.548.015,20.321,0,.532-.231.716-.647.924a6.569,6.569,0,0,0-3.951,6.108c-.055,5.027-.034,10.055-.013,15.082a2.1,2.1,0,0,0,2.391,2.359q4.439.019,8.878,0a2.18,2.18,0,0,0,2.494-2.484c.008-4.956.042-9.913-.014-14.868M77.237,70.607a66.84,66.84,0,0,1-18.477,5.681A51.226,51.226,0,0,1,34.1,73.314c-2.236-.817-4.425-1.748-6.6-2.705a.956.956,0,0,1-.718-1q.034-11.708.015-23.413c.388-.2.615.107.873.247,7.56,4.1,15.128,8.187,22.662,12.335a3.2,3.2,0,0,0,3.478.006c7.661-4.288,15.354-8.517,23.04-12.762a1.747,1.747,0,0,1,1.023-.4v3.832q0,9.945,0,19.889c0,.545.021.975-.638,1.27m27.319,3.087c-1.28-.043-2.564-.041-3.844,0-.543.017-.646-.18-.639-.674.025-2.065.01-4.13.011-6.2,0-1.958-.012-3.917,0-5.875.015-1.76,1.055-2.9,2.592-2.879a2.619,2.619,0,0,1,2.562,2.828c.018,4.023,0,8.047.018,12.07,0,.548-.123.745-.7.726" transform="translate(0 0)" fill="#6ab3e3" stroke="#6ab3e3" stroke-width="0.5"/></g></g></g></svg>