<svg xmlns="http://www.w3.org/2000/svg" width="86.393" height="86.5" viewBox="0 0 86.393 86.5"><g transform="translate(-746.613 -2261.277)"><path d="M178.372,387.633H165.6a5.83,5.83,0,0,1-.828-.024,1.235,1.235,0,0,1-.13-2.429,3.214,3.214,0,0,1,.823-.054q12.974,0,25.949,0c.166,0,.333-.008.5.006a1.293,1.293,0,0,1,1.275,1.269,1.24,1.24,0,0,1-1.306,1.222c-2.1.023-4.2.011-6.3.012h-7.213" transform="translate(610.911 1940.988)" fill="#6ab3e3" stroke="#6ab3e3" stroke-width="1"/><path d="M178.384,287.962q-6.384,0-12.768,0a6.965,6.965,0,0,1-.91-.037,1.225,1.225,0,0,1-.267-2.348,2.252,2.252,0,0,1,.809-.13q13.141-.01,26.282,0a2.6,2.6,0,0,1,.734.09,1.228,1.228,0,0,1-.2,2.4,8.158,8.158,0,0,1-.827.029q-6.425,0-12.851,0" transform="translate(610.932 2024.082)" fill="#6ab3e3" stroke="#6ab3e3" stroke-width="1"/><path d="M178.378,188.329q-6.384,0-12.767,0a5.712,5.712,0,0,1-.907-.055,1.216,1.216,0,0,1-.136-2.366,3.4,3.4,0,0,1,.9-.1q12.975-.008,25.949,0a3.036,3.036,0,0,1,.976.132,1.218,1.218,0,0,1-.172,2.327,5.933,5.933,0,0,1-.99.065q-6.425.006-12.85,0" transform="translate(610.91 2107.146)" fill="#6ab3e3" stroke="#6ab3e3" stroke-width="1"/><path d="M176.412,421.536q5.393,0,10.787,0a5.712,5.712,0,0,1,.907.06,1.106,1.106,0,0,1,1.007,1.128,1.12,1.12,0,0,1-.95,1.26,3.8,3.8,0,0,1-.819.084q-10.952.007-21.905,0a3.191,3.191,0,0,1-.9-.109,1.122,1.122,0,0,1-.854-1.254,1.108,1.108,0,0,1,.95-1.095,5.255,5.255,0,0,1,.989-.073q5.393-.007,10.787,0" transform="translate(610.917 1910.632)" fill="#6ab3e3" stroke="#6ab3e3" stroke-width="1"/><path d="M175.806,222.363q5.058,0,10.116,0a7.344,7.344,0,0,1,.828.023,1.232,1.232,0,0,1,.143,2.426,3.746,3.746,0,0,1-.905.059q-10.24,0-20.48,0a4.78,4.78,0,0,1-.744-.026,1.21,1.21,0,0,1-1.093-1.328,1.152,1.152,0,0,1,1.192-1.138c1.077-.033,2.155-.017,3.233-.018q3.856,0,7.711,0" transform="translate(610.934 2076.667)" fill="#6ab3e3" stroke="#6ab3e3" stroke-width="1"/><path d="M159.895,85.349c-2.46,0-4.919,0-7.379,0-1.041,0-1.627-.455-1.636-1.236s.594-1.272,1.613-1.273q7.5-.007,15.007,0c1.185,0,1.862.887,1.408,1.808a1.356,1.356,0,0,1-1.384.7c-2.543-.009-5.085,0-7.628,0" transform="translate(621.59 2192.977)" fill="#6ab3e3" stroke="#6ab3e3" stroke-width="1"/><path d="M168.936,321.958c1.245,0,2.49-.01,3.735,0,.976.01,1.544.474,1.556,1.232s-.578,1.28-1.521,1.286q-3.776.021-7.552,0c-.965-.006-1.512-.505-1.5-1.293.013-.75.538-1.209,1.464-1.222,1.272-.018,2.545,0,3.818,0" transform="translate(610.94 1993.644)" fill="#6ab3e3" stroke="#6ab3e3" stroke-width="1"/><path d="M84.869,31.713a3.414,3.414,0,0,0-2.426-3.467c-1.59-.626-3.166-1.288-4.749-1.933-2.37-.966-4-.28-4.968,2.093Q69.815,35.524,66.9,42.641c-.087.211-.087.489-.413.651V42.55q0-12.035,0-24.069a2.216,2.216,0,0,0-.592-1.732Q57.812,8.7,49.754.614A1.962,1.962,0,0,0,48.278,0Q24.956.013,1.634.009C.467.009.016.454.013,1.607Q0,6.13.013,10.653c0,1.021.486,1.624,1.269,1.618s1.238-.6,1.24-1.637c.005-2.435.024-4.869-.013-7.3-.01-.639.141-.828.81-.827q21.621.032,43.242,0c.684,0,.8.213.8.832-.024,4.62-.014,9.24-.013,13.86,0,1.587.348,1.929,1.957,1.929,4.592,0,9.185.021,13.777-.02.755-.007.893.207.891.915q-.037,14.566-.011,29.132a3.479,3.479,0,0,1-.263,1.364q-2.523,6.116-5.026,12.24a3.634,3.634,0,0,0-.361,1.6q.31,5.593.589,11.187a1.372,1.372,0,0,0,.814,1.4,1.406,1.406,0,0,0,1.564-.466c.842-.784,1.694-1.557,2.673-2.456V74.9c0,2.241-.041,4.483.022,6.722.022.777-.234.88-.924.88q-29.755-.028-59.509,0c-.828,0-1.037-.181-1.035-1.027q.04-32.286.02-64.571a8.319,8.319,0,0,0-.025-.995,1.162,1.162,0,0,0-1.16-1.094,1.173,1.173,0,0,0-1.272.965,3.3,3.3,0,0,0-.054.824Q.009,49.891,0,83.172A1.891,1.891,0,0,0,.841,85H65.582c.823-.192,1.057-.758,1.054-1.541-.012-3.319.06-6.64-.038-9.956a3.261,3.261,0,0,1,1.424-2.958c.133-.1.265-.2.391-.308a8.168,8.168,0,0,0,2.446-3.277c1.537-3.971,3.207-7.89,4.815-11.834a5.219,5.219,0,0,0,.359-1.015,1.516,1.516,0,0,0-.869-1.708,1.488,1.488,0,0,0-1.795.646,4.4,4.4,0,0,0-.355.749c-1.505,3.717-3.04,7.421-4.556,11.133-.336.824-.372.835-1.223.507-1.523-.586-3.015-1.25-4.532-1.849-1.218-.481-1.221-.489-.708-1.734,1.9-4.6,3.774-9.212,5.661-13.818,1.363-3.327,2.736-6.649,4.087-9.981.215-.532.452-.856,1.1-.581q2.6,1.093,5.222,2.134c.5.2.592.477.374.962-.668,1.489-1.232,3.022-1.869,4.524-.5,1.171-.976,2.35-1.419,3.543a1.394,1.394,0,0,0,.707,1.949,1.491,1.491,0,0,0,1.982-.845c.076-.148.138-.3.2-.455,2.223-5.335,4.394-10.692,6.577-16.043a2.861,2.861,0,0,0,.246-1.528M61.32,16.607c-3.562.008-7.125-.011-10.687.022-.625.006-.778-.153-.773-.773.032-3.59.015-7.18.015-10.769V4.6l12.031,12.02c-.1.086-.357-.012-.587-.011M66.6,68.142l-5.3,4.887-.374-7.2,5.671,2.31M82.247,31.793c-.705,1.735-1.415,3.467-2.114,5.2-.124.309-.24.409-.6.256q-3.043-1.287-6.115-2.506c-.378-.15-.442-.3-.287-.667.705-1.675,1.387-3.36,2.071-5.043a.818.818,0,0,1,1.246-.506c1.726.726,3.461,1.429,5.2,2.128a.916.916,0,0,1,.7.846c-.028.081-.057.187-.1.288" transform="translate(747.363 2262.027)" fill="#6ab3e3" stroke="#6ab3e3" stroke-width="1.5"/><path d="M65.28,261.288a1.227,1.227,0,0,0-1.715.116,7.19,7.19,0,0,0-.885,1.09,1.28,1.28,0,0,1-1.23.613c-2.873-.03-5.746-.018-8.619-.012-1.307,0-1.752.445-1.758,1.733-.007,1.492,0,2.983,0,4.475q0,2.2,0,4.392c0,1.539.383,1.932,1.892,1.933q4.351,0,8.7,0c1.546,0,1.924-.371,1.926-1.893,0-2.542.013-5.083-.009-7.624a1.833,1.833,0,0,1,.446-1.277,22.517,22.517,0,0,0,1.461-1.9,1.177,1.177,0,0,0-.208-1.644m-4.688,11.795c-2.157-.007-4.314-.01-6.471,0-.384,0-.536-.11-.533-.517q.023-3.194,0-6.388c0-.374.085-.552.5-.548,1.962.016,3.924.007,6.081.007-.656.842-1.224,1.563-1.781,2.292-.227.3-.367.088-.523-.065-.355-.349-.689-.721-1.065-1.046a1.249,1.249,0,1,0-1.765,1.766c.753.809,1.53,1.6,2.34,2.35a1.234,1.234,0,0,0,1.956-.137c.279-.306.519-.646.777-.971l.931-1.175c0,1.509-.01,2.771.006,4.032,0,.359-.17.4-.459.4" transform="translate(704.793 2044.464)" fill="#6ab3e3" stroke="#6ab3e3" stroke-width="0.5"/><path d="M65.26,161.662a1.269,1.269,0,0,0-1.72.167,5.748,5.748,0,0,0-.824,1.034,1.357,1.357,0,0,1-1.379.658c-2.735-.03-5.47-.013-8.2-.013-1.721,0-2.053.326-2.053,2.012q0,4.268,0,8.536c0,1.6.366,1.971,1.932,1.973q2.2,0,4.393,0h4.227c1.606,0,1.967-.353,1.969-1.931,0-2.542.011-5.083-.008-7.625a1.717,1.717,0,0,1,.42-1.2c.515-.611,1.015-1.24,1.468-1.9a1.24,1.24,0,0,0-.219-1.712m-4.642,11.847q-3.274-.014-6.549,0c-.37,0-.472-.151-.471-.5q.014-3.233,0-6.466c0-.331.067-.508.451-.506,1.982.013,3.965.006,6.134.006-.665.85-1.237,1.57-1.8,2.3-.239.311-.369.054-.514-.086-.358-.345-.692-.717-1.067-1.042a1.248,1.248,0,1,0-1.752,1.776c.755.806,1.533,1.593,2.342,2.345a1.236,1.236,0,0,0,1.954-.141c.278-.306.519-.645.777-.969l.929-1.172c0,1.5-.006,2.761,0,4.021,0,.322-.12.432-.44.431" transform="translate(704.784 2127.483)" fill="#6ab3e3" stroke="#6ab3e3" stroke-width="0.5"/><path d="M63.59,379.556c0-1.52.008-3.039,0-4.559-.009-1.312-.433-1.729-1.75-1.732q-4.517-.007-9.035,0c-1.294,0-1.729.445-1.732,1.756q-.008,4.518,0,9.035c0,1.276.42,1.715,1.674,1.719q4.6.017,9.2,0c1.217,0,1.63-.43,1.641-1.66.014-1.52,0-3.039,0-4.559m-3.105,3.694c-2.1-.03-4.2-.026-6.3,0-.481.005-.6-.15-.6-.613.022-2.073.019-4.146,0-6.219,0-.433.07-.648.581-.641q3.15.039,6.3,0c.505-.007.594.191.583.631-.025,1.05-.008,2.1-.008,3.151,0,1.023-.018,2.046.008,3.068.011.431-.055.634-.567.627" transform="translate(704.793 1950.874)" fill="#6ab3e3" stroke="#6ab3e3" stroke-width="0.5"/></g></svg>