<svg xmlns="http://www.w3.org/2000/svg" width="85.976" height="85.998" viewBox="0 0 85.976 85.998"><g transform="translate(-21402.17 13305.498)"><path d="M153.638,382.491l-.014.16H123.417l-.014-.16h30.235" transform="translate(21306.637 -13602.651)" fill="#6ab3e3" stroke="#6ab3e3" stroke-width="1"/><path d="M177.288,289.574c.911,0,1.823-.017,2.734.005a1.237,1.237,0,1,1,.043,2.471q-2.816.043-5.634,0a1.236,1.236,0,1,1,.04-2.471c.938-.022,1.878-.005,2.817-.005" transform="translate(21267.908 -13530.34)" fill="#6ab3e3" stroke="#6ab3e3" stroke-width="1"/><path d="M78.3,11.878c-2.766,0-5.532,0-8.3-.006-.248,0-.535.109-.831-.183.316-.284.608-.533.885-.8s.559-.538.812-.83a2.02,2.02,0,0,0,.011-2.787q-1.438-1.549-2.987-3a2,2,0,0,0-2.847.018,15.323,15.323,0,0,0-1.236,1.227c-.371.414-.679.594-1.245.233a6.4,6.4,0,0,0-1.9-.8c-.788-.192-1.017-.582-.961-1.369C59.9.939,59.375-.175,56.136.022,55.5.06,54.864.027,54.228.027c-2.017,0-2.75.73-2.752,2.735,0,1.773-.114,1.583-1.623,2.478-1.6.947-2.5.478-3.544-.758a2.009,2.009,0,0,0-3.192-.038q-1.339,1.3-2.639,2.642A2.07,2.07,0,0,0,40.5,10.24c.49.5,1.03.958,1.548,1.435l-.131.2h-.883q-17.593,0-35.185,0A5.469,5.469,0,0,0,0,17.742Q0,42.015,0,66.288a5.453,5.453,0,0,0,5.771,5.77c3.6.008,7.192,0,10.788,0a3.555,3.555,0,0,0,.58-.015,1.238,1.238,0,0,0-.01-2.462,4.2,4.2,0,0,0-.663-.012c-3.6,0-7.192.007-10.788,0a2.971,2.971,0,0,1-3.188-3.222c-.006-1.355.053-2.714-.022-4.065-.044-.791.232-.919.952-.919q38.463.028,76.925.018c.686,0,1.587-.226,2,.118.44.366.111,1.3.132,1.983.025.8-.053,1.609.017,2.405.2,2.245-1.19,3.725-3.737,3.717-18.477-.058-36.955-.031-55.433-.03-1.061,0-1.609.421-1.617,1.229s.542,1.257,1.587,1.259c2.628,0,5.256,0,7.883,0,.632,0,1.48-.209,1.84.112.438.391.02,1.239.037,1.89.009.331-.014.664-.037.995a61.64,61.64,0,0,1-.723,6.757c-.092.507-.256.732-.833.7-1.187-.057-2.378-.015-3.568-.017a1.173,1.173,0,0,0-1.267.967,1.068,1.068,0,0,0,.741,1.369,1.933,1.933,0,0,0,.9.071q14.618.006,29.237,0a.923.923,0,0,0,1-.7,1.322,1.322,0,0,0-.258-1.392,1.729,1.729,0,0,0-1.337-.553c-.856-.026-1.713-.008-2.569-.012-1.3-.006-1.312-.021-1.528-1.3-.444-2.619-.52-5.272-.731-7.912-.039-.493.171-.721.655-.733.3-.008.608-.009.911-.009q12.723,0,25.447,0c3.193,0,5.163-1.537,5.886-4.567V16.453c-1.329-3.609-2.738-4.575-6.673-4.575M42.984,16.406A18.425,18.425,0,0,1,44.439,12.9a2.071,2.071,0,0,0-.36-2.589c-.075-.081-.162-.152-.234-.235-.431-.494-1.3-.893-1.248-1.436.05-.517.816-.97,1.279-1.44.832-.844.836-.84,1.7.021.274.274.54.555.825.817a2.027,2.027,0,0,0,2.513.364,18.161,18.161,0,0,1,3.5-1.452,2.039,2.039,0,0,0,1.552-2.095c0-.055,0-.111,0-.166.054-.707-.29-1.864.135-2.032a8.274,8.274,0,0,1,2.854-.138c.348,0,.269.283.271.488.008.636-.01,1.273.009,1.908a2.021,2.021,0,0,0,1.524,2.028A16.888,16.888,0,0,1,62.2,8.354,2.06,2.06,0,0,0,64.847,8c.041-.037.077-.079.119-.116.533-.462,1.13-1.515,1.518-1.339A8.791,8.791,0,0,1,68.6,8.477c.221.216.017.34-.112.471-.447.452-.908.891-1.347,1.352a2.041,2.041,0,0,0-.391,2.579,18.773,18.773,0,0,1,1.459,3.5,2.061,2.061,0,0,0,2.1,1.548c.58.016,1.162.026,1.742,0,.416-.021.6.078.578.543-.04.828.267,1.833-.1,2.44-.391.642-1.465.174-2.237.239A2.129,2.129,0,0,0,68.179,22.8a17.784,17.784,0,0,1-1.4,3.349,2.086,2.086,0,0,0,.373,2.653c.509.565,1.5,1.017,1.439,1.678-.053.575-.991,1.039-1.46,1.615s-.863.6-1.285-.016a.52.52,0,0,0-.058-.059c-1.506-1.578-2.1-2.292-4.547-.808a9.533,9.533,0,0,1-2.316.871,2.1,2.1,0,0,0-1.692,2.242c0,.193,0,.387,0,.581,0,1.64,0,1.64-1.617,1.64-1.646,0-1.646,0-1.646-1.609,0-2.009-.3-2.429-2.219-3.012A14.4,14.4,0,0,1,49.1,30.774a2.1,2.1,0,0,0-2.846.408c-.415.406-.842.8-1.226,1.237-.252.285-.407.235-.64-.012-.533-.562-1.078-1.112-1.643-1.642-.258-.242-.29-.4-.013-.656.449-.409.873-.848,1.293-1.287a2.072,2.072,0,0,0,.407-2.647A18.02,18.02,0,0,1,43,22.747a2.068,2.068,0,0,0-2.071-1.589c-.138-.008-.277.007-.415,0-.624-.052-1.613.281-1.8-.135a7.087,7.087,0,0,1-.123-2.857c0-.281.264-.224.445-.226.636-.006,1.273.014,1.908-.008a2.046,2.046,0,0,0,2.037-1.521M5.2,57.987c0,.707-.132.947-.893.921-1.813-.062-1.814-.018-1.814-1.8q0-19.665,0-39.33c0-2.228,1.138-3.409,3.339-3.411q17.342-.011,34.683,0c.134,0,.268.012.436.02-.032.911-.454,1.177-1.237,1.067a8.935,8.935,0,0,0-1.409-.01,1.96,1.96,0,0,0-2.131,1.678c-.121.6-.48.483-.844.483q-13.276,0-26.552,0c-2.418,0-3.6,1.183-3.6,3.62q0,18.379.016,36.758m71.21.917q-16.969-.037-33.939-.017-16.928,0-33.856.017c-.747,0-.96-.17-.958-.944q.04-18.3.019-36.595c0-1.209.058-1.267,1.256-1.267q13.152,0,26.3-.016c.661,0,.887.112.869.833-.05,2.047.67,2.726,2.723,2.729,1.754,0,1.772,0,2.379,1.612.256.681.982,1.329.769,1.988-.2.611-.949,1.04-1.447,1.558a2.1,2.1,0,0,0-.03,3.22q1.3,1.342,2.642,2.638a1.965,1.965,0,0,0,3.123-.027c1.09-1.37,2.091-1.665,3.685-.76,1.431.812,1.532.645,1.524,2.388a2.916,2.916,0,0,0,.463,1.971,2.1,2.1,0,0,0,1.733.813c1.272-.006,2.545.015,3.817,0A2.1,2.1,0,0,0,59.72,36.8c.02-.635.018-1.273,0-1.908-.01-.329.1-.461.428-.57a11.214,11.214,0,0,0,2.214-.9A1.065,1.065,0,0,1,64,33.74,7.569,7.569,0,0,0,65.057,34.8a2.014,2.014,0,0,0,2.846,0q1.513-1.417,2.934-2.932a2.044,2.044,0,0,0-.023-2.916A19.063,19.063,0,0,0,69.4,27.547a.566.566,0,0,1-.11-.836A11.042,11.042,0,0,0,70.341,24.2c.118-.429.3-.587.744-.561.579.035,1.161.021,1.742.006a2.109,2.109,0,0,0,2.287-2.269c.061-1.407.06-1.394,1.471-1.281a.665.665,0,0,1,.707.65,6.117,6.117,0,0,1,.012.663q0,18.3.019,36.594c0,.744-.19.906-.914.9m5.358,0c-1.97-.019-1.971,0-1.971-1.977,0-11.865-.029-23.729.026-35.594.01-2.218-1.3-3.968-3.769-3.72-.616.062-.952-.043-1.11-.791a1.787,1.787,0,0,0-1.782-1.362,10.089,10.089,0,0,0-1.74,0c-.818.095-1.151-.253-1.168-1.058,3.2,0,6.372-.063,9.542.026,1.666.046,2.69,1.377,2.691,3.177q.005,14.478,0,28.956c0,3.872-.013,7.744.014,11.615,0,.587-.159.733-.734.727M49.71,82.5q-3.61.008-7.219,0c-2.3,0-4.592-.021-6.887.013-.664.01-.939-.019-.779-.852a61.615,61.615,0,0,0,.8-8.913c.026-.589.2-.71.761-.707q6.1.038,12.2,0c.556,0,.738.109.764.7a64.915,64.915,0,0,0,.862,9.323c.108.568-.235.428-.5.429" transform="translate(21402.668 -13305)" fill="#6ab3e3" stroke="#6ab3e3" stroke-width="1"/><path d="M226.47,54.257a9.653,9.653,0,1,1-18.061-4.778c.068-.12.145-.235.219-.351.534-.838,1.178-1.066,1.856-.658.661.4.759,1.1.271,1.948a7.159,7.159,0,1,0,7.967-3.094,7.254,7.254,0,0,0-3.6-.049c-.961.23-1.615-.089-1.792-.828-.192-.8.248-1.375,1.241-1.61a9.659,9.659,0,0,1,11.9,9.419" transform="translate(21241.443 -13339.687)" fill="#6ab3e3" stroke="#6ab3e3" stroke-width="1"/><path d="M233.113,65.425a5.03,5.03,0,1,0,5,5.1,5.021,5.021,0,0,0-5-5.1m-.1,7.569a2.538,2.538,0,1,1,2.61-2.439,2.54,2.54,0,0,1-2.61,2.439" transform="translate(21225.16 -13355.913)" fill="#6ab3e3" stroke="#6ab3e3" stroke-width="1"/><path d="M76.42,128.44a1.79,1.79,0,0,0-1.9-1.955,1.916,1.916,0,0,1-2.323-1.6c-.211-.672-.189-1.026.31-1.457a2.4,2.4,0,0,0,1.091-1.863,1.817,1.817,0,0,0-.549-1.343c-.574-.6-1.165-1.181-1.752-1.767-1.314-1.312-2.245-1.35-3.5,0a1.4,1.4,0,0,1-1.818.352,1.755,1.755,0,0,1-1.38-2.127,1.838,1.838,0,0,0-2.007-2.021c-.8-.019-1.6,0-2.406,0-1.8,0-2.47.64-2.413,2.457a1.37,1.37,0,0,1-1.009,1.545,1.775,1.775,0,0,1-2.5-.492,1.806,1.806,0,0,0-2.891.007c-.557.538-1.1,1.094-1.644,1.642-1.275,1.272-1.328,2.244-.017,3.436a1.421,1.421,0,0,1,.375,1.86,1.712,1.712,0,0,1-2.068,1.362c-1.294-.088-2.021.732-2.064,2.054-.026.773-.008,1.548-.006,2.323,0,1.85.65,2.542,2.486,2.478.808-.029,1.107.243,1.493.966a1.765,1.765,0,0,1-.508,2.55,1.831,1.831,0,0,0,.018,2.845c.556.578,1.132,1.136,1.7,1.7,1.236,1.231,2.221,1.282,3.373.009a1.452,1.452,0,0,1,1.938-.39,1.706,1.706,0,0,1,1.334,2c-.092,1.4.722,2.108,2.149,2.131.746.012,1.493,0,2.24,0,1.778,0,2.513-.68,2.43-2.448-.042-.9.3-1.19,1.07-1.574a1.7,1.7,0,0,1,2.424.507,1.824,1.824,0,0,0,2.9-.006c.579-.554,1.139-1.129,1.7-1.7,1.231-1.24,1.267-2.193-.037-3.376a1.434,1.434,0,0,1-.38-1.877,1.72,1.72,0,0,1,2.07-1.355,1.847,1.847,0,0,0,2.06-2.053c.012-.94.017-1.881,0-2.821m-2.508,2.22c-.008.234-.224.195-.383.2-.387.005-.775,0-1.161.008a1.778,1.778,0,0,0-1.784,1.337,15.5,15.5,0,0,1-1.109,2.666,1.974,1.974,0,0,0,.55,2.531c.268.284.857.52.69.911-.192.449-.695.766-1.068,1.135-.151.149-.242-.008-.331-.094-.239-.23-.467-.472-.706-.7a1.918,1.918,0,0,0-2.619-.386,12.009,12.009,0,0,1-2.286.947,1.924,1.924,0,0,0-1.561,2.134,1.937,1.937,0,0,1,0,.249c-.048.344.181.883-.138.993a4.339,4.339,0,0,1-1.556.049c-.2-.01-.194-.234-.2-.4,0-.359.013-.72-.008-1.078a1.911,1.911,0,0,0-1.51-1.932,11.4,11.4,0,0,1-2.071-.818c-1.454-.769-1.939-.681-3.142.5-.222.217-.445.707-.729.542a5.065,5.065,0,0,1-1.181-1.147c-.105-.123.124-.271.231-.383.267-.281.559-.538.811-.831a1.794,1.794,0,0,0,.292-2.15,15.947,15.947,0,0,1-1.14-2.742,1.783,1.783,0,0,0-1.8-1.328,4.123,4.123,0,0,1-.5-.008c-.34-.047-.867.194-.982-.155a4.651,4.651,0,0,1-.047-1.557c.007-.221.221-.2.384-.2.36,0,.719.008,1.078-.005a1.858,1.858,0,0,0,1.9-1.428,12.455,12.455,0,0,1,.767-2c.859-1.676.792-2.049-.535-3.411-.177-.182-.629-.336-.395-.666a12.821,12.821,0,0,1,1.294-1.341,2.771,2.771,0,0,0,.334.572c1.541,1.51,1.7,1.525,3.671.575a11.341,11.341,0,0,1,1.457-.582c1.449-.463,1.8-.931,1.823-2.449.006-.34-.191-.869.148-.983a4.474,4.474,0,0,1,1.555-.053c.217.009.178.238.181.4.005.387-.01.775.007,1.161a1.776,1.776,0,0,0,1.271,1.751,18.439,18.439,0,0,1,2.819,1.17,1.8,1.8,0,0,0,2.149-.3,4.763,4.763,0,0,0,.7-.7c.322-.427.581-.391.883.012a2.6,2.6,0,0,0,.527.526c.386.285.287.515-.022.777a8,8,0,0,0-.647.642,1.9,1.9,0,0,0-.347,2.354,12.417,12.417,0,0,1,.953,2.2c.426,1.412.914,1.761,2.376,1.8.362.009.917-.233,1.054.152a4.408,4.408,0,0,1,.04,1.559" transform="translate(21366.908 -13394.22)" fill="#6ab3e3" stroke="#6ab3e3" stroke-width="1"/><path d="M91.709,153.624a6.6,6.6,0,1,0,6.468,6.8,6.611,6.611,0,0,0-6.468-6.8m-.21,10.707a4.109,4.109,0,1,1,4.188-3.955,4.145,4.145,0,0,1-4.188,3.955" transform="translate(21336.516 -13424.548)" fill="#6ab3e3" stroke="#6ab3e3" stroke-width="1"/></g></svg>