<svg xmlns="http://www.w3.org/2000/svg" xmlns:xlink="http://www.w3.org/1999/xlink" width="180" height="180" viewBox="0 0 180 180"><defs><clipPath id="a"><rect width="100.019" height="89.45" fill="#6ab3e3" stroke="#fff" stroke-width="0.25"/></clipPath></defs><g transform="translate(-1463 -3031)"><g transform="translate(835 620)"><g transform="translate(11199 -8807)"><g transform="translate(-10571 11218)" fill="none"><path d="M90,0A90,90,0,1,1,0,90,90,90,0,0,1,90,0Z" stroke="none"/><path d="M 90 6 C 43.68223571777344 6 6 43.68223571777344 6 90 C 6 136.3177642822266 43.68223571777344 174 90 174 C 136.3177642822266 174 174 136.3177642822266 174 90 C 174 43.68223571777344 136.3177642822266 6 90 6 M 90 0 C 139.7056121826172 0 180 40.29438781738281 180 90 C 180 139.7056121826172 139.7056121826172 180 90 180 C 40.29438781738281 180 0 139.7056121826172 0 90 C 0 40.29438781738281 40.29438781738281 0 90 0 Z" stroke="none" fill="#6ab3e3"/></g></g></g><g transform="translate(1503 3076)"><g clip-path="url(#a)"><path d="M99.216,75.27c-.633-2.253-1.231-4.516-1.834-6.778q-3.471-13-6.958-26Q86.557,28.03,82.668,13.575c-.9-3.358-1.69-6.751-2.768-10.059a4.949,4.949,0,0,0-5.914-3.4c-.415.08-.823.191-1.232.3C68.322,1.579,63.9,2.8,59.471,3.966a1.131,1.131,0,0,1-1.509-.584A5.033,5.033,0,0,0,53.54.777C49.217.7,44.882.565,40.574.839A30.171,30.171,0,0,1,34.98.845a36.943,36.943,0,0,0-8.854.006A30.252,30.252,0,0,1,20.748.842C15.525.586,10.282.678,5.05.785A5.016,5.016,0,0,0,0,6.157c.081,15.6.035,31.21.035,46.816q0,15.313,0,30.625a4.718,4.718,0,0,0,.609,2.616,5.448,5.448,0,0,0,4.987,2.5c4.844.021,9.688,0,14.533.009a6.486,6.486,0,0,0,2.568-.5,1.763,1.763,0,0,1,1.5.017,6.23,6.23,0,0,0,2.569.48q3.755-.013,7.51,0a6.208,6.208,0,0,0,2.391-.4,2.629,2.629,0,0,1,2.162.026,5.08,5.08,0,0,0,2.005.36c4.129.012,8.258.036,12.387-.01a5.294,5.294,0,0,0,4.514-2.3,6.443,6.443,0,0,0,.982-3.813q.006-27.017.01-54.033c0-.517-.139-1.029-.117-1.355a4.689,4.689,0,0,0,.1.586c.388,1.779.909,3.524,1.377,5.282q6.325,23.747,12.713,47.478c.478,1.789.877,3.6,1.5,5.353a5.044,5.044,0,0,0,6,3.428c1.183-.229,2.336-.576,3.5-.894,4.2-1.151,8.43-2.2,12.611-3.423a4.477,4.477,0,0,0,3.579-4V79.265a31.6,31.6,0,0,0-.8-4M21.4,83.063c.018.828-.27,1.177-1.121,1.174q-7.461-.029-14.923,0c-.8,0-1.105-.335-1.1-1.114.023-1.885.032-3.772-.007-5.657-.012-.6.144-.775.753-.767,2.6.034,5.2.014,7.8.014s5.2.023,7.8-.016c.653-.01.8.186.791.809q-.061,2.778,0,5.559m-.846-10.5c-4.383-.032-8.766-.016-13.149-.016-.844,0-1.689-.018-2.532.007-.459.013-.63-.143-.615-.616.031-.941.046-1.885,0-2.824-.033-.612.175-.766.769-.759,2.63.031,5.26.013,7.889.013,2.565,0,5.13.023,7.695-.016.654-.01.834.187.795.815a19.339,19.339,0,0,0,0,2.531c.047.675-.156.871-.848.866m-.147-8.308q-7.605-.063-15.21,0c-.793.006-.946-.233-.945-.974q.03-28.325.017-56.649c0-1.281.107-1.388,1.389-1.389q7.167,0,14.333,0c1.329,0,1.4.076,1.4,1.459q0,14.089,0,28.178c0,9.458-.011,18.916.02,28.373,0,.81-.189,1.009-1,1m5.1,7.514a26.845,26.845,0,0,0,.008-2.721c-.014-.473.083-.7.631-.691q4.473.037,8.946,0c.508,0,.586.207.576.635-.021.972-.034,1.946,0,2.917.021.527-.178.657-.672.648-1.458-.027-2.917-.01-4.376-.01-1.426,0-2.853-.022-4.278.011-.595.014-.89-.1-.84-.789m10.173,5.648c-.051,1.917-.039,3.836-.008,5.754.012.746-.264,1.068-1.019,1.063q-4.048-.025-8.1,0c-.753,0-1.047-.335-1.041-1.066.017-1.918.024-3.836-.006-5.754-.009-.546.141-.728.7-.714,1.462.037,2.926.012,4.389.012,1.43,0,2.861.021,4.291-.011.546-.012.8.056.786.716M34.625,64.254c-2.761-.056-5.525-.039-8.287-.007-.621.007-.824-.134-.823-.795q.027-28.518,0-57.036c0-.9.354-1.2,1.222-1.188,2.567.033,5.135.039,7.7,0,.925-.015,1.245.3,1.242,1.244-.027,9.49-.016,18.979-.016,28.469,0,9.425-.014,18.849.024,28.274,0,.882-.233,1.059-1.067,1.042M54.232,83.107c.014.773-.235,1.133-1.054,1.13q-6.144-.029-12.29,0c-.747,0-1.052-.3-1.042-1.049.024-1.95.028-3.9,0-5.852-.009-.54.192-.635.672-.631,2.211.021,4.422.009,6.633.009,2.113,0,4.227.024,6.34-.015.606-.011.764.153.751.754-.041,1.885-.038,3.771,0,5.657m-.849-10.544c-2.143-.046-4.288-.017-6.432-.017-2.112,0-4.224-.02-6.335.013-.591.009-.808-.146-.776-.761.05-.939.032-1.884.005-2.825-.013-.46.133-.617.609-.615q6.579.024,13.157,0c.459,0,.634.124.618.6-.03.909-.05,1.821,0,2.728.04.67-.153.891-.852.876m-.158-8.31q-6.239-.065-12.479,0c-.725.007-.911-.164-.91-.9q.035-28.371.019-56.742c0-1.288.08-1.365,1.392-1.366q5.85,0,11.7,0c1.18,0,1.274.1,1.274,1.278q0,14.185,0,28.371c0,9.457-.012,18.914.021,28.371,0,.83-.223,1-1.017.992M74.3,65.687c-.732.2-.861-.03-1.021-.631q-7.323-27.42-14.673-54.834C58.281,9,58.334,8.889,59.5,8.574q7.412-2,14.828-3.995c.219-.059.442-.1.7-.155.6.025.707.483.839.98,1.277,4.79,2.574,9.574,3.858,14.362Q85.148,40,90.588,60.224c.232.861.043,1.1-.792,1.318Q82.032,63.548,74.3,65.687m1.171,7.582c-.214-.915-.437-1.83-.724-2.724-.157-.489-.062-.692.434-.824q8.033-2.134,16.056-4.3c.495-.134.734-.083.855.5.219,1.045.546,2.067.852,3.183-.05.37-.465.307-.72.376C88.068,70.6,83.9,71.711,79.74,72.824c-1.127.3-2.26.582-3.375.922-.515.157-.766.059-.891-.477m19.4,7.6q-6.807,1.817-13.607,3.658c-.5.135-1.013.234-1.5.406-.832.295-1.192-.069-1.388-.841-.47-1.852-.953-3.7-1.483-5.537-.147-.509-.014-.68.452-.8Q85.375,75.613,93.4,73.46c.321-.085.656-.258.8.328.489,1.981,1.04,3.947,1.567,5.918.025.094.049.188.076.287-.009.639-.479.741-.971.873" transform="translate(0 0)" fill="#6ab3e3" stroke="#fff" stroke-width="0.25"/><path d="M51.849,136.194q0,6.436,0,12.873c0,1.426-.49,2.218-1.52,2.514a1.978,1.978,0,0,1-2.556-1.55,6.231,6.231,0,0,1-.1-1.161q-.008-12.727,0-25.453c0-1.892.767-2.918,2.138-2.877,1.349.041,2.042,1.016,2.042,2.879q0,6.388,0,12.775" transform="translate(-36.919 -93.357)" fill="#6ab3e3" stroke="#fff" stroke-width="0.25"/><path d="M47.67,75.987a2.124,2.124,0,0,1,2.137-2.359,2.441,2.441,0,0,1-.1,4.83,2.191,2.191,0,0,1-2.041-2.471" transform="translate(-36.92 -57.024)" fill="#6ab3e3" stroke="#fff" stroke-width="0.25"/></g></g></g></svg>