<svg xmlns="http://www.w3.org/2000/svg" xmlns:xlink="http://www.w3.org/1999/xlink" width="180" height="180" viewBox="0 0 180 180"><defs><clipPath id="a"><rect width="99.995" height="100" fill="#6ab3e3" stroke="#6ab3e3" stroke-width="0.75"/></clipPath></defs><g transform="translate(-140 -3031)"><g transform="translate(10711 -8187)"><g transform="translate(-10571 11218)" fill="none"><path d="M90,0A90,90,0,1,1,0,90,90,90,0,0,1,90,0Z" stroke="none"/><path d="M 90 6 C 43.68223571777344 6 6 43.68223571777344 6 90 C 6 136.3177642822266 43.68223571777344 174 90 174 C 136.3177642822266 174 174 136.3177642822266 174 90 C 174 43.68223571777344 136.3177642822266 6 90 6 M 90 0 C 139.7056121826172 0 180 40.29438781738281 180 90 C 180 139.7056121826172 139.7056121826172 180 90 180 C 40.29438781738281 180 0 139.7056121826172 0 90 C 0 40.29438781738281 40.29438781738281 0 90 0 Z" stroke="none" fill="#6ab3e3"/></g></g><g transform="translate(183.553 3071)"><g clip-path="url(#a)"><path d="M14.382,136.306a2.045,2.045,0,0,1-1.6,2.2,1.912,1.912,0,0,1-2.192-1.484c-.611-2.165-1.155-4.349-1.719-6.527Q4.513,113.653.153,96.812A2.446,2.446,0,0,1,.2,94.993a1.852,1.852,0,0,1,1.554-1.059,1.792,1.792,0,0,1,1.762.874,3.661,3.661,0,0,1,.426,1.054q5.143,19.858,10.271,39.719c.078.3.142.6.17.724" transform="translate(0 -70.842)" fill="#6ab3e3" stroke="#6ab3e3" stroke-width="0.75"/><path d="M348.326,136.067c.477-1.873,1.025-4.055,1.588-6.232q4.347-16.79,8.7-33.578a9.754,9.754,0,0,1,.281-1,1.988,1.988,0,0,1,2.376-1.353,1.913,1.913,0,0,1,1.342,2.367c-.563,2.392-1.193,4.769-1.809,7.148q-4.228,16.338-8.465,32.674a7.842,7.842,0,0,1-.376,1.183,1.9,1.9,0,0,1-2.2,1.135,2.086,2.086,0,0,1-1.436-2.345" transform="translate(-262.718 -70.774)" fill="#6ab3e3" stroke="#6ab3e3" stroke-width="0.75"/><path d="M188.932,53.38c0,1.874.016,3.749-.008,5.623a1.955,1.955,0,0,1-1.191,1.914,1.826,1.826,0,0,1-2.038-.327,2.223,2.223,0,0,1-.69-1.783c0-3.61-.016-7.219,0-10.829a1.984,1.984,0,1,1,3.918-.012c.02,1.8,0,3.61,0,5.414" transform="translate(-139.532 -34.449)" fill="#6ab3e3" stroke="#6ab3e3" stroke-width="0.75"/><path d="M274.811,170.1a6.817,6.817,0,0,1,.169-2.1,1.811,1.811,0,0,1,1.822-1.279,1.726,1.726,0,0,1,1.786,1.311,7.885,7.885,0,0,1,.068,3.4,1.8,1.8,0,0,1-1.884,1.593A1.866,1.866,0,0,1,274.9,171.4a8.84,8.84,0,0,1-.086-1.3" transform="translate(-207.273 -125.742)" fill="#6ab3e3" stroke="#6ab3e3" stroke-width="0.75"/><path d="M249.094,195.711a10.663,10.663,0,0,1,1.454.011,1.877,1.877,0,0,1,1.674,1.828,1.794,1.794,0,0,1-1.52,1.932,8.042,8.042,0,0,1-3.2.013,1.812,1.812,0,0,1-1.581-1.987,1.909,1.909,0,0,1,1.819-1.809c.446-.045.9-.007,1.352-.007v.019" transform="translate(-185.48 -147.588)" fill="#6ab3e3" stroke="#6ab3e3" stroke-width="0.75"/><path d="M297.348,195.727a10.163,10.163,0,0,1,1.454.012,1.9,1.9,0,0,1,1.661,1.845,1.811,1.811,0,0,1-1.549,1.915,8.014,8.014,0,0,1-3.2,0,1.786,1.786,0,0,1-1.549-2,1.882,1.882,0,0,1,1.726-1.777,12.338,12.338,0,0,1,1.456-.01v.015" transform="translate(-221.867 -147.6)" fill="#6ab3e3" stroke="#6ab3e3" stroke-width="0.75"/><path d="M278.648,217.814a7.386,7.386,0,0,1-.154,2.019,1.811,1.811,0,0,1-1.772,1.348,1.749,1.749,0,0,1-1.865-1.351,8.545,8.545,0,0,1-.08-3.305,1.842,1.842,0,0,1,1.841-1.656,1.88,1.88,0,0,1,1.947,1.657,8.815,8.815,0,0,1,.083,1.289" transform="translate(-207.156 -162.061)" fill="#6ab3e3" stroke="#6ab3e3" stroke-width="0.75"/><path d="M45.933,32.959c-.485-.023-.974-.009-1.453-.075a1.887,1.887,0,0,1-1.625-1.863,1.854,1.854,0,0,1,1.592-1.887,11.759,11.759,0,0,1,3.113-.006,1.893,1.893,0,0,1-.067,3.761,14.452,14.452,0,0,1-1.559.01c0,.02,0,.04,0,.059" transform="translate(-32.322 -21.894)" fill="#6ab3e3" stroke="#6ab3e3" stroke-width="0.75"/><path d="M94.129,32.9a12.526,12.526,0,0,1-1.454-.01,1.893,1.893,0,0,1-.009-3.762,12.16,12.16,0,0,1,3.011,0,1.9,1.9,0,0,1-.092,3.776c-.48.047-.97.008-1.455.008V32.9" transform="translate(-68.631 -21.9)" fill="#6ab3e3" stroke="#6ab3e3" stroke-width="0.75"/><path d="M72.059,51.316a11.161,11.161,0,0,1,.011-1.454,1.894,1.894,0,0,1,3.75-.031,11.007,11.007,0,0,1,0,3.111,1.882,1.882,0,0,1-1.855,1.637,1.912,1.912,0,0,1-1.908-1.7,14.09,14.09,0,0,1-.01-1.559h.008" transform="translate(-54.33 -36.37)" fill="#6ab3e3" stroke="#6ab3e3" stroke-width="0.75"/><path d="M72.057,3.117a11.165,11.165,0,0,1,.011-1.454,1.894,1.894,0,0,1,3.75-.035,11,11,0,0,1,.005,3.112,1.894,1.894,0,0,1-3.763-.063,13.91,13.91,0,0,1-.01-1.559h.007" transform="translate(-54.329 -0.016)" fill="#6ab3e3" stroke="#6ab3e3" stroke-width="0.75"/><path d="M187.043,16.658a1.926,1.926,0,1,1-1.941,1.907,1.98,1.98,0,0,1,1.941-1.907" transform="translate(-139.61 -12.564)" fill="#6ab3e3" stroke="#6ab3e3" stroke-width="0.75"/><path d="M304.291,374.067a1.95,1.95,0,1,1-3.9-.063,2.035,2.035,0,0,1,1.979-1.887,2.057,2.057,0,0,1,1.921,1.95" transform="translate(-226.565 -280.664)" fill="#6ab3e3" stroke="#6ab3e3" stroke-width="0.75"/><path d="M99.37,299.191q-6.978-8.751-13.941-17.513a3.38,3.38,0,0,0-2.077-1.252c-3.867-.8-7.685-1.8-11.469-2.935a55.57,55.57,0,0,0-8.927-2.35c-4.656-.585-9.023-.108-12.5,3.5-.49.509-.7.118-.97-.167a10.793,10.793,0,0,0-4.748-2.869,19.322,19.322,0,0,0-11.371.332c-5.584,1.629-11.127,3.4-16.844,4.529a3.078,3.078,0,0,0-1.87,1.212c-2.685,3.407-5.4,6.793-8.1,10.188q-2.982,3.748-5.96,7.5a1.939,1.939,0,0,0-.368,2.13,2.025,2.025,0,0,0,1.91,1.2c.312.017.625,0,.938,0q19.795,0,39.589-.011a1.269,1.269,0,0,1,1.392.85,6.226,6.226,0,0,0,5.957,3.792,6.3,6.3,0,0,0,6.022-3.866,1.121,1.121,0,0,1,1.22-.78c3.264.031,6.529.015,9.793.013a6.9,6.9,0,0,0,.936-.027,2,2,0,0,0,1.881-1.987,1.951,1.951,0,0,0-2.072-1.9c-2.431-.032-4.862-.006-7.293-.012-1.492,0-3.153.383-4.429-.149s-2.121-2.036-3.24-3.019c-.631-.554-.536-.964-.127-1.551a10.169,10.169,0,0,1,5.518-4.028c4.117-1.251,8.186-.656,12.186.528,6.507,1.926,12.966,4.039,19.627,5.369a5.242,5.242,0,0,1,3.879,2.852H92.143c-2.743,0-5.487-.012-8.23.008a1.878,1.878,0,0,0-1.994,1.48,1.8,1.8,0,0,0,.886,2.123,2.559,2.559,0,0,0,1.4.315q6.772,0,13.544,0a2.03,2.03,0,0,0,1.621-3.513M17.376,284.548a.954.954,0,0,1,.593-.374c6.186-1.234,12.129-3.373,18.237-4.891,3-.745,6.072-.867,8.909.728,1.909,1.073,3.27,2.517,3,4.986a35.132,35.132,0,0,0-.023,3.767c-.148,0-.27.039-.329-.006-3.869-2.949-8.29-3.612-12.991-3.177-4.037.374-7.832,1.7-11.665,2.887-3.662,1.131-7.372,2.083-11.287,3.079l5.556-7m29.9,10.952c-1.087,1.073-2,2.555-3.31,3.1s-3,.172-4.523.172q-16.047.007-32.094,0H6.183a5.159,5.159,0,0,1,3.843-2.844c6.661-1.332,13.124-3.439,19.632-5.368,4-1.186,8.072-1.789,12.189-.54a10.108,10.108,0,0,1,5.645,4.187c.32.482.392.866-.142,1.215a.531.531,0,0,0-.074.073M52.5,301.85a2.708,2.708,0,0,1-2.491,1.572,2.564,2.564,0,0,1-1.874-.753c-.936-.907-.937-1.569-.015-2.485.614-.61,1.157-1.52,1.885-1.71.529-.139,1.107.9,1.632,1.445.508.524,1.416.909.862,1.932m26.583-12.756c-3.665-1.016-7.222-2.414-10.978-3.108-5.066-.935-10.006-.869-14.576,1.938-.47.289-.913.623-1.373.939-1.18-3.922-.2-7.076,2.81-8.853a10.248,10.248,0,0,1,5.927-1.16,36.305,36.305,0,0,1,8.875,2.077q5.7,1.781,11.537,3.043a3.073,3.073,0,0,1,1.936,1.214c1.6,2.092,3.259,4.133,5.071,6.415-3.244-.879-6.242-1.675-9.23-2.5" transform="translate(-0.041 -207.335)" fill="#6ab3e3" stroke="#6ab3e3" stroke-width="0.75"/><path d="M102.925,95.707a2.216,2.216,0,0,0-2.085-1.455c-2.094-.292-4.183-.626-6.283-.876a1.473,1.473,0,0,1-1.334-.925c-.944-2-1.952-3.975-2.92-5.966a1.985,1.985,0,0,0-1.832-1.319,2.054,2.054,0,0,0-1.93,1.316c-.987,2.02-2,4.028-2.965,6.059a1.328,1.328,0,0,1-1.182.821c-2.166.275-4.325.607-6.488.91A2.034,2.034,0,0,0,74.746,98c1.525,1.469,3,2.986,4.563,4.418a1.656,1.656,0,0,1,.541,1.732c-.382,2.043-.681,4.1-1.081,6.142a2.146,2.146,0,0,0,.722,2.415,2.182,2.182,0,0,0,2.528-.095c1.887-1.021,3.8-1.986,5.688-3.012a1.321,1.321,0,0,1,1.428,0c1.976,1.075,3.979,2.1,5.968,3.15a1.975,1.975,0,0,0,2.334-.1,2.052,2.052,0,0,0,.685-2.152c-.391-2.112-.729-4.234-1.124-6.346a1.651,1.651,0,0,1,.541-1.732c1.536-1.4,2.984-2.9,4.488-4.345a2.217,2.217,0,0,0,.9-2.372m-9.071,4.844a2.727,2.727,0,0,0-.931,2.873c.316,1.306.464,2.653.71,4.129-1.22-.638-2.377-1.154-3.437-1.821a3.044,3.044,0,0,0-3.575.022c-1.05.658-2.193,1.167-3.418,1.805.265-1.543.455-2.916.747-4.267a2.593,2.593,0,0,0-.831-2.615c-.99-.966-1.9-2.017-2.871-3.065,1.117-.163,2.321-.4,3.537-.5a3.079,3.079,0,0,0,2.923-2.072c.456-1.145,1.073-2.225,1.713-3.525C89.1,92.9,89.748,94.1,90.3,95.341a2.619,2.619,0,0,0,2.277,1.693c1.363.156,2.718.381,4.075.576-.952,1.011-1.825,2.027-2.794,2.941" transform="translate(-55.683 -64.235)" fill="#6ab3e3" stroke="#6ab3e3" stroke-width="0.75"/><path d="M257.5,14.476c-.892-1.151-1.709-2.364-2.631-3.49a1.664,1.664,0,0,1-.322-1.87C255.08,7.73,255.5,6.3,256,4.9a2.105,2.105,0,0,0-.368-2.412,2.083,2.083,0,0,0-2.328-.336c-1.406.487-2.844.89-4.22,1.45a1.72,1.72,0,0,1-1.951-.33c-1.163-.933-2.384-1.793-3.573-2.694a2.018,2.018,0,0,0-2.317-.345,2.112,2.112,0,0,0-1.076,2.1c.035,1.6.039,3.2.1,4.791a1.209,1.209,0,0,1-.6,1.2c-1.325.888-2.6,1.846-3.914,2.755a2.1,2.1,0,0,0-1.107,2.17c.162,1.011.9,1.417,1.768,1.683,1.424.434,2.838.9,4.272,1.3a1.52,1.52,0,0,1,1.229,1.2c.378,1.438.888,2.841,1.3,4.27.27.929.694,1.67,1.743,1.828a2.181,2.181,0,0,0,2.214-1.237,19.545,19.545,0,0,0,1.3-1.881c1.042-2.036,2.485-3.182,4.639-2.419,1.017,0,1.781-.015,2.544,0a2.053,2.053,0,0,0,1.834-3.512m-9.064-.264c-1.169.568-1.516,1.935-2.436,2.865-.688-1.087-.525-2.545-1.458-3.453s-2.314-.82-3.736-1.537c2.962-1.118,3.966-3.143,3.155-6.16,1.4.635,2.164,1.891,3.445,2.081,1.265.188,2.36-.682,3.657-.914-.155,1.252-1.072,2.344-.9,3.615.174,1.315,1.434,2.064,1.984,3.265-1.266.177-2.561-.319-3.707.238" transform="translate(-176.96 0)" fill="#6ab3e3" stroke="#6ab3e3" stroke-width="0.75"/></g></g></g></svg>