<svg id="Grupo_870" data-name="Grupo 870" xmlns="http://www.w3.org/2000/svg" width="28.089" height="28.048" viewBox="0 0 28.089 28.048">
  <path id="Caminho_1478" data-name="Caminho 1478" d="M-539.842,38.809a11.971,11.971,0,0,0-.411-3.056,14.08,14.08,0,0,0-4.529-7.151,13.206,13.206,0,0,0-4.978-2.684,11.508,11.508,0,0,0-2.986-.513c-.839-.017-1.678-.034-2.514.032a12.729,12.729,0,0,0-3.251.732,14.157,14.157,0,0,0-6,4.036,13.3,13.3,0,0,0-2.845,5.224,14.322,14.322,0,0,0-.465,5.233,13.47,13.47,0,0,0,1.616,5.28.941.941,0,0,1,.067.755c-.593,2.22-1.281,4.415-1.792,6.657v.055a1.441,1.441,0,0,0,.751-.061c2.145-.57,4.295-1.117,6.44-1.684a.47.47,0,0,1,.394.044,4.634,4.634,0,0,0,.543.26,13.713,13.713,0,0,0,7.38,1.25,13.964,13.964,0,0,0,4.838-1.411,14.091,14.091,0,0,0,4.342-3.327,13.836,13.836,0,0,0,3.079-5.946A15.348,15.348,0,0,0-539.842,38.809Zm-10.47,11.467a11.356,11.356,0,0,1-9.625-1.167.6.6,0,0,0-.506-.076c-1.293.346-2.589.68-3.885,1.018-.06.016-.122.025-.231.047.279-1.016.546-1.989.814-2.962.1-.351.189-.7.3-1.051a.484.484,0,0,0-.077-.452,11.349,11.349,0,0,1-1.925-6.478,11.666,11.666,0,0,1,8.74-11.1,11.662,11.662,0,0,1,14,7.843A11.506,11.506,0,0,1-550.312,50.276Z" transform="translate(567.93 -25.389)" fill="#212529"/>
  <path id="Caminho_1479" data-name="Caminho 1479" d="M-461.714,140.356a6.389,6.389,0,0,1-2.227-.49,13.277,13.277,0,0,1-6.307-4.652,11.683,11.683,0,0,1-1.911-3.007,4.054,4.054,0,0,1,.877-4.5,1.228,1.228,0,0,1,.888-.424c.31-.011.62-.006.93.009a.6.6,0,0,1,.5.42c.175.38.332.768.495,1.154.222.528.434,1.061.667,1.584a.776.776,0,0,1-.052.775,7.2,7.2,0,0,1-.8,1.04c-.3.344-.306.459-.071.848a9.5,9.5,0,0,0,4.653,4.021c.437.177.581.15.88-.2.336-.4.676-.79.981-1.212a.506.506,0,0,1,.7-.227,11.066,11.066,0,0,1,1.64.741,10.754,10.754,0,0,0,1.14.471c.417.152.44.27.431.714a2.886,2.886,0,0,1-2.152,2.75A3.9,3.9,0,0,1-461.714,140.356Z" transform="translate(479.481 -119.814)" fill="#212529"/>
</svg>
