<svg xmlns="http://www.w3.org/2000/svg" width="180" height="180" viewBox="0 0 180 180"><g transform="translate(-1044 -3031)"><g transform="translate(416 620)"><g transform="translate(11199 -8807)"><g transform="translate(-10571 11218)" fill="none"><path d="M90,0A90,90,0,1,1,0,90,90,90,0,0,1,90,0Z" stroke="none"/><path d="M 90 6 C 43.68223571777344 6 6 43.68223571777344 6 90 C 6 136.3177642822266 43.68223571777344 174 90 174 C 136.3177642822266 174 174 136.3177642822266 174 90 C 174 43.68223571777344 136.3177642822266 6 90 6 M 90 0 C 139.7056121826172 0 180 40.29438781738281 180 90 C 180 139.7056121826172 139.7056121826172 180 90 180 C 40.29438781738281 180 0 139.7056121826172 0 90 C 0 40.29438781738281 40.29438781738281 0 90 0 Z" stroke="none" fill="#6ab3e3"/></g></g></g><path d="M97.92,110.807H2.119a2.119,2.119,0,0,1,0-4.238h95.8a2.119,2.119,0,1,1,0,4.238Zm-3.887-9.659a2.119,2.119,0,0,1-2.119-2.119V52.2H39.144a2.119,2.119,0,0,1,0-4.238h54.89a2.119,2.119,0,0,1,2.119,2.119V99.028A2.12,2.12,0,0,1,94.033,101.148Zm-73.606,0a2.119,2.119,0,0,1-2.119-2.119V64.307a2.119,2.119,0,0,1,4.238,0V99.028A2.119,2.119,0,0,1,20.427,101.148Zm64.6-4.219H76.4a2.119,2.119,0,0,1-2.119-2.119V82.483A2.119,2.119,0,0,1,76.4,80.364h8.632a2.119,2.119,0,0,1,2.119,2.119V94.81A2.119,2.119,0,0,1,85.029,96.929ZM78.517,92.69H82.91V84.6H78.517V92.69ZM67.731,96.929H59.1A2.119,2.119,0,0,1,56.98,94.81V82.483A2.119,2.119,0,0,1,59.1,80.364h8.632a2.119,2.119,0,0,1,2.119,2.119V94.81A2.119,2.119,0,0,1,67.731,96.929ZM61.219,92.69h4.393V84.6H61.219ZM50.434,96.929H41.8a2.119,2.119,0,0,1-2.119-2.119V82.483A2.119,2.119,0,0,1,41.8,80.364h8.632a2.119,2.119,0,0,1,2.119,2.119V94.81A2.119,2.119,0,0,1,50.434,96.929ZM43.921,92.69h4.393V84.6H43.921Zm-32.868-4.5a2.117,2.117,0,0,1-1.774-.957A13.233,13.233,0,0,1,7.115,80.53a13.307,13.307,0,0,1,0-23.558,13.324,13.324,0,0,1,26.623,0,13.307,13.307,0,0,1,0,23.558,13.236,13.236,0,0,1-2.147,6.678,2.119,2.119,0,1,1-3.549-2.316,9.012,9.012,0,0,0,1.47-4.936c0-.2-.007-.406-.023-.626a2.119,2.119,0,0,1,1.338-2.118,9.078,9.078,0,0,0,0-16.922,2.119,2.119,0,0,1-1.338-2.118c.015-.22.023-.425.023-.626a9.085,9.085,0,1,0-18.17,0c0,.2.007.413.022.625a2.119,2.119,0,0,1-1.338,2.119,9.079,9.079,0,0,0,0,16.922,2.119,2.119,0,0,1,1.338,2.118c-.015.22-.023.425-.023.626a9.009,9.009,0,0,0,1.482,4.954,2.119,2.119,0,0,1-1.77,3.282ZM85.029,74.763H76.4a2.119,2.119,0,0,1-2.119-2.119V60.317A2.119,2.119,0,0,1,76.4,58.2h8.632a2.119,2.119,0,0,1,2.119,2.119V72.644A2.119,2.119,0,0,1,85.029,74.763Zm-6.512-4.239H82.91V62.437H78.517v8.088ZM67.731,74.763H59.1a2.119,2.119,0,0,1-2.119-2.119V60.317A2.119,2.119,0,0,1,59.1,58.2h8.632a2.119,2.119,0,0,1,2.119,2.119V72.644A2.119,2.119,0,0,1,67.731,74.763Zm-6.512-4.239h4.393V62.437H61.219ZM50.434,74.763H46.419a2.119,2.119,0,1,1,0-4.239h1.895V62.437H46.419a2.119,2.119,0,1,1,0-4.238h4.014a2.119,2.119,0,0,1,2.119,2.119V72.644A2.119,2.119,0,0,1,50.434,74.763Zm37.377-30.63a2.119,2.119,0,0,1-2.119-2.119V27.139H55.57V42.014a2.119,2.119,0,0,1-4.238,0V25.02A2.119,2.119,0,0,1,53.45,22.9h34.36A2.119,2.119,0,0,1,89.93,25.02V42.014A2.119,2.119,0,0,1,87.811,44.133Zm-8.816-3.45a2.119,2.119,0,0,1-2.119-2.119V34.443a2.119,2.119,0,1,1,4.238,0v4.121A2.119,2.119,0,0,1,78.995,40.683Zm-8.364,0a2.119,2.119,0,0,1-2.119-2.119V34.443a2.119,2.119,0,1,1,4.238,0v4.121A2.119,2.119,0,0,1,70.63,40.683Zm-8.364,0a2.119,2.119,0,0,1-2.119-2.119V34.443a2.119,2.119,0,1,1,4.238,0v4.121A2.119,2.119,0,0,1,62.267,40.683Z" transform="translate(1084 3054.099)" fill="#6ab3e3"/></g></svg>