<svg xmlns="http://www.w3.org/2000/svg" width="70.682" height="86.35" viewBox="0 0 70.682 86.35"><g transform="translate(-21756.14 13305.67)"><path d="M1436.2,163.123h15.919a7.106,7.106,0,0,1,.828.017,1.141,1.141,0,0,1,1.075,1.078,1.174,1.174,0,0,1-.8,1.3,2.424,2.424,0,0,1-.981.094q-16.044,0-32.087,0c-.193,0-.389.012-.58-.007a1.246,1.246,0,0,1-1.208-1.311,1.18,1.18,0,0,1,1.255-1.161c1.243-.025,2.487-.01,3.731-.01H1436.2" transform="translate(20361.115 -13431.941)" fill="#6ab3e3" stroke="#6ab3e3" stroke-width="1.35"/><path d="M1436.188,123.929H1420.27a5.915,5.915,0,0,1-.828-.025,1.125,1.125,0,0,1-1.047-1.1,1.166,1.166,0,0,1,.827-1.281,2.634,2.634,0,0,1,.983-.083q16,0,32,0c.193,0,.388-.011.58,0a1.278,1.278,0,0,1,1.28,1.258,1.217,1.217,0,0,1-1.3,1.217c-1.575.024-3.151.011-4.726.011h-11.856" transform="translate(20361.094 -13399.502)" fill="#6ab3e3" stroke="#6ab3e3" stroke-width="1.35"/><path d="M1436.238,207.126q-8,0-16,0a4.913,4.913,0,0,1-.908-.044,1.1,1.1,0,0,1-.947-1.1,1.151,1.151,0,0,1,.778-1.235,2.8,2.8,0,0,1,1.065-.11q16,0,32,0a3.983,3.983,0,0,1,.9.077,1.116,1.116,0,0,1,.917,1.211,1.131,1.131,0,0,1-1.063,1.173,6.809,6.809,0,0,1-.827.025h-15.917" transform="translate(20361.1 -13464.248)" fill="#6ab3e3" stroke="#6ab3e3" stroke-width="1.35"/><path d="M1384.873,14.859Q1377.791,7.8,1370.737.715a2.191,2.191,0,0,0-1.684-.695q-18,.023-36.008.013a4.852,4.852,0,0,0-5.166,5.041c-.008.679-.216.789-.828.788a4.807,4.807,0,0,0-4.868,3.808c-.1.412-.227.552-.637.533-3.073-.143-5.376,2.157-5.358,5.581.07,13.5.029,27,.029,40.5,0,1.288.378,1.868,1.226,1.886.889.019,1.263-.543,1.263-1.906q0-20.167,0-40.335c0-.3-.013-.61.014-.912a2.4,2.4,0,0,1,2.21-2.3c1.1-.149,1.105-.142,1.105.965q0,30.708,0,61.415a7,7,0,0,0,.224,2.052,4.908,4.908,0,0,0,4.957,3.516q15.473.017,30.947.006a2.144,2.144,0,0,0,.9-.128,1.16,1.16,0,0,0,.749-1.331,1.13,1.13,0,0,0-1.046-1.014,6.326,6.326,0,0,0-.746-.017h-14.6q-8.048,0-16.1,0a2.492,2.492,0,0,1-2.792-2.753c0-.111,0-.221,0-.332V11.44c0-.166,0-.332,0-.5a2.494,2.494,0,0,1,2.758-2.619c.493,0,.59.165.583.616-.025,1.6-.011,3.209-.009,4.813,0,.47-.024.943.02,1.41a1.193,1.193,0,0,0,1.244,1.181,1.176,1.176,0,0,0,1.213-1.2c.021-.247.011-.5.012-.747,0-3.043-.01-6.086,0-9.129a2.45,2.45,0,0,1,2.775-2.743q17.216,0,34.431-.019c.667,0,.744.218.739.792-.028,2.849-.014,5.7-.012,8.548,0,3.459,1.981,5.427,5.465,5.43,2.766,0,5.531.031,8.3-.019.779-.014,1,.151,1,.975q-.042,25.479-.021,50.958c0,2.361-.822,3.176-3.2,3.176h-46.3c-2.372,0-3.181-.812-3.181-3.193q0-23.9,0-47.8a7.326,7.326,0,0,0-.031-.994,1.213,1.213,0,0,0-2.382-.125,3.508,3.508,0,0,0-.072.821q-.005,24.234,0,48.468a6.1,6.1,0,0,0,.221,1.8,4.943,4.943,0,0,0,5.127,3.512q13.275.009,26.55,0c5.559,0,11.118.01,16.676-.014.6,0,.823.117.787.766a2.515,2.515,0,0,1-2.733,2.576c-3.457.012-6.914,0-10.371.008a1.175,1.175,0,0,0-1.323,1.168,1.23,1.23,0,0,0,1.216,1.3,5.844,5.844,0,0,0,.663.012c1.991,0,3.982,0,5.974,0,.2,0,.43-.079.605.091a2.385,2.385,0,0,1-2.677,1.76H1321.7c-2.137,0-2.99-.864-2.991-3.034q0-8.424,0-16.848c0-.955-.491-1.534-1.248-1.521-.739.013-1.233.568-1.234,1.472-.008,5.837-.024,11.675.007,17.512a4.834,4.834,0,0,0,3.59,4.73c.128.04.278.028.348.178h49.616a4.953,4.953,0,0,0,3.882-3.627c.161-.66.439-.719.99-.73a4.869,4.869,0,0,0,5.018-5.038c.007-.692.238-.774.837-.79a4.887,4.887,0,0,0,5-5.15q.013-26.641.011-53.282a2.037,2.037,0,0,0-.646-1.544m-5.229-.075c-2.07,0-4.14.01-6.209,0a2.438,2.438,0,0,1-2.66-2.682c-.008-2.538,0-5.075,0-7.65L1381.1,14.784Z" transform="translate(20440.627 -13305.015)" fill="#6ab3e3" stroke="#6ab3e3" stroke-width="1.35"/></g></svg>