<?xml version="1.0" encoding="utf-8"?>
<!-- Generator: Adobe Illustrator 25.4.4, SVG Export Plug-In . SVG Version: 6.00 Build 0)  -->
<svg version="1.1" id="play-button" xmlns="http://www.w3.org/2000/svg" xmlns:xlink="http://www.w3.org/1999/xlink" x="0px"
	 y="0px" viewBox="0 0 263.4 263.4" style="enable-background:new 0 0 263.4 263.4;" xml:space="preserve">
<style type="text/css">
	.st0{fill:#FFFFFF;}
</style>
<g id="Grupo_118">
	<g id="Grupo_117">
		<path id="Caminho_92" class="st0" d="M131.7,0C59.1,0,0,59.1,0,131.7s59.1,131.7,131.7,131.7s131.7-59.1,131.7-131.7
			S204.3,0,131.7,0z M131.7,252.4C65,252.4,11,198.4,11,131.7S65,11,131.7,11S252.4,65,252.4,131.7
			C252.4,198.4,198.4,252.4,131.7,252.4z"/>
		<path id="Caminho_93" class="st0" d="M184.1,127.1l-76.8-49.4c-2.5-1.6-5.9-0.9-7.6,1.6c-0.6,0.9-0.9,1.9-0.9,3v98.8
			c0,3,2.5,5.5,5.5,5.5c1.1,0,2.1-0.3,3-0.9l76.8-49.4c2.5-1.6,3.3-5,1.6-7.6C185.3,128.1,184.7,127.5,184.1,127.1L184.1,127.1z
			 M109.8,171V92.4l61.2,39.3L109.8,171z"/>
	</g>
</g>
</svg>
